<?xml version="1.0" encoding="utf-8"?>
<svg xmlns="http://www.w3.org/2000/svg" xmlns:xlink="http://www.w3.org/1999/xlink" width="528" height="336" viewBox="0 0 2112 1344">
<defs>
  <clipPath id="clip800">
    <rect x="0" y="0" width="2112" height="1344"/>
  </clipPath>
</defs>
<path clip-path="url(#clip800)" d="M0 1344 L2112 1344 L2112 2.13163e-14 L0 2.13163e-14  Z" fill="#ffffff" fill-rule="evenodd" fill-opacity="1"/>
<defs>
  <clipPath id="clip801">
    <rect x="1300" y="47" width="765" height="1127"/>
  </clipPath>
</defs>
<path clip-path="url(#clip800)" d="M244.988 1173.47 L1008.76 1173.47 L1008.76 47.2441 L244.988 47.2441  Z" fill="#ffffff" fill-rule="evenodd" fill-opacity="1"/>
<defs>
  <clipPath id="clip802">
    <rect x="244" y="47" width="765" height="1127"/>
  </clipPath>
</defs>
<polyline clip-path="url(#clip802)" style="stroke:#000000; stroke-linecap:round; stroke-linejoin:round; stroke-width:2; stroke-opacity:0.1; fill:none" points="266.604,1173.47 266.604,47.2441 "/>
<polyline clip-path="url(#clip802)" style="stroke:#000000; stroke-linecap:round; stroke-linejoin:round; stroke-width:2; stroke-opacity:0.1; fill:none" points="506.783,1173.47 506.783,47.2441 "/>
<polyline clip-path="url(#clip802)" style="stroke:#000000; stroke-linecap:round; stroke-linejoin:round; stroke-width:2; stroke-opacity:0.1; fill:none" points="746.961,1173.47 746.961,47.2441 "/>
<polyline clip-path="url(#clip802)" style="stroke:#000000; stroke-linecap:round; stroke-linejoin:round; stroke-width:2; stroke-opacity:0.1; fill:none" points="987.14,1173.47 987.14,47.2441 "/>
<polyline clip-path="url(#clip802)" style="stroke:#000000; stroke-linecap:round; stroke-linejoin:round; stroke-width:2; stroke-opacity:0.1; fill:none" points="244.988,1035.72 1008.76,1035.72 "/>
<polyline clip-path="url(#clip802)" style="stroke:#000000; stroke-linecap:round; stroke-linejoin:round; stroke-width:2; stroke-opacity:0.1; fill:none" points="244.988,766.723 1008.76,766.723 "/>
<polyline clip-path="url(#clip802)" style="stroke:#000000; stroke-linecap:round; stroke-linejoin:round; stroke-width:2; stroke-opacity:0.1; fill:none" points="244.988,497.723 1008.76,497.723 "/>
<polyline clip-path="url(#clip802)" style="stroke:#000000; stroke-linecap:round; stroke-linejoin:round; stroke-width:2; stroke-opacity:0.1; fill:none" points="244.988,228.722 1008.76,228.722 "/>
<polyline clip-path="url(#clip800)" style="stroke:#000000; stroke-linecap:round; stroke-linejoin:round; stroke-width:4; stroke-opacity:1; fill:none" points="244.988,1173.47 1008.76,1173.47 "/>
<polyline clip-path="url(#clip800)" style="stroke:#000000; stroke-linecap:round; stroke-linejoin:round; stroke-width:4; stroke-opacity:1; fill:none" points="266.604,1173.47 266.604,1154.57 "/>
<polyline clip-path="url(#clip800)" style="stroke:#000000; stroke-linecap:round; stroke-linejoin:round; stroke-width:4; stroke-opacity:1; fill:none" points="506.783,1173.47 506.783,1154.57 "/>
<polyline clip-path="url(#clip800)" style="stroke:#000000; stroke-linecap:round; stroke-linejoin:round; stroke-width:4; stroke-opacity:1; fill:none" points="746.961,1173.47 746.961,1154.57 "/>
<polyline clip-path="url(#clip800)" style="stroke:#000000; stroke-linecap:round; stroke-linejoin:round; stroke-width:4; stroke-opacity:1; fill:none" points="987.14,1173.47 987.14,1154.57 "/>
<path clip-path="url(#clip800)" d="M236.361 1216.74 L266.037 1216.74 L266.037 1220.67 L236.361 1220.67 L236.361 1216.74 Z" fill="#000000" fill-rule="nonzero" fill-opacity="1" /><path clip-path="url(#clip800)" d="M276.94 1229.63 L284.579 1229.63 L284.579 1203.27 L276.269 1204.93 L276.269 1200.67 L284.532 1199.01 L289.208 1199.01 L289.208 1229.63 L296.847 1229.63 L296.847 1233.57 L276.94 1233.57 L276.94 1229.63 Z" fill="#000000" fill-rule="nonzero" fill-opacity="1" /><path clip-path="url(#clip800)" d="M506.783 1202.09 Q503.172 1202.09 501.343 1205.65 Q499.537 1209.19 499.537 1216.32 Q499.537 1223.43 501.343 1226.99 Q503.172 1230.53 506.783 1230.53 Q510.417 1230.53 512.223 1226.99 Q514.051 1223.43 514.051 1216.32 Q514.051 1209.19 512.223 1205.65 Q510.417 1202.09 506.783 1202.09 M506.783 1198.38 Q512.593 1198.38 515.648 1202.99 Q518.727 1207.57 518.727 1216.32 Q518.727 1225.05 515.648 1229.65 Q512.593 1234.24 506.783 1234.24 Q500.973 1234.24 497.894 1229.65 Q494.838 1225.05 494.838 1216.32 Q494.838 1207.57 497.894 1202.99 Q500.973 1198.38 506.783 1198.38 Z" fill="#000000" fill-rule="nonzero" fill-opacity="1" /><path clip-path="url(#clip800)" d="M737.343 1229.63 L744.982 1229.63 L744.982 1203.27 L736.672 1204.93 L736.672 1200.67 L744.936 1199.01 L749.612 1199.01 L749.612 1229.63 L757.251 1229.63 L757.251 1233.57 L737.343 1233.57 L737.343 1229.63 Z" fill="#000000" fill-rule="nonzero" fill-opacity="1" /><path clip-path="url(#clip800)" d="M981.793 1229.63 L998.112 1229.63 L998.112 1233.57 L976.168 1233.57 L976.168 1229.63 Q978.83 1226.88 983.413 1222.25 Q988.019 1217.59 989.2 1216.25 Q991.445 1213.73 992.325 1211.99 Q993.228 1210.23 993.228 1208.54 Q993.228 1205.79 991.283 1204.05 Q989.362 1202.32 986.26 1202.32 Q984.061 1202.32 981.607 1203.08 Q979.177 1203.84 976.399 1205.4 L976.399 1200.67 Q979.223 1199.54 981.677 1198.96 Q984.131 1198.38 986.168 1198.38 Q991.538 1198.38 994.732 1201.07 Q997.927 1203.75 997.927 1208.24 Q997.927 1210.37 997.117 1212.29 Q996.33 1214.19 994.223 1216.78 Q993.644 1217.46 990.543 1220.67 Q987.441 1223.87 981.793 1229.63 Z" fill="#000000" fill-rule="nonzero" fill-opacity="1" /><path clip-path="url(#clip800)" d="M140.866 1271.78 L140.866 1308.73 L148.632 1308.73 Q158.467 1308.73 163.019 1304.28 Q167.602 1299.82 167.602 1290.21 Q167.602 1280.66 163.019 1276.23 Q158.467 1271.78 148.632 1271.78 L140.866 1271.78 M134.437 1266.49 L147.646 1266.49 Q161.459 1266.49 167.92 1272.26 Q174.382 1277.98 174.382 1290.21 Q174.382 1302.49 167.889 1308.25 Q161.396 1314.01 147.646 1314.01 L134.437 1314.01 L134.437 1266.49 Z" fill="#000000" fill-rule="nonzero" fill-opacity="1" /><path clip-path="url(#clip800)" d="M184.63 1266.49 L191.06 1266.49 L191.06 1310.7 Q191.06 1319.3 187.781 1323.18 Q184.535 1327.06 177.31 1327.06 L174.859 1327.06 L174.859 1321.65 L176.864 1321.65 Q181.129 1321.65 182.88 1319.27 Q184.63 1316.88 184.63 1310.7 L184.63 1266.49 Z" fill="#000000" fill-rule="nonzero" fill-opacity="1" /><path clip-path="url(#clip800)" d="M203.855 1266.49 L231.164 1266.49 L231.164 1271.91 L210.284 1271.91 L210.284 1285.91 L229.127 1285.91 L229.127 1291.32 L210.284 1291.32 L210.284 1314.01 L203.855 1314.01 L203.855 1266.49 Z" fill="#000000" fill-rule="nonzero" fill-opacity="1" /><path clip-path="url(#clip800)" d="M255.481 1266.49 L295.68 1266.49 L295.68 1271.91 L278.811 1271.91 L278.811 1314.01 L272.35 1314.01 L272.35 1271.91 L255.481 1271.91 L255.481 1266.49 Z" fill="#000000" fill-rule="nonzero" fill-opacity="1" /><path clip-path="url(#clip800)" d="M321.048 1294.73 L321.048 1297.59 L294.121 1297.59 Q294.503 1303.64 297.749 1306.82 Q301.027 1309.97 306.852 1309.97 Q310.226 1309.97 313.377 1309.14 Q316.56 1308.32 319.679 1306.66 L319.679 1312.2 Q316.528 1313.54 313.218 1314.24 Q309.908 1314.94 306.502 1314.94 Q297.972 1314.94 292.975 1309.97 Q288.01 1305.01 288.01 1296.54 Q288.01 1287.79 292.72 1282.66 Q297.463 1277.51 305.483 1277.51 Q312.677 1277.51 316.846 1282.15 Q321.048 1286.77 321.048 1294.73 M315.191 1293.01 Q315.127 1288.2 312.486 1285.34 Q309.876 1282.47 305.547 1282.47 Q300.645 1282.47 297.685 1285.24 Q294.757 1288.01 294.312 1293.04 L315.191 1293.01 Z" fill="#000000" fill-rule="nonzero" fill-opacity="1" /><path clip-path="url(#clip800)" d="M358.414 1285.21 Q360.61 1281.26 363.666 1279.39 Q366.722 1277.51 370.859 1277.51 Q376.429 1277.51 379.453 1281.42 Q382.477 1285.31 382.477 1292.5 L382.477 1314.01 L376.588 1314.01 L376.588 1292.69 Q376.588 1287.57 374.774 1285.08 Q372.96 1282.6 369.236 1282.6 Q364.684 1282.6 362.043 1285.62 Q359.401 1288.65 359.401 1293.87 L359.401 1314.01 L353.513 1314.01 L353.513 1292.69 Q353.513 1287.53 351.698 1285.08 Q349.884 1282.6 346.097 1282.6 Q341.609 1282.6 338.967 1285.66 Q336.325 1288.68 336.325 1293.87 L336.325 1314.01 L330.437 1314.01 L330.437 1278.37 L336.325 1278.37 L336.325 1283.9 Q338.33 1280.63 341.131 1279.07 Q343.932 1277.51 347.784 1277.51 Q351.667 1277.51 354.372 1279.48 Q357.109 1281.45 358.414 1285.21 Z" fill="#000000" fill-rule="nonzero" fill-opacity="1" /><path clip-path="url(#clip800)" d="M399.823 1308.67 L399.823 1327.57 L393.935 1327.57 L393.935 1278.37 L399.823 1278.37 L399.823 1283.78 Q401.669 1280.59 404.47 1279.07 Q407.303 1277.51 411.218 1277.51 Q417.711 1277.51 421.753 1282.66 Q425.827 1287.82 425.827 1296.22 Q425.827 1304.63 421.753 1309.78 Q417.711 1314.94 411.218 1314.94 Q407.303 1314.94 404.47 1313.41 Q401.669 1311.85 399.823 1308.67 M419.748 1296.22 Q419.748 1289.76 417.074 1286.1 Q414.432 1282.41 409.786 1282.41 Q405.139 1282.41 402.465 1286.1 Q399.823 1289.76 399.823 1296.22 Q399.823 1302.68 402.465 1306.38 Q405.139 1310.04 409.786 1310.04 Q414.432 1310.04 417.074 1306.38 Q419.748 1302.68 419.748 1296.22 Z" fill="#000000" fill-rule="nonzero" fill-opacity="1" /><path clip-path="url(#clip800)" d="M466.027 1294.73 L466.027 1297.59 L439.1 1297.59 Q439.482 1303.64 442.728 1306.82 Q446.006 1309.97 451.831 1309.97 Q455.205 1309.97 458.356 1309.14 Q461.539 1308.32 464.658 1306.66 L464.658 1312.2 Q461.507 1313.54 458.197 1314.24 Q454.887 1314.94 451.481 1314.94 Q442.951 1314.94 437.954 1309.97 Q432.989 1305.01 432.989 1296.54 Q432.989 1287.79 437.699 1282.66 Q442.442 1277.51 450.462 1277.51 Q457.656 1277.51 461.825 1282.15 Q466.027 1286.77 466.027 1294.73 M460.17 1293.01 Q460.106 1288.2 457.465 1285.34 Q454.855 1282.47 450.526 1282.47 Q445.624 1282.47 442.664 1285.24 Q439.736 1288.01 439.291 1293.04 L460.17 1293.01 Z" fill="#000000" fill-rule="nonzero" fill-opacity="1" /><path clip-path="url(#clip800)" d="M496.295 1283.84 Q495.309 1283.27 494.131 1283.01 Q492.985 1282.73 491.585 1282.73 Q486.62 1282.73 483.946 1285.97 Q481.304 1289.19 481.304 1295.24 L481.304 1314.01 L475.416 1314.01 L475.416 1278.37 L481.304 1278.37 L481.304 1283.9 Q483.15 1280.66 486.11 1279.1 Q489.07 1277.51 493.304 1277.51 Q493.908 1277.51 494.64 1277.6 Q495.372 1277.67 496.264 1277.83 L496.295 1283.84 Z" fill="#000000" fill-rule="nonzero" fill-opacity="1" /><path clip-path="url(#clip800)" d="M518.639 1296.1 Q511.541 1296.1 508.804 1297.72 Q506.067 1299.34 506.067 1303.26 Q506.067 1306.38 508.104 1308.22 Q510.173 1310.04 513.706 1310.04 Q518.575 1310.04 521.504 1306.6 Q524.464 1303.13 524.464 1297.4 L524.464 1296.1 L518.639 1296.1 M530.32 1293.68 L530.32 1314.01 L524.464 1314.01 L524.464 1308.6 Q522.459 1311.85 519.467 1313.41 Q516.475 1314.94 512.146 1314.94 Q506.672 1314.94 503.425 1311.88 Q500.21 1308.79 500.21 1303.64 Q500.21 1297.62 504.221 1294.57 Q508.263 1291.51 516.252 1291.51 L524.464 1291.51 L524.464 1290.94 Q524.464 1286.9 521.79 1284.7 Q519.148 1282.47 514.342 1282.47 Q511.287 1282.47 508.39 1283.2 Q505.494 1283.94 502.82 1285.4 L502.82 1279.99 Q506.035 1278.75 509.059 1278.14 Q512.082 1277.51 514.947 1277.51 Q522.681 1277.51 526.501 1281.52 Q530.32 1285.53 530.32 1293.68 Z" fill="#000000" fill-rule="nonzero" fill-opacity="1" /><path clip-path="url(#clip800)" d="M548.176 1268.25 L548.176 1278.37 L560.239 1278.37 L560.239 1282.92 L548.176 1282.92 L548.176 1302.27 Q548.176 1306.63 549.354 1307.87 Q550.563 1309.11 554.223 1309.11 L560.239 1309.11 L560.239 1314.01 L554.223 1314.01 Q547.444 1314.01 544.866 1311.5 Q542.288 1308.95 542.288 1302.27 L542.288 1282.92 L537.991 1282.92 L537.991 1278.37 L542.288 1278.37 L542.288 1268.25 L548.176 1268.25 Z" fill="#000000" fill-rule="nonzero" fill-opacity="1" /><path clip-path="url(#clip800)" d="M567.337 1299.95 L567.337 1278.37 L573.193 1278.37 L573.193 1299.72 Q573.193 1304.78 575.167 1307.33 Q577.14 1309.85 581.087 1309.85 Q585.829 1309.85 588.566 1306.82 Q591.335 1303.8 591.335 1298.58 L591.335 1278.37 L597.192 1278.37 L597.192 1314.01 L591.335 1314.01 L591.335 1308.54 Q589.203 1311.79 586.37 1313.38 Q583.569 1314.94 579.845 1314.94 Q573.702 1314.94 570.52 1311.12 Q567.337 1307.3 567.337 1299.95 M582.073 1277.51 L582.073 1277.51 Z" fill="#000000" fill-rule="nonzero" fill-opacity="1" /><path clip-path="url(#clip800)" d="M629.912 1283.84 Q628.925 1283.27 627.747 1283.01 Q626.601 1282.73 625.201 1282.73 Q620.236 1282.73 617.562 1285.97 Q614.92 1289.19 614.92 1295.24 L614.92 1314.01 L609.032 1314.01 L609.032 1278.37 L614.92 1278.37 L614.92 1283.9 Q616.766 1280.66 619.727 1279.1 Q622.687 1277.51 626.92 1277.51 Q627.525 1277.51 628.257 1277.6 Q628.989 1277.67 629.88 1277.83 L629.912 1283.84 Z" fill="#000000" fill-rule="nonzero" fill-opacity="1" /><path clip-path="url(#clip800)" d="M665.114 1294.73 L665.114 1297.59 L638.187 1297.59 Q638.569 1303.64 641.816 1306.82 Q645.094 1309.97 650.918 1309.97 Q654.292 1309.97 657.443 1309.14 Q660.626 1308.32 663.745 1306.66 L663.745 1312.2 Q660.594 1313.54 657.284 1314.24 Q653.974 1314.94 650.568 1314.94 Q642.038 1314.94 637.041 1309.97 Q632.076 1305.01 632.076 1296.54 Q632.076 1287.79 636.787 1282.66 Q641.529 1277.51 649.55 1277.51 Q656.743 1277.51 660.913 1282.15 Q665.114 1286.77 665.114 1294.73 M659.258 1293.01 Q659.194 1288.2 656.552 1285.34 Q653.942 1282.47 649.614 1282.47 Q644.712 1282.47 641.752 1285.24 Q638.824 1288.01 638.378 1293.04 L659.258 1293.01 Z" fill="#000000" fill-rule="nonzero" fill-opacity="1" /><path clip-path="url(#clip800)" d="M711.584 1272.83 L702.863 1296.48 L720.337 1296.48 L711.584 1272.83 M707.955 1266.49 L715.244 1266.49 L733.354 1314.01 L726.67 1314.01 L722.342 1301.82 L700.921 1301.82 L696.592 1314.01 L689.813 1314.01 L707.955 1266.49 Z" fill="#000000" fill-rule="nonzero" fill-opacity="1" /><path clip-path="url(#clip800)" d="M769.671 1292.5 L769.671 1314.01 L763.814 1314.01 L763.814 1292.69 Q763.814 1287.63 761.841 1285.11 Q759.868 1282.6 755.921 1282.6 Q751.178 1282.6 748.441 1285.62 Q745.704 1288.65 745.704 1293.87 L745.704 1314.01 L739.816 1314.01 L739.816 1278.37 L745.704 1278.37 L745.704 1283.9 Q747.805 1280.69 750.637 1279.1 Q753.502 1277.51 757.226 1277.51 Q763.369 1277.51 766.52 1281.33 Q769.671 1285.11 769.671 1292.5 Z" fill="#000000" fill-rule="nonzero" fill-opacity="1" /><path clip-path="url(#clip800)" d="M795.165 1282.47 Q790.455 1282.47 787.718 1286.16 Q784.98 1289.83 784.98 1296.22 Q784.98 1302.62 787.686 1306.31 Q790.423 1309.97 795.165 1309.97 Q799.844 1309.97 802.581 1306.28 Q805.319 1302.59 805.319 1296.22 Q805.319 1289.89 802.581 1286.2 Q799.844 1282.47 795.165 1282.47 M795.165 1277.51 Q802.804 1277.51 807.165 1282.47 Q811.525 1287.44 811.525 1296.22 Q811.525 1304.98 807.165 1309.97 Q802.804 1314.94 795.165 1314.94 Q787.495 1314.94 783.134 1309.97 Q778.806 1304.98 778.806 1296.22 Q778.806 1287.44 783.134 1282.47 Q787.495 1277.51 795.165 1277.51 Z" fill="#000000" fill-rule="nonzero" fill-opacity="1" /><path clip-path="url(#clip800)" d="M848.987 1285.21 Q851.184 1281.26 854.239 1279.39 Q857.295 1277.51 861.432 1277.51 Q867.002 1277.51 870.026 1281.42 Q873.05 1285.31 873.05 1292.5 L873.05 1314.01 L867.162 1314.01 L867.162 1292.69 Q867.162 1287.57 865.347 1285.08 Q863.533 1282.6 859.809 1282.6 Q855.258 1282.6 852.616 1285.62 Q849.974 1288.65 849.974 1293.87 L849.974 1314.01 L844.086 1314.01 L844.086 1292.69 Q844.086 1287.53 842.272 1285.08 Q840.457 1282.6 836.67 1282.6 Q832.182 1282.6 829.54 1285.66 Q826.898 1288.68 826.898 1293.87 L826.898 1314.01 L821.01 1314.01 L821.01 1278.37 L826.898 1278.37 L826.898 1283.9 Q828.904 1280.63 831.705 1279.07 Q834.505 1277.51 838.357 1277.51 Q842.24 1277.51 844.945 1279.48 Q847.682 1281.45 848.987 1285.21 Z" fill="#000000" fill-rule="nonzero" fill-opacity="1" /><path clip-path="url(#clip800)" d="M900.932 1296.1 Q893.834 1296.1 891.097 1297.72 Q888.359 1299.34 888.359 1303.26 Q888.359 1306.38 890.396 1308.22 Q892.465 1310.04 895.998 1310.04 Q900.868 1310.04 903.796 1306.6 Q906.756 1303.13 906.756 1297.4 L906.756 1296.1 L900.932 1296.1 M912.613 1293.68 L912.613 1314.01 L906.756 1314.01 L906.756 1308.6 Q904.751 1311.85 901.759 1313.41 Q898.767 1314.94 894.439 1314.94 Q888.964 1314.94 885.718 1311.88 Q882.503 1308.79 882.503 1303.64 Q882.503 1297.62 886.513 1294.57 Q890.556 1291.51 898.544 1291.51 L906.756 1291.51 L906.756 1290.94 Q906.756 1286.9 904.083 1284.7 Q901.441 1282.47 896.635 1282.47 Q893.579 1282.47 890.683 1283.2 Q887.786 1283.94 885.113 1285.4 L885.113 1279.99 Q888.328 1278.75 891.351 1278.14 Q894.375 1277.51 897.239 1277.51 Q904.974 1277.51 908.793 1281.52 Q912.613 1285.53 912.613 1293.68 Z" fill="#000000" fill-rule="nonzero" fill-opacity="1" /><path clip-path="url(#clip800)" d="M924.676 1264.49 L930.532 1264.49 L930.532 1314.01 L924.676 1314.01 L924.676 1264.49 Z" fill="#000000" fill-rule="nonzero" fill-opacity="1" /><path clip-path="url(#clip800)" d="M957.618 1317.32 Q955.136 1323.69 952.78 1325.63 Q950.425 1327.57 946.478 1327.57 L941.799 1327.57 L941.799 1322.67 L945.237 1322.67 Q947.656 1322.67 948.993 1321.53 Q950.329 1320.38 951.953 1316.12 L953.003 1313.44 L938.585 1278.37 L944.791 1278.37 L955.931 1306.25 L967.071 1278.37 L973.278 1278.37 L957.618 1317.32 Z" fill="#000000" fill-rule="nonzero" fill-opacity="1" /><path clip-path="url(#clip800)" d="M1016.15 1264.55 Q1011.89 1271.87 1009.82 1279.04 Q1007.75 1286.2 1007.75 1293.55 Q1007.75 1300.9 1009.82 1308.13 Q1011.92 1315.32 1016.15 1322.61 L1011.06 1322.61 Q1006.28 1315.13 1003.9 1307.9 Q1001.54 1300.68 1001.54 1293.55 Q1001.54 1286.45 1003.9 1279.26 Q1006.25 1272.06 1011.06 1264.55 L1016.15 1264.55 Z" fill="#000000" fill-rule="nonzero" fill-opacity="1" /><path clip-path="url(#clip800)" d="M1037.67 1269.74 Q1035.12 1269.74 1033.37 1271.52 Q1031.62 1273.27 1031.62 1275.82 Q1031.62 1278.33 1033.37 1280.09 Q1035.12 1281.8 1037.67 1281.8 Q1040.21 1281.8 1041.96 1280.09 Q1043.71 1278.33 1043.71 1275.82 Q1043.71 1273.31 1041.93 1271.52 Q1040.18 1269.74 1037.67 1269.74 M1037.67 1265.64 Q1039.7 1265.64 1041.58 1266.43 Q1043.46 1267.19 1044.83 1268.66 Q1046.29 1270.09 1047.02 1271.91 Q1047.76 1273.72 1047.76 1275.82 Q1047.76 1280.02 1044.8 1282.95 Q1041.87 1285.85 1037.6 1285.85 Q1033.31 1285.85 1030.44 1282.98 Q1027.58 1280.12 1027.58 1275.82 Q1027.58 1271.56 1030.51 1268.6 Q1033.43 1265.64 1037.67 1265.64 Z" fill="#000000" fill-rule="nonzero" fill-opacity="1" /><path clip-path="url(#clip800)" d="M1095.95 1270.16 L1095.95 1276.93 Q1092.7 1273.91 1089.01 1272.41 Q1085.35 1270.92 1081.21 1270.92 Q1073.06 1270.92 1068.73 1275.92 Q1064.4 1280.88 1064.4 1290.3 Q1064.4 1299.69 1068.73 1304.69 Q1073.06 1309.65 1081.21 1309.65 Q1085.35 1309.65 1089.01 1308.16 Q1092.7 1306.66 1095.95 1303.64 L1095.95 1310.35 Q1092.57 1312.65 1088.78 1313.79 Q1085.03 1314.94 1080.83 1314.94 Q1070.04 1314.94 1063.83 1308.35 Q1057.62 1301.73 1057.62 1290.3 Q1057.62 1278.84 1063.83 1272.26 Q1070.04 1265.64 1080.83 1265.64 Q1085.09 1265.64 1088.85 1266.78 Q1092.63 1267.9 1095.95 1270.16 Z" fill="#000000" fill-rule="nonzero" fill-opacity="1" /><path clip-path="url(#clip800)" d="M1104.7 1264.55 L1109.79 1264.55 Q1114.56 1272.06 1116.92 1279.26 Q1119.31 1286.45 1119.31 1293.55 Q1119.31 1300.68 1116.92 1307.9 Q1114.56 1315.13 1109.79 1322.61 L1104.7 1322.61 Q1108.93 1315.32 1111 1308.13 Q1113.1 1300.9 1113.1 1293.55 Q1113.1 1286.2 1111 1279.04 Q1108.93 1271.87 1104.7 1264.55 Z" fill="#000000" fill-rule="nonzero" fill-opacity="1" /><polyline clip-path="url(#clip800)" style="stroke:#000000; stroke-linecap:round; stroke-linejoin:round; stroke-width:4; stroke-opacity:1; fill:none" points="244.988,1173.47 244.988,47.2441 "/>
<polyline clip-path="url(#clip800)" style="stroke:#000000; stroke-linecap:round; stroke-linejoin:round; stroke-width:4; stroke-opacity:1; fill:none" points="244.988,1035.72 263.886,1035.72 "/>
<polyline clip-path="url(#clip800)" style="stroke:#000000; stroke-linecap:round; stroke-linejoin:round; stroke-width:4; stroke-opacity:1; fill:none" points="244.988,766.723 263.886,766.723 "/>
<polyline clip-path="url(#clip800)" style="stroke:#000000; stroke-linecap:round; stroke-linejoin:round; stroke-width:4; stroke-opacity:1; fill:none" points="244.988,497.723 263.886,497.723 "/>
<polyline clip-path="url(#clip800)" style="stroke:#000000; stroke-linecap:round; stroke-linejoin:round; stroke-width:4; stroke-opacity:1; fill:none" points="244.988,228.722 263.886,228.722 "/>
<path clip-path="url(#clip800)" d="M127.568 1021.52 Q123.957 1021.52 122.128 1025.09 Q120.323 1028.63 120.323 1035.76 Q120.323 1042.86 122.128 1046.43 Q123.957 1049.97 127.568 1049.97 Q131.202 1049.97 133.008 1046.43 Q134.836 1042.86 134.836 1035.76 Q134.836 1028.63 133.008 1025.09 Q131.202 1021.52 127.568 1021.52 M127.568 1017.82 Q133.378 1017.82 136.434 1022.43 Q139.512 1027.01 139.512 1035.76 Q139.512 1044.49 136.434 1049.09 Q133.378 1053.67 127.568 1053.67 Q121.758 1053.67 118.679 1049.09 Q115.623 1044.49 115.623 1035.76 Q115.623 1027.01 118.679 1022.43 Q121.758 1017.82 127.568 1017.82 Z" fill="#000000" fill-rule="nonzero" fill-opacity="1" /><path clip-path="url(#clip800)" d="M147.73 1047.12 L152.614 1047.12 L152.614 1053 L147.73 1053 L147.73 1047.12 Z" fill="#000000" fill-rule="nonzero" fill-opacity="1" /><path clip-path="url(#clip800)" d="M172.799 1021.52 Q169.188 1021.52 167.359 1025.09 Q165.554 1028.63 165.554 1035.76 Q165.554 1042.86 167.359 1046.43 Q169.188 1049.97 172.799 1049.97 Q176.433 1049.97 178.239 1046.43 Q180.068 1042.86 180.068 1035.76 Q180.068 1028.63 178.239 1025.09 Q176.433 1021.52 172.799 1021.52 M172.799 1017.82 Q178.609 1017.82 181.665 1022.43 Q184.743 1027.01 184.743 1035.76 Q184.743 1044.49 181.665 1049.09 Q178.609 1053.67 172.799 1053.67 Q166.989 1053.67 163.91 1049.09 Q160.855 1044.49 160.855 1035.76 Q160.855 1027.01 163.91 1022.43 Q166.989 1017.82 172.799 1017.82 Z" fill="#000000" fill-rule="nonzero" fill-opacity="1" /><path clip-path="url(#clip800)" d="M196.989 1049.07 L213.308 1049.07 L213.308 1053 L191.364 1053 L191.364 1049.07 Q194.026 1046.31 198.609 1041.68 Q203.216 1037.03 204.396 1035.69 Q206.642 1033.17 207.521 1031.43 Q208.424 1029.67 208.424 1027.98 Q208.424 1025.23 206.479 1023.49 Q204.558 1021.75 201.456 1021.75 Q199.257 1021.75 196.804 1022.52 Q194.373 1023.28 191.595 1024.83 L191.595 1020.11 Q194.419 1018.98 196.873 1018.4 Q199.327 1017.82 201.364 1017.82 Q206.734 1017.82 209.929 1020.5 Q213.123 1023.19 213.123 1027.68 Q213.123 1029.81 212.313 1031.73 Q211.526 1033.63 209.419 1036.22 Q208.841 1036.89 205.739 1040.11 Q202.637 1043.3 196.989 1049.07 Z" fill="#000000" fill-rule="nonzero" fill-opacity="1" /><path clip-path="url(#clip800)" d="M125.485 752.522 Q121.873 752.522 120.045 756.087 Q118.239 759.628 118.239 766.758 Q118.239 773.864 120.045 777.429 Q121.873 780.971 125.485 780.971 Q129.119 780.971 130.924 777.429 Q132.753 773.864 132.753 766.758 Q132.753 759.628 130.924 756.087 Q129.119 752.522 125.485 752.522 M125.485 748.818 Q131.295 748.818 134.35 753.425 Q137.429 758.008 137.429 766.758 Q137.429 775.485 134.35 780.091 Q131.295 784.675 125.485 784.675 Q119.674 784.675 116.596 780.091 Q113.54 775.485 113.54 766.758 Q113.54 758.008 116.596 753.425 Q119.674 748.818 125.485 748.818 Z" fill="#000000" fill-rule="nonzero" fill-opacity="1" /><path clip-path="url(#clip800)" d="M145.646 778.124 L150.531 778.124 L150.531 784.003 L145.646 784.003 L145.646 778.124 Z" fill="#000000" fill-rule="nonzero" fill-opacity="1" /><path clip-path="url(#clip800)" d="M170.716 752.522 Q167.105 752.522 165.276 756.087 Q163.47 759.628 163.47 766.758 Q163.47 773.864 165.276 777.429 Q167.105 780.971 170.716 780.971 Q174.35 780.971 176.156 777.429 Q177.984 773.864 177.984 766.758 Q177.984 759.628 176.156 756.087 Q174.35 752.522 170.716 752.522 M170.716 748.818 Q176.526 748.818 179.581 753.425 Q182.66 758.008 182.66 766.758 Q182.66 775.485 179.581 780.091 Q176.526 784.675 170.716 784.675 Q164.906 784.675 161.827 780.091 Q158.771 775.485 158.771 766.758 Q158.771 758.008 161.827 753.425 Q164.906 748.818 170.716 748.818 Z" fill="#000000" fill-rule="nonzero" fill-opacity="1" /><path clip-path="url(#clip800)" d="M203.725 753.517 L191.919 771.966 L203.725 771.966 L203.725 753.517 M202.498 749.443 L208.378 749.443 L208.378 771.966 L213.308 771.966 L213.308 775.855 L208.378 775.855 L208.378 784.003 L203.725 784.003 L203.725 775.855 L188.123 775.855 L188.123 771.341 L202.498 749.443 Z" fill="#000000" fill-rule="nonzero" fill-opacity="1" /><path clip-path="url(#clip800)" d="M125.809 483.522 Q122.198 483.522 120.369 487.086 Q118.563 490.628 118.563 497.758 Q118.563 504.864 120.369 508.429 Q122.198 511.971 125.809 511.971 Q129.443 511.971 131.248 508.429 Q133.077 504.864 133.077 497.758 Q133.077 490.628 131.248 487.086 Q129.443 483.522 125.809 483.522 M125.809 479.818 Q131.619 479.818 134.674 484.424 Q137.753 489.008 137.753 497.758 Q137.753 506.484 134.674 511.091 Q131.619 515.674 125.809 515.674 Q119.998 515.674 116.92 511.091 Q113.864 506.484 113.864 497.758 Q113.864 489.008 116.92 484.424 Q119.998 479.818 125.809 479.818 Z" fill="#000000" fill-rule="nonzero" fill-opacity="1" /><path clip-path="url(#clip800)" d="M145.971 509.123 L150.855 509.123 L150.855 515.003 L145.971 515.003 L145.971 509.123 Z" fill="#000000" fill-rule="nonzero" fill-opacity="1" /><path clip-path="url(#clip800)" d="M171.04 483.522 Q167.429 483.522 165.6 487.086 Q163.795 490.628 163.795 497.758 Q163.795 504.864 165.6 508.429 Q167.429 511.971 171.04 511.971 Q174.674 511.971 176.48 508.429 Q178.308 504.864 178.308 497.758 Q178.308 490.628 176.48 487.086 Q174.674 483.522 171.04 483.522 M171.04 479.818 Q176.85 479.818 179.906 484.424 Q182.984 489.008 182.984 497.758 Q182.984 506.484 179.906 511.091 Q176.85 515.674 171.04 515.674 Q165.23 515.674 162.151 511.091 Q159.095 506.484 159.095 497.758 Q159.095 489.008 162.151 484.424 Q165.23 479.818 171.04 479.818 Z" fill="#000000" fill-rule="nonzero" fill-opacity="1" /><path clip-path="url(#clip800)" d="M201.78 495.859 Q198.632 495.859 196.78 498.012 Q194.952 500.165 194.952 503.915 Q194.952 507.642 196.78 509.818 Q198.632 511.971 201.78 511.971 Q204.929 511.971 206.757 509.818 Q208.609 507.642 208.609 503.915 Q208.609 500.165 206.757 498.012 Q204.929 495.859 201.78 495.859 M211.063 481.207 L211.063 485.466 Q209.304 484.633 207.498 484.193 Q205.716 483.753 203.956 483.753 Q199.327 483.753 196.873 486.878 Q194.443 490.003 194.095 496.322 Q195.461 494.309 197.521 493.244 Q199.581 492.156 202.058 492.156 Q207.267 492.156 210.276 495.327 Q213.308 498.475 213.308 503.915 Q213.308 509.239 210.16 512.457 Q207.012 515.674 201.78 515.674 Q195.785 515.674 192.614 511.091 Q189.443 506.484 189.443 497.758 Q189.443 489.563 193.331 484.702 Q197.22 479.818 203.771 479.818 Q205.53 479.818 207.313 480.165 Q209.118 480.512 211.063 481.207 Z" fill="#000000" fill-rule="nonzero" fill-opacity="1" /><path clip-path="url(#clip800)" d="M126.063 214.521 Q122.452 214.521 120.623 218.086 Q118.818 221.628 118.818 228.757 Q118.818 235.864 120.623 239.428 Q122.452 242.97 126.063 242.97 Q129.697 242.97 131.503 239.428 Q133.332 235.864 133.332 228.757 Q133.332 221.628 131.503 218.086 Q129.697 214.521 126.063 214.521 M126.063 210.817 Q131.873 210.817 134.929 215.424 Q138.008 220.007 138.008 228.757 Q138.008 237.484 134.929 242.09 Q131.873 246.674 126.063 246.674 Q120.253 246.674 117.174 242.09 Q114.119 237.484 114.119 228.757 Q114.119 220.007 117.174 215.424 Q120.253 210.817 126.063 210.817 Z" fill="#000000" fill-rule="nonzero" fill-opacity="1" /><path clip-path="url(#clip800)" d="M146.225 240.123 L151.109 240.123 L151.109 246.002 L146.225 246.002 L146.225 240.123 Z" fill="#000000" fill-rule="nonzero" fill-opacity="1" /><path clip-path="url(#clip800)" d="M171.294 214.521 Q167.683 214.521 165.855 218.086 Q164.049 221.628 164.049 228.757 Q164.049 235.864 165.855 239.428 Q167.683 242.97 171.294 242.97 Q174.929 242.97 176.734 239.428 Q178.563 235.864 178.563 228.757 Q178.563 221.628 176.734 218.086 Q174.929 214.521 171.294 214.521 M171.294 210.817 Q177.105 210.817 180.16 215.424 Q183.239 220.007 183.239 228.757 Q183.239 237.484 180.16 242.09 Q177.105 246.674 171.294 246.674 Q165.484 246.674 162.406 242.09 Q159.35 237.484 159.35 228.757 Q159.35 220.007 162.406 215.424 Q165.484 210.817 171.294 210.817 Z" fill="#000000" fill-rule="nonzero" fill-opacity="1" /><path clip-path="url(#clip800)" d="M201.456 229.591 Q198.123 229.591 196.202 231.373 Q194.304 233.155 194.304 236.28 Q194.304 239.405 196.202 241.188 Q198.123 242.97 201.456 242.97 Q204.79 242.97 206.711 241.188 Q208.632 239.382 208.632 236.28 Q208.632 233.155 206.711 231.373 Q204.813 229.591 201.456 229.591 M196.78 227.6 Q193.771 226.859 192.081 224.799 Q190.415 222.739 190.415 219.776 Q190.415 215.632 193.355 213.225 Q196.317 210.817 201.456 210.817 Q206.618 210.817 209.558 213.225 Q212.498 215.632 212.498 219.776 Q212.498 222.739 210.808 224.799 Q209.141 226.859 206.155 227.6 Q209.535 228.387 211.41 230.678 Q213.308 232.97 213.308 236.28 Q213.308 241.303 210.229 243.989 Q207.174 246.674 201.456 246.674 Q195.739 246.674 192.66 243.989 Q189.605 241.303 189.605 236.28 Q189.605 232.97 191.503 230.678 Q193.401 228.387 196.78 227.6 M195.067 220.216 Q195.067 222.901 196.734 224.405 Q198.424 225.91 201.456 225.91 Q204.466 225.91 206.155 224.405 Q207.868 222.901 207.868 220.216 Q207.868 217.53 206.155 216.026 Q204.466 214.521 201.456 214.521 Q198.424 214.521 196.734 216.026 Q195.067 217.53 195.067 220.216 Z" fill="#000000" fill-rule="nonzero" fill-opacity="1" /><path clip-path="url(#clip800)" d="M25.3677 1125.04 L43.2235 1125.04 L43.2235 1116.96 Q43.2235 1112.47 40.9 1110.02 Q38.5765 1107.57 34.2797 1107.57 Q30.0147 1107.57 27.6912 1110.02 Q25.3677 1112.47 25.3677 1116.96 L25.3677 1125.04 M20.0842 1131.47 L20.0842 1116.96 Q20.0842 1108.97 23.7126 1104.89 Q27.3092 1100.79 34.2797 1100.79 Q41.3138 1100.79 44.9104 1104.89 Q48.507 1108.97 48.507 1116.96 L48.507 1125.04 L67.6042 1125.04 L67.6042 1131.47 L20.0842 1131.47 Z" fill="#000000" fill-rule="nonzero" fill-opacity="1" /><path clip-path="url(#clip800)" d="M37.4307 1072.91 Q36.8578 1073.89 36.6032 1075.07 Q36.3167 1076.22 36.3167 1077.62 Q36.3167 1082.58 39.5632 1085.26 Q42.7779 1087.9 48.8253 1087.9 L67.6042 1087.9 L67.6042 1093.79 L31.9562 1093.79 L31.9562 1087.9 L37.4944 1087.9 Q34.2479 1086.05 32.6883 1083.09 Q31.0968 1080.13 31.0968 1075.9 Q31.0968 1075.29 31.1923 1074.56 Q31.256 1073.83 31.4151 1072.94 L37.4307 1072.91 Z" fill="#000000" fill-rule="nonzero" fill-opacity="1" /><path clip-path="url(#clip800)" d="M36.0621 1054.38 Q36.0621 1059.09 39.7542 1061.83 Q43.4145 1064.57 49.812 1064.57 Q56.2095 1064.57 59.9017 1061.86 Q63.5619 1059.12 63.5619 1054.38 Q63.5619 1049.7 59.8698 1046.97 Q56.1777 1044.23 49.812 1044.23 Q43.4781 1044.23 39.786 1046.97 Q36.0621 1049.7 36.0621 1054.38 M31.0968 1054.38 Q31.0968 1046.74 36.0621 1042.38 Q41.0273 1038.02 49.812 1038.02 Q58.5649 1038.02 63.5619 1042.38 Q68.5272 1046.74 68.5272 1054.38 Q68.5272 1062.05 63.5619 1066.41 Q58.5649 1070.74 49.812 1070.74 Q41.0273 1070.74 36.0621 1066.41 Q31.0968 1062.05 31.0968 1054.38 Z" fill="#000000" fill-rule="nonzero" fill-opacity="1" /><path clip-path="url(#clip800)" d="M49.812 1002.72 Q43.3508 1002.72 39.6905 1005.4 Q35.9984 1008.04 35.9984 1012.69 Q35.9984 1017.33 39.6905 1020.01 Q43.3508 1022.65 49.812 1022.65 Q56.2732 1022.65 59.9653 1020.01 Q63.6256 1017.33 63.6256 1012.69 Q63.6256 1008.04 59.9653 1005.4 Q56.2732 1002.72 49.812 1002.72 M37.3671 1022.65 Q34.1842 1020.8 32.6564 1018 Q31.0968 1015.17 31.0968 1011.25 Q31.0968 1004.76 36.2531 1000.72 Q41.4093 996.644 49.812 996.644 Q58.2147 996.644 63.371 1000.72 Q68.5272 1004.76 68.5272 1011.25 Q68.5272 1015.17 66.9994 1018 Q65.4398 1020.8 62.257 1022.65 L67.6042 1022.65 L67.6042 1028.54 L18.079 1028.54 L18.079 1022.65 L37.3671 1022.65 Z" fill="#000000" fill-rule="nonzero" fill-opacity="1" /><path clip-path="url(#clip800)" d="M49.6847 970.736 Q49.6847 977.834 51.3079 980.571 Q52.9312 983.308 56.8461 983.308 Q59.9653 983.308 61.8114 981.271 Q63.6256 979.202 63.6256 975.669 Q63.6256 970.8 60.1881 967.871 Q56.7188 964.911 50.9897 964.911 L49.6847 964.911 L49.6847 970.736 M47.2657 959.055 L67.6042 959.055 L67.6042 964.911 L62.1933 964.911 Q65.4398 966.917 66.9994 969.908 Q68.5272 972.9 68.5272 977.229 Q68.5272 982.704 65.4716 985.95 Q62.3843 989.165 57.2281 989.165 Q51.2125 989.165 48.1569 985.154 Q45.1014 981.112 45.1014 973.123 L45.1014 964.911 L44.5285 964.911 Q40.4862 964.911 38.2901 967.585 Q36.0621 970.227 36.0621 975.033 Q36.0621 978.088 36.7941 980.985 Q37.5262 983.881 38.9903 986.555 L33.5795 986.555 Q32.3381 983.34 31.7334 980.316 Q31.0968 977.293 31.0968 974.428 Q31.0968 966.694 35.1072 962.874 Q39.1176 959.055 47.2657 959.055 Z" fill="#000000" fill-rule="nonzero" fill-opacity="1" /><path clip-path="url(#clip800)" d="M49.812 921.402 Q43.3508 921.402 39.6905 924.075 Q35.9984 926.717 35.9984 931.364 Q35.9984 936.011 39.6905 938.685 Q43.3508 941.326 49.812 941.326 Q56.2732 941.326 59.9653 938.685 Q63.6256 936.011 63.6256 931.364 Q63.6256 926.717 59.9653 924.075 Q56.2732 921.402 49.812 921.402 M37.3671 941.326 Q34.1842 939.48 32.6564 936.679 Q31.0968 933.847 31.0968 929.932 Q31.0968 923.439 36.2531 919.397 Q41.4093 915.323 49.812 915.323 Q58.2147 915.323 63.371 919.397 Q68.5272 923.439 68.5272 929.932 Q68.5272 933.847 66.9994 936.679 Q65.4398 939.48 62.257 941.326 L67.6042 941.326 L67.6042 947.215 L18.079 947.215 L18.079 941.326 L37.3671 941.326 Z" fill="#000000" fill-rule="nonzero" fill-opacity="1" /><path clip-path="url(#clip800)" d="M31.9562 905.615 L31.9562 899.758 L67.6042 899.758 L67.6042 905.615 L31.9562 905.615 M18.079 905.615 L18.079 899.758 L25.495 899.758 L25.495 905.615 L18.079 905.615 Z" fill="#000000" fill-rule="nonzero" fill-opacity="1" /><path clip-path="url(#clip800)" d="M18.079 887.504 L18.079 881.648 L67.6042 881.648 L67.6042 887.504 L18.079 887.504 Z" fill="#000000" fill-rule="nonzero" fill-opacity="1" /><path clip-path="url(#clip800)" d="M31.9562 869.394 L31.9562 863.537 L67.6042 863.537 L67.6042 869.394 L31.9562 869.394 M18.079 869.394 L18.079 863.537 L25.495 863.537 L25.495 869.394 L18.079 869.394 Z" fill="#000000" fill-rule="nonzero" fill-opacity="1" /><path clip-path="url(#clip800)" d="M21.8347 845.491 L31.9562 845.491 L31.9562 833.428 L36.5077 833.428 L36.5077 845.491 L55.8594 845.491 Q60.2199 845.491 61.4613 844.313 Q62.7026 843.104 62.7026 839.443 L62.7026 833.428 L67.6042 833.428 L67.6042 839.443 Q67.6042 846.223 65.0897 848.801 Q62.5434 851.379 55.8594 851.379 L36.5077 851.379 L36.5077 855.676 L31.9562 855.676 L31.9562 851.379 L21.8347 851.379 L21.8347 845.491 Z" fill="#000000" fill-rule="nonzero" fill-opacity="1" /><path clip-path="url(#clip800)" d="M70.9143 810.893 Q77.28 813.376 79.2216 815.731 Q81.1631 818.086 81.1631 822.033 L81.1631 826.712 L76.2615 826.712 L76.2615 823.274 Q76.2615 820.855 75.1157 819.519 Q73.9699 818.182 69.7048 816.559 L67.0312 815.508 L31.9562 829.927 L31.9562 823.72 L59.838 812.58 L31.9562 801.44 L31.9562 795.233 L70.9143 810.893 Z" fill="#000000" fill-rule="nonzero" fill-opacity="1" /><path clip-path="url(#clip800)" d="M23.7444 730.59 L30.5239 730.59 Q27.5002 733.836 26.0043 737.528 Q24.5083 741.189 24.5083 745.326 Q24.5083 753.474 29.5054 757.803 Q34.4707 762.132 43.8919 762.132 Q53.2813 762.132 58.2784 757.803 Q63.2436 753.474 63.2436 745.326 Q63.2436 741.189 61.7477 737.528 Q60.2518 733.836 57.2281 730.59 L63.9439 730.59 Q66.2355 733.964 67.3814 737.751 Q68.5272 741.507 68.5272 745.708 Q68.5272 756.498 61.9387 762.705 Q55.3183 768.911 43.8919 768.911 Q32.4336 768.911 25.8451 762.705 Q19.2248 756.498 19.2248 745.708 Q19.2248 741.443 20.3706 737.687 Q21.4846 733.9 23.7444 730.59 Z" fill="#000000" fill-rule="nonzero" fill-opacity="1" /><path clip-path="url(#clip800)" d="M49.6847 704.713 Q49.6847 711.811 51.3079 714.548 Q52.9312 717.285 56.8461 717.285 Q59.9653 717.285 61.8114 715.248 Q63.6256 713.179 63.6256 709.647 Q63.6256 704.777 60.1881 701.849 Q56.7188 698.888 50.9897 698.888 L49.6847 698.888 L49.6847 704.713 M47.2657 693.032 L67.6042 693.032 L67.6042 698.888 L62.1933 698.888 Q65.4398 700.894 66.9994 703.886 Q68.5272 706.877 68.5272 711.206 Q68.5272 716.681 65.4716 719.927 Q62.3843 723.142 57.2281 723.142 Q51.2125 723.142 48.1569 719.131 Q45.1014 715.089 45.1014 707.1 L45.1014 698.888 L44.5285 698.888 Q40.4862 698.888 38.2901 701.562 Q36.0621 704.204 36.0621 709.01 Q36.0621 712.066 36.7941 714.962 Q37.5262 717.858 38.9903 720.532 L33.5795 720.532 Q32.3381 717.317 31.7334 714.293 Q31.0968 711.27 31.0968 708.405 Q31.0968 700.671 35.1072 696.851 Q39.1176 693.032 47.2657 693.032 Z" fill="#000000" fill-rule="nonzero" fill-opacity="1" /><path clip-path="url(#clip800)" d="M70.9143 666.137 Q77.28 668.62 79.2216 670.975 Q81.1631 673.33 81.1631 677.277 L81.1631 681.956 L76.2615 681.956 L76.2615 678.518 Q76.2615 676.099 75.1157 674.762 Q73.9699 673.426 69.7048 671.802 L67.0312 670.752 L31.9562 685.17 L31.9562 678.964 L59.838 667.824 L31.9562 656.684 L31.9562 650.477 L70.9143 666.137 Z" fill="#000000" fill-rule="nonzero" fill-opacity="1" /><path clip-path="url(#clip800)" d="M53.5359 642.998 L31.9562 642.998 L31.9562 637.141 L53.3131 637.141 Q58.3739 637.141 60.9202 635.168 Q63.4346 633.194 63.4346 629.248 Q63.4346 624.505 60.4109 621.768 Q57.3872 618.999 52.1673 618.999 L31.9562 618.999 L31.9562 613.142 L67.6042 613.142 L67.6042 618.999 L62.1296 618.999 Q65.3762 621.131 66.9676 623.964 Q68.5272 626.765 68.5272 630.489 Q68.5272 636.632 64.7078 639.815 Q60.8883 642.998 53.5359 642.998 M31.0968 628.261 L31.0968 628.261 Z" fill="#000000" fill-rule="nonzero" fill-opacity="1" /><path clip-path="url(#clip800)" d="M49.3664 577.622 Q43.0007 577.622 39.4996 580.264 Q35.9984 582.873 35.9984 587.616 Q35.9984 592.327 39.4996 594.968 Q43.0007 597.578 49.3664 597.578 Q55.7003 597.578 59.2014 594.968 Q62.7026 592.327 62.7026 587.616 Q62.7026 582.873 59.2014 580.264 Q55.7003 577.622 49.3664 577.622 M63.18 571.765 Q72.283 571.765 76.7071 575.808 Q81.1631 579.85 81.1631 588.189 Q81.1631 591.276 80.6857 594.013 Q80.2401 596.751 79.2852 599.329 L73.5879 599.329 Q74.9884 596.751 75.6568 594.236 Q76.3252 591.722 76.3252 589.112 Q76.3252 583.351 73.3015 580.486 Q70.3096 577.622 64.2303 577.622 L61.3339 577.622 Q64.485 579.436 66.0446 582.269 Q67.6042 585.101 67.6042 589.048 Q67.6042 595.605 62.6071 599.615 Q57.61 603.626 49.3664 603.626 Q41.091 603.626 36.0939 599.615 Q31.0968 595.605 31.0968 589.048 Q31.0968 585.101 32.6564 582.269 Q34.216 579.436 37.3671 577.622 L31.9562 577.622 L31.9562 571.765 L63.18 571.765 Z" fill="#000000" fill-rule="nonzero" fill-opacity="1" /><path clip-path="url(#clip800)" d="M49.6847 543.502 Q49.6847 550.599 51.3079 553.337 Q52.9312 556.074 56.8461 556.074 Q59.9653 556.074 61.8114 554.037 Q63.6256 551.968 63.6256 548.435 Q63.6256 543.565 60.1881 540.637 Q56.7188 537.677 50.9897 537.677 L49.6847 537.677 L49.6847 543.502 M47.2657 531.821 L67.6042 531.821 L67.6042 537.677 L62.1933 537.677 Q65.4398 539.682 66.9994 542.674 Q68.5272 545.666 68.5272 549.995 Q68.5272 555.469 65.4716 558.716 Q62.3843 561.93 57.2281 561.93 Q51.2125 561.93 48.1569 557.92 Q45.1014 553.878 45.1014 545.889 L45.1014 537.677 L44.5285 537.677 Q40.4862 537.677 38.2901 540.351 Q36.0621 542.992 36.0621 547.798 Q36.0621 550.854 36.7941 553.75 Q37.5262 556.647 38.9903 559.32 L33.5795 559.32 Q32.3381 556.106 31.7334 553.082 Q31.0968 550.058 31.0968 547.194 Q31.0968 539.459 35.1072 535.64 Q39.1176 531.821 47.2657 531.821 Z" fill="#000000" fill-rule="nonzero" fill-opacity="1" /><path clip-path="url(#clip800)" d="M20.0842 498.783 L20.0842 492.353 L62.1933 492.353 L62.1933 469.214 L67.6042 469.214 L67.6042 498.783 L20.0842 498.783 Z" fill="#000000" fill-rule="nonzero" fill-opacity="1" /><path clip-path="url(#clip800)" d="M49.6847 446.52 Q49.6847 453.618 51.3079 456.355 Q52.9312 459.092 56.8461 459.092 Q59.9653 459.092 61.8114 457.055 Q63.6256 454.986 63.6256 451.453 Q63.6256 446.584 60.1881 443.655 Q56.7188 440.695 50.9897 440.695 L49.6847 440.695 L49.6847 446.52 M47.2657 434.839 L67.6042 434.839 L67.6042 440.695 L62.1933 440.695 Q65.4398 442.701 66.9994 445.693 Q68.5272 448.684 68.5272 453.013 Q68.5272 458.488 65.4716 461.734 Q62.3843 464.949 57.2281 464.949 Q51.2125 464.949 48.1569 460.938 Q45.1014 456.896 45.1014 448.907 L45.1014 440.695 L44.5285 440.695 Q40.4862 440.695 38.2901 443.369 Q36.0621 446.011 36.0621 450.817 Q36.0621 453.872 36.7941 456.769 Q37.5262 459.665 38.9903 462.339 L33.5795 462.339 Q32.3381 459.124 31.7334 456.1 Q31.0968 453.077 31.0968 450.212 Q31.0968 442.478 35.1072 438.658 Q39.1176 434.839 47.2657 434.839 Z" fill="#000000" fill-rule="nonzero" fill-opacity="1" /><path clip-path="url(#clip800)" d="M18.079 422.999 L18.079 417.11 L47.3294 417.11 L31.9562 399.637 L31.9562 392.157 L48.6344 411.063 L67.6042 391.361 L67.6042 399 L50.1939 417.11 L67.6042 417.11 L67.6042 422.999 L18.079 422.999 Z" fill="#000000" fill-rule="nonzero" fill-opacity="1" /><path clip-path="url(#clip800)" d="M48.3161 356.859 L51.1806 356.859 L51.1806 383.786 Q57.2281 383.404 60.4109 380.158 Q63.5619 376.879 63.5619 371.055 Q63.5619 367.681 62.7344 364.53 Q61.9069 361.347 60.2518 358.228 L65.7899 358.228 Q67.1267 361.379 67.827 364.689 Q68.5272 367.999 68.5272 371.405 Q68.5272 379.935 63.5619 384.932 Q58.5967 389.897 50.1303 389.897 Q41.3774 389.897 36.2531 385.186 Q31.0968 380.444 31.0968 372.423 Q31.0968 365.23 35.7438 361.06 Q40.3589 356.859 48.3161 356.859 M46.5973 362.716 Q41.7912 362.779 38.9266 365.421 Q36.0621 368.031 36.0621 372.36 Q36.0621 377.261 38.8312 380.221 Q41.6002 383.149 46.6292 383.595 L46.5973 362.716 Z" fill="#000000" fill-rule="nonzero" fill-opacity="1" /><path clip-path="url(#clip800)" d="M20.0842 326.272 L20.0842 298.963 L25.495 298.963 L25.495 319.842 L39.4996 319.842 L39.4996 301 L44.9104 301 L44.9104 319.842 L67.6042 319.842 L67.6042 326.272 L20.0842 326.272 Z" fill="#000000" fill-rule="nonzero" fill-opacity="1" /><path clip-path="url(#clip800)" d="M37.4307 273.118 Q36.8578 274.105 36.6032 275.283 Q36.3167 276.428 36.3167 277.829 Q36.3167 282.794 39.5632 285.468 Q42.7779 288.109 48.8253 288.109 L67.6042 288.109 L67.6042 293.998 L31.9562 293.998 L31.9562 288.109 L37.4944 288.109 Q34.2479 286.263 32.6883 283.303 Q31.0968 280.343 31.0968 276.11 Q31.0968 275.505 31.1923 274.773 Q31.256 274.041 31.4151 273.15 L37.4307 273.118 Z" fill="#000000" fill-rule="nonzero" fill-opacity="1" /><path clip-path="url(#clip800)" d="M48.3161 237.916 L51.1806 237.916 L51.1806 264.843 Q57.2281 264.461 60.4109 261.214 Q63.5619 257.936 63.5619 252.111 Q63.5619 248.738 62.7344 245.587 Q61.9069 242.404 60.2518 239.284 L65.7899 239.284 Q67.1267 242.435 67.827 245.746 Q68.5272 249.056 68.5272 252.461 Q68.5272 260.992 63.5619 265.989 Q58.5967 270.954 50.1303 270.954 Q41.3774 270.954 36.2531 266.243 Q31.0968 261.501 31.0968 253.48 Q31.0968 246.287 35.7438 242.117 Q40.3589 237.916 48.3161 237.916 M46.5973 243.772 Q41.7912 243.836 38.9266 246.478 Q36.0621 249.088 36.0621 253.416 Q36.0621 258.318 38.8312 261.278 Q41.6002 264.206 46.6292 264.652 L46.5973 243.772 Z" fill="#000000" fill-rule="nonzero" fill-opacity="1" /><path clip-path="url(#clip800)" d="M48.3161 197.812 L51.1806 197.812 L51.1806 224.739 Q57.2281 224.357 60.4109 221.11 Q63.5619 217.832 63.5619 212.007 Q63.5619 208.634 62.7344 205.483 Q61.9069 202.3 60.2518 199.181 L65.7899 199.181 Q67.1267 202.332 67.827 205.642 Q68.5272 208.952 68.5272 212.358 Q68.5272 220.888 63.5619 225.885 Q58.5967 230.85 50.1303 230.85 Q41.3774 230.85 36.2531 226.139 Q31.0968 221.397 31.0968 213.376 Q31.0968 206.183 35.7438 202.013 Q40.3589 197.812 48.3161 197.812 M46.5973 203.668 Q41.7912 203.732 38.9266 206.374 Q36.0621 208.984 36.0621 213.312 Q36.0621 218.214 38.8312 221.174 Q41.6002 224.102 46.6292 224.548 L46.5973 203.668 Z" fill="#000000" fill-rule="nonzero" fill-opacity="1" /><path clip-path="url(#clip800)" d="M31.9562 190.746 L31.9562 162.928 L37.3034 162.928 L62.9254 184.953 L62.9254 162.928 L67.6042 162.928 L67.6042 191.542 L62.257 191.542 L36.635 169.516 L36.635 190.746 L31.9562 190.746 Z" fill="#000000" fill-rule="nonzero" fill-opacity="1" /><path clip-path="url(#clip800)" d="M48.3161 123.492 L51.1806 123.492 L51.1806 150.419 Q57.2281 150.037 60.4109 146.791 Q63.5619 143.512 63.5619 137.688 Q63.5619 134.314 62.7344 131.163 Q61.9069 127.98 60.2518 124.861 L65.7899 124.861 Q67.1267 128.012 67.827 131.322 Q68.5272 134.632 68.5272 138.038 Q68.5272 146.568 63.5619 151.565 Q58.5967 156.53 50.1303 156.53 Q41.3774 156.53 36.2531 151.82 Q31.0968 147.077 31.0968 139.056 Q31.0968 131.863 35.7438 127.694 Q40.3589 123.492 48.3161 123.492 M46.5973 129.349 Q41.7912 129.412 38.9266 132.054 Q36.0621 134.664 36.0621 138.993 Q36.0621 143.894 38.8312 146.854 Q41.6002 149.783 46.6292 150.228 L46.5973 129.349 Z" fill="#000000" fill-rule="nonzero" fill-opacity="1" /><path clip-path="url(#clip800)" d="M33.0065 91.1545 L38.5447 91.1545 Q37.2716 93.6371 36.635 96.3107 Q35.9984 98.9843 35.9984 101.849 Q35.9984 106.209 37.3352 108.406 Q38.672 110.57 41.3456 110.57 Q43.3826 110.57 44.5603 109.01 Q45.7061 107.451 46.7565 102.74 L47.2021 100.735 Q48.5389 94.4965 50.9897 91.8865 Q53.4086 89.2448 57.7691 89.2448 Q62.7344 89.2448 65.6308 93.1915 Q68.5272 97.1064 68.5272 103.981 Q68.5272 106.846 67.9543 109.965 Q67.4132 113.053 66.2992 116.49 L60.2518 116.49 Q61.9387 113.243 62.798 110.092 Q63.6256 106.941 63.6256 103.854 Q63.6256 99.7164 62.2251 97.4884 Q60.7929 95.2604 58.2147 95.2604 Q55.8276 95.2604 54.5545 96.8836 Q53.2813 98.475 52.1037 103.918 L51.6262 105.955 Q50.4804 111.397 48.1251 113.816 Q45.738 116.235 41.6002 116.235 Q36.5713 116.235 33.8341 112.671 Q31.0968 109.106 31.0968 102.549 Q31.0968 99.3026 31.5743 96.438 Q32.0517 93.5734 33.0065 91.1545 Z" fill="#000000" fill-rule="nonzero" fill-opacity="1" /><polyline clip-path="url(#clip802)" style="stroke:#009af9; stroke-linecap:round; stroke-linejoin:round; stroke-width:4; stroke-opacity:1; fill:none" points="266.604,79.1184 290.622,154.893 314.64,226.397 338.658,293.819 362.676,357.349 386.693,417.171 410.711,473.466 434.729,526.412 458.747,576.181 482.765,622.938 506.783,666.845 530.801,708.057 554.818,746.722 578.836,782.983 602.854,816.976 626.872,848.833 650.89,878.678 674.908,906.629 698.926,932.798 722.943,957.293 746.961,980.215 770.979,1001.66 794.997,1021.72 819.015,1040.47 843.033,1058.01 867.051,1074.41 891.068,1089.73 915.086,1104.05 939.104,1117.42 963.122,1129.92 987.14,1141.6 "/>
<path clip-path="url(#clip800)" d="M1300.99 1173.47 L2064.76 1173.47 L2064.76 47.2441 L1300.99 47.2441  Z" fill="#ffffff" fill-rule="evenodd" fill-opacity="1"/>
<polyline clip-path="url(#clip801)" style="stroke:#000000; stroke-linecap:round; stroke-linejoin:round; stroke-width:2; stroke-opacity:0.1; fill:none" points="1318.46,1173.47 1318.46,47.2441 "/>
<polyline clip-path="url(#clip801)" style="stroke:#000000; stroke-linecap:round; stroke-linejoin:round; stroke-width:2; stroke-opacity:0.1; fill:none" points="1525.51,1173.47 1525.51,47.2441 "/>
<polyline clip-path="url(#clip801)" style="stroke:#000000; stroke-linecap:round; stroke-linejoin:round; stroke-width:2; stroke-opacity:0.1; fill:none" points="1732.56,1173.47 1732.56,47.2441 "/>
<polyline clip-path="url(#clip801)" style="stroke:#000000; stroke-linecap:round; stroke-linejoin:round; stroke-width:2; stroke-opacity:0.1; fill:none" points="1939.61,1173.47 1939.61,47.2441 "/>
<polyline clip-path="url(#clip801)" style="stroke:#000000; stroke-linecap:round; stroke-linejoin:round; stroke-width:2; stroke-opacity:0.1; fill:none" points="1300.99,1152.02 2064.76,1152.02 "/>
<polyline clip-path="url(#clip801)" style="stroke:#000000; stroke-linecap:round; stroke-linejoin:round; stroke-width:2; stroke-opacity:0.1; fill:none" points="1300.99,987.047 2064.76,987.047 "/>
<polyline clip-path="url(#clip801)" style="stroke:#000000; stroke-linecap:round; stroke-linejoin:round; stroke-width:2; stroke-opacity:0.1; fill:none" points="1300.99,822.071 2064.76,822.071 "/>
<polyline clip-path="url(#clip801)" style="stroke:#000000; stroke-linecap:round; stroke-linejoin:round; stroke-width:2; stroke-opacity:0.1; fill:none" points="1300.99,657.096 2064.76,657.096 "/>
<polyline clip-path="url(#clip801)" style="stroke:#000000; stroke-linecap:round; stroke-linejoin:round; stroke-width:2; stroke-opacity:0.1; fill:none" points="1300.99,492.121 2064.76,492.121 "/>
<polyline clip-path="url(#clip801)" style="stroke:#000000; stroke-linecap:round; stroke-linejoin:round; stroke-width:2; stroke-opacity:0.1; fill:none" points="1300.99,327.145 2064.76,327.145 "/>
<polyline clip-path="url(#clip801)" style="stroke:#000000; stroke-linecap:round; stroke-linejoin:round; stroke-width:2; stroke-opacity:0.1; fill:none" points="1300.99,162.17 2064.76,162.17 "/>
<polyline clip-path="url(#clip800)" style="stroke:#000000; stroke-linecap:round; stroke-linejoin:round; stroke-width:4; stroke-opacity:1; fill:none" points="1300.99,1173.47 2064.76,1173.47 "/>
<polyline clip-path="url(#clip800)" style="stroke:#000000; stroke-linecap:round; stroke-linejoin:round; stroke-width:4; stroke-opacity:1; fill:none" points="1318.46,1173.47 1318.46,1154.57 "/>
<polyline clip-path="url(#clip800)" style="stroke:#000000; stroke-linecap:round; stroke-linejoin:round; stroke-width:4; stroke-opacity:1; fill:none" points="1525.51,1173.47 1525.51,1154.57 "/>
<polyline clip-path="url(#clip800)" style="stroke:#000000; stroke-linecap:round; stroke-linejoin:round; stroke-width:4; stroke-opacity:1; fill:none" points="1732.56,1173.47 1732.56,1154.57 "/>
<polyline clip-path="url(#clip800)" style="stroke:#000000; stroke-linecap:round; stroke-linejoin:round; stroke-width:4; stroke-opacity:1; fill:none" points="1939.61,1173.47 1939.61,1154.57 "/>
<path clip-path="url(#clip800)" d="M1262.99 1229.63 L1270.63 1229.63 L1270.63 1203.27 L1262.32 1204.93 L1262.32 1200.67 L1270.58 1199.01 L1275.26 1199.01 L1275.26 1229.63 L1282.9 1229.63 L1282.9 1233.57 L1262.99 1233.57 L1262.99 1229.63 Z" fill="#000000" fill-rule="nonzero" fill-opacity="1" /><path clip-path="url(#clip800)" d="M1302.34 1217.15 Q1299.01 1217.15 1297.09 1218.94 Q1295.19 1220.72 1295.19 1223.84 Q1295.19 1226.97 1297.09 1228.75 Q1299.01 1230.53 1302.34 1230.53 Q1305.67 1230.53 1307.6 1228.75 Q1309.52 1226.95 1309.52 1223.84 Q1309.52 1220.72 1307.6 1218.94 Q1305.7 1217.15 1302.34 1217.15 M1297.66 1215.16 Q1294.66 1214.42 1292.97 1212.36 Q1291.3 1210.3 1291.3 1207.34 Q1291.3 1203.2 1294.24 1200.79 Q1297.2 1198.38 1302.34 1198.38 Q1307.5 1198.38 1310.44 1200.79 Q1313.38 1203.2 1313.38 1207.34 Q1313.38 1210.3 1311.69 1212.36 Q1310.03 1214.42 1307.04 1215.16 Q1310.42 1215.95 1312.29 1218.24 Q1314.19 1220.53 1314.19 1223.84 Q1314.19 1228.87 1311.11 1231.55 Q1308.06 1234.24 1302.34 1234.24 Q1296.62 1234.24 1293.54 1231.55 Q1290.49 1228.87 1290.49 1223.84 Q1290.49 1220.53 1292.39 1218.24 Q1294.29 1215.95 1297.66 1215.16 M1295.95 1207.78 Q1295.95 1210.47 1297.62 1211.97 Q1299.31 1213.47 1302.34 1213.47 Q1305.35 1213.47 1307.04 1211.97 Q1308.75 1210.47 1308.75 1207.78 Q1308.75 1205.09 1307.04 1203.59 Q1305.35 1202.09 1302.34 1202.09 Q1299.31 1202.09 1297.62 1203.59 Q1295.95 1205.09 1295.95 1207.78 Z" fill="#000000" fill-rule="nonzero" fill-opacity="1" /><path clip-path="url(#clip800)" d="M1322.55 1199.01 L1340.91 1199.01 L1340.91 1202.94 L1326.83 1202.94 L1326.83 1211.41 Q1327.85 1211.07 1328.87 1210.9 Q1329.89 1210.72 1330.91 1210.72 Q1336.69 1210.72 1340.07 1213.89 Q1343.45 1217.06 1343.45 1222.48 Q1343.45 1228.06 1339.98 1231.16 Q1336.51 1234.24 1330.19 1234.24 Q1328.01 1234.24 1325.74 1233.87 Q1323.5 1233.5 1321.09 1232.76 L1321.09 1228.06 Q1323.17 1229.19 1325.4 1229.75 Q1327.62 1230.3 1330.1 1230.3 Q1334.1 1230.3 1336.44 1228.2 Q1338.78 1226.09 1338.78 1222.48 Q1338.78 1218.87 1336.44 1216.76 Q1334.1 1214.65 1330.1 1214.65 Q1328.22 1214.65 1326.35 1215.07 Q1324.49 1215.49 1322.55 1216.37 L1322.55 1199.01 Z" fill="#000000" fill-rule="nonzero" fill-opacity="1" /><path clip-path="url(#clip800)" d="M1362.66 1202.09 Q1359.05 1202.09 1357.22 1205.65 Q1355.42 1209.19 1355.42 1216.32 Q1355.42 1223.43 1357.22 1226.99 Q1359.05 1230.53 1362.66 1230.53 Q1366.3 1230.53 1368.1 1226.99 Q1369.93 1223.43 1369.93 1216.32 Q1369.93 1209.19 1368.1 1205.65 Q1366.3 1202.09 1362.66 1202.09 M1362.66 1198.38 Q1368.47 1198.38 1371.53 1202.99 Q1374.61 1207.57 1374.61 1216.32 Q1374.61 1225.05 1371.53 1229.65 Q1368.47 1234.24 1362.66 1234.24 Q1356.85 1234.24 1353.78 1229.65 Q1350.72 1225.05 1350.72 1216.32 Q1350.72 1207.57 1353.78 1202.99 Q1356.85 1198.38 1362.66 1198.38 Z" fill="#000000" fill-rule="nonzero" fill-opacity="1" /><path clip-path="url(#clip800)" d="M1470.04 1229.63 L1477.68 1229.63 L1477.68 1203.27 L1469.37 1204.93 L1469.37 1200.67 L1477.63 1199.01 L1482.31 1199.01 L1482.31 1229.63 L1489.95 1229.63 L1489.95 1233.57 L1470.04 1233.57 L1470.04 1229.63 Z" fill="#000000" fill-rule="nonzero" fill-opacity="1" /><path clip-path="url(#clip800)" d="M1499.53 1232.85 L1499.53 1228.59 Q1501.29 1229.42 1503.09 1229.86 Q1504.9 1230.3 1506.64 1230.3 Q1511.27 1230.3 1513.7 1227.2 Q1516.15 1224.08 1516.5 1217.73 Q1515.15 1219.72 1513.09 1220.79 Q1511.03 1221.85 1508.53 1221.85 Q1503.35 1221.85 1500.32 1218.73 Q1497.31 1215.58 1497.31 1210.14 Q1497.31 1204.82 1500.46 1201.6 Q1503.6 1198.38 1508.84 1198.38 Q1514.83 1198.38 1517.98 1202.99 Q1521.15 1207.57 1521.15 1216.32 Q1521.15 1224.49 1517.26 1229.38 Q1513.4 1234.24 1506.84 1234.24 Q1505.09 1234.24 1503.28 1233.89 Q1501.47 1233.54 1499.53 1232.85 M1508.84 1218.2 Q1511.98 1218.2 1513.81 1216.04 Q1515.66 1213.89 1515.66 1210.14 Q1515.66 1206.41 1513.81 1204.26 Q1511.98 1202.09 1508.84 1202.09 Q1505.69 1202.09 1503.84 1204.26 Q1502.01 1206.41 1502.01 1210.14 Q1502.01 1213.89 1503.84 1216.04 Q1505.69 1218.2 1508.84 1218.2 Z" fill="#000000" fill-rule="nonzero" fill-opacity="1" /><path clip-path="url(#clip800)" d="M1539.55 1202.09 Q1535.94 1202.09 1534.11 1205.65 Q1532.31 1209.19 1532.31 1216.32 Q1532.31 1223.43 1534.11 1226.99 Q1535.94 1230.53 1539.55 1230.53 Q1543.19 1230.53 1544.99 1226.99 Q1546.82 1223.43 1546.82 1216.32 Q1546.82 1209.19 1544.99 1205.65 Q1543.19 1202.09 1539.55 1202.09 M1539.55 1198.38 Q1545.36 1198.38 1548.42 1202.99 Q1551.5 1207.57 1551.5 1216.32 Q1551.5 1225.05 1548.42 1229.65 Q1545.36 1234.24 1539.55 1234.24 Q1533.74 1234.24 1530.66 1229.65 Q1527.61 1225.05 1527.61 1216.32 Q1527.61 1207.57 1530.66 1202.99 Q1533.74 1198.38 1539.55 1198.38 Z" fill="#000000" fill-rule="nonzero" fill-opacity="1" /><path clip-path="url(#clip800)" d="M1569.71 1202.09 Q1566.1 1202.09 1564.28 1205.65 Q1562.47 1209.19 1562.47 1216.32 Q1562.47 1223.43 1564.28 1226.99 Q1566.1 1230.53 1569.71 1230.53 Q1573.35 1230.53 1575.15 1226.99 Q1576.98 1223.43 1576.98 1216.32 Q1576.98 1209.19 1575.15 1205.65 Q1573.35 1202.09 1569.71 1202.09 M1569.71 1198.38 Q1575.52 1198.38 1578.58 1202.99 Q1581.66 1207.57 1581.66 1216.32 Q1581.66 1225.05 1578.58 1229.65 Q1575.52 1234.24 1569.71 1234.24 Q1563.9 1234.24 1560.83 1229.65 Q1557.77 1225.05 1557.77 1216.32 Q1557.77 1207.57 1560.83 1202.99 Q1563.9 1198.38 1569.71 1198.38 Z" fill="#000000" fill-rule="nonzero" fill-opacity="1" /><path clip-path="url(#clip800)" d="M1677.09 1229.63 L1684.73 1229.63 L1684.73 1203.27 L1676.42 1204.93 L1676.42 1200.67 L1684.68 1199.01 L1689.36 1199.01 L1689.36 1229.63 L1697 1229.63 L1697 1233.57 L1677.09 1233.57 L1677.09 1229.63 Z" fill="#000000" fill-rule="nonzero" fill-opacity="1" /><path clip-path="url(#clip800)" d="M1706.58 1232.85 L1706.58 1228.59 Q1708.34 1229.42 1710.15 1229.86 Q1711.95 1230.3 1713.69 1230.3 Q1718.32 1230.3 1720.75 1227.2 Q1723.2 1224.08 1723.55 1217.73 Q1722.21 1219.72 1720.15 1220.79 Q1718.09 1221.85 1715.59 1221.85 Q1710.4 1221.85 1707.37 1218.73 Q1704.36 1215.58 1704.36 1210.14 Q1704.36 1204.82 1707.51 1201.6 Q1710.65 1198.38 1715.89 1198.38 Q1721.88 1198.38 1725.03 1202.99 Q1728.2 1207.57 1728.2 1216.32 Q1728.2 1224.49 1724.31 1229.38 Q1720.45 1234.24 1713.9 1234.24 Q1712.14 1234.24 1710.33 1233.89 Q1708.52 1233.54 1706.58 1232.85 M1715.89 1218.2 Q1719.03 1218.2 1720.86 1216.04 Q1722.71 1213.89 1722.71 1210.14 Q1722.71 1206.41 1720.86 1204.26 Q1719.03 1202.09 1715.89 1202.09 Q1712.74 1202.09 1710.89 1204.26 Q1709.06 1206.41 1709.06 1210.14 Q1709.06 1213.89 1710.89 1216.04 Q1712.74 1218.2 1715.89 1218.2 Z" fill="#000000" fill-rule="nonzero" fill-opacity="1" /><path clip-path="url(#clip800)" d="M1736.65 1199.01 L1755.01 1199.01 L1755.01 1202.94 L1740.93 1202.94 L1740.93 1211.41 Q1741.95 1211.07 1742.97 1210.9 Q1743.99 1210.72 1745.01 1210.72 Q1750.79 1210.72 1754.17 1213.89 Q1757.55 1217.06 1757.55 1222.48 Q1757.55 1228.06 1754.08 1231.16 Q1750.61 1234.24 1744.29 1234.24 Q1742.11 1234.24 1739.84 1233.87 Q1737.6 1233.5 1735.19 1232.76 L1735.19 1228.06 Q1737.27 1229.19 1739.5 1229.75 Q1741.72 1230.3 1744.2 1230.3 Q1748.2 1230.3 1750.54 1228.2 Q1752.88 1226.09 1752.88 1222.48 Q1752.88 1218.87 1750.54 1216.76 Q1748.2 1214.65 1744.2 1214.65 Q1742.32 1214.65 1740.45 1215.07 Q1738.59 1215.49 1736.65 1216.37 L1736.65 1199.01 Z" fill="#000000" fill-rule="nonzero" fill-opacity="1" /><path clip-path="url(#clip800)" d="M1776.77 1202.09 Q1773.15 1202.09 1771.33 1205.65 Q1769.52 1209.19 1769.52 1216.32 Q1769.52 1223.43 1771.33 1226.99 Q1773.15 1230.53 1776.77 1230.53 Q1780.4 1230.53 1782.21 1226.99 Q1784.03 1223.43 1784.03 1216.32 Q1784.03 1209.19 1782.21 1205.65 Q1780.4 1202.09 1776.77 1202.09 M1776.77 1198.38 Q1782.58 1198.38 1785.63 1202.99 Q1788.71 1207.57 1788.71 1216.32 Q1788.71 1225.05 1785.63 1229.65 Q1782.58 1234.24 1776.77 1234.24 Q1770.96 1234.24 1767.88 1229.65 Q1764.82 1225.05 1764.82 1216.32 Q1764.82 1207.57 1767.88 1202.99 Q1770.96 1198.38 1776.77 1198.38 Z" fill="#000000" fill-rule="nonzero" fill-opacity="1" /><path clip-path="url(#clip800)" d="M1888.23 1229.63 L1904.55 1229.63 L1904.55 1233.57 L1882.6 1233.57 L1882.6 1229.63 Q1885.26 1226.88 1889.85 1222.25 Q1894.45 1217.59 1895.63 1216.25 Q1897.88 1213.73 1898.76 1211.99 Q1899.66 1210.23 1899.66 1208.54 Q1899.66 1205.79 1897.72 1204.05 Q1895.8 1202.32 1892.69 1202.32 Q1890.49 1202.32 1888.04 1203.08 Q1885.61 1203.84 1882.83 1205.4 L1882.83 1200.67 Q1885.66 1199.54 1888.11 1198.96 Q1890.56 1198.38 1892.6 1198.38 Q1897.97 1198.38 1901.17 1201.07 Q1904.36 1203.75 1904.36 1208.24 Q1904.36 1210.37 1903.55 1212.29 Q1902.76 1214.19 1900.66 1216.78 Q1900.08 1217.46 1896.98 1220.67 Q1893.87 1223.87 1888.23 1229.63 Z" fill="#000000" fill-rule="nonzero" fill-opacity="1" /><path clip-path="url(#clip800)" d="M1924.36 1202.09 Q1920.75 1202.09 1918.92 1205.65 Q1917.11 1209.19 1917.11 1216.32 Q1917.11 1223.43 1918.92 1226.99 Q1920.75 1230.53 1924.36 1230.53 Q1927.99 1230.53 1929.8 1226.99 Q1931.63 1223.43 1931.63 1216.32 Q1931.63 1209.19 1929.8 1205.65 Q1927.99 1202.09 1924.36 1202.09 M1924.36 1198.38 Q1930.17 1198.38 1933.23 1202.99 Q1936.3 1207.57 1936.3 1216.32 Q1936.3 1225.05 1933.23 1229.65 Q1930.17 1234.24 1924.36 1234.24 Q1918.55 1234.24 1915.47 1229.65 Q1912.42 1225.05 1912.42 1216.32 Q1912.42 1207.57 1915.47 1202.99 Q1918.55 1198.38 1924.36 1198.38 Z" fill="#000000" fill-rule="nonzero" fill-opacity="1" /><path clip-path="url(#clip800)" d="M1954.52 1202.09 Q1950.91 1202.09 1949.08 1205.65 Q1947.28 1209.19 1947.28 1216.32 Q1947.28 1223.43 1949.08 1226.99 Q1950.91 1230.53 1954.52 1230.53 Q1958.16 1230.53 1959.96 1226.99 Q1961.79 1223.43 1961.79 1216.32 Q1961.79 1209.19 1959.96 1205.65 Q1958.16 1202.09 1954.52 1202.09 M1954.52 1198.38 Q1960.33 1198.38 1963.39 1202.99 Q1966.47 1207.57 1966.47 1216.32 Q1966.47 1225.05 1963.39 1229.65 Q1960.33 1234.24 1954.52 1234.24 Q1948.71 1234.24 1945.63 1229.65 Q1942.58 1225.05 1942.58 1216.32 Q1942.58 1207.57 1945.63 1202.99 Q1948.71 1198.38 1954.52 1198.38 Z" fill="#000000" fill-rule="nonzero" fill-opacity="1" /><path clip-path="url(#clip800)" d="M1984.68 1202.09 Q1981.07 1202.09 1979.24 1205.65 Q1977.44 1209.19 1977.44 1216.32 Q1977.44 1223.43 1979.24 1226.99 Q1981.07 1230.53 1984.68 1230.53 Q1988.32 1230.53 1990.12 1226.99 Q1991.95 1223.43 1991.95 1216.32 Q1991.95 1209.19 1990.12 1205.65 Q1988.32 1202.09 1984.68 1202.09 M1984.68 1198.38 Q1990.49 1198.38 1993.55 1202.99 Q1996.63 1207.57 1996.63 1216.32 Q1996.63 1225.05 1993.55 1229.65 Q1990.49 1234.24 1984.68 1234.24 Q1978.87 1234.24 1975.79 1229.65 Q1972.74 1225.05 1972.74 1216.32 Q1972.74 1207.57 1975.79 1202.99 Q1978.87 1198.38 1984.68 1198.38 Z" fill="#000000" fill-rule="nonzero" fill-opacity="1" /><path clip-path="url(#clip800)" d="M1613.8 1266.49 L1620.71 1266.49 L1633.89 1286.04 L1646.97 1266.49 L1653.88 1266.49 L1637.07 1291.38 L1637.07 1314.01 L1630.61 1314.01 L1630.61 1291.38 L1613.8 1266.49 Z" fill="#000000" fill-rule="nonzero" fill-opacity="1" /><path clip-path="url(#clip800)" d="M1681.73 1294.73 L1681.73 1297.59 L1654.8 1297.59 Q1655.18 1303.64 1658.43 1306.82 Q1661.71 1309.97 1667.53 1309.97 Q1670.9 1309.97 1674.06 1309.14 Q1677.24 1308.32 1680.36 1306.66 L1680.36 1312.2 Q1677.21 1313.54 1673.9 1314.24 Q1670.59 1314.94 1667.18 1314.94 Q1658.65 1314.94 1653.65 1309.97 Q1648.69 1305.01 1648.69 1296.54 Q1648.69 1287.79 1653.4 1282.66 Q1658.14 1277.51 1666.16 1277.51 Q1673.36 1277.51 1677.52 1282.15 Q1681.73 1286.77 1681.73 1294.73 M1675.87 1293.01 Q1675.81 1288.2 1673.16 1285.34 Q1670.55 1282.47 1666.23 1282.47 Q1661.32 1282.47 1658.36 1285.24 Q1655.44 1288.01 1654.99 1293.04 L1675.87 1293.01 Z" fill="#000000" fill-rule="nonzero" fill-opacity="1" /><path clip-path="url(#clip800)" d="M1707.54 1296.1 Q1700.44 1296.1 1697.7 1297.72 Q1694.97 1299.34 1694.97 1303.26 Q1694.97 1306.38 1697 1308.22 Q1699.07 1310.04 1702.61 1310.04 Q1707.48 1310.04 1710.4 1306.6 Q1713.36 1303.13 1713.36 1297.4 L1713.36 1296.1 L1707.54 1296.1 M1719.22 1293.68 L1719.22 1314.01 L1713.36 1314.01 L1713.36 1308.6 Q1711.36 1311.85 1708.37 1313.41 Q1705.37 1314.94 1701.05 1314.94 Q1695.57 1314.94 1692.33 1311.88 Q1689.11 1308.79 1689.11 1303.64 Q1689.11 1297.62 1693.12 1294.57 Q1697.16 1291.51 1705.15 1291.51 L1713.36 1291.51 L1713.36 1290.94 Q1713.36 1286.9 1710.69 1284.7 Q1708.05 1282.47 1703.24 1282.47 Q1700.19 1282.47 1697.29 1283.2 Q1694.39 1283.94 1691.72 1285.4 L1691.72 1279.99 Q1694.94 1278.75 1697.96 1278.14 Q1700.98 1277.51 1703.85 1277.51 Q1711.58 1277.51 1715.4 1281.52 Q1719.22 1285.53 1719.22 1293.68 Z" fill="#000000" fill-rule="nonzero" fill-opacity="1" /><path clip-path="url(#clip800)" d="M1751.94 1283.84 Q1750.95 1283.27 1749.78 1283.01 Q1748.63 1282.73 1747.23 1282.73 Q1742.26 1282.73 1739.59 1285.97 Q1736.95 1289.19 1736.95 1295.24 L1736.95 1314.01 L1731.06 1314.01 L1731.06 1278.37 L1736.95 1278.37 L1736.95 1283.9 Q1738.79 1280.66 1741.75 1279.1 Q1744.71 1277.51 1748.95 1277.51 Q1749.55 1277.51 1750.28 1277.6 Q1751.02 1277.67 1751.91 1277.83 L1751.94 1283.84 Z" fill="#000000" fill-rule="nonzero" fill-opacity="1" /><polyline clip-path="url(#clip800)" style="stroke:#000000; stroke-linecap:round; stroke-linejoin:round; stroke-width:4; stroke-opacity:1; fill:none" points="1300.99,1173.47 1300.99,47.2441 "/>
<polyline clip-path="url(#clip800)" style="stroke:#000000; stroke-linecap:round; stroke-linejoin:round; stroke-width:4; stroke-opacity:1; fill:none" points="1300.99,1152.02 1319.89,1152.02 "/>
<polyline clip-path="url(#clip800)" style="stroke:#000000; stroke-linecap:round; stroke-linejoin:round; stroke-width:4; stroke-opacity:1; fill:none" points="1300.99,987.047 1319.89,987.047 "/>
<polyline clip-path="url(#clip800)" style="stroke:#000000; stroke-linecap:round; stroke-linejoin:round; stroke-width:4; stroke-opacity:1; fill:none" points="1300.99,822.071 1319.89,822.071 "/>
<polyline clip-path="url(#clip800)" style="stroke:#000000; stroke-linecap:round; stroke-linejoin:round; stroke-width:4; stroke-opacity:1; fill:none" points="1300.99,657.096 1319.89,657.096 "/>
<polyline clip-path="url(#clip800)" style="stroke:#000000; stroke-linecap:round; stroke-linejoin:round; stroke-width:4; stroke-opacity:1; fill:none" points="1300.99,492.121 1319.89,492.121 "/>
<polyline clip-path="url(#clip800)" style="stroke:#000000; stroke-linecap:round; stroke-linejoin:round; stroke-width:4; stroke-opacity:1; fill:none" points="1300.99,327.145 1319.89,327.145 "/>
<polyline clip-path="url(#clip800)" style="stroke:#000000; stroke-linecap:round; stroke-linejoin:round; stroke-width:4; stroke-opacity:1; fill:none" points="1300.99,162.17 1319.89,162.17 "/>
<path clip-path="url(#clip800)" d="M1183.57 1137.82 Q1179.96 1137.82 1178.13 1141.39 Q1176.32 1144.93 1176.32 1152.06 Q1176.32 1159.16 1178.13 1162.73 Q1179.96 1166.27 1183.57 1166.27 Q1187.2 1166.27 1189.01 1162.73 Q1190.84 1159.16 1190.84 1152.06 Q1190.84 1144.93 1189.01 1141.39 Q1187.2 1137.82 1183.57 1137.82 M1183.57 1134.12 Q1189.38 1134.12 1192.43 1138.72 Q1195.51 1143.31 1195.51 1152.06 Q1195.51 1160.78 1192.43 1165.39 Q1189.38 1169.97 1183.57 1169.97 Q1177.76 1169.97 1174.68 1165.39 Q1171.62 1160.78 1171.62 1152.06 Q1171.62 1143.31 1174.68 1138.72 Q1177.76 1134.12 1183.57 1134.12 Z" fill="#000000" fill-rule="nonzero" fill-opacity="1" /><path clip-path="url(#clip800)" d="M1203.73 1163.42 L1208.61 1163.42 L1208.61 1169.3 L1203.73 1169.3 L1203.73 1163.42 Z" fill="#000000" fill-rule="nonzero" fill-opacity="1" /><path clip-path="url(#clip800)" d="M1228.8 1137.82 Q1225.19 1137.82 1223.36 1141.39 Q1221.55 1144.93 1221.55 1152.06 Q1221.55 1159.16 1223.36 1162.73 Q1225.19 1166.27 1228.8 1166.27 Q1232.43 1166.27 1234.24 1162.73 Q1236.07 1159.16 1236.07 1152.06 Q1236.07 1144.93 1234.24 1141.39 Q1232.43 1137.82 1228.8 1137.82 M1228.8 1134.12 Q1234.61 1134.12 1237.66 1138.72 Q1240.74 1143.31 1240.74 1152.06 Q1240.74 1160.78 1237.66 1165.39 Q1234.61 1169.97 1228.8 1169.97 Q1222.99 1169.97 1219.91 1165.39 Q1216.85 1160.78 1216.85 1152.06 Q1216.85 1143.31 1219.91 1138.72 Q1222.99 1134.12 1228.8 1134.12 Z" fill="#000000" fill-rule="nonzero" fill-opacity="1" /><path clip-path="url(#clip800)" d="M1252.99 1165.37 L1269.31 1165.37 L1269.31 1169.3 L1247.36 1169.3 L1247.36 1165.37 Q1250.03 1162.61 1254.61 1157.98 Q1259.22 1153.33 1260.4 1151.99 Q1262.64 1149.46 1263.52 1147.73 Q1264.42 1145.97 1264.42 1144.28 Q1264.42 1141.52 1262.48 1139.79 Q1260.56 1138.05 1257.46 1138.05 Q1255.26 1138.05 1252.8 1138.82 Q1250.37 1139.58 1247.6 1141.13 L1247.6 1136.41 Q1250.42 1135.27 1252.87 1134.7 Q1255.33 1134.12 1257.36 1134.12 Q1262.73 1134.12 1265.93 1136.8 Q1269.12 1139.49 1269.12 1143.98 Q1269.12 1146.11 1268.31 1148.03 Q1267.53 1149.93 1265.42 1152.52 Q1264.84 1153.19 1261.74 1156.41 Q1258.64 1159.6 1252.99 1165.37 Z" fill="#000000" fill-rule="nonzero" fill-opacity="1" /><path clip-path="url(#clip800)" d="M1182.62 972.845 Q1179.01 972.845 1177.18 976.41 Q1175.37 979.952 1175.37 987.081 Q1175.37 994.188 1177.18 997.753 Q1179.01 1001.29 1182.62 1001.29 Q1186.25 1001.29 1188.06 997.753 Q1189.89 994.188 1189.89 987.081 Q1189.89 979.952 1188.06 976.41 Q1186.25 972.845 1182.62 972.845 M1182.62 969.142 Q1188.43 969.142 1191.48 973.748 Q1194.56 978.331 1194.56 987.081 Q1194.56 995.808 1191.48 1000.41 Q1188.43 1005 1182.62 1005 Q1176.81 1005 1173.73 1000.41 Q1170.67 995.808 1170.67 987.081 Q1170.67 978.331 1173.73 973.748 Q1176.81 969.142 1182.62 969.142 Z" fill="#000000" fill-rule="nonzero" fill-opacity="1" /><path clip-path="url(#clip800)" d="M1202.78 998.447 L1207.66 998.447 L1207.66 1004.33 L1202.78 1004.33 L1202.78 998.447 Z" fill="#000000" fill-rule="nonzero" fill-opacity="1" /><path clip-path="url(#clip800)" d="M1227.85 972.845 Q1224.24 972.845 1222.41 976.41 Q1220.6 979.952 1220.6 987.081 Q1220.6 994.188 1222.41 997.753 Q1224.24 1001.29 1227.85 1001.29 Q1231.48 1001.29 1233.29 997.753 Q1235.12 994.188 1235.12 987.081 Q1235.12 979.952 1233.29 976.41 Q1231.48 972.845 1227.85 972.845 M1227.85 969.142 Q1233.66 969.142 1236.72 973.748 Q1239.79 978.331 1239.79 987.081 Q1239.79 995.808 1236.72 1000.41 Q1233.66 1005 1227.85 1005 Q1222.04 1005 1218.96 1000.41 Q1215.91 995.808 1215.91 987.081 Q1215.91 978.331 1218.96 973.748 Q1222.04 969.142 1227.85 969.142 Z" fill="#000000" fill-rule="nonzero" fill-opacity="1" /><path clip-path="url(#clip800)" d="M1262.18 985.693 Q1265.54 986.41 1267.41 988.679 Q1269.31 990.947 1269.31 994.28 Q1269.31 999.396 1265.79 1002.2 Q1262.27 1005 1255.79 1005 Q1253.61 1005 1251.3 1004.56 Q1249.01 1004.14 1246.55 1003.29 L1246.55 998.771 Q1248.5 999.905 1250.81 1000.48 Q1253.13 1001.06 1255.65 1001.06 Q1260.05 1001.06 1262.34 999.327 Q1264.66 997.591 1264.66 994.28 Q1264.66 991.225 1262.5 989.512 Q1260.37 987.776 1256.55 987.776 L1252.53 987.776 L1252.53 983.933 L1256.74 983.933 Q1260.19 983.933 1262.02 982.568 Q1263.85 981.179 1263.85 978.586 Q1263.85 975.924 1261.95 974.512 Q1260.07 973.077 1256.55 973.077 Q1254.63 973.077 1252.43 973.494 Q1250.23 973.91 1247.6 974.79 L1247.6 970.623 Q1250.26 969.882 1252.57 969.512 Q1254.91 969.142 1256.97 969.142 Q1262.29 969.142 1265.4 971.572 Q1268.5 973.98 1268.5 978.1 Q1268.5 980.97 1266.85 982.961 Q1265.21 984.929 1262.18 985.693 Z" fill="#000000" fill-rule="nonzero" fill-opacity="1" /><path clip-path="url(#clip800)" d="M1181.48 807.87 Q1177.87 807.87 1176.04 811.435 Q1174.24 814.977 1174.24 822.106 Q1174.24 829.213 1176.04 832.777 Q1177.87 836.319 1181.48 836.319 Q1185.12 836.319 1186.92 832.777 Q1188.75 829.213 1188.75 822.106 Q1188.75 814.977 1186.92 811.435 Q1185.12 807.87 1181.48 807.87 M1181.48 804.166 Q1187.29 804.166 1190.35 808.773 Q1193.43 813.356 1193.43 822.106 Q1193.43 830.833 1190.35 835.439 Q1187.29 840.023 1181.48 840.023 Q1175.67 840.023 1172.6 835.439 Q1169.54 830.833 1169.54 822.106 Q1169.54 813.356 1172.6 808.773 Q1175.67 804.166 1181.48 804.166 Z" fill="#000000" fill-rule="nonzero" fill-opacity="1" /><path clip-path="url(#clip800)" d="M1201.65 833.472 L1206.53 833.472 L1206.53 839.351 L1201.65 839.351 L1201.65 833.472 Z" fill="#000000" fill-rule="nonzero" fill-opacity="1" /><path clip-path="url(#clip800)" d="M1226.72 807.87 Q1223.1 807.87 1221.28 811.435 Q1219.47 814.977 1219.47 822.106 Q1219.47 829.213 1221.28 832.777 Q1223.1 836.319 1226.72 836.319 Q1230.35 836.319 1232.16 832.777 Q1233.98 829.213 1233.98 822.106 Q1233.98 814.977 1232.16 811.435 Q1230.35 807.87 1226.72 807.87 M1226.72 804.166 Q1232.53 804.166 1235.58 808.773 Q1238.66 813.356 1238.66 822.106 Q1238.66 830.833 1235.58 835.439 Q1232.53 840.023 1226.72 840.023 Q1220.91 840.023 1217.83 835.439 Q1214.77 830.833 1214.77 822.106 Q1214.77 813.356 1217.83 808.773 Q1220.91 804.166 1226.72 804.166 Z" fill="#000000" fill-rule="nonzero" fill-opacity="1" /><path clip-path="url(#clip800)" d="M1259.72 808.865 L1247.92 827.314 L1259.72 827.314 L1259.72 808.865 M1258.5 804.791 L1264.38 804.791 L1264.38 827.314 L1269.31 827.314 L1269.31 831.203 L1264.38 831.203 L1264.38 839.351 L1259.72 839.351 L1259.72 831.203 L1244.12 831.203 L1244.12 826.689 L1258.5 804.791 Z" fill="#000000" fill-rule="nonzero" fill-opacity="1" /><path clip-path="url(#clip800)" d="M1182.97 642.895 Q1179.35 642.895 1177.53 646.46 Q1175.72 650.001 1175.72 657.131 Q1175.72 664.237 1177.53 667.802 Q1179.35 671.344 1182.97 671.344 Q1186.6 671.344 1188.41 667.802 Q1190.23 664.237 1190.23 657.131 Q1190.23 650.001 1188.41 646.46 Q1186.6 642.895 1182.97 642.895 M1182.97 639.191 Q1188.78 639.191 1191.83 643.798 Q1194.91 648.381 1194.91 657.131 Q1194.91 665.858 1191.83 670.464 Q1188.78 675.047 1182.97 675.047 Q1177.16 675.047 1174.08 670.464 Q1171.02 665.858 1171.02 657.131 Q1171.02 648.381 1174.08 643.798 Q1177.16 639.191 1182.97 639.191 Z" fill="#000000" fill-rule="nonzero" fill-opacity="1" /><path clip-path="url(#clip800)" d="M1203.13 668.496 L1208.01 668.496 L1208.01 674.376 L1203.13 674.376 L1203.13 668.496 Z" fill="#000000" fill-rule="nonzero" fill-opacity="1" /><path clip-path="url(#clip800)" d="M1228.2 642.895 Q1224.59 642.895 1222.76 646.46 Q1220.95 650.001 1220.95 657.131 Q1220.95 664.237 1222.76 667.802 Q1224.59 671.344 1228.2 671.344 Q1231.83 671.344 1233.64 667.802 Q1235.47 664.237 1235.47 657.131 Q1235.47 650.001 1233.64 646.46 Q1231.83 642.895 1228.2 642.895 M1228.2 639.191 Q1234.01 639.191 1237.06 643.798 Q1240.14 648.381 1240.14 657.131 Q1240.14 665.858 1237.06 670.464 Q1234.01 675.047 1228.2 675.047 Q1222.39 675.047 1219.31 670.464 Q1216.25 665.858 1216.25 657.131 Q1216.25 648.381 1219.31 643.798 Q1222.39 639.191 1228.2 639.191 Z" fill="#000000" fill-rule="nonzero" fill-opacity="1" /><path clip-path="url(#clip800)" d="M1248.41 639.816 L1266.76 639.816 L1266.76 643.751 L1252.69 643.751 L1252.69 652.223 Q1253.71 651.876 1254.72 651.714 Q1255.74 651.529 1256.76 651.529 Q1262.55 651.529 1265.93 654.7 Q1269.31 657.872 1269.31 663.288 Q1269.31 668.867 1265.84 671.969 Q1262.36 675.047 1256.04 675.047 Q1253.87 675.047 1251.6 674.677 Q1249.35 674.307 1246.95 673.566 L1246.95 668.867 Q1249.03 670.001 1251.25 670.557 Q1253.47 671.112 1255.95 671.112 Q1259.96 671.112 1262.29 669.006 Q1264.63 666.899 1264.63 663.288 Q1264.63 659.677 1262.29 657.571 Q1259.96 655.464 1255.95 655.464 Q1254.08 655.464 1252.2 655.881 Q1250.35 656.297 1248.41 657.177 L1248.41 639.816 Z" fill="#000000" fill-rule="nonzero" fill-opacity="1" /><path clip-path="url(#clip800)" d="M1181.81 477.919 Q1178.2 477.919 1176.37 481.484 Q1174.56 485.026 1174.56 492.155 Q1174.56 499.262 1176.37 502.827 Q1178.2 506.368 1181.81 506.368 Q1185.44 506.368 1187.25 502.827 Q1189.08 499.262 1189.08 492.155 Q1189.08 485.026 1187.25 481.484 Q1185.44 477.919 1181.81 477.919 M1181.81 474.216 Q1187.62 474.216 1190.67 478.822 Q1193.75 483.406 1193.75 492.155 Q1193.75 500.882 1190.67 505.489 Q1187.62 510.072 1181.81 510.072 Q1176 510.072 1172.92 505.489 Q1169.86 500.882 1169.86 492.155 Q1169.86 483.406 1172.92 478.822 Q1176 474.216 1181.81 474.216 Z" fill="#000000" fill-rule="nonzero" fill-opacity="1" /><path clip-path="url(#clip800)" d="M1201.97 503.521 L1206.85 503.521 L1206.85 509.401 L1201.97 509.401 L1201.97 503.521 Z" fill="#000000" fill-rule="nonzero" fill-opacity="1" /><path clip-path="url(#clip800)" d="M1227.04 477.919 Q1223.43 477.919 1221.6 481.484 Q1219.79 485.026 1219.79 492.155 Q1219.79 499.262 1221.6 502.827 Q1223.43 506.368 1227.04 506.368 Q1230.67 506.368 1232.48 502.827 Q1234.31 499.262 1234.31 492.155 Q1234.31 485.026 1232.48 481.484 Q1230.67 477.919 1227.04 477.919 M1227.04 474.216 Q1232.85 474.216 1235.91 478.822 Q1238.98 483.406 1238.98 492.155 Q1238.98 500.882 1235.91 505.489 Q1232.85 510.072 1227.04 510.072 Q1221.23 510.072 1218.15 505.489 Q1215.1 500.882 1215.1 492.155 Q1215.1 483.406 1218.15 478.822 Q1221.23 474.216 1227.04 474.216 Z" fill="#000000" fill-rule="nonzero" fill-opacity="1" /><path clip-path="url(#clip800)" d="M1257.78 490.257 Q1254.63 490.257 1252.78 492.41 Q1250.95 494.563 1250.95 498.313 Q1250.95 502.04 1252.78 504.216 Q1254.63 506.368 1257.78 506.368 Q1260.93 506.368 1262.76 504.216 Q1264.61 502.04 1264.61 498.313 Q1264.61 494.563 1262.76 492.41 Q1260.93 490.257 1257.78 490.257 M1267.06 475.605 L1267.06 479.864 Q1265.3 479.031 1263.5 478.591 Q1261.72 478.151 1259.96 478.151 Q1255.33 478.151 1252.87 481.276 Q1250.44 484.401 1250.1 490.72 Q1251.46 488.706 1253.52 487.642 Q1255.58 486.554 1258.06 486.554 Q1263.27 486.554 1266.28 489.725 Q1269.31 492.873 1269.31 498.313 Q1269.31 503.637 1266.16 506.854 Q1263.01 510.072 1257.78 510.072 Q1251.79 510.072 1248.61 505.489 Q1245.44 500.882 1245.44 492.155 Q1245.44 483.961 1249.33 479.1 Q1253.22 474.216 1259.77 474.216 Q1261.53 474.216 1263.31 474.563 Q1265.12 474.91 1267.06 475.605 Z" fill="#000000" fill-rule="nonzero" fill-opacity="1" /><path clip-path="url(#clip800)" d="M1182.87 312.944 Q1179.26 312.944 1177.43 316.509 Q1175.63 320.051 1175.63 327.18 Q1175.63 334.287 1177.43 337.851 Q1179.26 341.393 1182.87 341.393 Q1186.51 341.393 1188.31 337.851 Q1190.14 334.287 1190.14 327.18 Q1190.14 320.051 1188.31 316.509 Q1186.51 312.944 1182.87 312.944 M1182.87 309.24 Q1188.68 309.24 1191.74 313.847 Q1194.82 318.43 1194.82 327.18 Q1194.82 335.907 1191.74 340.513 Q1188.68 345.097 1182.87 345.097 Q1177.06 345.097 1173.98 340.513 Q1170.93 335.907 1170.93 327.18 Q1170.93 318.43 1173.98 313.847 Q1177.06 309.24 1182.87 309.24 Z" fill="#000000" fill-rule="nonzero" fill-opacity="1" /><path clip-path="url(#clip800)" d="M1203.04 338.546 L1207.92 338.546 L1207.92 344.425 L1203.04 344.425 L1203.04 338.546 Z" fill="#000000" fill-rule="nonzero" fill-opacity="1" /><path clip-path="url(#clip800)" d="M1228.1 312.944 Q1224.49 312.944 1222.66 316.509 Q1220.86 320.051 1220.86 327.18 Q1220.86 334.287 1222.66 337.851 Q1224.49 341.393 1228.1 341.393 Q1231.74 341.393 1233.54 337.851 Q1235.37 334.287 1235.37 327.18 Q1235.37 320.051 1233.54 316.509 Q1231.74 312.944 1228.1 312.944 M1228.1 309.24 Q1233.91 309.24 1236.97 313.847 Q1240.05 318.43 1240.05 327.18 Q1240.05 335.907 1236.97 340.513 Q1233.91 345.097 1228.1 345.097 Q1222.29 345.097 1219.22 340.513 Q1216.16 335.907 1216.16 327.18 Q1216.16 318.43 1219.22 313.847 Q1222.29 309.24 1228.1 309.24 Z" fill="#000000" fill-rule="nonzero" fill-opacity="1" /><path clip-path="url(#clip800)" d="M1247.09 309.865 L1269.31 309.865 L1269.31 311.856 L1256.76 344.425 L1251.88 344.425 L1263.68 313.801 L1247.09 313.801 L1247.09 309.865 Z" fill="#000000" fill-rule="nonzero" fill-opacity="1" /><path clip-path="url(#clip800)" d="M1182.06 147.969 Q1178.45 147.969 1176.62 151.534 Q1174.82 155.075 1174.82 162.205 Q1174.82 169.311 1176.62 172.876 Q1178.45 176.418 1182.06 176.418 Q1185.7 176.418 1187.5 172.876 Q1189.33 169.311 1189.33 162.205 Q1189.33 155.075 1187.5 151.534 Q1185.7 147.969 1182.06 147.969 M1182.06 144.265 Q1187.87 144.265 1190.93 148.872 Q1194.01 153.455 1194.01 162.205 Q1194.01 170.932 1190.93 175.538 Q1187.87 180.121 1182.06 180.121 Q1176.25 180.121 1173.17 175.538 Q1170.12 170.932 1170.12 162.205 Q1170.12 153.455 1173.17 148.872 Q1176.25 144.265 1182.06 144.265 Z" fill="#000000" fill-rule="nonzero" fill-opacity="1" /><path clip-path="url(#clip800)" d="M1202.23 173.57 L1207.11 173.57 L1207.11 179.45 L1202.23 179.45 L1202.23 173.57 Z" fill="#000000" fill-rule="nonzero" fill-opacity="1" /><path clip-path="url(#clip800)" d="M1227.29 147.969 Q1223.68 147.969 1221.85 151.534 Q1220.05 155.075 1220.05 162.205 Q1220.05 169.311 1221.85 172.876 Q1223.68 176.418 1227.29 176.418 Q1230.93 176.418 1232.73 172.876 Q1234.56 169.311 1234.56 162.205 Q1234.56 155.075 1232.73 151.534 Q1230.93 147.969 1227.29 147.969 M1227.29 144.265 Q1233.1 144.265 1236.16 148.872 Q1239.24 153.455 1239.24 162.205 Q1239.24 170.932 1236.16 175.538 Q1233.1 180.121 1227.29 180.121 Q1221.48 180.121 1218.41 175.538 Q1215.35 170.932 1215.35 162.205 Q1215.35 153.455 1218.41 148.872 Q1221.48 144.265 1227.29 144.265 Z" fill="#000000" fill-rule="nonzero" fill-opacity="1" /><path clip-path="url(#clip800)" d="M1257.46 163.038 Q1254.12 163.038 1252.2 164.821 Q1250.3 166.603 1250.3 169.728 Q1250.3 172.853 1252.2 174.635 Q1254.12 176.418 1257.46 176.418 Q1260.79 176.418 1262.71 174.635 Q1264.63 172.83 1264.63 169.728 Q1264.63 166.603 1262.71 164.821 Q1260.81 163.038 1257.46 163.038 M1252.78 161.047 Q1249.77 160.307 1248.08 158.246 Q1246.41 156.186 1246.41 153.223 Q1246.41 149.08 1249.35 146.672 Q1252.32 144.265 1257.46 144.265 Q1262.62 144.265 1265.56 146.672 Q1268.5 149.08 1268.5 153.223 Q1268.5 156.186 1266.81 158.246 Q1265.14 160.307 1262.16 161.047 Q1265.54 161.834 1267.41 164.126 Q1269.31 166.418 1269.31 169.728 Q1269.31 174.751 1266.23 177.436 Q1263.17 180.121 1257.46 180.121 Q1251.74 180.121 1248.66 177.436 Q1245.6 174.751 1245.6 169.728 Q1245.6 166.418 1247.5 164.126 Q1249.4 161.834 1252.78 161.047 M1251.07 153.663 Q1251.07 156.348 1252.73 157.853 Q1254.42 159.358 1257.46 159.358 Q1260.47 159.358 1262.16 157.853 Q1263.87 156.348 1263.87 153.663 Q1263.87 150.978 1262.16 149.473 Q1260.47 147.969 1257.46 147.969 Q1254.42 147.969 1252.73 149.473 Q1251.07 150.978 1251.07 153.663 Z" fill="#000000" fill-rule="nonzero" fill-opacity="1" /><path clip-path="url(#clip800)" d="M1081.37 1125.04 L1099.22 1125.04 L1099.22 1116.96 Q1099.22 1112.47 1096.9 1110.02 Q1094.58 1107.57 1090.28 1107.57 Q1086.01 1107.57 1083.69 1110.02 Q1081.37 1112.47 1081.37 1116.96 L1081.37 1125.04 M1076.08 1131.47 L1076.08 1116.96 Q1076.08 1108.97 1079.71 1104.89 Q1083.31 1100.79 1090.28 1100.79 Q1097.31 1100.79 1100.91 1104.89 Q1104.51 1108.97 1104.51 1116.96 L1104.51 1125.04 L1123.6 1125.04 L1123.6 1131.47 L1076.08 1131.47 Z" fill="#000000" fill-rule="nonzero" fill-opacity="1" /><path clip-path="url(#clip800)" d="M1093.43 1072.91 Q1092.86 1073.89 1092.6 1075.07 Q1092.32 1076.22 1092.32 1077.62 Q1092.32 1082.58 1095.56 1085.26 Q1098.78 1087.9 1104.83 1087.9 L1123.6 1087.9 L1123.6 1093.79 L1087.96 1093.79 L1087.96 1087.9 L1093.49 1087.9 Q1090.25 1086.05 1088.69 1083.09 Q1087.1 1080.13 1087.1 1075.9 Q1087.1 1075.29 1087.19 1074.56 Q1087.26 1073.83 1087.42 1072.94 L1093.43 1072.91 Z" fill="#000000" fill-rule="nonzero" fill-opacity="1" /><path clip-path="url(#clip800)" d="M1092.06 1054.38 Q1092.06 1059.09 1095.75 1061.83 Q1099.41 1064.57 1105.81 1064.57 Q1112.21 1064.57 1115.9 1061.86 Q1119.56 1059.12 1119.56 1054.38 Q1119.56 1049.7 1115.87 1046.97 Q1112.18 1044.23 1105.81 1044.23 Q1099.48 1044.23 1095.79 1046.97 Q1092.06 1049.7 1092.06 1054.38 M1087.1 1054.38 Q1087.1 1046.74 1092.06 1042.38 Q1097.03 1038.02 1105.81 1038.02 Q1114.56 1038.02 1119.56 1042.38 Q1124.53 1046.74 1124.53 1054.38 Q1124.53 1062.05 1119.56 1066.41 Q1114.56 1070.74 1105.81 1070.74 Q1097.03 1070.74 1092.06 1066.41 Q1087.1 1062.05 1087.1 1054.38 Z" fill="#000000" fill-rule="nonzero" fill-opacity="1" /><path clip-path="url(#clip800)" d="M1105.81 1002.72 Q1099.35 1002.72 1095.69 1005.4 Q1092 1008.04 1092 1012.69 Q1092 1017.33 1095.69 1020.01 Q1099.35 1022.65 1105.81 1022.65 Q1112.27 1022.65 1115.97 1020.01 Q1119.63 1017.33 1119.63 1012.69 Q1119.63 1008.04 1115.97 1005.4 Q1112.27 1002.72 1105.81 1002.72 M1093.37 1022.65 Q1090.18 1020.8 1088.66 1018 Q1087.1 1015.17 1087.1 1011.25 Q1087.1 1004.76 1092.25 1000.72 Q1097.41 996.644 1105.81 996.644 Q1114.21 996.644 1119.37 1000.72 Q1124.53 1004.76 1124.53 1011.25 Q1124.53 1015.17 1123 1018 Q1121.44 1020.8 1118.26 1022.65 L1123.6 1022.65 L1123.6 1028.54 L1074.08 1028.54 L1074.08 1022.65 L1093.37 1022.65 Z" fill="#000000" fill-rule="nonzero" fill-opacity="1" /><path clip-path="url(#clip800)" d="M1105.68 970.736 Q1105.68 977.834 1107.31 980.571 Q1108.93 983.308 1112.85 983.308 Q1115.97 983.308 1117.81 981.271 Q1119.63 979.202 1119.63 975.669 Q1119.63 970.8 1116.19 967.871 Q1112.72 964.911 1106.99 964.911 L1105.68 964.911 L1105.68 970.736 M1103.27 959.055 L1123.6 959.055 L1123.6 964.911 L1118.19 964.911 Q1121.44 966.917 1123 969.908 Q1124.53 972.9 1124.53 977.229 Q1124.53 982.704 1121.47 985.95 Q1118.38 989.165 1113.23 989.165 Q1107.21 989.165 1104.16 985.154 Q1101.1 981.112 1101.1 973.123 L1101.1 964.911 L1100.53 964.911 Q1096.49 964.911 1094.29 967.585 Q1092.06 970.227 1092.06 975.033 Q1092.06 978.088 1092.79 980.985 Q1093.53 983.881 1094.99 986.555 L1089.58 986.555 Q1088.34 983.34 1087.73 980.316 Q1087.1 977.293 1087.1 974.428 Q1087.1 966.694 1091.11 962.874 Q1095.12 959.055 1103.27 959.055 Z" fill="#000000" fill-rule="nonzero" fill-opacity="1" /><path clip-path="url(#clip800)" d="M1105.81 921.402 Q1099.35 921.402 1095.69 924.075 Q1092 926.717 1092 931.364 Q1092 936.011 1095.69 938.685 Q1099.35 941.326 1105.81 941.326 Q1112.27 941.326 1115.97 938.685 Q1119.63 936.011 1119.63 931.364 Q1119.63 926.717 1115.97 924.075 Q1112.27 921.402 1105.81 921.402 M1093.37 941.326 Q1090.18 939.48 1088.66 936.679 Q1087.1 933.847 1087.1 929.932 Q1087.1 923.439 1092.25 919.397 Q1097.41 915.323 1105.81 915.323 Q1114.21 915.323 1119.37 919.397 Q1124.53 923.439 1124.53 929.932 Q1124.53 933.847 1123 936.679 Q1121.44 939.48 1118.26 941.326 L1123.6 941.326 L1123.6 947.215 L1074.08 947.215 L1074.08 941.326 L1093.37 941.326 Z" fill="#000000" fill-rule="nonzero" fill-opacity="1" /><path clip-path="url(#clip800)" d="M1087.96 905.615 L1087.96 899.758 L1123.6 899.758 L1123.6 905.615 L1087.96 905.615 M1074.08 905.615 L1074.08 899.758 L1081.5 899.758 L1081.5 905.615 L1074.08 905.615 Z" fill="#000000" fill-rule="nonzero" fill-opacity="1" /><path clip-path="url(#clip800)" d="M1074.08 887.504 L1074.08 881.648 L1123.6 881.648 L1123.6 887.504 L1074.08 887.504 Z" fill="#000000" fill-rule="nonzero" fill-opacity="1" /><path clip-path="url(#clip800)" d="M1087.96 869.394 L1087.96 863.537 L1123.6 863.537 L1123.6 869.394 L1087.96 869.394 M1074.08 869.394 L1074.08 863.537 L1081.5 863.537 L1081.5 869.394 L1074.08 869.394 Z" fill="#000000" fill-rule="nonzero" fill-opacity="1" /><path clip-path="url(#clip800)" d="M1077.83 845.491 L1087.96 845.491 L1087.96 833.428 L1092.51 833.428 L1092.51 845.491 L1111.86 845.491 Q1116.22 845.491 1117.46 844.313 Q1118.7 843.104 1118.7 839.443 L1118.7 833.428 L1123.6 833.428 L1123.6 839.443 Q1123.6 846.223 1121.09 848.801 Q1118.54 851.379 1111.86 851.379 L1092.51 851.379 L1092.51 855.676 L1087.96 855.676 L1087.96 851.379 L1077.83 851.379 L1077.83 845.491 Z" fill="#000000" fill-rule="nonzero" fill-opacity="1" /><path clip-path="url(#clip800)" d="M1126.91 810.893 Q1133.28 813.376 1135.22 815.731 Q1137.16 818.086 1137.16 822.033 L1137.16 826.712 L1132.26 826.712 L1132.26 823.274 Q1132.26 820.855 1131.12 819.519 Q1129.97 818.182 1125.7 816.559 L1123.03 815.508 L1087.96 829.927 L1087.96 823.72 L1115.84 812.58 L1087.96 801.44 L1087.96 795.233 L1126.91 810.893 Z" fill="#000000" fill-rule="nonzero" fill-opacity="1" /><path clip-path="url(#clip800)" d="M1079.74 730.59 L1086.52 730.59 Q1083.5 733.836 1082 737.528 Q1080.51 741.189 1080.51 745.326 Q1080.51 753.474 1085.51 757.803 Q1090.47 762.132 1099.89 762.132 Q1109.28 762.132 1114.28 757.803 Q1119.24 753.474 1119.24 745.326 Q1119.24 741.189 1117.75 737.528 Q1116.25 733.836 1113.23 730.59 L1119.94 730.59 Q1122.24 733.964 1123.38 737.751 Q1124.53 741.507 1124.53 745.708 Q1124.53 756.498 1117.94 762.705 Q1111.32 768.911 1099.89 768.911 Q1088.43 768.911 1081.85 762.705 Q1075.22 756.498 1075.22 745.708 Q1075.22 741.443 1076.37 737.687 Q1077.48 733.9 1079.74 730.59 Z" fill="#000000" fill-rule="nonzero" fill-opacity="1" /><path clip-path="url(#clip800)" d="M1105.68 704.713 Q1105.68 711.811 1107.31 714.548 Q1108.93 717.285 1112.85 717.285 Q1115.97 717.285 1117.81 715.248 Q1119.63 713.179 1119.63 709.647 Q1119.63 704.777 1116.19 701.849 Q1112.72 698.888 1106.99 698.888 L1105.68 698.888 L1105.68 704.713 M1103.27 693.032 L1123.6 693.032 L1123.6 698.888 L1118.19 698.888 Q1121.44 700.894 1123 703.886 Q1124.53 706.877 1124.53 711.206 Q1124.53 716.681 1121.47 719.927 Q1118.38 723.142 1113.23 723.142 Q1107.21 723.142 1104.16 719.131 Q1101.1 715.089 1101.1 707.1 L1101.1 698.888 L1100.53 698.888 Q1096.49 698.888 1094.29 701.562 Q1092.06 704.204 1092.06 709.01 Q1092.06 712.066 1092.79 714.962 Q1093.53 717.858 1094.99 720.532 L1089.58 720.532 Q1088.34 717.317 1087.73 714.293 Q1087.1 711.27 1087.1 708.405 Q1087.1 700.671 1091.11 696.851 Q1095.12 693.032 1103.27 693.032 Z" fill="#000000" fill-rule="nonzero" fill-opacity="1" /><path clip-path="url(#clip800)" d="M1126.91 666.137 Q1133.28 668.62 1135.22 670.975 Q1137.16 673.33 1137.16 677.277 L1137.16 681.956 L1132.26 681.956 L1132.26 678.518 Q1132.26 676.099 1131.12 674.762 Q1129.97 673.426 1125.7 671.802 L1123.03 670.752 L1087.96 685.17 L1087.96 678.964 L1115.84 667.824 L1087.96 656.684 L1087.96 650.477 L1126.91 666.137 Z" fill="#000000" fill-rule="nonzero" fill-opacity="1" /><path clip-path="url(#clip800)" d="M1109.54 642.998 L1087.96 642.998 L1087.96 637.141 L1109.31 637.141 Q1114.37 637.141 1116.92 635.168 Q1119.43 633.194 1119.43 629.248 Q1119.43 624.505 1116.41 621.768 Q1113.39 618.999 1108.17 618.999 L1087.96 618.999 L1087.96 613.142 L1123.6 613.142 L1123.6 618.999 L1118.13 618.999 Q1121.38 621.131 1122.97 623.964 Q1124.53 626.765 1124.53 630.489 Q1124.53 636.632 1120.71 639.815 Q1116.89 642.998 1109.54 642.998 M1087.1 628.261 L1087.1 628.261 Z" fill="#000000" fill-rule="nonzero" fill-opacity="1" /><path clip-path="url(#clip800)" d="M1105.37 577.622 Q1099 577.622 1095.5 580.264 Q1092 582.873 1092 587.616 Q1092 592.327 1095.5 594.968 Q1099 597.578 1105.37 597.578 Q1111.7 597.578 1115.2 594.968 Q1118.7 592.327 1118.7 587.616 Q1118.7 582.873 1115.2 580.264 Q1111.7 577.622 1105.37 577.622 M1119.18 571.765 Q1128.28 571.765 1132.71 575.808 Q1137.16 579.85 1137.16 588.189 Q1137.16 591.276 1136.69 594.013 Q1136.24 596.751 1135.29 599.329 L1129.59 599.329 Q1130.99 596.751 1131.66 594.236 Q1132.33 591.722 1132.33 589.112 Q1132.33 583.351 1129.3 580.486 Q1126.31 577.622 1120.23 577.622 L1117.33 577.622 Q1120.48 579.436 1122.04 582.269 Q1123.6 585.101 1123.6 589.048 Q1123.6 595.605 1118.61 599.615 Q1113.61 603.626 1105.37 603.626 Q1097.09 603.626 1092.09 599.615 Q1087.1 595.605 1087.1 589.048 Q1087.1 585.101 1088.66 582.269 Q1090.22 579.436 1093.37 577.622 L1087.96 577.622 L1087.96 571.765 L1119.18 571.765 Z" fill="#000000" fill-rule="nonzero" fill-opacity="1" /><path clip-path="url(#clip800)" d="M1105.68 543.502 Q1105.68 550.599 1107.31 553.337 Q1108.93 556.074 1112.85 556.074 Q1115.97 556.074 1117.81 554.037 Q1119.63 551.968 1119.63 548.435 Q1119.63 543.565 1116.19 540.637 Q1112.72 537.677 1106.99 537.677 L1105.68 537.677 L1105.68 543.502 M1103.27 531.821 L1123.6 531.821 L1123.6 537.677 L1118.19 537.677 Q1121.44 539.682 1123 542.674 Q1124.53 545.666 1124.53 549.995 Q1124.53 555.469 1121.47 558.716 Q1118.38 561.93 1113.23 561.93 Q1107.21 561.93 1104.16 557.92 Q1101.1 553.878 1101.1 545.889 L1101.1 537.677 L1100.53 537.677 Q1096.49 537.677 1094.29 540.351 Q1092.06 542.992 1092.06 547.798 Q1092.06 550.854 1092.79 553.75 Q1093.53 556.647 1094.99 559.32 L1089.58 559.32 Q1088.34 556.106 1087.73 553.082 Q1087.1 550.058 1087.1 547.194 Q1087.1 539.459 1091.11 535.64 Q1095.12 531.821 1103.27 531.821 Z" fill="#000000" fill-rule="nonzero" fill-opacity="1" /><path clip-path="url(#clip800)" d="M1076.08 498.783 L1076.08 492.353 L1118.19 492.353 L1118.19 469.214 L1123.6 469.214 L1123.6 498.783 L1076.08 498.783 Z" fill="#000000" fill-rule="nonzero" fill-opacity="1" /><path clip-path="url(#clip800)" d="M1105.68 446.52 Q1105.68 453.618 1107.31 456.355 Q1108.93 459.092 1112.85 459.092 Q1115.97 459.092 1117.81 457.055 Q1119.63 454.986 1119.63 451.453 Q1119.63 446.584 1116.19 443.655 Q1112.72 440.695 1106.99 440.695 L1105.68 440.695 L1105.68 446.52 M1103.27 434.839 L1123.6 434.839 L1123.6 440.695 L1118.19 440.695 Q1121.44 442.701 1123 445.693 Q1124.53 448.684 1124.53 453.013 Q1124.53 458.488 1121.47 461.734 Q1118.38 464.949 1113.23 464.949 Q1107.21 464.949 1104.16 460.938 Q1101.1 456.896 1101.1 448.907 L1101.1 440.695 L1100.53 440.695 Q1096.49 440.695 1094.29 443.369 Q1092.06 446.011 1092.06 450.817 Q1092.06 453.872 1092.79 456.769 Q1093.53 459.665 1094.99 462.339 L1089.58 462.339 Q1088.34 459.124 1087.73 456.1 Q1087.1 453.077 1087.1 450.212 Q1087.1 442.478 1091.11 438.658 Q1095.12 434.839 1103.27 434.839 Z" fill="#000000" fill-rule="nonzero" fill-opacity="1" /><path clip-path="url(#clip800)" d="M1074.08 422.999 L1074.08 417.11 L1103.33 417.11 L1087.96 399.637 L1087.96 392.157 L1104.63 411.063 L1123.6 391.361 L1123.6 399 L1106.19 417.11 L1123.6 417.11 L1123.6 422.999 L1074.08 422.999 Z" fill="#000000" fill-rule="nonzero" fill-opacity="1" /><path clip-path="url(#clip800)" d="M1104.32 356.859 L1107.18 356.859 L1107.18 383.786 Q1113.23 383.404 1116.41 380.158 Q1119.56 376.879 1119.56 371.055 Q1119.56 367.681 1118.73 364.53 Q1117.91 361.347 1116.25 358.228 L1121.79 358.228 Q1123.13 361.379 1123.83 364.689 Q1124.53 367.999 1124.53 371.405 Q1124.53 379.935 1119.56 384.932 Q1114.6 389.897 1106.13 389.897 Q1097.38 389.897 1092.25 385.186 Q1087.1 380.444 1087.1 372.423 Q1087.1 365.23 1091.74 361.06 Q1096.36 356.859 1104.32 356.859 M1102.6 362.716 Q1097.79 362.779 1094.93 365.421 Q1092.06 368.031 1092.06 372.36 Q1092.06 377.261 1094.83 380.221 Q1097.6 383.149 1102.63 383.595 L1102.6 362.716 Z" fill="#000000" fill-rule="nonzero" fill-opacity="1" /><path clip-path="url(#clip800)" d="M1076.08 326.272 L1076.08 298.963 L1081.5 298.963 L1081.5 319.842 L1095.5 319.842 L1095.5 301 L1100.91 301 L1100.91 319.842 L1123.6 319.842 L1123.6 326.272 L1076.08 326.272 Z" fill="#000000" fill-rule="nonzero" fill-opacity="1" /><path clip-path="url(#clip800)" d="M1093.43 273.118 Q1092.86 274.105 1092.6 275.283 Q1092.32 276.428 1092.32 277.829 Q1092.32 282.794 1095.56 285.468 Q1098.78 288.109 1104.83 288.109 L1123.6 288.109 L1123.6 293.998 L1087.96 293.998 L1087.96 288.109 L1093.49 288.109 Q1090.25 286.263 1088.69 283.303 Q1087.1 280.343 1087.1 276.11 Q1087.1 275.505 1087.19 274.773 Q1087.26 274.041 1087.42 273.15 L1093.43 273.118 Z" fill="#000000" fill-rule="nonzero" fill-opacity="1" /><path clip-path="url(#clip800)" d="M1104.32 237.916 L1107.18 237.916 L1107.18 264.843 Q1113.23 264.461 1116.41 261.214 Q1119.56 257.936 1119.56 252.111 Q1119.56 248.738 1118.73 245.587 Q1117.91 242.404 1116.25 239.284 L1121.79 239.284 Q1123.13 242.435 1123.83 245.746 Q1124.53 249.056 1124.53 252.461 Q1124.53 260.992 1119.56 265.989 Q1114.6 270.954 1106.13 270.954 Q1097.38 270.954 1092.25 266.243 Q1087.1 261.501 1087.1 253.48 Q1087.1 246.287 1091.74 242.117 Q1096.36 237.916 1104.32 237.916 M1102.6 243.772 Q1097.79 243.836 1094.93 246.478 Q1092.06 249.088 1092.06 253.416 Q1092.06 258.318 1094.83 261.278 Q1097.6 264.206 1102.63 264.652 L1102.6 243.772 Z" fill="#000000" fill-rule="nonzero" fill-opacity="1" /><path clip-path="url(#clip800)" d="M1104.32 197.812 L1107.18 197.812 L1107.18 224.739 Q1113.23 224.357 1116.41 221.11 Q1119.56 217.832 1119.56 212.007 Q1119.56 208.634 1118.73 205.483 Q1117.91 202.3 1116.25 199.181 L1121.79 199.181 Q1123.13 202.332 1123.83 205.642 Q1124.53 208.952 1124.53 212.358 Q1124.53 220.888 1119.56 225.885 Q1114.6 230.85 1106.13 230.85 Q1097.38 230.85 1092.25 226.139 Q1087.1 221.397 1087.1 213.376 Q1087.1 206.183 1091.74 202.013 Q1096.36 197.812 1104.32 197.812 M1102.6 203.668 Q1097.79 203.732 1094.93 206.374 Q1092.06 208.984 1092.06 213.312 Q1092.06 218.214 1094.83 221.174 Q1097.6 224.102 1102.63 224.548 L1102.6 203.668 Z" fill="#000000" fill-rule="nonzero" fill-opacity="1" /><path clip-path="url(#clip800)" d="M1087.96 190.746 L1087.96 162.928 L1093.3 162.928 L1118.93 184.953 L1118.93 162.928 L1123.6 162.928 L1123.6 191.542 L1118.26 191.542 L1092.63 169.516 L1092.63 190.746 L1087.96 190.746 Z" fill="#000000" fill-rule="nonzero" fill-opacity="1" /><path clip-path="url(#clip800)" d="M1104.32 123.492 L1107.18 123.492 L1107.18 150.419 Q1113.23 150.037 1116.41 146.791 Q1119.56 143.512 1119.56 137.688 Q1119.56 134.314 1118.73 131.163 Q1117.91 127.98 1116.25 124.861 L1121.79 124.861 Q1123.13 128.012 1123.83 131.322 Q1124.53 134.632 1124.53 138.038 Q1124.53 146.568 1119.56 151.565 Q1114.6 156.53 1106.13 156.53 Q1097.38 156.53 1092.25 151.82 Q1087.1 147.077 1087.1 139.056 Q1087.1 131.863 1091.74 127.694 Q1096.36 123.492 1104.32 123.492 M1102.6 129.349 Q1097.79 129.412 1094.93 132.054 Q1092.06 134.664 1092.06 138.993 Q1092.06 143.894 1094.83 146.854 Q1097.6 149.783 1102.63 150.228 L1102.6 129.349 Z" fill="#000000" fill-rule="nonzero" fill-opacity="1" /><path clip-path="url(#clip800)" d="M1089.01 91.1545 L1094.54 91.1545 Q1093.27 93.6371 1092.63 96.3107 Q1092 98.9843 1092 101.849 Q1092 106.209 1093.34 108.406 Q1094.67 110.57 1097.35 110.57 Q1099.38 110.57 1100.56 109.01 Q1101.71 107.451 1102.76 102.74 L1103.2 100.735 Q1104.54 94.4965 1106.99 91.8865 Q1109.41 89.2448 1113.77 89.2448 Q1118.73 89.2448 1121.63 93.1915 Q1124.53 97.1064 1124.53 103.981 Q1124.53 106.846 1123.95 109.965 Q1123.41 113.053 1122.3 116.49 L1116.25 116.49 Q1117.94 113.243 1118.8 110.092 Q1119.63 106.941 1119.63 103.854 Q1119.63 99.7164 1118.23 97.4884 Q1116.79 95.2604 1114.21 95.2604 Q1111.83 95.2604 1110.55 96.8836 Q1109.28 98.475 1108.1 103.918 L1107.63 105.955 Q1106.48 111.397 1104.13 113.816 Q1101.74 116.235 1097.6 116.235 Q1092.57 116.235 1089.83 112.671 Q1087.1 109.106 1087.1 102.549 Q1087.1 99.3026 1087.57 96.438 Q1088.05 93.5734 1089.01 91.1545 Z" fill="#000000" fill-rule="nonzero" fill-opacity="1" /><polyline clip-path="url(#clip801)" style="stroke:#009af9; stroke-linecap:round; stroke-linejoin:round; stroke-width:4; stroke-opacity:1; fill:none" points="1322.6,494.257 1326.75,486.646 1330.89,600.31 1335.03,479.859 1339.17,519.516 1343.31,540.239 1347.45,426.296 1351.59,481.615 1355.73,459.91 1359.87,467.045 1364.01,164.135 1368.16,259.297 1372.3,446.858 1376.44,285.192 1380.58,423.757 1384.72,459.015 1388.86,427.909 1393,291.908 1397.14,607.487 1401.28,463.26 1405.42,280.522 1409.57,334.723 1413.71,499.66 1417.85,520.784 1421.99,431.816 1426.13,413.078 1430.27,455.427 1434.41,732.283 1438.55,560.543 1442.69,426.757 1446.83,574.85 1450.98,636.958 1455.12,389.515 1459.26,475.899 1463.4,355.715 1467.54,477.441 1471.68,329.732 1475.82,347.608 1479.96,598.751 1484.1,437.309 1488.24,381.873 1492.39,509.742 1496.53,79.1184 1500.67,387.132 1504.81,318.427 1508.95,505.464 1513.09,566.21 1517.23,466.378 1521.37,430.898 1525.51,479.859 1529.65,561.355 1533.8,481.176 1537.94,460.804 1542.08,195.201 1546.22,353.264 1550.36,521.84 1554.5,405.589 1558.64,407.232 1562.78,289.845 1566.92,389.991 1571.06,240.142 1575.21,518.67 1579.35,354 1583.49,612.498 1587.63,561.355 1591.77,516.127 1595.91,209.523 1600.05,272.962 1604.19,528.15 1608.33,430.898 1612.47,502.458 1616.62,483.586 1620.76,462.368 1624.9,562.368 1629.04,405.589 1633.18,710.618 1637.32,541.275 1641.46,614.034 1645.6,447.31 1649.74,449.345 1653.88,620.153 1658.03,660.585 1662.17,519.093 1666.31,507.605 1670.45,622.247 1674.59,509.315 1678.73,672.881 1682.87,692.051 1687.01,620.534 1691.15,761.451 1695.3,744.872 1699.44,757.259 1703.58,646.078 1707.72,791.079 1711.86,737.111 1716,648.666 1720.14,578.444 1724.28,608.067 1728.42,583.016 1732.56,523.737 1736.71,470.374 1740.85,736.447 1744.99,707.007 1749.13,643.296 1753.27,654.738 1757.41,528.359 1761.55,600.894 1765.69,766.419 1769.83,686.593 1773.97,665.669 1778.12,722.708 1782.26,649.22 1786.4,665.669 1790.54,614.801 1794.68,550.136 1798.82,590.916 1802.96,572.447 1807.1,562.368 1811.24,600.505 1815.38,741.909 1819.53,587.764 1823.67,531.917 1827.81,763.057 1831.95,537.542 1836.09,642.924 1840.23,581.229 1844.37,740.092 1848.51,712.16 1852.65,678.071 1856.79,854.526 1860.94,840.002 1865.08,764.98 1869.22,851.562 1873.36,744.872 1877.5,672.342 1881.64,777.044 1885.78,790.152 1889.92,876.404 1894.06,762.094 1898.2,832.183 1902.35,853.399 1906.49,846.734 1910.63,800.745 1914.77,756.126 1918.91,895.306 1923.05,831.891 1927.19,834.074 1931.33,967.014 1935.47,917.34 1939.61,852.128 1943.76,847.589 1947.9,960.573 1952.04,919.373 1956.18,957.145 1960.32,932.783 1964.46,950.465 1968.6,1007.63 1972.74,838.561 1976.88,922.66 1981.02,995.553 1985.17,897.677 1989.31,898.466 1993.45,932.411 1997.59,953.099 2001.73,1002.77 2005.87,1112.77 2010.01,1063.6 2014.15,1014.15 2018.29,1032.35 2022.43,1101.15 2026.58,978.414 2030.72,1014.57 2034.86,1027.22 2039,1141.6 2043.14,1126.9 "/>
</svg>
