<?xml version="1.0" encoding="utf-8"?>
<svg xmlns="http://www.w3.org/2000/svg" xmlns:xlink="http://www.w3.org/1999/xlink" width="528" height="336" viewBox="0 0 2112 1344">
<defs>
  <clipPath id="clip170">
    <rect x="0" y="0" width="2112" height="1344"/>
  </clipPath>
</defs>
<path clip-path="url(#clip170)" d="M0 1344 L2112 1344 L2112 2.13163e-14 L0 2.13163e-14  Z" fill="#ffffff" fill-rule="evenodd" fill-opacity="1"/>
<defs>
  <clipPath id="clip171">
    <rect x="199" y="47" width="1867" height="1127"/>
  </clipPath>
</defs>
<path clip-path="url(#clip170)" d="M199.086 1173.47 L2064.76 1173.47 L2064.76 47.2441 L199.086 47.2441  Z" fill="#ffffff" fill-rule="evenodd" fill-opacity="1"/>
<polyline clip-path="url(#clip171)" style="stroke:#000000; stroke-linecap:round; stroke-linejoin:round; stroke-width:2; stroke-opacity:0.1; fill:none" points="251.888,1173.47 251.888,47.2441 "/>
<polyline clip-path="url(#clip171)" style="stroke:#000000; stroke-linecap:round; stroke-linejoin:round; stroke-width:2; stroke-opacity:0.1; fill:none" points="788.493,1173.47 788.493,47.2441 "/>
<polyline clip-path="url(#clip171)" style="stroke:#000000; stroke-linecap:round; stroke-linejoin:round; stroke-width:2; stroke-opacity:0.1; fill:none" points="1325.1,1173.47 1325.1,47.2441 "/>
<polyline clip-path="url(#clip171)" style="stroke:#000000; stroke-linecap:round; stroke-linejoin:round; stroke-width:2; stroke-opacity:0.1; fill:none" points="1861.7,1173.47 1861.7,47.2441 "/>
<polyline clip-path="url(#clip171)" style="stroke:#000000; stroke-linecap:round; stroke-linejoin:round; stroke-width:2; stroke-opacity:0.1; fill:none" points="199.086,1160.66 2064.76,1160.66 "/>
<polyline clip-path="url(#clip171)" style="stroke:#000000; stroke-linecap:round; stroke-linejoin:round; stroke-width:2; stroke-opacity:0.1; fill:none" points="199.086,940.613 2064.76,940.613 "/>
<polyline clip-path="url(#clip171)" style="stroke:#000000; stroke-linecap:round; stroke-linejoin:round; stroke-width:2; stroke-opacity:0.1; fill:none" points="199.086,720.567 2064.76,720.567 "/>
<polyline clip-path="url(#clip171)" style="stroke:#000000; stroke-linecap:round; stroke-linejoin:round; stroke-width:2; stroke-opacity:0.1; fill:none" points="199.086,500.521 2064.76,500.521 "/>
<polyline clip-path="url(#clip171)" style="stroke:#000000; stroke-linecap:round; stroke-linejoin:round; stroke-width:2; stroke-opacity:0.1; fill:none" points="199.086,280.475 2064.76,280.475 "/>
<polyline clip-path="url(#clip171)" style="stroke:#000000; stroke-linecap:round; stroke-linejoin:round; stroke-width:2; stroke-opacity:0.1; fill:none" points="199.086,60.4285 2064.76,60.4285 "/>
<polyline clip-path="url(#clip170)" style="stroke:#000000; stroke-linecap:round; stroke-linejoin:round; stroke-width:4; stroke-opacity:1; fill:none" points="199.086,1173.47 2064.76,1173.47 "/>
<polyline clip-path="url(#clip170)" style="stroke:#000000; stroke-linecap:round; stroke-linejoin:round; stroke-width:4; stroke-opacity:1; fill:none" points="251.888,1173.47 251.888,1154.57 "/>
<polyline clip-path="url(#clip170)" style="stroke:#000000; stroke-linecap:round; stroke-linejoin:round; stroke-width:4; stroke-opacity:1; fill:none" points="788.493,1173.47 788.493,1154.57 "/>
<polyline clip-path="url(#clip170)" style="stroke:#000000; stroke-linecap:round; stroke-linejoin:round; stroke-width:4; stroke-opacity:1; fill:none" points="1325.1,1173.47 1325.1,1154.57 "/>
<polyline clip-path="url(#clip170)" style="stroke:#000000; stroke-linecap:round; stroke-linejoin:round; stroke-width:4; stroke-opacity:1; fill:none" points="1861.7,1173.47 1861.7,1154.57 "/>
<path clip-path="url(#clip170)" d="M196.413 1229.63 L204.052 1229.63 L204.052 1203.27 L195.742 1204.93 L195.742 1200.67 L204.006 1199.01 L208.682 1199.01 L208.682 1229.63 L216.321 1229.63 L216.321 1233.57 L196.413 1233.57 L196.413 1229.63 Z" fill="#000000" fill-rule="nonzero" fill-opacity="1" /><path clip-path="url(#clip170)" d="M235.765 1217.15 Q232.432 1217.15 230.51 1218.94 Q228.612 1220.72 228.612 1223.84 Q228.612 1226.97 230.51 1228.75 Q232.432 1230.53 235.765 1230.53 Q239.098 1230.53 241.02 1228.75 Q242.941 1226.95 242.941 1223.84 Q242.941 1220.72 241.02 1218.94 Q239.121 1217.15 235.765 1217.15 M231.089 1215.16 Q228.08 1214.42 226.39 1212.36 Q224.723 1210.3 224.723 1207.34 Q224.723 1203.2 227.663 1200.79 Q230.626 1198.38 235.765 1198.38 Q240.927 1198.38 243.867 1200.79 Q246.807 1203.2 246.807 1207.34 Q246.807 1210.3 245.117 1212.36 Q243.45 1214.42 240.464 1215.16 Q243.844 1215.95 245.719 1218.24 Q247.617 1220.53 247.617 1223.84 Q247.617 1228.87 244.538 1231.55 Q241.483 1234.24 235.765 1234.24 Q230.047 1234.24 226.969 1231.55 Q223.913 1228.87 223.913 1223.84 Q223.913 1220.53 225.811 1218.24 Q227.709 1215.95 231.089 1215.16 M229.376 1207.78 Q229.376 1210.47 231.043 1211.97 Q232.733 1213.47 235.765 1213.47 Q238.774 1213.47 240.464 1211.97 Q242.177 1210.47 242.177 1207.78 Q242.177 1205.09 240.464 1203.59 Q238.774 1202.09 235.765 1202.09 Q232.733 1202.09 231.043 1203.59 Q229.376 1205.09 229.376 1207.78 Z" fill="#000000" fill-rule="nonzero" fill-opacity="1" /><path clip-path="url(#clip170)" d="M255.973 1199.01 L274.33 1199.01 L274.33 1202.94 L260.256 1202.94 L260.256 1211.41 Q261.274 1211.07 262.293 1210.9 Q263.311 1210.72 264.33 1210.72 Q270.117 1210.72 273.496 1213.89 Q276.876 1217.06 276.876 1222.48 Q276.876 1228.06 273.404 1231.16 Q269.931 1234.24 263.612 1234.24 Q261.436 1234.24 259.168 1233.87 Q256.922 1233.5 254.515 1232.76 L254.515 1228.06 Q256.598 1229.19 258.82 1229.75 Q261.043 1230.3 263.519 1230.3 Q267.524 1230.3 269.862 1228.2 Q272.2 1226.09 272.2 1222.48 Q272.2 1218.87 269.862 1216.76 Q267.524 1214.65 263.519 1214.65 Q261.644 1214.65 259.77 1215.07 Q257.918 1215.49 255.973 1216.37 L255.973 1199.01 Z" fill="#000000" fill-rule="nonzero" fill-opacity="1" /><path clip-path="url(#clip170)" d="M296.089 1202.09 Q292.478 1202.09 290.649 1205.65 Q288.843 1209.19 288.843 1216.32 Q288.843 1223.43 290.649 1226.99 Q292.478 1230.53 296.089 1230.53 Q299.723 1230.53 301.529 1226.99 Q303.357 1223.43 303.357 1216.32 Q303.357 1209.19 301.529 1205.65 Q299.723 1202.09 296.089 1202.09 M296.089 1198.38 Q301.899 1198.38 304.954 1202.99 Q308.033 1207.57 308.033 1216.32 Q308.033 1225.05 304.954 1229.65 Q301.899 1234.24 296.089 1234.24 Q290.279 1234.24 287.2 1229.65 Q284.144 1225.05 284.144 1216.32 Q284.144 1207.57 287.2 1202.99 Q290.279 1198.38 296.089 1198.38 Z" fill="#000000" fill-rule="nonzero" fill-opacity="1" /><path clip-path="url(#clip170)" d="M733.019 1229.63 L740.658 1229.63 L740.658 1203.27 L732.348 1204.93 L732.348 1200.67 L740.611 1199.01 L745.287 1199.01 L745.287 1229.63 L752.926 1229.63 L752.926 1233.57 L733.019 1233.57 L733.019 1229.63 Z" fill="#000000" fill-rule="nonzero" fill-opacity="1" /><path clip-path="url(#clip170)" d="M762.51 1232.85 L762.51 1228.59 Q764.269 1229.42 766.074 1229.86 Q767.88 1230.3 769.616 1230.3 Q774.246 1230.3 776.676 1227.2 Q779.13 1224.08 779.477 1217.73 Q778.134 1219.72 776.074 1220.79 Q774.014 1221.85 771.514 1221.85 Q766.329 1221.85 763.297 1218.73 Q760.287 1215.58 760.287 1210.14 Q760.287 1204.82 763.435 1201.6 Q766.584 1198.38 771.815 1198.38 Q777.81 1198.38 780.959 1202.99 Q784.13 1207.57 784.13 1216.32 Q784.13 1224.49 780.241 1229.38 Q776.375 1234.24 769.824 1234.24 Q768.065 1234.24 766.26 1233.89 Q764.454 1233.54 762.51 1232.85 M771.815 1218.2 Q774.963 1218.2 776.792 1216.04 Q778.644 1213.89 778.644 1210.14 Q778.644 1206.41 776.792 1204.26 Q774.963 1202.09 771.815 1202.09 Q768.667 1202.09 766.815 1204.26 Q764.986 1206.41 764.986 1210.14 Q764.986 1213.89 766.815 1216.04 Q768.667 1218.2 771.815 1218.2 Z" fill="#000000" fill-rule="nonzero" fill-opacity="1" /><path clip-path="url(#clip170)" d="M802.532 1202.09 Q798.921 1202.09 797.093 1205.65 Q795.287 1209.19 795.287 1216.32 Q795.287 1223.43 797.093 1226.99 Q798.921 1230.53 802.532 1230.53 Q806.167 1230.53 807.972 1226.99 Q809.801 1223.43 809.801 1216.32 Q809.801 1209.19 807.972 1205.65 Q806.167 1202.09 802.532 1202.09 M802.532 1198.38 Q808.343 1198.38 811.398 1202.99 Q814.477 1207.57 814.477 1216.32 Q814.477 1225.05 811.398 1229.65 Q808.343 1234.24 802.532 1234.24 Q796.722 1234.24 793.644 1229.65 Q790.588 1225.05 790.588 1216.32 Q790.588 1207.57 793.644 1202.99 Q796.722 1198.38 802.532 1198.38 Z" fill="#000000" fill-rule="nonzero" fill-opacity="1" /><path clip-path="url(#clip170)" d="M832.694 1202.09 Q829.083 1202.09 827.255 1205.65 Q825.449 1209.19 825.449 1216.32 Q825.449 1223.43 827.255 1226.99 Q829.083 1230.53 832.694 1230.53 Q836.329 1230.53 838.134 1226.99 Q839.963 1223.43 839.963 1216.32 Q839.963 1209.19 838.134 1205.65 Q836.329 1202.09 832.694 1202.09 M832.694 1198.38 Q838.504 1198.38 841.56 1202.99 Q844.639 1207.57 844.639 1216.32 Q844.639 1225.05 841.56 1229.65 Q838.504 1234.24 832.694 1234.24 Q826.884 1234.24 823.805 1229.65 Q820.75 1225.05 820.75 1216.32 Q820.75 1207.57 823.805 1202.99 Q826.884 1198.38 832.694 1198.38 Z" fill="#000000" fill-rule="nonzero" fill-opacity="1" /><path clip-path="url(#clip170)" d="M1269.62 1229.63 L1277.26 1229.63 L1277.26 1203.27 L1268.95 1204.93 L1268.95 1200.67 L1277.22 1199.01 L1281.89 1199.01 L1281.89 1229.63 L1289.53 1229.63 L1289.53 1233.57 L1269.62 1233.57 L1269.62 1229.63 Z" fill="#000000" fill-rule="nonzero" fill-opacity="1" /><path clip-path="url(#clip170)" d="M1299.12 1232.85 L1299.12 1228.59 Q1300.87 1229.42 1302.68 1229.86 Q1304.49 1230.3 1306.22 1230.3 Q1310.85 1230.3 1313.28 1227.2 Q1315.74 1224.08 1316.08 1217.73 Q1314.74 1219.72 1312.68 1220.79 Q1310.62 1221.85 1308.12 1221.85 Q1302.93 1221.85 1299.9 1218.73 Q1296.89 1215.58 1296.89 1210.14 Q1296.89 1204.82 1300.04 1201.6 Q1303.19 1198.38 1308.42 1198.38 Q1314.42 1198.38 1317.56 1202.99 Q1320.74 1207.57 1320.74 1216.32 Q1320.74 1224.49 1316.85 1229.38 Q1312.98 1234.24 1306.43 1234.24 Q1304.67 1234.24 1302.87 1233.89 Q1301.06 1233.54 1299.12 1232.85 M1308.42 1218.2 Q1311.57 1218.2 1313.4 1216.04 Q1315.25 1213.89 1315.25 1210.14 Q1315.25 1206.41 1313.4 1204.26 Q1311.57 1202.09 1308.42 1202.09 Q1305.27 1202.09 1303.42 1204.26 Q1301.59 1206.41 1301.59 1210.14 Q1301.59 1213.89 1303.42 1216.04 Q1305.27 1218.2 1308.42 1218.2 Z" fill="#000000" fill-rule="nonzero" fill-opacity="1" /><path clip-path="url(#clip170)" d="M1329.18 1199.01 L1347.54 1199.01 L1347.54 1202.94 L1333.47 1202.94 L1333.47 1211.41 Q1334.49 1211.07 1335.5 1210.9 Q1336.52 1210.72 1337.54 1210.72 Q1343.33 1210.72 1346.71 1213.89 Q1350.09 1217.06 1350.09 1222.48 Q1350.09 1228.06 1346.61 1231.16 Q1343.14 1234.24 1336.82 1234.24 Q1334.65 1234.24 1332.38 1233.87 Q1330.13 1233.5 1327.73 1232.76 L1327.73 1228.06 Q1329.81 1229.19 1332.03 1229.75 Q1334.25 1230.3 1336.73 1230.3 Q1340.74 1230.3 1343.07 1228.2 Q1345.41 1226.09 1345.41 1222.48 Q1345.41 1218.87 1343.07 1216.76 Q1340.74 1214.65 1336.73 1214.65 Q1334.86 1214.65 1332.98 1215.07 Q1331.13 1215.49 1329.18 1216.37 L1329.18 1199.01 Z" fill="#000000" fill-rule="nonzero" fill-opacity="1" /><path clip-path="url(#clip170)" d="M1369.3 1202.09 Q1365.69 1202.09 1363.86 1205.65 Q1362.05 1209.19 1362.05 1216.32 Q1362.05 1223.43 1363.86 1226.99 Q1365.69 1230.53 1369.3 1230.53 Q1372.93 1230.53 1374.74 1226.99 Q1376.57 1223.43 1376.57 1216.32 Q1376.57 1209.19 1374.74 1205.65 Q1372.93 1202.09 1369.3 1202.09 M1369.3 1198.38 Q1375.11 1198.38 1378.17 1202.99 Q1381.24 1207.57 1381.24 1216.32 Q1381.24 1225.05 1378.17 1229.65 Q1375.11 1234.24 1369.3 1234.24 Q1363.49 1234.24 1360.41 1229.65 Q1357.36 1225.05 1357.36 1216.32 Q1357.36 1207.57 1360.41 1202.99 Q1363.49 1198.38 1369.3 1198.38 Z" fill="#000000" fill-rule="nonzero" fill-opacity="1" /><path clip-path="url(#clip170)" d="M1810.32 1229.63 L1826.64 1229.63 L1826.64 1233.57 L1804.69 1233.57 L1804.69 1229.63 Q1807.35 1226.88 1811.94 1222.25 Q1816.54 1217.59 1817.72 1216.25 Q1819.97 1213.73 1820.85 1211.99 Q1821.75 1210.23 1821.75 1208.54 Q1821.75 1205.79 1819.81 1204.05 Q1817.89 1202.32 1814.78 1202.32 Q1812.58 1202.32 1810.13 1203.08 Q1807.7 1203.84 1804.92 1205.4 L1804.92 1200.67 Q1807.75 1199.54 1810.2 1198.96 Q1812.65 1198.38 1814.69 1198.38 Q1820.06 1198.38 1823.26 1201.07 Q1826.45 1203.75 1826.45 1208.24 Q1826.45 1210.37 1825.64 1212.29 Q1824.85 1214.19 1822.75 1216.78 Q1822.17 1217.46 1819.07 1220.67 Q1815.96 1223.87 1810.32 1229.63 Z" fill="#000000" fill-rule="nonzero" fill-opacity="1" /><path clip-path="url(#clip170)" d="M1846.45 1202.09 Q1842.84 1202.09 1841.01 1205.65 Q1839.2 1209.19 1839.2 1216.32 Q1839.2 1223.43 1841.01 1226.99 Q1842.84 1230.53 1846.45 1230.53 Q1850.08 1230.53 1851.89 1226.99 Q1853.72 1223.43 1853.72 1216.32 Q1853.72 1209.19 1851.89 1205.65 Q1850.08 1202.09 1846.45 1202.09 M1846.45 1198.38 Q1852.26 1198.38 1855.32 1202.99 Q1858.39 1207.57 1858.39 1216.32 Q1858.39 1225.05 1855.32 1229.65 Q1852.26 1234.24 1846.45 1234.24 Q1840.64 1234.24 1837.56 1229.65 Q1834.51 1225.05 1834.51 1216.32 Q1834.51 1207.57 1837.56 1202.99 Q1840.64 1198.38 1846.45 1198.38 Z" fill="#000000" fill-rule="nonzero" fill-opacity="1" /><path clip-path="url(#clip170)" d="M1876.61 1202.09 Q1873 1202.09 1871.17 1205.65 Q1869.37 1209.19 1869.37 1216.32 Q1869.37 1223.43 1871.17 1226.99 Q1873 1230.53 1876.61 1230.53 Q1880.25 1230.53 1882.05 1226.99 Q1883.88 1223.43 1883.88 1216.32 Q1883.88 1209.19 1882.05 1205.65 Q1880.25 1202.09 1876.61 1202.09 M1876.61 1198.38 Q1882.42 1198.38 1885.48 1202.99 Q1888.56 1207.57 1888.56 1216.32 Q1888.56 1225.05 1885.48 1229.65 Q1882.42 1234.24 1876.61 1234.24 Q1870.8 1234.24 1867.72 1229.65 Q1864.67 1225.05 1864.67 1216.32 Q1864.67 1207.57 1867.72 1202.99 Q1870.8 1198.38 1876.61 1198.38 Z" fill="#000000" fill-rule="nonzero" fill-opacity="1" /><path clip-path="url(#clip170)" d="M1906.77 1202.09 Q1903.16 1202.09 1901.33 1205.65 Q1899.53 1209.19 1899.53 1216.32 Q1899.53 1223.43 1901.33 1226.99 Q1903.16 1230.53 1906.77 1230.53 Q1910.41 1230.53 1912.21 1226.99 Q1914.04 1223.43 1914.04 1216.32 Q1914.04 1209.19 1912.21 1205.65 Q1910.41 1202.09 1906.77 1202.09 M1906.77 1198.38 Q1912.58 1198.38 1915.64 1202.99 Q1918.72 1207.57 1918.72 1216.32 Q1918.72 1225.05 1915.64 1229.65 Q1912.58 1234.24 1906.77 1234.24 Q1900.96 1234.24 1897.88 1229.65 Q1894.83 1225.05 1894.83 1216.32 Q1894.83 1207.57 1897.88 1202.99 Q1900.96 1198.38 1906.77 1198.38 Z" fill="#000000" fill-rule="nonzero" fill-opacity="1" /><path clip-path="url(#clip170)" d="M1062.85 1266.49 L1069.76 1266.49 L1082.94 1286.04 L1096.02 1266.49 L1102.92 1266.49 L1086.12 1291.38 L1086.12 1314.01 L1079.66 1314.01 L1079.66 1291.38 L1062.85 1266.49 Z" fill="#000000" fill-rule="nonzero" fill-opacity="1" /><path clip-path="url(#clip170)" d="M1130.77 1294.73 L1130.77 1297.59 L1103.85 1297.59 Q1104.23 1303.64 1107.48 1306.82 Q1110.75 1309.97 1116.58 1309.97 Q1119.95 1309.97 1123.1 1309.14 Q1126.29 1308.32 1129.41 1306.66 L1129.41 1312.2 Q1126.26 1313.54 1122.95 1314.24 Q1119.63 1314.94 1116.23 1314.94 Q1107.7 1314.94 1102.7 1309.97 Q1097.74 1305.01 1097.74 1296.54 Q1097.74 1287.79 1102.45 1282.66 Q1107.19 1277.51 1115.21 1277.51 Q1122.4 1277.51 1126.57 1282.15 Q1130.77 1286.77 1130.77 1294.73 M1124.92 1293.01 Q1124.85 1288.2 1122.21 1285.34 Q1119.6 1282.47 1115.27 1282.47 Q1110.37 1282.47 1107.41 1285.24 Q1104.48 1288.01 1104.04 1293.04 L1124.92 1293.01 Z" fill="#000000" fill-rule="nonzero" fill-opacity="1" /><path clip-path="url(#clip170)" d="M1156.59 1296.1 Q1149.49 1296.1 1146.75 1297.72 Q1144.02 1299.34 1144.02 1303.26 Q1144.02 1306.38 1146.05 1308.22 Q1148.12 1310.04 1151.65 1310.04 Q1156.52 1310.04 1159.45 1306.6 Q1162.41 1303.13 1162.41 1297.4 L1162.41 1296.1 L1156.59 1296.1 M1168.27 1293.68 L1168.27 1314.01 L1162.41 1314.01 L1162.41 1308.6 Q1160.41 1311.85 1157.42 1313.41 Q1154.42 1314.94 1150.09 1314.94 Q1144.62 1314.94 1141.37 1311.88 Q1138.16 1308.79 1138.16 1303.64 Q1138.16 1297.62 1142.17 1294.57 Q1146.21 1291.51 1154.2 1291.51 L1162.41 1291.51 L1162.41 1290.94 Q1162.41 1286.9 1159.74 1284.7 Q1157.1 1282.47 1152.29 1282.47 Q1149.24 1282.47 1146.34 1283.2 Q1143.44 1283.94 1140.77 1285.4 L1140.77 1279.99 Q1143.98 1278.75 1147.01 1278.14 Q1150.03 1277.51 1152.9 1277.51 Q1160.63 1277.51 1164.45 1281.52 Q1168.27 1285.53 1168.27 1293.68 Z" fill="#000000" fill-rule="nonzero" fill-opacity="1" /><path clip-path="url(#clip170)" d="M1200.99 1283.84 Q1200 1283.27 1198.82 1283.01 Q1197.68 1282.73 1196.28 1282.73 Q1191.31 1282.73 1188.64 1285.97 Q1186 1289.19 1186 1295.24 L1186 1314.01 L1180.11 1314.01 L1180.11 1278.37 L1186 1278.37 L1186 1283.9 Q1187.84 1280.66 1190.8 1279.1 Q1193.76 1277.51 1198 1277.51 Q1198.6 1277.51 1199.33 1277.6 Q1200.07 1277.67 1200.96 1277.83 L1200.99 1283.84 Z" fill="#000000" fill-rule="nonzero" fill-opacity="1" /><polyline clip-path="url(#clip170)" style="stroke:#000000; stroke-linecap:round; stroke-linejoin:round; stroke-width:4; stroke-opacity:1; fill:none" points="199.086,1173.47 199.086,47.2441 "/>
<polyline clip-path="url(#clip170)" style="stroke:#000000; stroke-linecap:round; stroke-linejoin:round; stroke-width:4; stroke-opacity:1; fill:none" points="199.086,1160.66 217.983,1160.66 "/>
<polyline clip-path="url(#clip170)" style="stroke:#000000; stroke-linecap:round; stroke-linejoin:round; stroke-width:4; stroke-opacity:1; fill:none" points="199.086,940.613 217.983,940.613 "/>
<polyline clip-path="url(#clip170)" style="stroke:#000000; stroke-linecap:round; stroke-linejoin:round; stroke-width:4; stroke-opacity:1; fill:none" points="199.086,720.567 217.983,720.567 "/>
<polyline clip-path="url(#clip170)" style="stroke:#000000; stroke-linecap:round; stroke-linejoin:round; stroke-width:4; stroke-opacity:1; fill:none" points="199.086,500.521 217.983,500.521 "/>
<polyline clip-path="url(#clip170)" style="stroke:#000000; stroke-linecap:round; stroke-linejoin:round; stroke-width:4; stroke-opacity:1; fill:none" points="199.086,280.475 217.983,280.475 "/>
<polyline clip-path="url(#clip170)" style="stroke:#000000; stroke-linecap:round; stroke-linejoin:round; stroke-width:4; stroke-opacity:1; fill:none" points="199.086,60.4285 217.983,60.4285 "/>
<path clip-path="url(#clip170)" d="M119.165 1174 L135.484 1174 L135.484 1177.94 L113.54 1177.94 L113.54 1174 Q116.202 1171.25 120.785 1166.62 Q125.392 1161.97 126.572 1160.63 Q128.818 1158.1 129.697 1156.37 Q130.6 1154.61 130.6 1152.92 Q130.6 1150.16 128.656 1148.43 Q126.735 1146.69 123.633 1146.69 Q121.434 1146.69 118.98 1147.45 Q116.549 1148.22 113.772 1149.77 L113.772 1145.05 Q116.596 1143.91 119.049 1143.33 Q121.503 1142.75 123.54 1142.75 Q128.91 1142.75 132.105 1145.44 Q135.299 1148.13 135.299 1152.62 Q135.299 1154.75 134.489 1156.67 Q133.702 1158.56 131.596 1161.16 Q131.017 1161.83 127.915 1165.05 Q124.813 1168.24 119.165 1174 Z" fill="#000000" fill-rule="nonzero" fill-opacity="1" /><path clip-path="url(#clip170)" d="M155.878 1158.8 Q152.73 1158.8 150.878 1160.95 Q149.049 1163.1 149.049 1166.85 Q149.049 1170.58 150.878 1172.75 Q152.73 1174.91 155.878 1174.91 Q159.026 1174.91 160.855 1172.75 Q162.707 1170.58 162.707 1166.85 Q162.707 1163.1 160.855 1160.95 Q159.026 1158.8 155.878 1158.8 M165.16 1144.14 L165.16 1148.4 Q163.401 1147.57 161.595 1147.13 Q159.813 1146.69 158.054 1146.69 Q153.424 1146.69 150.971 1149.81 Q148.54 1152.94 148.193 1159.26 Q149.558 1157.25 151.619 1156.18 Q153.679 1155.09 156.156 1155.09 Q161.364 1155.09 164.373 1158.26 Q167.406 1161.41 167.406 1166.85 Q167.406 1172.18 164.257 1175.39 Q161.109 1178.61 155.878 1178.61 Q149.883 1178.61 146.711 1174.03 Q143.54 1169.42 143.54 1160.69 Q143.54 1152.5 147.429 1147.64 Q151.318 1142.75 157.869 1142.75 Q159.628 1142.75 161.41 1143.1 Q163.216 1143.45 165.16 1144.14 Z" fill="#000000" fill-rule="nonzero" fill-opacity="1" /><path clip-path="url(#clip170)" d="M120.23 953.958 L136.549 953.958 L136.549 957.893 L114.605 957.893 L114.605 953.958 Q117.267 951.204 121.85 946.574 Q126.457 941.921 127.637 940.579 Q129.883 938.056 130.762 936.32 Q131.665 934.56 131.665 932.87 Q131.665 930.116 129.721 928.38 Q127.799 926.644 124.698 926.644 Q122.498 926.644 120.045 927.408 Q117.614 928.171 114.836 929.722 L114.836 925 Q117.661 923.866 120.114 923.287 Q122.568 922.708 124.605 922.708 Q129.975 922.708 133.17 925.394 Q136.364 928.079 136.364 932.57 Q136.364 934.699 135.554 936.62 Q134.767 938.519 132.66 941.111 Q132.082 941.782 128.98 945 Q125.878 948.194 120.23 953.958 Z" fill="#000000" fill-rule="nonzero" fill-opacity="1" /><path clip-path="url(#clip170)" d="M145.184 923.333 L167.406 923.333 L167.406 925.324 L154.859 957.893 L149.975 957.893 L161.781 927.269 L145.184 927.269 L145.184 923.333 Z" fill="#000000" fill-rule="nonzero" fill-opacity="1" /><path clip-path="url(#clip170)" d="M119.42 733.912 L135.739 733.912 L135.739 737.847 L113.795 737.847 L113.795 733.912 Q116.457 731.157 121.04 726.528 Q125.647 721.875 126.827 720.533 Q129.072 718.009 129.952 716.273 Q130.855 714.514 130.855 712.824 Q130.855 710.07 128.91 708.334 Q126.989 706.597 123.887 706.597 Q121.688 706.597 119.235 707.361 Q116.804 708.125 114.026 709.676 L114.026 704.954 Q116.85 703.82 119.304 703.241 Q121.758 702.662 123.795 702.662 Q129.165 702.662 132.36 705.347 Q135.554 708.033 135.554 712.523 Q135.554 714.653 134.744 716.574 Q133.957 718.472 131.85 721.065 Q131.272 721.736 128.17 724.954 Q125.068 728.148 119.42 733.912 Z" fill="#000000" fill-rule="nonzero" fill-opacity="1" /><path clip-path="url(#clip170)" d="M155.554 721.435 Q152.221 721.435 150.299 723.218 Q148.401 725 148.401 728.125 Q148.401 731.25 150.299 733.032 Q152.221 734.815 155.554 734.815 Q158.887 734.815 160.808 733.032 Q162.73 731.227 162.73 728.125 Q162.73 725 160.808 723.218 Q158.91 721.435 155.554 721.435 M150.878 719.445 Q147.869 718.704 146.179 716.644 Q144.512 714.583 144.512 711.621 Q144.512 707.477 147.452 705.07 Q150.415 702.662 155.554 702.662 Q160.716 702.662 163.656 705.07 Q166.595 707.477 166.595 711.621 Q166.595 714.583 164.906 716.644 Q163.239 718.704 160.253 719.445 Q163.632 720.232 165.507 722.523 Q167.406 724.815 167.406 728.125 Q167.406 733.148 164.327 735.833 Q161.271 738.519 155.554 738.519 Q149.836 738.519 146.758 735.833 Q143.702 733.148 143.702 728.125 Q143.702 724.815 145.6 722.523 Q147.498 720.232 150.878 719.445 M149.165 712.06 Q149.165 714.746 150.832 716.25 Q152.521 717.755 155.554 717.755 Q158.563 717.755 160.253 716.25 Q161.966 714.746 161.966 712.06 Q161.966 709.375 160.253 707.871 Q158.563 706.366 155.554 706.366 Q152.521 706.366 150.832 707.871 Q149.165 709.375 149.165 712.06 Z" fill="#000000" fill-rule="nonzero" fill-opacity="1" /><path clip-path="url(#clip170)" d="M119.512 513.866 L135.832 513.866 L135.832 517.801 L113.887 517.801 L113.887 513.866 Q116.549 511.111 121.133 506.482 Q125.739 501.829 126.92 500.486 Q129.165 497.963 130.045 496.227 Q130.947 494.468 130.947 492.778 Q130.947 490.023 129.003 488.287 Q127.082 486.551 123.98 486.551 Q121.781 486.551 119.327 487.315 Q116.897 488.079 114.119 489.63 L114.119 484.908 Q116.943 483.773 119.397 483.195 Q121.85 482.616 123.887 482.616 Q129.258 482.616 132.452 485.301 Q135.647 487.986 135.647 492.477 Q135.647 494.607 134.836 496.528 Q134.049 498.426 131.943 501.019 Q131.364 501.69 128.262 504.908 Q125.16 508.102 119.512 513.866 Z" fill="#000000" fill-rule="nonzero" fill-opacity="1" /><path clip-path="url(#clip170)" d="M145.785 517.083 L145.785 512.824 Q147.545 513.657 149.35 514.097 Q151.156 514.537 152.892 514.537 Q157.521 514.537 159.952 511.435 Q162.406 508.31 162.753 501.968 Q161.41 503.958 159.35 505.023 Q157.29 506.088 154.79 506.088 Q149.605 506.088 146.572 502.963 Q143.563 499.815 143.563 494.375 Q143.563 489.051 146.711 485.834 Q149.859 482.616 155.091 482.616 Q161.086 482.616 164.234 487.222 Q167.406 491.806 167.406 500.556 Q167.406 508.727 163.517 513.611 Q159.651 518.472 153.1 518.472 Q151.341 518.472 149.535 518.125 Q147.73 517.778 145.785 517.083 M155.091 502.431 Q158.239 502.431 160.068 500.278 Q161.92 498.125 161.92 494.375 Q161.92 490.648 160.068 488.496 Q158.239 486.32 155.091 486.32 Q151.943 486.32 150.091 488.496 Q148.262 490.648 148.262 494.375 Q148.262 498.125 150.091 500.278 Q151.943 502.431 155.091 502.431 Z" fill="#000000" fill-rule="nonzero" fill-opacity="1" /><path clip-path="url(#clip170)" d="M129.466 279.121 Q132.822 279.838 134.697 282.107 Q136.596 284.375 136.596 287.708 Q136.596 292.824 133.077 295.625 Q129.559 298.426 123.077 298.426 Q120.901 298.426 118.586 297.986 Q116.295 297.57 113.841 296.713 L113.841 292.199 Q115.786 293.333 118.1 293.912 Q120.415 294.491 122.938 294.491 Q127.336 294.491 129.628 292.755 Q131.943 291.019 131.943 287.708 Q131.943 284.653 129.79 282.94 Q127.66 281.204 123.841 281.204 L119.813 281.204 L119.813 277.361 L124.026 277.361 Q127.475 277.361 129.304 275.996 Q131.133 274.607 131.133 272.014 Q131.133 269.352 129.235 267.94 Q127.36 266.505 123.841 266.505 Q121.92 266.505 119.721 266.922 Q117.522 267.338 114.883 268.218 L114.883 264.051 Q117.545 263.31 119.86 262.94 Q122.198 262.57 124.258 262.57 Q129.582 262.57 132.684 265 Q135.785 267.408 135.785 271.528 Q135.785 274.398 134.142 276.389 Q132.498 278.357 129.466 279.121 Z" fill="#000000" fill-rule="nonzero" fill-opacity="1" /><path clip-path="url(#clip170)" d="M155.461 266.273 Q151.85 266.273 150.021 269.838 Q148.216 273.38 148.216 280.509 Q148.216 287.616 150.021 291.181 Q151.85 294.722 155.461 294.722 Q159.095 294.722 160.901 291.181 Q162.73 287.616 162.73 280.509 Q162.73 273.38 160.901 269.838 Q159.095 266.273 155.461 266.273 M155.461 262.57 Q161.271 262.57 164.327 267.176 Q167.406 271.759 167.406 280.509 Q167.406 289.236 164.327 293.843 Q161.271 298.426 155.461 298.426 Q149.651 298.426 146.572 293.843 Q143.517 289.236 143.517 280.509 Q143.517 271.759 146.572 267.176 Q149.651 262.57 155.461 262.57 Z" fill="#000000" fill-rule="nonzero" fill-opacity="1" /><path clip-path="url(#clip170)" d="M130.693 59.0743 Q134.049 59.7919 135.924 62.0604 Q137.822 64.3289 137.822 67.6622 Q137.822 72.7779 134.304 75.5789 Q130.785 78.3798 124.304 78.3798 Q122.128 78.3798 119.813 77.94 Q117.522 77.5233 115.068 76.6668 L115.068 72.1529 Q117.012 73.2872 119.327 73.8659 Q121.642 74.4446 124.165 74.4446 Q128.563 74.4446 130.855 72.7085 Q133.17 70.9724 133.17 67.6622 Q133.17 64.6067 131.017 62.8937 Q128.887 61.1576 125.068 61.1576 L121.04 61.1576 L121.04 57.3151 L125.253 57.3151 Q128.702 57.3151 130.531 55.9493 Q132.36 54.5604 132.36 51.9679 Q132.36 49.3058 130.461 47.8938 Q128.586 46.4586 125.068 46.4586 Q123.147 46.4586 120.948 46.8753 Q118.748 47.292 116.11 48.1716 L116.11 44.0049 Q118.772 43.2642 121.086 42.8938 Q123.424 42.5235 125.485 42.5235 Q130.809 42.5235 133.91 44.954 Q137.012 47.3614 137.012 51.4818 Q137.012 54.3521 135.369 56.3428 Q133.725 58.3104 130.693 59.0743 Z" fill="#000000" fill-rule="nonzero" fill-opacity="1" /><path clip-path="url(#clip170)" d="M147.498 73.7733 L155.137 73.7733 L155.137 47.4077 L146.827 49.0744 L146.827 44.8151 L155.091 43.1485 L159.767 43.1485 L159.767 73.7733 L167.406 73.7733 L167.406 77.7085 L147.498 77.7085 L147.498 73.7733 Z" fill="#000000" fill-rule="nonzero" fill-opacity="1" /><path clip-path="url(#clip170)" d="M26.418 1161.44 L50.0666 1170.16 L50.0666 1152.68 L26.418 1161.44 M20.0842 1165.07 L20.0842 1157.78 L67.6042 1139.67 L67.6042 1146.35 L55.4138 1150.68 L55.4138 1172.1 L67.6042 1176.43 L67.6042 1183.21 L20.0842 1165.07 Z" fill="#000000" fill-rule="nonzero" fill-opacity="1" /><path clip-path="url(#clip170)" d="M46.0881 1103.35 L67.6042 1103.35 L67.6042 1109.21 L46.279 1109.21 Q41.2183 1109.21 38.7038 1111.18 Q36.1894 1113.15 36.1894 1117.1 Q36.1894 1121.84 39.2131 1124.58 Q42.2368 1127.32 47.4567 1127.32 L67.6042 1127.32 L67.6042 1133.2 L31.9562 1133.2 L31.9562 1127.32 L37.4944 1127.32 Q34.2797 1125.22 32.6883 1122.38 Q31.0968 1119.52 31.0968 1115.79 Q31.0968 1109.65 34.9163 1106.5 Q38.7038 1103.35 46.0881 1103.35 Z" fill="#000000" fill-rule="nonzero" fill-opacity="1" /><path clip-path="url(#clip170)" d="M46.0881 1062.04 L67.6042 1062.04 L67.6042 1067.89 L46.279 1067.89 Q41.2183 1067.89 38.7038 1069.87 Q36.1894 1071.84 36.1894 1075.79 Q36.1894 1080.53 39.2131 1083.27 Q42.2368 1086 47.4567 1086 L67.6042 1086 L67.6042 1091.89 L31.9562 1091.89 L31.9562 1086 L37.4944 1086 Q34.2797 1083.9 32.6883 1081.07 Q31.0968 1078.21 31.0968 1074.48 Q31.0968 1068.34 34.9163 1065.19 Q38.7038 1062.04 46.0881 1062.04 Z" fill="#000000" fill-rule="nonzero" fill-opacity="1" /><path clip-path="url(#clip170)" d="M53.5359 1050.96 L31.9562 1050.96 L31.9562 1045.1 L53.3131 1045.1 Q58.3739 1045.1 60.9202 1043.13 Q63.4346 1041.16 63.4346 1037.21 Q63.4346 1032.47 60.4109 1029.73 Q57.3872 1026.96 52.1673 1026.96 L31.9562 1026.96 L31.9562 1021.1 L67.6042 1021.1 L67.6042 1026.96 L62.1296 1026.96 Q65.3762 1029.09 66.9676 1031.93 Q68.5272 1034.73 68.5272 1038.45 Q68.5272 1044.59 64.7078 1047.78 Q60.8883 1050.96 53.5359 1050.96 M31.0968 1036.22 L31.0968 1036.22 Z" fill="#000000" fill-rule="nonzero" fill-opacity="1" /><path clip-path="url(#clip170)" d="M49.6847 992.841 Q49.6847 999.939 51.3079 1002.68 Q52.9312 1005.41 56.8461 1005.41 Q59.9653 1005.41 61.8114 1003.38 Q63.6256 1001.31 63.6256 997.774 Q63.6256 992.905 60.1881 989.976 Q56.7188 987.016 50.9897 987.016 L49.6847 987.016 L49.6847 992.841 M47.2657 981.16 L67.6042 981.16 L67.6042 987.016 L62.1933 987.016 Q65.4398 989.021 66.9994 992.013 Q68.5272 995.005 68.5272 999.334 Q68.5272 1004.81 65.4716 1008.05 Q62.3843 1011.27 57.2281 1011.27 Q51.2125 1011.27 48.1569 1007.26 Q45.1014 1003.22 45.1014 995.228 L45.1014 987.016 L44.5285 987.016 Q40.4862 987.016 38.2901 989.69 Q36.0621 992.332 36.0621 997.138 Q36.0621 1000.19 36.7941 1003.09 Q37.5262 1005.99 38.9903 1008.66 L33.5795 1008.66 Q32.3381 1005.45 31.7334 1002.42 Q31.0968 999.398 31.0968 996.533 Q31.0968 988.799 35.1072 984.979 Q39.1176 981.16 47.2657 981.16 Z" fill="#000000" fill-rule="nonzero" fill-opacity="1" /><path clip-path="url(#clip170)" d="M18.079 969.097 L18.079 963.24 L67.6042 963.24 L67.6042 969.097 L18.079 969.097 Z" fill="#000000" fill-rule="nonzero" fill-opacity="1" /><path clip-path="url(#clip170)" d="M20.0842 930.011 L20.0842 920.431 L52.4219 908.304 L20.0842 896.114 L20.0842 886.534 L67.6042 886.534 L67.6042 892.804 L25.877 892.804 L58.4694 905.058 L58.4694 911.519 L25.877 923.773 L67.6042 923.773 L67.6042 930.011 L20.0842 930.011 Z" fill="#000000" fill-rule="nonzero" fill-opacity="1" /><path clip-path="url(#clip170)" d="M49.6847 857.824 Q49.6847 864.922 51.3079 867.659 Q52.9312 870.397 56.8461 870.397 Q59.9653 870.397 61.8114 868.36 Q63.6256 866.291 63.6256 862.758 Q63.6256 857.888 60.1881 854.96 Q56.7188 852 50.9897 852 L49.6847 852 L49.6847 857.824 M47.2657 846.143 L67.6042 846.143 L67.6042 852 L62.1933 852 Q65.4398 854.005 66.9994 856.997 Q68.5272 859.989 68.5272 864.317 Q68.5272 869.792 65.4716 873.038 Q62.3843 876.253 57.2281 876.253 Q51.2125 876.253 48.1569 872.243 Q45.1014 868.2 45.1014 860.211 L45.1014 852 L44.5285 852 Q40.4862 852 38.2901 854.673 Q36.0621 857.315 36.0621 862.121 Q36.0621 865.177 36.7941 868.073 Q37.5262 870.969 38.9903 873.643 L33.5795 873.643 Q32.3381 870.428 31.7334 867.405 Q31.0968 864.381 31.0968 861.516 Q31.0968 853.782 35.1072 849.963 Q39.1176 846.143 47.2657 846.143 Z" fill="#000000" fill-rule="nonzero" fill-opacity="1" /><path clip-path="url(#clip170)" d="M31.9562 804.448 L49.3028 817.338 L67.6042 803.779 L67.6042 810.686 L53.5996 821.062 L67.6042 831.438 L67.6042 838.345 L48.9526 824.5 L31.9562 837.168 L31.9562 830.261 L44.6558 820.808 L31.9562 811.355 L31.9562 804.448 Z" fill="#000000" fill-rule="nonzero" fill-opacity="1" /><path clip-path="url(#clip170)" d="M31.9562 795.504 L31.9562 789.648 L67.6042 789.648 L67.6042 795.504 L31.9562 795.504 M18.079 795.504 L18.079 789.648 L25.495 789.648 L25.495 795.504 L18.079 795.504 Z" fill="#000000" fill-rule="nonzero" fill-opacity="1" /><path clip-path="url(#clip170)" d="M38.7993 749.639 Q34.8526 747.443 32.9747 744.387 Q31.0968 741.332 31.0968 737.194 Q31.0968 731.624 35.0117 728.6 Q38.8948 725.577 46.0881 725.577 L67.6042 725.577 L67.6042 731.465 L46.279 731.465 Q41.1546 731.465 38.672 733.279 Q36.1894 735.093 36.1894 738.817 Q36.1894 743.369 39.2131 746.011 Q42.2368 748.652 47.4567 748.652 L67.6042 748.652 L67.6042 754.541 L46.279 754.541 Q41.1228 754.541 38.672 756.355 Q36.1894 758.169 36.1894 761.957 Q36.1894 766.445 39.2449 769.086 Q42.2686 771.728 47.4567 771.728 L67.6042 771.728 L67.6042 777.616 L31.9562 777.616 L31.9562 771.728 L37.4944 771.728 Q34.216 769.723 32.6564 766.922 Q31.0968 764.121 31.0968 760.27 Q31.0968 756.387 33.0702 753.681 Q35.0436 750.944 38.7993 749.639 Z" fill="#000000" fill-rule="nonzero" fill-opacity="1" /><path clip-path="url(#clip170)" d="M53.5359 714.5 L31.9562 714.5 L31.9562 708.644 L53.3131 708.644 Q58.3739 708.644 60.9202 706.671 Q63.4346 704.697 63.4346 700.75 Q63.4346 696.008 60.4109 693.271 Q57.3872 690.502 52.1673 690.502 L31.9562 690.502 L31.9562 684.645 L67.6042 684.645 L67.6042 690.502 L62.1296 690.502 Q65.3762 692.634 66.9676 695.467 Q68.5272 698.268 68.5272 701.992 Q68.5272 708.135 64.7078 711.318 Q60.8883 714.5 53.5359 714.5 M31.0968 699.764 L31.0968 699.764 Z" fill="#000000" fill-rule="nonzero" fill-opacity="1" /><path clip-path="url(#clip170)" d="M38.7993 644.828 Q34.8526 642.632 32.9747 639.576 Q31.0968 636.52 31.0968 632.383 Q31.0968 626.813 35.0117 623.789 Q38.8948 620.765 46.0881 620.765 L67.6042 620.765 L67.6042 626.654 L46.279 626.654 Q41.1546 626.654 38.672 628.468 Q36.1894 630.282 36.1894 634.006 Q36.1894 638.558 39.2131 641.199 Q42.2368 643.841 47.4567 643.841 L67.6042 643.841 L67.6042 649.729 L46.279 649.729 Q41.1228 649.729 38.672 651.544 Q36.1894 653.358 36.1894 657.145 Q36.1894 661.633 39.2449 664.275 Q42.2686 666.917 47.4567 666.917 L67.6042 666.917 L67.6042 672.805 L31.9562 672.805 L31.9562 666.917 L37.4944 666.917 Q34.216 664.912 32.6564 662.111 Q31.0968 659.31 31.0968 655.458 Q31.0968 651.575 33.0702 648.87 Q35.0436 646.133 38.7993 644.828 Z" fill="#000000" fill-rule="nonzero" fill-opacity="1" /><path clip-path="url(#clip170)" d="M20.0842 594.698 L20.0842 554.498 L25.495 554.498 L25.495 571.367 L67.6042 571.367 L67.6042 577.829 L25.495 577.829 L25.495 594.698 L20.0842 594.698 Z" fill="#000000" fill-rule="nonzero" fill-opacity="1" /><path clip-path="url(#clip170)" d="M48.3161 529.131 L51.1806 529.131 L51.1806 556.058 Q57.2281 555.676 60.4109 552.429 Q63.5619 549.151 63.5619 543.327 Q63.5619 539.953 62.7344 536.802 Q61.9069 533.619 60.2518 530.5 L65.7899 530.5 Q67.1267 533.651 67.827 536.961 Q68.5272 540.271 68.5272 543.677 Q68.5272 552.207 63.5619 557.204 Q58.5967 562.169 50.1303 562.169 Q41.3774 562.169 36.2531 557.458 Q31.0968 552.716 31.0968 544.695 Q31.0968 537.502 35.7438 533.332 Q40.3589 529.131 48.3161 529.131 M46.5973 534.987 Q41.7912 535.051 38.9266 537.693 Q36.0621 540.303 36.0621 544.632 Q36.0621 549.533 38.8312 552.493 Q41.6002 555.421 46.6292 555.867 L46.5973 534.987 Z" fill="#000000" fill-rule="nonzero" fill-opacity="1" /><path clip-path="url(#clip170)" d="M38.7993 491.764 Q34.8526 489.568 32.9747 486.513 Q31.0968 483.457 31.0968 479.319 Q31.0968 473.749 35.0117 470.726 Q38.8948 467.702 46.0881 467.702 L67.6042 467.702 L67.6042 473.59 L46.279 473.59 Q41.1546 473.59 38.672 475.404 Q36.1894 477.219 36.1894 480.943 Q36.1894 485.494 39.2131 488.136 Q42.2368 490.778 47.4567 490.778 L67.6042 490.778 L67.6042 496.666 L46.279 496.666 Q41.1228 496.666 38.672 498.48 Q36.1894 500.294 36.1894 504.082 Q36.1894 508.57 39.2449 511.212 Q42.2686 513.853 47.4567 513.853 L67.6042 513.853 L67.6042 519.742 L31.9562 519.742 L31.9562 513.853 L37.4944 513.853 Q34.216 511.848 32.6564 509.047 Q31.0968 506.246 31.0968 502.395 Q31.0968 498.512 33.0702 495.807 Q35.0436 493.069 38.7993 491.764 Z" fill="#000000" fill-rule="nonzero" fill-opacity="1" /><path clip-path="url(#clip170)" d="M62.257 450.355 L81.1631 450.355 L81.1631 456.244 L31.9562 456.244 L31.9562 450.355 L37.3671 450.355 Q34.1842 448.509 32.6564 445.708 Q31.0968 442.876 31.0968 438.961 Q31.0968 432.468 36.2531 428.426 Q41.4093 424.351 49.812 424.351 Q58.2147 424.351 63.371 428.426 Q68.5272 432.468 68.5272 438.961 Q68.5272 442.876 66.9994 445.708 Q65.4398 448.509 62.257 450.355 M49.812 430.431 Q43.3508 430.431 39.6905 433.104 Q35.9984 435.746 35.9984 440.393 Q35.9984 445.04 39.6905 447.714 Q43.3508 450.355 49.812 450.355 Q56.2732 450.355 59.9653 447.714 Q63.6256 445.04 63.6256 440.393 Q63.6256 435.746 59.9653 433.104 Q56.2732 430.431 49.812 430.431 Z" fill="#000000" fill-rule="nonzero" fill-opacity="1" /><path clip-path="url(#clip170)" d="M48.3161 384.152 L51.1806 384.152 L51.1806 411.079 Q57.2281 410.697 60.4109 407.451 Q63.5619 404.172 63.5619 398.348 Q63.5619 394.974 62.7344 391.823 Q61.9069 388.64 60.2518 385.521 L65.7899 385.521 Q67.1267 388.672 67.827 391.982 Q68.5272 395.292 68.5272 398.698 Q68.5272 407.228 63.5619 412.225 Q58.5967 417.19 50.1303 417.19 Q41.3774 417.19 36.2531 412.479 Q31.0968 407.737 31.0968 399.716 Q31.0968 392.523 35.7438 388.353 Q40.3589 384.152 48.3161 384.152 M46.5973 390.008 Q41.7912 390.072 38.9266 392.714 Q36.0621 395.324 36.0621 399.653 Q36.0621 404.554 38.8312 407.514 Q41.6002 410.442 46.6292 410.888 L46.5973 390.008 Z" fill="#000000" fill-rule="nonzero" fill-opacity="1" /><path clip-path="url(#clip170)" d="M37.4307 353.883 Q36.8578 354.87 36.6032 356.047 Q36.3167 357.193 36.3167 358.594 Q36.3167 363.559 39.5632 366.233 Q42.7779 368.874 48.8253 368.874 L67.6042 368.874 L67.6042 374.763 L31.9562 374.763 L31.9562 368.874 L37.4944 368.874 Q34.2479 367.028 32.6883 364.068 Q31.0968 361.108 31.0968 356.875 Q31.0968 356.27 31.1923 355.538 Q31.256 354.806 31.4151 353.915 L37.4307 353.883 Z" fill="#000000" fill-rule="nonzero" fill-opacity="1" /><path clip-path="url(#clip170)" d="M49.6847 331.539 Q49.6847 338.637 51.3079 341.374 Q52.9312 344.112 56.8461 344.112 Q59.9653 344.112 61.8114 342.075 Q63.6256 340.006 63.6256 336.473 Q63.6256 331.603 60.1881 328.675 Q56.7188 325.715 50.9897 325.715 L49.6847 325.715 L49.6847 331.539 M47.2657 319.858 L67.6042 319.858 L67.6042 325.715 L62.1933 325.715 Q65.4398 327.72 66.9994 330.712 Q68.5272 333.704 68.5272 338.032 Q68.5272 343.507 65.4716 346.754 Q62.3843 349.968 57.2281 349.968 Q51.2125 349.968 48.1569 345.958 Q45.1014 341.916 45.1014 333.927 L45.1014 325.715 L44.5285 325.715 Q40.4862 325.715 38.2901 328.388 Q36.0621 331.03 36.0621 335.836 Q36.0621 338.892 36.7941 341.788 Q37.5262 344.685 38.9903 347.358 L33.5795 347.358 Q32.3381 344.144 31.7334 341.12 Q31.0968 338.096 31.0968 335.232 Q31.0968 327.497 35.1072 323.678 Q39.1176 319.858 47.2657 319.858 Z" fill="#000000" fill-rule="nonzero" fill-opacity="1" /><path clip-path="url(#clip170)" d="M21.8347 302.003 L31.9562 302.003 L31.9562 289.94 L36.5077 289.94 L36.5077 302.003 L55.8594 302.003 Q60.2199 302.003 61.4613 300.825 Q62.7026 299.615 62.7026 295.955 L62.7026 289.94 L67.6042 289.94 L67.6042 295.955 Q67.6042 302.735 65.0897 305.313 Q62.5434 307.891 55.8594 307.891 L36.5077 307.891 L36.5077 312.188 L31.9562 312.188 L31.9562 307.891 L21.8347 307.891 L21.8347 302.003 Z" fill="#000000" fill-rule="nonzero" fill-opacity="1" /><path clip-path="url(#clip170)" d="M53.5359 282.842 L31.9562 282.842 L31.9562 276.985 L53.3131 276.985 Q58.3739 276.985 60.9202 275.012 Q63.4346 273.039 63.4346 269.092 Q63.4346 264.349 60.4109 261.612 Q57.3872 258.843 52.1673 258.843 L31.9562 258.843 L31.9562 252.987 L67.6042 252.987 L67.6042 258.843 L62.1296 258.843 Q65.3762 260.976 66.9676 263.808 Q68.5272 266.609 68.5272 270.333 Q68.5272 276.476 64.7078 279.659 Q60.8883 282.842 53.5359 282.842 M31.0968 268.105 L31.0968 268.105 Z" fill="#000000" fill-rule="nonzero" fill-opacity="1" /><path clip-path="url(#clip170)" d="M37.4307 220.267 Q36.8578 221.254 36.6032 222.431 Q36.3167 223.577 36.3167 224.978 Q36.3167 229.943 39.5632 232.616 Q42.7779 235.258 48.8253 235.258 L67.6042 235.258 L67.6042 241.146 L31.9562 241.146 L31.9562 235.258 L37.4944 235.258 Q34.2479 233.412 32.6883 230.452 Q31.0968 227.492 31.0968 223.259 Q31.0968 222.654 31.1923 221.922 Q31.256 221.19 31.4151 220.299 L37.4307 220.267 Z" fill="#000000" fill-rule="nonzero" fill-opacity="1" /><path clip-path="url(#clip170)" d="M48.3161 185.065 L51.1806 185.065 L51.1806 211.992 Q57.2281 211.61 60.4109 208.363 Q63.5619 205.085 63.5619 199.26 Q63.5619 195.886 62.7344 192.735 Q61.9069 189.552 60.2518 186.433 L65.7899 186.433 Q67.1267 189.584 67.827 192.894 Q68.5272 196.205 68.5272 199.61 Q68.5272 208.14 63.5619 213.137 Q58.5967 218.103 50.1303 218.103 Q41.3774 218.103 36.2531 213.392 Q31.0968 208.65 31.0968 200.629 Q31.0968 193.435 35.7438 189.266 Q40.3589 185.065 48.3161 185.065 M46.5973 190.921 Q41.7912 190.985 38.9266 193.626 Q36.0621 196.236 36.0621 200.565 Q36.0621 205.467 38.8312 208.427 Q41.6002 211.355 46.6292 211.801 L46.5973 190.921 Z" fill="#000000" fill-rule="nonzero" fill-opacity="1" /><path clip-path="url(#clip170)" d="M18.1426 140.664 Q25.4632 144.929 32.6246 146.998 Q39.786 149.066 47.1384 149.066 Q54.4908 149.066 61.7159 146.998 Q68.9091 144.897 76.1979 140.664 L76.1979 145.756 Q68.7182 150.531 61.4931 152.918 Q54.268 155.273 47.1384 155.273 Q40.0406 155.273 32.8474 152.918 Q25.6542 150.562 18.1426 145.756 L18.1426 140.664 Z" fill="#000000" fill-rule="nonzero" fill-opacity="1" /><path clip-path="url(#clip170)" d="M23.3307 119.148 Q23.3307 121.694 25.1131 123.445 Q26.8636 125.195 29.4099 125.195 Q31.9244 125.195 33.6749 123.445 Q35.3937 121.694 35.3937 119.148 Q35.3937 116.601 33.6749 114.851 Q31.9244 113.1 29.4099 113.1 Q26.8955 113.1 25.1131 114.883 Q23.3307 116.633 23.3307 119.148 M19.2248 119.148 Q19.2248 117.111 20.0205 115.233 Q20.7844 113.355 22.2485 111.986 Q23.6808 110.522 25.495 109.79 Q27.3092 109.058 29.4099 109.058 Q33.6113 109.058 36.5395 112.018 Q39.4359 114.946 39.4359 119.211 Q39.4359 123.508 36.5713 126.373 Q33.7068 129.237 29.4099 129.237 Q25.1449 129.237 22.1848 126.309 Q19.2248 123.381 19.2248 119.148 Z" fill="#000000" fill-rule="nonzero" fill-opacity="1" /><path clip-path="url(#clip170)" d="M23.7444 60.8696 L30.5239 60.8696 Q27.5002 64.1161 26.0043 67.8082 Q24.5083 71.4685 24.5083 75.6062 Q24.5083 83.7543 29.5054 88.083 Q34.4707 92.4117 43.8919 92.4117 Q53.2813 92.4117 58.2784 88.083 Q63.2436 83.7543 63.2436 75.6062 Q63.2436 71.4685 61.7477 67.8082 Q60.2518 64.1161 57.2281 60.8696 L63.9439 60.8696 Q66.2355 64.2435 67.3814 68.031 Q68.5272 71.7868 68.5272 75.9882 Q68.5272 86.7781 61.9387 92.9846 Q55.3183 99.1912 43.8919 99.1912 Q32.4336 99.1912 25.8451 92.9846 Q19.2248 86.7781 19.2248 75.9882 Q19.2248 71.7232 20.3706 67.9674 Q21.4846 64.1798 23.7444 60.8696 Z" fill="#000000" fill-rule="nonzero" fill-opacity="1" /><path clip-path="url(#clip170)" d="M18.1426 52.1168 L18.1426 47.0242 Q25.6542 42.2499 32.8474 39.8946 Q40.0406 37.5075 47.1384 37.5075 Q54.268 37.5075 61.4931 39.8946 Q68.7182 42.2499 76.1979 47.0242 L76.1979 52.1168 Q68.9091 47.8836 61.7159 45.8147 Q54.4908 43.714 47.1384 43.714 Q39.786 43.714 32.6246 45.8147 Q25.4632 47.8836 18.1426 52.1168 Z" fill="#000000" fill-rule="nonzero" fill-opacity="1" /><polyline clip-path="url(#clip171)" style="stroke:#009af9; stroke-linecap:round; stroke-linejoin:round; stroke-width:8; stroke-opacity:1; fill:none" points="251.888,901.257 262.62,739.324 273.352,825.266 284.084,559.059 294.816,388.169 305.548,805.033 316.28,834.715 327.012,705.674 337.744,703.693 348.477,783.618 359.209,337.019 369.941,386.141 380.673,345.923 391.405,543.722 402.137,244.872 412.869,704.197 423.601,974.977 434.333,213.411 445.066,692.552 455.798,594.2 466.53,683.97 477.262,1034.27 487.994,785.257 498.726,703.505 509.458,819.431 520.19,825.119 530.923,398.262 541.655,732.696 552.387,769.899 563.119,374.45 573.851,433.967 584.583,688.402 595.315,814.119 606.047,931.677 616.779,1005.44 627.512,635.083 638.244,82.1873 648.976,813.354 659.708,442.355 670.44,742.212 681.172,944.208 691.904,973.298 702.636,1006.32 713.368,296.27 724.101,499.005 734.833,879.566 745.565,668.989 756.297,605.072 767.029,579.883 777.761,758.295 788.493,520.984 799.225,652.503 809.957,585.121 820.69,902.076 831.422,528.666 842.154,678.981 852.886,634.526 863.618,969.155 874.35,836.864 885.082,825.609 895.814,836.562 906.546,763.231 917.279,781.449 928.011,926.029 938.743,901.27 949.475,998.077 960.207,942.784 970.939,415.097 981.671,706.379 992.403,660.353 1003.14,543.279 1013.87,650.293 1024.6,1004.46 1035.33,591.991 1046.06,1081.41 1056.8,708.535 1067.53,623.244 1078.26,295.747 1088.99,694.104 1099.72,989.186 1110.46,1044.33 1121.19,79.1184 1131.92,282.88 1142.65,265.77 1153.38,634.506 1164.12,693.721 1174.85,732.092 1185.58,686.824 1196.31,601.829 1207.05,438.299 1217.78,235.376 1228.51,755.401 1239.24,947.673 1249.97,909.187 1260.71,1002.49 1271.44,791.663 1282.17,1123.03 1292.9,507.157 1303.63,1005.34 1314.37,274.217 1325.1,520.413 1335.83,518.459 1346.56,306.075 1357.3,696.689 1368.03,649.131 1378.76,591.534 1389.49,614.165 1400.22,410.37 1410.96,948.875 1421.69,482.942 1432.42,1141.6 1443.15,924.673 1453.88,715.109 1464.62,1088.23 1475.35,1036.05 1486.08,1123.73 1496.81,716.889 1507.54,820.982 1518.28,748.363 1529.01,579.266 1539.74,1037.5 1550.47,753.178 1561.21,847.131 1571.94,316.329 1582.67,865.276 1593.4,724.329 1604.13,726.169 1614.87,636.131 1625.6,691.364 1636.33,942.267 1647.06,480.887 1657.79,936.834 1668.53,939.507 1679.26,613.138 1689.99,346.104 1700.72,632.222 1711.45,589.258 1722.19,561.604 1732.92,564.317 1743.65,630.45 1754.38,513.953 1765.12,765.131 1775.85,926.687 1786.58,785.378 1797.31,929.353 1808.04,356.775 1818.78,651.583 1829.51,774.284 1840.24,621.041 1850.97,782.96 1861.7,372.677 1872.44,181.083 1883.17,539.384 1893.9,401.344 1904.63,463.179 1915.36,552.324 1926.1,520.433 1936.83,456.181 1947.56,448.136 1958.29,320.835 1969.03,357.272 1979.76,377.653 1990.49,764.211 2001.22,233.959 2011.95,236.491 "/>
<path clip-path="url(#clip171)" d="M251.888 913.257 L243.404 909.741 L239.888 901.257 L243.404 892.773 L251.888 889.257 L260.372 892.773 L263.888 901.257 L260.372 909.741 Z" fill="#009af9" fill-rule="evenodd" fill-opacity="1" stroke="#000000" stroke-opacity="1" stroke-width="2.688"/>
<path clip-path="url(#clip171)" d="M262.62 751.324 L254.136 747.808 L250.62 739.324 L254.136 730.84 L262.62 727.324 L271.104 730.84 L274.62 739.324 L271.104 747.808 Z" fill="#009af9" fill-rule="evenodd" fill-opacity="1" stroke="#000000" stroke-opacity="1" stroke-width="2.688"/>
<path clip-path="url(#clip171)" d="M273.352 837.266 L264.868 833.75 L261.352 825.266 L264.868 816.782 L273.352 813.266 L281.836 816.782 L285.352 825.266 L281.836 833.75 Z" fill="#009af9" fill-rule="evenodd" fill-opacity="1" stroke="#000000" stroke-opacity="1" stroke-width="2.688"/>
<path clip-path="url(#clip171)" d="M284.084 571.059 L275.6 567.543 L272.084 559.059 L275.6 550.575 L284.084 547.059 L292.568 550.575 L296.084 559.059 L292.568 567.543 Z" fill="#009af9" fill-rule="evenodd" fill-opacity="1" stroke="#000000" stroke-opacity="1" stroke-width="2.688"/>
<path clip-path="url(#clip171)" d="M294.816 400.169 L286.332 396.653 L282.816 388.169 L286.332 379.685 L294.816 376.169 L303.3 379.685 L306.816 388.169 L303.3 396.653 Z" fill="#009af9" fill-rule="evenodd" fill-opacity="1" stroke="#000000" stroke-opacity="1" stroke-width="2.688"/>
<path clip-path="url(#clip171)" d="M305.548 817.033 L297.064 813.517 L293.548 805.033 L297.064 796.549 L305.548 793.033 L314.032 796.549 L317.548 805.033 L314.032 813.517 Z" fill="#009af9" fill-rule="evenodd" fill-opacity="1" stroke="#000000" stroke-opacity="1" stroke-width="2.688"/>
<path clip-path="url(#clip171)" d="M316.28 846.715 L307.796 843.199 L304.28 834.715 L307.796 826.231 L316.28 822.715 L324.764 826.231 L328.28 834.715 L324.764 843.199 Z" fill="#009af9" fill-rule="evenodd" fill-opacity="1" stroke="#000000" stroke-opacity="1" stroke-width="2.688"/>
<path clip-path="url(#clip171)" d="M327.012 717.674 L318.528 714.158 L315.012 705.674 L318.528 697.19 L327.012 693.674 L335.496 697.19 L339.012 705.674 L335.496 714.158 Z" fill="#009af9" fill-rule="evenodd" fill-opacity="1" stroke="#000000" stroke-opacity="1" stroke-width="2.688"/>
<path clip-path="url(#clip171)" d="M337.744 715.693 L329.26 712.177 L325.744 703.693 L329.26 695.209 L337.744 691.693 L346.228 695.209 L349.744 703.693 L346.228 712.177 Z" fill="#009af9" fill-rule="evenodd" fill-opacity="1" stroke="#000000" stroke-opacity="1" stroke-width="2.688"/>
<path clip-path="url(#clip171)" d="M348.477 795.618 L339.993 792.102 L336.477 783.618 L339.993 775.134 L348.477 771.618 L356.961 775.134 L360.477 783.618 L356.961 792.102 Z" fill="#009af9" fill-rule="evenodd" fill-opacity="1" stroke="#000000" stroke-opacity="1" stroke-width="2.688"/>
<path clip-path="url(#clip171)" d="M359.209 349.019 L350.725 345.503 L347.209 337.019 L350.725 328.535 L359.209 325.019 L367.693 328.535 L371.209 337.019 L367.693 345.503 Z" fill="#009af9" fill-rule="evenodd" fill-opacity="1" stroke="#000000" stroke-opacity="1" stroke-width="2.688"/>
<path clip-path="url(#clip171)" d="M369.941 398.141 L361.457 394.625 L357.941 386.141 L361.457 377.657 L369.941 374.141 L378.425 377.657 L381.941 386.141 L378.425 394.625 Z" fill="#009af9" fill-rule="evenodd" fill-opacity="1" stroke="#000000" stroke-opacity="1" stroke-width="2.688"/>
<path clip-path="url(#clip171)" d="M380.673 357.923 L372.189 354.407 L368.673 345.923 L372.189 337.439 L380.673 333.923 L389.157 337.439 L392.673 345.923 L389.157 354.407 Z" fill="#009af9" fill-rule="evenodd" fill-opacity="1" stroke="#000000" stroke-opacity="1" stroke-width="2.688"/>
<path clip-path="url(#clip171)" d="M391.405 555.722 L382.921 552.206 L379.405 543.722 L382.921 535.238 L391.405 531.722 L399.889 535.238 L403.405 543.722 L399.889 552.206 Z" fill="#009af9" fill-rule="evenodd" fill-opacity="1" stroke="#000000" stroke-opacity="1" stroke-width="2.688"/>
<path clip-path="url(#clip171)" d="M402.137 256.872 L393.653 253.356 L390.137 244.872 L393.653 236.388 L402.137 232.872 L410.621 236.388 L414.137 244.872 L410.621 253.356 Z" fill="#009af9" fill-rule="evenodd" fill-opacity="1" stroke="#000000" stroke-opacity="1" stroke-width="2.688"/>
<path clip-path="url(#clip171)" d="M412.869 716.197 L404.385 712.681 L400.869 704.197 L404.385 695.713 L412.869 692.197 L421.353 695.713 L424.869 704.197 L421.353 712.681 Z" fill="#009af9" fill-rule="evenodd" fill-opacity="1" stroke="#000000" stroke-opacity="1" stroke-width="2.688"/>
<path clip-path="url(#clip171)" d="M423.601 986.977 L415.117 983.461 L411.601 974.977 L415.117 966.493 L423.601 962.977 L432.085 966.493 L435.601 974.977 L432.085 983.461 Z" fill="#009af9" fill-rule="evenodd" fill-opacity="1" stroke="#000000" stroke-opacity="1" stroke-width="2.688"/>
<path clip-path="url(#clip171)" d="M434.333 225.411 L425.849 221.895 L422.333 213.411 L425.849 204.927 L434.333 201.411 L442.817 204.927 L446.333 213.411 L442.817 221.895 Z" fill="#009af9" fill-rule="evenodd" fill-opacity="1" stroke="#000000" stroke-opacity="1" stroke-width="2.688"/>
<path clip-path="url(#clip171)" d="M445.066 704.552 L436.582 701.036 L433.066 692.552 L436.582 684.068 L445.066 680.552 L453.55 684.068 L457.066 692.552 L453.55 701.036 Z" fill="#009af9" fill-rule="evenodd" fill-opacity="1" stroke="#000000" stroke-opacity="1" stroke-width="2.688"/>
<path clip-path="url(#clip171)" d="M455.798 606.2 L447.314 602.684 L443.798 594.2 L447.314 585.716 L455.798 582.2 L464.282 585.716 L467.798 594.2 L464.282 602.684 Z" fill="#009af9" fill-rule="evenodd" fill-opacity="1" stroke="#000000" stroke-opacity="1" stroke-width="2.688"/>
<path clip-path="url(#clip171)" d="M466.53 695.97 L458.046 692.454 L454.53 683.97 L458.046 675.486 L466.53 671.97 L475.014 675.486 L478.53 683.97 L475.014 692.454 Z" fill="#009af9" fill-rule="evenodd" fill-opacity="1" stroke="#000000" stroke-opacity="1" stroke-width="2.688"/>
<path clip-path="url(#clip171)" d="M477.262 1046.27 L468.778 1042.75 L465.262 1034.27 L468.778 1025.78 L477.262 1022.27 L485.746 1025.78 L489.262 1034.27 L485.746 1042.75 Z" fill="#009af9" fill-rule="evenodd" fill-opacity="1" stroke="#000000" stroke-opacity="1" stroke-width="2.688"/>
<path clip-path="url(#clip171)" d="M487.994 797.257 L479.51 793.741 L475.994 785.257 L479.51 776.773 L487.994 773.257 L496.478 776.773 L499.994 785.257 L496.478 793.741 Z" fill="#009af9" fill-rule="evenodd" fill-opacity="1" stroke="#000000" stroke-opacity="1" stroke-width="2.688"/>
<path clip-path="url(#clip171)" d="M498.726 715.505 L490.242 711.989 L486.726 703.505 L490.242 695.021 L498.726 691.505 L507.21 695.021 L510.726 703.505 L507.21 711.989 Z" fill="#009af9" fill-rule="evenodd" fill-opacity="1" stroke="#000000" stroke-opacity="1" stroke-width="2.688"/>
<path clip-path="url(#clip171)" d="M509.458 831.431 L500.974 827.915 L497.458 819.431 L500.974 810.947 L509.458 807.431 L517.942 810.947 L521.458 819.431 L517.942 827.915 Z" fill="#009af9" fill-rule="evenodd" fill-opacity="1" stroke="#000000" stroke-opacity="1" stroke-width="2.688"/>
<path clip-path="url(#clip171)" d="M520.19 837.119 L511.706 833.603 L508.19 825.119 L511.706 816.635 L520.19 813.119 L528.674 816.635 L532.19 825.119 L528.674 833.603 Z" fill="#009af9" fill-rule="evenodd" fill-opacity="1" stroke="#000000" stroke-opacity="1" stroke-width="2.688"/>
<path clip-path="url(#clip171)" d="M530.923 410.262 L522.439 406.746 L518.923 398.262 L522.439 389.778 L530.923 386.262 L539.407 389.778 L542.923 398.262 L539.407 406.746 Z" fill="#009af9" fill-rule="evenodd" fill-opacity="1" stroke="#000000" stroke-opacity="1" stroke-width="2.688"/>
<path clip-path="url(#clip171)" d="M541.655 744.696 L533.171 741.18 L529.655 732.696 L533.171 724.212 L541.655 720.696 L550.139 724.212 L553.655 732.696 L550.139 741.18 Z" fill="#009af9" fill-rule="evenodd" fill-opacity="1" stroke="#000000" stroke-opacity="1" stroke-width="2.688"/>
<path clip-path="url(#clip171)" d="M552.387 781.899 L543.903 778.383 L540.387 769.899 L543.903 761.415 L552.387 757.899 L560.871 761.415 L564.387 769.899 L560.871 778.383 Z" fill="#009af9" fill-rule="evenodd" fill-opacity="1" stroke="#000000" stroke-opacity="1" stroke-width="2.688"/>
<path clip-path="url(#clip171)" d="M563.119 386.45 L554.635 382.934 L551.119 374.45 L554.635 365.966 L563.119 362.45 L571.603 365.966 L575.119 374.45 L571.603 382.934 Z" fill="#009af9" fill-rule="evenodd" fill-opacity="1" stroke="#000000" stroke-opacity="1" stroke-width="2.688"/>
<path clip-path="url(#clip171)" d="M573.851 445.967 L565.367 442.451 L561.851 433.967 L565.367 425.483 L573.851 421.967 L582.335 425.483 L585.851 433.967 L582.335 442.451 Z" fill="#009af9" fill-rule="evenodd" fill-opacity="1" stroke="#000000" stroke-opacity="1" stroke-width="2.688"/>
<path clip-path="url(#clip171)" d="M584.583 700.402 L576.099 696.886 L572.583 688.402 L576.099 679.918 L584.583 676.402 L593.067 679.918 L596.583 688.402 L593.067 696.886 Z" fill="#009af9" fill-rule="evenodd" fill-opacity="1" stroke="#000000" stroke-opacity="1" stroke-width="2.688"/>
<path clip-path="url(#clip171)" d="M595.315 826.119 L586.831 822.603 L583.315 814.119 L586.831 805.635 L595.315 802.119 L603.799 805.635 L607.315 814.119 L603.799 822.603 Z" fill="#009af9" fill-rule="evenodd" fill-opacity="1" stroke="#000000" stroke-opacity="1" stroke-width="2.688"/>
<path clip-path="url(#clip171)" d="M606.047 943.677 L597.563 940.161 L594.047 931.677 L597.563 923.193 L606.047 919.677 L614.531 923.193 L618.047 931.677 L614.531 940.161 Z" fill="#009af9" fill-rule="evenodd" fill-opacity="1" stroke="#000000" stroke-opacity="1" stroke-width="2.688"/>
<path clip-path="url(#clip171)" d="M616.779 1017.44 L608.295 1013.93 L604.779 1005.44 L608.295 996.96 L616.779 993.444 L625.263 996.96 L628.779 1005.44 L625.263 1013.93 Z" fill="#009af9" fill-rule="evenodd" fill-opacity="1" stroke="#000000" stroke-opacity="1" stroke-width="2.688"/>
<path clip-path="url(#clip171)" d="M627.512 647.083 L619.028 643.567 L615.512 635.083 L619.028 626.599 L627.512 623.083 L635.996 626.599 L639.512 635.083 L635.996 643.567 Z" fill="#009af9" fill-rule="evenodd" fill-opacity="1" stroke="#000000" stroke-opacity="1" stroke-width="2.688"/>
<path clip-path="url(#clip171)" d="M638.244 94.1873 L629.76 90.6713 L626.244 82.1873 L629.76 73.7033 L638.244 70.1873 L646.728 73.7033 L650.244 82.1873 L646.728 90.6713 Z" fill="#009af9" fill-rule="evenodd" fill-opacity="1" stroke="#000000" stroke-opacity="1" stroke-width="2.688"/>
<path clip-path="url(#clip171)" d="M648.976 825.354 L640.492 821.838 L636.976 813.354 L640.492 804.87 L648.976 801.354 L657.46 804.87 L660.976 813.354 L657.46 821.838 Z" fill="#009af9" fill-rule="evenodd" fill-opacity="1" stroke="#000000" stroke-opacity="1" stroke-width="2.688"/>
<path clip-path="url(#clip171)" d="M659.708 454.355 L651.224 450.839 L647.708 442.355 L651.224 433.871 L659.708 430.355 L668.192 433.871 L671.708 442.355 L668.192 450.839 Z" fill="#009af9" fill-rule="evenodd" fill-opacity="1" stroke="#000000" stroke-opacity="1" stroke-width="2.688"/>
<path clip-path="url(#clip171)" d="M670.44 754.212 L661.956 750.696 L658.44 742.212 L661.956 733.728 L670.44 730.212 L678.924 733.728 L682.44 742.212 L678.924 750.696 Z" fill="#009af9" fill-rule="evenodd" fill-opacity="1" stroke="#000000" stroke-opacity="1" stroke-width="2.688"/>
<path clip-path="url(#clip171)" d="M681.172 956.208 L672.688 952.692 L669.172 944.208 L672.688 935.724 L681.172 932.208 L689.656 935.724 L693.172 944.208 L689.656 952.692 Z" fill="#009af9" fill-rule="evenodd" fill-opacity="1" stroke="#000000" stroke-opacity="1" stroke-width="2.688"/>
<path clip-path="url(#clip171)" d="M691.904 985.298 L683.42 981.782 L679.904 973.298 L683.42 964.814 L691.904 961.298 L700.388 964.814 L703.904 973.298 L700.388 981.782 Z" fill="#009af9" fill-rule="evenodd" fill-opacity="1" stroke="#000000" stroke-opacity="1" stroke-width="2.688"/>
<path clip-path="url(#clip171)" d="M702.636 1018.32 L694.152 1014.8 L690.636 1006.32 L694.152 997.833 L702.636 994.317 L711.12 997.833 L714.636 1006.32 L711.12 1014.8 Z" fill="#009af9" fill-rule="evenodd" fill-opacity="1" stroke="#000000" stroke-opacity="1" stroke-width="2.688"/>
<path clip-path="url(#clip171)" d="M713.368 308.27 L704.884 304.754 L701.368 296.27 L704.884 287.786 L713.368 284.27 L721.852 287.786 L725.368 296.27 L721.852 304.754 Z" fill="#009af9" fill-rule="evenodd" fill-opacity="1" stroke="#000000" stroke-opacity="1" stroke-width="2.688"/>
<path clip-path="url(#clip171)" d="M724.101 511.005 L715.617 507.489 L712.101 499.005 L715.617 490.521 L724.101 487.005 L732.585 490.521 L736.101 499.005 L732.585 507.489 Z" fill="#009af9" fill-rule="evenodd" fill-opacity="1" stroke="#000000" stroke-opacity="1" stroke-width="2.688"/>
<path clip-path="url(#clip171)" d="M734.833 891.566 L726.349 888.05 L722.833 879.566 L726.349 871.082 L734.833 867.566 L743.317 871.082 L746.833 879.566 L743.317 888.05 Z" fill="#009af9" fill-rule="evenodd" fill-opacity="1" stroke="#000000" stroke-opacity="1" stroke-width="2.688"/>
<path clip-path="url(#clip171)" d="M745.565 680.989 L737.081 677.473 L733.565 668.989 L737.081 660.505 L745.565 656.989 L754.049 660.505 L757.565 668.989 L754.049 677.473 Z" fill="#009af9" fill-rule="evenodd" fill-opacity="1" stroke="#000000" stroke-opacity="1" stroke-width="2.688"/>
<path clip-path="url(#clip171)" d="M756.297 617.072 L747.813 613.556 L744.297 605.072 L747.813 596.588 L756.297 593.072 L764.781 596.588 L768.297 605.072 L764.781 613.556 Z" fill="#009af9" fill-rule="evenodd" fill-opacity="1" stroke="#000000" stroke-opacity="1" stroke-width="2.688"/>
<path clip-path="url(#clip171)" d="M767.029 591.883 L758.545 588.367 L755.029 579.883 L758.545 571.399 L767.029 567.883 L775.513 571.399 L779.029 579.883 L775.513 588.367 Z" fill="#009af9" fill-rule="evenodd" fill-opacity="1" stroke="#000000" stroke-opacity="1" stroke-width="2.688"/>
<path clip-path="url(#clip171)" d="M777.761 770.295 L769.277 766.779 L765.761 758.295 L769.277 749.811 L777.761 746.295 L786.245 749.811 L789.761 758.295 L786.245 766.779 Z" fill="#009af9" fill-rule="evenodd" fill-opacity="1" stroke="#000000" stroke-opacity="1" stroke-width="2.688"/>
<path clip-path="url(#clip171)" d="M788.493 532.984 L780.009 529.468 L776.493 520.984 L780.009 512.5 L788.493 508.984 L796.977 512.5 L800.493 520.984 L796.977 529.468 Z" fill="#009af9" fill-rule="evenodd" fill-opacity="1" stroke="#000000" stroke-opacity="1" stroke-width="2.688"/>
<path clip-path="url(#clip171)" d="M799.225 664.503 L790.741 660.987 L787.225 652.503 L790.741 644.019 L799.225 640.503 L807.709 644.019 L811.225 652.503 L807.709 660.987 Z" fill="#009af9" fill-rule="evenodd" fill-opacity="1" stroke="#000000" stroke-opacity="1" stroke-width="2.688"/>
<path clip-path="url(#clip171)" d="M809.957 597.121 L801.473 593.605 L797.957 585.121 L801.473 576.637 L809.957 573.121 L818.441 576.637 L821.957 585.121 L818.441 593.605 Z" fill="#009af9" fill-rule="evenodd" fill-opacity="1" stroke="#000000" stroke-opacity="1" stroke-width="2.688"/>
<path clip-path="url(#clip171)" d="M820.69 914.076 L812.206 910.56 L808.69 902.076 L812.206 893.592 L820.69 890.076 L829.174 893.592 L832.69 902.076 L829.174 910.56 Z" fill="#009af9" fill-rule="evenodd" fill-opacity="1" stroke="#000000" stroke-opacity="1" stroke-width="2.688"/>
<path clip-path="url(#clip171)" d="M831.422 540.666 L822.938 537.15 L819.422 528.666 L822.938 520.182 L831.422 516.666 L839.906 520.182 L843.422 528.666 L839.906 537.15 Z" fill="#009af9" fill-rule="evenodd" fill-opacity="1" stroke="#000000" stroke-opacity="1" stroke-width="2.688"/>
<path clip-path="url(#clip171)" d="M842.154 690.981 L833.67 687.465 L830.154 678.981 L833.67 670.497 L842.154 666.981 L850.638 670.497 L854.154 678.981 L850.638 687.465 Z" fill="#009af9" fill-rule="evenodd" fill-opacity="1" stroke="#000000" stroke-opacity="1" stroke-width="2.688"/>
<path clip-path="url(#clip171)" d="M852.886 646.526 L844.402 643.01 L840.886 634.526 L844.402 626.042 L852.886 622.526 L861.37 626.042 L864.886 634.526 L861.37 643.01 Z" fill="#009af9" fill-rule="evenodd" fill-opacity="1" stroke="#000000" stroke-opacity="1" stroke-width="2.688"/>
<path clip-path="url(#clip171)" d="M863.618 981.155 L855.134 977.639 L851.618 969.155 L855.134 960.671 L863.618 957.155 L872.102 960.671 L875.618 969.155 L872.102 977.639 Z" fill="#009af9" fill-rule="evenodd" fill-opacity="1" stroke="#000000" stroke-opacity="1" stroke-width="2.688"/>
<path clip-path="url(#clip171)" d="M874.35 848.864 L865.866 845.348 L862.35 836.864 L865.866 828.38 L874.35 824.864 L882.834 828.38 L886.35 836.864 L882.834 845.348 Z" fill="#009af9" fill-rule="evenodd" fill-opacity="1" stroke="#000000" stroke-opacity="1" stroke-width="2.688"/>
<path clip-path="url(#clip171)" d="M885.082 837.609 L876.598 834.093 L873.082 825.609 L876.598 817.125 L885.082 813.609 L893.566 817.125 L897.082 825.609 L893.566 834.093 Z" fill="#009af9" fill-rule="evenodd" fill-opacity="1" stroke="#000000" stroke-opacity="1" stroke-width="2.688"/>
<path clip-path="url(#clip171)" d="M895.814 848.562 L887.33 845.046 L883.814 836.562 L887.33 828.078 L895.814 824.562 L904.298 828.078 L907.814 836.562 L904.298 845.046 Z" fill="#009af9" fill-rule="evenodd" fill-opacity="1" stroke="#000000" stroke-opacity="1" stroke-width="2.688"/>
<path clip-path="url(#clip171)" d="M906.546 775.231 L898.062 771.715 L894.546 763.231 L898.062 754.747 L906.546 751.231 L915.03 754.747 L918.546 763.231 L915.03 771.715 Z" fill="#009af9" fill-rule="evenodd" fill-opacity="1" stroke="#000000" stroke-opacity="1" stroke-width="2.688"/>
<path clip-path="url(#clip171)" d="M917.279 793.449 L908.795 789.933 L905.279 781.449 L908.795 772.965 L917.279 769.449 L925.763 772.965 L929.279 781.449 L925.763 789.933 Z" fill="#009af9" fill-rule="evenodd" fill-opacity="1" stroke="#000000" stroke-opacity="1" stroke-width="2.688"/>
<path clip-path="url(#clip171)" d="M928.011 938.029 L919.527 934.513 L916.011 926.029 L919.527 917.545 L928.011 914.029 L936.495 917.545 L940.011 926.029 L936.495 934.513 Z" fill="#009af9" fill-rule="evenodd" fill-opacity="1" stroke="#000000" stroke-opacity="1" stroke-width="2.688"/>
<path clip-path="url(#clip171)" d="M938.743 913.27 L930.259 909.754 L926.743 901.27 L930.259 892.786 L938.743 889.27 L947.227 892.786 L950.743 901.27 L947.227 909.754 Z" fill="#009af9" fill-rule="evenodd" fill-opacity="1" stroke="#000000" stroke-opacity="1" stroke-width="2.688"/>
<path clip-path="url(#clip171)" d="M949.475 1010.08 L940.991 1006.56 L937.475 998.077 L940.991 989.593 L949.475 986.077 L957.959 989.593 L961.475 998.077 L957.959 1006.56 Z" fill="#009af9" fill-rule="evenodd" fill-opacity="1" stroke="#000000" stroke-opacity="1" stroke-width="2.688"/>
<path clip-path="url(#clip171)" d="M960.207 954.784 L951.723 951.268 L948.207 942.784 L951.723 934.3 L960.207 930.784 L968.691 934.3 L972.207 942.784 L968.691 951.268 Z" fill="#009af9" fill-rule="evenodd" fill-opacity="1" stroke="#000000" stroke-opacity="1" stroke-width="2.688"/>
<path clip-path="url(#clip171)" d="M970.939 427.097 L962.455 423.581 L958.939 415.097 L962.455 406.613 L970.939 403.097 L979.423 406.613 L982.939 415.097 L979.423 423.581 Z" fill="#009af9" fill-rule="evenodd" fill-opacity="1" stroke="#000000" stroke-opacity="1" stroke-width="2.688"/>
<path clip-path="url(#clip171)" d="M981.671 718.379 L973.187 714.863 L969.671 706.379 L973.187 697.895 L981.671 694.379 L990.155 697.895 L993.671 706.379 L990.155 714.863 Z" fill="#009af9" fill-rule="evenodd" fill-opacity="1" stroke="#000000" stroke-opacity="1" stroke-width="2.688"/>
<path clip-path="url(#clip171)" d="M992.403 672.353 L983.919 668.837 L980.403 660.353 L983.919 651.869 L992.403 648.353 L1000.89 651.869 L1004.4 660.353 L1000.89 668.837 Z" fill="#009af9" fill-rule="evenodd" fill-opacity="1" stroke="#000000" stroke-opacity="1" stroke-width="2.688"/>
<path clip-path="url(#clip171)" d="M1003.14 555.279 L994.651 551.763 L991.135 543.279 L994.651 534.795 L1003.14 531.279 L1011.62 534.795 L1015.14 543.279 L1011.62 551.763 Z" fill="#009af9" fill-rule="evenodd" fill-opacity="1" stroke="#000000" stroke-opacity="1" stroke-width="2.688"/>
<path clip-path="url(#clip171)" d="M1013.87 662.293 L1005.38 658.777 L1001.87 650.293 L1005.38 641.809 L1013.87 638.293 L1022.35 641.809 L1025.87 650.293 L1022.35 658.777 Z" fill="#009af9" fill-rule="evenodd" fill-opacity="1" stroke="#000000" stroke-opacity="1" stroke-width="2.688"/>
<path clip-path="url(#clip171)" d="M1024.6 1016.46 L1016.12 1012.94 L1012.6 1004.46 L1016.12 995.973 L1024.6 992.457 L1033.08 995.973 L1036.6 1004.46 L1033.08 1012.94 Z" fill="#009af9" fill-rule="evenodd" fill-opacity="1" stroke="#000000" stroke-opacity="1" stroke-width="2.688"/>
<path clip-path="url(#clip171)" d="M1035.33 603.991 L1026.85 600.475 L1023.33 591.991 L1026.85 583.507 L1035.33 579.991 L1043.82 583.507 L1047.33 591.991 L1043.82 600.475 Z" fill="#009af9" fill-rule="evenodd" fill-opacity="1" stroke="#000000" stroke-opacity="1" stroke-width="2.688"/>
<path clip-path="url(#clip171)" d="M1046.06 1093.41 L1037.58 1089.9 L1034.06 1081.41 L1037.58 1072.93 L1046.06 1069.41 L1054.55 1072.93 L1058.06 1081.41 L1054.55 1089.9 Z" fill="#009af9" fill-rule="evenodd" fill-opacity="1" stroke="#000000" stroke-opacity="1" stroke-width="2.688"/>
<path clip-path="url(#clip171)" d="M1056.8 720.535 L1048.31 717.019 L1044.8 708.535 L1048.31 700.051 L1056.8 696.535 L1065.28 700.051 L1068.8 708.535 L1065.28 717.019 Z" fill="#009af9" fill-rule="evenodd" fill-opacity="1" stroke="#000000" stroke-opacity="1" stroke-width="2.688"/>
<path clip-path="url(#clip171)" d="M1067.53 635.244 L1059.04 631.728 L1055.53 623.244 L1059.04 614.76 L1067.53 611.244 L1076.01 614.76 L1079.53 623.244 L1076.01 631.728 Z" fill="#009af9" fill-rule="evenodd" fill-opacity="1" stroke="#000000" stroke-opacity="1" stroke-width="2.688"/>
<path clip-path="url(#clip171)" d="M1078.26 307.747 L1069.78 304.231 L1066.26 295.747 L1069.78 287.263 L1078.26 283.747 L1086.74 287.263 L1090.26 295.747 L1086.74 304.231 Z" fill="#009af9" fill-rule="evenodd" fill-opacity="1" stroke="#000000" stroke-opacity="1" stroke-width="2.688"/>
<path clip-path="url(#clip171)" d="M1088.99 706.104 L1080.51 702.588 L1076.99 694.104 L1080.51 685.62 L1088.99 682.104 L1097.48 685.62 L1100.99 694.104 L1097.48 702.588 Z" fill="#009af9" fill-rule="evenodd" fill-opacity="1" stroke="#000000" stroke-opacity="1" stroke-width="2.688"/>
<path clip-path="url(#clip171)" d="M1099.72 1001.19 L1091.24 997.67 L1087.72 989.186 L1091.24 980.702 L1099.72 977.186 L1108.21 980.702 L1111.72 989.186 L1108.21 997.67 Z" fill="#009af9" fill-rule="evenodd" fill-opacity="1" stroke="#000000" stroke-opacity="1" stroke-width="2.688"/>
<path clip-path="url(#clip171)" d="M1110.46 1056.33 L1101.97 1052.82 L1098.46 1044.33 L1101.97 1035.85 L1110.46 1032.33 L1118.94 1035.85 L1122.46 1044.33 L1118.94 1052.82 Z" fill="#009af9" fill-rule="evenodd" fill-opacity="1" stroke="#000000" stroke-opacity="1" stroke-width="2.688"/>
<path clip-path="url(#clip171)" d="M1121.19 91.1184 L1112.7 87.6024 L1109.19 79.1184 L1112.7 70.6344 L1121.19 67.1184 L1129.67 70.6344 L1133.19 79.1184 L1129.67 87.6024 Z" fill="#009af9" fill-rule="evenodd" fill-opacity="1" stroke="#000000" stroke-opacity="1" stroke-width="2.688"/>
<path clip-path="url(#clip171)" d="M1131.92 294.88 L1123.44 291.364 L1119.92 282.88 L1123.44 274.396 L1131.92 270.88 L1140.4 274.396 L1143.92 282.88 L1140.4 291.364 Z" fill="#009af9" fill-rule="evenodd" fill-opacity="1" stroke="#000000" stroke-opacity="1" stroke-width="2.688"/>
<path clip-path="url(#clip171)" d="M1142.65 277.77 L1134.17 274.254 L1130.65 265.77 L1134.17 257.286 L1142.65 253.77 L1151.14 257.286 L1154.65 265.77 L1151.14 274.254 Z" fill="#009af9" fill-rule="evenodd" fill-opacity="1" stroke="#000000" stroke-opacity="1" stroke-width="2.688"/>
<path clip-path="url(#clip171)" d="M1153.38 646.506 L1144.9 642.99 L1141.38 634.506 L1144.9 626.022 L1153.38 622.506 L1161.87 626.022 L1165.38 634.506 L1161.87 642.99 Z" fill="#009af9" fill-rule="evenodd" fill-opacity="1" stroke="#000000" stroke-opacity="1" stroke-width="2.688"/>
<path clip-path="url(#clip171)" d="M1164.12 705.721 L1155.63 702.205 L1152.12 693.721 L1155.63 685.237 L1164.12 681.721 L1172.6 685.237 L1176.12 693.721 L1172.6 702.205 Z" fill="#009af9" fill-rule="evenodd" fill-opacity="1" stroke="#000000" stroke-opacity="1" stroke-width="2.688"/>
<path clip-path="url(#clip171)" d="M1174.85 744.092 L1166.37 740.576 L1162.85 732.092 L1166.37 723.608 L1174.85 720.092 L1183.33 723.608 L1186.85 732.092 L1183.33 740.576 Z" fill="#009af9" fill-rule="evenodd" fill-opacity="1" stroke="#000000" stroke-opacity="1" stroke-width="2.688"/>
<path clip-path="url(#clip171)" d="M1185.58 698.824 L1177.1 695.308 L1173.58 686.824 L1177.1 678.34 L1185.58 674.824 L1194.07 678.34 L1197.58 686.824 L1194.07 695.308 Z" fill="#009af9" fill-rule="evenodd" fill-opacity="1" stroke="#000000" stroke-opacity="1" stroke-width="2.688"/>
<path clip-path="url(#clip171)" d="M1196.31 613.829 L1187.83 610.313 L1184.31 601.829 L1187.83 593.345 L1196.31 589.829 L1204.8 593.345 L1208.31 601.829 L1204.8 610.313 Z" fill="#009af9" fill-rule="evenodd" fill-opacity="1" stroke="#000000" stroke-opacity="1" stroke-width="2.688"/>
<path clip-path="url(#clip171)" d="M1207.05 450.299 L1198.56 446.783 L1195.05 438.299 L1198.56 429.815 L1207.05 426.299 L1215.53 429.815 L1219.05 438.299 L1215.53 446.783 Z" fill="#009af9" fill-rule="evenodd" fill-opacity="1" stroke="#000000" stroke-opacity="1" stroke-width="2.688"/>
<path clip-path="url(#clip171)" d="M1217.78 247.376 L1209.29 243.86 L1205.78 235.376 L1209.29 226.892 L1217.78 223.376 L1226.26 226.892 L1229.78 235.376 L1226.26 243.86 Z" fill="#009af9" fill-rule="evenodd" fill-opacity="1" stroke="#000000" stroke-opacity="1" stroke-width="2.688"/>
<path clip-path="url(#clip171)" d="M1228.51 767.401 L1220.03 763.885 L1216.51 755.401 L1220.03 746.917 L1228.51 743.401 L1236.99 746.917 L1240.51 755.401 L1236.99 763.885 Z" fill="#009af9" fill-rule="evenodd" fill-opacity="1" stroke="#000000" stroke-opacity="1" stroke-width="2.688"/>
<path clip-path="url(#clip171)" d="M1239.24 959.673 L1230.76 956.157 L1227.24 947.673 L1230.76 939.189 L1239.24 935.673 L1247.73 939.189 L1251.24 947.673 L1247.73 956.157 Z" fill="#009af9" fill-rule="evenodd" fill-opacity="1" stroke="#000000" stroke-opacity="1" stroke-width="2.688"/>
<path clip-path="url(#clip171)" d="M1249.97 921.187 L1241.49 917.671 L1237.97 909.187 L1241.49 900.703 L1249.97 897.187 L1258.46 900.703 L1261.97 909.187 L1258.46 917.671 Z" fill="#009af9" fill-rule="evenodd" fill-opacity="1" stroke="#000000" stroke-opacity="1" stroke-width="2.688"/>
<path clip-path="url(#clip171)" d="M1260.71 1014.49 L1252.22 1010.97 L1248.71 1002.49 L1252.22 994.005 L1260.71 990.489 L1269.19 994.005 L1272.71 1002.49 L1269.19 1010.97 Z" fill="#009af9" fill-rule="evenodd" fill-opacity="1" stroke="#000000" stroke-opacity="1" stroke-width="2.688"/>
<path clip-path="url(#clip171)" d="M1271.44 803.663 L1262.95 800.147 L1259.44 791.663 L1262.95 783.179 L1271.44 779.663 L1279.92 783.179 L1283.44 791.663 L1279.92 800.147 Z" fill="#009af9" fill-rule="evenodd" fill-opacity="1" stroke="#000000" stroke-opacity="1" stroke-width="2.688"/>
<path clip-path="url(#clip171)" d="M1282.17 1135.03 L1273.69 1131.51 L1270.17 1123.03 L1273.69 1114.54 L1282.17 1111.03 L1290.65 1114.54 L1294.17 1123.03 L1290.65 1131.51 Z" fill="#009af9" fill-rule="evenodd" fill-opacity="1" stroke="#000000" stroke-opacity="1" stroke-width="2.688"/>
<path clip-path="url(#clip171)" d="M1292.9 519.157 L1284.42 515.641 L1280.9 507.157 L1284.42 498.673 L1292.9 495.157 L1301.39 498.673 L1304.9 507.157 L1301.39 515.641 Z" fill="#009af9" fill-rule="evenodd" fill-opacity="1" stroke="#000000" stroke-opacity="1" stroke-width="2.688"/>
<path clip-path="url(#clip171)" d="M1303.63 1017.34 L1295.15 1013.82 L1291.63 1005.34 L1295.15 996.853 L1303.63 993.337 L1312.12 996.853 L1315.63 1005.34 L1312.12 1013.82 Z" fill="#009af9" fill-rule="evenodd" fill-opacity="1" stroke="#000000" stroke-opacity="1" stroke-width="2.688"/>
<path clip-path="url(#clip171)" d="M1314.37 286.217 L1305.88 282.701 L1302.37 274.217 L1305.88 265.733 L1314.37 262.217 L1322.85 265.733 L1326.37 274.217 L1322.85 282.701 Z" fill="#009af9" fill-rule="evenodd" fill-opacity="1" stroke="#000000" stroke-opacity="1" stroke-width="2.688"/>
<path clip-path="url(#clip171)" d="M1325.1 532.413 L1316.61 528.897 L1313.1 520.413 L1316.61 511.929 L1325.1 508.413 L1333.58 511.929 L1337.1 520.413 L1333.58 528.897 Z" fill="#009af9" fill-rule="evenodd" fill-opacity="1" stroke="#000000" stroke-opacity="1" stroke-width="2.688"/>
<path clip-path="url(#clip171)" d="M1335.83 530.459 L1327.35 526.943 L1323.83 518.459 L1327.35 509.975 L1335.83 506.459 L1344.31 509.975 L1347.83 518.459 L1344.31 526.943 Z" fill="#009af9" fill-rule="evenodd" fill-opacity="1" stroke="#000000" stroke-opacity="1" stroke-width="2.688"/>
<path clip-path="url(#clip171)" d="M1346.56 318.075 L1338.08 314.559 L1334.56 306.075 L1338.08 297.591 L1346.56 294.075 L1355.05 297.591 L1358.56 306.075 L1355.05 314.559 Z" fill="#009af9" fill-rule="evenodd" fill-opacity="1" stroke="#000000" stroke-opacity="1" stroke-width="2.688"/>
<path clip-path="url(#clip171)" d="M1357.3 708.689 L1348.81 705.173 L1345.3 696.689 L1348.81 688.205 L1357.3 684.689 L1365.78 688.205 L1369.3 696.689 L1365.78 705.173 Z" fill="#009af9" fill-rule="evenodd" fill-opacity="1" stroke="#000000" stroke-opacity="1" stroke-width="2.688"/>
<path clip-path="url(#clip171)" d="M1368.03 661.131 L1359.54 657.615 L1356.03 649.131 L1359.54 640.647 L1368.03 637.131 L1376.51 640.647 L1380.03 649.131 L1376.51 657.615 Z" fill="#009af9" fill-rule="evenodd" fill-opacity="1" stroke="#000000" stroke-opacity="1" stroke-width="2.688"/>
<path clip-path="url(#clip171)" d="M1378.76 603.534 L1370.28 600.018 L1366.76 591.534 L1370.28 583.05 L1378.76 579.534 L1387.24 583.05 L1390.76 591.534 L1387.24 600.018 Z" fill="#009af9" fill-rule="evenodd" fill-opacity="1" stroke="#000000" stroke-opacity="1" stroke-width="2.688"/>
<path clip-path="url(#clip171)" d="M1389.49 626.165 L1381.01 622.649 L1377.49 614.165 L1381.01 605.681 L1389.49 602.165 L1397.98 605.681 L1401.49 614.165 L1397.98 622.649 Z" fill="#009af9" fill-rule="evenodd" fill-opacity="1" stroke="#000000" stroke-opacity="1" stroke-width="2.688"/>
<path clip-path="url(#clip171)" d="M1400.22 422.37 L1391.74 418.854 L1388.22 410.37 L1391.74 401.886 L1400.22 398.37 L1408.71 401.886 L1412.22 410.37 L1408.71 418.854 Z" fill="#009af9" fill-rule="evenodd" fill-opacity="1" stroke="#000000" stroke-opacity="1" stroke-width="2.688"/>
<path clip-path="url(#clip171)" d="M1410.96 960.875 L1402.47 957.359 L1398.96 948.875 L1402.47 940.391 L1410.96 936.875 L1419.44 940.391 L1422.96 948.875 L1419.44 957.359 Z" fill="#009af9" fill-rule="evenodd" fill-opacity="1" stroke="#000000" stroke-opacity="1" stroke-width="2.688"/>
<path clip-path="url(#clip171)" d="M1421.69 494.942 L1413.2 491.426 L1409.69 482.942 L1413.2 474.458 L1421.69 470.942 L1430.17 474.458 L1433.69 482.942 L1430.17 491.426 Z" fill="#009af9" fill-rule="evenodd" fill-opacity="1" stroke="#000000" stroke-opacity="1" stroke-width="2.688"/>
<path clip-path="url(#clip171)" d="M1432.42 1153.6 L1423.94 1150.08 L1420.42 1141.6 L1423.94 1133.11 L1432.42 1129.6 L1440.9 1133.11 L1444.42 1141.6 L1440.9 1150.08 Z" fill="#009af9" fill-rule="evenodd" fill-opacity="1" stroke="#000000" stroke-opacity="1" stroke-width="2.688"/>
<path clip-path="url(#clip171)" d="M1443.15 936.673 L1434.67 933.157 L1431.15 924.673 L1434.67 916.189 L1443.15 912.673 L1451.64 916.189 L1455.15 924.673 L1451.64 933.157 Z" fill="#009af9" fill-rule="evenodd" fill-opacity="1" stroke="#000000" stroke-opacity="1" stroke-width="2.688"/>
<path clip-path="url(#clip171)" d="M1453.88 727.109 L1445.4 723.593 L1441.88 715.109 L1445.4 706.625 L1453.88 703.109 L1462.37 706.625 L1465.88 715.109 L1462.37 723.593 Z" fill="#009af9" fill-rule="evenodd" fill-opacity="1" stroke="#000000" stroke-opacity="1" stroke-width="2.688"/>
<path clip-path="url(#clip171)" d="M1464.62 1100.23 L1456.13 1096.71 L1452.62 1088.23 L1456.13 1079.75 L1464.62 1076.23 L1473.1 1079.75 L1476.62 1088.23 L1473.1 1096.71 Z" fill="#009af9" fill-rule="evenodd" fill-opacity="1" stroke="#000000" stroke-opacity="1" stroke-width="2.688"/>
<path clip-path="url(#clip171)" d="M1475.35 1048.05 L1466.86 1044.53 L1463.35 1036.05 L1466.86 1027.56 L1475.35 1024.05 L1483.83 1027.56 L1487.35 1036.05 L1483.83 1044.53 Z" fill="#009af9" fill-rule="evenodd" fill-opacity="1" stroke="#000000" stroke-opacity="1" stroke-width="2.688"/>
<path clip-path="url(#clip171)" d="M1486.08 1135.73 L1477.6 1132.22 L1474.08 1123.73 L1477.6 1115.25 L1486.08 1111.73 L1494.56 1115.25 L1498.08 1123.73 L1494.56 1132.22 Z" fill="#009af9" fill-rule="evenodd" fill-opacity="1" stroke="#000000" stroke-opacity="1" stroke-width="2.688"/>
<path clip-path="url(#clip171)" d="M1496.81 728.889 L1488.33 725.373 L1484.81 716.889 L1488.33 708.405 L1496.81 704.889 L1505.3 708.405 L1508.81 716.889 L1505.3 725.373 Z" fill="#009af9" fill-rule="evenodd" fill-opacity="1" stroke="#000000" stroke-opacity="1" stroke-width="2.688"/>
<path clip-path="url(#clip171)" d="M1507.54 832.982 L1499.06 829.466 L1495.54 820.982 L1499.06 812.498 L1507.54 808.982 L1516.03 812.498 L1519.54 820.982 L1516.03 829.466 Z" fill="#009af9" fill-rule="evenodd" fill-opacity="1" stroke="#000000" stroke-opacity="1" stroke-width="2.688"/>
<path clip-path="url(#clip171)" d="M1518.28 760.363 L1509.79 756.847 L1506.28 748.363 L1509.79 739.879 L1518.28 736.363 L1526.76 739.879 L1530.28 748.363 L1526.76 756.847 Z" fill="#009af9" fill-rule="evenodd" fill-opacity="1" stroke="#000000" stroke-opacity="1" stroke-width="2.688"/>
<path clip-path="url(#clip171)" d="M1529.01 591.266 L1520.52 587.75 L1517.01 579.266 L1520.52 570.782 L1529.01 567.266 L1537.49 570.782 L1541.01 579.266 L1537.49 587.75 Z" fill="#009af9" fill-rule="evenodd" fill-opacity="1" stroke="#000000" stroke-opacity="1" stroke-width="2.688"/>
<path clip-path="url(#clip171)" d="M1539.74 1049.5 L1531.26 1045.98 L1527.74 1037.5 L1531.26 1029.01 L1539.74 1025.5 L1548.23 1029.01 L1551.74 1037.5 L1548.23 1045.98 Z" fill="#009af9" fill-rule="evenodd" fill-opacity="1" stroke="#000000" stroke-opacity="1" stroke-width="2.688"/>
<path clip-path="url(#clip171)" d="M1550.47 765.178 L1541.99 761.662 L1538.47 753.178 L1541.99 744.694 L1550.47 741.178 L1558.96 744.694 L1562.47 753.178 L1558.96 761.662 Z" fill="#009af9" fill-rule="evenodd" fill-opacity="1" stroke="#000000" stroke-opacity="1" stroke-width="2.688"/>
<path clip-path="url(#clip171)" d="M1561.21 859.131 L1552.72 855.615 L1549.21 847.131 L1552.72 838.647 L1561.21 835.131 L1569.69 838.647 L1573.21 847.131 L1569.69 855.615 Z" fill="#009af9" fill-rule="evenodd" fill-opacity="1" stroke="#000000" stroke-opacity="1" stroke-width="2.688"/>
<path clip-path="url(#clip171)" d="M1571.94 328.329 L1563.45 324.813 L1559.94 316.329 L1563.45 307.845 L1571.94 304.329 L1580.42 307.845 L1583.94 316.329 L1580.42 324.813 Z" fill="#009af9" fill-rule="evenodd" fill-opacity="1" stroke="#000000" stroke-opacity="1" stroke-width="2.688"/>
<path clip-path="url(#clip171)" d="M1582.67 877.276 L1574.19 873.76 L1570.67 865.276 L1574.19 856.792 L1582.67 853.276 L1591.15 856.792 L1594.67 865.276 L1591.15 873.76 Z" fill="#009af9" fill-rule="evenodd" fill-opacity="1" stroke="#000000" stroke-opacity="1" stroke-width="2.688"/>
<path clip-path="url(#clip171)" d="M1593.4 736.329 L1584.92 732.813 L1581.4 724.329 L1584.92 715.845 L1593.4 712.329 L1601.89 715.845 L1605.4 724.329 L1601.89 732.813 Z" fill="#009af9" fill-rule="evenodd" fill-opacity="1" stroke="#000000" stroke-opacity="1" stroke-width="2.688"/>
<path clip-path="url(#clip171)" d="M1604.13 738.169 L1595.65 734.653 L1592.13 726.169 L1595.65 717.685 L1604.13 714.169 L1612.62 717.685 L1616.13 726.169 L1612.62 734.653 Z" fill="#009af9" fill-rule="evenodd" fill-opacity="1" stroke="#000000" stroke-opacity="1" stroke-width="2.688"/>
<path clip-path="url(#clip171)" d="M1614.87 648.131 L1606.38 644.615 L1602.87 636.131 L1606.38 627.647 L1614.87 624.131 L1623.35 627.647 L1626.87 636.131 L1623.35 644.615 Z" fill="#009af9" fill-rule="evenodd" fill-opacity="1" stroke="#000000" stroke-opacity="1" stroke-width="2.688"/>
<path clip-path="url(#clip171)" d="M1625.6 703.364 L1617.11 699.848 L1613.6 691.364 L1617.11 682.88 L1625.6 679.364 L1634.08 682.88 L1637.6 691.364 L1634.08 699.848 Z" fill="#009af9" fill-rule="evenodd" fill-opacity="1" stroke="#000000" stroke-opacity="1" stroke-width="2.688"/>
<path clip-path="url(#clip171)" d="M1636.33 954.267 L1627.85 950.751 L1624.33 942.267 L1627.85 933.783 L1636.33 930.267 L1644.81 933.783 L1648.33 942.267 L1644.81 950.751 Z" fill="#009af9" fill-rule="evenodd" fill-opacity="1" stroke="#000000" stroke-opacity="1" stroke-width="2.688"/>
<path clip-path="url(#clip171)" d="M1647.06 492.887 L1638.58 489.371 L1635.06 480.887 L1638.58 472.403 L1647.06 468.887 L1655.55 472.403 L1659.06 480.887 L1655.55 489.371 Z" fill="#009af9" fill-rule="evenodd" fill-opacity="1" stroke="#000000" stroke-opacity="1" stroke-width="2.688"/>
<path clip-path="url(#clip171)" d="M1657.79 948.834 L1649.31 945.318 L1645.79 936.834 L1649.31 928.35 L1657.79 924.834 L1666.28 928.35 L1669.79 936.834 L1666.28 945.318 Z" fill="#009af9" fill-rule="evenodd" fill-opacity="1" stroke="#000000" stroke-opacity="1" stroke-width="2.688"/>
<path clip-path="url(#clip171)" d="M1668.53 951.507 L1660.04 947.991 L1656.53 939.507 L1660.04 931.023 L1668.53 927.507 L1677.01 931.023 L1680.53 939.507 L1677.01 947.991 Z" fill="#009af9" fill-rule="evenodd" fill-opacity="1" stroke="#000000" stroke-opacity="1" stroke-width="2.688"/>
<path clip-path="url(#clip171)" d="M1679.26 625.138 L1670.77 621.622 L1667.26 613.138 L1670.77 604.654 L1679.26 601.138 L1687.74 604.654 L1691.26 613.138 L1687.74 621.622 Z" fill="#009af9" fill-rule="evenodd" fill-opacity="1" stroke="#000000" stroke-opacity="1" stroke-width="2.688"/>
<path clip-path="url(#clip171)" d="M1689.99 358.104 L1681.51 354.588 L1677.99 346.104 L1681.51 337.62 L1689.99 334.104 L1698.47 337.62 L1701.99 346.104 L1698.47 354.588 Z" fill="#009af9" fill-rule="evenodd" fill-opacity="1" stroke="#000000" stroke-opacity="1" stroke-width="2.688"/>
<path clip-path="url(#clip171)" d="M1700.72 644.222 L1692.24 640.706 L1688.72 632.222 L1692.24 623.738 L1700.72 620.222 L1709.21 623.738 L1712.72 632.222 L1709.21 640.706 Z" fill="#009af9" fill-rule="evenodd" fill-opacity="1" stroke="#000000" stroke-opacity="1" stroke-width="2.688"/>
<path clip-path="url(#clip171)" d="M1711.45 601.258 L1702.97 597.742 L1699.45 589.258 L1702.97 580.774 L1711.45 577.258 L1719.94 580.774 L1723.45 589.258 L1719.94 597.742 Z" fill="#009af9" fill-rule="evenodd" fill-opacity="1" stroke="#000000" stroke-opacity="1" stroke-width="2.688"/>
<path clip-path="url(#clip171)" d="M1722.19 573.604 L1713.7 570.088 L1710.19 561.604 L1713.7 553.12 L1722.19 549.604 L1730.67 553.12 L1734.19 561.604 L1730.67 570.088 Z" fill="#009af9" fill-rule="evenodd" fill-opacity="1" stroke="#000000" stroke-opacity="1" stroke-width="2.688"/>
<path clip-path="url(#clip171)" d="M1732.92 576.317 L1724.44 572.801 L1720.92 564.317 L1724.44 555.833 L1732.92 552.317 L1741.4 555.833 L1744.92 564.317 L1741.4 572.801 Z" fill="#009af9" fill-rule="evenodd" fill-opacity="1" stroke="#000000" stroke-opacity="1" stroke-width="2.688"/>
<path clip-path="url(#clip171)" d="M1743.65 642.45 L1735.17 638.934 L1731.65 630.45 L1735.17 621.966 L1743.65 618.45 L1752.14 621.966 L1755.65 630.45 L1752.14 638.934 Z" fill="#009af9" fill-rule="evenodd" fill-opacity="1" stroke="#000000" stroke-opacity="1" stroke-width="2.688"/>
<path clip-path="url(#clip171)" d="M1754.38 525.953 L1745.9 522.437 L1742.38 513.953 L1745.9 505.469 L1754.38 501.953 L1762.87 505.469 L1766.38 513.953 L1762.87 522.437 Z" fill="#009af9" fill-rule="evenodd" fill-opacity="1" stroke="#000000" stroke-opacity="1" stroke-width="2.688"/>
<path clip-path="url(#clip171)" d="M1765.12 777.131 L1756.63 773.615 L1753.12 765.131 L1756.63 756.647 L1765.12 753.131 L1773.6 756.647 L1777.12 765.131 L1773.6 773.615 Z" fill="#009af9" fill-rule="evenodd" fill-opacity="1" stroke="#000000" stroke-opacity="1" stroke-width="2.688"/>
<path clip-path="url(#clip171)" d="M1775.85 938.687 L1767.36 935.171 L1763.85 926.687 L1767.36 918.203 L1775.85 914.687 L1784.33 918.203 L1787.85 926.687 L1784.33 935.171 Z" fill="#009af9" fill-rule="evenodd" fill-opacity="1" stroke="#000000" stroke-opacity="1" stroke-width="2.688"/>
<path clip-path="url(#clip171)" d="M1786.58 797.378 L1778.1 793.862 L1774.58 785.378 L1778.1 776.894 L1786.58 773.378 L1795.06 776.894 L1798.58 785.378 L1795.06 793.862 Z" fill="#009af9" fill-rule="evenodd" fill-opacity="1" stroke="#000000" stroke-opacity="1" stroke-width="2.688"/>
<path clip-path="url(#clip171)" d="M1797.31 941.353 L1788.83 937.837 L1785.31 929.353 L1788.83 920.869 L1797.31 917.353 L1805.8 920.869 L1809.31 929.353 L1805.8 937.837 Z" fill="#009af9" fill-rule="evenodd" fill-opacity="1" stroke="#000000" stroke-opacity="1" stroke-width="2.688"/>
<path clip-path="url(#clip171)" d="M1808.04 368.775 L1799.56 365.259 L1796.04 356.775 L1799.56 348.291 L1808.04 344.775 L1816.53 348.291 L1820.04 356.775 L1816.53 365.259 Z" fill="#009af9" fill-rule="evenodd" fill-opacity="1" stroke="#000000" stroke-opacity="1" stroke-width="2.688"/>
<path clip-path="url(#clip171)" d="M1818.78 663.583 L1810.29 660.067 L1806.78 651.583 L1810.29 643.099 L1818.78 639.583 L1827.26 643.099 L1830.78 651.583 L1827.26 660.067 Z" fill="#009af9" fill-rule="evenodd" fill-opacity="1" stroke="#000000" stroke-opacity="1" stroke-width="2.688"/>
<path clip-path="url(#clip171)" d="M1829.51 786.284 L1821.02 782.768 L1817.51 774.284 L1821.02 765.8 L1829.51 762.284 L1837.99 765.8 L1841.51 774.284 L1837.99 782.768 Z" fill="#009af9" fill-rule="evenodd" fill-opacity="1" stroke="#000000" stroke-opacity="1" stroke-width="2.688"/>
<path clip-path="url(#clip171)" d="M1840.24 633.041 L1831.76 629.525 L1828.24 621.041 L1831.76 612.557 L1840.24 609.041 L1848.72 612.557 L1852.24 621.041 L1848.72 629.525 Z" fill="#009af9" fill-rule="evenodd" fill-opacity="1" stroke="#000000" stroke-opacity="1" stroke-width="2.688"/>
<path clip-path="url(#clip171)" d="M1850.97 794.96 L1842.49 791.444 L1838.97 782.96 L1842.49 774.476 L1850.97 770.96 L1859.46 774.476 L1862.97 782.96 L1859.46 791.444 Z" fill="#009af9" fill-rule="evenodd" fill-opacity="1" stroke="#000000" stroke-opacity="1" stroke-width="2.688"/>
<path clip-path="url(#clip171)" d="M1861.7 384.677 L1853.22 381.161 L1849.7 372.677 L1853.22 364.193 L1861.7 360.677 L1870.19 364.193 L1873.7 372.677 L1870.19 381.161 Z" fill="#009af9" fill-rule="evenodd" fill-opacity="1" stroke="#000000" stroke-opacity="1" stroke-width="2.688"/>
<path clip-path="url(#clip171)" d="M1872.44 193.083 L1863.95 189.567 L1860.44 181.083 L1863.95 172.599 L1872.44 169.083 L1880.92 172.599 L1884.44 181.083 L1880.92 189.567 Z" fill="#009af9" fill-rule="evenodd" fill-opacity="1" stroke="#000000" stroke-opacity="1" stroke-width="2.688"/>
<path clip-path="url(#clip171)" d="M1883.17 551.384 L1874.68 547.868 L1871.17 539.384 L1874.68 530.9 L1883.17 527.384 L1891.65 530.9 L1895.17 539.384 L1891.65 547.868 Z" fill="#009af9" fill-rule="evenodd" fill-opacity="1" stroke="#000000" stroke-opacity="1" stroke-width="2.688"/>
<path clip-path="url(#clip171)" d="M1893.9 413.344 L1885.42 409.828 L1881.9 401.344 L1885.42 392.86 L1893.9 389.344 L1902.38 392.86 L1905.9 401.344 L1902.38 409.828 Z" fill="#009af9" fill-rule="evenodd" fill-opacity="1" stroke="#000000" stroke-opacity="1" stroke-width="2.688"/>
<path clip-path="url(#clip171)" d="M1904.63 475.179 L1896.15 471.663 L1892.63 463.179 L1896.15 454.695 L1904.63 451.179 L1913.12 454.695 L1916.63 463.179 L1913.12 471.663 Z" fill="#009af9" fill-rule="evenodd" fill-opacity="1" stroke="#000000" stroke-opacity="1" stroke-width="2.688"/>
<path clip-path="url(#clip171)" d="M1915.36 564.324 L1906.88 560.808 L1903.36 552.324 L1906.88 543.84 L1915.36 540.324 L1923.85 543.84 L1927.36 552.324 L1923.85 560.808 Z" fill="#009af9" fill-rule="evenodd" fill-opacity="1" stroke="#000000" stroke-opacity="1" stroke-width="2.688"/>
<path clip-path="url(#clip171)" d="M1926.1 532.433 L1917.61 528.917 L1914.1 520.433 L1917.61 511.949 L1926.1 508.433 L1934.58 511.949 L1938.1 520.433 L1934.58 528.917 Z" fill="#009af9" fill-rule="evenodd" fill-opacity="1" stroke="#000000" stroke-opacity="1" stroke-width="2.688"/>
<path clip-path="url(#clip171)" d="M1936.83 468.181 L1928.35 464.665 L1924.83 456.181 L1928.35 447.697 L1936.83 444.181 L1945.31 447.697 L1948.83 456.181 L1945.31 464.665 Z" fill="#009af9" fill-rule="evenodd" fill-opacity="1" stroke="#000000" stroke-opacity="1" stroke-width="2.688"/>
<path clip-path="url(#clip171)" d="M1947.56 460.136 L1939.08 456.62 L1935.56 448.136 L1939.08 439.652 L1947.56 436.136 L1956.05 439.652 L1959.56 448.136 L1956.05 456.62 Z" fill="#009af9" fill-rule="evenodd" fill-opacity="1" stroke="#000000" stroke-opacity="1" stroke-width="2.688"/>
<path clip-path="url(#clip171)" d="M1958.29 332.835 L1949.81 329.319 L1946.29 320.835 L1949.81 312.351 L1958.29 308.835 L1966.78 312.351 L1970.29 320.835 L1966.78 329.319 Z" fill="#009af9" fill-rule="evenodd" fill-opacity="1" stroke="#000000" stroke-opacity="1" stroke-width="2.688"/>
<path clip-path="url(#clip171)" d="M1969.03 369.272 L1960.54 365.756 L1957.03 357.272 L1960.54 348.788 L1969.03 345.272 L1977.51 348.788 L1981.03 357.272 L1977.51 365.756 Z" fill="#009af9" fill-rule="evenodd" fill-opacity="1" stroke="#000000" stroke-opacity="1" stroke-width="2.688"/>
<path clip-path="url(#clip171)" d="M1979.76 389.653 L1971.27 386.137 L1967.76 377.653 L1971.27 369.169 L1979.76 365.653 L1988.24 369.169 L1991.76 377.653 L1988.24 386.137 Z" fill="#009af9" fill-rule="evenodd" fill-opacity="1" stroke="#000000" stroke-opacity="1" stroke-width="2.688"/>
<path clip-path="url(#clip171)" d="M1990.49 776.211 L1982.01 772.695 L1978.49 764.211 L1982.01 755.727 L1990.49 752.211 L1998.97 755.727 L2002.49 764.211 L1998.97 772.695 Z" fill="#009af9" fill-rule="evenodd" fill-opacity="1" stroke="#000000" stroke-opacity="1" stroke-width="2.688"/>
<path clip-path="url(#clip171)" d="M2001.22 245.959 L1992.74 242.443 L1989.22 233.959 L1992.74 225.475 L2001.22 221.959 L2009.71 225.475 L2013.22 233.959 L2009.71 242.443 Z" fill="#009af9" fill-rule="evenodd" fill-opacity="1" stroke="#000000" stroke-opacity="1" stroke-width="2.688"/>
<path clip-path="url(#clip171)" d="M2011.95 248.491 L2003.47 244.975 L1999.95 236.491 L2003.47 228.007 L2011.95 224.491 L2020.44 228.007 L2023.95 236.491 L2020.44 244.975 Z" fill="#009af9" fill-rule="evenodd" fill-opacity="1" stroke="#000000" stroke-opacity="1" stroke-width="2.688"/>
<path clip-path="url(#clip170)" d="M1763.57 1135.93 L2002.57 1135.93 L2002.57 1032.25 L1763.57 1032.25  Z" fill="#ffffff" fill-rule="evenodd" fill-opacity="1"/>
<polyline clip-path="url(#clip170)" style="stroke:#000000; stroke-linecap:round; stroke-linejoin:round; stroke-width:4; stroke-opacity:1; fill:none" points="1763.57,1135.93 2002.57,1135.93 2002.57,1032.25 1763.57,1032.25 1763.57,1135.93 "/>
<polyline clip-path="url(#clip170)" style="stroke:#009af9; stroke-linecap:round; stroke-linejoin:round; stroke-width:8; stroke-opacity:1; fill:none" points="1784.3,1084.09 1908.68,1084.09 "/>
<path clip-path="url(#clip170)" d="M1846.49 1103.28 L1832.92 1097.66 L1827.29 1084.09 L1832.92 1070.52 L1846.49 1064.9 L1860.06 1070.52 L1865.68 1084.09 L1860.06 1097.66 Z" fill="#009af9" fill-rule="evenodd" fill-opacity="1" stroke="#000000" stroke-opacity="1" stroke-width="4.9152"/>
<path clip-path="url(#clip170)" d="M1943.25 1103.78 Q1941.44 1108.41 1939.73 1109.82 Q1938.02 1111.23 1935.15 1111.23 L1931.74 1111.23 L1931.74 1107.67 L1934.24 1107.67 Q1936 1107.67 1936.98 1106.83 Q1937.95 1106 1939.13 1102.9 L1939.89 1100.95 L1929.41 1075.44 L1933.92 1075.44 L1942.02 1095.72 L1950.12 1075.44 L1954.64 1075.44 L1943.25 1103.78 Z" fill="#000000" fill-rule="nonzero" fill-opacity="1" /><path clip-path="url(#clip170)" d="M1961.93 1097.43 L1969.57 1097.43 L1969.57 1071.07 L1961.26 1072.74 L1961.26 1068.48 L1969.52 1066.81 L1974.2 1066.81 L1974.2 1097.43 L1981.84 1097.43 L1981.84 1101.37 L1961.93 1101.37 L1961.93 1097.43 Z" fill="#000000" fill-rule="nonzero" fill-opacity="1" /></svg>
