<?xml version="1.0" encoding="utf-8"?>
<svg xmlns="http://www.w3.org/2000/svg" xmlns:xlink="http://www.w3.org/1999/xlink" width="528" height="336" viewBox="0 0 2112 1344">
<defs>
  <clipPath id="clip260">
    <rect x="0" y="0" width="2112" height="1344"/>
  </clipPath>
</defs>
<path clip-path="url(#clip260)" d="M0 1344 L2112 1344 L2112 2.13163e-14 L0 2.13163e-14  Z" fill="#ffffff" fill-rule="evenodd" fill-opacity="1"/>
<defs>
  <clipPath id="clip261">
    <rect x="109" y="47" width="1956" height="1188"/>
  </clipPath>
</defs>
<path clip-path="url(#clip260)" d="M109.297 1234.58 L2064.76 1234.58 L2064.76 47.2441 L109.297 47.2441  Z" fill="#ffffff" fill-rule="evenodd" fill-opacity="1"/>
<polyline clip-path="url(#clip261)" style="stroke:#000000; stroke-linecap:round; stroke-linejoin:round; stroke-width:2; stroke-opacity:0.1; fill:none" points="188.885,1234.58 188.885,47.2441 "/>
<polyline clip-path="url(#clip261)" style="stroke:#000000; stroke-linecap:round; stroke-linejoin:round; stroke-width:2; stroke-opacity:0.1; fill:none" points="726.694,1234.58 726.694,47.2441 "/>
<polyline clip-path="url(#clip261)" style="stroke:#000000; stroke-linecap:round; stroke-linejoin:round; stroke-width:2; stroke-opacity:0.1; fill:none" points="1264.5,1234.58 1264.5,47.2441 "/>
<polyline clip-path="url(#clip261)" style="stroke:#000000; stroke-linecap:round; stroke-linejoin:round; stroke-width:2; stroke-opacity:0.1; fill:none" points="1802.31,1234.58 1802.31,47.2441 "/>
<polyline clip-path="url(#clip261)" style="stroke:#000000; stroke-linecap:round; stroke-linejoin:round; stroke-width:2; stroke-opacity:0.1; fill:none" points="109.297,1234.58 2064.76,1234.58 "/>
<polyline clip-path="url(#clip261)" style="stroke:#000000; stroke-linecap:round; stroke-linejoin:round; stroke-width:2; stroke-opacity:0.1; fill:none" points="109.297,1036.69 2064.76,1036.69 "/>
<polyline clip-path="url(#clip261)" style="stroke:#000000; stroke-linecap:round; stroke-linejoin:round; stroke-width:2; stroke-opacity:0.1; fill:none" points="109.297,838.801 2064.76,838.801 "/>
<polyline clip-path="url(#clip261)" style="stroke:#000000; stroke-linecap:round; stroke-linejoin:round; stroke-width:2; stroke-opacity:0.1; fill:none" points="109.297,640.911 2064.76,640.911 "/>
<polyline clip-path="url(#clip261)" style="stroke:#000000; stroke-linecap:round; stroke-linejoin:round; stroke-width:2; stroke-opacity:0.1; fill:none" points="109.297,443.022 2064.76,443.022 "/>
<polyline clip-path="url(#clip261)" style="stroke:#000000; stroke-linecap:round; stroke-linejoin:round; stroke-width:2; stroke-opacity:0.1; fill:none" points="109.297,245.133 2064.76,245.133 "/>
<polyline clip-path="url(#clip261)" style="stroke:#000000; stroke-linecap:round; stroke-linejoin:round; stroke-width:2; stroke-opacity:0.1; fill:none" points="109.297,47.2441 2064.76,47.2441 "/>
<polyline clip-path="url(#clip260)" style="stroke:#000000; stroke-linecap:round; stroke-linejoin:round; stroke-width:4; stroke-opacity:1; fill:none" points="109.297,1234.58 2064.76,1234.58 "/>
<polyline clip-path="url(#clip260)" style="stroke:#000000; stroke-linecap:round; stroke-linejoin:round; stroke-width:4; stroke-opacity:1; fill:none" points="188.885,1234.58 188.885,1215.68 "/>
<polyline clip-path="url(#clip260)" style="stroke:#000000; stroke-linecap:round; stroke-linejoin:round; stroke-width:4; stroke-opacity:1; fill:none" points="726.694,1234.58 726.694,1215.68 "/>
<polyline clip-path="url(#clip260)" style="stroke:#000000; stroke-linecap:round; stroke-linejoin:round; stroke-width:4; stroke-opacity:1; fill:none" points="1264.5,1234.58 1264.5,1215.68 "/>
<polyline clip-path="url(#clip260)" style="stroke:#000000; stroke-linecap:round; stroke-linejoin:round; stroke-width:4; stroke-opacity:1; fill:none" points="1802.31,1234.58 1802.31,1215.68 "/>
<path clip-path="url(#clip260)" d="M133.411 1290.74 L141.049 1290.74 L141.049 1264.37 L132.739 1266.04 L132.739 1261.78 L141.003 1260.11 L145.679 1260.11 L145.679 1290.74 L153.318 1290.74 L153.318 1294.67 L133.411 1294.67 L133.411 1290.74 Z" fill="#000000" fill-rule="nonzero" fill-opacity="1" /><path clip-path="url(#clip260)" d="M172.762 1278.26 Q169.429 1278.26 167.508 1280.05 Q165.609 1281.83 165.609 1284.95 Q165.609 1288.08 167.508 1289.86 Q169.429 1291.64 172.762 1291.64 Q176.096 1291.64 178.017 1289.86 Q179.938 1288.05 179.938 1284.95 Q179.938 1281.83 178.017 1280.05 Q176.119 1278.26 172.762 1278.26 M168.086 1276.27 Q165.077 1275.53 163.387 1273.47 Q161.721 1271.41 161.721 1268.45 Q161.721 1264.3 164.66 1261.9 Q167.623 1259.49 172.762 1259.49 Q177.924 1259.49 180.864 1261.9 Q183.804 1264.3 183.804 1268.45 Q183.804 1271.41 182.114 1273.47 Q180.447 1275.53 177.461 1276.27 Q180.841 1277.06 182.716 1279.35 Q184.614 1281.64 184.614 1284.95 Q184.614 1289.98 181.535 1292.66 Q178.48 1295.35 172.762 1295.35 Q167.045 1295.35 163.966 1292.66 Q160.91 1289.98 160.91 1284.95 Q160.91 1281.64 162.809 1279.35 Q164.707 1277.06 168.086 1276.27 M166.373 1268.89 Q166.373 1271.57 168.04 1273.08 Q169.73 1274.58 172.762 1274.58 Q175.771 1274.58 177.461 1273.08 Q179.174 1271.57 179.174 1268.89 Q179.174 1266.2 177.461 1264.7 Q175.771 1263.19 172.762 1263.19 Q169.73 1263.19 168.04 1264.7 Q166.373 1266.2 166.373 1268.89 Z" fill="#000000" fill-rule="nonzero" fill-opacity="1" /><path clip-path="url(#clip260)" d="M192.97 1260.11 L211.327 1260.11 L211.327 1264.05 L197.253 1264.05 L197.253 1272.52 Q198.271 1272.17 199.29 1272.01 Q200.308 1271.83 201.327 1271.83 Q207.114 1271.83 210.493 1275 Q213.873 1278.17 213.873 1283.59 Q213.873 1289.17 210.401 1292.27 Q206.929 1295.35 200.609 1295.35 Q198.433 1295.35 196.165 1294.98 Q193.919 1294.61 191.512 1293.86 L191.512 1289.17 Q193.595 1290.3 195.818 1290.86 Q198.04 1291.41 200.517 1291.41 Q204.521 1291.41 206.859 1289.3 Q209.197 1287.2 209.197 1283.59 Q209.197 1279.98 206.859 1277.87 Q204.521 1275.76 200.517 1275.76 Q198.642 1275.76 196.767 1276.18 Q194.915 1276.6 192.97 1277.48 L192.97 1260.11 Z" fill="#000000" fill-rule="nonzero" fill-opacity="1" /><path clip-path="url(#clip260)" d="M233.086 1263.19 Q229.475 1263.19 227.646 1266.76 Q225.841 1270.3 225.841 1277.43 Q225.841 1284.54 227.646 1288.1 Q229.475 1291.64 233.086 1291.64 Q236.72 1291.64 238.526 1288.1 Q240.354 1284.54 240.354 1277.43 Q240.354 1270.3 238.526 1266.76 Q236.72 1263.19 233.086 1263.19 M233.086 1259.49 Q238.896 1259.49 241.952 1264.1 Q245.03 1268.68 245.03 1277.43 Q245.03 1286.16 241.952 1290.76 Q238.896 1295.35 233.086 1295.35 Q227.276 1295.35 224.197 1290.76 Q221.142 1286.16 221.142 1277.43 Q221.142 1268.68 224.197 1264.1 Q227.276 1259.49 233.086 1259.49 Z" fill="#000000" fill-rule="nonzero" fill-opacity="1" /><path clip-path="url(#clip260)" d="M671.22 1290.74 L678.859 1290.74 L678.859 1264.37 L670.549 1266.04 L670.549 1261.78 L678.813 1260.11 L683.488 1260.11 L683.488 1290.74 L691.127 1290.74 L691.127 1294.67 L671.22 1294.67 L671.22 1290.74 Z" fill="#000000" fill-rule="nonzero" fill-opacity="1" /><path clip-path="url(#clip260)" d="M700.711 1293.96 L700.711 1289.7 Q702.47 1290.53 704.275 1290.97 Q706.081 1291.41 707.817 1291.41 Q712.447 1291.41 714.877 1288.31 Q717.331 1285.18 717.678 1278.84 Q716.335 1280.83 714.275 1281.9 Q712.215 1282.96 709.715 1282.96 Q704.53 1282.96 701.498 1279.84 Q698.488 1276.69 698.488 1271.25 Q698.488 1265.92 701.636 1262.71 Q704.785 1259.49 710.016 1259.49 Q716.011 1259.49 719.16 1264.1 Q722.331 1268.68 722.331 1277.43 Q722.331 1285.6 718.442 1290.48 Q714.576 1295.35 708.025 1295.35 Q706.266 1295.35 704.461 1295 Q702.655 1294.65 700.711 1293.96 M710.016 1279.3 Q713.164 1279.3 714.993 1277.15 Q716.845 1275 716.845 1271.25 Q716.845 1267.52 714.993 1265.37 Q713.164 1263.19 710.016 1263.19 Q706.868 1263.19 705.016 1265.37 Q703.187 1267.52 703.187 1271.25 Q703.187 1275 705.016 1277.15 Q706.868 1279.3 710.016 1279.3 Z" fill="#000000" fill-rule="nonzero" fill-opacity="1" /><path clip-path="url(#clip260)" d="M740.734 1263.19 Q737.122 1263.19 735.294 1266.76 Q733.488 1270.3 733.488 1277.43 Q733.488 1284.54 735.294 1288.1 Q737.122 1291.64 740.734 1291.64 Q744.368 1291.64 746.173 1288.1 Q748.002 1284.54 748.002 1277.43 Q748.002 1270.3 746.173 1266.76 Q744.368 1263.19 740.734 1263.19 M740.734 1259.49 Q746.544 1259.49 749.599 1264.1 Q752.678 1268.68 752.678 1277.43 Q752.678 1286.16 749.599 1290.76 Q746.544 1295.35 740.734 1295.35 Q734.923 1295.35 731.845 1290.76 Q728.789 1286.16 728.789 1277.43 Q728.789 1268.68 731.845 1264.1 Q734.923 1259.49 740.734 1259.49 Z" fill="#000000" fill-rule="nonzero" fill-opacity="1" /><path clip-path="url(#clip260)" d="M770.895 1263.19 Q767.284 1263.19 765.456 1266.76 Q763.65 1270.3 763.65 1277.43 Q763.65 1284.54 765.456 1288.1 Q767.284 1291.64 770.895 1291.64 Q774.53 1291.64 776.335 1288.1 Q778.164 1284.54 778.164 1277.43 Q778.164 1270.3 776.335 1266.76 Q774.53 1263.19 770.895 1263.19 M770.895 1259.49 Q776.706 1259.49 779.761 1264.1 Q782.84 1268.68 782.84 1277.43 Q782.84 1286.16 779.761 1290.76 Q776.706 1295.35 770.895 1295.35 Q765.085 1295.35 762.007 1290.76 Q758.951 1286.16 758.951 1277.43 Q758.951 1268.68 762.007 1264.1 Q765.085 1259.49 770.895 1259.49 Z" fill="#000000" fill-rule="nonzero" fill-opacity="1" /><path clip-path="url(#clip260)" d="M1209.03 1290.74 L1216.67 1290.74 L1216.67 1264.37 L1208.36 1266.04 L1208.36 1261.78 L1216.62 1260.11 L1221.3 1260.11 L1221.3 1290.74 L1228.94 1290.74 L1228.94 1294.67 L1209.03 1294.67 L1209.03 1290.74 Z" fill="#000000" fill-rule="nonzero" fill-opacity="1" /><path clip-path="url(#clip260)" d="M1238.52 1293.96 L1238.52 1289.7 Q1240.28 1290.53 1242.08 1290.97 Q1243.89 1291.41 1245.63 1291.41 Q1250.26 1291.41 1252.69 1288.31 Q1255.14 1285.18 1255.49 1278.84 Q1254.14 1280.83 1252.08 1281.9 Q1250.02 1282.96 1247.52 1282.96 Q1242.34 1282.96 1239.31 1279.84 Q1236.3 1276.69 1236.3 1271.25 Q1236.3 1265.92 1239.45 1262.71 Q1242.59 1259.49 1247.83 1259.49 Q1253.82 1259.49 1256.97 1264.1 Q1260.14 1268.68 1260.14 1277.43 Q1260.14 1285.6 1256.25 1290.48 Q1252.39 1295.35 1245.83 1295.35 Q1244.08 1295.35 1242.27 1295 Q1240.46 1294.65 1238.52 1293.96 M1247.83 1279.3 Q1250.97 1279.3 1252.8 1277.15 Q1254.65 1275 1254.65 1271.25 Q1254.65 1267.52 1252.8 1265.37 Q1250.97 1263.19 1247.83 1263.19 Q1244.68 1263.19 1242.83 1265.37 Q1241 1267.52 1241 1271.25 Q1241 1275 1242.83 1277.15 Q1244.68 1279.3 1247.83 1279.3 Z" fill="#000000" fill-rule="nonzero" fill-opacity="1" /><path clip-path="url(#clip260)" d="M1268.59 1260.11 L1286.95 1260.11 L1286.95 1264.05 L1272.87 1264.05 L1272.87 1272.52 Q1273.89 1272.17 1274.91 1272.01 Q1275.93 1271.83 1276.95 1271.83 Q1282.73 1271.83 1286.11 1275 Q1289.49 1278.17 1289.49 1283.59 Q1289.49 1289.17 1286.02 1292.27 Q1282.55 1295.35 1276.23 1295.35 Q1274.05 1295.35 1271.78 1294.98 Q1269.54 1294.61 1267.13 1293.86 L1267.13 1289.17 Q1269.21 1290.3 1271.44 1290.86 Q1273.66 1291.41 1276.14 1291.41 Q1280.14 1291.41 1282.48 1289.3 Q1284.82 1287.2 1284.82 1283.59 Q1284.82 1279.98 1282.48 1277.87 Q1280.14 1275.76 1276.14 1275.76 Q1274.26 1275.76 1272.39 1276.18 Q1270.53 1276.6 1268.59 1277.48 L1268.59 1260.11 Z" fill="#000000" fill-rule="nonzero" fill-opacity="1" /><path clip-path="url(#clip260)" d="M1308.7 1263.19 Q1305.09 1263.19 1303.27 1266.76 Q1301.46 1270.3 1301.46 1277.43 Q1301.46 1284.54 1303.27 1288.1 Q1305.09 1291.64 1308.7 1291.64 Q1312.34 1291.64 1314.14 1288.1 Q1315.97 1284.54 1315.97 1277.43 Q1315.97 1270.3 1314.14 1266.76 Q1312.34 1263.19 1308.7 1263.19 M1308.7 1259.49 Q1314.51 1259.49 1317.57 1264.1 Q1320.65 1268.68 1320.65 1277.43 Q1320.65 1286.16 1317.57 1290.76 Q1314.51 1295.35 1308.7 1295.35 Q1302.89 1295.35 1299.82 1290.76 Q1296.76 1286.16 1296.76 1277.43 Q1296.76 1268.68 1299.82 1264.1 Q1302.89 1259.49 1308.7 1259.49 Z" fill="#000000" fill-rule="nonzero" fill-opacity="1" /><path clip-path="url(#clip260)" d="M1750.92 1290.74 L1767.24 1290.74 L1767.24 1294.67 L1745.3 1294.67 L1745.3 1290.74 Q1747.96 1287.99 1752.54 1283.36 Q1757.15 1278.7 1758.33 1277.36 Q1760.58 1274.84 1761.46 1273.1 Q1762.36 1271.34 1762.36 1269.65 Q1762.36 1266.9 1760.42 1265.16 Q1758.49 1263.42 1755.39 1263.42 Q1753.19 1263.42 1750.74 1264.19 Q1748.31 1264.95 1745.53 1266.5 L1745.53 1261.78 Q1748.36 1260.65 1750.81 1260.07 Q1753.26 1259.49 1755.3 1259.49 Q1760.67 1259.49 1763.86 1262.17 Q1767.06 1264.86 1767.06 1269.35 Q1767.06 1271.48 1766.25 1273.4 Q1765.46 1275.3 1763.35 1277.89 Q1762.78 1278.56 1759.67 1281.78 Q1756.57 1284.98 1750.92 1290.74 Z" fill="#000000" fill-rule="nonzero" fill-opacity="1" /><path clip-path="url(#clip260)" d="M1787.06 1263.19 Q1783.45 1263.19 1781.62 1266.76 Q1779.81 1270.3 1779.81 1277.43 Q1779.81 1284.54 1781.62 1288.1 Q1783.45 1291.64 1787.06 1291.64 Q1790.69 1291.64 1792.5 1288.1 Q1794.33 1284.54 1794.33 1277.43 Q1794.33 1270.3 1792.5 1266.76 Q1790.69 1263.19 1787.06 1263.19 M1787.06 1259.49 Q1792.87 1259.49 1795.92 1264.1 Q1799 1268.68 1799 1277.43 Q1799 1286.16 1795.92 1290.76 Q1792.87 1295.35 1787.06 1295.35 Q1781.25 1295.35 1778.17 1290.76 Q1775.11 1286.16 1775.11 1277.43 Q1775.11 1268.68 1778.17 1264.1 Q1781.25 1259.49 1787.06 1259.49 Z" fill="#000000" fill-rule="nonzero" fill-opacity="1" /><path clip-path="url(#clip260)" d="M1817.22 1263.19 Q1813.61 1263.19 1811.78 1266.76 Q1809.98 1270.3 1809.98 1277.43 Q1809.98 1284.54 1811.78 1288.1 Q1813.61 1291.64 1817.22 1291.64 Q1820.85 1291.64 1822.66 1288.1 Q1824.49 1284.54 1824.49 1277.43 Q1824.49 1270.3 1822.66 1266.76 Q1820.85 1263.19 1817.22 1263.19 M1817.22 1259.49 Q1823.03 1259.49 1826.09 1264.1 Q1829.16 1268.68 1829.16 1277.43 Q1829.16 1286.16 1826.09 1290.76 Q1823.03 1295.35 1817.22 1295.35 Q1811.41 1295.35 1808.33 1290.76 Q1805.28 1286.16 1805.28 1277.43 Q1805.28 1268.68 1808.33 1264.1 Q1811.41 1259.49 1817.22 1259.49 Z" fill="#000000" fill-rule="nonzero" fill-opacity="1" /><path clip-path="url(#clip260)" d="M1847.38 1263.19 Q1843.77 1263.19 1841.94 1266.76 Q1840.14 1270.3 1840.14 1277.43 Q1840.14 1284.54 1841.94 1288.1 Q1843.77 1291.64 1847.38 1291.64 Q1851.02 1291.64 1852.82 1288.1 Q1854.65 1284.54 1854.65 1277.43 Q1854.65 1270.3 1852.82 1266.76 Q1851.02 1263.19 1847.38 1263.19 M1847.38 1259.49 Q1853.19 1259.49 1856.25 1264.1 Q1859.33 1268.68 1859.33 1277.43 Q1859.33 1286.16 1856.25 1290.76 Q1853.19 1295.35 1847.38 1295.35 Q1841.57 1295.35 1838.49 1290.76 Q1835.44 1286.16 1835.44 1277.43 Q1835.44 1268.68 1838.49 1264.1 Q1841.57 1259.49 1847.38 1259.49 Z" fill="#000000" fill-rule="nonzero" fill-opacity="1" /><polyline clip-path="url(#clip260)" style="stroke:#000000; stroke-linecap:round; stroke-linejoin:round; stroke-width:4; stroke-opacity:1; fill:none" points="109.297,1234.58 109.297,47.2441 "/>
<polyline clip-path="url(#clip260)" style="stroke:#000000; stroke-linecap:round; stroke-linejoin:round; stroke-width:4; stroke-opacity:1; fill:none" points="109.297,1234.58 128.195,1234.58 "/>
<polyline clip-path="url(#clip260)" style="stroke:#000000; stroke-linecap:round; stroke-linejoin:round; stroke-width:4; stroke-opacity:1; fill:none" points="109.297,1036.69 128.195,1036.69 "/>
<polyline clip-path="url(#clip260)" style="stroke:#000000; stroke-linecap:round; stroke-linejoin:round; stroke-width:4; stroke-opacity:1; fill:none" points="109.297,838.801 128.195,838.801 "/>
<polyline clip-path="url(#clip260)" style="stroke:#000000; stroke-linecap:round; stroke-linejoin:round; stroke-width:4; stroke-opacity:1; fill:none" points="109.297,640.911 128.195,640.911 "/>
<polyline clip-path="url(#clip260)" style="stroke:#000000; stroke-linecap:round; stroke-linejoin:round; stroke-width:4; stroke-opacity:1; fill:none" points="109.297,443.022 128.195,443.022 "/>
<polyline clip-path="url(#clip260)" style="stroke:#000000; stroke-linecap:round; stroke-linejoin:round; stroke-width:4; stroke-opacity:1; fill:none" points="109.297,245.133 128.195,245.133 "/>
<polyline clip-path="url(#clip260)" style="stroke:#000000; stroke-linecap:round; stroke-linejoin:round; stroke-width:4; stroke-opacity:1; fill:none" points="109.297,47.2441 128.195,47.2441 "/>
<path clip-path="url(#clip260)" d="M65.6728 1220.38 Q62.0617 1220.38 60.233 1223.94 Q58.4275 1227.48 58.4275 1234.61 Q58.4275 1241.72 60.233 1245.28 Q62.0617 1248.83 65.6728 1248.83 Q69.307 1248.83 71.1126 1245.28 Q72.9413 1241.72 72.9413 1234.61 Q72.9413 1227.48 71.1126 1223.94 Q69.307 1220.38 65.6728 1220.38 M65.6728 1216.67 Q71.4829 1216.67 74.5385 1221.28 Q77.6172 1225.86 77.6172 1234.61 Q77.6172 1243.34 74.5385 1247.95 Q71.4829 1252.53 65.6728 1252.53 Q59.8626 1252.53 56.784 1247.95 Q53.7284 1243.34 53.7284 1234.61 Q53.7284 1225.86 56.784 1221.28 Q59.8626 1216.67 65.6728 1216.67 Z" fill="#000000" fill-rule="nonzero" fill-opacity="1" /><path clip-path="url(#clip260)" d="M57.7099 1050.03 L65.3487 1050.03 L65.3487 1023.67 L57.0386 1025.34 L57.0386 1021.08 L65.3024 1019.41 L69.9783 1019.41 L69.9783 1050.03 L77.6172 1050.03 L77.6172 1053.97 L57.7099 1053.97 L57.7099 1050.03 Z" fill="#000000" fill-rule="nonzero" fill-opacity="1" /><path clip-path="url(#clip260)" d="M61.2978 852.145 L77.6172 852.145 L77.6172 856.081 L55.6728 856.081 L55.6728 852.145 Q58.3349 849.391 62.9182 844.761 Q67.5246 840.108 68.7052 838.766 Q70.9505 836.243 71.8302 834.507 Q72.7329 832.747 72.7329 831.058 Q72.7329 828.303 70.7885 826.567 Q68.8672 824.831 65.7654 824.831 Q63.5663 824.831 61.1126 825.595 Q58.6821 826.358 55.9043 827.909 L55.9043 823.187 Q58.7284 822.053 61.1821 821.474 Q63.6358 820.896 65.6728 820.896 Q71.0431 820.896 74.2376 823.581 Q77.432 826.266 77.432 830.757 Q77.432 832.886 76.6218 834.808 Q75.8348 836.706 73.7283 839.298 Q73.1496 839.97 70.0478 843.187 Q66.9459 846.382 61.2978 852.145 Z" fill="#000000" fill-rule="nonzero" fill-opacity="1" /><path clip-path="url(#clip260)" d="M70.4876 639.557 Q73.844 640.275 75.719 642.543 Q77.6172 644.812 77.6172 648.145 Q77.6172 653.261 74.0987 656.062 Q70.5802 658.863 64.0987 658.863 Q61.9228 658.863 59.608 658.423 Q57.3164 658.006 54.8627 657.15 L54.8627 652.636 Q56.8071 653.77 59.1219 654.349 Q61.4367 654.928 63.9598 654.928 Q68.358 654.928 70.6496 653.191 Q72.9644 651.455 72.9644 648.145 Q72.9644 645.09 70.8117 643.377 Q68.682 641.641 64.8626 641.641 L60.8349 641.641 L60.8349 637.798 L65.0478 637.798 Q68.4969 637.798 70.3255 636.432 Q72.1542 635.043 72.1542 632.451 Q72.1542 629.789 70.2561 628.377 Q68.3811 626.942 64.8626 626.942 Q62.9413 626.942 60.7423 627.358 Q58.5432 627.775 55.9043 628.655 L55.9043 624.488 Q58.5664 623.747 60.8812 623.377 Q63.2191 623.006 65.2793 623.006 Q70.6033 623.006 73.7052 625.437 Q76.807 627.844 76.807 631.965 Q76.807 634.835 75.1635 636.826 Q73.52 638.793 70.4876 639.557 Z" fill="#000000" fill-rule="nonzero" fill-opacity="1" /><path clip-path="url(#clip260)" d="M68.0339 429.816 L56.2284 448.265 L68.0339 448.265 L68.0339 429.816 M66.807 425.742 L72.6866 425.742 L72.6866 448.265 L77.6172 448.265 L77.6172 452.154 L72.6866 452.154 L72.6866 460.302 L68.0339 460.302 L68.0339 452.154 L52.4321 452.154 L52.4321 447.64 L66.807 425.742 Z" fill="#000000" fill-rule="nonzero" fill-opacity="1" /><path clip-path="url(#clip260)" d="M56.7145 227.853 L75.0709 227.853 L75.0709 231.788 L60.9969 231.788 L60.9969 240.261 Q62.0154 239.913 63.0339 239.751 Q64.0524 239.566 65.0709 239.566 Q70.858 239.566 74.2376 242.737 Q77.6172 245.909 77.6172 251.325 Q77.6172 256.904 74.145 260.006 Q70.6728 263.085 64.3534 263.085 Q62.1774 263.085 59.9089 262.714 Q57.6636 262.344 55.2562 261.603 L55.2562 256.904 Q57.3395 258.038 59.5617 258.594 Q61.7839 259.149 64.2608 259.149 Q68.2654 259.149 70.6033 257.043 Q72.9413 254.936 72.9413 251.325 Q72.9413 247.714 70.6033 245.608 Q68.2654 243.501 64.2608 243.501 Q62.3858 243.501 60.5108 243.918 Q58.6589 244.335 56.7145 245.214 L56.7145 227.853 Z" fill="#000000" fill-rule="nonzero" fill-opacity="1" /><path clip-path="url(#clip260)" d="M66.0895 45.3807 Q62.9413 45.3807 61.0895 47.5334 Q59.2608 49.6862 59.2608 53.4362 Q59.2608 57.163 61.0895 59.3389 Q62.9413 61.4917 66.0895 61.4917 Q69.2376 61.4917 71.0663 59.3389 Q72.9181 57.163 72.9181 53.4362 Q72.9181 49.6862 71.0663 47.5334 Q69.2376 45.3807 66.0895 45.3807 M75.3718 30.728 L75.3718 34.9872 Q73.6126 34.1539 71.807 33.7141 Q70.0246 33.2743 68.2654 33.2743 Q63.6358 33.2743 61.1821 36.3992 Q58.7515 39.5242 58.4043 45.8436 Q59.77 43.8298 61.8302 42.765 Q63.8904 41.677 66.3672 41.677 Q71.5755 41.677 74.5848 44.8483 Q77.6172 47.9964 77.6172 53.4362 Q77.6172 58.7602 74.469 61.9778 Q71.3209 65.1954 66.0895 65.1954 Q60.0941 65.1954 56.9228 60.6121 Q53.7516 56.0056 53.7516 47.2788 Q53.7516 39.0844 57.6404 34.2233 Q61.5293 29.3391 68.0802 29.3391 Q69.8394 29.3391 71.6218 29.6863 Q73.4274 30.0335 75.3718 30.728 Z" fill="#000000" fill-rule="nonzero" fill-opacity="1" /><path clip-path="url(#clip261)" d="M216.851 1036.69 L216.851 1234.58 L225.456 1234.58 L225.456 1036.69 L216.851 1036.69 L216.851 1036.69  Z" fill="#009af9" fill-rule="evenodd" fill-opacity="1"/>
<polyline clip-path="url(#clip261)" style="stroke:#000000; stroke-linecap:round; stroke-linejoin:round; stroke-width:4; stroke-opacity:1; fill:none" points="216.851,1036.69 216.851,1234.58 225.456,1234.58 225.456,1036.69 216.851,1036.69 "/>
<path clip-path="url(#clip261)" d="M227.607 443.022 L227.607 1234.58 L236.212 1234.58 L236.212 443.022 L227.607 443.022 L227.607 443.022  Z" fill="#009af9" fill-rule="evenodd" fill-opacity="1"/>
<polyline clip-path="url(#clip261)" style="stroke:#000000; stroke-linecap:round; stroke-linejoin:round; stroke-width:4; stroke-opacity:1; fill:none" points="227.607,443.022 227.607,1234.58 236.212,1234.58 236.212,443.022 227.607,443.022 "/>
<path clip-path="url(#clip261)" d="M259.876 1036.69 L259.876 1234.58 L268.481 1234.58 L268.481 1036.69 L259.876 1036.69 L259.876 1036.69  Z" fill="#009af9" fill-rule="evenodd" fill-opacity="1"/>
<polyline clip-path="url(#clip261)" style="stroke:#000000; stroke-linecap:round; stroke-linejoin:round; stroke-width:4; stroke-opacity:1; fill:none" points="259.876,1036.69 259.876,1234.58 268.481,1234.58 268.481,1036.69 259.876,1036.69 "/>
<path clip-path="url(#clip261)" d="M270.632 1036.69 L270.632 1234.58 L279.237 1234.58 L279.237 1036.69 L270.632 1036.69 L270.632 1036.69  Z" fill="#009af9" fill-rule="evenodd" fill-opacity="1"/>
<polyline clip-path="url(#clip261)" style="stroke:#000000; stroke-linecap:round; stroke-linejoin:round; stroke-width:4; stroke-opacity:1; fill:none" points="270.632,1036.69 270.632,1234.58 279.237,1234.58 279.237,1036.69 270.632,1036.69 "/>
<path clip-path="url(#clip261)" d="M292.144 640.911 L292.144 1234.58 L300.749 1234.58 L300.749 640.911 L292.144 640.911 L292.144 640.911  Z" fill="#009af9" fill-rule="evenodd" fill-opacity="1"/>
<polyline clip-path="url(#clip261)" style="stroke:#000000; stroke-linecap:round; stroke-linejoin:round; stroke-width:4; stroke-opacity:1; fill:none" points="292.144,640.911 292.144,1234.58 300.749,1234.58 300.749,640.911 292.144,640.911 "/>
<path clip-path="url(#clip261)" d="M302.9 443.022 L302.9 1234.58 L311.505 1234.58 L311.505 443.022 L302.9 443.022 L302.9 443.022  Z" fill="#009af9" fill-rule="evenodd" fill-opacity="1"/>
<polyline clip-path="url(#clip261)" style="stroke:#000000; stroke-linecap:round; stroke-linejoin:round; stroke-width:4; stroke-opacity:1; fill:none" points="302.9,443.022 302.9,1234.58 311.505,1234.58 311.505,443.022 302.9,443.022 "/>
<path clip-path="url(#clip261)" d="M313.657 1036.69 L313.657 1234.58 L322.262 1234.58 L322.262 1036.69 L313.657 1036.69 L313.657 1036.69  Z" fill="#009af9" fill-rule="evenodd" fill-opacity="1"/>
<polyline clip-path="url(#clip261)" style="stroke:#000000; stroke-linecap:round; stroke-linejoin:round; stroke-width:4; stroke-opacity:1; fill:none" points="313.657,1036.69 313.657,1234.58 322.262,1234.58 322.262,1036.69 313.657,1036.69 "/>
<path clip-path="url(#clip261)" d="M324.413 1036.69 L324.413 1234.58 L333.018 1234.58 L333.018 1036.69 L324.413 1036.69 L324.413 1036.69  Z" fill="#009af9" fill-rule="evenodd" fill-opacity="1"/>
<polyline clip-path="url(#clip261)" style="stroke:#000000; stroke-linecap:round; stroke-linejoin:round; stroke-width:4; stroke-opacity:1; fill:none" points="324.413,1036.69 324.413,1234.58 333.018,1234.58 333.018,1036.69 324.413,1036.69 "/>
<path clip-path="url(#clip261)" d="M335.169 443.022 L335.169 1234.58 L343.774 1234.58 L343.774 443.022 L335.169 443.022 L335.169 443.022  Z" fill="#009af9" fill-rule="evenodd" fill-opacity="1"/>
<polyline clip-path="url(#clip261)" style="stroke:#000000; stroke-linecap:round; stroke-linejoin:round; stroke-width:4; stroke-opacity:1; fill:none" points="335.169,443.022 335.169,1234.58 343.774,1234.58 343.774,443.022 335.169,443.022 "/>
<path clip-path="url(#clip261)" d="M345.925 1036.69 L345.925 1234.58 L354.53 1234.58 L354.53 1036.69 L345.925 1036.69 L345.925 1036.69  Z" fill="#009af9" fill-rule="evenodd" fill-opacity="1"/>
<polyline clip-path="url(#clip261)" style="stroke:#000000; stroke-linecap:round; stroke-linejoin:round; stroke-width:4; stroke-opacity:1; fill:none" points="345.925,1036.69 345.925,1234.58 354.53,1234.58 354.53,1036.69 345.925,1036.69 "/>
<path clip-path="url(#clip261)" d="M367.438 1036.69 L367.438 1234.58 L376.042 1234.58 L376.042 1036.69 L367.438 1036.69 L367.438 1036.69  Z" fill="#009af9" fill-rule="evenodd" fill-opacity="1"/>
<polyline clip-path="url(#clip261)" style="stroke:#000000; stroke-linecap:round; stroke-linejoin:round; stroke-width:4; stroke-opacity:1; fill:none" points="367.438,1036.69 367.438,1234.58 376.042,1234.58 376.042,1036.69 367.438,1036.69 "/>
<path clip-path="url(#clip261)" d="M378.194 838.801 L378.194 1234.58 L386.799 1234.58 L386.799 838.801 L378.194 838.801 L378.194 838.801  Z" fill="#009af9" fill-rule="evenodd" fill-opacity="1"/>
<polyline clip-path="url(#clip261)" style="stroke:#000000; stroke-linecap:round; stroke-linejoin:round; stroke-width:4; stroke-opacity:1; fill:none" points="378.194,838.801 378.194,1234.58 386.799,1234.58 386.799,838.801 378.194,838.801 "/>
<path clip-path="url(#clip261)" d="M388.95 838.801 L388.95 1234.58 L397.555 1234.58 L397.555 838.801 L388.95 838.801 L388.95 838.801  Z" fill="#009af9" fill-rule="evenodd" fill-opacity="1"/>
<polyline clip-path="url(#clip261)" style="stroke:#000000; stroke-linecap:round; stroke-linejoin:round; stroke-width:4; stroke-opacity:1; fill:none" points="388.95,838.801 388.95,1234.58 397.555,1234.58 397.555,838.801 388.95,838.801 "/>
<path clip-path="url(#clip261)" d="M399.706 1036.69 L399.706 1234.58 L408.311 1234.58 L408.311 1036.69 L399.706 1036.69 L399.706 1036.69  Z" fill="#009af9" fill-rule="evenodd" fill-opacity="1"/>
<polyline clip-path="url(#clip261)" style="stroke:#000000; stroke-linecap:round; stroke-linejoin:round; stroke-width:4; stroke-opacity:1; fill:none" points="399.706,1036.69 399.706,1234.58 408.311,1234.58 408.311,1036.69 399.706,1036.69 "/>
<path clip-path="url(#clip261)" d="M431.975 1036.69 L431.975 1234.58 L440.58 1234.58 L440.58 1036.69 L431.975 1036.69 L431.975 1036.69  Z" fill="#009af9" fill-rule="evenodd" fill-opacity="1"/>
<polyline clip-path="url(#clip261)" style="stroke:#000000; stroke-linecap:round; stroke-linejoin:round; stroke-width:4; stroke-opacity:1; fill:none" points="431.975,1036.69 431.975,1234.58 440.58,1234.58 440.58,1036.69 431.975,1036.69 "/>
<path clip-path="url(#clip261)" d="M464.243 838.801 L464.243 1234.58 L472.848 1234.58 L472.848 838.801 L464.243 838.801 L464.243 838.801  Z" fill="#009af9" fill-rule="evenodd" fill-opacity="1"/>
<polyline clip-path="url(#clip261)" style="stroke:#000000; stroke-linecap:round; stroke-linejoin:round; stroke-width:4; stroke-opacity:1; fill:none" points="464.243,838.801 464.243,1234.58 472.848,1234.58 472.848,838.801 464.243,838.801 "/>
<path clip-path="url(#clip261)" d="M496.512 838.801 L496.512 1234.58 L505.117 1234.58 L505.117 838.801 L496.512 838.801 L496.512 838.801  Z" fill="#009af9" fill-rule="evenodd" fill-opacity="1"/>
<polyline clip-path="url(#clip261)" style="stroke:#000000; stroke-linecap:round; stroke-linejoin:round; stroke-width:4; stroke-opacity:1; fill:none" points="496.512,838.801 496.512,1234.58 505.117,1234.58 505.117,838.801 496.512,838.801 "/>
<path clip-path="url(#clip261)" d="M507.268 1036.69 L507.268 1234.58 L515.873 1234.58 L515.873 1036.69 L507.268 1036.69 L507.268 1036.69  Z" fill="#009af9" fill-rule="evenodd" fill-opacity="1"/>
<polyline clip-path="url(#clip261)" style="stroke:#000000; stroke-linecap:round; stroke-linejoin:round; stroke-width:4; stroke-opacity:1; fill:none" points="507.268,1036.69 507.268,1234.58 515.873,1234.58 515.873,1036.69 507.268,1036.69 "/>
<path clip-path="url(#clip261)" d="M518.024 1036.69 L518.024 1234.58 L526.629 1234.58 L526.629 1036.69 L518.024 1036.69 L518.024 1036.69  Z" fill="#009af9" fill-rule="evenodd" fill-opacity="1"/>
<polyline clip-path="url(#clip261)" style="stroke:#000000; stroke-linecap:round; stroke-linejoin:round; stroke-width:4; stroke-opacity:1; fill:none" points="518.024,1036.69 518.024,1234.58 526.629,1234.58 526.629,1036.69 518.024,1036.69 "/>
<path clip-path="url(#clip261)" d="M561.049 1036.69 L561.049 1234.58 L569.654 1234.58 L569.654 1036.69 L561.049 1036.69 L561.049 1036.69  Z" fill="#009af9" fill-rule="evenodd" fill-opacity="1"/>
<polyline clip-path="url(#clip261)" style="stroke:#000000; stroke-linecap:round; stroke-linejoin:round; stroke-width:4; stroke-opacity:1; fill:none" points="561.049,1036.69 561.049,1234.58 569.654,1234.58 569.654,1036.69 561.049,1036.69 "/>
<path clip-path="url(#clip261)" d="M571.805 1036.69 L571.805 1234.58 L580.41 1234.58 L580.41 1036.69 L571.805 1036.69 L571.805 1036.69  Z" fill="#009af9" fill-rule="evenodd" fill-opacity="1"/>
<polyline clip-path="url(#clip261)" style="stroke:#000000; stroke-linecap:round; stroke-linejoin:round; stroke-width:4; stroke-opacity:1; fill:none" points="571.805,1036.69 571.805,1234.58 580.41,1234.58 580.41,1036.69 571.805,1036.69 "/>
<path clip-path="url(#clip261)" d="M593.317 640.911 L593.317 1234.58 L601.922 1234.58 L601.922 640.911 L593.317 640.911 L593.317 640.911  Z" fill="#009af9" fill-rule="evenodd" fill-opacity="1"/>
<polyline clip-path="url(#clip261)" style="stroke:#000000; stroke-linecap:round; stroke-linejoin:round; stroke-width:4; stroke-opacity:1; fill:none" points="593.317,640.911 593.317,1234.58 601.922,1234.58 601.922,640.911 593.317,640.911 "/>
<path clip-path="url(#clip261)" d="M647.098 1036.69 L647.098 1234.58 L655.703 1234.58 L655.703 1036.69 L647.098 1036.69 L647.098 1036.69  Z" fill="#009af9" fill-rule="evenodd" fill-opacity="1"/>
<polyline clip-path="url(#clip261)" style="stroke:#000000; stroke-linecap:round; stroke-linejoin:round; stroke-width:4; stroke-opacity:1; fill:none" points="647.098,1036.69 647.098,1234.58 655.703,1234.58 655.703,1036.69 647.098,1036.69 "/>
<path clip-path="url(#clip261)" d="M657.855 1036.69 L657.855 1234.58 L666.46 1234.58 L666.46 1036.69 L657.855 1036.69 L657.855 1036.69  Z" fill="#009af9" fill-rule="evenodd" fill-opacity="1"/>
<polyline clip-path="url(#clip261)" style="stroke:#000000; stroke-linecap:round; stroke-linejoin:round; stroke-width:4; stroke-opacity:1; fill:none" points="657.855,1036.69 657.855,1234.58 666.46,1234.58 666.46,1036.69 657.855,1036.69 "/>
<path clip-path="url(#clip261)" d="M679.367 838.801 L679.367 1234.58 L687.972 1234.58 L687.972 838.801 L679.367 838.801 L679.367 838.801  Z" fill="#009af9" fill-rule="evenodd" fill-opacity="1"/>
<polyline clip-path="url(#clip261)" style="stroke:#000000; stroke-linecap:round; stroke-linejoin:round; stroke-width:4; stroke-opacity:1; fill:none" points="679.367,838.801 679.367,1234.58 687.972,1234.58 687.972,838.801 679.367,838.801 "/>
<path clip-path="url(#clip261)" d="M690.123 1036.69 L690.123 1234.58 L698.728 1234.58 L698.728 1036.69 L690.123 1036.69 L690.123 1036.69  Z" fill="#009af9" fill-rule="evenodd" fill-opacity="1"/>
<polyline clip-path="url(#clip261)" style="stroke:#000000; stroke-linecap:round; stroke-linejoin:round; stroke-width:4; stroke-opacity:1; fill:none" points="690.123,1036.69 690.123,1234.58 698.728,1234.58 698.728,1036.69 690.123,1036.69 "/>
<path clip-path="url(#clip261)" d="M700.879 1036.69 L700.879 1234.58 L709.484 1234.58 L709.484 1036.69 L700.879 1036.69 L700.879 1036.69  Z" fill="#009af9" fill-rule="evenodd" fill-opacity="1"/>
<polyline clip-path="url(#clip261)" style="stroke:#000000; stroke-linecap:round; stroke-linejoin:round; stroke-width:4; stroke-opacity:1; fill:none" points="700.879,1036.69 700.879,1234.58 709.484,1234.58 709.484,1036.69 700.879,1036.69 "/>
<path clip-path="url(#clip261)" d="M722.392 838.801 L722.392 1234.58 L730.997 1234.58 L730.997 838.801 L722.392 838.801 L722.392 838.801  Z" fill="#009af9" fill-rule="evenodd" fill-opacity="1"/>
<polyline clip-path="url(#clip261)" style="stroke:#000000; stroke-linecap:round; stroke-linejoin:round; stroke-width:4; stroke-opacity:1; fill:none" points="722.392,838.801 722.392,1234.58 730.997,1234.58 730.997,838.801 722.392,838.801 "/>
<path clip-path="url(#clip261)" d="M733.148 1036.69 L733.148 1234.58 L741.753 1234.58 L741.753 1036.69 L733.148 1036.69 L733.148 1036.69  Z" fill="#009af9" fill-rule="evenodd" fill-opacity="1"/>
<polyline clip-path="url(#clip261)" style="stroke:#000000; stroke-linecap:round; stroke-linejoin:round; stroke-width:4; stroke-opacity:1; fill:none" points="733.148,1036.69 733.148,1234.58 741.753,1234.58 741.753,1036.69 733.148,1036.69 "/>
<path clip-path="url(#clip261)" d="M743.904 838.801 L743.904 1234.58 L752.509 1234.58 L752.509 838.801 L743.904 838.801 L743.904 838.801  Z" fill="#009af9" fill-rule="evenodd" fill-opacity="1"/>
<polyline clip-path="url(#clip261)" style="stroke:#000000; stroke-linecap:round; stroke-linejoin:round; stroke-width:4; stroke-opacity:1; fill:none" points="743.904,838.801 743.904,1234.58 752.509,1234.58 752.509,838.801 743.904,838.801 "/>
<path clip-path="url(#clip261)" d="M765.417 1036.69 L765.417 1234.58 L774.021 1234.58 L774.021 1036.69 L765.417 1036.69 L765.417 1036.69  Z" fill="#009af9" fill-rule="evenodd" fill-opacity="1"/>
<polyline clip-path="url(#clip261)" style="stroke:#000000; stroke-linecap:round; stroke-linejoin:round; stroke-width:4; stroke-opacity:1; fill:none" points="765.417,1036.69 765.417,1234.58 774.021,1234.58 774.021,1036.69 765.417,1036.69 "/>
<path clip-path="url(#clip261)" d="M776.173 1036.69 L776.173 1234.58 L784.778 1234.58 L784.778 1036.69 L776.173 1036.69 L776.173 1036.69  Z" fill="#009af9" fill-rule="evenodd" fill-opacity="1"/>
<polyline clip-path="url(#clip261)" style="stroke:#000000; stroke-linecap:round; stroke-linejoin:round; stroke-width:4; stroke-opacity:1; fill:none" points="776.173,1036.69 776.173,1234.58 784.778,1234.58 784.778,1036.69 776.173,1036.69 "/>
<path clip-path="url(#clip261)" d="M786.929 1036.69 L786.929 1234.58 L795.534 1234.58 L795.534 1036.69 L786.929 1036.69 L786.929 1036.69  Z" fill="#009af9" fill-rule="evenodd" fill-opacity="1"/>
<polyline clip-path="url(#clip261)" style="stroke:#000000; stroke-linecap:round; stroke-linejoin:round; stroke-width:4; stroke-opacity:1; fill:none" points="786.929,1036.69 786.929,1234.58 795.534,1234.58 795.534,1036.69 786.929,1036.69 "/>
<path clip-path="url(#clip261)" d="M905.247 1036.69 L905.247 1234.58 L913.852 1234.58 L913.852 1036.69 L905.247 1036.69 L905.247 1036.69  Z" fill="#009af9" fill-rule="evenodd" fill-opacity="1"/>
<polyline clip-path="url(#clip261)" style="stroke:#000000; stroke-linecap:round; stroke-linejoin:round; stroke-width:4; stroke-opacity:1; fill:none" points="905.247,1036.69 905.247,1234.58 913.852,1234.58 913.852,1036.69 905.247,1036.69 "/>
<path clip-path="url(#clip261)" d="M916.003 1036.69 L916.003 1234.58 L924.608 1234.58 L924.608 1036.69 L916.003 1036.69 L916.003 1036.69  Z" fill="#009af9" fill-rule="evenodd" fill-opacity="1"/>
<polyline clip-path="url(#clip261)" style="stroke:#000000; stroke-linecap:round; stroke-linejoin:round; stroke-width:4; stroke-opacity:1; fill:none" points="916.003,1036.69 916.003,1234.58 924.608,1234.58 924.608,1036.69 916.003,1036.69 "/>
<path clip-path="url(#clip261)" d="M926.759 1036.69 L926.759 1234.58 L935.364 1234.58 L935.364 1036.69 L926.759 1036.69 L926.759 1036.69  Z" fill="#009af9" fill-rule="evenodd" fill-opacity="1"/>
<polyline clip-path="url(#clip261)" style="stroke:#000000; stroke-linecap:round; stroke-linejoin:round; stroke-width:4; stroke-opacity:1; fill:none" points="926.759,1036.69 926.759,1234.58 935.364,1234.58 935.364,1036.69 926.759,1036.69 "/>
<path clip-path="url(#clip261)" d="M937.516 640.911 L937.516 1234.58 L946.12 1234.58 L946.12 640.911 L937.516 640.911 L937.516 640.911  Z" fill="#009af9" fill-rule="evenodd" fill-opacity="1"/>
<polyline clip-path="url(#clip261)" style="stroke:#000000; stroke-linecap:round; stroke-linejoin:round; stroke-width:4; stroke-opacity:1; fill:none" points="937.516,640.911 937.516,1234.58 946.12,1234.58 946.12,640.911 937.516,640.911 "/>
<path clip-path="url(#clip261)" d="M948.272 1036.69 L948.272 1234.58 L956.877 1234.58 L956.877 1036.69 L948.272 1036.69 L948.272 1036.69  Z" fill="#009af9" fill-rule="evenodd" fill-opacity="1"/>
<polyline clip-path="url(#clip261)" style="stroke:#000000; stroke-linecap:round; stroke-linejoin:round; stroke-width:4; stroke-opacity:1; fill:none" points="948.272,1036.69 948.272,1234.58 956.877,1234.58 956.877,1036.69 948.272,1036.69 "/>
<path clip-path="url(#clip261)" d="M969.784 1036.69 L969.784 1234.58 L978.389 1234.58 L978.389 1036.69 L969.784 1036.69 L969.784 1036.69  Z" fill="#009af9" fill-rule="evenodd" fill-opacity="1"/>
<polyline clip-path="url(#clip261)" style="stroke:#000000; stroke-linecap:round; stroke-linejoin:round; stroke-width:4; stroke-opacity:1; fill:none" points="969.784,1036.69 969.784,1234.58 978.389,1234.58 978.389,1036.69 969.784,1036.69 "/>
<path clip-path="url(#clip261)" d="M991.296 1036.69 L991.296 1234.58 L999.901 1234.58 L999.901 1036.69 L991.296 1036.69 L991.296 1036.69  Z" fill="#009af9" fill-rule="evenodd" fill-opacity="1"/>
<polyline clip-path="url(#clip261)" style="stroke:#000000; stroke-linecap:round; stroke-linejoin:round; stroke-width:4; stroke-opacity:1; fill:none" points="991.296,1036.69 991.296,1234.58 999.901,1234.58 999.901,1036.69 991.296,1036.69 "/>
<path clip-path="url(#clip261)" d="M1002.05 1036.69 L1002.05 1234.58 L1010.66 1234.58 L1010.66 1036.69 L1002.05 1036.69 L1002.05 1036.69  Z" fill="#009af9" fill-rule="evenodd" fill-opacity="1"/>
<polyline clip-path="url(#clip261)" style="stroke:#000000; stroke-linecap:round; stroke-linejoin:round; stroke-width:4; stroke-opacity:1; fill:none" points="1002.05,1036.69 1002.05,1234.58 1010.66,1234.58 1010.66,1036.69 1002.05,1036.69 "/>
<path clip-path="url(#clip261)" d="M1012.81 1036.69 L1012.81 1234.58 L1021.41 1234.58 L1021.41 1036.69 L1012.81 1036.69 L1012.81 1036.69  Z" fill="#009af9" fill-rule="evenodd" fill-opacity="1"/>
<polyline clip-path="url(#clip261)" style="stroke:#000000; stroke-linecap:round; stroke-linejoin:round; stroke-width:4; stroke-opacity:1; fill:none" points="1012.81,1036.69 1012.81,1234.58 1021.41,1234.58 1021.41,1036.69 1012.81,1036.69 "/>
<path clip-path="url(#clip261)" d="M1023.57 1036.69 L1023.57 1234.58 L1032.17 1234.58 L1032.17 1036.69 L1023.57 1036.69 L1023.57 1036.69  Z" fill="#009af9" fill-rule="evenodd" fill-opacity="1"/>
<polyline clip-path="url(#clip261)" style="stroke:#000000; stroke-linecap:round; stroke-linejoin:round; stroke-width:4; stroke-opacity:1; fill:none" points="1023.57,1036.69 1023.57,1234.58 1032.17,1234.58 1032.17,1036.69 1023.57,1036.69 "/>
<path clip-path="url(#clip261)" d="M1055.83 838.801 L1055.83 1234.58 L1064.44 1234.58 L1064.44 838.801 L1055.83 838.801 L1055.83 838.801  Z" fill="#009af9" fill-rule="evenodd" fill-opacity="1"/>
<polyline clip-path="url(#clip261)" style="stroke:#000000; stroke-linecap:round; stroke-linejoin:round; stroke-width:4; stroke-opacity:1; fill:none" points="1055.83,838.801 1055.83,1234.58 1064.44,1234.58 1064.44,838.801 1055.83,838.801 "/>
<path clip-path="url(#clip261)" d="M1066.59 1036.69 L1066.59 1234.58 L1075.19 1234.58 L1075.19 1036.69 L1066.59 1036.69 L1066.59 1036.69  Z" fill="#009af9" fill-rule="evenodd" fill-opacity="1"/>
<polyline clip-path="url(#clip261)" style="stroke:#000000; stroke-linecap:round; stroke-linejoin:round; stroke-width:4; stroke-opacity:1; fill:none" points="1066.59,1036.69 1066.59,1234.58 1075.19,1234.58 1075.19,1036.69 1066.59,1036.69 "/>
<path clip-path="url(#clip261)" d="M1077.35 1036.69 L1077.35 1234.58 L1085.95 1234.58 L1085.95 1036.69 L1077.35 1036.69 L1077.35 1036.69  Z" fill="#009af9" fill-rule="evenodd" fill-opacity="1"/>
<polyline clip-path="url(#clip261)" style="stroke:#000000; stroke-linecap:round; stroke-linejoin:round; stroke-width:4; stroke-opacity:1; fill:none" points="1077.35,1036.69 1077.35,1234.58 1085.95,1234.58 1085.95,1036.69 1077.35,1036.69 "/>
<path clip-path="url(#clip261)" d="M1088.1 838.801 L1088.1 1234.58 L1096.71 1234.58 L1096.71 838.801 L1088.1 838.801 L1088.1 838.801  Z" fill="#009af9" fill-rule="evenodd" fill-opacity="1"/>
<polyline clip-path="url(#clip261)" style="stroke:#000000; stroke-linecap:round; stroke-linejoin:round; stroke-width:4; stroke-opacity:1; fill:none" points="1088.1,838.801 1088.1,1234.58 1096.71,1234.58 1096.71,838.801 1088.1,838.801 "/>
<path clip-path="url(#clip261)" d="M1098.86 1036.69 L1098.86 1234.58 L1107.46 1234.58 L1107.46 1036.69 L1098.86 1036.69 L1098.86 1036.69  Z" fill="#009af9" fill-rule="evenodd" fill-opacity="1"/>
<polyline clip-path="url(#clip261)" style="stroke:#000000; stroke-linecap:round; stroke-linejoin:round; stroke-width:4; stroke-opacity:1; fill:none" points="1098.86,1036.69 1098.86,1234.58 1107.46,1234.58 1107.46,1036.69 1098.86,1036.69 "/>
<path clip-path="url(#clip261)" d="M1120.37 1036.69 L1120.37 1234.58 L1128.98 1234.58 L1128.98 1036.69 L1120.37 1036.69 L1120.37 1036.69  Z" fill="#009af9" fill-rule="evenodd" fill-opacity="1"/>
<polyline clip-path="url(#clip261)" style="stroke:#000000; stroke-linecap:round; stroke-linejoin:round; stroke-width:4; stroke-opacity:1; fill:none" points="1120.37,1036.69 1120.37,1234.58 1128.98,1234.58 1128.98,1036.69 1120.37,1036.69 "/>
<path clip-path="url(#clip261)" d="M1131.13 640.911 L1131.13 1234.58 L1139.73 1234.58 L1139.73 640.911 L1131.13 640.911 L1131.13 640.911  Z" fill="#009af9" fill-rule="evenodd" fill-opacity="1"/>
<polyline clip-path="url(#clip261)" style="stroke:#000000; stroke-linecap:round; stroke-linejoin:round; stroke-width:4; stroke-opacity:1; fill:none" points="1131.13,640.911 1131.13,1234.58 1139.73,1234.58 1139.73,640.911 1131.13,640.911 "/>
<path clip-path="url(#clip261)" d="M1141.88 640.911 L1141.88 1234.58 L1150.49 1234.58 L1150.49 640.911 L1141.88 640.911 L1141.88 640.911  Z" fill="#009af9" fill-rule="evenodd" fill-opacity="1"/>
<polyline clip-path="url(#clip261)" style="stroke:#000000; stroke-linecap:round; stroke-linejoin:round; stroke-width:4; stroke-opacity:1; fill:none" points="1141.88,640.911 1141.88,1234.58 1150.49,1234.58 1150.49,640.911 1141.88,640.911 "/>
<path clip-path="url(#clip261)" d="M1152.64 838.801 L1152.64 1234.58 L1161.24 1234.58 L1161.24 838.801 L1152.64 838.801 L1152.64 838.801  Z" fill="#009af9" fill-rule="evenodd" fill-opacity="1"/>
<polyline clip-path="url(#clip261)" style="stroke:#000000; stroke-linecap:round; stroke-linejoin:round; stroke-width:4; stroke-opacity:1; fill:none" points="1152.64,838.801 1152.64,1234.58 1161.24,1234.58 1161.24,838.801 1152.64,838.801 "/>
<path clip-path="url(#clip261)" d="M1227.93 1036.69 L1227.93 1234.58 L1236.54 1234.58 L1236.54 1036.69 L1227.93 1036.69 L1227.93 1036.69  Z" fill="#009af9" fill-rule="evenodd" fill-opacity="1"/>
<polyline clip-path="url(#clip261)" style="stroke:#000000; stroke-linecap:round; stroke-linejoin:round; stroke-width:4; stroke-opacity:1; fill:none" points="1227.93,1036.69 1227.93,1234.58 1236.54,1234.58 1236.54,1036.69 1227.93,1036.69 "/>
<path clip-path="url(#clip261)" d="M1249.44 640.911 L1249.44 1234.58 L1258.05 1234.58 L1258.05 640.911 L1249.44 640.911 L1249.44 640.911  Z" fill="#009af9" fill-rule="evenodd" fill-opacity="1"/>
<polyline clip-path="url(#clip261)" style="stroke:#000000; stroke-linecap:round; stroke-linejoin:round; stroke-width:4; stroke-opacity:1; fill:none" points="1249.44,640.911 1249.44,1234.58 1258.05,1234.58 1258.05,640.911 1249.44,640.911 "/>
<path clip-path="url(#clip261)" d="M1260.2 443.022 L1260.2 1234.58 L1268.81 1234.58 L1268.81 443.022 L1260.2 443.022 L1260.2 443.022  Z" fill="#009af9" fill-rule="evenodd" fill-opacity="1"/>
<polyline clip-path="url(#clip261)" style="stroke:#000000; stroke-linecap:round; stroke-linejoin:round; stroke-width:4; stroke-opacity:1; fill:none" points="1260.2,443.022 1260.2,1234.58 1268.81,1234.58 1268.81,443.022 1260.2,443.022 "/>
<path clip-path="url(#clip261)" d="M1270.96 1036.69 L1270.96 1234.58 L1279.56 1234.58 L1279.56 1036.69 L1270.96 1036.69 L1270.96 1036.69  Z" fill="#009af9" fill-rule="evenodd" fill-opacity="1"/>
<polyline clip-path="url(#clip261)" style="stroke:#000000; stroke-linecap:round; stroke-linejoin:round; stroke-width:4; stroke-opacity:1; fill:none" points="1270.96,1036.69 1270.96,1234.58 1279.56,1234.58 1279.56,1036.69 1270.96,1036.69 "/>
<path clip-path="url(#clip261)" d="M1281.71 640.911 L1281.71 1234.58 L1290.32 1234.58 L1290.32 640.911 L1281.71 640.911 L1281.71 640.911  Z" fill="#009af9" fill-rule="evenodd" fill-opacity="1"/>
<polyline clip-path="url(#clip261)" style="stroke:#000000; stroke-linecap:round; stroke-linejoin:round; stroke-width:4; stroke-opacity:1; fill:none" points="1281.71,640.911 1281.71,1234.58 1290.32,1234.58 1290.32,640.911 1281.71,640.911 "/>
<path clip-path="url(#clip261)" d="M1292.47 1036.69 L1292.47 1234.58 L1301.07 1234.58 L1301.07 1036.69 L1292.47 1036.69 L1292.47 1036.69  Z" fill="#009af9" fill-rule="evenodd" fill-opacity="1"/>
<polyline clip-path="url(#clip261)" style="stroke:#000000; stroke-linecap:round; stroke-linejoin:round; stroke-width:4; stroke-opacity:1; fill:none" points="1292.47,1036.69 1292.47,1234.58 1301.07,1234.58 1301.07,1036.69 1292.47,1036.69 "/>
<path clip-path="url(#clip261)" d="M1303.23 1036.69 L1303.23 1234.58 L1311.83 1234.58 L1311.83 1036.69 L1303.23 1036.69 L1303.23 1036.69  Z" fill="#009af9" fill-rule="evenodd" fill-opacity="1"/>
<polyline clip-path="url(#clip261)" style="stroke:#000000; stroke-linecap:round; stroke-linejoin:round; stroke-width:4; stroke-opacity:1; fill:none" points="1303.23,1036.69 1303.23,1234.58 1311.83,1234.58 1311.83,1036.69 1303.23,1036.69 "/>
<path clip-path="url(#clip261)" d="M1313.98 838.801 L1313.98 1234.58 L1322.59 1234.58 L1322.59 838.801 L1313.98 838.801 L1313.98 838.801  Z" fill="#009af9" fill-rule="evenodd" fill-opacity="1"/>
<polyline clip-path="url(#clip261)" style="stroke:#000000; stroke-linecap:round; stroke-linejoin:round; stroke-width:4; stroke-opacity:1; fill:none" points="1313.98,838.801 1313.98,1234.58 1322.59,1234.58 1322.59,838.801 1313.98,838.801 "/>
<path clip-path="url(#clip261)" d="M1324.74 443.022 L1324.74 1234.58 L1333.34 1234.58 L1333.34 443.022 L1324.74 443.022 L1324.74 443.022  Z" fill="#009af9" fill-rule="evenodd" fill-opacity="1"/>
<polyline clip-path="url(#clip261)" style="stroke:#000000; stroke-linecap:round; stroke-linejoin:round; stroke-width:4; stroke-opacity:1; fill:none" points="1324.74,443.022 1324.74,1234.58 1333.34,1234.58 1333.34,443.022 1324.74,443.022 "/>
<path clip-path="url(#clip261)" d="M1335.49 838.801 L1335.49 1234.58 L1344.1 1234.58 L1344.1 838.801 L1335.49 838.801 L1335.49 838.801  Z" fill="#009af9" fill-rule="evenodd" fill-opacity="1"/>
<polyline clip-path="url(#clip261)" style="stroke:#000000; stroke-linecap:round; stroke-linejoin:round; stroke-width:4; stroke-opacity:1; fill:none" points="1335.49,838.801 1335.49,1234.58 1344.1,1234.58 1344.1,838.801 1335.49,838.801 "/>
<path clip-path="url(#clip261)" d="M1357.01 1036.69 L1357.01 1234.58 L1365.61 1234.58 L1365.61 1036.69 L1357.01 1036.69 L1357.01 1036.69  Z" fill="#009af9" fill-rule="evenodd" fill-opacity="1"/>
<polyline clip-path="url(#clip261)" style="stroke:#000000; stroke-linecap:round; stroke-linejoin:round; stroke-width:4; stroke-opacity:1; fill:none" points="1357.01,1036.69 1357.01,1234.58 1365.61,1234.58 1365.61,1036.69 1357.01,1036.69 "/>
<path clip-path="url(#clip261)" d="M1389.28 1036.69 L1389.28 1234.58 L1397.88 1234.58 L1397.88 1036.69 L1389.28 1036.69 L1389.28 1036.69  Z" fill="#009af9" fill-rule="evenodd" fill-opacity="1"/>
<polyline clip-path="url(#clip261)" style="stroke:#000000; stroke-linecap:round; stroke-linejoin:round; stroke-width:4; stroke-opacity:1; fill:none" points="1389.28,1036.69 1389.28,1234.58 1397.88,1234.58 1397.88,1036.69 1389.28,1036.69 "/>
<path clip-path="url(#clip261)" d="M1432.3 1036.69 L1432.3 1234.58 L1440.91 1234.58 L1440.91 1036.69 L1432.3 1036.69 L1432.3 1036.69  Z" fill="#009af9" fill-rule="evenodd" fill-opacity="1"/>
<polyline clip-path="url(#clip261)" style="stroke:#000000; stroke-linecap:round; stroke-linejoin:round; stroke-width:4; stroke-opacity:1; fill:none" points="1432.3,1036.69 1432.3,1234.58 1440.91,1234.58 1440.91,1036.69 1432.3,1036.69 "/>
<path clip-path="url(#clip261)" d="M1464.57 1036.69 L1464.57 1234.58 L1473.17 1234.58 L1473.17 1036.69 L1464.57 1036.69 L1464.57 1036.69  Z" fill="#009af9" fill-rule="evenodd" fill-opacity="1"/>
<polyline clip-path="url(#clip261)" style="stroke:#000000; stroke-linecap:round; stroke-linejoin:round; stroke-width:4; stroke-opacity:1; fill:none" points="1464.57,1036.69 1464.57,1234.58 1473.17,1234.58 1473.17,1036.69 1464.57,1036.69 "/>
<path clip-path="url(#clip261)" d="M1507.59 1036.69 L1507.59 1234.58 L1516.2 1234.58 L1516.2 1036.69 L1507.59 1036.69 L1507.59 1036.69  Z" fill="#009af9" fill-rule="evenodd" fill-opacity="1"/>
<polyline clip-path="url(#clip261)" style="stroke:#000000; stroke-linecap:round; stroke-linejoin:round; stroke-width:4; stroke-opacity:1; fill:none" points="1507.59,1036.69 1507.59,1234.58 1516.2,1234.58 1516.2,1036.69 1507.59,1036.69 "/>
<path clip-path="url(#clip261)" d="M1550.62 1036.69 L1550.62 1234.58 L1559.22 1234.58 L1559.22 1036.69 L1550.62 1036.69 L1550.62 1036.69  Z" fill="#009af9" fill-rule="evenodd" fill-opacity="1"/>
<polyline clip-path="url(#clip261)" style="stroke:#000000; stroke-linecap:round; stroke-linejoin:round; stroke-width:4; stroke-opacity:1; fill:none" points="1550.62,1036.69 1550.62,1234.58 1559.22,1234.58 1559.22,1036.69 1550.62,1036.69 "/>
<path clip-path="url(#clip261)" d="M1561.37 1036.69 L1561.37 1234.58 L1569.98 1234.58 L1569.98 1036.69 L1561.37 1036.69 L1561.37 1036.69  Z" fill="#009af9" fill-rule="evenodd" fill-opacity="1"/>
<polyline clip-path="url(#clip261)" style="stroke:#000000; stroke-linecap:round; stroke-linejoin:round; stroke-width:4; stroke-opacity:1; fill:none" points="1561.37,1036.69 1561.37,1234.58 1569.98,1234.58 1569.98,1036.69 1561.37,1036.69 "/>
<path clip-path="url(#clip261)" d="M1582.89 838.801 L1582.89 1234.58 L1591.49 1234.58 L1591.49 838.801 L1582.89 838.801 L1582.89 838.801  Z" fill="#009af9" fill-rule="evenodd" fill-opacity="1"/>
<polyline clip-path="url(#clip261)" style="stroke:#000000; stroke-linecap:round; stroke-linejoin:round; stroke-width:4; stroke-opacity:1; fill:none" points="1582.89,838.801 1582.89,1234.58 1591.49,1234.58 1591.49,838.801 1582.89,838.801 "/>
<path clip-path="url(#clip261)" d="M1615.16 1036.69 L1615.16 1234.58 L1623.76 1234.58 L1623.76 1036.69 L1615.16 1036.69 L1615.16 1036.69  Z" fill="#009af9" fill-rule="evenodd" fill-opacity="1"/>
<polyline clip-path="url(#clip261)" style="stroke:#000000; stroke-linecap:round; stroke-linejoin:round; stroke-width:4; stroke-opacity:1; fill:none" points="1615.16,1036.69 1615.16,1234.58 1623.76,1234.58 1623.76,1036.69 1615.16,1036.69 "/>
<path clip-path="url(#clip261)" d="M1625.91 640.911 L1625.91 1234.58 L1634.52 1234.58 L1634.52 640.911 L1625.91 640.911 L1625.91 640.911  Z" fill="#009af9" fill-rule="evenodd" fill-opacity="1"/>
<polyline clip-path="url(#clip261)" style="stroke:#000000; stroke-linecap:round; stroke-linejoin:round; stroke-width:4; stroke-opacity:1; fill:none" points="1625.91,640.911 1625.91,1234.58 1634.52,1234.58 1634.52,640.911 1625.91,640.911 "/>
<path clip-path="url(#clip261)" d="M1636.67 1036.69 L1636.67 1234.58 L1645.27 1234.58 L1645.27 1036.69 L1636.67 1036.69 L1636.67 1036.69  Z" fill="#009af9" fill-rule="evenodd" fill-opacity="1"/>
<polyline clip-path="url(#clip261)" style="stroke:#000000; stroke-linecap:round; stroke-linejoin:round; stroke-width:4; stroke-opacity:1; fill:none" points="1636.67,1036.69 1636.67,1234.58 1645.27,1234.58 1645.27,1036.69 1636.67,1036.69 "/>
<path clip-path="url(#clip261)" d="M1647.42 1036.69 L1647.42 1234.58 L1656.03 1234.58 L1656.03 1036.69 L1647.42 1036.69 L1647.42 1036.69  Z" fill="#009af9" fill-rule="evenodd" fill-opacity="1"/>
<polyline clip-path="url(#clip261)" style="stroke:#000000; stroke-linecap:round; stroke-linejoin:round; stroke-width:4; stroke-opacity:1; fill:none" points="1647.42,1036.69 1647.42,1234.58 1656.03,1234.58 1656.03,1036.69 1647.42,1036.69 "/>
<path clip-path="url(#clip261)" d="M1658.18 838.801 L1658.18 1234.58 L1666.79 1234.58 L1666.79 838.801 L1658.18 838.801 L1658.18 838.801  Z" fill="#009af9" fill-rule="evenodd" fill-opacity="1"/>
<polyline clip-path="url(#clip261)" style="stroke:#000000; stroke-linecap:round; stroke-linejoin:round; stroke-width:4; stroke-opacity:1; fill:none" points="1658.18,838.801 1658.18,1234.58 1666.79,1234.58 1666.79,838.801 1658.18,838.801 "/>
<path clip-path="url(#clip261)" d="M1668.94 838.801 L1668.94 1234.58 L1677.54 1234.58 L1677.54 838.801 L1668.94 838.801 L1668.94 838.801  Z" fill="#009af9" fill-rule="evenodd" fill-opacity="1"/>
<polyline clip-path="url(#clip261)" style="stroke:#000000; stroke-linecap:round; stroke-linejoin:round; stroke-width:4; stroke-opacity:1; fill:none" points="1668.94,838.801 1668.94,1234.58 1677.54,1234.58 1677.54,838.801 1668.94,838.801 "/>
<path clip-path="url(#clip261)" d="M1679.69 1036.69 L1679.69 1234.58 L1688.3 1234.58 L1688.3 1036.69 L1679.69 1036.69 L1679.69 1036.69  Z" fill="#009af9" fill-rule="evenodd" fill-opacity="1"/>
<polyline clip-path="url(#clip261)" style="stroke:#000000; stroke-linecap:round; stroke-linejoin:round; stroke-width:4; stroke-opacity:1; fill:none" points="1679.69,1036.69 1679.69,1234.58 1688.3,1234.58 1688.3,1036.69 1679.69,1036.69 "/>
<path clip-path="url(#clip261)" d="M1690.45 1036.69 L1690.45 1234.58 L1699.05 1234.58 L1699.05 1036.69 L1690.45 1036.69 L1690.45 1036.69  Z" fill="#009af9" fill-rule="evenodd" fill-opacity="1"/>
<polyline clip-path="url(#clip261)" style="stroke:#000000; stroke-linecap:round; stroke-linejoin:round; stroke-width:4; stroke-opacity:1; fill:none" points="1690.45,1036.69 1690.45,1234.58 1699.05,1234.58 1699.05,1036.69 1690.45,1036.69 "/>
<path clip-path="url(#clip261)" d="M1744.23 1036.69 L1744.23 1234.58 L1752.83 1234.58 L1752.83 1036.69 L1744.23 1036.69 L1744.23 1036.69  Z" fill="#009af9" fill-rule="evenodd" fill-opacity="1"/>
<polyline clip-path="url(#clip261)" style="stroke:#000000; stroke-linecap:round; stroke-linejoin:round; stroke-width:4; stroke-opacity:1; fill:none" points="1744.23,1036.69 1744.23,1234.58 1752.83,1234.58 1752.83,1036.69 1744.23,1036.69 "/>
<path clip-path="url(#clip261)" d="M1754.99 1036.69 L1754.99 1234.58 L1763.59 1234.58 L1763.59 1036.69 L1754.99 1036.69 L1754.99 1036.69  Z" fill="#009af9" fill-rule="evenodd" fill-opacity="1"/>
<polyline clip-path="url(#clip261)" style="stroke:#000000; stroke-linecap:round; stroke-linejoin:round; stroke-width:4; stroke-opacity:1; fill:none" points="1754.99,1036.69 1754.99,1234.58 1763.59,1234.58 1763.59,1036.69 1754.99,1036.69 "/>
<path clip-path="url(#clip261)" d="M1776.5 1036.69 L1776.5 1234.58 L1785.1 1234.58 L1785.1 1036.69 L1776.5 1036.69 L1776.5 1036.69  Z" fill="#009af9" fill-rule="evenodd" fill-opacity="1"/>
<polyline clip-path="url(#clip261)" style="stroke:#000000; stroke-linecap:round; stroke-linejoin:round; stroke-width:4; stroke-opacity:1; fill:none" points="1776.5,1036.69 1776.5,1234.58 1785.1,1234.58 1785.1,1036.69 1776.5,1036.69 "/>
<path clip-path="url(#clip261)" d="M1798.01 1036.69 L1798.01 1234.58 L1806.62 1234.58 L1806.62 1036.69 L1798.01 1036.69 L1798.01 1036.69  Z" fill="#009af9" fill-rule="evenodd" fill-opacity="1"/>
<polyline clip-path="url(#clip261)" style="stroke:#000000; stroke-linecap:round; stroke-linejoin:round; stroke-width:4; stroke-opacity:1; fill:none" points="1798.01,1036.69 1798.01,1234.58 1806.62,1234.58 1806.62,1036.69 1798.01,1036.69 "/>
<path clip-path="url(#clip261)" d="M1808.77 1036.69 L1808.77 1234.58 L1817.37 1234.58 L1817.37 1036.69 L1808.77 1036.69 L1808.77 1036.69  Z" fill="#009af9" fill-rule="evenodd" fill-opacity="1"/>
<polyline clip-path="url(#clip261)" style="stroke:#000000; stroke-linecap:round; stroke-linejoin:round; stroke-width:4; stroke-opacity:1; fill:none" points="1808.77,1036.69 1808.77,1234.58 1817.37,1234.58 1817.37,1036.69 1808.77,1036.69 "/>
<path clip-path="url(#clip261)" d="M1819.52 838.801 L1819.52 1234.58 L1828.13 1234.58 L1828.13 838.801 L1819.52 838.801 L1819.52 838.801  Z" fill="#009af9" fill-rule="evenodd" fill-opacity="1"/>
<polyline clip-path="url(#clip261)" style="stroke:#000000; stroke-linecap:round; stroke-linejoin:round; stroke-width:4; stroke-opacity:1; fill:none" points="1819.52,838.801 1819.52,1234.58 1828.13,1234.58 1828.13,838.801 1819.52,838.801 "/>
<path clip-path="url(#clip261)" d="M1830.28 1036.69 L1830.28 1234.58 L1838.88 1234.58 L1838.88 1036.69 L1830.28 1036.69 L1830.28 1036.69  Z" fill="#009af9" fill-rule="evenodd" fill-opacity="1"/>
<polyline clip-path="url(#clip261)" style="stroke:#000000; stroke-linecap:round; stroke-linejoin:round; stroke-width:4; stroke-opacity:1; fill:none" points="1830.28,1036.69 1830.28,1234.58 1838.88,1234.58 1838.88,1036.69 1830.28,1036.69 "/>
<path clip-path="url(#clip261)" d="M1841.04 1036.69 L1841.04 1234.58 L1849.64 1234.58 L1849.64 1036.69 L1841.04 1036.69 L1841.04 1036.69  Z" fill="#009af9" fill-rule="evenodd" fill-opacity="1"/>
<polyline clip-path="url(#clip261)" style="stroke:#000000; stroke-linecap:round; stroke-linejoin:round; stroke-width:4; stroke-opacity:1; fill:none" points="1841.04,1036.69 1841.04,1234.58 1849.64,1234.58 1849.64,1036.69 1841.04,1036.69 "/>
<path clip-path="url(#clip261)" d="M1851.79 640.911 L1851.79 1234.58 L1860.4 1234.58 L1860.4 640.911 L1851.79 640.911 L1851.79 640.911  Z" fill="#009af9" fill-rule="evenodd" fill-opacity="1"/>
<polyline clip-path="url(#clip261)" style="stroke:#000000; stroke-linecap:round; stroke-linejoin:round; stroke-width:4; stroke-opacity:1; fill:none" points="1851.79,640.911 1851.79,1234.58 1860.4,1234.58 1860.4,640.911 1851.79,640.911 "/>
<path clip-path="url(#clip261)" d="M1862.55 640.911 L1862.55 1234.58 L1871.15 1234.58 L1871.15 640.911 L1862.55 640.911 L1862.55 640.911  Z" fill="#009af9" fill-rule="evenodd" fill-opacity="1"/>
<polyline clip-path="url(#clip261)" style="stroke:#000000; stroke-linecap:round; stroke-linejoin:round; stroke-width:4; stroke-opacity:1; fill:none" points="1862.55,640.911 1862.55,1234.58 1871.15,1234.58 1871.15,640.911 1862.55,640.911 "/>
<path clip-path="url(#clip261)" d="M1873.3 838.801 L1873.3 1234.58 L1881.91 1234.58 L1881.91 838.801 L1873.3 838.801 L1873.3 838.801  Z" fill="#009af9" fill-rule="evenodd" fill-opacity="1"/>
<polyline clip-path="url(#clip261)" style="stroke:#000000; stroke-linecap:round; stroke-linejoin:round; stroke-width:4; stroke-opacity:1; fill:none" points="1873.3,838.801 1873.3,1234.58 1881.91,1234.58 1881.91,838.801 1873.3,838.801 "/>
<path clip-path="url(#clip261)" d="M1884.06 640.911 L1884.06 1234.58 L1892.67 1234.58 L1892.67 640.911 L1884.06 640.911 L1884.06 640.911  Z" fill="#009af9" fill-rule="evenodd" fill-opacity="1"/>
<polyline clip-path="url(#clip261)" style="stroke:#000000; stroke-linecap:round; stroke-linejoin:round; stroke-width:4; stroke-opacity:1; fill:none" points="1884.06,640.911 1884.06,1234.58 1892.67,1234.58 1892.67,640.911 1884.06,640.911 "/>
<path clip-path="url(#clip261)" d="M1894.82 443.022 L1894.82 1234.58 L1903.42 1234.58 L1903.42 443.022 L1894.82 443.022 L1894.82 443.022  Z" fill="#009af9" fill-rule="evenodd" fill-opacity="1"/>
<polyline clip-path="url(#clip261)" style="stroke:#000000; stroke-linecap:round; stroke-linejoin:round; stroke-width:4; stroke-opacity:1; fill:none" points="1894.82,443.022 1894.82,1234.58 1903.42,1234.58 1903.42,443.022 1894.82,443.022 "/>
<path clip-path="url(#clip261)" d="M1905.57 838.801 L1905.57 1234.58 L1914.18 1234.58 L1914.18 838.801 L1905.57 838.801 L1905.57 838.801  Z" fill="#009af9" fill-rule="evenodd" fill-opacity="1"/>
<polyline clip-path="url(#clip261)" style="stroke:#000000; stroke-linecap:round; stroke-linejoin:round; stroke-width:4; stroke-opacity:1; fill:none" points="1905.57,838.801 1905.57,1234.58 1914.18,1234.58 1914.18,838.801 1905.57,838.801 "/>
<path clip-path="url(#clip261)" d="M1916.33 640.911 L1916.33 1234.58 L1924.93 1234.58 L1924.93 640.911 L1916.33 640.911 L1916.33 640.911  Z" fill="#009af9" fill-rule="evenodd" fill-opacity="1"/>
<polyline clip-path="url(#clip261)" style="stroke:#000000; stroke-linecap:round; stroke-linejoin:round; stroke-width:4; stroke-opacity:1; fill:none" points="1916.33,640.911 1916.33,1234.58 1924.93,1234.58 1924.93,640.911 1916.33,640.911 "/>
<path clip-path="url(#clip261)" d="M1937.84 47.2441 L1937.84 1234.58 L1946.45 1234.58 L1946.45 47.2441 L1937.84 47.2441 L1937.84 47.2441  Z" fill="#009af9" fill-rule="evenodd" fill-opacity="1"/>
<polyline clip-path="url(#clip261)" style="stroke:#000000; stroke-linecap:round; stroke-linejoin:round; stroke-width:4; stroke-opacity:1; fill:none" points="1937.84,47.2441 1937.84,1234.58 1946.45,1234.58 1946.45,47.2441 1937.84,47.2441 "/>
<path clip-path="url(#clip261)" d="M1948.6 245.133 L1948.6 1234.58 L1957.2 1234.58 L1957.2 245.133 L1948.6 245.133 L1948.6 245.133  Z" fill="#009af9" fill-rule="evenodd" fill-opacity="1"/>
<polyline clip-path="url(#clip261)" style="stroke:#000000; stroke-linecap:round; stroke-linejoin:round; stroke-width:4; stroke-opacity:1; fill:none" points="1948.6,245.133 1948.6,1234.58 1957.2,1234.58 1957.2,245.133 1948.6,245.133 "/>
<circle clip-path="url(#clip261)" style="fill:#009af9; stroke:none; fill-opacity:0" cx="221.153" cy="1036.69" r="2"/>
<circle clip-path="url(#clip261)" style="fill:#009af9; stroke:none; fill-opacity:0" cx="231.91" cy="443.022" r="2"/>
<circle clip-path="url(#clip261)" style="fill:#009af9; stroke:none; fill-opacity:0" cx="264.178" cy="1036.69" r="2"/>
<circle clip-path="url(#clip261)" style="fill:#009af9; stroke:none; fill-opacity:0" cx="274.934" cy="1036.69" r="2"/>
<circle clip-path="url(#clip261)" style="fill:#009af9; stroke:none; fill-opacity:0" cx="296.447" cy="640.911" r="2"/>
<circle clip-path="url(#clip261)" style="fill:#009af9; stroke:none; fill-opacity:0" cx="307.203" cy="443.022" r="2"/>
<circle clip-path="url(#clip261)" style="fill:#009af9; stroke:none; fill-opacity:0" cx="317.959" cy="1036.69" r="2"/>
<circle clip-path="url(#clip261)" style="fill:#009af9; stroke:none; fill-opacity:0" cx="328.715" cy="1036.69" r="2"/>
<circle clip-path="url(#clip261)" style="fill:#009af9; stroke:none; fill-opacity:0" cx="339.471" cy="443.022" r="2"/>
<circle clip-path="url(#clip261)" style="fill:#009af9; stroke:none; fill-opacity:0" cx="350.228" cy="1036.69" r="2"/>
<circle clip-path="url(#clip261)" style="fill:#009af9; stroke:none; fill-opacity:0" cx="371.74" cy="1036.69" r="2"/>
<circle clip-path="url(#clip261)" style="fill:#009af9; stroke:none; fill-opacity:0" cx="382.496" cy="838.801" r="2"/>
<circle clip-path="url(#clip261)" style="fill:#009af9; stroke:none; fill-opacity:0" cx="393.252" cy="838.801" r="2"/>
<circle clip-path="url(#clip261)" style="fill:#009af9; stroke:none; fill-opacity:0" cx="404.009" cy="1036.69" r="2"/>
<circle clip-path="url(#clip261)" style="fill:#009af9; stroke:none; fill-opacity:0" cx="436.277" cy="1036.69" r="2"/>
<circle clip-path="url(#clip261)" style="fill:#009af9; stroke:none; fill-opacity:0" cx="468.546" cy="838.801" r="2"/>
<circle clip-path="url(#clip261)" style="fill:#009af9; stroke:none; fill-opacity:0" cx="500.814" cy="838.801" r="2"/>
<circle clip-path="url(#clip261)" style="fill:#009af9; stroke:none; fill-opacity:0" cx="511.57" cy="1036.69" r="2"/>
<circle clip-path="url(#clip261)" style="fill:#009af9; stroke:none; fill-opacity:0" cx="522.327" cy="1036.69" r="2"/>
<circle clip-path="url(#clip261)" style="fill:#009af9; stroke:none; fill-opacity:0" cx="565.351" cy="1036.69" r="2"/>
<circle clip-path="url(#clip261)" style="fill:#009af9; stroke:none; fill-opacity:0" cx="576.108" cy="1036.69" r="2"/>
<circle clip-path="url(#clip261)" style="fill:#009af9; stroke:none; fill-opacity:0" cx="597.62" cy="640.911" r="2"/>
<circle clip-path="url(#clip261)" style="fill:#009af9; stroke:none; fill-opacity:0" cx="651.401" cy="1036.69" r="2"/>
<circle clip-path="url(#clip261)" style="fill:#009af9; stroke:none; fill-opacity:0" cx="662.157" cy="1036.69" r="2"/>
<circle clip-path="url(#clip261)" style="fill:#009af9; stroke:none; fill-opacity:0" cx="683.669" cy="838.801" r="2"/>
<circle clip-path="url(#clip261)" style="fill:#009af9; stroke:none; fill-opacity:0" cx="694.426" cy="1036.69" r="2"/>
<circle clip-path="url(#clip261)" style="fill:#009af9; stroke:none; fill-opacity:0" cx="705.182" cy="1036.69" r="2"/>
<circle clip-path="url(#clip261)" style="fill:#009af9; stroke:none; fill-opacity:0" cx="726.694" cy="838.801" r="2"/>
<circle clip-path="url(#clip261)" style="fill:#009af9; stroke:none; fill-opacity:0" cx="737.45" cy="1036.69" r="2"/>
<circle clip-path="url(#clip261)" style="fill:#009af9; stroke:none; fill-opacity:0" cx="748.207" cy="838.801" r="2"/>
<circle clip-path="url(#clip261)" style="fill:#009af9; stroke:none; fill-opacity:0" cx="769.719" cy="1036.69" r="2"/>
<circle clip-path="url(#clip261)" style="fill:#009af9; stroke:none; fill-opacity:0" cx="780.475" cy="1036.69" r="2"/>
<circle clip-path="url(#clip261)" style="fill:#009af9; stroke:none; fill-opacity:0" cx="791.231" cy="1036.69" r="2"/>
<circle clip-path="url(#clip261)" style="fill:#009af9; stroke:none; fill-opacity:0" cx="909.549" cy="1036.69" r="2"/>
<circle clip-path="url(#clip261)" style="fill:#009af9; stroke:none; fill-opacity:0" cx="920.306" cy="1036.69" r="2"/>
<circle clip-path="url(#clip261)" style="fill:#009af9; stroke:none; fill-opacity:0" cx="931.062" cy="1036.69" r="2"/>
<circle clip-path="url(#clip261)" style="fill:#009af9; stroke:none; fill-opacity:0" cx="941.818" cy="640.911" r="2"/>
<circle clip-path="url(#clip261)" style="fill:#009af9; stroke:none; fill-opacity:0" cx="952.574" cy="1036.69" r="2"/>
<circle clip-path="url(#clip261)" style="fill:#009af9; stroke:none; fill-opacity:0" cx="974.087" cy="1036.69" r="2"/>
<circle clip-path="url(#clip261)" style="fill:#009af9; stroke:none; fill-opacity:0" cx="995.599" cy="1036.69" r="2"/>
<circle clip-path="url(#clip261)" style="fill:#009af9; stroke:none; fill-opacity:0" cx="1006.36" cy="1036.69" r="2"/>
<circle clip-path="url(#clip261)" style="fill:#009af9; stroke:none; fill-opacity:0" cx="1017.11" cy="1036.69" r="2"/>
<circle clip-path="url(#clip261)" style="fill:#009af9; stroke:none; fill-opacity:0" cx="1027.87" cy="1036.69" r="2"/>
<circle clip-path="url(#clip261)" style="fill:#009af9; stroke:none; fill-opacity:0" cx="1060.14" cy="838.801" r="2"/>
<circle clip-path="url(#clip261)" style="fill:#009af9; stroke:none; fill-opacity:0" cx="1070.89" cy="1036.69" r="2"/>
<circle clip-path="url(#clip261)" style="fill:#009af9; stroke:none; fill-opacity:0" cx="1081.65" cy="1036.69" r="2"/>
<circle clip-path="url(#clip261)" style="fill:#009af9; stroke:none; fill-opacity:0" cx="1092.4" cy="838.801" r="2"/>
<circle clip-path="url(#clip261)" style="fill:#009af9; stroke:none; fill-opacity:0" cx="1103.16" cy="1036.69" r="2"/>
<circle clip-path="url(#clip261)" style="fill:#009af9; stroke:none; fill-opacity:0" cx="1124.67" cy="1036.69" r="2"/>
<circle clip-path="url(#clip261)" style="fill:#009af9; stroke:none; fill-opacity:0" cx="1135.43" cy="640.911" r="2"/>
<circle clip-path="url(#clip261)" style="fill:#009af9; stroke:none; fill-opacity:0" cx="1146.19" cy="640.911" r="2"/>
<circle clip-path="url(#clip261)" style="fill:#009af9; stroke:none; fill-opacity:0" cx="1156.94" cy="838.801" r="2"/>
<circle clip-path="url(#clip261)" style="fill:#009af9; stroke:none; fill-opacity:0" cx="1232.24" cy="1036.69" r="2"/>
<circle clip-path="url(#clip261)" style="fill:#009af9; stroke:none; fill-opacity:0" cx="1253.75" cy="640.911" r="2"/>
<circle clip-path="url(#clip261)" style="fill:#009af9; stroke:none; fill-opacity:0" cx="1264.5" cy="443.022" r="2"/>
<circle clip-path="url(#clip261)" style="fill:#009af9; stroke:none; fill-opacity:0" cx="1275.26" cy="1036.69" r="2"/>
<circle clip-path="url(#clip261)" style="fill:#009af9; stroke:none; fill-opacity:0" cx="1286.02" cy="640.911" r="2"/>
<circle clip-path="url(#clip261)" style="fill:#009af9; stroke:none; fill-opacity:0" cx="1296.77" cy="1036.69" r="2"/>
<circle clip-path="url(#clip261)" style="fill:#009af9; stroke:none; fill-opacity:0" cx="1307.53" cy="1036.69" r="2"/>
<circle clip-path="url(#clip261)" style="fill:#009af9; stroke:none; fill-opacity:0" cx="1318.28" cy="838.801" r="2"/>
<circle clip-path="url(#clip261)" style="fill:#009af9; stroke:none; fill-opacity:0" cx="1329.04" cy="443.022" r="2"/>
<circle clip-path="url(#clip261)" style="fill:#009af9; stroke:none; fill-opacity:0" cx="1339.8" cy="838.801" r="2"/>
<circle clip-path="url(#clip261)" style="fill:#009af9; stroke:none; fill-opacity:0" cx="1361.31" cy="1036.69" r="2"/>
<circle clip-path="url(#clip261)" style="fill:#009af9; stroke:none; fill-opacity:0" cx="1393.58" cy="1036.69" r="2"/>
<circle clip-path="url(#clip261)" style="fill:#009af9; stroke:none; fill-opacity:0" cx="1436.6" cy="1036.69" r="2"/>
<circle clip-path="url(#clip261)" style="fill:#009af9; stroke:none; fill-opacity:0" cx="1468.87" cy="1036.69" r="2"/>
<circle clip-path="url(#clip261)" style="fill:#009af9; stroke:none; fill-opacity:0" cx="1511.9" cy="1036.69" r="2"/>
<circle clip-path="url(#clip261)" style="fill:#009af9; stroke:none; fill-opacity:0" cx="1554.92" cy="1036.69" r="2"/>
<circle clip-path="url(#clip261)" style="fill:#009af9; stroke:none; fill-opacity:0" cx="1565.68" cy="1036.69" r="2"/>
<circle clip-path="url(#clip261)" style="fill:#009af9; stroke:none; fill-opacity:0" cx="1587.19" cy="838.801" r="2"/>
<circle clip-path="url(#clip261)" style="fill:#009af9; stroke:none; fill-opacity:0" cx="1619.46" cy="1036.69" r="2"/>
<circle clip-path="url(#clip261)" style="fill:#009af9; stroke:none; fill-opacity:0" cx="1630.21" cy="640.911" r="2"/>
<circle clip-path="url(#clip261)" style="fill:#009af9; stroke:none; fill-opacity:0" cx="1640.97" cy="1036.69" r="2"/>
<circle clip-path="url(#clip261)" style="fill:#009af9; stroke:none; fill-opacity:0" cx="1651.73" cy="1036.69" r="2"/>
<circle clip-path="url(#clip261)" style="fill:#009af9; stroke:none; fill-opacity:0" cx="1662.48" cy="838.801" r="2"/>
<circle clip-path="url(#clip261)" style="fill:#009af9; stroke:none; fill-opacity:0" cx="1673.24" cy="838.801" r="2"/>
<circle clip-path="url(#clip261)" style="fill:#009af9; stroke:none; fill-opacity:0" cx="1684" cy="1036.69" r="2"/>
<circle clip-path="url(#clip261)" style="fill:#009af9; stroke:none; fill-opacity:0" cx="1694.75" cy="1036.69" r="2"/>
<circle clip-path="url(#clip261)" style="fill:#009af9; stroke:none; fill-opacity:0" cx="1748.53" cy="1036.69" r="2"/>
<circle clip-path="url(#clip261)" style="fill:#009af9; stroke:none; fill-opacity:0" cx="1759.29" cy="1036.69" r="2"/>
<circle clip-path="url(#clip261)" style="fill:#009af9; stroke:none; fill-opacity:0" cx="1780.8" cy="1036.69" r="2"/>
<circle clip-path="url(#clip261)" style="fill:#009af9; stroke:none; fill-opacity:0" cx="1802.31" cy="1036.69" r="2"/>
<circle clip-path="url(#clip261)" style="fill:#009af9; stroke:none; fill-opacity:0" cx="1813.07" cy="1036.69" r="2"/>
<circle clip-path="url(#clip261)" style="fill:#009af9; stroke:none; fill-opacity:0" cx="1823.83" cy="838.801" r="2"/>
<circle clip-path="url(#clip261)" style="fill:#009af9; stroke:none; fill-opacity:0" cx="1834.58" cy="1036.69" r="2"/>
<circle clip-path="url(#clip261)" style="fill:#009af9; stroke:none; fill-opacity:0" cx="1845.34" cy="1036.69" r="2"/>
<circle clip-path="url(#clip261)" style="fill:#009af9; stroke:none; fill-opacity:0" cx="1856.09" cy="640.911" r="2"/>
<circle clip-path="url(#clip261)" style="fill:#009af9; stroke:none; fill-opacity:0" cx="1866.85" cy="640.911" r="2"/>
<circle clip-path="url(#clip261)" style="fill:#009af9; stroke:none; fill-opacity:0" cx="1877.61" cy="838.801" r="2"/>
<circle clip-path="url(#clip261)" style="fill:#009af9; stroke:none; fill-opacity:0" cx="1888.36" cy="640.911" r="2"/>
<circle clip-path="url(#clip261)" style="fill:#009af9; stroke:none; fill-opacity:0" cx="1899.12" cy="443.022" r="2"/>
<circle clip-path="url(#clip261)" style="fill:#009af9; stroke:none; fill-opacity:0" cx="1909.87" cy="838.801" r="2"/>
<circle clip-path="url(#clip261)" style="fill:#009af9; stroke:none; fill-opacity:0" cx="1920.63" cy="640.911" r="2"/>
<circle clip-path="url(#clip261)" style="fill:#009af9; stroke:none; fill-opacity:0" cx="1942.14" cy="47.2441" r="2"/>
<circle clip-path="url(#clip261)" style="fill:#009af9; stroke:none; fill-opacity:0" cx="1952.9" cy="245.133" r="2"/>
<path clip-path="url(#clip260)" d="M174.479 190.502 L822.291 190.502 L822.291 86.8219 L174.479 86.8219  Z" fill="#ffffff" fill-rule="evenodd" fill-opacity="1"/>
<polyline clip-path="url(#clip260)" style="stroke:#000000; stroke-linecap:round; stroke-linejoin:round; stroke-width:4; stroke-opacity:1; fill:none" points="174.479,190.502 822.291,190.502 822.291,86.8219 174.479,86.8219 174.479,190.502 "/>
<path clip-path="url(#clip260)" d="M196.206 159.398 L326.57 159.398 L326.57 117.926 L196.206 117.926 L196.206 159.398  Z" fill="#009af9" fill-rule="evenodd" fill-opacity="1"/>
<polyline clip-path="url(#clip260)" style="stroke:#000000; stroke-linecap:round; stroke-linejoin:round; stroke-width:4; stroke-opacity:1; fill:none" points="196.206,159.398 326.57,159.398 326.57,117.926 196.206,117.926 196.206,159.398 "/>
<path clip-path="url(#clip260)" d="M348.298 121.382 L354.594 121.382 L369.918 150.294 L369.918 121.382 L374.455 121.382 L374.455 155.942 L368.159 155.942 L352.835 127.03 L352.835 155.942 L348.298 155.942 L348.298 121.382 Z" fill="#000000" fill-rule="nonzero" fill-opacity="1" /><path clip-path="url(#clip260)" d="M383.135 145.71 L383.135 130.016 L387.395 130.016 L387.395 145.548 Q387.395 149.229 388.83 151.081 Q390.265 152.91 393.135 152.91 Q396.584 152.91 398.575 150.71 Q400.589 148.511 400.589 144.715 L400.589 130.016 L404.848 130.016 L404.848 155.942 L400.589 155.942 L400.589 151.96 Q399.038 154.322 396.978 155.479 Q394.941 156.613 392.233 156.613 Q387.765 156.613 385.45 153.835 Q383.135 151.058 383.135 145.71 M393.853 129.391 L393.853 129.391 Z" fill="#000000" fill-rule="nonzero" fill-opacity="1" /><path clip-path="url(#clip260)" d="M433.806 134.993 Q435.404 132.123 437.626 130.757 Q439.848 129.391 442.857 129.391 Q446.908 129.391 449.107 132.238 Q451.306 135.062 451.306 140.294 L451.306 155.942 L447.024 155.942 L447.024 140.433 Q447.024 136.706 445.705 134.9 Q444.385 133.095 441.677 133.095 Q438.367 133.095 436.445 135.294 Q434.524 137.493 434.524 141.289 L434.524 155.942 L430.242 155.942 L430.242 140.433 Q430.242 136.683 428.922 134.9 Q427.603 133.095 424.848 133.095 Q421.584 133.095 419.663 135.317 Q417.742 137.516 417.742 141.289 L417.742 155.942 L413.459 155.942 L413.459 130.016 L417.742 130.016 L417.742 134.044 Q419.2 131.66 421.237 130.525 Q423.274 129.391 426.075 129.391 Q428.899 129.391 430.867 130.826 Q432.857 132.261 433.806 134.993 Z" fill="#000000" fill-rule="nonzero" fill-opacity="1" /><path clip-path="url(#clip260)" d="M478.413 143.002 Q478.413 138.303 476.468 135.641 Q474.547 132.956 471.167 132.956 Q467.788 132.956 465.843 135.641 Q463.922 138.303 463.922 143.002 Q463.922 147.701 465.843 150.386 Q467.788 153.048 471.167 153.048 Q474.547 153.048 476.468 150.386 Q478.413 147.701 478.413 143.002 M463.922 133.951 Q465.265 131.636 467.302 130.525 Q469.362 129.391 472.209 129.391 Q476.931 129.391 479.871 133.141 Q482.834 136.891 482.834 143.002 Q482.834 149.113 479.871 152.863 Q476.931 156.613 472.209 156.613 Q469.362 156.613 467.302 155.502 Q465.265 154.368 463.922 152.053 L463.922 155.942 L459.64 155.942 L459.64 119.924 L463.922 119.924 L463.922 133.951 Z" fill="#000000" fill-rule="nonzero" fill-opacity="1" /><path clip-path="url(#clip260)" d="M512.07 141.914 L512.07 143.998 L492.487 143.998 Q492.765 148.396 495.126 150.71 Q497.51 153.002 501.746 153.002 Q504.2 153.002 506.491 152.4 Q508.806 151.798 511.075 150.595 L511.075 154.622 Q508.783 155.595 506.376 156.104 Q503.968 156.613 501.491 156.613 Q495.288 156.613 491.653 153.002 Q488.042 149.391 488.042 143.234 Q488.042 136.868 491.468 133.141 Q494.917 129.391 500.751 129.391 Q505.982 129.391 509.014 132.771 Q512.07 136.127 512.07 141.914 M507.811 140.664 Q507.764 137.169 505.843 135.086 Q503.945 133.002 500.797 133.002 Q497.232 133.002 495.079 135.016 Q492.95 137.03 492.626 140.687 L507.811 140.664 Z" fill="#000000" fill-rule="nonzero" fill-opacity="1" /><path clip-path="url(#clip260)" d="M534.084 133.998 Q533.366 133.581 532.51 133.396 Q531.676 133.187 530.658 133.187 Q527.047 133.187 525.102 135.549 Q523.181 137.886 523.181 142.285 L523.181 155.942 L518.899 155.942 L518.899 130.016 L523.181 130.016 L523.181 134.044 Q524.524 131.683 526.676 130.549 Q528.829 129.391 531.908 129.391 Q532.348 129.391 532.88 129.461 Q533.412 129.507 534.061 129.623 L534.084 133.998 Z" fill="#000000" fill-rule="nonzero" fill-opacity="1" /><path clip-path="url(#clip260)" d="M563.667 133.002 Q560.241 133.002 558.25 135.687 Q556.26 138.349 556.26 143.002 Q556.26 147.655 558.227 150.34 Q560.218 153.002 563.667 153.002 Q567.07 153.002 569.06 150.317 Q571.051 147.632 571.051 143.002 Q571.051 138.396 569.06 135.711 Q567.07 133.002 563.667 133.002 M563.667 129.391 Q569.222 129.391 572.394 133.002 Q575.565 136.613 575.565 143.002 Q575.565 149.368 572.394 153.002 Q569.222 156.613 563.667 156.613 Q558.088 156.613 554.917 153.002 Q551.769 149.368 551.769 143.002 Q551.769 136.613 554.917 133.002 Q558.088 129.391 563.667 129.391 Z" fill="#000000" fill-rule="nonzero" fill-opacity="1" /><path clip-path="url(#clip260)" d="M595.75 119.924 L595.75 123.465 L591.676 123.465 Q589.384 123.465 588.482 124.391 Q587.602 125.317 587.602 127.724 L587.602 130.016 L594.616 130.016 L594.616 133.326 L587.602 133.326 L587.602 155.942 L583.32 155.942 L583.32 133.326 L579.246 133.326 L579.246 130.016 L583.32 130.016 L583.32 128.211 Q583.32 123.882 585.333 121.914 Q587.347 119.924 591.722 119.924 L595.75 119.924 Z" fill="#000000" fill-rule="nonzero" fill-opacity="1" /><path clip-path="url(#clip260)" d="M640.449 124.044 L640.449 128.974 Q638.088 126.775 635.403 125.687 Q632.741 124.599 629.731 124.599 Q623.805 124.599 620.657 128.234 Q617.509 131.845 617.509 138.697 Q617.509 145.525 620.657 149.16 Q623.805 152.771 629.731 152.771 Q632.741 152.771 635.403 151.683 Q638.088 150.595 640.449 148.396 L640.449 153.28 Q637.995 154.947 635.241 155.78 Q632.509 156.613 629.454 156.613 Q621.606 156.613 617.093 151.822 Q612.579 147.007 612.579 138.697 Q612.579 130.363 617.093 125.572 Q621.606 120.757 629.454 120.757 Q632.555 120.757 635.287 121.59 Q638.042 122.4 640.449 124.044 Z" fill="#000000" fill-rule="nonzero" fill-opacity="1" /><path clip-path="url(#clip260)" d="M647.486 119.924 L651.745 119.924 L651.745 155.942 L647.486 155.942 L647.486 119.924 Z" fill="#000000" fill-rule="nonzero" fill-opacity="1" /><path clip-path="url(#clip260)" d="M660.217 145.71 L660.217 130.016 L664.477 130.016 L664.477 145.548 Q664.477 149.229 665.912 151.081 Q667.347 152.91 670.217 152.91 Q673.666 152.91 675.657 150.71 Q677.671 148.511 677.671 144.715 L677.671 130.016 L681.93 130.016 L681.93 155.942 L677.671 155.942 L677.671 151.96 Q676.12 154.322 674.06 155.479 Q672.023 156.613 669.314 156.613 Q664.847 156.613 662.532 153.835 Q660.217 151.058 660.217 145.71 M670.935 129.391 L670.935 129.391 Z" fill="#000000" fill-rule="nonzero" fill-opacity="1" /><path clip-path="url(#clip260)" d="M707.231 130.78 L707.231 134.808 Q705.425 133.882 703.481 133.419 Q701.537 132.956 699.453 132.956 Q696.282 132.956 694.685 133.928 Q693.111 134.9 693.111 136.845 Q693.111 138.326 694.245 139.183 Q695.379 140.016 698.805 140.78 L700.263 141.104 Q704.8 142.076 706.699 143.859 Q708.62 145.618 708.62 148.789 Q708.62 152.4 705.749 154.507 Q702.902 156.613 697.902 156.613 Q695.819 156.613 693.55 156.197 Q691.305 155.803 688.805 154.993 L688.805 150.595 Q691.166 151.822 693.458 152.447 Q695.75 153.048 697.995 153.048 Q701.004 153.048 702.624 152.03 Q704.245 150.988 704.245 149.113 Q704.245 147.377 703.064 146.451 Q701.907 145.525 697.949 144.669 L696.467 144.322 Q692.509 143.488 690.75 141.775 Q688.99 140.039 688.99 137.03 Q688.99 133.373 691.583 131.382 Q694.175 129.391 698.944 129.391 Q701.305 129.391 703.388 129.738 Q705.472 130.086 707.231 130.78 Z" fill="#000000" fill-rule="nonzero" fill-opacity="1" /><path clip-path="url(#clip260)" d="M719.615 122.655 L719.615 130.016 L728.388 130.016 L728.388 133.326 L719.615 133.326 L719.615 147.4 Q719.615 150.572 720.472 151.474 Q721.351 152.377 724.013 152.377 L728.388 152.377 L728.388 155.942 L724.013 155.942 Q719.083 155.942 717.208 154.113 Q715.333 152.261 715.333 147.4 L715.333 133.326 L712.208 133.326 L712.208 130.016 L715.333 130.016 L715.333 122.655 L719.615 122.655 Z" fill="#000000" fill-rule="nonzero" fill-opacity="1" /><path clip-path="url(#clip260)" d="M756.166 141.914 L756.166 143.998 L736.583 143.998 Q736.86 148.396 739.222 150.71 Q741.606 153.002 745.842 153.002 Q748.296 153.002 750.587 152.4 Q752.902 151.798 755.171 150.595 L755.171 154.622 Q752.879 155.595 750.471 156.104 Q748.064 156.613 745.587 156.613 Q739.384 156.613 735.749 153.002 Q732.138 149.391 732.138 143.234 Q732.138 136.868 735.564 133.141 Q739.013 129.391 744.846 129.391 Q750.078 129.391 753.11 132.771 Q756.166 136.127 756.166 141.914 M751.907 140.664 Q751.86 137.169 749.939 135.086 Q748.041 133.002 744.893 133.002 Q741.328 133.002 739.175 135.016 Q737.046 137.03 736.722 140.687 L751.907 140.664 Z" fill="#000000" fill-rule="nonzero" fill-opacity="1" /><path clip-path="url(#clip260)" d="M778.18 133.998 Q777.462 133.581 776.606 133.396 Q775.772 133.187 774.754 133.187 Q771.143 133.187 769.198 135.549 Q767.277 137.886 767.277 142.285 L767.277 155.942 L762.995 155.942 L762.995 130.016 L767.277 130.016 L767.277 134.044 Q768.62 131.683 770.772 130.549 Q772.925 129.391 776.004 129.391 Q776.444 129.391 776.976 129.461 Q777.508 129.507 778.156 129.623 L778.18 133.998 Z" fill="#000000" fill-rule="nonzero" fill-opacity="1" /><path clip-path="url(#clip260)" d="M799.175 130.78 L799.175 134.808 Q797.369 133.882 795.425 133.419 Q793.48 132.956 791.397 132.956 Q788.226 132.956 786.629 133.928 Q785.055 134.9 785.055 136.845 Q785.055 138.326 786.189 139.183 Q787.323 140.016 790.749 140.78 L792.207 141.104 Q796.744 142.076 798.642 143.859 Q800.564 145.618 800.564 148.789 Q800.564 152.4 797.693 154.507 Q794.846 156.613 789.846 156.613 Q787.763 156.613 785.494 156.197 Q783.249 155.803 780.749 154.993 L780.749 150.595 Q783.11 151.822 785.402 152.447 Q787.693 153.048 789.939 153.048 Q792.948 153.048 794.568 152.03 Q796.189 150.988 796.189 149.113 Q796.189 147.377 795.008 146.451 Q793.851 145.525 789.893 144.669 L788.411 144.322 Q784.453 143.488 782.694 141.775 Q780.934 140.039 780.934 137.03 Q780.934 133.373 783.527 131.382 Q786.119 129.391 790.888 129.391 Q793.249 129.391 795.332 129.738 Q797.416 130.086 799.175 130.78 Z" fill="#000000" fill-rule="nonzero" fill-opacity="1" /></svg>
