<?xml version="1.0" encoding="utf-8"?>
<svg xmlns="http://www.w3.org/2000/svg" xmlns:xlink="http://www.w3.org/1999/xlink" width="528" height="336" viewBox="0 0 2112 1344">
<defs>
  <clipPath id="clip230">
    <rect x="0" y="0" width="2112" height="1344"/>
  </clipPath>
</defs>
<path clip-path="url(#clip230)" d="M0 1344 L2112 1344 L2112 2.13163e-14 L0 2.13163e-14  Z" fill="#ffffff" fill-rule="evenodd" fill-opacity="1"/>
<defs>
  <clipPath id="clip231">
    <rect x="244" y="47" width="1822" height="1127"/>
  </clipPath>
</defs>
<path clip-path="url(#clip230)" d="M244.178 1173.47 L2064.76 1173.47 L2064.76 47.2441 L244.178 47.2441  Z" fill="#ffffff" fill-rule="evenodd" fill-opacity="1"/>
<polyline clip-path="url(#clip231)" style="stroke:#000000; stroke-linecap:round; stroke-linejoin:round; stroke-width:2; stroke-opacity:0.1; fill:none" points="295.704,1173.47 295.704,47.2441 "/>
<polyline clip-path="url(#clip231)" style="stroke:#000000; stroke-linecap:round; stroke-linejoin:round; stroke-width:2; stroke-opacity:0.1; fill:none" points="819.34,1173.47 819.34,47.2441 "/>
<polyline clip-path="url(#clip231)" style="stroke:#000000; stroke-linecap:round; stroke-linejoin:round; stroke-width:2; stroke-opacity:0.1; fill:none" points="1342.98,1173.47 1342.98,47.2441 "/>
<polyline clip-path="url(#clip231)" style="stroke:#000000; stroke-linecap:round; stroke-linejoin:round; stroke-width:2; stroke-opacity:0.1; fill:none" points="1866.61,1173.47 1866.61,47.2441 "/>
<polyline clip-path="url(#clip231)" style="stroke:#000000; stroke-linecap:round; stroke-linejoin:round; stroke-width:2; stroke-opacity:0.1; fill:none" points="244.178,1141.23 2064.76,1141.23 "/>
<polyline clip-path="url(#clip231)" style="stroke:#000000; stroke-linecap:round; stroke-linejoin:round; stroke-width:2; stroke-opacity:0.1; fill:none" points="244.178,822.23 2064.76,822.23 "/>
<polyline clip-path="url(#clip231)" style="stroke:#000000; stroke-linecap:round; stroke-linejoin:round; stroke-width:2; stroke-opacity:0.1; fill:none" points="244.178,503.234 2064.76,503.234 "/>
<polyline clip-path="url(#clip231)" style="stroke:#000000; stroke-linecap:round; stroke-linejoin:round; stroke-width:2; stroke-opacity:0.1; fill:none" points="244.178,184.239 2064.76,184.239 "/>
<polyline clip-path="url(#clip230)" style="stroke:#000000; stroke-linecap:round; stroke-linejoin:round; stroke-width:4; stroke-opacity:1; fill:none" points="244.178,1173.47 2064.76,1173.47 "/>
<polyline clip-path="url(#clip230)" style="stroke:#000000; stroke-linecap:round; stroke-linejoin:round; stroke-width:4; stroke-opacity:1; fill:none" points="295.704,1173.47 295.704,1154.57 "/>
<polyline clip-path="url(#clip230)" style="stroke:#000000; stroke-linecap:round; stroke-linejoin:round; stroke-width:4; stroke-opacity:1; fill:none" points="819.34,1173.47 819.34,1154.57 "/>
<polyline clip-path="url(#clip230)" style="stroke:#000000; stroke-linecap:round; stroke-linejoin:round; stroke-width:4; stroke-opacity:1; fill:none" points="1342.98,1173.47 1342.98,1154.57 "/>
<polyline clip-path="url(#clip230)" style="stroke:#000000; stroke-linecap:round; stroke-linejoin:round; stroke-width:4; stroke-opacity:1; fill:none" points="1866.61,1173.47 1866.61,1154.57 "/>
<path clip-path="url(#clip230)" d="M240.23 1229.63 L247.868 1229.63 L247.868 1203.27 L239.558 1204.93 L239.558 1200.67 L247.822 1199.01 L252.498 1199.01 L252.498 1229.63 L260.137 1229.63 L260.137 1233.57 L240.23 1233.57 L240.23 1229.63 Z" fill="#000000" fill-rule="nonzero" fill-opacity="1" /><path clip-path="url(#clip230)" d="M279.581 1217.15 Q276.248 1217.15 274.327 1218.94 Q272.428 1220.72 272.428 1223.84 Q272.428 1226.97 274.327 1228.75 Q276.248 1230.53 279.581 1230.53 Q282.914 1230.53 284.836 1228.75 Q286.757 1226.95 286.757 1223.84 Q286.757 1220.72 284.836 1218.94 Q282.938 1217.15 279.581 1217.15 M274.905 1215.16 Q271.896 1214.42 270.206 1212.36 Q268.54 1210.3 268.54 1207.34 Q268.54 1203.2 271.479 1200.79 Q274.442 1198.38 279.581 1198.38 Q284.743 1198.38 287.683 1200.79 Q290.623 1203.2 290.623 1207.34 Q290.623 1210.3 288.933 1212.36 Q287.266 1214.42 284.28 1215.16 Q287.66 1215.95 289.535 1218.24 Q291.433 1220.53 291.433 1223.84 Q291.433 1228.87 288.354 1231.55 Q285.299 1234.24 279.581 1234.24 Q273.864 1234.24 270.785 1231.55 Q267.729 1228.87 267.729 1223.84 Q267.729 1220.53 269.628 1218.24 Q271.526 1215.95 274.905 1215.16 M273.192 1207.78 Q273.192 1210.47 274.859 1211.97 Q276.549 1213.47 279.581 1213.47 Q282.59 1213.47 284.28 1211.97 Q285.993 1210.47 285.993 1207.78 Q285.993 1205.09 284.28 1203.59 Q282.59 1202.09 279.581 1202.09 Q276.549 1202.09 274.859 1203.59 Q273.192 1205.09 273.192 1207.78 Z" fill="#000000" fill-rule="nonzero" fill-opacity="1" /><path clip-path="url(#clip230)" d="M299.789 1199.01 L318.146 1199.01 L318.146 1202.94 L304.072 1202.94 L304.072 1211.41 Q305.09 1211.07 306.109 1210.9 Q307.127 1210.72 308.146 1210.72 Q313.933 1210.72 317.312 1213.89 Q320.692 1217.06 320.692 1222.48 Q320.692 1228.06 317.22 1231.16 Q313.748 1234.24 307.428 1234.24 Q305.252 1234.24 302.984 1233.87 Q300.738 1233.5 298.331 1232.76 L298.331 1228.06 Q300.414 1229.19 302.637 1229.75 Q304.859 1230.3 307.336 1230.3 Q311.34 1230.3 313.678 1228.2 Q316.016 1226.09 316.016 1222.48 Q316.016 1218.87 313.678 1216.76 Q311.34 1214.65 307.336 1214.65 Q305.461 1214.65 303.586 1215.07 Q301.734 1215.49 299.789 1216.37 L299.789 1199.01 Z" fill="#000000" fill-rule="nonzero" fill-opacity="1" /><path clip-path="url(#clip230)" d="M339.905 1202.09 Q336.294 1202.09 334.465 1205.65 Q332.66 1209.19 332.66 1216.32 Q332.66 1223.43 334.465 1226.99 Q336.294 1230.53 339.905 1230.53 Q343.539 1230.53 345.345 1226.99 Q347.173 1223.43 347.173 1216.32 Q347.173 1209.19 345.345 1205.65 Q343.539 1202.09 339.905 1202.09 M339.905 1198.38 Q345.715 1198.38 348.771 1202.99 Q351.849 1207.57 351.849 1216.32 Q351.849 1225.05 348.771 1229.65 Q345.715 1234.24 339.905 1234.24 Q334.095 1234.24 331.016 1229.65 Q327.961 1225.05 327.961 1216.32 Q327.961 1207.57 331.016 1202.99 Q334.095 1198.38 339.905 1198.38 Z" fill="#000000" fill-rule="nonzero" fill-opacity="1" /><path clip-path="url(#clip230)" d="M763.866 1229.63 L771.504 1229.63 L771.504 1203.27 L763.194 1204.93 L763.194 1200.67 L771.458 1199.01 L776.134 1199.01 L776.134 1229.63 L783.773 1229.63 L783.773 1233.57 L763.866 1233.57 L763.866 1229.63 Z" fill="#000000" fill-rule="nonzero" fill-opacity="1" /><path clip-path="url(#clip230)" d="M793.356 1232.85 L793.356 1228.59 Q795.115 1229.42 796.921 1229.86 Q798.727 1230.3 800.463 1230.3 Q805.092 1230.3 807.523 1227.2 Q809.976 1224.08 810.324 1217.73 Q808.981 1219.72 806.921 1220.79 Q804.861 1221.85 802.361 1221.85 Q797.176 1221.85 794.143 1218.73 Q791.134 1215.58 791.134 1210.14 Q791.134 1204.82 794.282 1201.6 Q797.43 1198.38 802.662 1198.38 Q808.657 1198.38 811.805 1202.99 Q814.976 1207.57 814.976 1216.32 Q814.976 1224.49 811.088 1229.38 Q807.222 1234.24 800.671 1234.24 Q798.912 1234.24 797.106 1233.89 Q795.301 1233.54 793.356 1232.85 M802.662 1218.2 Q805.81 1218.2 807.639 1216.04 Q809.49 1213.89 809.49 1210.14 Q809.49 1206.41 807.639 1204.26 Q805.81 1202.09 802.662 1202.09 Q799.514 1202.09 797.662 1204.26 Q795.833 1206.41 795.833 1210.14 Q795.833 1213.89 797.662 1216.04 Q799.514 1218.2 802.662 1218.2 Z" fill="#000000" fill-rule="nonzero" fill-opacity="1" /><path clip-path="url(#clip230)" d="M833.379 1202.09 Q829.768 1202.09 827.939 1205.65 Q826.134 1209.19 826.134 1216.32 Q826.134 1223.43 827.939 1226.99 Q829.768 1230.53 833.379 1230.53 Q837.013 1230.53 838.819 1226.99 Q840.648 1223.43 840.648 1216.32 Q840.648 1209.19 838.819 1205.65 Q837.013 1202.09 833.379 1202.09 M833.379 1198.38 Q839.189 1198.38 842.245 1202.99 Q845.323 1207.57 845.323 1216.32 Q845.323 1225.05 842.245 1229.65 Q839.189 1234.24 833.379 1234.24 Q827.569 1234.24 824.49 1229.65 Q821.435 1225.05 821.435 1216.32 Q821.435 1207.57 824.49 1202.99 Q827.569 1198.38 833.379 1198.38 Z" fill="#000000" fill-rule="nonzero" fill-opacity="1" /><path clip-path="url(#clip230)" d="M863.541 1202.09 Q859.93 1202.09 858.101 1205.65 Q856.296 1209.19 856.296 1216.32 Q856.296 1223.43 858.101 1226.99 Q859.93 1230.53 863.541 1230.53 Q867.175 1230.53 868.981 1226.99 Q870.809 1223.43 870.809 1216.32 Q870.809 1209.19 868.981 1205.65 Q867.175 1202.09 863.541 1202.09 M863.541 1198.38 Q869.351 1198.38 872.407 1202.99 Q875.485 1207.57 875.485 1216.32 Q875.485 1225.05 872.407 1229.65 Q869.351 1234.24 863.541 1234.24 Q857.731 1234.24 854.652 1229.65 Q851.597 1225.05 851.597 1216.32 Q851.597 1207.57 854.652 1202.99 Q857.731 1198.38 863.541 1198.38 Z" fill="#000000" fill-rule="nonzero" fill-opacity="1" /><path clip-path="url(#clip230)" d="M1287.5 1229.63 L1295.14 1229.63 L1295.14 1203.27 L1286.83 1204.93 L1286.83 1200.67 L1295.09 1199.01 L1299.77 1199.01 L1299.77 1229.63 L1307.41 1229.63 L1307.41 1233.57 L1287.5 1233.57 L1287.5 1229.63 Z" fill="#000000" fill-rule="nonzero" fill-opacity="1" /><path clip-path="url(#clip230)" d="M1316.99 1232.85 L1316.99 1228.59 Q1318.75 1229.42 1320.56 1229.86 Q1322.36 1230.3 1324.1 1230.3 Q1328.73 1230.3 1331.16 1227.2 Q1333.61 1224.08 1333.96 1217.73 Q1332.62 1219.72 1330.56 1220.79 Q1328.5 1221.85 1326 1221.85 Q1320.81 1221.85 1317.78 1218.73 Q1314.77 1215.58 1314.77 1210.14 Q1314.77 1204.82 1317.92 1201.6 Q1321.07 1198.38 1326.3 1198.38 Q1332.29 1198.38 1335.44 1202.99 Q1338.61 1207.57 1338.61 1216.32 Q1338.61 1224.49 1334.72 1229.38 Q1330.86 1234.24 1324.31 1234.24 Q1322.55 1234.24 1320.74 1233.89 Q1318.94 1233.54 1316.99 1232.85 M1326.3 1218.2 Q1329.45 1218.2 1331.27 1216.04 Q1333.13 1213.89 1333.13 1210.14 Q1333.13 1206.41 1331.27 1204.26 Q1329.45 1202.09 1326.3 1202.09 Q1323.15 1202.09 1321.3 1204.26 Q1319.47 1206.41 1319.47 1210.14 Q1319.47 1213.89 1321.3 1216.04 Q1323.15 1218.2 1326.3 1218.2 Z" fill="#000000" fill-rule="nonzero" fill-opacity="1" /><path clip-path="url(#clip230)" d="M1347.06 1199.01 L1365.42 1199.01 L1365.42 1202.94 L1351.34 1202.94 L1351.34 1211.41 Q1352.36 1211.07 1353.38 1210.9 Q1354.4 1210.72 1355.42 1210.72 Q1361.2 1210.72 1364.58 1213.89 Q1367.96 1217.06 1367.96 1222.48 Q1367.96 1228.06 1364.49 1231.16 Q1361.02 1234.24 1354.7 1234.24 Q1352.52 1234.24 1350.26 1233.87 Q1348.01 1233.5 1345.6 1232.76 L1345.6 1228.06 Q1347.69 1229.19 1349.91 1229.75 Q1352.13 1230.3 1354.61 1230.3 Q1358.61 1230.3 1360.95 1228.2 Q1363.29 1226.09 1363.29 1222.48 Q1363.29 1218.87 1360.95 1216.76 Q1358.61 1214.65 1354.61 1214.65 Q1352.73 1214.65 1350.86 1215.07 Q1349.01 1215.49 1347.06 1216.37 L1347.06 1199.01 Z" fill="#000000" fill-rule="nonzero" fill-opacity="1" /><path clip-path="url(#clip230)" d="M1387.18 1202.09 Q1383.57 1202.09 1381.74 1205.65 Q1379.93 1209.19 1379.93 1216.32 Q1379.93 1223.43 1381.74 1226.99 Q1383.57 1230.53 1387.18 1230.53 Q1390.81 1230.53 1392.62 1226.99 Q1394.45 1223.43 1394.45 1216.32 Q1394.45 1209.19 1392.62 1205.65 Q1390.81 1202.09 1387.18 1202.09 M1387.18 1198.38 Q1392.99 1198.38 1396.04 1202.99 Q1399.12 1207.57 1399.12 1216.32 Q1399.12 1225.05 1396.04 1229.65 Q1392.99 1234.24 1387.18 1234.24 Q1381.37 1234.24 1378.29 1229.65 Q1375.23 1225.05 1375.23 1216.32 Q1375.23 1207.57 1378.29 1202.99 Q1381.37 1198.38 1387.18 1198.38 Z" fill="#000000" fill-rule="nonzero" fill-opacity="1" /><path clip-path="url(#clip230)" d="M1815.22 1229.63 L1831.54 1229.63 L1831.54 1233.57 L1809.6 1233.57 L1809.6 1229.63 Q1812.26 1226.88 1816.84 1222.25 Q1821.45 1217.59 1822.63 1216.25 Q1824.88 1213.73 1825.76 1211.99 Q1826.66 1210.23 1826.66 1208.54 Q1826.66 1205.79 1824.71 1204.05 Q1822.79 1202.32 1819.69 1202.32 Q1817.49 1202.32 1815.04 1203.08 Q1812.61 1203.84 1809.83 1205.4 L1809.83 1200.67 Q1812.65 1199.54 1815.11 1198.96 Q1817.56 1198.38 1819.6 1198.38 Q1824.97 1198.38 1828.16 1201.07 Q1831.36 1203.75 1831.36 1208.24 Q1831.36 1210.37 1830.55 1212.29 Q1829.76 1214.19 1827.65 1216.78 Q1827.08 1217.46 1823.97 1220.67 Q1820.87 1223.87 1815.22 1229.63 Z" fill="#000000" fill-rule="nonzero" fill-opacity="1" /><path clip-path="url(#clip230)" d="M1851.36 1202.09 Q1847.75 1202.09 1845.92 1205.65 Q1844.11 1209.19 1844.11 1216.32 Q1844.11 1223.43 1845.92 1226.99 Q1847.75 1230.53 1851.36 1230.53 Q1854.99 1230.53 1856.8 1226.99 Q1858.63 1223.43 1858.63 1216.32 Q1858.63 1209.19 1856.8 1205.65 Q1854.99 1202.09 1851.36 1202.09 M1851.36 1198.38 Q1857.17 1198.38 1860.22 1202.99 Q1863.3 1207.57 1863.3 1216.32 Q1863.3 1225.05 1860.22 1229.65 Q1857.17 1234.24 1851.36 1234.24 Q1845.55 1234.24 1842.47 1229.65 Q1839.41 1225.05 1839.41 1216.32 Q1839.41 1207.57 1842.47 1202.99 Q1845.55 1198.38 1851.36 1198.38 Z" fill="#000000" fill-rule="nonzero" fill-opacity="1" /><path clip-path="url(#clip230)" d="M1881.52 1202.09 Q1877.91 1202.09 1876.08 1205.65 Q1874.27 1209.19 1874.27 1216.32 Q1874.27 1223.43 1876.08 1226.99 Q1877.91 1230.53 1881.52 1230.53 Q1885.15 1230.53 1886.96 1226.99 Q1888.79 1223.43 1888.79 1216.32 Q1888.79 1209.19 1886.96 1205.65 Q1885.15 1202.09 1881.52 1202.09 M1881.52 1198.38 Q1887.33 1198.38 1890.39 1202.99 Q1893.46 1207.57 1893.46 1216.32 Q1893.46 1225.05 1890.39 1229.65 Q1887.33 1234.24 1881.52 1234.24 Q1875.71 1234.24 1872.63 1229.65 Q1869.57 1225.05 1869.57 1216.32 Q1869.57 1207.57 1872.63 1202.99 Q1875.71 1198.38 1881.52 1198.38 Z" fill="#000000" fill-rule="nonzero" fill-opacity="1" /><path clip-path="url(#clip230)" d="M1911.68 1202.09 Q1908.07 1202.09 1906.24 1205.65 Q1904.44 1209.19 1904.44 1216.32 Q1904.44 1223.43 1906.24 1226.99 Q1908.07 1230.53 1911.68 1230.53 Q1915.32 1230.53 1917.12 1226.99 Q1918.95 1223.43 1918.95 1216.32 Q1918.95 1209.19 1917.12 1205.65 Q1915.32 1202.09 1911.68 1202.09 M1911.68 1198.38 Q1917.49 1198.38 1920.55 1202.99 Q1923.63 1207.57 1923.63 1216.32 Q1923.63 1225.05 1920.55 1229.65 Q1917.49 1234.24 1911.68 1234.24 Q1905.87 1234.24 1902.79 1229.65 Q1899.74 1225.05 1899.74 1216.32 Q1899.74 1207.57 1902.79 1202.99 Q1905.87 1198.38 1911.68 1198.38 Z" fill="#000000" fill-rule="nonzero" fill-opacity="1" /><path clip-path="url(#clip230)" d="M1085.4 1266.49 L1092.31 1266.49 L1105.48 1286.04 L1118.56 1266.49 L1125.47 1266.49 L1108.67 1291.38 L1108.67 1314.01 L1102.2 1314.01 L1102.2 1291.38 L1085.4 1266.49 Z" fill="#000000" fill-rule="nonzero" fill-opacity="1" /><path clip-path="url(#clip230)" d="M1153.32 1294.73 L1153.32 1297.59 L1126.39 1297.59 Q1126.78 1303.64 1130.02 1306.82 Q1133.3 1309.97 1139.13 1309.97 Q1142.5 1309.97 1145.65 1309.14 Q1148.83 1308.32 1151.95 1306.66 L1151.95 1312.2 Q1148.8 1313.54 1145.49 1314.24 Q1142.18 1314.94 1138.78 1314.94 Q1130.25 1314.94 1125.25 1309.97 Q1120.28 1305.01 1120.28 1296.54 Q1120.28 1287.79 1124.99 1282.66 Q1129.74 1277.51 1137.76 1277.51 Q1144.95 1277.51 1149.12 1282.15 Q1153.32 1286.77 1153.32 1294.73 M1147.46 1293.01 Q1147.4 1288.2 1144.76 1285.34 Q1142.15 1282.47 1137.82 1282.47 Q1132.92 1282.47 1129.96 1285.24 Q1127.03 1288.01 1126.59 1293.04 L1147.46 1293.01 Z" fill="#000000" fill-rule="nonzero" fill-opacity="1" /><path clip-path="url(#clip230)" d="M1179.13 1296.1 Q1172.04 1296.1 1169.3 1297.72 Q1166.56 1299.34 1166.56 1303.26 Q1166.56 1306.38 1168.6 1308.22 Q1170.67 1310.04 1174.2 1310.04 Q1179.07 1310.04 1182 1306.6 Q1184.96 1303.13 1184.96 1297.4 L1184.96 1296.1 L1179.13 1296.1 M1190.82 1293.68 L1190.82 1314.01 L1184.96 1314.01 L1184.96 1308.6 Q1182.95 1311.85 1179.96 1313.41 Q1176.97 1314.94 1172.64 1314.94 Q1167.17 1314.94 1163.92 1311.88 Q1160.71 1308.79 1160.71 1303.64 Q1160.71 1297.62 1164.72 1294.57 Q1168.76 1291.51 1176.75 1291.51 L1184.96 1291.51 L1184.96 1290.94 Q1184.96 1286.9 1182.29 1284.7 Q1179.64 1282.47 1174.84 1282.47 Q1171.78 1282.47 1168.89 1283.2 Q1165.99 1283.94 1163.32 1285.4 L1163.32 1279.99 Q1166.53 1278.75 1169.55 1278.14 Q1172.58 1277.51 1175.44 1277.51 Q1183.18 1277.51 1187 1281.52 Q1190.82 1285.53 1190.82 1293.68 Z" fill="#000000" fill-rule="nonzero" fill-opacity="1" /><path clip-path="url(#clip230)" d="M1223.53 1283.84 Q1222.55 1283.27 1221.37 1283.01 Q1220.22 1282.73 1218.82 1282.73 Q1213.86 1282.73 1211.19 1285.97 Q1208.54 1289.19 1208.54 1295.24 L1208.54 1314.01 L1202.66 1314.01 L1202.66 1278.37 L1208.54 1278.37 L1208.54 1283.9 Q1210.39 1280.66 1213.35 1279.1 Q1216.31 1277.51 1220.54 1277.51 Q1221.15 1277.51 1221.88 1277.6 Q1222.61 1277.67 1223.5 1277.83 L1223.53 1283.84 Z" fill="#000000" fill-rule="nonzero" fill-opacity="1" /><polyline clip-path="url(#clip230)" style="stroke:#000000; stroke-linecap:round; stroke-linejoin:round; stroke-width:4; stroke-opacity:1; fill:none" points="244.178,1173.47 244.178,47.2441 "/>
<polyline clip-path="url(#clip230)" style="stroke:#000000; stroke-linecap:round; stroke-linejoin:round; stroke-width:4; stroke-opacity:1; fill:none" points="244.178,1141.23 263.076,1141.23 "/>
<polyline clip-path="url(#clip230)" style="stroke:#000000; stroke-linecap:round; stroke-linejoin:round; stroke-width:4; stroke-opacity:1; fill:none" points="244.178,822.23 263.076,822.23 "/>
<polyline clip-path="url(#clip230)" style="stroke:#000000; stroke-linecap:round; stroke-linejoin:round; stroke-width:4; stroke-opacity:1; fill:none" points="244.178,503.234 263.076,503.234 "/>
<polyline clip-path="url(#clip230)" style="stroke:#000000; stroke-linecap:round; stroke-linejoin:round; stroke-width:4; stroke-opacity:1; fill:none" points="244.178,184.239 263.076,184.239 "/>
<path clip-path="url(#clip230)" d="M129.165 1139.87 Q132.522 1140.59 134.397 1142.86 Q136.295 1145.13 136.295 1148.46 Q136.295 1153.57 132.776 1156.38 Q129.258 1159.18 122.776 1159.18 Q120.6 1159.18 118.286 1158.74 Q115.994 1158.32 113.54 1157.46 L113.54 1152.95 Q115.485 1154.08 117.799 1154.66 Q120.114 1155.24 122.637 1155.24 Q127.035 1155.24 129.327 1153.51 Q131.642 1151.77 131.642 1148.46 Q131.642 1145.4 129.489 1143.69 Q127.36 1141.95 123.54 1141.95 L119.512 1141.95 L119.512 1138.11 L123.725 1138.11 Q127.174 1138.11 129.003 1136.75 Q130.832 1135.36 130.832 1132.76 Q130.832 1130.1 128.934 1128.69 Q127.059 1127.26 123.54 1127.26 Q121.619 1127.26 119.42 1127.67 Q117.221 1128.09 114.582 1128.97 L114.582 1124.8 Q117.244 1124.06 119.559 1123.69 Q121.897 1123.32 123.957 1123.32 Q129.281 1123.32 132.383 1125.75 Q135.484 1128.16 135.484 1132.28 Q135.484 1135.15 133.841 1137.14 Q132.197 1139.11 129.165 1139.87 Z" fill="#000000" fill-rule="nonzero" fill-opacity="1" /><path clip-path="url(#clip230)" d="M155.16 1127.02 Q151.549 1127.02 149.721 1130.59 Q147.915 1134.13 147.915 1141.26 Q147.915 1148.37 149.721 1151.93 Q151.549 1155.47 155.16 1155.47 Q158.795 1155.47 160.6 1151.93 Q162.429 1148.37 162.429 1141.26 Q162.429 1134.13 160.6 1130.59 Q158.795 1127.02 155.16 1127.02 M155.16 1123.32 Q160.97 1123.32 164.026 1127.93 Q167.105 1132.51 167.105 1141.26 Q167.105 1149.99 164.026 1154.59 Q160.97 1159.18 155.16 1159.18 Q149.35 1159.18 146.271 1154.59 Q143.216 1149.99 143.216 1141.26 Q143.216 1132.51 146.271 1127.93 Q149.35 1123.32 155.16 1123.32 Z" fill="#000000" fill-rule="nonzero" fill-opacity="1" /><path clip-path="url(#clip230)" d="M175.322 1152.63 L180.206 1152.63 L180.206 1158.51 L175.322 1158.51 L175.322 1152.63 Z" fill="#000000" fill-rule="nonzero" fill-opacity="1" /><path clip-path="url(#clip230)" d="M200.97 1139.36 Q197.822 1139.36 195.97 1141.51 Q194.142 1143.67 194.142 1147.42 Q194.142 1151.14 195.97 1153.32 Q197.822 1155.47 200.97 1155.47 Q204.118 1155.47 205.947 1153.32 Q207.799 1151.14 207.799 1147.42 Q207.799 1143.67 205.947 1141.51 Q204.118 1139.36 200.97 1139.36 M210.253 1124.71 L210.253 1128.97 Q208.493 1128.13 206.688 1127.7 Q204.905 1127.26 203.146 1127.26 Q198.517 1127.26 196.063 1130.38 Q193.632 1133.51 193.285 1139.82 Q194.651 1137.81 196.711 1136.75 Q198.771 1135.66 201.248 1135.66 Q206.456 1135.66 209.466 1138.83 Q212.498 1141.98 212.498 1147.42 Q212.498 1152.74 209.35 1155.96 Q206.202 1159.18 200.97 1159.18 Q194.975 1159.18 191.804 1154.59 Q188.632 1149.99 188.632 1141.26 Q188.632 1133.07 192.521 1128.2 Q196.41 1123.32 202.961 1123.32 Q204.72 1123.32 206.503 1123.67 Q208.308 1124.01 210.253 1124.71 Z" fill="#000000" fill-rule="nonzero" fill-opacity="1" /><path clip-path="url(#clip230)" d="M130.23 820.876 Q133.586 821.593 135.461 823.862 Q137.359 826.13 137.359 829.464 Q137.359 834.579 133.841 837.38 Q130.322 840.181 123.841 840.181 Q121.665 840.181 119.35 839.741 Q117.059 839.325 114.605 838.468 L114.605 833.954 Q116.549 835.089 118.864 835.667 Q121.179 836.246 123.702 836.246 Q128.1 836.246 130.392 834.51 Q132.707 832.774 132.707 829.464 Q132.707 826.408 130.554 824.695 Q128.424 822.959 124.605 822.959 L120.577 822.959 L120.577 819.116 L124.79 819.116 Q128.239 819.116 130.068 817.751 Q131.897 816.362 131.897 813.769 Q131.897 811.107 129.998 809.695 Q128.123 808.26 124.605 808.26 Q122.684 808.26 120.485 808.677 Q118.286 809.093 115.647 809.973 L115.647 805.806 Q118.309 805.066 120.623 804.695 Q122.961 804.325 125.022 804.325 Q130.346 804.325 133.447 806.755 Q136.549 809.163 136.549 813.283 Q136.549 816.153 134.906 818.144 Q133.262 820.112 130.23 820.876 Z" fill="#000000" fill-rule="nonzero" fill-opacity="1" /><path clip-path="url(#clip230)" d="M156.225 808.028 Q152.614 808.028 150.785 811.593 Q148.98 815.135 148.98 822.265 Q148.98 829.371 150.785 832.936 Q152.614 836.477 156.225 836.477 Q159.859 836.477 161.665 832.936 Q163.494 829.371 163.494 822.265 Q163.494 815.135 161.665 811.593 Q159.859 808.028 156.225 808.028 M156.225 804.325 Q162.035 804.325 165.091 808.931 Q168.169 813.515 168.169 822.265 Q168.169 830.991 165.091 835.598 Q162.035 840.181 156.225 840.181 Q150.415 840.181 147.336 835.598 Q144.281 830.991 144.281 822.265 Q144.281 813.515 147.336 808.931 Q150.415 804.325 156.225 804.325 Z" fill="#000000" fill-rule="nonzero" fill-opacity="1" /><path clip-path="url(#clip230)" d="M176.387 833.63 L181.271 833.63 L181.271 839.51 L176.387 839.51 L176.387 833.63 Z" fill="#000000" fill-rule="nonzero" fill-opacity="1" /><path clip-path="url(#clip230)" d="M190.276 804.95 L212.498 804.95 L212.498 806.941 L199.952 839.51 L195.067 839.51 L206.873 808.885 L190.276 808.885 L190.276 804.95 Z" fill="#000000" fill-rule="nonzero" fill-opacity="1" /><path clip-path="url(#clip230)" d="M129.42 501.88 Q132.776 502.598 134.651 504.866 Q136.549 507.135 136.549 510.468 Q136.549 515.584 133.031 518.385 Q129.512 521.186 123.031 521.186 Q120.855 521.186 118.54 520.746 Q116.248 520.329 113.795 519.473 L113.795 514.959 Q115.739 516.093 118.054 516.672 Q120.369 517.25 122.892 517.25 Q127.29 517.25 129.582 515.514 Q131.897 513.778 131.897 510.468 Q131.897 507.413 129.744 505.7 Q127.614 503.964 123.795 503.964 L119.767 503.964 L119.767 500.121 L123.98 500.121 Q127.429 500.121 129.258 498.755 Q131.086 497.366 131.086 494.774 Q131.086 492.112 129.188 490.7 Q127.313 489.265 123.795 489.265 Q121.873 489.265 119.674 489.681 Q117.475 490.098 114.836 490.977 L114.836 486.811 Q117.498 486.07 119.813 485.7 Q122.151 485.329 124.211 485.329 Q129.535 485.329 132.637 487.76 Q135.739 490.167 135.739 494.288 Q135.739 497.158 134.096 499.149 Q132.452 501.116 129.42 501.88 Z" fill="#000000" fill-rule="nonzero" fill-opacity="1" /><path clip-path="url(#clip230)" d="M155.415 489.033 Q151.804 489.033 149.975 492.598 Q148.17 496.139 148.17 503.269 Q148.17 510.376 149.975 513.94 Q151.804 517.482 155.415 517.482 Q159.049 517.482 160.855 513.94 Q162.683 510.376 162.683 503.269 Q162.683 496.139 160.855 492.598 Q159.049 489.033 155.415 489.033 M155.415 485.329 Q161.225 485.329 164.281 489.936 Q167.359 494.519 167.359 503.269 Q167.359 511.996 164.281 516.602 Q161.225 521.186 155.415 521.186 Q149.605 521.186 146.526 516.602 Q143.471 511.996 143.471 503.269 Q143.471 494.519 146.526 489.936 Q149.605 485.329 155.415 485.329 Z" fill="#000000" fill-rule="nonzero" fill-opacity="1" /><path clip-path="url(#clip230)" d="M175.577 514.635 L180.461 514.635 L180.461 520.514 L175.577 520.514 L175.577 514.635 Z" fill="#000000" fill-rule="nonzero" fill-opacity="1" /><path clip-path="url(#clip230)" d="M200.646 504.102 Q197.313 504.102 195.392 505.885 Q193.493 507.667 193.493 510.792 Q193.493 513.917 195.392 515.7 Q197.313 517.482 200.646 517.482 Q203.979 517.482 205.901 515.7 Q207.822 513.894 207.822 510.792 Q207.822 507.667 205.901 505.885 Q204.003 504.102 200.646 504.102 M195.97 502.112 Q192.961 501.371 191.271 499.311 Q189.605 497.251 189.605 494.288 Q189.605 490.144 192.544 487.737 Q195.507 485.329 200.646 485.329 Q205.808 485.329 208.748 487.737 Q211.688 490.144 211.688 494.288 Q211.688 497.251 209.998 499.311 Q208.331 501.371 205.345 502.112 Q208.725 502.899 210.6 505.19 Q212.498 507.482 212.498 510.792 Q212.498 515.815 209.419 518.5 Q206.364 521.186 200.646 521.186 Q194.929 521.186 191.85 518.5 Q188.794 515.815 188.794 510.792 Q188.794 507.482 190.693 505.19 Q192.591 502.899 195.97 502.112 M194.257 494.727 Q194.257 497.413 195.924 498.917 Q197.614 500.422 200.646 500.422 Q203.655 500.422 205.345 498.917 Q207.058 497.413 207.058 494.727 Q207.058 492.042 205.345 490.538 Q203.655 489.033 200.646 489.033 Q197.614 489.033 195.924 490.538 Q194.257 492.042 194.257 494.727 Z" fill="#000000" fill-rule="nonzero" fill-opacity="1" /><path clip-path="url(#clip230)" d="M129.512 182.885 Q132.869 183.602 134.744 185.871 Q136.642 188.139 136.642 191.473 Q136.642 196.588 133.123 199.389 Q129.605 202.19 123.123 202.19 Q120.948 202.19 118.633 201.75 Q116.341 201.334 113.887 200.477 L113.887 195.963 Q115.832 197.098 118.147 197.676 Q120.461 198.255 122.985 198.255 Q127.383 198.255 129.674 196.519 Q131.989 194.783 131.989 191.473 Q131.989 188.417 129.836 186.704 Q127.707 184.968 123.887 184.968 L119.86 184.968 L119.86 181.126 L124.073 181.126 Q127.522 181.126 129.35 179.76 Q131.179 178.371 131.179 175.778 Q131.179 173.116 129.281 171.704 Q127.406 170.269 123.887 170.269 Q121.966 170.269 119.767 170.686 Q117.568 171.102 114.929 171.982 L114.929 167.815 Q117.591 167.075 119.906 166.704 Q122.244 166.334 124.304 166.334 Q129.628 166.334 132.73 168.764 Q135.832 171.172 135.832 175.292 Q135.832 178.163 134.188 180.153 Q132.545 182.121 129.512 182.885 Z" fill="#000000" fill-rule="nonzero" fill-opacity="1" /><path clip-path="url(#clip230)" d="M155.508 170.038 Q151.896 170.038 150.068 173.602 Q148.262 177.144 148.262 184.274 Q148.262 191.38 150.068 194.945 Q151.896 198.487 155.508 198.487 Q159.142 198.487 160.947 194.945 Q162.776 191.38 162.776 184.274 Q162.776 177.144 160.947 173.602 Q159.142 170.038 155.508 170.038 M155.508 166.334 Q161.318 166.334 164.373 170.94 Q167.452 175.524 167.452 184.274 Q167.452 193 164.373 197.607 Q161.318 202.19 155.508 202.19 Q149.697 202.19 146.619 197.607 Q143.563 193 143.563 184.274 Q143.563 175.524 146.619 170.94 Q149.697 166.334 155.508 166.334 Z" fill="#000000" fill-rule="nonzero" fill-opacity="1" /><path clip-path="url(#clip230)" d="M175.669 195.639 L180.554 195.639 L180.554 201.519 L175.669 201.519 L175.669 195.639 Z" fill="#000000" fill-rule="nonzero" fill-opacity="1" /><path clip-path="url(#clip230)" d="M190.878 200.801 L190.878 196.542 Q192.637 197.375 194.443 197.815 Q196.248 198.255 197.984 198.255 Q202.614 198.255 205.044 195.153 Q207.498 192.028 207.845 185.686 Q206.503 187.676 204.442 188.741 Q202.382 189.806 199.882 189.806 Q194.697 189.806 191.665 186.681 Q188.655 183.533 188.655 178.093 Q188.655 172.769 191.804 169.552 Q194.952 166.334 200.183 166.334 Q206.179 166.334 209.327 170.94 Q212.498 175.524 212.498 184.274 Q212.498 192.445 208.609 197.329 Q204.743 202.19 198.192 202.19 Q196.433 202.19 194.628 201.843 Q192.822 201.496 190.878 200.801 M200.183 186.149 Q203.331 186.149 205.16 183.996 Q207.012 181.843 207.012 178.093 Q207.012 174.366 205.16 172.214 Q203.331 170.038 200.183 170.038 Q197.035 170.038 195.183 172.214 Q193.355 174.366 193.355 178.093 Q193.355 181.843 195.183 183.996 Q197.035 186.149 200.183 186.149 Z" fill="#000000" fill-rule="nonzero" fill-opacity="1" /><path clip-path="url(#clip230)" d="M62.1933 956.811 L62.1933 946.308 L25.9406 946.308 L28.2323 957.734 L22.3758 957.734 L20.0842 946.371 L20.0842 939.942 L62.1933 939.942 L62.1933 929.438 L67.6042 929.438 L67.6042 956.811 L62.1933 956.811 Z" fill="#000000" fill-rule="nonzero" fill-opacity="1" /><path clip-path="url(#clip230)" d="M24.3174 902.703 Q24.3174 907.668 29.2189 910.182 Q34.0887 912.665 43.8919 912.665 Q53.6633 912.665 58.5649 910.182 Q63.4346 907.668 63.4346 902.703 Q63.4346 897.705 58.5649 895.223 Q53.6633 892.708 43.8919 892.708 Q34.0887 892.708 29.2189 895.223 Q24.3174 897.705 24.3174 902.703 M19.2248 902.703 Q19.2248 894.714 25.5587 890.512 Q31.8607 886.279 43.8919 886.279 Q55.8913 886.279 62.2251 890.512 Q68.5272 894.714 68.5272 902.703 Q68.5272 910.691 62.2251 914.925 Q55.8913 919.126 43.8919 919.126 Q31.8607 919.126 25.5587 914.925 Q19.2248 910.691 19.2248 902.703 Z" fill="#000000" fill-rule="nonzero" fill-opacity="1" /><path clip-path="url(#clip230)" d="M24.3174 861.23 Q24.3174 866.195 29.2189 868.71 Q34.0887 871.192 43.8919 871.192 Q53.6633 871.192 58.5649 868.71 Q63.4346 866.195 63.4346 861.23 Q63.4346 856.233 58.5649 853.75 Q53.6633 851.236 43.8919 851.236 Q34.0887 851.236 29.2189 853.75 Q24.3174 856.233 24.3174 861.23 M19.2248 861.23 Q19.2248 853.241 25.5587 849.04 Q31.8607 844.806 43.8919 844.806 Q55.8913 844.806 62.2251 849.04 Q68.5272 853.241 68.5272 861.23 Q68.5272 869.219 62.2251 873.452 Q55.8913 877.653 43.8919 877.653 Q31.8607 877.653 25.5587 873.452 Q19.2248 869.219 19.2248 861.23 Z" fill="#000000" fill-rule="nonzero" fill-opacity="1" /><path clip-path="url(#clip230)" d="M47.1384 837.295 L47.1384 820.139 L52.3583 820.139 L52.3583 837.295 L47.1384 837.295 Z" fill="#000000" fill-rule="nonzero" fill-opacity="1" /><path clip-path="url(#clip230)" d="M20.0842 824.818 L20.0842 817.911 L39.6269 804.734 L20.0842 791.653 L20.0842 784.746 L44.9741 801.551 L67.6042 801.551 L67.6042 808.013 L44.9741 808.013 L20.0842 824.818 Z" fill="#000000" fill-rule="nonzero" fill-opacity="1" /><path clip-path="url(#clip230)" d="M48.3161 756.896 L51.1806 756.896 L51.1806 783.823 Q57.2281 783.441 60.4109 780.194 Q63.5619 776.916 63.5619 771.092 Q63.5619 767.718 62.7344 764.567 Q61.9069 761.384 60.2518 758.265 L65.7899 758.265 Q67.1267 761.416 67.827 764.726 Q68.5272 768.036 68.5272 771.442 Q68.5272 779.972 63.5619 784.969 Q58.5967 789.934 50.1303 789.934 Q41.3774 789.934 36.2531 785.223 Q31.0968 780.481 31.0968 772.46 Q31.0968 765.267 35.7438 761.097 Q40.3589 756.896 48.3161 756.896 M46.5973 762.752 Q41.7912 762.816 38.9266 765.458 Q36.0621 768.068 36.0621 772.396 Q36.0621 777.298 38.8312 780.258 Q41.6002 783.186 46.6292 783.632 L46.5973 762.752 Z" fill="#000000" fill-rule="nonzero" fill-opacity="1" /><path clip-path="url(#clip230)" d="M49.6847 731.083 Q49.6847 738.181 51.3079 740.918 Q52.9312 743.655 56.8461 743.655 Q59.9653 743.655 61.8114 741.618 Q63.6256 739.549 63.6256 736.016 Q63.6256 731.147 60.1881 728.218 Q56.7188 725.258 50.9897 725.258 L49.6847 725.258 L49.6847 731.083 M47.2657 719.402 L67.6042 719.402 L67.6042 725.258 L62.1933 725.258 Q65.4398 727.264 66.9994 730.256 Q68.5272 733.247 68.5272 737.576 Q68.5272 743.051 65.4716 746.297 Q62.3843 749.512 57.2281 749.512 Q51.2125 749.512 48.1569 745.501 Q45.1014 741.459 45.1014 733.47 L45.1014 725.258 L44.5285 725.258 Q40.4862 725.258 38.2901 727.932 Q36.0621 730.574 36.0621 735.38 Q36.0621 738.435 36.7941 741.332 Q37.5262 744.228 38.9903 746.902 L33.5795 746.902 Q32.3381 743.687 31.7334 740.663 Q31.0968 737.64 31.0968 734.775 Q31.0968 727.041 35.1072 723.221 Q39.1176 719.402 47.2657 719.402 Z" fill="#000000" fill-rule="nonzero" fill-opacity="1" /><path clip-path="url(#clip230)" d="M37.4307 686.682 Q36.8578 687.669 36.6032 688.847 Q36.3167 689.992 36.3167 691.393 Q36.3167 696.358 39.5632 699.032 Q42.7779 701.673 48.8253 701.673 L67.6042 701.673 L67.6042 707.562 L31.9562 707.562 L31.9562 701.673 L37.4944 701.673 Q34.2479 699.827 32.6883 696.867 Q31.0968 693.907 31.0968 689.674 Q31.0968 689.069 31.1923 688.337 Q31.256 687.605 31.4151 686.714 L37.4307 686.682 Z" fill="#000000" fill-rule="nonzero" fill-opacity="1" /><path clip-path="url(#clip230)" d="M45.3242 637.03 Q46.0244 634.961 48.3161 633.019 Q50.6077 631.046 54.6181 629.073 L67.6042 622.548 L67.6042 629.455 L55.4138 635.534 Q50.6395 637.889 49.08 640.117 Q47.5204 642.313 47.5204 646.133 L47.5204 653.135 L67.6042 653.135 L67.6042 659.564 L20.0842 659.564 L20.0842 645.051 Q20.0842 636.902 23.4898 632.892 Q26.8955 628.882 33.7704 628.882 Q38.2582 628.882 41.2183 630.982 Q44.1784 633.051 45.3242 637.03 M25.3677 653.135 L42.2368 653.135 L42.2368 645.051 Q42.2368 640.404 40.1043 638.048 Q37.94 635.661 33.7704 635.661 Q29.6009 635.661 27.5002 638.048 Q25.3677 640.404 25.3677 645.051 L25.3677 653.135 Z" fill="#000000" fill-rule="nonzero" fill-opacity="1" /><path clip-path="url(#clip230)" d="M48.3161 586.963 L51.1806 586.963 L51.1806 613.89 Q57.2281 613.508 60.4109 610.262 Q63.5619 606.984 63.5619 601.159 Q63.5619 597.785 62.7344 594.634 Q61.9069 591.451 60.2518 588.332 L65.7899 588.332 Q67.1267 591.483 67.827 594.793 Q68.5272 598.103 68.5272 601.509 Q68.5272 610.039 63.5619 615.036 Q58.5967 620.001 50.1303 620.001 Q41.3774 620.001 36.2531 615.291 Q31.0968 610.548 31.0968 602.528 Q31.0968 595.334 35.7438 591.165 Q40.3589 586.963 48.3161 586.963 M46.5973 592.82 Q41.7912 592.884 38.9266 595.525 Q36.0621 598.135 36.0621 602.464 Q36.0621 607.366 38.8312 610.326 Q41.6002 613.254 46.6292 613.699 L46.5973 592.82 Z" fill="#000000" fill-rule="nonzero" fill-opacity="1" /><path clip-path="url(#clip230)" d="M21.8347 571.558 L31.9562 571.558 L31.9562 559.495 L36.5077 559.495 L36.5077 571.558 L55.8594 571.558 Q60.2199 571.558 61.4613 570.381 Q62.7026 569.171 62.7026 565.511 L62.7026 559.495 L67.6042 559.495 L67.6042 565.511 Q67.6042 572.29 65.0897 574.869 Q62.5434 577.447 55.8594 577.447 L36.5077 577.447 L36.5077 581.744 L31.9562 581.744 L31.9562 577.447 L21.8347 577.447 L21.8347 571.558 Z" fill="#000000" fill-rule="nonzero" fill-opacity="1" /><path clip-path="url(#clip230)" d="M53.5359 552.398 L31.9562 552.398 L31.9562 546.541 L53.3131 546.541 Q58.3739 546.541 60.9202 544.568 Q63.4346 542.594 63.4346 538.648 Q63.4346 533.905 60.4109 531.168 Q57.3872 528.399 52.1673 528.399 L31.9562 528.399 L31.9562 522.543 L67.6042 522.543 L67.6042 528.399 L62.1296 528.399 Q65.3762 530.531 66.9676 533.364 Q68.5272 536.165 68.5272 539.889 Q68.5272 546.032 64.7078 549.215 Q60.8883 552.398 53.5359 552.398 M31.0968 537.661 L31.0968 537.661 Z" fill="#000000" fill-rule="nonzero" fill-opacity="1" /><path clip-path="url(#clip230)" d="M37.4307 489.823 Q36.8578 490.809 36.6032 491.987 Q36.3167 493.133 36.3167 494.533 Q36.3167 499.499 39.5632 502.172 Q42.7779 504.814 48.8253 504.814 L67.6042 504.814 L67.6042 510.702 L31.9562 510.702 L31.9562 504.814 L37.4944 504.814 Q34.2479 502.968 32.6883 500.008 Q31.0968 497.048 31.0968 492.815 Q31.0968 492.21 31.1923 491.478 Q31.256 490.746 31.4151 489.855 L37.4307 489.823 Z" fill="#000000" fill-rule="nonzero" fill-opacity="1" /><path clip-path="url(#clip230)" d="M46.0881 455.193 L67.6042 455.193 L67.6042 461.05 L46.279 461.05 Q41.2183 461.05 38.7038 463.023 Q36.1894 464.997 36.1894 468.943 Q36.1894 473.686 39.2131 476.423 Q42.2368 479.16 47.4567 479.16 L67.6042 479.16 L67.6042 485.048 L31.9562 485.048 L31.9562 479.16 L37.4944 479.16 Q34.2797 477.06 32.6883 474.227 Q31.0968 471.362 31.0968 467.638 Q31.0968 461.495 34.9163 458.344 Q38.7038 455.193 46.0881 455.193 Z" fill="#000000" fill-rule="nonzero" fill-opacity="1" /><path clip-path="url(#clip230)" d="M20.0842 422.537 L20.0842 416.108 L62.1933 416.108 L62.1933 392.969 L67.6042 392.969 L67.6042 422.537 L20.0842 422.537 Z" fill="#000000" fill-rule="nonzero" fill-opacity="1" /><path clip-path="url(#clip230)" d="M48.3161 357.13 L51.1806 357.13 L51.1806 384.057 Q57.2281 383.675 60.4109 380.428 Q63.5619 377.15 63.5619 371.325 Q63.5619 367.951 62.7344 364.8 Q61.9069 361.617 60.2518 358.498 L65.7899 358.498 Q67.1267 361.649 67.827 364.959 Q68.5272 368.27 68.5272 371.675 Q68.5272 380.205 63.5619 385.202 Q58.5967 390.168 50.1303 390.168 Q41.3774 390.168 36.2531 385.457 Q31.0968 380.715 31.0968 372.694 Q31.0968 365.501 35.7438 361.331 Q40.3589 357.13 48.3161 357.13 M46.5973 362.986 Q41.7912 363.05 38.9266 365.691 Q36.0621 368.301 36.0621 372.63 Q36.0621 377.532 38.8312 380.492 Q41.6002 383.42 46.6292 383.866 L46.5973 362.986 Z" fill="#000000" fill-rule="nonzero" fill-opacity="1" /><path clip-path="url(#clip230)" d="M31.9562 351.719 L31.9562 345.512 L61.875 334.372 L31.9562 323.232 L31.9562 317.026 L67.6042 330.394 L67.6042 338.351 L31.9562 351.719 Z" fill="#000000" fill-rule="nonzero" fill-opacity="1" /><path clip-path="url(#clip230)" d="M48.3161 278.449 L51.1806 278.449 L51.1806 305.376 Q57.2281 304.994 60.4109 301.748 Q63.5619 298.47 63.5619 292.645 Q63.5619 289.271 62.7344 286.12 Q61.9069 282.937 60.2518 279.818 L65.7899 279.818 Q67.1267 282.969 67.827 286.279 Q68.5272 289.589 68.5272 292.995 Q68.5272 301.525 63.5619 306.522 Q58.5967 311.487 50.1303 311.487 Q41.3774 311.487 36.2531 306.777 Q31.0968 302.034 31.0968 294.014 Q31.0968 286.82 35.7438 282.651 Q40.3589 278.449 48.3161 278.449 M46.5973 284.306 Q41.7912 284.37 38.9266 287.011 Q36.0621 289.621 36.0621 293.95 Q36.0621 298.852 38.8312 301.812 Q41.6002 304.74 46.6292 305.185 L46.5973 284.306 Z" fill="#000000" fill-rule="nonzero" fill-opacity="1" /><path clip-path="url(#clip230)" d="M18.079 268.837 L18.079 262.981 L67.6042 262.981 L67.6042 268.837 L18.079 268.837 Z" fill="#000000" fill-rule="nonzero" fill-opacity="1" /><polyline clip-path="url(#clip231)" style="stroke:#000000; stroke-linecap:round; stroke-linejoin:round; stroke-width:8; stroke-opacity:1; fill:none" points="295.704,1141.6 306.176,1135.12 316.649,1128.64 327.122,1122.16 337.595,1115.68 348.067,1109.2 358.54,1102.73 369.013,1096.25 379.486,1089.77 389.958,1083.29 400.431,1076.81 410.904,1070.33 421.376,1063.85 431.849,1057.38 442.322,1050.9 452.795,1044.42 463.267,1037.94 473.74,1031.46 484.213,1024.98 494.685,1018.5 505.158,1012.03 515.631,1005.55 526.104,999.069 536.576,992.59 547.049,986.112 557.522,979.633 567.995,973.155 578.467,966.676 588.94,960.198 599.413,953.719 609.885,947.241 620.358,940.762 630.831,934.284 641.304,927.805 651.776,921.327 662.249,914.848 672.722,908.37 683.194,901.891 693.667,895.412 704.14,888.934 714.613,882.455 725.085,875.977 735.558,869.498 746.031,863.02 756.504,856.541 766.976,850.063 777.449,843.584 787.922,837.106 798.394,830.627 808.867,824.149 819.34,817.67 829.813,811.192 840.285,804.713 850.758,798.235 861.231,791.756 871.703,785.278 882.176,778.799 892.649,772.321 903.122,765.842 913.594,759.363 924.067,752.885 934.54,746.406 945.012,739.928 955.485,733.449 965.958,726.971 976.431,720.492 986.903,714.014 997.376,707.535 1007.85,701.057 1018.32,694.578 1028.79,688.1 1039.27,681.621 1049.74,675.143 1060.21,668.664 1070.69,662.186 1081.16,655.707 1091.63,649.229 1102.1,642.75 1112.58,636.272 1123.05,629.793 1133.52,623.314 1143.99,616.836 1154.47,610.357 1164.94,603.879 1175.41,597.4 1185.89,590.922 1196.36,584.443 1206.83,577.965 1217.3,571.486 1227.78,565.008 1238.25,558.529 1248.72,552.051 1259.19,545.572 1269.67,539.094 1280.14,532.615 1290.61,526.137 1301.09,519.658 1311.56,513.18 1322.03,506.701 1332.5,500.223 1342.98,493.744 1353.45,487.265 1363.92,480.787 1374.39,474.308 1384.87,467.83 1395.34,461.351 1405.81,454.873 1416.28,448.394 1426.76,441.916 1437.23,435.437 1447.7,428.959 1458.18,422.48 1468.65,416.002 1479.12,409.523 1489.59,403.045 1500.07,396.566 1510.54,390.088 1521.01,383.609 1531.48,377.131 1541.96,370.652 1552.43,364.174 1562.9,357.695 1573.38,351.216 1583.85,344.738 1594.32,338.259 1604.79,331.781 1615.27,325.302 1625.74,318.824 1636.21,312.345 1646.68,305.867 1657.16,299.388 1667.63,292.91 1678.1,286.431 1688.58,279.953 1699.05,273.474 1709.52,266.996 1719.99,260.517 1730.47,254.039 1740.94,247.56 1751.41,241.082 1761.88,234.603 1772.36,228.124 1782.83,221.646 1793.3,215.167 1803.78,208.689 1814.25,202.21 1824.72,195.732 1835.19,189.253 1845.67,182.775 1856.14,176.296 1866.61,169.818 1877.08,163.339 1887.56,156.861 1898.03,150.382 1908.5,143.904 1918.98,137.425 1929.45,130.947 1939.92,124.468 1950.39,117.99 1960.87,111.511 1971.34,105.033 1981.81,98.554 1992.28,92.0755 2002.76,85.597 2013.23,79.1184 "/>
<polyline clip-path="url(#clip231)" style="stroke:#ff0000; stroke-linecap:round; stroke-linejoin:round; stroke-width:8; stroke-opacity:1; fill:none" stroke-dasharray="32, 20" points="-1576.4,574.257 3885.33,574.257 "/>
<path clip-path="url(#clip230)" d="M304.864 240.305 L969.489 240.305 L969.489 84.785 L304.864 84.785  Z" fill="#ffffff" fill-rule="evenodd" fill-opacity="1"/>
<polyline clip-path="url(#clip230)" style="stroke:#000000; stroke-linecap:round; stroke-linejoin:round; stroke-width:4; stroke-opacity:1; fill:none" points="304.864,240.305 969.489,240.305 969.489,84.785 304.864,84.785 304.864,240.305 "/>
<polyline clip-path="url(#clip230)" style="stroke:#000000; stroke-linecap:round; stroke-linejoin:round; stroke-width:8; stroke-opacity:1; fill:none" points="325.093,136.625 446.464,136.625 "/>
<path clip-path="url(#clip230)" d="M466.693 119.345 L472.989 119.345 L488.313 148.257 L488.313 119.345 L492.85 119.345 L492.85 153.905 L486.554 153.905 L471.23 124.993 L471.23 153.905 L466.693 153.905 L466.693 119.345 Z" fill="#000000" fill-rule="nonzero" fill-opacity="1" /><path clip-path="url(#clip230)" d="M512.017 130.965 Q508.591 130.965 506.6 133.65 Q504.61 136.312 504.61 140.965 Q504.61 145.618 506.577 148.303 Q508.568 150.965 512.017 150.965 Q515.42 150.965 517.41 148.28 Q519.401 145.595 519.401 140.965 Q519.401 136.359 517.41 133.674 Q515.42 130.965 512.017 130.965 M512.017 127.354 Q517.572 127.354 520.744 130.965 Q523.915 134.576 523.915 140.965 Q523.915 147.331 520.744 150.965 Q517.572 154.576 512.017 154.576 Q506.438 154.576 503.267 150.965 Q500.119 147.331 500.119 140.965 Q500.119 134.576 503.267 130.965 Q506.438 127.354 512.017 127.354 Z" fill="#000000" fill-rule="nonzero" fill-opacity="1" /><path clip-path="url(#clip230)" d="M552.526 138.257 L552.526 153.905 L548.267 153.905 L548.267 138.396 Q548.267 134.715 546.832 132.887 Q545.396 131.058 542.526 131.058 Q539.077 131.058 537.086 133.257 Q535.095 135.456 535.095 139.252 L535.095 153.905 L530.813 153.905 L530.813 127.979 L535.095 127.979 L535.095 132.007 Q536.623 129.669 538.683 128.512 Q540.767 127.354 543.475 127.354 Q547.943 127.354 550.234 130.132 Q552.526 132.887 552.526 138.257 Z" fill="#000000" fill-rule="nonzero" fill-opacity="1" /><path clip-path="url(#clip230)" d="M577.549 128.743 L577.549 132.771 Q575.743 131.845 573.799 131.382 Q571.855 130.919 569.771 130.919 Q566.6 130.919 565.003 131.891 Q563.429 132.863 563.429 134.808 Q563.429 136.289 564.563 137.146 Q565.697 137.979 569.123 138.743 L570.581 139.067 Q575.118 140.039 577.017 141.822 Q578.938 143.581 578.938 146.752 Q578.938 150.363 576.067 152.47 Q573.22 154.576 568.22 154.576 Q566.137 154.576 563.868 154.16 Q561.623 153.766 559.123 152.956 L559.123 148.558 Q561.484 149.785 563.776 150.41 Q566.068 151.011 568.313 151.011 Q571.322 151.011 572.942 149.993 Q574.563 148.951 574.563 147.076 Q574.563 145.34 573.382 144.414 Q572.225 143.488 568.267 142.632 L566.785 142.285 Q562.827 141.451 561.068 139.738 Q559.308 138.002 559.308 134.993 Q559.308 131.336 561.901 129.345 Q564.493 127.354 569.262 127.354 Q571.623 127.354 573.706 127.701 Q575.79 128.049 577.549 128.743 Z" fill="#000000" fill-rule="nonzero" fill-opacity="1" /><path clip-path="url(#clip230)" d="M589.933 120.618 L589.933 127.979 L598.706 127.979 L598.706 131.289 L589.933 131.289 L589.933 145.363 Q589.933 148.535 590.79 149.437 Q591.669 150.34 594.331 150.34 L598.706 150.34 L598.706 153.905 L594.331 153.905 Q589.401 153.905 587.526 152.076 Q585.651 150.224 585.651 145.363 L585.651 131.289 L582.526 131.289 L582.526 127.979 L585.651 127.979 L585.651 120.618 L589.933 120.618 Z" fill="#000000" fill-rule="nonzero" fill-opacity="1" /><path clip-path="url(#clip230)" d="M616.09 140.873 Q610.928 140.873 608.938 142.053 Q606.947 143.234 606.947 146.081 Q606.947 148.349 608.428 149.692 Q609.933 151.011 612.502 151.011 Q616.044 151.011 618.174 148.511 Q620.326 145.988 620.326 141.822 L620.326 140.873 L616.09 140.873 M624.586 139.113 L624.586 153.905 L620.326 153.905 L620.326 149.97 Q618.868 152.331 616.692 153.465 Q614.516 154.576 611.368 154.576 Q607.387 154.576 605.026 152.354 Q602.688 150.109 602.688 146.359 Q602.688 141.984 605.604 139.762 Q608.544 137.539 614.354 137.539 L620.326 137.539 L620.326 137.123 Q620.326 134.183 618.382 132.586 Q616.461 130.965 612.965 130.965 Q610.743 130.965 608.637 131.498 Q606.53 132.03 604.586 133.095 L604.586 129.16 Q606.924 128.257 609.123 127.817 Q611.322 127.354 613.405 127.354 Q619.03 127.354 621.808 130.271 Q624.586 133.188 624.586 139.113 Z" fill="#000000" fill-rule="nonzero" fill-opacity="1" /><path clip-path="url(#clip230)" d="M637.572 120.618 L637.572 127.979 L646.345 127.979 L646.345 131.289 L637.572 131.289 L637.572 145.363 Q637.572 148.535 638.428 149.437 Q639.308 150.34 641.97 150.34 L646.345 150.34 L646.345 153.905 L641.97 153.905 Q637.039 153.905 635.164 152.076 Q633.289 150.224 633.289 145.363 L633.289 131.289 L630.164 131.289 L630.164 127.979 L633.289 127.979 L633.289 120.618 L637.572 120.618 Z" fill="#000000" fill-rule="nonzero" fill-opacity="1" /><path clip-path="url(#clip230)" d="M651.947 127.979 L656.206 127.979 L656.206 153.905 L651.947 153.905 L651.947 127.979 M651.947 117.887 L656.206 117.887 L656.206 123.28 L651.947 123.28 L651.947 117.887 Z" fill="#000000" fill-rule="nonzero" fill-opacity="1" /><path clip-path="url(#clip230)" d="M675.164 130.965 Q671.738 130.965 669.748 133.65 Q667.757 136.312 667.757 140.965 Q667.757 145.618 669.724 148.303 Q671.715 150.965 675.164 150.965 Q678.567 150.965 680.558 148.28 Q682.548 145.595 682.548 140.965 Q682.548 136.359 680.558 133.674 Q678.567 130.965 675.164 130.965 M675.164 127.354 Q680.72 127.354 683.891 130.965 Q687.062 134.576 687.062 140.965 Q687.062 147.331 683.891 150.965 Q680.72 154.576 675.164 154.576 Q669.585 154.576 666.414 150.965 Q663.266 147.331 663.266 140.965 Q663.266 134.576 666.414 130.965 Q669.585 127.354 675.164 127.354 Z" fill="#000000" fill-rule="nonzero" fill-opacity="1" /><path clip-path="url(#clip230)" d="M715.673 138.257 L715.673 153.905 L711.414 153.905 L711.414 138.396 Q711.414 134.715 709.979 132.887 Q708.544 131.058 705.673 131.058 Q702.224 131.058 700.233 133.257 Q698.243 135.456 698.243 139.252 L698.243 153.905 L693.96 153.905 L693.96 127.979 L698.243 127.979 L698.243 132.007 Q699.77 129.669 701.831 128.512 Q703.914 127.354 706.622 127.354 Q711.09 127.354 713.382 130.132 Q715.673 132.887 715.673 138.257 Z" fill="#000000" fill-rule="nonzero" fill-opacity="1" /><path clip-path="url(#clip230)" d="M735.951 140.873 Q730.789 140.873 728.798 142.053 Q726.807 143.234 726.807 146.081 Q726.807 148.349 728.289 149.692 Q729.793 151.011 732.363 151.011 Q735.905 151.011 738.034 148.511 Q740.187 145.988 740.187 141.822 L740.187 140.873 L735.951 140.873 M744.446 139.113 L744.446 153.905 L740.187 153.905 L740.187 149.97 Q738.729 152.331 736.553 153.465 Q734.377 154.576 731.229 154.576 Q727.247 154.576 724.886 152.354 Q722.548 150.109 722.548 146.359 Q722.548 141.984 725.465 139.762 Q728.405 137.539 734.215 137.539 L740.187 137.539 L740.187 137.123 Q740.187 134.183 738.243 132.586 Q736.321 130.965 732.826 130.965 Q730.604 130.965 728.497 131.498 Q726.391 132.03 724.446 133.095 L724.446 129.16 Q726.784 128.257 728.983 127.817 Q731.182 127.354 733.266 127.354 Q738.891 127.354 741.668 130.271 Q744.446 133.188 744.446 139.113 Z" fill="#000000" fill-rule="nonzero" fill-opacity="1" /><path clip-path="url(#clip230)" d="M768.242 131.961 Q767.525 131.544 766.668 131.359 Q765.835 131.15 764.816 131.15 Q761.205 131.15 759.261 133.512 Q757.34 135.85 757.34 140.248 L757.34 153.905 L753.057 153.905 L753.057 127.979 L757.34 127.979 L757.34 132.007 Q758.682 129.646 760.835 128.512 Q762.988 127.354 766.066 127.354 Q766.506 127.354 767.039 127.424 Q767.571 127.47 768.219 127.586 L768.242 131.961 Z" fill="#000000" fill-rule="nonzero" fill-opacity="1" /><path clip-path="url(#clip230)" d="M783.497 156.312 Q781.691 160.942 779.978 162.354 Q778.265 163.766 775.395 163.766 L771.992 163.766 L771.992 160.201 L774.492 160.201 Q776.252 160.201 777.224 159.368 Q778.196 158.535 779.377 155.433 L780.14 153.488 L769.654 127.979 L774.168 127.979 L782.27 148.257 L790.372 127.979 L794.886 127.979 L783.497 156.312 Z" fill="#000000" fill-rule="nonzero" fill-opacity="1" /><path clip-path="url(#clip230)" d="M816.02 119.345 L822.987 119.345 L831.807 142.863 L840.673 119.345 L847.64 119.345 L847.64 153.905 L843.08 153.905 L843.08 123.558 L834.168 147.262 L829.469 147.262 L820.557 123.558 L820.557 153.905 L816.02 153.905 L816.02 119.345 Z" fill="#000000" fill-rule="nonzero" fill-opacity="1" /><path clip-path="url(#clip230)" d="M866.783 130.965 Q863.358 130.965 861.367 133.65 Q859.376 136.312 859.376 140.965 Q859.376 145.618 861.344 148.303 Q863.334 150.965 866.783 150.965 Q870.186 150.965 872.177 148.28 Q874.168 145.595 874.168 140.965 Q874.168 136.359 872.177 133.674 Q870.186 130.965 866.783 130.965 M866.783 127.354 Q872.339 127.354 875.51 130.965 Q878.682 134.576 878.682 140.965 Q878.682 147.331 875.51 150.965 Q872.339 154.576 866.783 154.576 Q861.205 154.576 858.034 150.965 Q854.885 147.331 854.885 140.965 Q854.885 134.576 858.034 130.965 Q861.205 127.354 866.783 127.354 Z" fill="#000000" fill-rule="nonzero" fill-opacity="1" /><path clip-path="url(#clip230)" d="M902.802 131.914 L902.802 117.887 L907.061 117.887 L907.061 153.905 L902.802 153.905 L902.802 150.016 Q901.459 152.331 899.399 153.465 Q897.362 154.576 894.492 154.576 Q889.793 154.576 886.83 150.826 Q883.89 147.076 883.89 140.965 Q883.89 134.854 886.83 131.104 Q889.793 127.354 894.492 127.354 Q897.362 127.354 899.399 128.488 Q901.459 129.6 902.802 131.914 M888.288 140.965 Q888.288 145.664 890.209 148.349 Q892.154 151.011 895.533 151.011 Q898.913 151.011 900.857 148.349 Q902.802 145.664 902.802 140.965 Q902.802 136.266 900.857 133.604 Q898.913 130.919 895.533 130.919 Q892.154 130.919 890.209 133.604 Q888.288 136.266 888.288 140.965 Z" fill="#000000" fill-rule="nonzero" fill-opacity="1" /><path clip-path="url(#clip230)" d="M938.01 139.877 L938.01 141.961 L918.427 141.961 Q918.705 146.359 921.066 148.674 Q923.45 150.965 927.686 150.965 Q930.14 150.965 932.431 150.363 Q934.746 149.761 937.015 148.558 L937.015 152.586 Q934.723 153.558 932.316 154.067 Q929.908 154.576 927.431 154.576 Q921.228 154.576 917.593 150.965 Q913.982 147.354 913.982 141.197 Q913.982 134.831 917.408 131.104 Q920.857 127.354 926.691 127.354 Q931.922 127.354 934.954 130.734 Q938.01 134.09 938.01 139.877 M933.751 138.627 Q933.704 135.132 931.783 133.049 Q929.885 130.965 926.737 130.965 Q923.172 130.965 921.019 132.979 Q918.89 134.993 918.566 138.65 L933.751 138.627 Z" fill="#000000" fill-rule="nonzero" fill-opacity="1" /><path clip-path="url(#clip230)" d="M945.001 117.887 L949.26 117.887 L949.26 153.905 L945.001 153.905 L945.001 117.887 Z" fill="#000000" fill-rule="nonzero" fill-opacity="1" /><polyline clip-path="url(#clip230)" style="stroke:#ff0000; stroke-linecap:round; stroke-linejoin:round; stroke-width:8; stroke-opacity:1; fill:none" stroke-dasharray="32, 20" points="325.093,188.465 446.464,188.465 "/>
<path clip-path="url(#clip230)" d="M488.938 172.319 L488.938 176.879 Q486.276 175.606 483.915 174.981 Q481.554 174.356 479.355 174.356 Q475.536 174.356 473.452 175.838 Q471.392 177.319 471.392 180.051 Q471.392 182.342 472.758 183.523 Q474.147 184.68 477.989 185.398 L480.813 185.977 Q486.045 186.972 488.522 189.495 Q491.022 191.995 491.022 196.208 Q491.022 201.231 487.642 203.824 Q484.286 206.416 477.781 206.416 Q475.327 206.416 472.549 205.861 Q469.795 205.305 466.832 204.217 L466.832 199.402 Q469.679 201 472.411 201.81 Q475.142 202.62 477.781 202.62 Q481.786 202.62 483.961 201.046 Q486.137 199.472 486.137 196.555 Q486.137 194.009 484.563 192.574 Q483.012 191.139 479.448 190.421 L476.6 189.865 Q471.369 188.824 469.031 186.602 Q466.693 184.379 466.693 180.421 Q466.693 175.838 469.911 173.199 Q473.151 170.56 478.823 170.56 Q481.253 170.56 483.776 171 Q486.299 171.44 488.938 172.319 Z" fill="#000000" fill-rule="nonzero" fill-opacity="1" /><path clip-path="url(#clip230)" d="M502.341 172.458 L502.341 179.819 L511.114 179.819 L511.114 183.129 L502.341 183.129 L502.341 197.203 Q502.341 200.375 503.197 201.277 Q504.077 202.18 506.739 202.18 L511.114 202.18 L511.114 205.745 L506.739 205.745 Q501.809 205.745 499.934 203.916 Q498.059 202.064 498.059 197.203 L498.059 183.129 L494.934 183.129 L494.934 179.819 L498.059 179.819 L498.059 172.458 L502.341 172.458 Z" fill="#000000" fill-rule="nonzero" fill-opacity="1" /><path clip-path="url(#clip230)" d="M528.498 192.713 Q523.336 192.713 521.346 193.893 Q519.355 195.074 519.355 197.921 Q519.355 200.189 520.836 201.532 Q522.341 202.851 524.91 202.851 Q528.452 202.851 530.582 200.351 Q532.734 197.828 532.734 193.662 L532.734 192.713 L528.498 192.713 M536.994 190.953 L536.994 205.745 L532.734 205.745 L532.734 201.81 Q531.276 204.171 529.1 205.305 Q526.924 206.416 523.776 206.416 Q519.795 206.416 517.434 204.194 Q515.096 201.949 515.096 198.199 Q515.096 193.824 518.012 191.602 Q520.952 189.379 526.762 189.379 L532.734 189.379 L532.734 188.963 Q532.734 186.023 530.79 184.426 Q528.869 182.805 525.373 182.805 Q523.151 182.805 521.045 183.338 Q518.938 183.87 516.994 184.935 L516.994 181 Q519.332 180.097 521.531 179.657 Q523.73 179.194 525.813 179.194 Q531.438 179.194 534.216 182.111 Q536.994 185.028 536.994 190.953 Z" fill="#000000" fill-rule="nonzero" fill-opacity="1" /><path clip-path="url(#clip230)" d="M549.98 172.458 L549.98 179.819 L558.753 179.819 L558.753 183.129 L549.98 183.129 L549.98 197.203 Q549.98 200.375 550.836 201.277 Q551.716 202.18 554.378 202.18 L558.753 202.18 L558.753 205.745 L554.378 205.745 Q549.447 205.745 547.572 203.916 Q545.697 202.064 545.697 197.203 L545.697 183.129 L542.572 183.129 L542.572 179.819 L545.697 179.819 L545.697 172.458 L549.98 172.458 Z" fill="#000000" fill-rule="nonzero" fill-opacity="1" /><path clip-path="url(#clip230)" d="M564.355 179.819 L568.614 179.819 L568.614 205.745 L564.355 205.745 L564.355 179.819 M564.355 169.727 L568.614 169.727 L568.614 175.12 L564.355 175.12 L564.355 169.727 Z" fill="#000000" fill-rule="nonzero" fill-opacity="1" /><path clip-path="url(#clip230)" d="M587.572 182.805 Q584.146 182.805 582.155 185.49 Q580.165 188.152 580.165 192.805 Q580.165 197.458 582.132 200.143 Q584.123 202.805 587.572 202.805 Q590.975 202.805 592.966 200.12 Q594.956 197.435 594.956 192.805 Q594.956 188.199 592.966 185.514 Q590.975 182.805 587.572 182.805 M587.572 179.194 Q593.128 179.194 596.299 182.805 Q599.47 186.416 599.47 192.805 Q599.47 199.171 596.299 202.805 Q593.128 206.416 587.572 206.416 Q581.993 206.416 578.822 202.805 Q575.674 199.171 575.674 192.805 Q575.674 186.416 578.822 182.805 Q581.993 179.194 587.572 179.194 Z" fill="#000000" fill-rule="nonzero" fill-opacity="1" /><path clip-path="url(#clip230)" d="M628.081 190.097 L628.081 205.745 L623.822 205.745 L623.822 190.236 Q623.822 186.555 622.387 184.727 Q620.951 182.898 618.081 182.898 Q614.632 182.898 612.641 185.097 Q610.651 187.296 610.651 191.092 L610.651 205.745 L606.368 205.745 L606.368 179.819 L610.651 179.819 L610.651 183.847 Q612.178 181.509 614.239 180.352 Q616.322 179.194 619.03 179.194 Q623.498 179.194 625.789 181.972 Q628.081 184.727 628.081 190.097 Z" fill="#000000" fill-rule="nonzero" fill-opacity="1" /><path clip-path="url(#clip230)" d="M648.359 192.713 Q643.197 192.713 641.206 193.893 Q639.215 195.074 639.215 197.921 Q639.215 200.189 640.697 201.532 Q642.201 202.851 644.771 202.851 Q648.312 202.851 650.442 200.351 Q652.595 197.828 652.595 193.662 L652.595 192.713 L648.359 192.713 M656.854 190.953 L656.854 205.745 L652.595 205.745 L652.595 201.81 Q651.136 204.171 648.961 205.305 Q646.785 206.416 643.637 206.416 Q639.655 206.416 637.294 204.194 Q634.956 201.949 634.956 198.199 Q634.956 193.824 637.873 191.602 Q640.812 189.379 646.623 189.379 L652.595 189.379 L652.595 188.963 Q652.595 186.023 650.65 184.426 Q648.729 182.805 645.234 182.805 Q643.012 182.805 640.905 183.338 Q638.799 183.87 636.854 184.935 L636.854 181 Q639.192 180.097 641.391 179.657 Q643.59 179.194 645.674 179.194 Q651.299 179.194 654.076 182.111 Q656.854 185.028 656.854 190.953 Z" fill="#000000" fill-rule="nonzero" fill-opacity="1" /><path clip-path="url(#clip230)" d="M680.65 183.801 Q679.933 183.384 679.076 183.199 Q678.243 182.99 677.224 182.99 Q673.613 182.99 671.669 185.352 Q669.748 187.69 669.748 192.088 L669.748 205.745 L665.465 205.745 L665.465 179.819 L669.748 179.819 L669.748 183.847 Q671.09 181.486 673.243 180.352 Q675.396 179.194 678.474 179.194 Q678.914 179.194 679.447 179.264 Q679.979 179.31 680.627 179.426 L680.65 183.801 Z" fill="#000000" fill-rule="nonzero" fill-opacity="1" /><path clip-path="url(#clip230)" d="M695.905 208.152 Q694.099 212.782 692.386 214.194 Q690.673 215.606 687.803 215.606 L684.4 215.606 L684.4 212.041 L686.9 212.041 Q688.659 212.041 689.632 211.208 Q690.604 210.375 691.784 207.273 L692.548 205.328 L682.062 179.819 L686.576 179.819 L694.678 200.097 L702.78 179.819 L707.294 179.819 L695.905 208.152 Z" fill="#000000" fill-rule="nonzero" fill-opacity="1" /><path clip-path="url(#clip230)" d="M728.428 171.185 L735.395 171.185 L744.215 194.703 L753.08 171.185 L760.048 171.185 L760.048 205.745 L755.488 205.745 L755.488 175.398 L746.576 199.102 L741.877 199.102 L732.965 175.398 L732.965 205.745 L728.428 205.745 L728.428 171.185 Z" fill="#000000" fill-rule="nonzero" fill-opacity="1" /><path clip-path="url(#clip230)" d="M779.191 182.805 Q775.765 182.805 773.775 185.49 Q771.784 188.152 771.784 192.805 Q771.784 197.458 773.752 200.143 Q775.742 202.805 779.191 202.805 Q782.594 202.805 784.585 200.12 Q786.576 197.435 786.576 192.805 Q786.576 188.199 784.585 185.514 Q782.594 182.805 779.191 182.805 M779.191 179.194 Q784.747 179.194 787.918 182.805 Q791.089 186.416 791.089 192.805 Q791.089 199.171 787.918 202.805 Q784.747 206.416 779.191 206.416 Q773.613 206.416 770.441 202.805 Q767.293 199.171 767.293 192.805 Q767.293 186.416 770.441 182.805 Q773.613 179.194 779.191 179.194 Z" fill="#000000" fill-rule="nonzero" fill-opacity="1" /><path clip-path="url(#clip230)" d="M815.21 183.754 L815.21 169.727 L819.469 169.727 L819.469 205.745 L815.21 205.745 L815.21 201.856 Q813.867 204.171 811.807 205.305 Q809.77 206.416 806.9 206.416 Q802.201 206.416 799.238 202.666 Q796.298 198.916 796.298 192.805 Q796.298 186.694 799.238 182.944 Q802.201 179.194 806.9 179.194 Q809.77 179.194 811.807 180.328 Q813.867 181.44 815.21 183.754 M800.696 192.805 Q800.696 197.504 802.617 200.189 Q804.562 202.851 807.941 202.851 Q811.321 202.851 813.265 200.189 Q815.21 197.504 815.21 192.805 Q815.21 188.106 813.265 185.444 Q811.321 182.759 807.941 182.759 Q804.562 182.759 802.617 185.444 Q800.696 188.106 800.696 192.805 Z" fill="#000000" fill-rule="nonzero" fill-opacity="1" /><path clip-path="url(#clip230)" d="M850.418 191.717 L850.418 193.801 L830.835 193.801 Q831.112 198.199 833.473 200.514 Q835.858 202.805 840.094 202.805 Q842.548 202.805 844.839 202.203 Q847.154 201.601 849.422 200.398 L849.422 204.426 Q847.131 205.398 844.723 205.907 Q842.316 206.416 839.839 206.416 Q833.636 206.416 830.001 202.805 Q826.39 199.194 826.39 193.037 Q826.39 186.671 829.816 182.944 Q833.265 179.194 839.098 179.194 Q844.33 179.194 847.362 182.574 Q850.418 185.93 850.418 191.717 M846.159 190.467 Q846.112 186.972 844.191 184.889 Q842.293 182.805 839.145 182.805 Q835.58 182.805 833.427 184.819 Q831.298 186.833 830.973 190.49 L846.159 190.467 Z" fill="#000000" fill-rule="nonzero" fill-opacity="1" /><path clip-path="url(#clip230)" d="M857.409 169.727 L861.668 169.727 L861.668 205.745 L857.409 205.745 L857.409 169.727 Z" fill="#000000" fill-rule="nonzero" fill-opacity="1" /></svg>
