<?xml version="1.0" encoding="utf-8"?>
<svg xmlns="http://www.w3.org/2000/svg" xmlns:xlink="http://www.w3.org/1999/xlink" width="528" height="336" viewBox="0 0 2112 1344">
<defs>
  <clipPath id="clip110">
    <rect x="0" y="0" width="2112" height="1344"/>
  </clipPath>
</defs>
<path clip-path="url(#clip110)" d="M0 1344 L2112 1344 L2112 2.13163e-14 L0 2.13163e-14  Z" fill="#ffffff" fill-rule="evenodd" fill-opacity="1"/>
<defs>
  <clipPath id="clip111">
    <rect x="237" y="47" width="1829" height="1127"/>
  </clipPath>
</defs>
<path clip-path="url(#clip110)" d="M237.095 1173.47 L2064.76 1173.47 L2064.76 47.2441 L237.095 47.2441  Z" fill="#ffffff" fill-rule="evenodd" fill-opacity="1"/>
<polyline clip-path="url(#clip111)" style="stroke:#000000; stroke-linecap:round; stroke-linejoin:round; stroke-width:2; stroke-opacity:0.1; fill:none" points="319.483,1173.47 319.483,47.2441 "/>
<polyline clip-path="url(#clip111)" style="stroke:#000000; stroke-linecap:round; stroke-linejoin:round; stroke-width:2; stroke-opacity:0.1; fill:none" points="596.631,1173.47 596.631,47.2441 "/>
<polyline clip-path="url(#clip111)" style="stroke:#000000; stroke-linecap:round; stroke-linejoin:round; stroke-width:2; stroke-opacity:0.1; fill:none" points="873.778,1173.47 873.778,47.2441 "/>
<polyline clip-path="url(#clip111)" style="stroke:#000000; stroke-linecap:round; stroke-linejoin:round; stroke-width:2; stroke-opacity:0.1; fill:none" points="1150.93,1173.47 1150.93,47.2441 "/>
<polyline clip-path="url(#clip111)" style="stroke:#000000; stroke-linecap:round; stroke-linejoin:round; stroke-width:2; stroke-opacity:0.1; fill:none" points="1428.07,1173.47 1428.07,47.2441 "/>
<polyline clip-path="url(#clip111)" style="stroke:#000000; stroke-linecap:round; stroke-linejoin:round; stroke-width:2; stroke-opacity:0.1; fill:none" points="1705.22,1173.47 1705.22,47.2441 "/>
<polyline clip-path="url(#clip111)" style="stroke:#000000; stroke-linecap:round; stroke-linejoin:round; stroke-width:2; stroke-opacity:0.1; fill:none" points="1982.37,1173.47 1982.37,47.2441 "/>
<polyline clip-path="url(#clip111)" style="stroke:#000000; stroke-linecap:round; stroke-linejoin:round; stroke-width:2; stroke-opacity:0.1; fill:none" points="237.095,1122.7 2064.76,1122.7 "/>
<polyline clip-path="url(#clip111)" style="stroke:#000000; stroke-linecap:round; stroke-linejoin:round; stroke-width:2; stroke-opacity:0.1; fill:none" points="237.095,951.92 2064.76,951.92 "/>
<polyline clip-path="url(#clip111)" style="stroke:#000000; stroke-linecap:round; stroke-linejoin:round; stroke-width:2; stroke-opacity:0.1; fill:none" points="237.095,781.139 2064.76,781.139 "/>
<polyline clip-path="url(#clip111)" style="stroke:#000000; stroke-linecap:round; stroke-linejoin:round; stroke-width:2; stroke-opacity:0.1; fill:none" points="237.095,610.357 2064.76,610.357 "/>
<polyline clip-path="url(#clip111)" style="stroke:#000000; stroke-linecap:round; stroke-linejoin:round; stroke-width:2; stroke-opacity:0.1; fill:none" points="237.095,439.576 2064.76,439.576 "/>
<polyline clip-path="url(#clip111)" style="stroke:#000000; stroke-linecap:round; stroke-linejoin:round; stroke-width:2; stroke-opacity:0.1; fill:none" points="237.095,268.794 2064.76,268.794 "/>
<polyline clip-path="url(#clip111)" style="stroke:#000000; stroke-linecap:round; stroke-linejoin:round; stroke-width:2; stroke-opacity:0.1; fill:none" points="237.095,98.013 2064.76,98.013 "/>
<polyline clip-path="url(#clip110)" style="stroke:#000000; stroke-linecap:round; stroke-linejoin:round; stroke-width:4; stroke-opacity:1; fill:none" points="237.095,1173.47 2064.76,1173.47 "/>
<polyline clip-path="url(#clip110)" style="stroke:#000000; stroke-linecap:round; stroke-linejoin:round; stroke-width:4; stroke-opacity:1; fill:none" points="319.483,1173.47 319.483,1154.57 "/>
<polyline clip-path="url(#clip110)" style="stroke:#000000; stroke-linecap:round; stroke-linejoin:round; stroke-width:4; stroke-opacity:1; fill:none" points="596.631,1173.47 596.631,1154.57 "/>
<polyline clip-path="url(#clip110)" style="stroke:#000000; stroke-linecap:round; stroke-linejoin:round; stroke-width:4; stroke-opacity:1; fill:none" points="873.778,1173.47 873.778,1154.57 "/>
<polyline clip-path="url(#clip110)" style="stroke:#000000; stroke-linecap:round; stroke-linejoin:round; stroke-width:4; stroke-opacity:1; fill:none" points="1150.93,1173.47 1150.93,1154.57 "/>
<polyline clip-path="url(#clip110)" style="stroke:#000000; stroke-linecap:round; stroke-linejoin:round; stroke-width:4; stroke-opacity:1; fill:none" points="1428.07,1173.47 1428.07,1154.57 "/>
<polyline clip-path="url(#clip110)" style="stroke:#000000; stroke-linecap:round; stroke-linejoin:round; stroke-width:4; stroke-opacity:1; fill:none" points="1705.22,1173.47 1705.22,1154.57 "/>
<polyline clip-path="url(#clip110)" style="stroke:#000000; stroke-linecap:round; stroke-linejoin:round; stroke-width:4; stroke-opacity:1; fill:none" points="1982.37,1173.47 1982.37,1154.57 "/>
<path clip-path="url(#clip110)" d="M274.044 1216.74 L303.72 1216.74 L303.72 1220.67 L274.044 1220.67 L274.044 1216.74 Z" fill="#000000" fill-rule="nonzero" fill-opacity="1" /><path clip-path="url(#clip110)" d="M314.622 1229.63 L322.261 1229.63 L322.261 1203.27 L313.951 1204.93 L313.951 1200.67 L322.215 1199.01 L326.891 1199.01 L326.891 1229.63 L334.53 1229.63 L334.53 1233.57 L314.622 1233.57 L314.622 1229.63 Z" fill="#000000" fill-rule="nonzero" fill-opacity="1" /><path clip-path="url(#clip110)" d="M344.02 1199.01 L362.377 1199.01 L362.377 1202.94 L348.303 1202.94 L348.303 1211.41 Q349.321 1211.07 350.34 1210.9 Q351.358 1210.72 352.377 1210.72 Q358.164 1210.72 361.543 1213.89 Q364.923 1217.06 364.923 1222.48 Q364.923 1228.06 361.451 1231.16 Q357.979 1234.24 351.659 1234.24 Q349.483 1234.24 347.215 1233.87 Q344.969 1233.5 342.562 1232.76 L342.562 1228.06 Q344.645 1229.19 346.868 1229.75 Q349.09 1230.3 351.567 1230.3 Q355.571 1230.3 357.909 1228.2 Q360.247 1226.09 360.247 1222.48 Q360.247 1218.87 357.909 1216.76 Q355.571 1214.65 351.567 1214.65 Q349.692 1214.65 347.817 1215.07 Q345.965 1215.49 344.02 1216.37 L344.02 1199.01 Z" fill="#000000" fill-rule="nonzero" fill-opacity="1" /><path clip-path="url(#clip110)" d="M550.693 1216.74 L580.369 1216.74 L580.369 1220.67 L550.693 1220.67 L550.693 1216.74 Z" fill="#000000" fill-rule="nonzero" fill-opacity="1" /><path clip-path="url(#clip110)" d="M591.272 1229.63 L598.911 1229.63 L598.911 1203.27 L590.601 1204.93 L590.601 1200.67 L598.864 1199.01 L603.54 1199.01 L603.54 1229.63 L611.179 1229.63 L611.179 1233.57 L591.272 1233.57 L591.272 1229.63 Z" fill="#000000" fill-rule="nonzero" fill-opacity="1" /><path clip-path="url(#clip110)" d="M630.624 1202.09 Q627.012 1202.09 625.184 1205.65 Q623.378 1209.19 623.378 1216.32 Q623.378 1223.43 625.184 1226.99 Q627.012 1230.53 630.624 1230.53 Q634.258 1230.53 636.063 1226.99 Q637.892 1223.43 637.892 1216.32 Q637.892 1209.19 636.063 1205.65 Q634.258 1202.09 630.624 1202.09 M630.624 1198.38 Q636.434 1198.38 639.489 1202.99 Q642.568 1207.57 642.568 1216.32 Q642.568 1225.05 639.489 1229.65 Q636.434 1234.24 630.624 1234.24 Q624.813 1234.24 621.735 1229.65 Q618.679 1225.05 618.679 1216.32 Q618.679 1207.57 621.735 1202.99 Q624.813 1198.38 630.624 1198.38 Z" fill="#000000" fill-rule="nonzero" fill-opacity="1" /><path clip-path="url(#clip110)" d="M843.419 1216.74 L873.095 1216.74 L873.095 1220.67 L843.419 1220.67 L843.419 1216.74 Z" fill="#000000" fill-rule="nonzero" fill-opacity="1" /><path clip-path="url(#clip110)" d="M883.234 1199.01 L901.59 1199.01 L901.59 1202.94 L887.516 1202.94 L887.516 1211.41 Q888.535 1211.07 889.553 1210.9 Q890.572 1210.72 891.59 1210.72 Q897.377 1210.72 900.757 1213.89 Q904.137 1217.06 904.137 1222.48 Q904.137 1228.06 900.664 1231.16 Q897.192 1234.24 890.873 1234.24 Q888.697 1234.24 886.428 1233.87 Q884.183 1233.5 881.776 1232.76 L881.776 1228.06 Q883.859 1229.19 886.081 1229.75 Q888.303 1230.3 890.78 1230.3 Q894.785 1230.3 897.123 1228.2 Q899.461 1226.09 899.461 1222.48 Q899.461 1218.87 897.123 1216.76 Q894.785 1214.65 890.78 1214.65 Q888.905 1214.65 887.03 1215.07 Q885.178 1215.49 883.234 1216.37 L883.234 1199.01 Z" fill="#000000" fill-rule="nonzero" fill-opacity="1" /><path clip-path="url(#clip110)" d="M1150.93 1202.09 Q1147.31 1202.09 1145.49 1205.65 Q1143.68 1209.19 1143.68 1216.32 Q1143.68 1223.43 1145.49 1226.99 Q1147.31 1230.53 1150.93 1230.53 Q1154.56 1230.53 1156.37 1226.99 Q1158.19 1223.43 1158.19 1216.32 Q1158.19 1209.19 1156.37 1205.65 Q1154.56 1202.09 1150.93 1202.09 M1150.93 1198.38 Q1156.74 1198.38 1159.79 1202.99 Q1162.87 1207.57 1162.87 1216.32 Q1162.87 1225.05 1159.79 1229.65 Q1156.74 1234.24 1150.93 1234.24 Q1145.12 1234.24 1142.04 1229.65 Q1138.98 1225.05 1138.98 1216.32 Q1138.98 1207.57 1142.04 1202.99 Q1145.12 1198.38 1150.93 1198.38 Z" fill="#000000" fill-rule="nonzero" fill-opacity="1" /><path clip-path="url(#clip110)" d="M1418.35 1199.01 L1436.71 1199.01 L1436.71 1202.94 L1422.63 1202.94 L1422.63 1211.41 Q1423.65 1211.07 1424.67 1210.9 Q1425.69 1210.72 1426.71 1210.72 Q1432.49 1210.72 1435.87 1213.89 Q1439.25 1217.06 1439.25 1222.48 Q1439.25 1228.06 1435.78 1231.16 Q1432.31 1234.24 1425.99 1234.24 Q1423.81 1234.24 1421.54 1233.87 Q1419.3 1233.5 1416.89 1232.76 L1416.89 1228.06 Q1418.98 1229.19 1421.2 1229.75 Q1423.42 1230.3 1425.9 1230.3 Q1429.9 1230.3 1432.24 1228.2 Q1434.58 1226.09 1434.58 1222.48 Q1434.58 1218.87 1432.24 1216.76 Q1429.9 1214.65 1425.9 1214.65 Q1424.02 1214.65 1422.15 1215.07 Q1420.29 1215.49 1418.35 1216.37 L1418.35 1199.01 Z" fill="#000000" fill-rule="nonzero" fill-opacity="1" /><path clip-path="url(#clip110)" d="M1679.91 1229.63 L1687.55 1229.63 L1687.55 1203.27 L1679.24 1204.93 L1679.24 1200.67 L1687.5 1199.01 L1692.18 1199.01 L1692.18 1229.63 L1699.81 1229.63 L1699.81 1233.57 L1679.91 1233.57 L1679.91 1229.63 Z" fill="#000000" fill-rule="nonzero" fill-opacity="1" /><path clip-path="url(#clip110)" d="M1719.26 1202.09 Q1715.65 1202.09 1713.82 1205.65 Q1712.01 1209.19 1712.01 1216.32 Q1712.01 1223.43 1713.82 1226.99 Q1715.65 1230.53 1719.26 1230.53 Q1722.89 1230.53 1724.7 1226.99 Q1726.53 1223.43 1726.53 1216.32 Q1726.53 1209.19 1724.7 1205.65 Q1722.89 1202.09 1719.26 1202.09 M1719.26 1198.38 Q1725.07 1198.38 1728.12 1202.99 Q1731.2 1207.57 1731.2 1216.32 Q1731.2 1225.05 1728.12 1229.65 Q1725.07 1234.24 1719.26 1234.24 Q1713.45 1234.24 1710.37 1229.65 Q1707.31 1225.05 1707.31 1216.32 Q1707.31 1207.57 1710.37 1202.99 Q1713.45 1198.38 1719.26 1198.38 Z" fill="#000000" fill-rule="nonzero" fill-opacity="1" /><path clip-path="url(#clip110)" d="M1957.55 1229.63 L1965.19 1229.63 L1965.19 1203.27 L1956.88 1204.93 L1956.88 1200.67 L1965.15 1199.01 L1969.82 1199.01 L1969.82 1229.63 L1977.46 1229.63 L1977.46 1233.57 L1957.55 1233.57 L1957.55 1229.63 Z" fill="#000000" fill-rule="nonzero" fill-opacity="1" /><path clip-path="url(#clip110)" d="M1986.95 1199.01 L2005.31 1199.01 L2005.31 1202.94 L1991.23 1202.94 L1991.23 1211.41 Q1992.25 1211.07 1993.27 1210.9 Q1994.29 1210.72 1995.31 1210.72 Q2001.09 1210.72 2004.47 1213.89 Q2007.85 1217.06 2007.85 1222.48 Q2007.85 1228.06 2004.38 1231.16 Q2000.91 1234.24 1994.59 1234.24 Q1992.41 1234.24 1990.14 1233.87 Q1987.9 1233.5 1985.49 1232.76 L1985.49 1228.06 Q1987.58 1229.19 1989.8 1229.75 Q1992.02 1230.3 1994.5 1230.3 Q1998.5 1230.3 2000.84 1228.2 Q2003.18 1226.09 2003.18 1222.48 Q2003.18 1218.87 2000.84 1216.76 Q1998.5 1214.65 1994.5 1214.65 Q1992.62 1214.65 1990.75 1215.07 Q1988.89 1215.49 1986.95 1216.37 L1986.95 1199.01 Z" fill="#000000" fill-rule="nonzero" fill-opacity="1" /><path clip-path="url(#clip110)" d="M887.385 1266.49 L917.431 1266.49 L917.431 1271.91 L893.814 1271.91 L893.814 1285.97 L916.444 1285.97 L916.444 1291.38 L893.814 1291.38 L893.814 1308.6 L918.004 1308.6 L918.004 1314.01 L887.385 1314.01 L887.385 1266.49 Z" fill="#000000" fill-rule="nonzero" fill-opacity="1" /><path clip-path="url(#clip110)" d="M956.071 1285.21 Q958.267 1281.26 961.323 1279.39 Q964.378 1277.51 968.516 1277.51 Q974.086 1277.51 977.11 1281.42 Q980.133 1285.31 980.133 1292.5 L980.133 1314.01 L974.245 1314.01 L974.245 1292.69 Q974.245 1287.57 972.431 1285.08 Q970.617 1282.6 966.893 1282.6 Q962.341 1282.6 959.699 1285.62 Q957.058 1288.65 957.058 1293.87 L957.058 1314.01 L951.169 1314.01 L951.169 1292.69 Q951.169 1287.53 949.355 1285.08 Q947.541 1282.6 943.753 1282.6 Q939.266 1282.6 936.624 1285.66 Q933.982 1288.68 933.982 1293.87 L933.982 1314.01 L928.094 1314.01 L928.094 1278.37 L933.982 1278.37 L933.982 1283.9 Q935.987 1280.63 938.788 1279.07 Q941.589 1277.51 945.44 1277.51 Q949.323 1277.51 952.029 1279.48 Q954.766 1281.45 956.071 1285.21 Z" fill="#000000" fill-rule="nonzero" fill-opacity="1" /><path clip-path="url(#clip110)" d="M997.48 1308.67 L997.48 1327.57 L991.592 1327.57 L991.592 1278.37 L997.48 1278.37 L997.48 1283.78 Q999.326 1280.59 1002.13 1279.07 Q1004.96 1277.51 1008.87 1277.51 Q1015.37 1277.51 1019.41 1282.66 Q1023.48 1287.82 1023.48 1296.22 Q1023.48 1304.63 1019.41 1309.78 Q1015.37 1314.94 1008.87 1314.94 Q1004.96 1314.94 1002.13 1313.41 Q999.326 1311.85 997.48 1308.67 M1017.4 1296.22 Q1017.4 1289.76 1014.73 1286.1 Q1012.09 1282.41 1007.44 1282.41 Q1002.8 1282.41 1000.12 1286.1 Q997.48 1289.76 997.48 1296.22 Q997.48 1302.68 1000.12 1306.38 Q1002.8 1310.04 1007.44 1310.04 Q1012.09 1310.04 1014.73 1306.38 Q1017.4 1302.68 1017.4 1296.22 Z" fill="#000000" fill-rule="nonzero" fill-opacity="1" /><path clip-path="url(#clip110)" d="M1033.19 1278.37 L1039.05 1278.37 L1039.05 1314.01 L1033.19 1314.01 L1033.19 1278.37 M1033.19 1264.49 L1039.05 1264.49 L1039.05 1271.91 L1033.19 1271.91 L1033.19 1264.49 Z" fill="#000000" fill-rule="nonzero" fill-opacity="1" /><path clip-path="url(#clip110)" d="M1071.96 1283.84 Q1070.97 1283.27 1069.79 1283.01 Q1068.65 1282.73 1067.25 1282.73 Q1062.28 1282.73 1059.61 1285.97 Q1056.97 1289.19 1056.97 1295.24 L1056.97 1314.01 L1051.08 1314.01 L1051.08 1278.37 L1056.97 1278.37 L1056.97 1283.9 Q1058.81 1280.66 1061.77 1279.1 Q1064.73 1277.51 1068.97 1277.51 Q1069.57 1277.51 1070.3 1277.6 Q1071.04 1277.67 1071.93 1277.83 L1071.96 1283.84 Z" fill="#000000" fill-rule="nonzero" fill-opacity="1" /><path clip-path="url(#clip110)" d="M1078.1 1278.37 L1083.96 1278.37 L1083.96 1314.01 L1078.1 1314.01 L1078.1 1278.37 M1078.1 1264.49 L1083.96 1264.49 L1083.96 1271.91 L1078.1 1271.91 L1078.1 1264.49 Z" fill="#000000" fill-rule="nonzero" fill-opacity="1" /><path clip-path="url(#clip110)" d="M1121.87 1279.74 L1121.87 1285.21 Q1119.38 1283.84 1116.87 1283.17 Q1114.39 1282.47 1111.84 1282.47 Q1106.14 1282.47 1102.99 1286.1 Q1099.84 1289.7 1099.84 1296.22 Q1099.84 1302.75 1102.99 1306.38 Q1106.14 1309.97 1111.84 1309.97 Q1114.39 1309.97 1116.87 1309.3 Q1119.38 1308.6 1121.87 1307.24 L1121.87 1312.65 Q1119.42 1313.79 1116.77 1314.36 Q1114.16 1314.94 1111.2 1314.94 Q1103.15 1314.94 1098.41 1309.88 Q1093.67 1304.82 1093.67 1296.22 Q1093.67 1287.5 1098.44 1282.5 Q1103.25 1277.51 1111.59 1277.51 Q1114.29 1277.51 1116.87 1278.08 Q1119.45 1278.62 1121.87 1279.74 Z" fill="#000000" fill-rule="nonzero" fill-opacity="1" /><path clip-path="url(#clip110)" d="M1148.25 1296.1 Q1141.15 1296.1 1138.42 1297.72 Q1135.68 1299.34 1135.68 1303.26 Q1135.68 1306.38 1137.72 1308.22 Q1139.79 1310.04 1143.32 1310.04 Q1148.19 1310.04 1151.12 1306.6 Q1154.08 1303.13 1154.08 1297.4 L1154.08 1296.1 L1148.25 1296.1 M1159.93 1293.68 L1159.93 1314.01 L1154.08 1314.01 L1154.08 1308.6 Q1152.07 1311.85 1149.08 1313.41 Q1146.09 1314.94 1141.76 1314.94 Q1136.28 1314.94 1133.04 1311.88 Q1129.82 1308.79 1129.82 1303.64 Q1129.82 1297.62 1133.83 1294.57 Q1137.88 1291.51 1145.86 1291.51 L1154.08 1291.51 L1154.08 1290.94 Q1154.08 1286.9 1151.4 1284.7 Q1148.76 1282.47 1143.95 1282.47 Q1140.9 1282.47 1138 1283.2 Q1135.11 1283.94 1132.43 1285.4 L1132.43 1279.99 Q1135.65 1278.75 1138.67 1278.14 Q1141.7 1277.51 1144.56 1277.51 Q1152.29 1277.51 1156.11 1281.52 Q1159.93 1285.53 1159.93 1293.68 Z" fill="#000000" fill-rule="nonzero" fill-opacity="1" /><path clip-path="url(#clip110)" d="M1172 1264.49 L1177.85 1264.49 L1177.85 1314.01 L1172 1314.01 L1172 1264.49 Z" fill="#000000" fill-rule="nonzero" fill-opacity="1" /><path clip-path="url(#clip110)" d="M1223.34 1314.01 L1205.19 1266.49 L1211.91 1266.49 L1226.96 1306.5 L1242.05 1266.49 L1248.73 1266.49 L1230.62 1314.01 L1223.34 1314.01 Z" fill="#000000" fill-rule="nonzero" fill-opacity="1" /><path clip-path="url(#clip110)" d="M1266.56 1296.1 Q1259.46 1296.1 1256.72 1297.72 Q1253.99 1299.34 1253.99 1303.26 Q1253.99 1306.38 1256.02 1308.22 Q1258.09 1310.04 1261.62 1310.04 Q1266.49 1310.04 1269.42 1306.6 Q1272.38 1303.13 1272.38 1297.4 L1272.38 1296.1 L1266.56 1296.1 M1278.24 1293.68 L1278.24 1314.01 L1272.38 1314.01 L1272.38 1308.6 Q1270.38 1311.85 1267.39 1313.41 Q1264.39 1314.94 1260.07 1314.94 Q1254.59 1314.94 1251.34 1311.88 Q1248.13 1308.79 1248.13 1303.64 Q1248.13 1297.62 1252.14 1294.57 Q1256.18 1291.51 1264.17 1291.51 L1272.38 1291.51 L1272.38 1290.94 Q1272.38 1286.9 1269.71 1284.7 Q1267.07 1282.47 1262.26 1282.47 Q1259.21 1282.47 1256.31 1283.2 Q1253.41 1283.94 1250.74 1285.4 L1250.74 1279.99 Q1253.95 1278.75 1256.98 1278.14 Q1260 1277.51 1262.87 1277.51 Q1270.6 1277.51 1274.42 1281.52 Q1278.24 1285.53 1278.24 1293.68 Z" fill="#000000" fill-rule="nonzero" fill-opacity="1" /><path clip-path="url(#clip110)" d="M1290.3 1264.49 L1296.16 1264.49 L1296.16 1314.01 L1290.3 1314.01 L1290.3 1264.49 Z" fill="#000000" fill-rule="nonzero" fill-opacity="1" /><path clip-path="url(#clip110)" d="M1307.81 1299.95 L1307.81 1278.37 L1313.66 1278.37 L1313.66 1299.72 Q1313.66 1304.78 1315.64 1307.33 Q1317.61 1309.85 1321.56 1309.85 Q1326.3 1309.85 1329.04 1306.82 Q1331.81 1303.8 1331.81 1298.58 L1331.81 1278.37 L1337.66 1278.37 L1337.66 1314.01 L1331.81 1314.01 L1331.81 1308.54 Q1329.67 1311.79 1326.84 1313.38 Q1324.04 1314.94 1320.32 1314.94 Q1314.17 1314.94 1310.99 1311.12 Q1307.81 1307.3 1307.81 1299.95 M1322.54 1277.51 L1322.54 1277.51 Z" fill="#000000" fill-rule="nonzero" fill-opacity="1" /><path clip-path="url(#clip110)" d="M1380.22 1294.73 L1380.22 1297.59 L1353.29 1297.59 Q1353.67 1303.64 1356.92 1306.82 Q1360.2 1309.97 1366.02 1309.97 Q1369.4 1309.97 1372.55 1309.14 Q1375.73 1308.32 1378.85 1306.66 L1378.85 1312.2 Q1375.7 1313.54 1372.39 1314.24 Q1369.08 1314.94 1365.67 1314.94 Q1357.14 1314.94 1352.15 1309.97 Q1347.18 1305.01 1347.18 1296.54 Q1347.18 1287.79 1351.89 1282.66 Q1356.63 1277.51 1364.65 1277.51 Q1371.85 1277.51 1376.02 1282.15 Q1380.22 1286.77 1380.22 1294.73 M1374.36 1293.01 Q1374.3 1288.2 1371.66 1285.34 Q1369.05 1282.47 1364.72 1282.47 Q1359.82 1282.47 1356.86 1285.24 Q1353.93 1288.01 1353.48 1293.04 L1374.36 1293.01 Z" fill="#000000" fill-rule="nonzero" fill-opacity="1" /><path clip-path="url(#clip110)" d="M1412.56 1279.42 L1412.56 1284.96 Q1410.07 1283.68 1407.4 1283.05 Q1404.73 1282.41 1401.86 1282.41 Q1397.5 1282.41 1395.3 1283.75 Q1393.14 1285.08 1393.14 1287.76 Q1393.14 1289.79 1394.7 1290.97 Q1396.26 1292.12 1400.97 1293.17 L1402.98 1293.61 Q1409.21 1294.95 1411.82 1297.4 Q1414.47 1299.82 1414.47 1304.18 Q1414.47 1309.14 1410.52 1312.04 Q1406.6 1314.94 1399.73 1314.94 Q1396.86 1314.94 1393.75 1314.36 Q1390.66 1313.82 1387.22 1312.71 L1387.22 1306.66 Q1390.47 1308.35 1393.62 1309.21 Q1396.77 1310.04 1399.86 1310.04 Q1403.99 1310.04 1406.22 1308.64 Q1408.45 1307.2 1408.45 1304.63 Q1408.45 1302.24 1406.83 1300.97 Q1405.24 1299.69 1399.79 1298.51 L1397.76 1298.04 Q1392.31 1296.89 1389.89 1294.54 Q1387.47 1292.15 1387.47 1288.01 Q1387.47 1282.98 1391.04 1280.24 Q1394.6 1277.51 1401.16 1277.51 Q1404.41 1277.51 1407.27 1277.98 Q1410.14 1278.46 1412.56 1279.42 Z" fill="#000000" fill-rule="nonzero" fill-opacity="1" /><polyline clip-path="url(#clip110)" style="stroke:#000000; stroke-linecap:round; stroke-linejoin:round; stroke-width:4; stroke-opacity:1; fill:none" points="237.095,1173.47 237.095,47.2441 "/>
<polyline clip-path="url(#clip110)" style="stroke:#000000; stroke-linecap:round; stroke-linejoin:round; stroke-width:4; stroke-opacity:1; fill:none" points="237.095,1122.7 255.992,1122.7 "/>
<polyline clip-path="url(#clip110)" style="stroke:#000000; stroke-linecap:round; stroke-linejoin:round; stroke-width:4; stroke-opacity:1; fill:none" points="237.095,951.92 255.992,951.92 "/>
<polyline clip-path="url(#clip110)" style="stroke:#000000; stroke-linecap:round; stroke-linejoin:round; stroke-width:4; stroke-opacity:1; fill:none" points="237.095,781.139 255.992,781.139 "/>
<polyline clip-path="url(#clip110)" style="stroke:#000000; stroke-linecap:round; stroke-linejoin:round; stroke-width:4; stroke-opacity:1; fill:none" points="237.095,610.357 255.992,610.357 "/>
<polyline clip-path="url(#clip110)" style="stroke:#000000; stroke-linecap:round; stroke-linejoin:round; stroke-width:4; stroke-opacity:1; fill:none" points="237.095,439.576 255.992,439.576 "/>
<polyline clip-path="url(#clip110)" style="stroke:#000000; stroke-linecap:round; stroke-linejoin:round; stroke-width:4; stroke-opacity:1; fill:none" points="237.095,268.794 255.992,268.794 "/>
<polyline clip-path="url(#clip110)" style="stroke:#000000; stroke-linecap:round; stroke-linejoin:round; stroke-width:4; stroke-opacity:1; fill:none" points="237.095,98.013 255.992,98.013 "/>
<path clip-path="url(#clip110)" d="M114.536 1123.15 L144.211 1123.15 L144.211 1127.09 L114.536 1127.09 L114.536 1123.15 Z" fill="#000000" fill-rule="nonzero" fill-opacity="1" /><path clip-path="url(#clip110)" d="M155.114 1136.05 L162.753 1136.05 L162.753 1109.68 L154.443 1111.35 L154.443 1107.09 L162.707 1105.42 L167.382 1105.42 L167.382 1136.05 L175.021 1136.05 L175.021 1139.98 L155.114 1139.98 L155.114 1136.05 Z" fill="#000000" fill-rule="nonzero" fill-opacity="1" /><path clip-path="url(#clip110)" d="M184.512 1105.42 L202.868 1105.42 L202.868 1109.36 L188.794 1109.36 L188.794 1117.83 Q189.813 1117.48 190.831 1117.32 Q191.85 1117.13 192.868 1117.13 Q198.655 1117.13 202.035 1120.31 Q205.415 1123.48 205.415 1128.89 Q205.415 1134.47 201.942 1137.57 Q198.47 1140.65 192.151 1140.65 Q189.975 1140.65 187.706 1140.28 Q185.461 1139.91 183.054 1139.17 L183.054 1134.47 Q185.137 1135.61 187.359 1136.16 Q189.581 1136.72 192.058 1136.72 Q196.063 1136.72 198.401 1134.61 Q200.739 1132.51 200.739 1128.89 Q200.739 1125.28 198.401 1123.18 Q196.063 1121.07 192.058 1121.07 Q190.183 1121.07 188.308 1121.49 Q186.456 1121.9 184.512 1122.78 L184.512 1105.42 Z" fill="#000000" fill-rule="nonzero" fill-opacity="1" /><path clip-path="url(#clip110)" d="M113.54 952.372 L143.216 952.372 L143.216 956.307 L113.54 956.307 L113.54 952.372 Z" fill="#000000" fill-rule="nonzero" fill-opacity="1" /><path clip-path="url(#clip110)" d="M154.119 965.265 L161.757 965.265 L161.757 938.9 L153.447 940.566 L153.447 936.307 L161.711 934.64 L166.387 934.64 L166.387 965.265 L174.026 965.265 L174.026 969.2 L154.119 969.2 L154.119 965.265 Z" fill="#000000" fill-rule="nonzero" fill-opacity="1" /><path clip-path="url(#clip110)" d="M193.47 937.719 Q189.859 937.719 188.03 941.284 Q186.225 944.825 186.225 951.955 Q186.225 959.062 188.03 962.626 Q189.859 966.168 193.47 966.168 Q197.105 966.168 198.91 962.626 Q200.739 959.062 200.739 951.955 Q200.739 944.825 198.91 941.284 Q197.105 937.719 193.47 937.719 M193.47 934.015 Q199.28 934.015 202.336 938.622 Q205.415 943.205 205.415 951.955 Q205.415 960.682 202.336 965.288 Q199.28 969.872 193.47 969.872 Q187.66 969.872 184.581 965.288 Q181.526 960.682 181.526 951.955 Q181.526 943.205 184.581 938.622 Q187.66 934.015 193.47 934.015 Z" fill="#000000" fill-rule="nonzero" fill-opacity="1" /><path clip-path="url(#clip110)" d="M144.697 781.59 L174.373 781.59 L174.373 785.525 L144.697 785.525 L144.697 781.59 Z" fill="#000000" fill-rule="nonzero" fill-opacity="1" /><path clip-path="url(#clip110)" d="M184.512 763.859 L202.868 763.859 L202.868 767.794 L188.794 767.794 L188.794 776.266 Q189.813 775.919 190.831 775.757 Q191.85 775.572 192.868 775.572 Q198.655 775.572 202.035 778.743 Q205.415 781.914 205.415 787.331 Q205.415 792.91 201.942 796.011 Q198.47 799.09 192.151 799.09 Q189.975 799.09 187.706 798.72 Q185.461 798.349 183.054 797.609 L183.054 792.91 Q185.137 794.044 187.359 794.599 Q189.581 795.155 192.058 795.155 Q196.063 795.155 198.401 793.049 Q200.739 790.942 200.739 787.331 Q200.739 783.72 198.401 781.613 Q196.063 779.507 192.058 779.507 Q190.183 779.507 188.308 779.924 Q186.456 780.34 184.512 781.22 L184.512 763.859 Z" fill="#000000" fill-rule="nonzero" fill-opacity="1" /><path clip-path="url(#clip110)" d="M193.47 596.156 Q189.859 596.156 188.03 599.721 Q186.225 603.263 186.225 610.392 Q186.225 617.499 188.03 621.063 Q189.859 624.605 193.47 624.605 Q197.105 624.605 198.91 621.063 Q200.739 617.499 200.739 610.392 Q200.739 603.263 198.91 599.721 Q197.105 596.156 193.47 596.156 M193.47 592.452 Q199.28 592.452 202.336 597.059 Q205.415 601.642 205.415 610.392 Q205.415 619.119 202.336 623.725 Q199.28 628.309 193.47 628.309 Q187.66 628.309 184.581 623.725 Q181.526 619.119 181.526 610.392 Q181.526 601.642 184.581 597.059 Q187.66 592.452 193.47 592.452 Z" fill="#000000" fill-rule="nonzero" fill-opacity="1" /><path clip-path="url(#clip110)" d="M184.512 422.296 L202.868 422.296 L202.868 426.231 L188.794 426.231 L188.794 434.703 Q189.813 434.356 190.831 434.194 Q191.85 434.009 192.868 434.009 Q198.655 434.009 202.035 437.18 Q205.415 440.351 205.415 445.768 Q205.415 451.347 201.942 454.449 Q198.47 457.527 192.151 457.527 Q189.975 457.527 187.706 457.157 Q185.461 456.787 183.054 456.046 L183.054 451.347 Q185.137 452.481 187.359 453.037 Q189.581 453.592 192.058 453.592 Q196.063 453.592 198.401 451.486 Q200.739 449.379 200.739 445.768 Q200.739 442.157 198.401 440.05 Q196.063 437.944 192.058 437.944 Q190.183 437.944 188.308 438.361 Q186.456 438.777 184.512 439.657 L184.512 422.296 Z" fill="#000000" fill-rule="nonzero" fill-opacity="1" /><path clip-path="url(#clip110)" d="M154.119 282.139 L161.757 282.139 L161.757 255.774 L153.447 257.44 L153.447 253.181 L161.711 251.514 L166.387 251.514 L166.387 282.139 L174.026 282.139 L174.026 286.074 L154.119 286.074 L154.119 282.139 Z" fill="#000000" fill-rule="nonzero" fill-opacity="1" /><path clip-path="url(#clip110)" d="M193.47 254.593 Q189.859 254.593 188.03 258.158 Q186.225 261.7 186.225 268.829 Q186.225 275.936 188.03 279.5 Q189.859 283.042 193.47 283.042 Q197.105 283.042 198.91 279.5 Q200.739 275.936 200.739 268.829 Q200.739 261.7 198.91 258.158 Q197.105 254.593 193.47 254.593 M193.47 250.889 Q199.28 250.889 202.336 255.496 Q205.415 260.079 205.415 268.829 Q205.415 277.556 202.336 282.162 Q199.28 286.746 193.47 286.746 Q187.66 286.746 184.581 282.162 Q181.526 277.556 181.526 268.829 Q181.526 260.079 184.581 255.496 Q187.66 250.889 193.47 250.889 Z" fill="#000000" fill-rule="nonzero" fill-opacity="1" /><path clip-path="url(#clip110)" d="M155.114 111.358 L162.753 111.358 L162.753 84.9923 L154.443 86.6589 L154.443 82.3997 L162.707 80.733 L167.382 80.733 L167.382 111.358 L175.021 111.358 L175.021 115.293 L155.114 115.293 L155.114 111.358 Z" fill="#000000" fill-rule="nonzero" fill-opacity="1" /><path clip-path="url(#clip110)" d="M184.512 80.733 L202.868 80.733 L202.868 84.6682 L188.794 84.6682 L188.794 93.1404 Q189.813 92.7931 190.831 92.6311 Q191.85 92.4459 192.868 92.4459 Q198.655 92.4459 202.035 95.6172 Q205.415 98.7885 205.415 104.205 Q205.415 109.784 201.942 112.886 Q198.47 115.964 192.151 115.964 Q189.975 115.964 187.706 115.594 Q185.461 115.224 183.054 114.483 L183.054 109.784 Q185.137 110.918 187.359 111.474 Q189.581 112.029 192.058 112.029 Q196.063 112.029 198.401 109.923 Q200.739 107.816 200.739 104.205 Q200.739 100.594 198.401 98.4876 Q196.063 96.3811 192.058 96.3811 Q190.183 96.3811 188.308 96.7977 Q186.456 97.2144 184.512 98.094 L184.512 80.733 Z" fill="#000000" fill-rule="nonzero" fill-opacity="1" /><path clip-path="url(#clip110)" d="M20.0842 907.779 L20.0842 867.58 L25.495 867.58 L25.495 884.449 L67.6042 884.449 L67.6042 890.91 L25.495 890.91 L25.495 907.779 L20.0842 907.779 Z" fill="#000000" fill-rule="nonzero" fill-opacity="1" /><path clip-path="url(#clip110)" d="M46.0881 831.995 L67.6042 831.995 L67.6042 837.852 L46.279 837.852 Q41.2183 837.852 38.7038 839.825 Q36.1894 841.799 36.1894 845.745 Q36.1894 850.488 39.2131 853.225 Q42.2368 855.962 47.4567 855.962 L67.6042 855.962 L67.6042 861.851 L18.079 861.851 L18.079 855.962 L37.4944 855.962 Q34.2797 853.862 32.6883 851.029 Q31.0968 848.164 31.0968 844.44 Q31.0968 838.297 34.9163 835.146 Q38.7038 831.995 46.0881 831.995 Z" fill="#000000" fill-rule="nonzero" fill-opacity="1" /><path clip-path="url(#clip110)" d="M48.3161 789.823 L51.1806 789.823 L51.1806 816.75 Q57.2281 816.368 60.4109 813.121 Q63.5619 809.843 63.5619 804.018 Q63.5619 800.644 62.7344 797.493 Q61.9069 794.31 60.2518 791.191 L65.7899 791.191 Q67.1267 794.342 67.827 797.652 Q68.5272 800.963 68.5272 804.368 Q68.5272 812.898 63.5619 817.895 Q58.5967 822.861 50.1303 822.861 Q41.3774 822.861 36.2531 818.15 Q31.0968 813.408 31.0968 805.387 Q31.0968 798.194 35.7438 794.024 Q40.3589 789.823 48.3161 789.823 M46.5973 795.679 Q41.7912 795.743 38.9266 798.384 Q36.0621 800.994 36.0621 805.323 Q36.0621 810.225 38.8312 813.185 Q41.6002 816.113 46.6292 816.559 L46.5973 795.679 Z" fill="#000000" fill-rule="nonzero" fill-opacity="1" /><path clip-path="url(#clip110)" d="M36.0621 766.397 Q36.0621 771.107 39.7542 773.845 Q43.4145 776.582 49.812 776.582 Q56.2095 776.582 59.9017 773.877 Q63.5619 771.139 63.5619 766.397 Q63.5619 761.718 59.8698 758.981 Q56.1777 756.244 49.812 756.244 Q43.4781 756.244 39.786 758.981 Q36.0621 761.718 36.0621 766.397 M31.0968 766.397 Q31.0968 758.758 36.0621 754.397 Q41.0273 750.037 49.812 750.037 Q58.5649 750.037 63.5619 754.397 Q68.5272 758.758 68.5272 766.397 Q68.5272 774.067 63.5619 778.428 Q58.5649 782.757 49.812 782.757 Q41.0273 782.757 36.0621 778.428 Q31.0968 774.067 31.0968 766.397 Z" fill="#000000" fill-rule="nonzero" fill-opacity="1" /><path clip-path="url(#clip110)" d="M37.4307 719.673 Q36.8578 720.659 36.6032 721.837 Q36.3167 722.983 36.3167 724.383 Q36.3167 729.348 39.5632 732.022 Q42.7779 734.664 48.8253 734.664 L67.6042 734.664 L67.6042 740.552 L31.9562 740.552 L31.9562 734.664 L37.4944 734.664 Q34.2479 732.818 32.6883 729.858 Q31.0968 726.898 31.0968 722.664 Q31.0968 722.06 31.1923 721.328 Q31.256 720.596 31.4151 719.704 L37.4307 719.673 Z" fill="#000000" fill-rule="nonzero" fill-opacity="1" /><path clip-path="url(#clip110)" d="M48.3161 684.47 L51.1806 684.47 L51.1806 711.397 Q57.2281 711.015 60.4109 707.769 Q63.5619 704.49 63.5619 698.666 Q63.5619 695.292 62.7344 692.141 Q61.9069 688.958 60.2518 685.839 L65.7899 685.839 Q67.1267 688.99 67.827 692.3 Q68.5272 695.61 68.5272 699.016 Q68.5272 707.546 63.5619 712.543 Q58.5967 717.508 50.1303 717.508 Q41.3774 717.508 36.2531 712.798 Q31.0968 708.055 31.0968 700.034 Q31.0968 692.841 35.7438 688.672 Q40.3589 684.47 48.3161 684.47 M46.5973 690.327 Q41.7912 690.39 38.9266 693.032 Q36.0621 695.642 36.0621 699.971 Q36.0621 704.872 38.8312 707.832 Q41.6002 710.761 46.6292 711.206 L46.5973 690.327 Z" fill="#000000" fill-rule="nonzero" fill-opacity="1" /><path clip-path="url(#clip110)" d="M21.8347 669.065 L31.9562 669.065 L31.9562 657.002 L36.5077 657.002 L36.5077 669.065 L55.8594 669.065 Q60.2199 669.065 61.4613 667.887 Q62.7026 666.678 62.7026 663.018 L62.7026 657.002 L67.6042 657.002 L67.6042 663.018 Q67.6042 669.797 65.0897 672.375 Q62.5434 674.953 55.8594 674.953 L36.5077 674.953 L36.5077 679.25 L31.9562 679.25 L31.9562 674.953 L21.8347 674.953 L21.8347 669.065 Z" fill="#000000" fill-rule="nonzero" fill-opacity="1" /><path clip-path="url(#clip110)" d="M31.9562 649.3 L31.9562 643.443 L67.6042 643.443 L67.6042 649.3 L31.9562 649.3 M18.079 649.3 L18.079 643.443 L25.495 643.443 L25.495 649.3 L18.079 649.3 Z" fill="#000000" fill-rule="nonzero" fill-opacity="1" /><path clip-path="url(#clip110)" d="M33.3248 605.535 L38.7993 605.535 Q37.4307 608.018 36.7623 610.532 Q36.0621 613.015 36.0621 615.561 Q36.0621 621.259 39.6905 624.41 Q43.2872 627.561 49.812 627.561 Q56.3369 627.561 59.9653 624.41 Q63.5619 621.259 63.5619 615.561 Q63.5619 613.015 62.8935 610.532 Q62.1933 608.018 60.8247 605.535 L66.2355 605.535 Q67.3814 607.986 67.9543 610.628 Q68.5272 613.238 68.5272 616.198 Q68.5272 624.251 63.4664 628.993 Q58.4057 633.735 49.812 633.735 Q41.091 633.735 36.0939 628.961 Q31.0968 624.155 31.0968 615.816 Q31.0968 613.111 31.6697 610.532 Q32.2108 607.954 33.3248 605.535 Z" fill="#000000" fill-rule="nonzero" fill-opacity="1" /><path clip-path="url(#clip110)" d="M49.6847 579.15 Q49.6847 586.247 51.3079 588.985 Q52.9312 591.722 56.8461 591.722 Q59.9653 591.722 61.8114 589.685 Q63.6256 587.616 63.6256 584.083 Q63.6256 579.213 60.1881 576.285 Q56.7188 573.325 50.9897 573.325 L49.6847 573.325 L49.6847 579.15 M47.2657 567.468 L67.6042 567.468 L67.6042 573.325 L62.1933 573.325 Q65.4398 575.33 66.9994 578.322 Q68.5272 581.314 68.5272 585.643 Q68.5272 591.117 65.4716 594.364 Q62.3843 597.578 57.2281 597.578 Q51.2125 597.578 48.1569 593.568 Q45.1014 589.526 45.1014 581.537 L45.1014 573.325 L44.5285 573.325 Q40.4862 573.325 38.2901 575.999 Q36.0621 578.64 36.0621 583.446 Q36.0621 586.502 36.7941 589.398 Q37.5262 592.295 38.9903 594.968 L33.5795 594.968 Q32.3381 591.754 31.7334 588.73 Q31.0968 585.706 31.0968 582.842 Q31.0968 575.107 35.1072 571.288 Q39.1176 567.468 47.2657 567.468 Z" fill="#000000" fill-rule="nonzero" fill-opacity="1" /><path clip-path="url(#clip110)" d="M18.079 555.405 L18.079 549.549 L67.6042 549.549 L67.6042 555.405 L18.079 555.405 Z" fill="#000000" fill-rule="nonzero" fill-opacity="1" /><path clip-path="url(#clip110)" d="M67.6042 504.066 L20.0842 522.208 L20.0842 515.492 L60.0926 500.438 L20.0842 485.351 L20.0842 478.667 L67.6042 496.777 L67.6042 504.066 Z" fill="#000000" fill-rule="nonzero" fill-opacity="1" /><path clip-path="url(#clip110)" d="M49.6847 460.843 Q49.6847 467.941 51.3079 470.678 Q52.9312 473.415 56.8461 473.415 Q59.9653 473.415 61.8114 471.378 Q63.6256 469.309 63.6256 465.776 Q63.6256 460.907 60.1881 457.978 Q56.7188 455.018 50.9897 455.018 L49.6847 455.018 L49.6847 460.843 M47.2657 449.162 L67.6042 449.162 L67.6042 455.018 L62.1933 455.018 Q65.4398 457.023 66.9994 460.015 Q68.5272 463.007 68.5272 467.336 Q68.5272 472.81 65.4716 476.057 Q62.3843 479.272 57.2281 479.272 Q51.2125 479.272 48.1569 475.261 Q45.1014 471.219 45.1014 463.23 L45.1014 455.018 L44.5285 455.018 Q40.4862 455.018 38.2901 457.692 Q36.0621 460.334 36.0621 465.14 Q36.0621 468.195 36.7941 471.092 Q37.5262 473.988 38.9903 476.662 L33.5795 476.662 Q32.3381 473.447 31.7334 470.423 Q31.0968 467.4 31.0968 464.535 Q31.0968 456.801 35.1072 452.981 Q39.1176 449.162 47.2657 449.162 Z" fill="#000000" fill-rule="nonzero" fill-opacity="1" /><path clip-path="url(#clip110)" d="M18.079 437.099 L18.079 431.242 L67.6042 431.242 L67.6042 437.099 L18.079 437.099 Z" fill="#000000" fill-rule="nonzero" fill-opacity="1" /><path clip-path="url(#clip110)" d="M53.5359 419.593 L31.9562 419.593 L31.9562 413.737 L53.3131 413.737 Q58.3739 413.737 60.9202 411.763 Q63.4346 409.79 63.4346 405.843 Q63.4346 401.101 60.4109 398.363 Q57.3872 395.594 52.1673 395.594 L31.9562 395.594 L31.9562 389.738 L67.6042 389.738 L67.6042 395.594 L62.1296 395.594 Q65.3762 397.727 66.9676 400.56 Q68.5272 403.361 68.5272 407.084 Q68.5272 413.227 64.7078 416.41 Q60.8883 419.593 53.5359 419.593 M31.0968 404.856 L31.0968 404.856 Z" fill="#000000" fill-rule="nonzero" fill-opacity="1" /><path clip-path="url(#clip110)" d="M48.3161 347.183 L51.1806 347.183 L51.1806 374.11 Q57.2281 373.728 60.4109 370.482 Q63.5619 367.203 63.5619 361.379 Q63.5619 358.005 62.7344 354.854 Q61.9069 351.671 60.2518 348.552 L65.7899 348.552 Q67.1267 351.703 67.827 355.013 Q68.5272 358.323 68.5272 361.729 Q68.5272 370.259 63.5619 375.256 Q58.5967 380.221 50.1303 380.221 Q41.3774 380.221 36.2531 375.511 Q31.0968 370.768 31.0968 362.747 Q31.0968 355.554 35.7438 351.385 Q40.3589 347.183 48.3161 347.183 M46.5973 353.04 Q41.7912 353.103 38.9266 355.745 Q36.0621 358.355 36.0621 362.684 Q36.0621 367.585 38.8312 370.545 Q41.6002 373.474 46.6292 373.919 L46.5973 353.04 Z" fill="#000000" fill-rule="nonzero" fill-opacity="1" /><path clip-path="url(#clip110)" d="M33.0065 314.845 L38.5447 314.845 Q37.2716 317.328 36.635 320.002 Q35.9984 322.675 35.9984 325.54 Q35.9984 329.9 37.3352 332.096 Q38.672 334.261 41.3456 334.261 Q43.3826 334.261 44.5603 332.701 Q45.7061 331.142 46.7565 326.431 L47.2021 324.426 Q48.5389 318.187 50.9897 315.577 Q53.4086 312.936 57.7691 312.936 Q62.7344 312.936 65.6308 316.882 Q68.5272 320.797 68.5272 327.672 Q68.5272 330.537 67.9543 333.656 Q67.4132 336.743 66.2992 340.181 L60.2518 340.181 Q61.9387 336.934 62.798 333.783 Q63.6256 330.632 63.6256 327.545 Q63.6256 323.407 62.2251 321.179 Q60.7929 318.951 58.2147 318.951 Q55.8276 318.951 54.5545 320.575 Q53.2813 322.166 52.1037 327.609 L51.6262 329.646 Q50.4804 335.088 48.1251 337.507 Q45.738 339.926 41.6002 339.926 Q36.5713 339.926 33.8341 336.361 Q31.0968 332.797 31.0968 326.24 Q31.0968 322.994 31.5743 320.129 Q32.0517 317.264 33.0065 314.845 Z" fill="#000000" fill-rule="nonzero" fill-opacity="1" /><polyline clip-path="url(#clip111)" style="stroke:#6b9e32; stroke-linecap:round; stroke-linejoin:round; stroke-width:4; stroke-opacity:1; fill:none" points="288.821,1141.6 2013.03,79.1184 "/>
<circle clip-path="url(#clip111)" cx="288.821" cy="1082.34" r="14.4" fill="#009af9" fill-rule="evenodd" fill-opacity="1" stroke="#000000" stroke-opacity="1" stroke-width="2.688"/>
<circle clip-path="url(#clip111)" cx="415.05" cy="1003.91" r="14.4" fill="#009af9" fill-rule="evenodd" fill-opacity="1" stroke="#000000" stroke-opacity="1" stroke-width="2.688"/>
<circle clip-path="url(#clip111)" cx="479.947" cy="981.919" r="14.4" fill="#009af9" fill-rule="evenodd" fill-opacity="1" stroke="#000000" stroke-opacity="1" stroke-width="2.688"/>
<circle clip-path="url(#clip111)" cx="525.432" cy="958.467" r="14.4" fill="#009af9" fill-rule="evenodd" fill-opacity="1" stroke="#000000" stroke-opacity="1" stroke-width="2.688"/>
<circle clip-path="url(#clip111)" cx="561.066" cy="937.933" r="14.4" fill="#009af9" fill-rule="evenodd" fill-opacity="1" stroke="#000000" stroke-opacity="1" stroke-width="2.688"/>
<circle clip-path="url(#clip111)" cx="590.673" cy="924.658" r="14.4" fill="#009af9" fill-rule="evenodd" fill-opacity="1" stroke="#000000" stroke-opacity="1" stroke-width="2.688"/>
<circle clip-path="url(#clip111)" cx="616.19" cy="900.308" r="14.4" fill="#009af9" fill-rule="evenodd" fill-opacity="1" stroke="#000000" stroke-opacity="1" stroke-width="2.688"/>
<circle clip-path="url(#clip111)" cx="638.736" cy="876.364" r="14.4" fill="#009af9" fill-rule="evenodd" fill-opacity="1" stroke="#000000" stroke-opacity="1" stroke-width="2.688"/>
<circle clip-path="url(#clip111)" cx="659.021" cy="872.567" r="14.4" fill="#009af9" fill-rule="evenodd" fill-opacity="1" stroke="#000000" stroke-opacity="1" stroke-width="2.688"/>
<circle clip-path="url(#clip111)" cx="677.525" cy="866.716" r="14.4" fill="#009af9" fill-rule="evenodd" fill-opacity="1" stroke="#000000" stroke-opacity="1" stroke-width="2.688"/>
<circle clip-path="url(#clip111)" cx="694.587" cy="863.623" r="14.4" fill="#009af9" fill-rule="evenodd" fill-opacity="1" stroke="#000000" stroke-opacity="1" stroke-width="2.688"/>
<circle clip-path="url(#clip111)" cx="710.458" cy="856.79" r="14.4" fill="#009af9" fill-rule="evenodd" fill-opacity="1" stroke="#000000" stroke-opacity="1" stroke-width="2.688"/>
<circle clip-path="url(#clip111)" cx="725.327" cy="845.689" r="14.4" fill="#009af9" fill-rule="evenodd" fill-opacity="1" stroke="#000000" stroke-opacity="1" stroke-width="2.688"/>
<circle clip-path="url(#clip111)" cx="739.342" cy="839.28" r="14.4" fill="#009af9" fill-rule="evenodd" fill-opacity="1" stroke="#000000" stroke-opacity="1" stroke-width="2.688"/>
<circle clip-path="url(#clip111)" cx="752.618" cy="835.736" r="14.4" fill="#009af9" fill-rule="evenodd" fill-opacity="1" stroke="#000000" stroke-opacity="1" stroke-width="2.688"/>
<circle clip-path="url(#clip111)" cx="765.25" cy="833.64" r="14.4" fill="#009af9" fill-rule="evenodd" fill-opacity="1" stroke="#000000" stroke-opacity="1" stroke-width="2.688"/>
<circle clip-path="url(#clip111)" cx="777.316" cy="829.446" r="14.4" fill="#009af9" fill-rule="evenodd" fill-opacity="1" stroke="#000000" stroke-opacity="1" stroke-width="2.688"/>
<circle clip-path="url(#clip111)" cx="788.88" cy="824.725" r="14.4" fill="#009af9" fill-rule="evenodd" fill-opacity="1" stroke="#000000" stroke-opacity="1" stroke-width="2.688"/>
<circle clip-path="url(#clip111)" cx="799.995" cy="818.652" r="14.4" fill="#009af9" fill-rule="evenodd" fill-opacity="1" stroke="#000000" stroke-opacity="1" stroke-width="2.688"/>
<circle clip-path="url(#clip111)" cx="810.708" cy="808.616" r="14.4" fill="#009af9" fill-rule="evenodd" fill-opacity="1" stroke="#000000" stroke-opacity="1" stroke-width="2.688"/>
<circle clip-path="url(#clip111)" cx="821.057" cy="800.155" r="14.4" fill="#009af9" fill-rule="evenodd" fill-opacity="1" stroke="#000000" stroke-opacity="1" stroke-width="2.688"/>
<circle clip-path="url(#clip111)" cx="831.077" cy="784.147" r="14.4" fill="#009af9" fill-rule="evenodd" fill-opacity="1" stroke="#000000" stroke-opacity="1" stroke-width="2.688"/>
<circle clip-path="url(#clip111)" cx="840.797" cy="780.316" r="14.4" fill="#009af9" fill-rule="evenodd" fill-opacity="1" stroke="#000000" stroke-opacity="1" stroke-width="2.688"/>
<circle clip-path="url(#clip111)" cx="850.242" cy="777.202" r="14.4" fill="#009af9" fill-rule="evenodd" fill-opacity="1" stroke="#000000" stroke-opacity="1" stroke-width="2.688"/>
<circle clip-path="url(#clip111)" cx="859.436" cy="772.547" r="14.4" fill="#009af9" fill-rule="evenodd" fill-opacity="1" stroke="#000000" stroke-opacity="1" stroke-width="2.688"/>
<circle clip-path="url(#clip111)" cx="868.398" cy="766.319" r="14.4" fill="#009af9" fill-rule="evenodd" fill-opacity="1" stroke="#000000" stroke-opacity="1" stroke-width="2.688"/>
<circle clip-path="url(#clip111)" cx="877.147" cy="764.531" r="14.4" fill="#009af9" fill-rule="evenodd" fill-opacity="1" stroke="#000000" stroke-opacity="1" stroke-width="2.688"/>
<circle clip-path="url(#clip111)" cx="885.699" cy="760.365" r="14.4" fill="#009af9" fill-rule="evenodd" fill-opacity="1" stroke="#000000" stroke-opacity="1" stroke-width="2.688"/>
<circle clip-path="url(#clip111)" cx="894.067" cy="759.363" r="14.4" fill="#009af9" fill-rule="evenodd" fill-opacity="1" stroke="#000000" stroke-opacity="1" stroke-width="2.688"/>
<circle clip-path="url(#clip111)" cx="902.266" cy="758.187" r="14.4" fill="#009af9" fill-rule="evenodd" fill-opacity="1" stroke="#000000" stroke-opacity="1" stroke-width="2.688"/>
<circle clip-path="url(#clip111)" cx="910.308" cy="757.201" r="14.4" fill="#009af9" fill-rule="evenodd" fill-opacity="1" stroke="#000000" stroke-opacity="1" stroke-width="2.688"/>
<circle clip-path="url(#clip111)" cx="918.202" cy="756.427" r="14.4" fill="#009af9" fill-rule="evenodd" fill-opacity="1" stroke="#000000" stroke-opacity="1" stroke-width="2.688"/>
<circle clip-path="url(#clip111)" cx="925.958" cy="755.046" r="14.4" fill="#009af9" fill-rule="evenodd" fill-opacity="1" stroke="#000000" stroke-opacity="1" stroke-width="2.688"/>
<circle clip-path="url(#clip111)" cx="933.587" cy="753.616" r="14.4" fill="#009af9" fill-rule="evenodd" fill-opacity="1" stroke="#000000" stroke-opacity="1" stroke-width="2.688"/>
<circle clip-path="url(#clip111)" cx="941.095" cy="751.637" r="14.4" fill="#009af9" fill-rule="evenodd" fill-opacity="1" stroke="#000000" stroke-opacity="1" stroke-width="2.688"/>
<circle clip-path="url(#clip111)" cx="948.492" cy="751.244" r="14.4" fill="#009af9" fill-rule="evenodd" fill-opacity="1" stroke="#000000" stroke-opacity="1" stroke-width="2.688"/>
<circle clip-path="url(#clip111)" cx="955.783" cy="749.285" r="14.4" fill="#009af9" fill-rule="evenodd" fill-opacity="1" stroke="#000000" stroke-opacity="1" stroke-width="2.688"/>
<circle clip-path="url(#clip111)" cx="962.975" cy="745.327" r="14.4" fill="#009af9" fill-rule="evenodd" fill-opacity="1" stroke="#000000" stroke-opacity="1" stroke-width="2.688"/>
<circle clip-path="url(#clip111)" cx="970.075" cy="743.979" r="14.4" fill="#009af9" fill-rule="evenodd" fill-opacity="1" stroke="#000000" stroke-opacity="1" stroke-width="2.688"/>
<circle clip-path="url(#clip111)" cx="977.089" cy="741.214" r="14.4" fill="#009af9" fill-rule="evenodd" fill-opacity="1" stroke="#000000" stroke-opacity="1" stroke-width="2.688"/>
<circle clip-path="url(#clip111)" cx="984.021" cy="734.371" r="14.4" fill="#009af9" fill-rule="evenodd" fill-opacity="1" stroke="#000000" stroke-opacity="1" stroke-width="2.688"/>
<circle clip-path="url(#clip111)" cx="990.876" cy="731.581" r="14.4" fill="#009af9" fill-rule="evenodd" fill-opacity="1" stroke="#000000" stroke-opacity="1" stroke-width="2.688"/>
<circle clip-path="url(#clip111)" cx="997.66" cy="730.824" r="14.4" fill="#009af9" fill-rule="evenodd" fill-opacity="1" stroke="#000000" stroke-opacity="1" stroke-width="2.688"/>
<circle clip-path="url(#clip111)" cx="1004.38" cy="729.278" r="14.4" fill="#009af9" fill-rule="evenodd" fill-opacity="1" stroke="#000000" stroke-opacity="1" stroke-width="2.688"/>
<circle clip-path="url(#clip111)" cx="1011.03" cy="725.121" r="14.4" fill="#009af9" fill-rule="evenodd" fill-opacity="1" stroke="#000000" stroke-opacity="1" stroke-width="2.688"/>
<circle clip-path="url(#clip111)" cx="1017.62" cy="723.837" r="14.4" fill="#009af9" fill-rule="evenodd" fill-opacity="1" stroke="#000000" stroke-opacity="1" stroke-width="2.688"/>
<circle clip-path="url(#clip111)" cx="1024.16" cy="715.229" r="14.4" fill="#009af9" fill-rule="evenodd" fill-opacity="1" stroke="#000000" stroke-opacity="1" stroke-width="2.688"/>
<circle clip-path="url(#clip111)" cx="1030.65" cy="702.608" r="14.4" fill="#009af9" fill-rule="evenodd" fill-opacity="1" stroke="#000000" stroke-opacity="1" stroke-width="2.688"/>
<circle clip-path="url(#clip111)" cx="1037.09" cy="699.128" r="14.4" fill="#009af9" fill-rule="evenodd" fill-opacity="1" stroke="#000000" stroke-opacity="1" stroke-width="2.688"/>
<circle clip-path="url(#clip111)" cx="1043.48" cy="694.992" r="14.4" fill="#009af9" fill-rule="evenodd" fill-opacity="1" stroke="#000000" stroke-opacity="1" stroke-width="2.688"/>
<circle clip-path="url(#clip111)" cx="1049.84" cy="690.926" r="14.4" fill="#009af9" fill-rule="evenodd" fill-opacity="1" stroke="#000000" stroke-opacity="1" stroke-width="2.688"/>
<circle clip-path="url(#clip111)" cx="1056.15" cy="690.442" r="14.4" fill="#009af9" fill-rule="evenodd" fill-opacity="1" stroke="#000000" stroke-opacity="1" stroke-width="2.688"/>
<circle clip-path="url(#clip111)" cx="1062.42" cy="689.975" r="14.4" fill="#009af9" fill-rule="evenodd" fill-opacity="1" stroke="#000000" stroke-opacity="1" stroke-width="2.688"/>
<circle clip-path="url(#clip111)" cx="1068.67" cy="687.533" r="14.4" fill="#009af9" fill-rule="evenodd" fill-opacity="1" stroke="#000000" stroke-opacity="1" stroke-width="2.688"/>
<circle clip-path="url(#clip111)" cx="1074.88" cy="684.357" r="14.4" fill="#009af9" fill-rule="evenodd" fill-opacity="1" stroke="#000000" stroke-opacity="1" stroke-width="2.688"/>
<circle clip-path="url(#clip111)" cx="1081.06" cy="680.638" r="14.4" fill="#009af9" fill-rule="evenodd" fill-opacity="1" stroke="#000000" stroke-opacity="1" stroke-width="2.688"/>
<circle clip-path="url(#clip111)" cx="1087.22" cy="679.524" r="14.4" fill="#009af9" fill-rule="evenodd" fill-opacity="1" stroke="#000000" stroke-opacity="1" stroke-width="2.688"/>
<circle clip-path="url(#clip111)" cx="1093.36" cy="675.429" r="14.4" fill="#009af9" fill-rule="evenodd" fill-opacity="1" stroke="#000000" stroke-opacity="1" stroke-width="2.688"/>
<circle clip-path="url(#clip111)" cx="1099.47" cy="668.149" r="14.4" fill="#009af9" fill-rule="evenodd" fill-opacity="1" stroke="#000000" stroke-opacity="1" stroke-width="2.688"/>
<circle clip-path="url(#clip111)" cx="1105.57" cy="657.254" r="14.4" fill="#009af9" fill-rule="evenodd" fill-opacity="1" stroke="#000000" stroke-opacity="1" stroke-width="2.688"/>
<circle clip-path="url(#clip111)" cx="1111.65" cy="654.233" r="14.4" fill="#009af9" fill-rule="evenodd" fill-opacity="1" stroke="#000000" stroke-opacity="1" stroke-width="2.688"/>
<circle clip-path="url(#clip111)" cx="1117.71" cy="649.957" r="14.4" fill="#009af9" fill-rule="evenodd" fill-opacity="1" stroke="#000000" stroke-opacity="1" stroke-width="2.688"/>
<circle clip-path="url(#clip111)" cx="1123.77" cy="647.939" r="14.4" fill="#009af9" fill-rule="evenodd" fill-opacity="1" stroke="#000000" stroke-opacity="1" stroke-width="2.688"/>
<circle clip-path="url(#clip111)" cx="1129.81" cy="645.14" r="14.4" fill="#009af9" fill-rule="evenodd" fill-opacity="1" stroke="#000000" stroke-opacity="1" stroke-width="2.688"/>
<circle clip-path="url(#clip111)" cx="1135.85" cy="638.745" r="14.4" fill="#009af9" fill-rule="evenodd" fill-opacity="1" stroke="#000000" stroke-opacity="1" stroke-width="2.688"/>
<circle clip-path="url(#clip111)" cx="1141.88" cy="636.319" r="14.4" fill="#009af9" fill-rule="evenodd" fill-opacity="1" stroke="#000000" stroke-opacity="1" stroke-width="2.688"/>
<circle clip-path="url(#clip111)" cx="1147.91" cy="636.19" r="14.4" fill="#009af9" fill-rule="evenodd" fill-opacity="1" stroke="#000000" stroke-opacity="1" stroke-width="2.688"/>
<circle clip-path="url(#clip111)" cx="1153.94" cy="627.569" r="14.4" fill="#009af9" fill-rule="evenodd" fill-opacity="1" stroke="#000000" stroke-opacity="1" stroke-width="2.688"/>
<circle clip-path="url(#clip111)" cx="1159.97" cy="625.356" r="14.4" fill="#009af9" fill-rule="evenodd" fill-opacity="1" stroke="#000000" stroke-opacity="1" stroke-width="2.688"/>
<circle clip-path="url(#clip111)" cx="1166" cy="619.693" r="14.4" fill="#009af9" fill-rule="evenodd" fill-opacity="1" stroke="#000000" stroke-opacity="1" stroke-width="2.688"/>
<circle clip-path="url(#clip111)" cx="1172.04" cy="617.902" r="14.4" fill="#009af9" fill-rule="evenodd" fill-opacity="1" stroke="#000000" stroke-opacity="1" stroke-width="2.688"/>
<circle clip-path="url(#clip111)" cx="1178.08" cy="613.606" r="14.4" fill="#009af9" fill-rule="evenodd" fill-opacity="1" stroke="#000000" stroke-opacity="1" stroke-width="2.688"/>
<circle clip-path="url(#clip111)" cx="1184.14" cy="612.214" r="14.4" fill="#009af9" fill-rule="evenodd" fill-opacity="1" stroke="#000000" stroke-opacity="1" stroke-width="2.688"/>
<circle clip-path="url(#clip111)" cx="1190.2" cy="600.808" r="14.4" fill="#009af9" fill-rule="evenodd" fill-opacity="1" stroke="#000000" stroke-opacity="1" stroke-width="2.688"/>
<circle clip-path="url(#clip111)" cx="1196.28" cy="594.785" r="14.4" fill="#009af9" fill-rule="evenodd" fill-opacity="1" stroke="#000000" stroke-opacity="1" stroke-width="2.688"/>
<circle clip-path="url(#clip111)" cx="1202.38" cy="592.969" r="14.4" fill="#009af9" fill-rule="evenodd" fill-opacity="1" stroke="#000000" stroke-opacity="1" stroke-width="2.688"/>
<circle clip-path="url(#clip111)" cx="1208.49" cy="585.649" r="14.4" fill="#009af9" fill-rule="evenodd" fill-opacity="1" stroke="#000000" stroke-opacity="1" stroke-width="2.688"/>
<circle clip-path="url(#clip111)" cx="1214.63" cy="578.143" r="14.4" fill="#009af9" fill-rule="evenodd" fill-opacity="1" stroke="#000000" stroke-opacity="1" stroke-width="2.688"/>
<circle clip-path="url(#clip111)" cx="1220.79" cy="571.522" r="14.4" fill="#009af9" fill-rule="evenodd" fill-opacity="1" stroke="#000000" stroke-opacity="1" stroke-width="2.688"/>
<circle clip-path="url(#clip111)" cx="1226.97" cy="568.181" r="14.4" fill="#009af9" fill-rule="evenodd" fill-opacity="1" stroke="#000000" stroke-opacity="1" stroke-width="2.688"/>
<circle clip-path="url(#clip111)" cx="1233.18" cy="563.91" r="14.4" fill="#009af9" fill-rule="evenodd" fill-opacity="1" stroke="#000000" stroke-opacity="1" stroke-width="2.688"/>
<circle clip-path="url(#clip111)" cx="1239.43" cy="559.471" r="14.4" fill="#009af9" fill-rule="evenodd" fill-opacity="1" stroke="#000000" stroke-opacity="1" stroke-width="2.688"/>
<circle clip-path="url(#clip111)" cx="1245.7" cy="554.473" r="14.4" fill="#009af9" fill-rule="evenodd" fill-opacity="1" stroke="#000000" stroke-opacity="1" stroke-width="2.688"/>
<circle clip-path="url(#clip111)" cx="1252.02" cy="550.007" r="14.4" fill="#009af9" fill-rule="evenodd" fill-opacity="1" stroke="#000000" stroke-opacity="1" stroke-width="2.688"/>
<circle clip-path="url(#clip111)" cx="1258.37" cy="546.358" r="14.4" fill="#009af9" fill-rule="evenodd" fill-opacity="1" stroke="#000000" stroke-opacity="1" stroke-width="2.688"/>
<circle clip-path="url(#clip111)" cx="1264.76" cy="545.762" r="14.4" fill="#009af9" fill-rule="evenodd" fill-opacity="1" stroke="#000000" stroke-opacity="1" stroke-width="2.688"/>
<circle clip-path="url(#clip111)" cx="1271.2" cy="539.326" r="14.4" fill="#009af9" fill-rule="evenodd" fill-opacity="1" stroke="#000000" stroke-opacity="1" stroke-width="2.688"/>
<circle clip-path="url(#clip111)" cx="1277.69" cy="536.126" r="14.4" fill="#009af9" fill-rule="evenodd" fill-opacity="1" stroke="#000000" stroke-opacity="1" stroke-width="2.688"/>
<circle clip-path="url(#clip111)" cx="1284.23" cy="534.759" r="14.4" fill="#009af9" fill-rule="evenodd" fill-opacity="1" stroke="#000000" stroke-opacity="1" stroke-width="2.688"/>
<circle clip-path="url(#clip111)" cx="1290.82" cy="532.211" r="14.4" fill="#009af9" fill-rule="evenodd" fill-opacity="1" stroke="#000000" stroke-opacity="1" stroke-width="2.688"/>
<circle clip-path="url(#clip111)" cx="1297.47" cy="528.932" r="14.4" fill="#009af9" fill-rule="evenodd" fill-opacity="1" stroke="#000000" stroke-opacity="1" stroke-width="2.688"/>
<circle clip-path="url(#clip111)" cx="1304.19" cy="525.009" r="14.4" fill="#009af9" fill-rule="evenodd" fill-opacity="1" stroke="#000000" stroke-opacity="1" stroke-width="2.688"/>
<circle clip-path="url(#clip111)" cx="1310.97" cy="519.042" r="14.4" fill="#009af9" fill-rule="evenodd" fill-opacity="1" stroke="#000000" stroke-opacity="1" stroke-width="2.688"/>
<circle clip-path="url(#clip111)" cx="1317.83" cy="511.148" r="14.4" fill="#009af9" fill-rule="evenodd" fill-opacity="1" stroke="#000000" stroke-opacity="1" stroke-width="2.688"/>
<circle clip-path="url(#clip111)" cx="1324.76" cy="507.396" r="14.4" fill="#009af9" fill-rule="evenodd" fill-opacity="1" stroke="#000000" stroke-opacity="1" stroke-width="2.688"/>
<circle clip-path="url(#clip111)" cx="1331.78" cy="501.822" r="14.4" fill="#009af9" fill-rule="evenodd" fill-opacity="1" stroke="#000000" stroke-opacity="1" stroke-width="2.688"/>
<circle clip-path="url(#clip111)" cx="1338.88" cy="489.979" r="14.4" fill="#009af9" fill-rule="evenodd" fill-opacity="1" stroke="#000000" stroke-opacity="1" stroke-width="2.688"/>
<circle clip-path="url(#clip111)" cx="1346.07" cy="486.766" r="14.4" fill="#009af9" fill-rule="evenodd" fill-opacity="1" stroke="#000000" stroke-opacity="1" stroke-width="2.688"/>
<circle clip-path="url(#clip111)" cx="1353.36" cy="478.6" r="14.4" fill="#009af9" fill-rule="evenodd" fill-opacity="1" stroke="#000000" stroke-opacity="1" stroke-width="2.688"/>
<circle clip-path="url(#clip111)" cx="1360.76" cy="474.833" r="14.4" fill="#009af9" fill-rule="evenodd" fill-opacity="1" stroke="#000000" stroke-opacity="1" stroke-width="2.688"/>
<circle clip-path="url(#clip111)" cx="1368.26" cy="464.536" r="14.4" fill="#009af9" fill-rule="evenodd" fill-opacity="1" stroke="#000000" stroke-opacity="1" stroke-width="2.688"/>
<circle clip-path="url(#clip111)" cx="1375.89" cy="460.818" r="14.4" fill="#009af9" fill-rule="evenodd" fill-opacity="1" stroke="#000000" stroke-opacity="1" stroke-width="2.688"/>
<circle clip-path="url(#clip111)" cx="1383.65" cy="454.725" r="14.4" fill="#009af9" fill-rule="evenodd" fill-opacity="1" stroke="#000000" stroke-opacity="1" stroke-width="2.688"/>
<circle clip-path="url(#clip111)" cx="1391.54" cy="452.334" r="14.4" fill="#009af9" fill-rule="evenodd" fill-opacity="1" stroke="#000000" stroke-opacity="1" stroke-width="2.688"/>
<circle clip-path="url(#clip111)" cx="1399.58" cy="450.887" r="14.4" fill="#009af9" fill-rule="evenodd" fill-opacity="1" stroke="#000000" stroke-opacity="1" stroke-width="2.688"/>
<circle clip-path="url(#clip111)" cx="1407.78" cy="445.785" r="14.4" fill="#009af9" fill-rule="evenodd" fill-opacity="1" stroke="#000000" stroke-opacity="1" stroke-width="2.688"/>
<circle clip-path="url(#clip111)" cx="1416.15" cy="440.492" r="14.4" fill="#009af9" fill-rule="evenodd" fill-opacity="1" stroke="#000000" stroke-opacity="1" stroke-width="2.688"/>
<circle clip-path="url(#clip111)" cx="1424.7" cy="438.902" r="14.4" fill="#009af9" fill-rule="evenodd" fill-opacity="1" stroke="#000000" stroke-opacity="1" stroke-width="2.688"/>
<circle clip-path="url(#clip111)" cx="1433.45" cy="438.705" r="14.4" fill="#009af9" fill-rule="evenodd" fill-opacity="1" stroke="#000000" stroke-opacity="1" stroke-width="2.688"/>
<circle clip-path="url(#clip111)" cx="1442.41" cy="436.133" r="14.4" fill="#009af9" fill-rule="evenodd" fill-opacity="1" stroke="#000000" stroke-opacity="1" stroke-width="2.688"/>
<circle clip-path="url(#clip111)" cx="1451.61" cy="428.234" r="14.4" fill="#009af9" fill-rule="evenodd" fill-opacity="1" stroke="#000000" stroke-opacity="1" stroke-width="2.688"/>
<circle clip-path="url(#clip111)" cx="1461.05" cy="419.397" r="14.4" fill="#009af9" fill-rule="evenodd" fill-opacity="1" stroke="#000000" stroke-opacity="1" stroke-width="2.688"/>
<circle clip-path="url(#clip111)" cx="1470.77" cy="415.515" r="14.4" fill="#009af9" fill-rule="evenodd" fill-opacity="1" stroke="#000000" stroke-opacity="1" stroke-width="2.688"/>
<circle clip-path="url(#clip111)" cx="1480.79" cy="412.455" r="14.4" fill="#009af9" fill-rule="evenodd" fill-opacity="1" stroke="#000000" stroke-opacity="1" stroke-width="2.688"/>
<circle clip-path="url(#clip111)" cx="1491.14" cy="410.995" r="14.4" fill="#009af9" fill-rule="evenodd" fill-opacity="1" stroke="#000000" stroke-opacity="1" stroke-width="2.688"/>
<circle clip-path="url(#clip111)" cx="1501.86" cy="392.931" r="14.4" fill="#009af9" fill-rule="evenodd" fill-opacity="1" stroke="#000000" stroke-opacity="1" stroke-width="2.688"/>
<circle clip-path="url(#clip111)" cx="1512.97" cy="378.648" r="14.4" fill="#009af9" fill-rule="evenodd" fill-opacity="1" stroke="#000000" stroke-opacity="1" stroke-width="2.688"/>
<circle clip-path="url(#clip111)" cx="1524.53" cy="374.415" r="14.4" fill="#009af9" fill-rule="evenodd" fill-opacity="1" stroke="#000000" stroke-opacity="1" stroke-width="2.688"/>
<circle clip-path="url(#clip111)" cx="1536.6" cy="369.281" r="14.4" fill="#009af9" fill-rule="evenodd" fill-opacity="1" stroke="#000000" stroke-opacity="1" stroke-width="2.688"/>
<circle clip-path="url(#clip111)" cx="1549.23" cy="366.37" r="14.4" fill="#009af9" fill-rule="evenodd" fill-opacity="1" stroke="#000000" stroke-opacity="1" stroke-width="2.688"/>
<circle clip-path="url(#clip111)" cx="1562.51" cy="359.622" r="14.4" fill="#009af9" fill-rule="evenodd" fill-opacity="1" stroke="#000000" stroke-opacity="1" stroke-width="2.688"/>
<circle clip-path="url(#clip111)" cx="1576.52" cy="340.911" r="14.4" fill="#009af9" fill-rule="evenodd" fill-opacity="1" stroke="#000000" stroke-opacity="1" stroke-width="2.688"/>
<circle clip-path="url(#clip111)" cx="1591.39" cy="323.758" r="14.4" fill="#009af9" fill-rule="evenodd" fill-opacity="1" stroke="#000000" stroke-opacity="1" stroke-width="2.688"/>
<circle clip-path="url(#clip111)" cx="1607.26" cy="314.615" r="14.4" fill="#009af9" fill-rule="evenodd" fill-opacity="1" stroke="#000000" stroke-opacity="1" stroke-width="2.688"/>
<circle clip-path="url(#clip111)" cx="1624.33" cy="310.626" r="14.4" fill="#009af9" fill-rule="evenodd" fill-opacity="1" stroke="#000000" stroke-opacity="1" stroke-width="2.688"/>
<circle clip-path="url(#clip111)" cx="1642.83" cy="289.439" r="14.4" fill="#009af9" fill-rule="evenodd" fill-opacity="1" stroke="#000000" stroke-opacity="1" stroke-width="2.688"/>
<circle clip-path="url(#clip111)" cx="1663.11" cy="272.261" r="14.4" fill="#009af9" fill-rule="evenodd" fill-opacity="1" stroke="#000000" stroke-opacity="1" stroke-width="2.688"/>
<circle clip-path="url(#clip111)" cx="1685.66" cy="251.873" r="14.4" fill="#009af9" fill-rule="evenodd" fill-opacity="1" stroke="#000000" stroke-opacity="1" stroke-width="2.688"/>
<circle clip-path="url(#clip111)" cx="1711.18" cy="231.225" r="14.4" fill="#009af9" fill-rule="evenodd" fill-opacity="1" stroke="#000000" stroke-opacity="1" stroke-width="2.688"/>
<circle clip-path="url(#clip111)" cx="1740.78" cy="208.913" r="14.4" fill="#009af9" fill-rule="evenodd" fill-opacity="1" stroke="#000000" stroke-opacity="1" stroke-width="2.688"/>
<circle clip-path="url(#clip111)" cx="1776.42" cy="184.472" r="14.4" fill="#009af9" fill-rule="evenodd" fill-opacity="1" stroke="#000000" stroke-opacity="1" stroke-width="2.688"/>
<circle clip-path="url(#clip111)" cx="1821.9" cy="168.388" r="14.4" fill="#009af9" fill-rule="evenodd" fill-opacity="1" stroke="#000000" stroke-opacity="1" stroke-width="2.688"/>
<circle clip-path="url(#clip111)" cx="1886.8" cy="158.509" r="14.4" fill="#009af9" fill-rule="evenodd" fill-opacity="1" stroke="#000000" stroke-opacity="1" stroke-width="2.688"/>
<circle clip-path="url(#clip111)" cx="2013.03" cy="125.981" r="14.4" fill="#009af9" fill-rule="evenodd" fill-opacity="1" stroke="#000000" stroke-opacity="1" stroke-width="2.688"/>
</svg>
