<?xml version="1.0" encoding="utf-8"?>
<svg xmlns="http://www.w3.org/2000/svg" xmlns:xlink="http://www.w3.org/1999/xlink" width="528" height="336" viewBox="0 0 2112 1344">
<defs>
  <clipPath id="clip140">
    <rect x="0" y="0" width="2112" height="1344"/>
  </clipPath>
</defs>
<path clip-path="url(#clip140)" d="M0 1344 L2112 1344 L2112 2.13163e-14 L0 2.13163e-14  Z" fill="#ffffff" fill-rule="evenodd" fill-opacity="1"/>
<defs>
  <clipPath id="clip141">
    <rect x="214" y="47" width="1851" height="1127"/>
  </clipPath>
</defs>
<path clip-path="url(#clip140)" d="M214.826 1173.47 L2064.76 1173.47 L2064.76 47.2441 L214.826 47.2441  Z" fill="#ffffff" fill-rule="evenodd" fill-opacity="1"/>
<polyline clip-path="url(#clip141)" style="stroke:#000000; stroke-linecap:round; stroke-linejoin:round; stroke-width:2; stroke-opacity:0.1; fill:none" points="267.183,1173.47 267.183,47.2441 "/>
<polyline clip-path="url(#clip141)" style="stroke:#000000; stroke-linecap:round; stroke-linejoin:round; stroke-width:2; stroke-opacity:0.1; fill:none" points="703.487,1173.47 703.487,47.2441 "/>
<polyline clip-path="url(#clip141)" style="stroke:#000000; stroke-linecap:round; stroke-linejoin:round; stroke-width:2; stroke-opacity:0.1; fill:none" points="1139.79,1173.47 1139.79,47.2441 "/>
<polyline clip-path="url(#clip141)" style="stroke:#000000; stroke-linecap:round; stroke-linejoin:round; stroke-width:2; stroke-opacity:0.1; fill:none" points="1576.1,1173.47 1576.1,47.2441 "/>
<polyline clip-path="url(#clip141)" style="stroke:#000000; stroke-linecap:round; stroke-linejoin:round; stroke-width:2; stroke-opacity:0.1; fill:none" points="2012.4,1173.47 2012.4,47.2441 "/>
<polyline clip-path="url(#clip141)" style="stroke:#000000; stroke-linecap:round; stroke-linejoin:round; stroke-width:2; stroke-opacity:0.1; fill:none" points="214.826,1013.48 2064.76,1013.48 "/>
<polyline clip-path="url(#clip141)" style="stroke:#000000; stroke-linecap:round; stroke-linejoin:round; stroke-width:2; stroke-opacity:0.1; fill:none" points="214.826,835.226 2064.76,835.226 "/>
<polyline clip-path="url(#clip141)" style="stroke:#000000; stroke-linecap:round; stroke-linejoin:round; stroke-width:2; stroke-opacity:0.1; fill:none" points="214.826,656.97 2064.76,656.97 "/>
<polyline clip-path="url(#clip141)" style="stroke:#000000; stroke-linecap:round; stroke-linejoin:round; stroke-width:2; stroke-opacity:0.1; fill:none" points="214.826,478.715 2064.76,478.715 "/>
<polyline clip-path="url(#clip141)" style="stroke:#000000; stroke-linecap:round; stroke-linejoin:round; stroke-width:2; stroke-opacity:0.1; fill:none" points="214.826,300.46 2064.76,300.46 "/>
<polyline clip-path="url(#clip141)" style="stroke:#000000; stroke-linecap:round; stroke-linejoin:round; stroke-width:2; stroke-opacity:0.1; fill:none" points="214.826,122.205 2064.76,122.205 "/>
<polyline clip-path="url(#clip140)" style="stroke:#000000; stroke-linecap:round; stroke-linejoin:round; stroke-width:4; stroke-opacity:1; fill:none" points="214.826,1173.47 2064.76,1173.47 "/>
<polyline clip-path="url(#clip140)" style="stroke:#000000; stroke-linecap:round; stroke-linejoin:round; stroke-width:4; stroke-opacity:1; fill:none" points="267.183,1173.47 267.183,1154.57 "/>
<polyline clip-path="url(#clip140)" style="stroke:#000000; stroke-linecap:round; stroke-linejoin:round; stroke-width:4; stroke-opacity:1; fill:none" points="703.487,1173.47 703.487,1154.57 "/>
<polyline clip-path="url(#clip140)" style="stroke:#000000; stroke-linecap:round; stroke-linejoin:round; stroke-width:4; stroke-opacity:1; fill:none" points="1139.79,1173.47 1139.79,1154.57 "/>
<polyline clip-path="url(#clip140)" style="stroke:#000000; stroke-linecap:round; stroke-linejoin:round; stroke-width:4; stroke-opacity:1; fill:none" points="1576.1,1173.47 1576.1,1154.57 "/>
<polyline clip-path="url(#clip140)" style="stroke:#000000; stroke-linecap:round; stroke-linejoin:round; stroke-width:4; stroke-opacity:1; fill:none" points="2012.4,1173.47 2012.4,1154.57 "/>
<path clip-path="url(#clip140)" d="M257.565 1229.63 L265.204 1229.63 L265.204 1203.27 L256.893 1204.93 L256.893 1200.67 L265.157 1199.01 L269.833 1199.01 L269.833 1229.63 L277.472 1229.63 L277.472 1233.57 L257.565 1233.57 L257.565 1229.63 Z" fill="#000000" fill-rule="nonzero" fill-opacity="1" /><path clip-path="url(#clip140)" d="M698.14 1229.63 L714.459 1229.63 L714.459 1233.57 L692.515 1233.57 L692.515 1229.63 Q695.177 1226.88 699.76 1222.25 Q704.367 1217.59 705.547 1216.25 Q707.792 1213.73 708.672 1211.99 Q709.575 1210.23 709.575 1208.54 Q709.575 1205.79 707.63 1204.05 Q705.709 1202.32 702.607 1202.32 Q700.408 1202.32 697.955 1203.08 Q695.524 1203.84 692.746 1205.4 L692.746 1200.67 Q695.57 1199.54 698.024 1198.96 Q700.478 1198.38 702.515 1198.38 Q707.885 1198.38 711.079 1201.07 Q714.274 1203.75 714.274 1208.24 Q714.274 1210.37 713.464 1212.29 Q712.677 1214.19 710.57 1216.78 Q709.992 1217.46 706.89 1220.67 Q703.788 1223.87 698.14 1229.63 Z" fill="#000000" fill-rule="nonzero" fill-opacity="1" /><path clip-path="url(#clip140)" d="M1144.04 1214.93 Q1147.4 1215.65 1149.27 1217.92 Q1151.17 1220.19 1151.17 1223.52 Q1151.17 1228.64 1147.65 1231.44 Q1144.13 1234.24 1137.65 1234.24 Q1135.47 1234.24 1133.16 1233.8 Q1130.87 1233.38 1128.41 1232.53 L1128.41 1228.01 Q1130.36 1229.15 1132.67 1229.72 Q1134.99 1230.3 1137.51 1230.3 Q1141.91 1230.3 1144.2 1228.57 Q1146.52 1226.83 1146.52 1223.52 Q1146.52 1220.46 1144.36 1218.75 Q1142.23 1217.02 1138.41 1217.02 L1134.39 1217.02 L1134.39 1213.17 L1138.6 1213.17 Q1142.05 1213.17 1143.88 1211.81 Q1145.71 1210.42 1145.71 1207.83 Q1145.71 1205.16 1143.81 1203.75 Q1141.93 1202.32 1138.41 1202.32 Q1136.49 1202.32 1134.29 1202.73 Q1132.09 1203.15 1129.46 1204.03 L1129.46 1199.86 Q1132.12 1199.12 1134.43 1198.75 Q1136.77 1198.38 1138.83 1198.38 Q1144.15 1198.38 1147.26 1200.81 Q1150.36 1203.22 1150.36 1207.34 Q1150.36 1210.21 1148.71 1212.2 Q1147.07 1214.17 1144.04 1214.93 Z" fill="#000000" fill-rule="nonzero" fill-opacity="1" /><path clip-path="url(#clip140)" d="M1579.1 1203.08 L1567.3 1221.53 L1579.1 1221.53 L1579.1 1203.08 M1577.88 1199.01 L1583.76 1199.01 L1583.76 1221.53 L1588.69 1221.53 L1588.69 1225.42 L1583.76 1225.42 L1583.76 1233.57 L1579.1 1233.57 L1579.1 1225.42 L1563.5 1225.42 L1563.5 1220.9 L1577.88 1199.01 Z" fill="#000000" fill-rule="nonzero" fill-opacity="1" /><path clip-path="url(#clip140)" d="M2002.68 1199.01 L2021.03 1199.01 L2021.03 1202.94 L2006.96 1202.94 L2006.96 1211.41 Q2007.98 1211.07 2009 1210.9 Q2010.02 1210.72 2011.03 1210.72 Q2016.82 1210.72 2020.2 1213.89 Q2023.58 1217.06 2023.58 1222.48 Q2023.58 1228.06 2020.11 1231.16 Q2016.64 1234.24 2010.32 1234.24 Q2008.14 1234.24 2005.87 1233.87 Q2003.63 1233.5 2001.22 1232.76 L2001.22 1228.06 Q2003.3 1229.19 2005.52 1229.75 Q2007.75 1230.3 2010.22 1230.3 Q2014.23 1230.3 2016.57 1228.2 Q2018.9 1226.09 2018.9 1222.48 Q2018.9 1218.87 2016.57 1216.76 Q2014.23 1214.65 2010.22 1214.65 Q2008.35 1214.65 2006.47 1215.07 Q2004.62 1215.49 2002.68 1216.37 L2002.68 1199.01 Z" fill="#000000" fill-rule="nonzero" fill-opacity="1" /><path clip-path="url(#clip140)" d="M993.714 1266.49 L1033.91 1266.49 L1033.91 1271.91 L1017.04 1271.91 L1017.04 1314.01 L1010.58 1314.01 L1010.58 1271.91 L993.714 1271.91 L993.714 1266.49 Z" fill="#000000" fill-rule="nonzero" fill-opacity="1" /><path clip-path="url(#clip140)" d="M1037.86 1278.37 L1043.72 1278.37 L1043.72 1314.01 L1037.86 1314.01 L1037.86 1278.37 M1037.86 1264.49 L1043.72 1264.49 L1043.72 1271.91 L1037.86 1271.91 L1037.86 1264.49 Z" fill="#000000" fill-rule="nonzero" fill-opacity="1" /><path clip-path="url(#clip140)" d="M1083.73 1285.21 Q1085.92 1281.26 1088.98 1279.39 Q1092.03 1277.51 1096.17 1277.51 Q1101.74 1277.51 1104.76 1281.42 Q1107.79 1285.31 1107.79 1292.5 L1107.79 1314.01 L1101.9 1314.01 L1101.9 1292.69 Q1101.9 1287.57 1100.08 1285.08 Q1098.27 1282.6 1094.55 1282.6 Q1090 1282.6 1087.35 1285.62 Q1084.71 1288.65 1084.71 1293.87 L1084.71 1314.01 L1078.82 1314.01 L1078.82 1292.69 Q1078.82 1287.53 1077.01 1285.08 Q1075.2 1282.6 1071.41 1282.6 Q1066.92 1282.6 1064.28 1285.66 Q1061.64 1288.68 1061.64 1293.87 L1061.64 1314.01 L1055.75 1314.01 L1055.75 1278.37 L1061.64 1278.37 L1061.64 1283.9 Q1063.64 1280.63 1066.44 1279.07 Q1069.24 1277.51 1073.09 1277.51 Q1076.98 1277.51 1079.68 1279.48 Q1082.42 1281.45 1083.73 1285.21 Z" fill="#000000" fill-rule="nonzero" fill-opacity="1" /><path clip-path="url(#clip140)" d="M1149.96 1294.73 L1149.96 1297.59 L1123.03 1297.59 Q1123.42 1303.64 1126.66 1306.82 Q1129.94 1309.97 1135.76 1309.97 Q1139.14 1309.97 1142.29 1309.14 Q1145.47 1308.32 1148.59 1306.66 L1148.59 1312.2 Q1145.44 1313.54 1142.13 1314.24 Q1138.82 1314.94 1135.41 1314.94 Q1126.88 1314.94 1121.89 1309.97 Q1116.92 1305.01 1116.92 1296.54 Q1116.92 1287.79 1121.63 1282.66 Q1126.38 1277.51 1134.4 1277.51 Q1141.59 1277.51 1145.76 1282.15 Q1149.96 1286.77 1149.96 1294.73 M1144.1 1293.01 Q1144.04 1288.2 1141.4 1285.34 Q1138.79 1282.47 1134.46 1282.47 Q1129.56 1282.47 1126.6 1285.24 Q1123.67 1288.01 1123.22 1293.04 L1144.1 1293.01 Z" fill="#000000" fill-rule="nonzero" fill-opacity="1" /><path clip-path="url(#clip140)" d="M1180.55 1266.49 L1186.98 1266.49 L1186.98 1308.6 L1210.12 1308.6 L1210.12 1314.01 L1180.55 1314.01 L1180.55 1266.49 Z" fill="#000000" fill-rule="nonzero" fill-opacity="1" /><path clip-path="url(#clip140)" d="M1232.81 1296.1 Q1225.71 1296.1 1222.97 1297.72 Q1220.24 1299.34 1220.24 1303.26 Q1220.24 1306.38 1222.27 1308.22 Q1224.34 1310.04 1227.88 1310.04 Q1232.75 1310.04 1235.67 1306.6 Q1238.63 1303.13 1238.63 1297.4 L1238.63 1296.1 L1232.81 1296.1 M1244.49 1293.68 L1244.49 1314.01 L1238.63 1314.01 L1238.63 1308.6 Q1236.63 1311.85 1233.64 1313.41 Q1230.65 1314.94 1226.32 1314.94 Q1220.84 1314.94 1217.6 1311.88 Q1214.38 1308.79 1214.38 1303.64 Q1214.38 1297.62 1218.39 1294.57 Q1222.43 1291.51 1230.42 1291.51 L1238.63 1291.51 L1238.63 1290.94 Q1238.63 1286.9 1235.96 1284.7 Q1233.32 1282.47 1228.51 1282.47 Q1225.46 1282.47 1222.56 1283.2 Q1219.66 1283.94 1216.99 1285.4 L1216.99 1279.99 Q1220.21 1278.75 1223.23 1278.14 Q1226.25 1277.51 1229.12 1277.51 Q1236.85 1277.51 1240.67 1281.52 Q1244.49 1285.53 1244.49 1293.68 Z" fill="#000000" fill-rule="nonzero" fill-opacity="1" /><path clip-path="url(#clip140)" d="M1280.01 1295.78 Q1280.01 1289.41 1277.37 1285.91 Q1274.76 1282.41 1270.02 1282.41 Q1265.31 1282.41 1262.67 1285.91 Q1260.06 1289.41 1260.06 1295.78 Q1260.06 1302.11 1262.67 1305.61 Q1265.31 1309.11 1270.02 1309.11 Q1274.76 1309.11 1277.37 1305.61 Q1280.01 1302.11 1280.01 1295.78 M1285.87 1309.59 Q1285.87 1318.69 1281.83 1323.12 Q1277.78 1327.57 1269.44 1327.57 Q1266.36 1327.57 1263.62 1327.1 Q1260.88 1326.65 1258.3 1325.7 L1258.3 1320 Q1260.88 1321.4 1263.4 1322.07 Q1265.91 1322.74 1268.52 1322.74 Q1274.28 1322.74 1277.15 1319.71 Q1280.01 1316.72 1280.01 1310.64 L1280.01 1307.74 Q1278.2 1310.9 1275.36 1312.46 Q1272.53 1314.01 1268.59 1314.01 Q1262.03 1314.01 1258.02 1309.02 Q1254.01 1304.02 1254.01 1295.78 Q1254.01 1287.5 1258.02 1282.5 Q1262.03 1277.51 1268.59 1277.51 Q1272.53 1277.51 1275.36 1279.07 Q1278.2 1280.63 1280.01 1283.78 L1280.01 1278.37 L1285.87 1278.37 L1285.87 1309.59 Z" fill="#000000" fill-rule="nonzero" fill-opacity="1" /><polyline clip-path="url(#clip140)" style="stroke:#000000; stroke-linecap:round; stroke-linejoin:round; stroke-width:4; stroke-opacity:1; fill:none" points="214.826,1173.47 214.826,47.2441 "/>
<polyline clip-path="url(#clip140)" style="stroke:#000000; stroke-linecap:round; stroke-linejoin:round; stroke-width:4; stroke-opacity:1; fill:none" points="214.826,1013.48 233.724,1013.48 "/>
<polyline clip-path="url(#clip140)" style="stroke:#000000; stroke-linecap:round; stroke-linejoin:round; stroke-width:4; stroke-opacity:1; fill:none" points="214.826,835.226 233.724,835.226 "/>
<polyline clip-path="url(#clip140)" style="stroke:#000000; stroke-linecap:round; stroke-linejoin:round; stroke-width:4; stroke-opacity:1; fill:none" points="214.826,656.97 233.724,656.97 "/>
<polyline clip-path="url(#clip140)" style="stroke:#000000; stroke-linecap:round; stroke-linejoin:round; stroke-width:4; stroke-opacity:1; fill:none" points="214.826,478.715 233.724,478.715 "/>
<polyline clip-path="url(#clip140)" style="stroke:#000000; stroke-linecap:round; stroke-linejoin:round; stroke-width:4; stroke-opacity:1; fill:none" points="214.826,300.46 233.724,300.46 "/>
<polyline clip-path="url(#clip140)" style="stroke:#000000; stroke-linecap:round; stroke-linejoin:round; stroke-width:4; stroke-opacity:1; fill:none" points="214.826,122.205 233.724,122.205 "/>
<path clip-path="url(#clip140)" d="M125.971 999.28 Q122.36 999.28 120.531 1002.84 Q118.725 1006.39 118.725 1013.52 Q118.725 1020.62 120.531 1024.19 Q122.36 1027.73 125.971 1027.73 Q129.605 1027.73 131.41 1024.19 Q133.239 1020.62 133.239 1013.52 Q133.239 1006.39 131.41 1002.84 Q129.605 999.28 125.971 999.28 M125.971 995.576 Q131.781 995.576 134.836 1000.18 Q137.915 1004.77 137.915 1013.52 Q137.915 1022.24 134.836 1026.85 Q131.781 1031.43 125.971 1031.43 Q120.16 1031.43 117.082 1026.85 Q114.026 1022.24 114.026 1013.52 Q114.026 1004.77 117.082 1000.18 Q120.16 995.576 125.971 995.576 Z" fill="#000000" fill-rule="nonzero" fill-opacity="1" /><path clip-path="url(#clip140)" d="M146.133 1024.88 L151.017 1024.88 L151.017 1030.76 L146.133 1030.76 L146.133 1024.88 Z" fill="#000000" fill-rule="nonzero" fill-opacity="1" /><path clip-path="url(#clip140)" d="M171.202 999.28 Q167.591 999.28 165.762 1002.84 Q163.957 1006.39 163.957 1013.52 Q163.957 1020.62 165.762 1024.19 Q167.591 1027.73 171.202 1027.73 Q174.836 1027.73 176.642 1024.19 Q178.47 1020.62 178.47 1013.52 Q178.47 1006.39 176.642 1002.84 Q174.836 999.28 171.202 999.28 M171.202 995.576 Q177.012 995.576 180.068 1000.18 Q183.146 1004.77 183.146 1013.52 Q183.146 1022.24 180.068 1026.85 Q177.012 1031.43 171.202 1031.43 Q165.392 1031.43 162.313 1026.85 Q159.258 1022.24 159.258 1013.52 Q159.258 1004.77 162.313 1000.18 Q165.392 995.576 171.202 995.576 Z" fill="#000000" fill-rule="nonzero" fill-opacity="1" /><path clip-path="url(#clip140)" d="M127.197 821.024 Q123.586 821.024 121.758 824.589 Q119.952 828.131 119.952 835.26 Q119.952 842.367 121.758 845.932 Q123.586 849.473 127.197 849.473 Q130.832 849.473 132.637 845.932 Q134.466 842.367 134.466 835.26 Q134.466 828.131 132.637 824.589 Q130.832 821.024 127.197 821.024 M127.197 817.321 Q133.008 817.321 136.063 821.927 Q139.142 826.51 139.142 835.26 Q139.142 843.987 136.063 848.594 Q133.008 853.177 127.197 853.177 Q121.387 853.177 118.309 848.594 Q115.253 843.987 115.253 835.26 Q115.253 826.51 118.309 821.927 Q121.387 817.321 127.197 817.321 Z" fill="#000000" fill-rule="nonzero" fill-opacity="1" /><path clip-path="url(#clip140)" d="M147.359 846.626 L152.244 846.626 L152.244 852.506 L147.359 852.506 L147.359 846.626 Z" fill="#000000" fill-rule="nonzero" fill-opacity="1" /><path clip-path="url(#clip140)" d="M163.239 848.57 L170.878 848.57 L170.878 822.205 L162.568 823.871 L162.568 819.612 L170.832 817.946 L175.507 817.946 L175.507 848.57 L183.146 848.57 L183.146 852.506 L163.239 852.506 L163.239 848.57 Z" fill="#000000" fill-rule="nonzero" fill-opacity="1" /><path clip-path="url(#clip140)" d="M127.568 642.769 Q123.957 642.769 122.128 646.334 Q120.323 649.875 120.323 657.005 Q120.323 664.112 122.128 667.676 Q123.957 671.218 127.568 671.218 Q131.202 671.218 133.008 667.676 Q134.836 664.112 134.836 657.005 Q134.836 649.875 133.008 646.334 Q131.202 642.769 127.568 642.769 M127.568 639.065 Q133.378 639.065 136.434 643.672 Q139.512 648.255 139.512 657.005 Q139.512 665.732 136.434 670.338 Q133.378 674.922 127.568 674.922 Q121.758 674.922 118.679 670.338 Q115.623 665.732 115.623 657.005 Q115.623 648.255 118.679 643.672 Q121.758 639.065 127.568 639.065 Z" fill="#000000" fill-rule="nonzero" fill-opacity="1" /><path clip-path="url(#clip140)" d="M147.73 668.371 L152.614 668.371 L152.614 674.25 L147.73 674.25 L147.73 668.371 Z" fill="#000000" fill-rule="nonzero" fill-opacity="1" /><path clip-path="url(#clip140)" d="M166.827 670.315 L183.146 670.315 L183.146 674.25 L161.202 674.25 L161.202 670.315 Q163.864 667.561 168.447 662.931 Q173.054 658.278 174.234 656.936 Q176.48 654.412 177.359 652.676 Q178.262 650.917 178.262 649.227 Q178.262 646.473 176.318 644.737 Q174.396 643.001 171.294 643.001 Q169.095 643.001 166.642 643.764 Q164.211 644.528 161.433 646.079 L161.433 641.357 Q164.257 640.223 166.711 639.644 Q169.165 639.065 171.202 639.065 Q176.572 639.065 179.767 641.751 Q182.961 644.436 182.961 648.926 Q182.961 651.056 182.151 652.977 Q181.364 654.875 179.257 657.468 Q178.679 658.139 175.577 661.357 Q172.475 664.551 166.827 670.315 Z" fill="#000000" fill-rule="nonzero" fill-opacity="1" /><path clip-path="url(#clip140)" d="M126.619 464.514 Q123.008 464.514 121.179 468.079 Q119.373 471.62 119.373 478.75 Q119.373 485.856 121.179 489.421 Q123.008 492.963 126.619 492.963 Q130.253 492.963 132.059 489.421 Q133.887 485.856 133.887 478.75 Q133.887 471.62 132.059 468.079 Q130.253 464.514 126.619 464.514 M126.619 460.81 Q132.429 460.81 135.484 465.417 Q138.563 470 138.563 478.75 Q138.563 487.477 135.484 492.083 Q132.429 496.666 126.619 496.666 Q120.809 496.666 117.73 492.083 Q114.674 487.477 114.674 478.75 Q114.674 470 117.73 465.417 Q120.809 460.81 126.619 460.81 Z" fill="#000000" fill-rule="nonzero" fill-opacity="1" /><path clip-path="url(#clip140)" d="M146.781 490.116 L151.665 490.116 L151.665 495.995 L146.781 495.995 L146.781 490.116 Z" fill="#000000" fill-rule="nonzero" fill-opacity="1" /><path clip-path="url(#clip140)" d="M176.017 477.361 Q179.373 478.079 181.248 480.347 Q183.146 482.616 183.146 485.949 Q183.146 491.065 179.628 493.865 Q176.109 496.666 169.628 496.666 Q167.452 496.666 165.137 496.227 Q162.845 495.81 160.392 494.953 L160.392 490.44 Q162.336 491.574 164.651 492.153 Q166.966 492.731 169.489 492.731 Q173.887 492.731 176.179 490.995 Q178.494 489.259 178.494 485.949 Q178.494 482.893 176.341 481.18 Q174.211 479.444 170.392 479.444 L166.364 479.444 L166.364 475.602 L170.577 475.602 Q174.026 475.602 175.855 474.236 Q177.683 472.847 177.683 470.255 Q177.683 467.592 175.785 466.18 Q173.91 464.745 170.392 464.745 Q168.47 464.745 166.271 465.162 Q164.072 465.579 161.433 466.458 L161.433 462.292 Q164.095 461.551 166.41 461.18 Q168.748 460.81 170.808 460.81 Q176.132 460.81 179.234 463.241 Q182.336 465.648 182.336 469.768 Q182.336 472.639 180.693 474.629 Q179.049 476.597 176.017 477.361 Z" fill="#000000" fill-rule="nonzero" fill-opacity="1" /><path clip-path="url(#clip140)" d="M125.485 286.259 Q121.873 286.259 120.045 289.823 Q118.239 293.365 118.239 300.495 Q118.239 307.601 120.045 311.166 Q121.873 314.707 125.485 314.707 Q129.119 314.707 130.924 311.166 Q132.753 307.601 132.753 300.495 Q132.753 293.365 130.924 289.823 Q129.119 286.259 125.485 286.259 M125.485 282.555 Q131.295 282.555 134.35 287.161 Q137.429 291.745 137.429 300.495 Q137.429 309.221 134.35 313.828 Q131.295 318.411 125.485 318.411 Q119.674 318.411 116.596 313.828 Q113.54 309.221 113.54 300.495 Q113.54 291.745 116.596 287.161 Q119.674 282.555 125.485 282.555 Z" fill="#000000" fill-rule="nonzero" fill-opacity="1" /><path clip-path="url(#clip140)" d="M145.646 311.86 L150.531 311.86 L150.531 317.74 L145.646 317.74 L145.646 311.86 Z" fill="#000000" fill-rule="nonzero" fill-opacity="1" /><path clip-path="url(#clip140)" d="M173.563 287.254 L161.757 305.703 L173.563 305.703 L173.563 287.254 M172.336 283.18 L178.216 283.18 L178.216 305.703 L183.146 305.703 L183.146 309.592 L178.216 309.592 L178.216 317.74 L173.563 317.74 L173.563 309.592 L157.961 309.592 L157.961 305.078 L172.336 283.18 Z" fill="#000000" fill-rule="nonzero" fill-opacity="1" /><path clip-path="url(#clip140)" d="M126.966 108.003 Q123.355 108.003 121.526 111.568 Q119.721 115.11 119.721 122.239 Q119.721 129.346 121.526 132.911 Q123.355 136.452 126.966 136.452 Q130.6 136.452 132.406 132.911 Q134.234 129.346 134.234 122.239 Q134.234 115.11 132.406 111.568 Q130.6 108.003 126.966 108.003 M126.966 104.3 Q132.776 104.3 135.832 108.906 Q138.91 113.489 138.91 122.239 Q138.91 130.966 135.832 135.573 Q132.776 140.156 126.966 140.156 Q121.156 140.156 118.077 135.573 Q115.022 130.966 115.022 122.239 Q115.022 113.489 118.077 108.906 Q121.156 104.3 126.966 104.3 Z" fill="#000000" fill-rule="nonzero" fill-opacity="1" /><path clip-path="url(#clip140)" d="M147.128 133.605 L152.012 133.605 L152.012 139.485 L147.128 139.485 L147.128 133.605 Z" fill="#000000" fill-rule="nonzero" fill-opacity="1" /><path clip-path="url(#clip140)" d="M162.244 104.925 L180.6 104.925 L180.6 108.86 L166.526 108.86 L166.526 117.332 Q167.544 116.985 168.563 116.823 Q169.582 116.638 170.6 116.638 Q176.387 116.638 179.767 119.809 Q183.146 122.98 183.146 128.397 Q183.146 133.975 179.674 137.077 Q176.202 140.156 169.882 140.156 Q167.707 140.156 165.438 139.786 Q163.193 139.415 160.785 138.674 L160.785 133.975 Q162.869 135.11 165.091 135.665 Q167.313 136.221 169.79 136.221 Q173.794 136.221 176.132 134.114 Q178.47 132.008 178.47 128.397 Q178.47 124.786 176.132 122.679 Q173.794 120.573 169.79 120.573 Q167.915 120.573 166.04 120.989 Q164.188 121.406 162.244 122.286 L162.244 104.925 Z" fill="#000000" fill-rule="nonzero" fill-opacity="1" /><path clip-path="url(#clip140)" d="M25.3677 961.299 L43.2235 961.299 L43.2235 953.214 Q43.2235 948.727 40.9 946.276 Q38.5765 943.825 34.2797 943.825 Q30.0147 943.825 27.6912 946.276 Q25.3677 948.727 25.3677 953.214 L25.3677 961.299 M20.0842 967.728 L20.0842 953.214 Q20.0842 945.225 23.7126 941.151 Q27.3092 937.045 34.2797 937.045 Q41.3138 937.045 44.9104 941.151 Q48.507 945.225 48.507 953.214 L48.507 961.299 L67.6042 961.299 L67.6042 967.728 L20.0842 967.728 Z" fill="#000000" fill-rule="nonzero" fill-opacity="1" /><path clip-path="url(#clip140)" d="M49.6847 915.402 Q49.6847 922.5 51.3079 925.237 Q52.9312 927.974 56.8461 927.974 Q59.9653 927.974 61.8114 925.937 Q63.6256 923.868 63.6256 920.336 Q63.6256 915.466 60.1881 912.538 Q56.7188 909.577 50.9897 909.577 L49.6847 909.577 L49.6847 915.402 M47.2657 903.721 L67.6042 903.721 L67.6042 909.577 L62.1933 909.577 Q65.4398 911.583 66.9994 914.575 Q68.5272 917.566 68.5272 921.895 Q68.5272 927.37 65.4716 930.616 Q62.3843 933.831 57.2281 933.831 Q51.2125 933.831 48.1569 929.82 Q45.1014 925.778 45.1014 917.789 L45.1014 909.577 L44.5285 909.577 Q40.4862 909.577 38.2901 912.251 Q36.0621 914.893 36.0621 919.699 Q36.0621 922.754 36.7941 925.651 Q37.5262 928.547 38.9903 931.221 L33.5795 931.221 Q32.3381 928.006 31.7334 924.982 Q31.0968 921.959 31.0968 919.094 Q31.0968 911.36 35.1072 907.54 Q39.1176 903.721 47.2657 903.721 Z" fill="#000000" fill-rule="nonzero" fill-opacity="1" /><path clip-path="url(#clip140)" d="M37.4307 871.001 Q36.8578 871.988 36.6032 873.166 Q36.3167 874.311 36.3167 875.712 Q36.3167 880.677 39.5632 883.351 Q42.7779 885.993 48.8253 885.993 L67.6042 885.993 L67.6042 891.881 L31.9562 891.881 L31.9562 885.993 L37.4944 885.993 Q34.2479 884.146 32.6883 881.186 Q31.0968 878.226 31.0968 873.993 Q31.0968 873.388 31.1923 872.656 Q31.256 871.924 31.4151 871.033 L37.4307 871.001 Z" fill="#000000" fill-rule="nonzero" fill-opacity="1" /><path clip-path="url(#clip140)" d="M21.8347 859.066 L31.9562 859.066 L31.9562 847.003 L36.5077 847.003 L36.5077 859.066 L55.8594 859.066 Q60.2199 859.066 61.4613 857.888 Q62.7026 856.678 62.7026 853.018 L62.7026 847.003 L67.6042 847.003 L67.6042 853.018 Q67.6042 859.798 65.0897 862.376 Q62.5434 864.954 55.8594 864.954 L36.5077 864.954 L36.5077 869.251 L31.9562 869.251 L31.9562 864.954 L21.8347 864.954 L21.8347 859.066 Z" fill="#000000" fill-rule="nonzero" fill-opacity="1" /><path clip-path="url(#clip140)" d="M31.9562 839.3 L31.9562 833.444 L67.6042 833.444 L67.6042 839.3 L31.9562 839.3 M18.079 839.3 L18.079 833.444 L25.495 833.444 L25.495 839.3 L18.079 839.3 Z" fill="#000000" fill-rule="nonzero" fill-opacity="1" /><path clip-path="url(#clip140)" d="M49.6847 804.989 Q49.6847 812.087 51.3079 814.824 Q52.9312 817.561 56.8461 817.561 Q59.9653 817.561 61.8114 815.524 Q63.6256 813.455 63.6256 809.922 Q63.6256 805.053 60.1881 802.124 Q56.7188 799.164 50.9897 799.164 L49.6847 799.164 L49.6847 804.989 M47.2657 793.308 L67.6042 793.308 L67.6042 799.164 L62.1933 799.164 Q65.4398 801.169 66.9994 804.161 Q68.5272 807.153 68.5272 811.482 Q68.5272 816.956 65.4716 820.203 Q62.3843 823.418 57.2281 823.418 Q51.2125 823.418 48.1569 819.407 Q45.1014 815.365 45.1014 807.376 L45.1014 799.164 L44.5285 799.164 Q40.4862 799.164 38.2901 801.838 Q36.0621 804.48 36.0621 809.286 Q36.0621 812.341 36.7941 815.238 Q37.5262 818.134 38.9903 820.808 L33.5795 820.808 Q32.3381 817.593 31.7334 814.569 Q31.0968 811.546 31.0968 808.681 Q31.0968 800.947 35.1072 797.127 Q39.1176 793.308 47.2657 793.308 Z" fill="#000000" fill-rule="nonzero" fill-opacity="1" /><path clip-path="url(#clip140)" d="M18.079 781.245 L18.079 775.388 L67.6042 775.388 L67.6042 781.245 L18.079 781.245 Z" fill="#000000" fill-rule="nonzero" fill-opacity="1" /><path clip-path="url(#clip140)" d="M26.418 726.277 L50.0666 734.998 L50.0666 717.524 L26.418 726.277 M20.0842 729.905 L20.0842 722.617 L67.6042 704.506 L67.6042 711.19 L55.4138 715.519 L55.4138 736.939 L67.6042 741.268 L67.6042 748.048 L20.0842 729.905 Z" fill="#000000" fill-rule="nonzero" fill-opacity="1" /><path clip-path="url(#clip140)" d="M53.5359 698.427 L31.9562 698.427 L31.9562 692.571 L53.3131 692.571 Q58.3739 692.571 60.9202 690.597 Q63.4346 688.624 63.4346 684.677 Q63.4346 679.935 60.4109 677.197 Q57.3872 674.428 52.1673 674.428 L31.9562 674.428 L31.9562 668.572 L67.6042 668.572 L67.6042 674.428 L62.1296 674.428 Q65.3762 676.561 66.9676 679.394 Q68.5272 682.194 68.5272 685.918 Q68.5272 692.061 64.7078 695.244 Q60.8883 698.427 53.5359 698.427 M31.0968 683.69 L31.0968 683.69 Z" fill="#000000" fill-rule="nonzero" fill-opacity="1" /><path clip-path="url(#clip140)" d="M21.8347 650.716 L31.9562 650.716 L31.9562 638.653 L36.5077 638.653 L36.5077 650.716 L55.8594 650.716 Q60.2199 650.716 61.4613 649.538 Q62.7026 648.329 62.7026 644.669 L62.7026 638.653 L67.6042 638.653 L67.6042 644.669 Q67.6042 651.448 65.0897 654.026 Q62.5434 656.604 55.8594 656.604 L36.5077 656.604 L36.5077 660.901 L31.9562 660.901 L31.9562 656.604 L21.8347 656.604 L21.8347 650.716 Z" fill="#000000" fill-rule="nonzero" fill-opacity="1" /><path clip-path="url(#clip140)" d="M36.0621 617.137 Q36.0621 621.848 39.7542 624.585 Q43.4145 627.322 49.812 627.322 Q56.2095 627.322 59.9017 624.617 Q63.5619 621.879 63.5619 617.137 Q63.5619 612.458 59.8698 609.721 Q56.1777 606.984 49.812 606.984 Q43.4781 606.984 39.786 609.721 Q36.0621 612.458 36.0621 617.137 M31.0968 617.137 Q31.0968 609.498 36.0621 605.138 Q41.0273 600.777 49.812 600.777 Q58.5649 600.777 63.5619 605.138 Q68.5272 609.498 68.5272 617.137 Q68.5272 624.808 63.5619 629.168 Q58.5649 633.497 49.812 633.497 Q41.0273 633.497 36.0621 629.168 Q31.0968 624.808 31.0968 617.137 Z" fill="#000000" fill-rule="nonzero" fill-opacity="1" /><path clip-path="url(#clip140)" d="M33.3248 565.416 L38.7993 565.416 Q37.4307 567.898 36.7623 570.413 Q36.0621 572.895 36.0621 575.442 Q36.0621 581.139 39.6905 584.29 Q43.2872 587.441 49.812 587.441 Q56.3369 587.441 59.9653 584.29 Q63.5619 581.139 63.5619 575.442 Q63.5619 572.895 62.8935 570.413 Q62.1933 567.898 60.8247 565.416 L66.2355 565.416 Q67.3814 567.866 67.9543 570.508 Q68.5272 573.118 68.5272 576.078 Q68.5272 584.131 63.4664 588.873 Q58.4057 593.616 49.812 593.616 Q41.091 593.616 36.0939 588.841 Q31.0968 584.035 31.0968 575.696 Q31.0968 572.991 31.6697 570.413 Q32.2108 567.835 33.3248 565.416 Z" fill="#000000" fill-rule="nonzero" fill-opacity="1" /><path clip-path="url(#clip140)" d="M36.0621 541.417 Q36.0621 546.127 39.7542 548.865 Q43.4145 551.602 49.812 551.602 Q56.2095 551.602 59.9017 548.897 Q63.5619 546.159 63.5619 541.417 Q63.5619 536.738 59.8698 534.001 Q56.1777 531.264 49.812 531.264 Q43.4781 531.264 39.786 534.001 Q36.0621 536.738 36.0621 541.417 M31.0968 541.417 Q31.0968 533.778 36.0621 529.417 Q41.0273 525.057 49.812 525.057 Q58.5649 525.057 63.5619 529.417 Q68.5272 533.778 68.5272 541.417 Q68.5272 549.087 63.5619 553.448 Q58.5649 557.777 49.812 557.777 Q41.0273 557.777 36.0621 553.448 Q31.0968 549.087 31.0968 541.417 Z" fill="#000000" fill-rule="nonzero" fill-opacity="1" /><path clip-path="url(#clip140)" d="M37.4307 494.693 Q36.8578 495.679 36.6032 496.857 Q36.3167 498.003 36.3167 499.403 Q36.3167 504.368 39.5632 507.042 Q42.7779 509.684 48.8253 509.684 L67.6042 509.684 L67.6042 515.572 L31.9562 515.572 L31.9562 509.684 L37.4944 509.684 Q34.2479 507.838 32.6883 504.878 Q31.0968 501.918 31.0968 497.684 Q31.0968 497.08 31.1923 496.348 Q31.256 495.616 31.4151 494.724 L37.4307 494.693 Z" fill="#000000" fill-rule="nonzero" fill-opacity="1" /><path clip-path="url(#clip140)" d="M37.4307 469.039 Q36.8578 470.025 36.6032 471.203 Q36.3167 472.349 36.3167 473.749 Q36.3167 478.715 39.5632 481.388 Q42.7779 484.03 48.8253 484.03 L67.6042 484.03 L67.6042 489.918 L31.9562 489.918 L31.9562 484.03 L37.4944 484.03 Q34.2479 482.184 32.6883 479.224 Q31.0968 476.264 31.0968 472.031 Q31.0968 471.426 31.1923 470.694 Q31.256 469.962 31.4151 469.071 L37.4307 469.039 Z" fill="#000000" fill-rule="nonzero" fill-opacity="1" /><path clip-path="url(#clip140)" d="M48.3161 433.836 L51.1806 433.836 L51.1806 460.763 Q57.2281 460.381 60.4109 457.135 Q63.5619 453.857 63.5619 448.032 Q63.5619 444.658 62.7344 441.507 Q61.9069 438.324 60.2518 435.205 L65.7899 435.205 Q67.1267 438.356 67.827 441.666 Q68.5272 444.976 68.5272 448.382 Q68.5272 456.912 63.5619 461.909 Q58.5967 466.874 50.1303 466.874 Q41.3774 466.874 36.2531 462.164 Q31.0968 457.421 31.0968 449.401 Q31.0968 442.207 35.7438 438.038 Q40.3589 433.836 48.3161 433.836 M46.5973 439.693 Q41.7912 439.756 38.9266 442.398 Q36.0621 445.008 36.0621 449.337 Q36.0621 454.238 38.8312 457.199 Q41.6002 460.127 46.6292 460.572 L46.5973 439.693 Z" fill="#000000" fill-rule="nonzero" fill-opacity="1" /><path clip-path="url(#clip140)" d="M18.079 424.224 L18.079 418.368 L67.6042 418.368 L67.6042 424.224 L18.079 424.224 Z" fill="#000000" fill-rule="nonzero" fill-opacity="1" /><path clip-path="url(#clip140)" d="M49.6847 389.913 Q49.6847 397.011 51.3079 399.748 Q52.9312 402.485 56.8461 402.485 Q59.9653 402.485 61.8114 400.448 Q63.6256 398.379 63.6256 394.846 Q63.6256 389.977 60.1881 387.048 Q56.7188 384.088 50.9897 384.088 L49.6847 384.088 L49.6847 389.913 M47.2657 378.232 L67.6042 378.232 L67.6042 384.088 L62.1933 384.088 Q65.4398 386.094 66.9994 389.085 Q68.5272 392.077 68.5272 396.406 Q68.5272 401.881 65.4716 405.127 Q62.3843 408.342 57.2281 408.342 Q51.2125 408.342 48.1569 404.331 Q45.1014 400.289 45.1014 392.3 L45.1014 384.088 L44.5285 384.088 Q40.4862 384.088 38.2901 386.762 Q36.0621 389.404 36.0621 394.21 Q36.0621 397.265 36.7941 400.162 Q37.5262 403.058 38.9903 405.732 L33.5795 405.732 Q32.3381 402.517 31.7334 399.493 Q31.0968 396.47 31.0968 393.605 Q31.0968 385.871 35.1072 382.051 Q39.1176 378.232 47.2657 378.232 Z" fill="#000000" fill-rule="nonzero" fill-opacity="1" /><path clip-path="url(#clip140)" d="M21.8347 360.376 L31.9562 360.376 L31.9562 348.313 L36.5077 348.313 L36.5077 360.376 L55.8594 360.376 Q60.2199 360.376 61.4613 359.198 Q62.7026 357.989 62.7026 354.329 L62.7026 348.313 L67.6042 348.313 L67.6042 354.329 Q67.6042 361.108 65.0897 363.686 Q62.5434 366.264 55.8594 366.264 L36.5077 366.264 L36.5077 370.561 L31.9562 370.561 L31.9562 366.264 L21.8347 366.264 L21.8347 360.376 Z" fill="#000000" fill-rule="nonzero" fill-opacity="1" /><path clip-path="url(#clip140)" d="M31.9562 340.611 L31.9562 334.754 L67.6042 334.754 L67.6042 340.611 L31.9562 340.611 M18.079 340.611 L18.079 334.754 L25.495 334.754 L25.495 340.611 L18.079 340.611 Z" fill="#000000" fill-rule="nonzero" fill-opacity="1" /><path clip-path="url(#clip140)" d="M36.0621 308.687 Q36.0621 313.397 39.7542 316.134 Q43.4145 318.872 49.812 318.872 Q56.2095 318.872 59.9017 316.166 Q63.5619 313.429 63.5619 308.687 Q63.5619 304.008 59.8698 301.271 Q56.1777 298.533 49.812 298.533 Q43.4781 298.533 39.786 301.271 Q36.0621 304.008 36.0621 308.687 M31.0968 308.687 Q31.0968 301.048 36.0621 296.687 Q41.0273 292.327 49.812 292.327 Q58.5649 292.327 63.5619 296.687 Q68.5272 301.048 68.5272 308.687 Q68.5272 316.357 63.5619 320.718 Q58.5649 325.046 49.812 325.046 Q41.0273 325.046 36.0621 320.718 Q31.0968 316.357 31.0968 308.687 Z" fill="#000000" fill-rule="nonzero" fill-opacity="1" /><path clip-path="url(#clip140)" d="M46.0881 252.987 L67.6042 252.987 L67.6042 258.843 L46.279 258.843 Q41.2183 258.843 38.7038 260.816 Q36.1894 262.79 36.1894 266.737 Q36.1894 271.479 39.2131 274.216 Q42.2368 276.954 47.4567 276.954 L67.6042 276.954 L67.6042 282.842 L31.9562 282.842 L31.9562 276.954 L37.4944 276.954 Q34.2797 274.853 32.6883 272.02 Q31.0968 269.156 31.0968 265.432 Q31.0968 259.289 34.9163 256.138 Q38.7038 252.987 46.0881 252.987 Z" fill="#000000" fill-rule="nonzero" fill-opacity="1" /><circle clip-path="url(#clip141)" cx="267.183" cy="79.1184" r="18" fill="#009af9" fill-rule="evenodd" fill-opacity="1" stroke="#000000" stroke-opacity="1" stroke-width="2.688"/>
<circle clip-path="url(#clip141)" cx="703.487" cy="851.453" r="18" fill="#009af9" fill-rule="evenodd" fill-opacity="1" stroke="#000000" stroke-opacity="1" stroke-width="2.688"/>
<circle clip-path="url(#clip141)" cx="1139.79" cy="924.51" r="18" fill="#009af9" fill-rule="evenodd" fill-opacity="1" stroke="#000000" stroke-opacity="1" stroke-width="2.688"/>
<circle clip-path="url(#clip141)" cx="1576.1" cy="915.719" r="18" fill="#009af9" fill-rule="evenodd" fill-opacity="1" stroke="#000000" stroke-opacity="1" stroke-width="2.688"/>
<circle clip-path="url(#clip141)" cx="2012.4" cy="1141.6" r="18" fill="#009af9" fill-rule="evenodd" fill-opacity="1" stroke="#000000" stroke-opacity="1" stroke-width="2.688"/>
<polyline clip-path="url(#clip141)" style="stroke:#009af9; stroke-linecap:round; stroke-linejoin:round; stroke-width:4; stroke-opacity:1; fill:none" points="267.183,1013.48 267.183,79.1184 "/>
<polyline clip-path="url(#clip141)" style="stroke:#009af9; stroke-linecap:round; stroke-linejoin:round; stroke-width:4; stroke-opacity:1; fill:none" points="703.487,1013.48 703.487,851.453 "/>
<polyline clip-path="url(#clip141)" style="stroke:#009af9; stroke-linecap:round; stroke-linejoin:round; stroke-width:4; stroke-opacity:1; fill:none" points="1139.79,1013.48 1139.79,924.51 "/>
<polyline clip-path="url(#clip141)" style="stroke:#009af9; stroke-linecap:round; stroke-linejoin:round; stroke-width:4; stroke-opacity:1; fill:none" points="1576.1,1013.48 1576.1,915.719 "/>
<polyline clip-path="url(#clip141)" style="stroke:#009af9; stroke-linecap:round; stroke-linejoin:round; stroke-width:4; stroke-opacity:1; fill:none" points="2012.4,1013.48 2012.4,1141.6 "/>
</svg>
