<?xml version="1.0" encoding="utf-8"?>
<svg xmlns="http://www.w3.org/2000/svg" xmlns:xlink="http://www.w3.org/1999/xlink" width="528" height="336" viewBox="0 0 2112 1344">
<defs>
  <clipPath id="clip020">
    <rect x="0" y="0" width="2112" height="1344"/>
  </clipPath>
</defs>
<path clip-path="url(#clip020)" d="M0 1344 L2112 1344 L2112 2.13163e-14 L0 2.13163e-14  Z" fill="#ffffff" fill-rule="evenodd" fill-opacity="1"/>
<defs>
  <clipPath id="clip021">
    <rect x="250" y="47" width="1815" height="1127"/>
  </clipPath>
</defs>
<path clip-path="url(#clip020)" d="M250.567 1173.47 L2064.76 1173.47 L2064.76 47.2441 L250.567 47.2441  Z" fill="#ffffff" fill-rule="evenodd" fill-opacity="1"/>
<polyline clip-path="url(#clip021)" style="stroke:#000000; stroke-linecap:round; stroke-linejoin:round; stroke-width:2; stroke-opacity:0.1; fill:none" points="301.912,1173.47 301.912,47.2441 "/>
<polyline clip-path="url(#clip021)" style="stroke:#000000; stroke-linecap:round; stroke-linejoin:round; stroke-width:2; stroke-opacity:0.1; fill:none" points="729.787,1173.47 729.787,47.2441 "/>
<polyline clip-path="url(#clip021)" style="stroke:#000000; stroke-linecap:round; stroke-linejoin:round; stroke-width:2; stroke-opacity:0.1; fill:none" points="1157.66,1173.47 1157.66,47.2441 "/>
<polyline clip-path="url(#clip021)" style="stroke:#000000; stroke-linecap:round; stroke-linejoin:round; stroke-width:2; stroke-opacity:0.1; fill:none" points="1585.54,1173.47 1585.54,47.2441 "/>
<polyline clip-path="url(#clip021)" style="stroke:#000000; stroke-linecap:round; stroke-linejoin:round; stroke-width:2; stroke-opacity:0.1; fill:none" points="2013.41,1173.47 2013.41,47.2441 "/>
<polyline clip-path="url(#clip021)" style="stroke:#000000; stroke-linecap:round; stroke-linejoin:round; stroke-width:2; stroke-opacity:0.1; fill:none" points="250.567,1032.54 2064.76,1032.54 "/>
<polyline clip-path="url(#clip021)" style="stroke:#000000; stroke-linecap:round; stroke-linejoin:round; stroke-width:2; stroke-opacity:0.1; fill:none" points="250.567,872.869 2064.76,872.869 "/>
<polyline clip-path="url(#clip021)" style="stroke:#000000; stroke-linecap:round; stroke-linejoin:round; stroke-width:2; stroke-opacity:0.1; fill:none" points="250.567,713.193 2064.76,713.193 "/>
<polyline clip-path="url(#clip021)" style="stroke:#000000; stroke-linecap:round; stroke-linejoin:round; stroke-width:2; stroke-opacity:0.1; fill:none" points="250.567,553.517 2064.76,553.517 "/>
<polyline clip-path="url(#clip021)" style="stroke:#000000; stroke-linecap:round; stroke-linejoin:round; stroke-width:2; stroke-opacity:0.1; fill:none" points="250.567,393.841 2064.76,393.841 "/>
<polyline clip-path="url(#clip021)" style="stroke:#000000; stroke-linecap:round; stroke-linejoin:round; stroke-width:2; stroke-opacity:0.1; fill:none" points="250.567,234.165 2064.76,234.165 "/>
<polyline clip-path="url(#clip021)" style="stroke:#000000; stroke-linecap:round; stroke-linejoin:round; stroke-width:2; stroke-opacity:0.1; fill:none" points="250.567,74.4887 2064.76,74.4887 "/>
<polyline clip-path="url(#clip020)" style="stroke:#000000; stroke-linecap:round; stroke-linejoin:round; stroke-width:4; stroke-opacity:1; fill:none" points="250.567,1173.47 2064.76,1173.47 "/>
<polyline clip-path="url(#clip020)" style="stroke:#000000; stroke-linecap:round; stroke-linejoin:round; stroke-width:4; stroke-opacity:1; fill:none" points="301.912,1173.47 301.912,1154.57 "/>
<polyline clip-path="url(#clip020)" style="stroke:#000000; stroke-linecap:round; stroke-linejoin:round; stroke-width:4; stroke-opacity:1; fill:none" points="729.787,1173.47 729.787,1154.57 "/>
<polyline clip-path="url(#clip020)" style="stroke:#000000; stroke-linecap:round; stroke-linejoin:round; stroke-width:4; stroke-opacity:1; fill:none" points="1157.66,1173.47 1157.66,1154.57 "/>
<polyline clip-path="url(#clip020)" style="stroke:#000000; stroke-linecap:round; stroke-linejoin:round; stroke-width:4; stroke-opacity:1; fill:none" points="1585.54,1173.47 1585.54,1154.57 "/>
<polyline clip-path="url(#clip020)" style="stroke:#000000; stroke-linecap:round; stroke-linejoin:round; stroke-width:4; stroke-opacity:1; fill:none" points="2013.41,1173.47 2013.41,1154.57 "/>
<path clip-path="url(#clip020)" d="M292.294 1229.63 L299.933 1229.63 L299.933 1203.27 L291.622 1204.93 L291.622 1200.67 L299.886 1199.01 L304.562 1199.01 L304.562 1229.63 L312.201 1229.63 L312.201 1233.57 L292.294 1233.57 L292.294 1229.63 Z" fill="#000000" fill-rule="nonzero" fill-opacity="1" /><path clip-path="url(#clip020)" d="M724.439 1229.63 L740.759 1229.63 L740.759 1233.57 L718.814 1233.57 L718.814 1229.63 Q721.476 1226.88 726.06 1222.25 Q730.666 1217.59 731.847 1216.25 Q734.092 1213.73 734.972 1211.99 Q735.875 1210.23 735.875 1208.54 Q735.875 1205.79 733.93 1204.05 Q732.009 1202.32 728.907 1202.32 Q726.708 1202.32 724.254 1203.08 Q721.824 1203.84 719.046 1205.4 L719.046 1200.67 Q721.87 1199.54 724.324 1198.96 Q726.777 1198.38 728.814 1198.38 Q734.185 1198.38 737.379 1201.07 Q740.574 1203.75 740.574 1208.24 Q740.574 1210.37 739.763 1212.29 Q738.976 1214.19 736.87 1216.78 Q736.291 1217.46 733.189 1220.67 Q730.087 1223.87 724.439 1229.63 Z" fill="#000000" fill-rule="nonzero" fill-opacity="1" /><path clip-path="url(#clip020)" d="M1161.91 1214.93 Q1165.27 1215.65 1167.14 1217.92 Q1169.04 1220.19 1169.04 1223.52 Q1169.04 1228.64 1165.52 1231.44 Q1162 1234.24 1155.52 1234.24 Q1153.34 1234.24 1151.03 1233.8 Q1148.74 1233.38 1146.28 1232.53 L1146.28 1228.01 Q1148.23 1229.15 1150.54 1229.72 Q1152.86 1230.3 1155.38 1230.3 Q1159.78 1230.3 1162.07 1228.57 Q1164.39 1226.83 1164.39 1223.52 Q1164.39 1220.46 1162.23 1218.75 Q1160.1 1217.02 1156.28 1217.02 L1152.26 1217.02 L1152.26 1213.17 L1156.47 1213.17 Q1159.92 1213.17 1161.75 1211.81 Q1163.58 1210.42 1163.58 1207.83 Q1163.58 1205.16 1161.68 1203.75 Q1159.8 1202.32 1156.28 1202.32 Q1154.36 1202.32 1152.16 1202.73 Q1149.96 1203.15 1147.33 1204.03 L1147.33 1199.86 Q1149.99 1199.12 1152.3 1198.75 Q1154.64 1198.38 1156.7 1198.38 Q1162.02 1198.38 1165.13 1200.81 Q1168.23 1203.22 1168.23 1207.34 Q1168.23 1210.21 1166.58 1212.2 Q1164.94 1214.17 1161.91 1214.93 Z" fill="#000000" fill-rule="nonzero" fill-opacity="1" /><path clip-path="url(#clip020)" d="M1588.55 1203.08 L1576.74 1221.53 L1588.55 1221.53 L1588.55 1203.08 M1587.32 1199.01 L1593.2 1199.01 L1593.2 1221.53 L1598.13 1221.53 L1598.13 1225.42 L1593.2 1225.42 L1593.2 1233.57 L1588.55 1233.57 L1588.55 1225.42 L1572.94 1225.42 L1572.94 1220.9 L1587.32 1199.01 Z" fill="#000000" fill-rule="nonzero" fill-opacity="1" /><path clip-path="url(#clip020)" d="M2003.69 1199.01 L2022.05 1199.01 L2022.05 1202.94 L2007.97 1202.94 L2007.97 1211.41 Q2008.99 1211.07 2010.01 1210.9 Q2011.03 1210.72 2012.05 1210.72 Q2017.83 1210.72 2021.21 1213.89 Q2024.59 1217.06 2024.59 1222.48 Q2024.59 1228.06 2021.12 1231.16 Q2017.65 1234.24 2011.33 1234.24 Q2009.15 1234.24 2006.88 1233.87 Q2004.64 1233.5 2002.23 1232.76 L2002.23 1228.06 Q2004.31 1229.19 2006.54 1229.75 Q2008.76 1230.3 2011.24 1230.3 Q2015.24 1230.3 2017.58 1228.2 Q2019.92 1226.09 2019.92 1222.48 Q2019.92 1218.87 2017.58 1216.76 Q2015.24 1214.65 2011.24 1214.65 Q2009.36 1214.65 2007.49 1215.07 Q2005.63 1215.49 2003.69 1216.37 L2003.69 1199.01 Z" fill="#000000" fill-rule="nonzero" fill-opacity="1" /><path clip-path="url(#clip020)" d="M1011.58 1266.49 L1051.78 1266.49 L1051.78 1271.91 L1034.91 1271.91 L1034.91 1314.01 L1028.45 1314.01 L1028.45 1271.91 L1011.58 1271.91 L1011.58 1266.49 Z" fill="#000000" fill-rule="nonzero" fill-opacity="1" /><path clip-path="url(#clip020)" d="M1055.73 1278.37 L1061.59 1278.37 L1061.59 1314.01 L1055.73 1314.01 L1055.73 1278.37 M1055.73 1264.49 L1061.59 1264.49 L1061.59 1271.91 L1055.73 1271.91 L1055.73 1264.49 Z" fill="#000000" fill-rule="nonzero" fill-opacity="1" /><path clip-path="url(#clip020)" d="M1101.6 1285.21 Q1103.79 1281.26 1106.85 1279.39 Q1109.9 1277.51 1114.04 1277.51 Q1119.61 1277.51 1122.63 1281.42 Q1125.66 1285.31 1125.66 1292.5 L1125.66 1314.01 L1119.77 1314.01 L1119.77 1292.69 Q1119.77 1287.57 1117.96 1285.08 Q1116.14 1282.6 1112.42 1282.6 Q1107.87 1282.6 1105.22 1285.62 Q1102.58 1288.65 1102.58 1293.87 L1102.58 1314.01 L1096.69 1314.01 L1096.69 1292.69 Q1096.69 1287.53 1094.88 1285.08 Q1093.07 1282.6 1089.28 1282.6 Q1084.79 1282.6 1082.15 1285.66 Q1079.51 1288.68 1079.51 1293.87 L1079.51 1314.01 L1073.62 1314.01 L1073.62 1278.37 L1079.51 1278.37 L1079.51 1283.9 Q1081.51 1280.63 1084.31 1279.07 Q1087.11 1277.51 1090.96 1277.51 Q1094.85 1277.51 1097.55 1279.48 Q1100.29 1281.45 1101.6 1285.21 Z" fill="#000000" fill-rule="nonzero" fill-opacity="1" /><path clip-path="url(#clip020)" d="M1167.83 1294.73 L1167.83 1297.59 L1140.9 1297.59 Q1141.29 1303.64 1144.53 1306.82 Q1147.81 1309.97 1153.64 1309.97 Q1157.01 1309.97 1160.16 1309.14 Q1163.34 1308.32 1166.46 1306.66 L1166.46 1312.2 Q1163.31 1313.54 1160 1314.24 Q1156.69 1314.94 1153.28 1314.94 Q1144.75 1314.94 1139.76 1309.97 Q1134.79 1305.01 1134.79 1296.54 Q1134.79 1287.79 1139.5 1282.66 Q1144.25 1277.51 1152.27 1277.51 Q1159.46 1277.51 1163.63 1282.15 Q1167.83 1286.77 1167.83 1294.73 M1161.97 1293.01 Q1161.91 1288.2 1159.27 1285.34 Q1156.66 1282.47 1152.33 1282.47 Q1147.43 1282.47 1144.47 1285.24 Q1141.54 1288.01 1141.09 1293.04 L1161.97 1293.01 Z" fill="#000000" fill-rule="nonzero" fill-opacity="1" /><path clip-path="url(#clip020)" d="M1198.42 1266.49 L1204.85 1266.49 L1204.85 1308.6 L1227.99 1308.6 L1227.99 1314.01 L1198.42 1314.01 L1198.42 1266.49 Z" fill="#000000" fill-rule="nonzero" fill-opacity="1" /><path clip-path="url(#clip020)" d="M1250.68 1296.1 Q1243.58 1296.1 1240.85 1297.72 Q1238.11 1299.34 1238.11 1303.26 Q1238.11 1306.38 1240.15 1308.22 Q1242.21 1310.04 1245.75 1310.04 Q1250.62 1310.04 1253.54 1306.6 Q1256.5 1303.13 1256.5 1297.4 L1256.5 1296.1 L1250.68 1296.1 M1262.36 1293.68 L1262.36 1314.01 L1256.5 1314.01 L1256.5 1308.6 Q1254.5 1311.85 1251.51 1313.41 Q1248.52 1314.94 1244.19 1314.94 Q1238.71 1314.94 1235.47 1311.88 Q1232.25 1308.79 1232.25 1303.64 Q1232.25 1297.62 1236.26 1294.57 Q1240.3 1291.51 1248.29 1291.51 L1256.5 1291.51 L1256.5 1290.94 Q1256.5 1286.9 1253.83 1284.7 Q1251.19 1282.47 1246.38 1282.47 Q1243.33 1282.47 1240.43 1283.2 Q1237.54 1283.94 1234.86 1285.4 L1234.86 1279.99 Q1238.08 1278.75 1241.1 1278.14 Q1244.12 1277.51 1246.99 1277.51 Q1254.72 1277.51 1258.54 1281.52 Q1262.36 1285.53 1262.36 1293.68 Z" fill="#000000" fill-rule="nonzero" fill-opacity="1" /><path clip-path="url(#clip020)" d="M1297.88 1295.78 Q1297.88 1289.41 1295.24 1285.91 Q1292.63 1282.41 1287.89 1282.41 Q1283.18 1282.41 1280.54 1285.91 Q1277.93 1289.41 1277.93 1295.78 Q1277.93 1302.11 1280.54 1305.61 Q1283.18 1309.11 1287.89 1309.11 Q1292.63 1309.11 1295.24 1305.61 Q1297.88 1302.11 1297.88 1295.78 M1303.74 1309.59 Q1303.74 1318.69 1299.7 1323.12 Q1295.65 1327.57 1287.31 1327.57 Q1284.23 1327.57 1281.49 1327.1 Q1278.75 1326.65 1276.17 1325.7 L1276.17 1320 Q1278.75 1321.4 1281.27 1322.07 Q1283.78 1322.74 1286.39 1322.74 Q1292.15 1322.74 1295.02 1319.71 Q1297.88 1316.72 1297.88 1310.64 L1297.88 1307.74 Q1296.07 1310.9 1293.23 1312.46 Q1290.4 1314.01 1286.46 1314.01 Q1279.9 1314.01 1275.89 1309.02 Q1271.88 1304.02 1271.88 1295.78 Q1271.88 1287.5 1275.89 1282.5 Q1279.9 1277.51 1286.46 1277.51 Q1290.4 1277.51 1293.23 1279.07 Q1296.07 1280.63 1297.88 1283.78 L1297.88 1278.37 L1303.74 1278.37 L1303.74 1309.59 Z" fill="#000000" fill-rule="nonzero" fill-opacity="1" /><polyline clip-path="url(#clip020)" style="stroke:#000000; stroke-linecap:round; stroke-linejoin:round; stroke-width:4; stroke-opacity:1; fill:none" points="250.567,1173.47 250.567,47.2441 "/>
<polyline clip-path="url(#clip020)" style="stroke:#000000; stroke-linecap:round; stroke-linejoin:round; stroke-width:4; stroke-opacity:1; fill:none" points="250.567,1032.54 269.464,1032.54 "/>
<polyline clip-path="url(#clip020)" style="stroke:#000000; stroke-linecap:round; stroke-linejoin:round; stroke-width:4; stroke-opacity:1; fill:none" points="250.567,872.869 269.464,872.869 "/>
<polyline clip-path="url(#clip020)" style="stroke:#000000; stroke-linecap:round; stroke-linejoin:round; stroke-width:4; stroke-opacity:1; fill:none" points="250.567,713.193 269.464,713.193 "/>
<polyline clip-path="url(#clip020)" style="stroke:#000000; stroke-linecap:round; stroke-linejoin:round; stroke-width:4; stroke-opacity:1; fill:none" points="250.567,553.517 269.464,553.517 "/>
<polyline clip-path="url(#clip020)" style="stroke:#000000; stroke-linecap:round; stroke-linejoin:round; stroke-width:4; stroke-opacity:1; fill:none" points="250.567,393.841 269.464,393.841 "/>
<polyline clip-path="url(#clip020)" style="stroke:#000000; stroke-linecap:round; stroke-linejoin:round; stroke-width:4; stroke-opacity:1; fill:none" points="250.567,234.165 269.464,234.165 "/>
<polyline clip-path="url(#clip020)" style="stroke:#000000; stroke-linecap:round; stroke-linejoin:round; stroke-width:4; stroke-opacity:1; fill:none" points="250.567,74.4887 269.464,74.4887 "/>
<path clip-path="url(#clip020)" d="M113.54 1033 L143.216 1033 L143.216 1036.93 L113.54 1036.93 L113.54 1033 Z" fill="#000000" fill-rule="nonzero" fill-opacity="1" /><path clip-path="url(#clip020)" d="M163.308 1018.34 Q159.697 1018.34 157.869 1021.91 Q156.063 1025.45 156.063 1032.58 Q156.063 1039.69 157.869 1043.25 Q159.697 1046.79 163.308 1046.79 Q166.943 1046.79 168.748 1043.25 Q170.577 1039.69 170.577 1032.58 Q170.577 1025.45 168.748 1021.91 Q166.943 1018.34 163.308 1018.34 M163.308 1014.64 Q169.119 1014.64 172.174 1019.25 Q175.253 1023.83 175.253 1032.58 Q175.253 1041.31 172.174 1045.91 Q169.119 1050.5 163.308 1050.5 Q157.498 1050.5 154.42 1045.91 Q151.364 1041.31 151.364 1032.58 Q151.364 1023.83 154.42 1019.25 Q157.498 1014.64 163.308 1014.64 Z" fill="#000000" fill-rule="nonzero" fill-opacity="1" /><path clip-path="url(#clip020)" d="M183.47 1043.94 L188.355 1043.94 L188.355 1049.82 L183.47 1049.82 L183.47 1043.94 Z" fill="#000000" fill-rule="nonzero" fill-opacity="1" /><path clip-path="url(#clip020)" d="M202.567 1045.89 L218.887 1045.89 L218.887 1049.82 L196.942 1049.82 L196.942 1045.89 Q199.605 1043.13 204.188 1038.51 Q208.794 1033.85 209.975 1032.51 Q212.22 1029.99 213.1 1028.25 Q214.003 1026.49 214.003 1024.8 Q214.003 1022.05 212.058 1020.31 Q210.137 1018.57 207.035 1018.57 Q204.836 1018.57 202.382 1019.34 Q199.952 1020.1 197.174 1021.65 L197.174 1016.93 Q199.998 1015.8 202.452 1015.22 Q204.905 1014.64 206.942 1014.64 Q212.313 1014.64 215.507 1017.32 Q218.702 1020.01 218.702 1024.5 Q218.702 1026.63 217.891 1028.55 Q217.104 1030.45 214.998 1033.04 Q214.419 1033.71 211.317 1036.93 Q208.216 1040.13 202.567 1045.89 Z" fill="#000000" fill-rule="nonzero" fill-opacity="1" /><path clip-path="url(#clip020)" d="M161.711 858.667 Q158.1 858.667 156.271 862.232 Q154.466 865.774 154.466 872.903 Q154.466 880.01 156.271 883.574 Q158.1 887.116 161.711 887.116 Q165.345 887.116 167.151 883.574 Q168.98 880.01 168.98 872.903 Q168.98 865.774 167.151 862.232 Q165.345 858.667 161.711 858.667 M161.711 854.964 Q167.521 854.964 170.577 859.57 Q173.656 864.153 173.656 872.903 Q173.656 881.63 170.577 886.237 Q167.521 890.82 161.711 890.82 Q155.901 890.82 152.822 886.237 Q149.767 881.63 149.767 872.903 Q149.767 864.153 152.822 859.57 Q155.901 854.964 161.711 854.964 Z" fill="#000000" fill-rule="nonzero" fill-opacity="1" /><path clip-path="url(#clip020)" d="M181.873 884.269 L186.757 884.269 L186.757 890.149 L181.873 890.149 L181.873 884.269 Z" fill="#000000" fill-rule="nonzero" fill-opacity="1" /><path clip-path="url(#clip020)" d="M206.942 858.667 Q203.331 858.667 201.503 862.232 Q199.697 865.774 199.697 872.903 Q199.697 880.01 201.503 883.574 Q203.331 887.116 206.942 887.116 Q210.577 887.116 212.382 883.574 Q214.211 880.01 214.211 872.903 Q214.211 865.774 212.382 862.232 Q210.577 858.667 206.942 858.667 M206.942 854.964 Q212.753 854.964 215.808 859.57 Q218.887 864.153 218.887 872.903 Q218.887 881.63 215.808 886.237 Q212.753 890.82 206.942 890.82 Q201.132 890.82 198.054 886.237 Q194.998 881.63 194.998 872.903 Q194.998 864.153 198.054 859.57 Q201.132 854.964 206.942 854.964 Z" fill="#000000" fill-rule="nonzero" fill-opacity="1" /><path clip-path="url(#clip020)" d="M163.308 698.991 Q159.697 698.991 157.869 702.556 Q156.063 706.098 156.063 713.227 Q156.063 720.334 157.869 723.899 Q159.697 727.44 163.308 727.44 Q166.943 727.44 168.748 723.899 Q170.577 720.334 170.577 713.227 Q170.577 706.098 168.748 702.556 Q166.943 698.991 163.308 698.991 M163.308 695.288 Q169.119 695.288 172.174 699.894 Q175.253 704.477 175.253 713.227 Q175.253 721.954 172.174 726.561 Q169.119 731.144 163.308 731.144 Q157.498 731.144 154.42 726.561 Q151.364 721.954 151.364 713.227 Q151.364 704.477 154.42 699.894 Q157.498 695.288 163.308 695.288 Z" fill="#000000" fill-rule="nonzero" fill-opacity="1" /><path clip-path="url(#clip020)" d="M183.47 724.593 L188.355 724.593 L188.355 730.473 L183.47 730.473 L183.47 724.593 Z" fill="#000000" fill-rule="nonzero" fill-opacity="1" /><path clip-path="url(#clip020)" d="M202.567 726.537 L218.887 726.537 L218.887 730.473 L196.942 730.473 L196.942 726.537 Q199.605 723.783 204.188 719.153 Q208.794 714.5 209.975 713.158 Q212.22 710.635 213.1 708.899 Q214.003 707.139 214.003 705.45 Q214.003 702.695 212.058 700.959 Q210.137 699.223 207.035 699.223 Q204.836 699.223 202.382 699.987 Q199.952 700.75 197.174 702.301 L197.174 697.579 Q199.998 696.445 202.452 695.866 Q204.905 695.288 206.942 695.288 Q212.313 695.288 215.507 697.973 Q218.702 700.658 218.702 705.149 Q218.702 707.278 217.891 709.2 Q217.104 711.098 214.998 713.69 Q214.419 714.362 211.317 717.579 Q208.216 720.774 202.567 726.537 Z" fill="#000000" fill-rule="nonzero" fill-opacity="1" /><path clip-path="url(#clip020)" d="M161.225 539.315 Q157.614 539.315 155.785 542.88 Q153.98 546.422 153.98 553.551 Q153.98 560.658 155.785 564.223 Q157.614 567.764 161.225 567.764 Q164.859 567.764 166.665 564.223 Q168.494 560.658 168.494 553.551 Q168.494 546.422 166.665 542.88 Q164.859 539.315 161.225 539.315 M161.225 535.612 Q167.035 535.612 170.091 540.218 Q173.169 544.801 173.169 553.551 Q173.169 562.278 170.091 566.885 Q167.035 571.468 161.225 571.468 Q155.415 571.468 152.336 566.885 Q149.281 562.278 149.281 553.551 Q149.281 544.801 152.336 540.218 Q155.415 535.612 161.225 535.612 Z" fill="#000000" fill-rule="nonzero" fill-opacity="1" /><path clip-path="url(#clip020)" d="M181.387 564.917 L186.271 564.917 L186.271 570.797 L181.387 570.797 L181.387 564.917 Z" fill="#000000" fill-rule="nonzero" fill-opacity="1" /><path clip-path="url(#clip020)" d="M209.304 540.311 L197.498 558.76 L209.304 558.76 L209.304 540.311 M208.077 536.237 L213.956 536.237 L213.956 558.76 L218.887 558.76 L218.887 562.648 L213.956 562.648 L213.956 570.797 L209.304 570.797 L209.304 562.648 L193.702 562.648 L193.702 558.135 L208.077 536.237 Z" fill="#000000" fill-rule="nonzero" fill-opacity="1" /><path clip-path="url(#clip020)" d="M161.549 379.639 Q157.938 379.639 156.109 383.204 Q154.304 386.746 154.304 393.875 Q154.304 400.982 156.109 404.547 Q157.938 408.088 161.549 408.088 Q165.183 408.088 166.989 404.547 Q168.818 400.982 168.818 393.875 Q168.818 386.746 166.989 383.204 Q165.183 379.639 161.549 379.639 M161.549 375.936 Q167.359 375.936 170.415 380.542 Q173.494 385.125 173.494 393.875 Q173.494 402.602 170.415 407.209 Q167.359 411.792 161.549 411.792 Q155.739 411.792 152.66 407.209 Q149.605 402.602 149.605 393.875 Q149.605 385.125 152.66 380.542 Q155.739 375.936 161.549 375.936 Z" fill="#000000" fill-rule="nonzero" fill-opacity="1" /><path clip-path="url(#clip020)" d="M181.711 405.241 L186.595 405.241 L186.595 411.121 L181.711 411.121 L181.711 405.241 Z" fill="#000000" fill-rule="nonzero" fill-opacity="1" /><path clip-path="url(#clip020)" d="M207.359 391.977 Q204.211 391.977 202.359 394.13 Q200.53 396.283 200.53 400.033 Q200.53 403.76 202.359 405.935 Q204.211 408.088 207.359 408.088 Q210.507 408.088 212.336 405.935 Q214.188 403.76 214.188 400.033 Q214.188 396.283 212.336 394.13 Q210.507 391.977 207.359 391.977 M216.641 377.324 L216.641 381.584 Q214.882 380.75 213.077 380.311 Q211.294 379.871 209.535 379.871 Q204.905 379.871 202.452 382.996 Q200.021 386.121 199.674 392.44 Q201.04 390.426 203.1 389.361 Q205.16 388.274 207.637 388.274 Q212.845 388.274 215.854 391.445 Q218.887 394.593 218.887 400.033 Q218.887 405.357 215.739 408.574 Q212.591 411.792 207.359 411.792 Q201.364 411.792 198.192 407.209 Q195.021 402.602 195.021 393.875 Q195.021 385.681 198.91 380.82 Q202.799 375.936 209.35 375.936 Q211.109 375.936 212.891 376.283 Q214.697 376.63 216.641 377.324 Z" fill="#000000" fill-rule="nonzero" fill-opacity="1" /><path clip-path="url(#clip020)" d="M161.804 219.963 Q158.193 219.963 156.364 223.528 Q154.558 227.07 154.558 234.199 Q154.558 241.306 156.364 244.871 Q158.193 248.412 161.804 248.412 Q165.438 248.412 167.244 244.871 Q169.072 241.306 169.072 234.199 Q169.072 227.07 167.244 223.528 Q165.438 219.963 161.804 219.963 M161.804 216.26 Q167.614 216.26 170.669 220.866 Q173.748 225.449 173.748 234.199 Q173.748 242.926 170.669 247.533 Q167.614 252.116 161.804 252.116 Q155.994 252.116 152.915 247.533 Q149.859 242.926 149.859 234.199 Q149.859 225.449 152.915 220.866 Q155.994 216.26 161.804 216.26 Z" fill="#000000" fill-rule="nonzero" fill-opacity="1" /><path clip-path="url(#clip020)" d="M181.966 245.565 L186.85 245.565 L186.85 251.445 L181.966 251.445 L181.966 245.565 Z" fill="#000000" fill-rule="nonzero" fill-opacity="1" /><path clip-path="url(#clip020)" d="M207.035 235.033 Q203.702 235.033 201.78 236.815 Q199.882 238.597 199.882 241.722 Q199.882 244.847 201.78 246.63 Q203.702 248.412 207.035 248.412 Q210.368 248.412 212.29 246.63 Q214.211 244.824 214.211 241.722 Q214.211 238.597 212.29 236.815 Q210.391 235.033 207.035 235.033 M202.359 233.042 Q199.35 232.301 197.66 230.241 Q195.993 228.181 195.993 225.218 Q195.993 221.074 198.933 218.667 Q201.896 216.26 207.035 216.26 Q212.197 216.26 215.137 218.667 Q218.077 221.074 218.077 225.218 Q218.077 228.181 216.387 230.241 Q214.72 232.301 211.734 233.042 Q215.114 233.829 216.989 236.121 Q218.887 238.412 218.887 241.722 Q218.887 246.746 215.808 249.431 Q212.753 252.116 207.035 252.116 Q201.317 252.116 198.239 249.431 Q195.183 246.746 195.183 241.722 Q195.183 238.412 197.081 236.121 Q198.98 233.829 202.359 233.042 M200.646 225.658 Q200.646 228.343 202.313 229.848 Q204.003 231.352 207.035 231.352 Q210.044 231.352 211.734 229.848 Q213.447 228.343 213.447 225.658 Q213.447 222.973 211.734 221.468 Q210.044 219.963 207.035 219.963 Q204.003 219.963 202.313 221.468 Q200.646 222.973 200.646 225.658 Z" fill="#000000" fill-rule="nonzero" fill-opacity="1" /><path clip-path="url(#clip020)" d="M152.521 87.8335 L160.16 87.8335 L160.16 61.4679 L151.85 63.1345 L151.85 58.8753 L160.114 57.2087 L164.79 57.2087 L164.79 87.8335 L172.429 87.8335 L172.429 91.7687 L152.521 91.7687 L152.521 87.8335 Z" fill="#000000" fill-rule="nonzero" fill-opacity="1" /><path clip-path="url(#clip020)" d="M181.873 85.8891 L186.757 85.8891 L186.757 91.7687 L181.873 91.7687 L181.873 85.8891 Z" fill="#000000" fill-rule="nonzero" fill-opacity="1" /><path clip-path="url(#clip020)" d="M206.942 60.2873 Q203.331 60.2873 201.503 63.8521 Q199.697 67.3938 199.697 74.5234 Q199.697 81.6298 201.503 85.1946 Q203.331 88.7363 206.942 88.7363 Q210.577 88.7363 212.382 85.1946 Q214.211 81.6298 214.211 74.5234 Q214.211 67.3938 212.382 63.8521 Q210.577 60.2873 206.942 60.2873 M206.942 56.5837 Q212.753 56.5837 215.808 61.1901 Q218.887 65.7734 218.887 74.5234 Q218.887 83.2502 215.808 87.8566 Q212.753 92.4399 206.942 92.4399 Q201.132 92.4399 198.054 87.8566 Q194.998 83.2502 194.998 74.5234 Q194.998 65.7734 198.054 61.1901 Q201.132 56.5837 206.942 56.5837 Z" fill="#000000" fill-rule="nonzero" fill-opacity="1" /><path clip-path="url(#clip020)" d="M25.3677 961.299 L43.2235 961.299 L43.2235 953.214 Q43.2235 948.727 40.9 946.276 Q38.5765 943.825 34.2797 943.825 Q30.0147 943.825 27.6912 946.276 Q25.3677 948.727 25.3677 953.214 L25.3677 961.299 M20.0842 967.728 L20.0842 953.214 Q20.0842 945.225 23.7126 941.151 Q27.3092 937.045 34.2797 937.045 Q41.3138 937.045 44.9104 941.151 Q48.507 945.225 48.507 953.214 L48.507 961.299 L67.6042 961.299 L67.6042 967.728 L20.0842 967.728 Z" fill="#000000" fill-rule="nonzero" fill-opacity="1" /><path clip-path="url(#clip020)" d="M49.6847 915.402 Q49.6847 922.5 51.3079 925.237 Q52.9312 927.974 56.8461 927.974 Q59.9653 927.974 61.8114 925.937 Q63.6256 923.868 63.6256 920.336 Q63.6256 915.466 60.1881 912.538 Q56.7188 909.577 50.9897 909.577 L49.6847 909.577 L49.6847 915.402 M47.2657 903.721 L67.6042 903.721 L67.6042 909.577 L62.1933 909.577 Q65.4398 911.583 66.9994 914.575 Q68.5272 917.566 68.5272 921.895 Q68.5272 927.37 65.4716 930.616 Q62.3843 933.831 57.2281 933.831 Q51.2125 933.831 48.1569 929.82 Q45.1014 925.778 45.1014 917.789 L45.1014 909.577 L44.5285 909.577 Q40.4862 909.577 38.2901 912.251 Q36.0621 914.893 36.0621 919.699 Q36.0621 922.754 36.7941 925.651 Q37.5262 928.547 38.9903 931.221 L33.5795 931.221 Q32.3381 928.006 31.7334 924.982 Q31.0968 921.959 31.0968 919.094 Q31.0968 911.36 35.1072 907.54 Q39.1176 903.721 47.2657 903.721 Z" fill="#000000" fill-rule="nonzero" fill-opacity="1" /><path clip-path="url(#clip020)" d="M37.4307 871.001 Q36.8578 871.988 36.6032 873.166 Q36.3167 874.311 36.3167 875.712 Q36.3167 880.677 39.5632 883.351 Q42.7779 885.993 48.8253 885.993 L67.6042 885.993 L67.6042 891.881 L31.9562 891.881 L31.9562 885.993 L37.4944 885.993 Q34.2479 884.146 32.6883 881.186 Q31.0968 878.226 31.0968 873.993 Q31.0968 873.388 31.1923 872.656 Q31.256 871.924 31.4151 871.033 L37.4307 871.001 Z" fill="#000000" fill-rule="nonzero" fill-opacity="1" /><path clip-path="url(#clip020)" d="M21.8347 859.066 L31.9562 859.066 L31.9562 847.003 L36.5077 847.003 L36.5077 859.066 L55.8594 859.066 Q60.2199 859.066 61.4613 857.888 Q62.7026 856.678 62.7026 853.018 L62.7026 847.003 L67.6042 847.003 L67.6042 853.018 Q67.6042 859.798 65.0897 862.376 Q62.5434 864.954 55.8594 864.954 L36.5077 864.954 L36.5077 869.251 L31.9562 869.251 L31.9562 864.954 L21.8347 864.954 L21.8347 859.066 Z" fill="#000000" fill-rule="nonzero" fill-opacity="1" /><path clip-path="url(#clip020)" d="M31.9562 839.3 L31.9562 833.444 L67.6042 833.444 L67.6042 839.3 L31.9562 839.3 M18.079 839.3 L18.079 833.444 L25.495 833.444 L25.495 839.3 L18.079 839.3 Z" fill="#000000" fill-rule="nonzero" fill-opacity="1" /><path clip-path="url(#clip020)" d="M49.6847 804.989 Q49.6847 812.087 51.3079 814.824 Q52.9312 817.561 56.8461 817.561 Q59.9653 817.561 61.8114 815.524 Q63.6256 813.455 63.6256 809.922 Q63.6256 805.053 60.1881 802.124 Q56.7188 799.164 50.9897 799.164 L49.6847 799.164 L49.6847 804.989 M47.2657 793.308 L67.6042 793.308 L67.6042 799.164 L62.1933 799.164 Q65.4398 801.169 66.9994 804.161 Q68.5272 807.153 68.5272 811.482 Q68.5272 816.956 65.4716 820.203 Q62.3843 823.418 57.2281 823.418 Q51.2125 823.418 48.1569 819.407 Q45.1014 815.365 45.1014 807.376 L45.1014 799.164 L44.5285 799.164 Q40.4862 799.164 38.2901 801.838 Q36.0621 804.48 36.0621 809.286 Q36.0621 812.341 36.7941 815.238 Q37.5262 818.134 38.9903 820.808 L33.5795 820.808 Q32.3381 817.593 31.7334 814.569 Q31.0968 811.546 31.0968 808.681 Q31.0968 800.947 35.1072 797.127 Q39.1176 793.308 47.2657 793.308 Z" fill="#000000" fill-rule="nonzero" fill-opacity="1" /><path clip-path="url(#clip020)" d="M18.079 781.245 L18.079 775.388 L67.6042 775.388 L67.6042 781.245 L18.079 781.245 Z" fill="#000000" fill-rule="nonzero" fill-opacity="1" /><path clip-path="url(#clip020)" d="M26.418 726.277 L50.0666 734.998 L50.0666 717.524 L26.418 726.277 M20.0842 729.905 L20.0842 722.617 L67.6042 704.506 L67.6042 711.19 L55.4138 715.519 L55.4138 736.939 L67.6042 741.268 L67.6042 748.048 L20.0842 729.905 Z" fill="#000000" fill-rule="nonzero" fill-opacity="1" /><path clip-path="url(#clip020)" d="M53.5359 698.427 L31.9562 698.427 L31.9562 692.571 L53.3131 692.571 Q58.3739 692.571 60.9202 690.597 Q63.4346 688.624 63.4346 684.677 Q63.4346 679.935 60.4109 677.197 Q57.3872 674.428 52.1673 674.428 L31.9562 674.428 L31.9562 668.572 L67.6042 668.572 L67.6042 674.428 L62.1296 674.428 Q65.3762 676.561 66.9676 679.394 Q68.5272 682.194 68.5272 685.918 Q68.5272 692.061 64.7078 695.244 Q60.8883 698.427 53.5359 698.427 M31.0968 683.69 L31.0968 683.69 Z" fill="#000000" fill-rule="nonzero" fill-opacity="1" /><path clip-path="url(#clip020)" d="M21.8347 650.716 L31.9562 650.716 L31.9562 638.653 L36.5077 638.653 L36.5077 650.716 L55.8594 650.716 Q60.2199 650.716 61.4613 649.538 Q62.7026 648.329 62.7026 644.669 L62.7026 638.653 L67.6042 638.653 L67.6042 644.669 Q67.6042 651.448 65.0897 654.026 Q62.5434 656.604 55.8594 656.604 L36.5077 656.604 L36.5077 660.901 L31.9562 660.901 L31.9562 656.604 L21.8347 656.604 L21.8347 650.716 Z" fill="#000000" fill-rule="nonzero" fill-opacity="1" /><path clip-path="url(#clip020)" d="M36.0621 617.137 Q36.0621 621.848 39.7542 624.585 Q43.4145 627.322 49.812 627.322 Q56.2095 627.322 59.9017 624.617 Q63.5619 621.879 63.5619 617.137 Q63.5619 612.458 59.8698 609.721 Q56.1777 606.984 49.812 606.984 Q43.4781 606.984 39.786 609.721 Q36.0621 612.458 36.0621 617.137 M31.0968 617.137 Q31.0968 609.498 36.0621 605.138 Q41.0273 600.777 49.812 600.777 Q58.5649 600.777 63.5619 605.138 Q68.5272 609.498 68.5272 617.137 Q68.5272 624.808 63.5619 629.168 Q58.5649 633.497 49.812 633.497 Q41.0273 633.497 36.0621 629.168 Q31.0968 624.808 31.0968 617.137 Z" fill="#000000" fill-rule="nonzero" fill-opacity="1" /><path clip-path="url(#clip020)" d="M33.3248 565.416 L38.7993 565.416 Q37.4307 567.898 36.7623 570.413 Q36.0621 572.895 36.0621 575.442 Q36.0621 581.139 39.6905 584.29 Q43.2872 587.441 49.812 587.441 Q56.3369 587.441 59.9653 584.29 Q63.5619 581.139 63.5619 575.442 Q63.5619 572.895 62.8935 570.413 Q62.1933 567.898 60.8247 565.416 L66.2355 565.416 Q67.3814 567.866 67.9543 570.508 Q68.5272 573.118 68.5272 576.078 Q68.5272 584.131 63.4664 588.873 Q58.4057 593.616 49.812 593.616 Q41.091 593.616 36.0939 588.841 Q31.0968 584.035 31.0968 575.696 Q31.0968 572.991 31.6697 570.413 Q32.2108 567.835 33.3248 565.416 Z" fill="#000000" fill-rule="nonzero" fill-opacity="1" /><path clip-path="url(#clip020)" d="M36.0621 541.417 Q36.0621 546.127 39.7542 548.865 Q43.4145 551.602 49.812 551.602 Q56.2095 551.602 59.9017 548.897 Q63.5619 546.159 63.5619 541.417 Q63.5619 536.738 59.8698 534.001 Q56.1777 531.264 49.812 531.264 Q43.4781 531.264 39.786 534.001 Q36.0621 536.738 36.0621 541.417 M31.0968 541.417 Q31.0968 533.778 36.0621 529.417 Q41.0273 525.057 49.812 525.057 Q58.5649 525.057 63.5619 529.417 Q68.5272 533.778 68.5272 541.417 Q68.5272 549.087 63.5619 553.448 Q58.5649 557.777 49.812 557.777 Q41.0273 557.777 36.0621 553.448 Q31.0968 549.087 31.0968 541.417 Z" fill="#000000" fill-rule="nonzero" fill-opacity="1" /><path clip-path="url(#clip020)" d="M37.4307 494.693 Q36.8578 495.679 36.6032 496.857 Q36.3167 498.003 36.3167 499.403 Q36.3167 504.368 39.5632 507.042 Q42.7779 509.684 48.8253 509.684 L67.6042 509.684 L67.6042 515.572 L31.9562 515.572 L31.9562 509.684 L37.4944 509.684 Q34.2479 507.838 32.6883 504.878 Q31.0968 501.918 31.0968 497.684 Q31.0968 497.08 31.1923 496.348 Q31.256 495.616 31.4151 494.724 L37.4307 494.693 Z" fill="#000000" fill-rule="nonzero" fill-opacity="1" /><path clip-path="url(#clip020)" d="M37.4307 469.039 Q36.8578 470.025 36.6032 471.203 Q36.3167 472.349 36.3167 473.749 Q36.3167 478.715 39.5632 481.388 Q42.7779 484.03 48.8253 484.03 L67.6042 484.03 L67.6042 489.918 L31.9562 489.918 L31.9562 484.03 L37.4944 484.03 Q34.2479 482.184 32.6883 479.224 Q31.0968 476.264 31.0968 472.031 Q31.0968 471.426 31.1923 470.694 Q31.256 469.962 31.4151 469.071 L37.4307 469.039 Z" fill="#000000" fill-rule="nonzero" fill-opacity="1" /><path clip-path="url(#clip020)" d="M48.3161 433.836 L51.1806 433.836 L51.1806 460.763 Q57.2281 460.381 60.4109 457.135 Q63.5619 453.857 63.5619 448.032 Q63.5619 444.658 62.7344 441.507 Q61.9069 438.324 60.2518 435.205 L65.7899 435.205 Q67.1267 438.356 67.827 441.666 Q68.5272 444.976 68.5272 448.382 Q68.5272 456.912 63.5619 461.909 Q58.5967 466.874 50.1303 466.874 Q41.3774 466.874 36.2531 462.164 Q31.0968 457.421 31.0968 449.401 Q31.0968 442.207 35.7438 438.038 Q40.3589 433.836 48.3161 433.836 M46.5973 439.693 Q41.7912 439.756 38.9266 442.398 Q36.0621 445.008 36.0621 449.337 Q36.0621 454.238 38.8312 457.199 Q41.6002 460.127 46.6292 460.572 L46.5973 439.693 Z" fill="#000000" fill-rule="nonzero" fill-opacity="1" /><path clip-path="url(#clip020)" d="M18.079 424.224 L18.079 418.368 L67.6042 418.368 L67.6042 424.224 L18.079 424.224 Z" fill="#000000" fill-rule="nonzero" fill-opacity="1" /><path clip-path="url(#clip020)" d="M49.6847 389.913 Q49.6847 397.011 51.3079 399.748 Q52.9312 402.485 56.8461 402.485 Q59.9653 402.485 61.8114 400.448 Q63.6256 398.379 63.6256 394.846 Q63.6256 389.977 60.1881 387.048 Q56.7188 384.088 50.9897 384.088 L49.6847 384.088 L49.6847 389.913 M47.2657 378.232 L67.6042 378.232 L67.6042 384.088 L62.1933 384.088 Q65.4398 386.094 66.9994 389.085 Q68.5272 392.077 68.5272 396.406 Q68.5272 401.881 65.4716 405.127 Q62.3843 408.342 57.2281 408.342 Q51.2125 408.342 48.1569 404.331 Q45.1014 400.289 45.1014 392.3 L45.1014 384.088 L44.5285 384.088 Q40.4862 384.088 38.2901 386.762 Q36.0621 389.404 36.0621 394.21 Q36.0621 397.265 36.7941 400.162 Q37.5262 403.058 38.9903 405.732 L33.5795 405.732 Q32.3381 402.517 31.7334 399.493 Q31.0968 396.47 31.0968 393.605 Q31.0968 385.871 35.1072 382.051 Q39.1176 378.232 47.2657 378.232 Z" fill="#000000" fill-rule="nonzero" fill-opacity="1" /><path clip-path="url(#clip020)" d="M21.8347 360.376 L31.9562 360.376 L31.9562 348.313 L36.5077 348.313 L36.5077 360.376 L55.8594 360.376 Q60.2199 360.376 61.4613 359.198 Q62.7026 357.989 62.7026 354.329 L62.7026 348.313 L67.6042 348.313 L67.6042 354.329 Q67.6042 361.108 65.0897 363.686 Q62.5434 366.264 55.8594 366.264 L36.5077 366.264 L36.5077 370.561 L31.9562 370.561 L31.9562 366.264 L21.8347 366.264 L21.8347 360.376 Z" fill="#000000" fill-rule="nonzero" fill-opacity="1" /><path clip-path="url(#clip020)" d="M31.9562 340.611 L31.9562 334.754 L67.6042 334.754 L67.6042 340.611 L31.9562 340.611 M18.079 340.611 L18.079 334.754 L25.495 334.754 L25.495 340.611 L18.079 340.611 Z" fill="#000000" fill-rule="nonzero" fill-opacity="1" /><path clip-path="url(#clip020)" d="M36.0621 308.687 Q36.0621 313.397 39.7542 316.134 Q43.4145 318.872 49.812 318.872 Q56.2095 318.872 59.9017 316.166 Q63.5619 313.429 63.5619 308.687 Q63.5619 304.008 59.8698 301.271 Q56.1777 298.533 49.812 298.533 Q43.4781 298.533 39.786 301.271 Q36.0621 304.008 36.0621 308.687 M31.0968 308.687 Q31.0968 301.048 36.0621 296.687 Q41.0273 292.327 49.812 292.327 Q58.5649 292.327 63.5619 296.687 Q68.5272 301.048 68.5272 308.687 Q68.5272 316.357 63.5619 320.718 Q58.5649 325.046 49.812 325.046 Q41.0273 325.046 36.0621 320.718 Q31.0968 316.357 31.0968 308.687 Z" fill="#000000" fill-rule="nonzero" fill-opacity="1" /><path clip-path="url(#clip020)" d="M46.0881 252.987 L67.6042 252.987 L67.6042 258.843 L46.279 258.843 Q41.2183 258.843 38.7038 260.816 Q36.1894 262.79 36.1894 266.737 Q36.1894 271.479 39.2131 274.216 Q42.2368 276.954 47.4567 276.954 L67.6042 276.954 L67.6042 282.842 L31.9562 282.842 L31.9562 276.954 L37.4944 276.954 Q34.2797 274.853 32.6883 272.02 Q31.0968 269.156 31.0968 265.432 Q31.0968 259.289 34.9163 256.138 Q38.7038 252.987 46.0881 252.987 Z" fill="#000000" fill-rule="nonzero" fill-opacity="1" /><circle clip-path="url(#clip021)" cx="301.912" cy="79.1184" r="18" fill="#009af9" fill-rule="evenodd" fill-opacity="1" stroke="#000000" stroke-opacity="1" stroke-width="2.688"/>
<circle clip-path="url(#clip021)" cx="729.787" cy="1141.6" r="18" fill="#009af9" fill-rule="evenodd" fill-opacity="1" stroke="#000000" stroke-opacity="1" stroke-width="2.688"/>
<circle clip-path="url(#clip021)" cx="1157.66" cy="891.035" r="18" fill="#009af9" fill-rule="evenodd" fill-opacity="1" stroke="#000000" stroke-opacity="1" stroke-width="2.688"/>
<circle clip-path="url(#clip021)" cx="1585.54" cy="781.673" r="18" fill="#009af9" fill-rule="evenodd" fill-opacity="1" stroke="#000000" stroke-opacity="1" stroke-width="2.688"/>
<circle clip-path="url(#clip021)" cx="2013.41" cy="880.427" r="18" fill="#009af9" fill-rule="evenodd" fill-opacity="1" stroke="#000000" stroke-opacity="1" stroke-width="2.688"/>
<polyline clip-path="url(#clip021)" style="stroke:#009af9; stroke-linecap:round; stroke-linejoin:round; stroke-width:12; stroke-opacity:1; fill:none" points="301.912,872.869 301.912,79.1184 "/>
<polyline clip-path="url(#clip021)" style="stroke:#009af9; stroke-linecap:round; stroke-linejoin:round; stroke-width:12; stroke-opacity:1; fill:none" points="729.787,872.869 729.787,1141.6 "/>
<polyline clip-path="url(#clip021)" style="stroke:#009af9; stroke-linecap:round; stroke-linejoin:round; stroke-width:12; stroke-opacity:1; fill:none" points="1157.66,872.869 1157.66,891.035 "/>
<polyline clip-path="url(#clip021)" style="stroke:#009af9; stroke-linecap:round; stroke-linejoin:round; stroke-width:12; stroke-opacity:1; fill:none" points="1585.54,872.869 1585.54,781.673 "/>
<polyline clip-path="url(#clip021)" style="stroke:#009af9; stroke-linecap:round; stroke-linejoin:round; stroke-width:12; stroke-opacity:1; fill:none" points="2013.41,872.869 2013.41,880.427 "/>
</svg>
