<?xml version="1.0" encoding="utf-8"?>
<svg xmlns="http://www.w3.org/2000/svg" xmlns:xlink="http://www.w3.org/1999/xlink" width="528" height="336" viewBox="0 0 2112 1344">
<defs>
  <clipPath id="clip290">
    <rect x="0" y="0" width="2112" height="1344"/>
  </clipPath>
</defs>
<path clip-path="url(#clip290)" d="M0 1344 L2112 1344 L2112 2.13163e-14 L0 2.13163e-14  Z" fill="#ffffff" fill-rule="evenodd" fill-opacity="1"/>
<defs>
  <clipPath id="clip291">
    <rect x="244" y="47" width="1821" height="1127"/>
  </clipPath>
</defs>
<path clip-path="url(#clip290)" d="M244.502 1173.47 L2064.76 1173.47 L2064.76 47.2441 L244.502 47.2441  Z" fill="#ffffff" fill-rule="evenodd" fill-opacity="1"/>
<polyline clip-path="url(#clip291)" style="stroke:#000000; stroke-linecap:round; stroke-linejoin:round; stroke-width:2; stroke-opacity:0.1; fill:none" points="329.452,1173.47 329.452,47.2441 "/>
<polyline clip-path="url(#clip291)" style="stroke:#000000; stroke-linecap:round; stroke-linejoin:round; stroke-width:2; stroke-opacity:0.1; fill:none" points="700.931,1173.47 700.931,47.2441 "/>
<polyline clip-path="url(#clip291)" style="stroke:#000000; stroke-linecap:round; stroke-linejoin:round; stroke-width:2; stroke-opacity:0.1; fill:none" points="1072.41,1173.47 1072.41,47.2441 "/>
<polyline clip-path="url(#clip291)" style="stroke:#000000; stroke-linecap:round; stroke-linejoin:round; stroke-width:2; stroke-opacity:0.1; fill:none" points="1443.89,1173.47 1443.89,47.2441 "/>
<polyline clip-path="url(#clip291)" style="stroke:#000000; stroke-linecap:round; stroke-linejoin:round; stroke-width:2; stroke-opacity:0.1; fill:none" points="1815.37,1173.47 1815.37,47.2441 "/>
<polyline clip-path="url(#clip291)" style="stroke:#000000; stroke-linecap:round; stroke-linejoin:round; stroke-width:2; stroke-opacity:0.1; fill:none" points="244.502,1173.47 2064.76,1173.47 "/>
<polyline clip-path="url(#clip291)" style="stroke:#000000; stroke-linecap:round; stroke-linejoin:round; stroke-width:2; stroke-opacity:0.1; fill:none" points="244.502,933.854 2064.76,933.854 "/>
<polyline clip-path="url(#clip291)" style="stroke:#000000; stroke-linecap:round; stroke-linejoin:round; stroke-width:2; stroke-opacity:0.1; fill:none" points="244.502,694.238 2064.76,694.238 "/>
<polyline clip-path="url(#clip291)" style="stroke:#000000; stroke-linecap:round; stroke-linejoin:round; stroke-width:2; stroke-opacity:0.1; fill:none" points="244.502,454.622 2064.76,454.622 "/>
<polyline clip-path="url(#clip291)" style="stroke:#000000; stroke-linecap:round; stroke-linejoin:round; stroke-width:2; stroke-opacity:0.1; fill:none" points="244.502,215.006 2064.76,215.006 "/>
<polyline clip-path="url(#clip290)" style="stroke:#000000; stroke-linecap:round; stroke-linejoin:round; stroke-width:4; stroke-opacity:1; fill:none" points="244.502,1173.47 2064.76,1173.47 "/>
<polyline clip-path="url(#clip290)" style="stroke:#000000; stroke-linecap:round; stroke-linejoin:round; stroke-width:4; stroke-opacity:1; fill:none" points="329.452,1173.47 329.452,1154.57 "/>
<polyline clip-path="url(#clip290)" style="stroke:#000000; stroke-linecap:round; stroke-linejoin:round; stroke-width:4; stroke-opacity:1; fill:none" points="700.931,1173.47 700.931,1154.57 "/>
<polyline clip-path="url(#clip290)" style="stroke:#000000; stroke-linecap:round; stroke-linejoin:round; stroke-width:4; stroke-opacity:1; fill:none" points="1072.41,1173.47 1072.41,1154.57 "/>
<polyline clip-path="url(#clip290)" style="stroke:#000000; stroke-linecap:round; stroke-linejoin:round; stroke-width:4; stroke-opacity:1; fill:none" points="1443.89,1173.47 1443.89,1154.57 "/>
<polyline clip-path="url(#clip290)" style="stroke:#000000; stroke-linecap:round; stroke-linejoin:round; stroke-width:4; stroke-opacity:1; fill:none" points="1815.37,1173.47 1815.37,1154.57 "/>
<path clip-path="url(#clip290)" d="M308.271 1229.63 L324.591 1229.63 L324.591 1233.57 L302.646 1233.57 L302.646 1229.63 Q305.308 1226.88 309.892 1222.25 Q314.498 1217.59 315.679 1216.25 Q317.924 1213.73 318.804 1211.99 Q319.706 1210.23 319.706 1208.54 Q319.706 1205.79 317.762 1204.05 Q315.841 1202.32 312.739 1202.32 Q310.54 1202.32 308.086 1203.08 Q305.656 1203.84 302.878 1205.4 L302.878 1200.67 Q305.702 1199.54 308.156 1198.96 Q310.609 1198.38 312.646 1198.38 Q318.017 1198.38 321.211 1201.07 Q324.406 1203.75 324.406 1208.24 Q324.406 1210.37 323.595 1212.29 Q322.808 1214.19 320.702 1216.78 Q320.123 1217.46 317.021 1220.67 Q313.919 1223.87 308.271 1229.63 Z" fill="#000000" fill-rule="nonzero" fill-opacity="1" /><path clip-path="url(#clip290)" d="M344.405 1217.15 Q341.072 1217.15 339.151 1218.94 Q337.253 1220.72 337.253 1223.84 Q337.253 1226.97 339.151 1228.75 Q341.072 1230.53 344.405 1230.53 Q347.739 1230.53 349.66 1228.75 Q351.581 1226.95 351.581 1223.84 Q351.581 1220.72 349.66 1218.94 Q347.762 1217.15 344.405 1217.15 M339.73 1215.16 Q336.72 1214.42 335.03 1212.36 Q333.364 1210.3 333.364 1207.34 Q333.364 1203.2 336.304 1200.79 Q339.267 1198.38 344.405 1198.38 Q349.567 1198.38 352.507 1200.79 Q355.447 1203.2 355.447 1207.34 Q355.447 1210.3 353.757 1212.36 Q352.091 1214.42 349.104 1215.16 Q352.484 1215.95 354.359 1218.24 Q356.257 1220.53 356.257 1223.84 Q356.257 1228.87 353.179 1231.55 Q350.123 1234.24 344.405 1234.24 Q338.688 1234.24 335.609 1231.55 Q332.554 1228.87 332.554 1223.84 Q332.554 1220.53 334.452 1218.24 Q336.35 1215.95 339.73 1215.16 M338.017 1207.78 Q338.017 1210.47 339.683 1211.97 Q341.373 1213.47 344.405 1213.47 Q347.415 1213.47 349.104 1211.97 Q350.817 1210.47 350.817 1207.78 Q350.817 1205.09 349.104 1203.59 Q347.415 1202.09 344.405 1202.09 Q341.373 1202.09 339.683 1203.59 Q338.017 1205.09 338.017 1207.78 Z" fill="#000000" fill-rule="nonzero" fill-opacity="1" /><path clip-path="url(#clip290)" d="M679.797 1229.63 L696.117 1229.63 L696.117 1233.57 L674.172 1233.57 L674.172 1229.63 Q676.834 1226.88 681.418 1222.25 Q686.024 1217.59 687.205 1216.25 Q689.45 1213.73 690.33 1211.99 Q691.232 1210.23 691.232 1208.54 Q691.232 1205.79 689.288 1204.05 Q687.367 1202.32 684.265 1202.32 Q682.066 1202.32 679.612 1203.08 Q677.181 1203.84 674.404 1205.4 L674.404 1200.67 Q677.228 1199.54 679.681 1198.96 Q682.135 1198.38 684.172 1198.38 Q689.543 1198.38 692.737 1201.07 Q695.931 1203.75 695.931 1208.24 Q695.931 1210.37 695.121 1212.29 Q694.334 1214.19 692.228 1216.78 Q691.649 1217.46 688.547 1220.67 Q685.445 1223.87 679.797 1229.63 Z" fill="#000000" fill-rule="nonzero" fill-opacity="1" /><path clip-path="url(#clip290)" d="M706.07 1232.85 L706.07 1228.59 Q707.829 1229.42 709.635 1229.86 Q711.441 1230.3 713.177 1230.3 Q717.806 1230.3 720.237 1227.2 Q722.69 1224.08 723.038 1217.73 Q721.695 1219.72 719.635 1220.79 Q717.575 1221.85 715.075 1221.85 Q709.89 1221.85 706.857 1218.73 Q703.848 1215.58 703.848 1210.14 Q703.848 1204.82 706.996 1201.6 Q710.144 1198.38 715.376 1198.38 Q721.371 1198.38 724.519 1202.99 Q727.69 1207.57 727.69 1216.32 Q727.69 1224.49 723.802 1229.38 Q719.936 1234.24 713.385 1234.24 Q711.626 1234.24 709.82 1233.89 Q708.015 1233.54 706.07 1232.85 M715.376 1218.2 Q718.524 1218.2 720.353 1216.04 Q722.204 1213.89 722.204 1210.14 Q722.204 1206.41 720.353 1204.26 Q718.524 1202.09 715.376 1202.09 Q712.228 1202.09 710.376 1204.26 Q708.547 1206.41 708.547 1210.14 Q708.547 1213.89 710.376 1216.04 Q712.228 1218.2 715.376 1218.2 Z" fill="#000000" fill-rule="nonzero" fill-opacity="1" /><path clip-path="url(#clip290)" d="M1061.25 1214.93 Q1064.61 1215.65 1066.48 1217.92 Q1068.38 1220.19 1068.38 1223.52 Q1068.38 1228.64 1064.86 1231.44 Q1061.35 1234.24 1054.86 1234.24 Q1052.69 1234.24 1050.37 1233.8 Q1048.08 1233.38 1045.63 1232.53 L1045.63 1228.01 Q1047.57 1229.15 1049.89 1229.72 Q1052.2 1230.3 1054.73 1230.3 Q1059.12 1230.3 1061.42 1228.57 Q1063.73 1226.83 1063.73 1223.52 Q1063.73 1220.46 1061.58 1218.75 Q1059.45 1217.02 1055.63 1217.02 L1051.6 1217.02 L1051.6 1213.17 L1055.81 1213.17 Q1059.26 1213.17 1061.09 1211.81 Q1062.92 1210.42 1062.92 1207.83 Q1062.92 1205.16 1061.02 1203.75 Q1059.15 1202.32 1055.63 1202.32 Q1053.71 1202.32 1051.51 1202.73 Q1049.31 1203.15 1046.67 1204.03 L1046.67 1199.86 Q1049.33 1199.12 1051.65 1198.75 Q1053.99 1198.38 1056.05 1198.38 Q1061.37 1198.38 1064.47 1200.81 Q1067.57 1203.22 1067.57 1207.34 Q1067.57 1210.21 1065.93 1212.2 Q1064.29 1214.17 1061.25 1214.93 Z" fill="#000000" fill-rule="nonzero" fill-opacity="1" /><path clip-path="url(#clip290)" d="M1087.25 1202.09 Q1083.64 1202.09 1081.81 1205.65 Q1080 1209.19 1080 1216.32 Q1080 1223.43 1081.81 1226.99 Q1083.64 1230.53 1087.25 1230.53 Q1090.88 1230.53 1092.69 1226.99 Q1094.52 1223.43 1094.52 1216.32 Q1094.52 1209.19 1092.69 1205.65 Q1090.88 1202.09 1087.25 1202.09 M1087.25 1198.38 Q1093.06 1198.38 1096.11 1202.99 Q1099.19 1207.57 1099.19 1216.32 Q1099.19 1225.05 1096.11 1229.65 Q1093.06 1234.24 1087.25 1234.24 Q1081.44 1234.24 1078.36 1229.65 Q1075.3 1225.05 1075.3 1216.32 Q1075.3 1207.57 1078.36 1202.99 Q1081.44 1198.38 1087.25 1198.38 Z" fill="#000000" fill-rule="nonzero" fill-opacity="1" /><path clip-path="url(#clip290)" d="M1433.35 1214.93 Q1436.7 1215.65 1438.58 1217.92 Q1440.48 1220.19 1440.48 1223.52 Q1440.48 1228.64 1436.96 1231.44 Q1433.44 1234.24 1426.96 1234.24 Q1424.78 1234.24 1422.47 1233.8 Q1420.18 1233.38 1417.72 1232.53 L1417.72 1228.01 Q1419.67 1229.15 1421.98 1229.72 Q1424.3 1230.3 1426.82 1230.3 Q1431.22 1230.3 1433.51 1228.57 Q1435.82 1226.83 1435.82 1223.52 Q1435.82 1220.46 1433.67 1218.75 Q1431.54 1217.02 1427.72 1217.02 L1423.69 1217.02 L1423.69 1213.17 L1427.91 1213.17 Q1431.36 1213.17 1433.18 1211.81 Q1435.01 1210.42 1435.01 1207.83 Q1435.01 1205.16 1433.11 1203.75 Q1431.24 1202.32 1427.72 1202.32 Q1425.8 1202.32 1423.6 1202.73 Q1421.4 1203.15 1418.76 1204.03 L1418.76 1199.86 Q1421.43 1199.12 1423.74 1198.75 Q1426.08 1198.38 1428.14 1198.38 Q1433.46 1198.38 1436.56 1200.81 Q1439.67 1203.22 1439.67 1207.34 Q1439.67 1210.21 1438.02 1212.2 Q1436.38 1214.17 1433.35 1214.93 Z" fill="#000000" fill-rule="nonzero" fill-opacity="1" /><path clip-path="url(#clip290)" d="M1450.15 1229.63 L1457.79 1229.63 L1457.79 1203.27 L1449.48 1204.93 L1449.48 1200.67 L1457.74 1199.01 L1462.42 1199.01 L1462.42 1229.63 L1470.06 1229.63 L1470.06 1233.57 L1450.15 1233.57 L1450.15 1229.63 Z" fill="#000000" fill-rule="nonzero" fill-opacity="1" /><path clip-path="url(#clip290)" d="M1805.01 1214.93 Q1808.37 1215.65 1810.24 1217.92 Q1812.14 1220.19 1812.14 1223.52 Q1812.14 1228.64 1808.62 1231.44 Q1805.1 1234.24 1798.62 1234.24 Q1796.45 1234.24 1794.13 1233.8 Q1791.84 1233.38 1789.39 1232.53 L1789.39 1228.01 Q1791.33 1229.15 1793.65 1229.72 Q1795.96 1230.3 1798.48 1230.3 Q1802.88 1230.3 1805.17 1228.57 Q1807.49 1226.83 1807.49 1223.52 Q1807.49 1220.46 1805.34 1218.75 Q1803.21 1217.02 1799.39 1217.02 L1795.36 1217.02 L1795.36 1213.17 L1799.57 1213.17 Q1803.02 1213.17 1804.85 1211.81 Q1806.68 1210.42 1806.68 1207.83 Q1806.68 1205.16 1804.78 1203.75 Q1802.9 1202.32 1799.39 1202.32 Q1797.46 1202.32 1795.27 1202.73 Q1793.07 1203.15 1790.43 1204.03 L1790.43 1199.86 Q1793.09 1199.12 1795.4 1198.75 Q1797.74 1198.38 1799.8 1198.38 Q1805.13 1198.38 1808.23 1200.81 Q1811.33 1203.22 1811.33 1207.34 Q1811.33 1210.21 1809.69 1212.2 Q1808.04 1214.17 1805.01 1214.93 Z" fill="#000000" fill-rule="nonzero" fill-opacity="1" /><path clip-path="url(#clip290)" d="M1825.03 1229.63 L1841.35 1229.63 L1841.35 1233.57 L1819.41 1233.57 L1819.41 1229.63 Q1822.07 1226.88 1826.65 1222.25 Q1831.26 1217.59 1832.44 1216.25 Q1834.69 1213.73 1835.57 1211.99 Q1836.47 1210.23 1836.47 1208.54 Q1836.47 1205.79 1834.52 1204.05 Q1832.6 1202.32 1829.5 1202.32 Q1827.3 1202.32 1824.85 1203.08 Q1822.42 1203.84 1819.64 1205.4 L1819.64 1200.67 Q1822.46 1199.54 1824.92 1198.96 Q1827.37 1198.38 1829.41 1198.38 Q1834.78 1198.38 1837.97 1201.07 Q1841.17 1203.75 1841.17 1208.24 Q1841.17 1210.37 1840.36 1212.29 Q1839.57 1214.19 1837.46 1216.78 Q1836.89 1217.46 1833.78 1220.67 Q1830.68 1223.87 1825.03 1229.63 Z" fill="#000000" fill-rule="nonzero" fill-opacity="1" /><path clip-path="url(#clip290)" d="M616.074 1270.16 L616.074 1276.93 Q612.828 1273.91 609.136 1272.41 Q605.475 1270.92 601.338 1270.92 Q593.19 1270.92 588.861 1275.92 Q584.532 1280.88 584.532 1290.3 Q584.532 1299.69 588.861 1304.69 Q593.19 1309.65 601.338 1309.65 Q605.475 1309.65 609.136 1308.16 Q612.828 1306.66 616.074 1303.64 L616.074 1310.35 Q612.7 1312.65 608.913 1313.79 Q605.157 1314.94 600.956 1314.94 Q590.166 1314.94 583.959 1308.35 Q577.753 1301.73 577.753 1290.3 Q577.753 1278.84 583.959 1272.26 Q590.166 1265.64 600.956 1265.64 Q605.221 1265.64 608.977 1266.78 Q612.764 1267.9 616.074 1270.16 Z" fill="#000000" fill-rule="nonzero" fill-opacity="1" /><path clip-path="url(#clip290)" d="M639.564 1282.47 Q634.853 1282.47 632.116 1286.16 Q629.379 1289.83 629.379 1296.22 Q629.379 1302.62 632.084 1306.31 Q634.821 1309.97 639.564 1309.97 Q644.243 1309.97 646.98 1306.28 Q649.717 1302.59 649.717 1296.22 Q649.717 1289.89 646.98 1286.2 Q644.243 1282.47 639.564 1282.47 M639.564 1277.51 Q647.203 1277.51 651.563 1282.47 Q655.924 1287.44 655.924 1296.22 Q655.924 1304.98 651.563 1309.97 Q647.203 1314.94 639.564 1314.94 Q631.893 1314.94 627.533 1309.97 Q623.204 1304.98 623.204 1296.22 Q623.204 1287.44 627.533 1282.47 Q631.893 1277.51 639.564 1277.51 Z" fill="#000000" fill-rule="nonzero" fill-opacity="1" /><path clip-path="url(#clip290)" d="M695.264 1292.5 L695.264 1314.01 L689.407 1314.01 L689.407 1292.69 Q689.407 1287.63 687.434 1285.11 Q685.46 1282.6 681.514 1282.6 Q676.771 1282.6 674.034 1285.62 Q671.297 1288.65 671.297 1293.87 L671.297 1314.01 L665.409 1314.01 L665.409 1278.37 L671.297 1278.37 L671.297 1283.9 Q673.397 1280.69 676.23 1279.1 Q679.095 1277.51 682.819 1277.51 Q688.962 1277.51 692.113 1281.33 Q695.264 1285.11 695.264 1292.5 Z" fill="#000000" fill-rule="nonzero" fill-opacity="1" /><path clip-path="url(#clip290)" d="M730.402 1283.78 L730.402 1264.49 L736.259 1264.49 L736.259 1314.01 L730.402 1314.01 L730.402 1308.67 Q728.556 1311.85 725.724 1313.41 Q722.923 1314.94 718.976 1314.94 Q712.515 1314.94 708.441 1309.78 Q704.398 1304.63 704.398 1296.22 Q704.398 1287.82 708.441 1282.66 Q712.515 1277.51 718.976 1277.51 Q722.923 1277.51 725.724 1279.07 Q728.556 1280.59 730.402 1283.78 M710.446 1296.22 Q710.446 1302.68 713.088 1306.38 Q715.761 1310.04 720.408 1310.04 Q725.055 1310.04 727.729 1306.38 Q730.402 1302.68 730.402 1296.22 Q730.402 1289.76 727.729 1286.1 Q725.055 1282.41 720.408 1282.41 Q715.761 1282.41 713.088 1286.1 Q710.446 1289.76 710.446 1296.22 Z" fill="#000000" fill-rule="nonzero" fill-opacity="1" /><path clip-path="url(#clip290)" d="M748.322 1278.37 L754.178 1278.37 L754.178 1314.01 L748.322 1314.01 L748.322 1278.37 M748.322 1264.49 L754.178 1264.49 L754.178 1271.91 L748.322 1271.91 L748.322 1264.49 Z" fill="#000000" fill-rule="nonzero" fill-opacity="1" /><path clip-path="url(#clip290)" d="M772.225 1268.25 L772.225 1278.37 L784.288 1278.37 L784.288 1282.92 L772.225 1282.92 L772.225 1302.27 Q772.225 1306.63 773.403 1307.87 Q774.612 1309.11 778.272 1309.11 L784.288 1309.11 L784.288 1314.01 L778.272 1314.01 Q771.493 1314.01 768.915 1311.5 Q766.337 1308.95 766.337 1302.27 L766.337 1282.92 L762.04 1282.92 L762.04 1278.37 L766.337 1278.37 L766.337 1268.25 L772.225 1268.25 Z" fill="#000000" fill-rule="nonzero" fill-opacity="1" /><path clip-path="url(#clip290)" d="M791.991 1278.37 L797.847 1278.37 L797.847 1314.01 L791.991 1314.01 L791.991 1278.37 M791.991 1264.49 L797.847 1264.49 L797.847 1271.91 L791.991 1271.91 L791.991 1264.49 Z" fill="#000000" fill-rule="nonzero" fill-opacity="1" /><path clip-path="url(#clip290)" d="M823.915 1282.47 Q819.204 1282.47 816.467 1286.16 Q813.729 1289.83 813.729 1296.22 Q813.729 1302.62 816.435 1306.31 Q819.172 1309.97 823.915 1309.97 Q828.593 1309.97 831.331 1306.28 Q834.068 1302.59 834.068 1296.22 Q834.068 1289.89 831.331 1286.2 Q828.593 1282.47 823.915 1282.47 M823.915 1277.51 Q831.553 1277.51 835.914 1282.47 Q840.274 1287.44 840.274 1296.22 Q840.274 1304.98 835.914 1309.97 Q831.553 1314.94 823.915 1314.94 Q816.244 1314.94 811.883 1309.97 Q807.555 1304.98 807.555 1296.22 Q807.555 1287.44 811.883 1282.47 Q816.244 1277.51 823.915 1277.51 Z" fill="#000000" fill-rule="nonzero" fill-opacity="1" /><path clip-path="url(#clip290)" d="M879.615 1292.5 L879.615 1314.01 L873.758 1314.01 L873.758 1292.69 Q873.758 1287.63 871.785 1285.11 Q869.811 1282.6 865.865 1282.6 Q861.122 1282.6 858.385 1285.62 Q855.648 1288.65 855.648 1293.87 L855.648 1314.01 L849.759 1314.01 L849.759 1278.37 L855.648 1278.37 L855.648 1283.9 Q857.748 1280.69 860.581 1279.1 Q863.446 1277.51 867.17 1277.51 Q873.312 1277.51 876.464 1281.33 Q879.615 1285.11 879.615 1292.5 Z" fill="#000000" fill-rule="nonzero" fill-opacity="1" /><path clip-path="url(#clip290)" d="M907.496 1296.1 Q900.399 1296.1 897.661 1297.72 Q894.924 1299.34 894.924 1303.26 Q894.924 1306.38 896.961 1308.22 Q899.03 1310.04 902.563 1310.04 Q907.433 1310.04 910.361 1306.6 Q913.321 1303.13 913.321 1297.4 L913.321 1296.1 L907.496 1296.1 M919.177 1293.68 L919.177 1314.01 L913.321 1314.01 L913.321 1308.6 Q911.316 1311.85 908.324 1313.41 Q905.332 1314.94 901.003 1314.94 Q895.529 1314.94 892.282 1311.88 Q889.068 1308.79 889.068 1303.64 Q889.068 1297.62 893.078 1294.57 Q897.12 1291.51 905.109 1291.51 L913.321 1291.51 L913.321 1290.94 Q913.321 1286.9 910.647 1284.7 Q908.006 1282.47 903.199 1282.47 Q900.144 1282.47 897.248 1283.2 Q894.351 1283.94 891.678 1285.4 L891.678 1279.99 Q894.892 1278.75 897.916 1278.14 Q900.94 1277.51 903.804 1277.51 Q911.539 1277.51 915.358 1281.52 Q919.177 1285.53 919.177 1293.68 Z" fill="#000000" fill-rule="nonzero" fill-opacity="1" /><path clip-path="url(#clip290)" d="M931.24 1264.49 L937.097 1264.49 L937.097 1314.01 L931.24 1314.01 L931.24 1264.49 Z" fill="#000000" fill-rule="nonzero" fill-opacity="1" /><path clip-path="url(#clip290)" d="M970.326 1266.49 L1000.37 1266.49 L1000.37 1271.91 L976.755 1271.91 L976.755 1285.97 L999.385 1285.97 L999.385 1291.38 L976.755 1291.38 L976.755 1308.6 L1000.94 1308.6 L1000.94 1314.01 L970.326 1314.01 L970.326 1266.49 Z" fill="#000000" fill-rule="nonzero" fill-opacity="1" /><path clip-path="url(#clip290)" d="M1040.89 1278.37 L1028 1295.71 L1041.56 1314.01 L1034.65 1314.01 L1024.28 1300.01 L1013.9 1314.01 L1006.99 1314.01 L1020.84 1295.36 L1008.17 1278.37 L1015.08 1278.37 L1024.53 1291.07 L1033.98 1278.37 L1040.89 1278.37 Z" fill="#000000" fill-rule="nonzero" fill-opacity="1" /><path clip-path="url(#clip290)" d="M1074.34 1279.74 L1074.34 1285.21 Q1071.86 1283.84 1069.34 1283.17 Q1066.86 1282.47 1064.32 1282.47 Q1058.62 1282.47 1055.47 1286.1 Q1052.32 1289.7 1052.32 1296.22 Q1052.32 1302.75 1055.47 1306.38 Q1058.62 1309.97 1064.32 1309.97 Q1066.86 1309.97 1069.34 1309.3 Q1071.86 1308.6 1074.34 1307.24 L1074.34 1312.65 Q1071.89 1313.79 1069.25 1314.36 Q1066.64 1314.94 1063.68 1314.94 Q1055.63 1314.94 1050.88 1309.88 Q1046.14 1304.82 1046.14 1296.22 Q1046.14 1287.5 1050.92 1282.5 Q1055.72 1277.51 1064.06 1277.51 Q1066.77 1277.51 1069.34 1278.08 Q1071.92 1278.62 1074.34 1279.74 Z" fill="#000000" fill-rule="nonzero" fill-opacity="1" /><path clip-path="url(#clip290)" d="M1115.02 1294.73 L1115.02 1297.59 L1088.09 1297.59 Q1088.47 1303.64 1091.72 1306.82 Q1095 1309.97 1100.82 1309.97 Q1104.2 1309.97 1107.35 1309.14 Q1110.53 1308.32 1113.65 1306.66 L1113.65 1312.2 Q1110.5 1313.54 1107.19 1314.24 Q1103.88 1314.94 1100.47 1314.94 Q1091.94 1314.94 1086.95 1309.97 Q1081.98 1305.01 1081.98 1296.54 Q1081.98 1287.79 1086.69 1282.66 Q1091.43 1277.51 1099.45 1277.51 Q1106.65 1277.51 1110.82 1282.15 Q1115.02 1286.77 1115.02 1294.73 M1109.16 1293.01 Q1109.1 1288.2 1106.46 1285.34 Q1103.85 1282.47 1099.52 1282.47 Q1094.62 1282.47 1091.66 1285.24 Q1088.73 1288.01 1088.28 1293.04 L1109.16 1293.01 Z" fill="#000000" fill-rule="nonzero" fill-opacity="1" /><path clip-path="url(#clip290)" d="M1147.36 1279.42 L1147.36 1284.96 Q1144.87 1283.68 1142.2 1283.05 Q1139.53 1282.41 1136.66 1282.41 Q1132.3 1282.41 1130.11 1283.75 Q1127.94 1285.08 1127.94 1287.76 Q1127.94 1289.79 1129.5 1290.97 Q1131.06 1292.12 1135.77 1293.17 L1137.78 1293.61 Q1144.01 1294.95 1146.62 1297.4 Q1149.27 1299.82 1149.27 1304.18 Q1149.27 1309.14 1145.32 1312.04 Q1141.4 1314.94 1134.53 1314.94 Q1131.66 1314.94 1128.55 1314.36 Q1125.46 1313.82 1122.02 1312.71 L1122.02 1306.66 Q1125.27 1308.35 1128.42 1309.21 Q1131.57 1310.04 1134.66 1310.04 Q1138.79 1310.04 1141.02 1308.64 Q1143.25 1307.2 1143.25 1304.63 Q1143.25 1302.24 1141.63 1300.97 Q1140.04 1299.69 1134.59 1298.51 L1132.56 1298.04 Q1127.11 1296.89 1124.69 1294.54 Q1122.28 1292.15 1122.28 1288.01 Q1122.28 1282.98 1125.84 1280.24 Q1129.4 1277.51 1135.96 1277.51 Q1139.21 1277.51 1142.07 1277.98 Q1144.94 1278.46 1147.36 1279.42 Z" fill="#000000" fill-rule="nonzero" fill-opacity="1" /><path clip-path="url(#clip290)" d="M1181.32 1279.42 L1181.32 1284.96 Q1178.83 1283.68 1176.16 1283.05 Q1173.49 1282.41 1170.62 1282.41 Q1166.26 1282.41 1164.07 1283.75 Q1161.9 1285.08 1161.9 1287.76 Q1161.9 1289.79 1163.46 1290.97 Q1165.02 1292.12 1169.73 1293.17 L1171.74 1293.61 Q1177.98 1294.95 1180.59 1297.4 Q1183.23 1299.82 1183.23 1304.18 Q1183.23 1309.14 1179.28 1312.04 Q1175.37 1314.94 1168.49 1314.94 Q1165.63 1314.94 1162.51 1314.36 Q1159.42 1313.82 1155.98 1312.71 L1155.98 1306.66 Q1159.23 1308.35 1162.38 1309.21 Q1165.53 1310.04 1168.62 1310.04 Q1172.76 1310.04 1174.98 1308.64 Q1177.21 1307.2 1177.21 1304.63 Q1177.21 1302.24 1175.59 1300.97 Q1174 1299.69 1168.55 1298.51 L1166.52 1298.04 Q1161.07 1296.89 1158.66 1294.54 Q1156.24 1292.15 1156.24 1288.01 Q1156.24 1282.98 1159.8 1280.24 Q1163.37 1277.51 1169.92 1277.51 Q1173.17 1277.51 1176.03 1277.98 Q1178.9 1278.46 1181.32 1279.42 Z" fill="#000000" fill-rule="nonzero" fill-opacity="1" /><path clip-path="url(#clip290)" d="M1219.96 1271.78 L1219.96 1308.73 L1227.72 1308.73 Q1237.56 1308.73 1242.11 1304.28 Q1246.69 1299.82 1246.69 1290.21 Q1246.69 1280.66 1242.11 1276.23 Q1237.56 1271.78 1227.72 1271.78 L1219.96 1271.78 M1213.53 1266.49 L1226.74 1266.49 Q1240.55 1266.49 1247.01 1272.26 Q1253.47 1277.98 1253.47 1290.21 Q1253.47 1302.49 1246.98 1308.25 Q1240.49 1314.01 1226.74 1314.01 L1213.53 1314.01 L1213.53 1266.49 Z" fill="#000000" fill-rule="nonzero" fill-opacity="1" /><path clip-path="url(#clip290)" d="M1263.47 1278.37 L1269.32 1278.37 L1269.32 1314.01 L1263.47 1314.01 L1263.47 1278.37 M1263.47 1264.49 L1269.32 1264.49 L1269.32 1271.91 L1263.47 1271.91 L1263.47 1264.49 Z" fill="#000000" fill-rule="nonzero" fill-opacity="1" /><path clip-path="url(#clip290)" d="M1304.3 1279.42 L1304.3 1284.96 Q1301.82 1283.68 1299.15 1283.05 Q1296.47 1282.41 1293.61 1282.41 Q1289.25 1282.41 1287.05 1283.75 Q1284.89 1285.08 1284.89 1287.76 Q1284.89 1289.79 1286.45 1290.97 Q1288.01 1292.12 1292.72 1293.17 L1294.72 1293.61 Q1300.96 1294.95 1303.57 1297.4 Q1306.21 1299.82 1306.21 1304.18 Q1306.21 1309.14 1302.27 1312.04 Q1298.35 1314.94 1291.48 1314.94 Q1288.61 1314.94 1285.49 1314.36 Q1282.4 1313.82 1278.97 1312.71 L1278.97 1306.66 Q1282.21 1308.35 1285.36 1309.21 Q1288.52 1310.04 1291.6 1310.04 Q1295.74 1310.04 1297.97 1308.64 Q1300.2 1307.2 1300.2 1304.63 Q1300.2 1302.24 1298.57 1300.97 Q1296.98 1299.69 1291.54 1298.51 L1289.5 1298.04 Q1284.06 1296.89 1281.64 1294.54 Q1279.22 1292.15 1279.22 1288.01 Q1279.22 1282.98 1282.79 1280.24 Q1286.35 1277.51 1292.91 1277.51 Q1296.15 1277.51 1299.02 1277.98 Q1301.88 1278.46 1304.3 1279.42 Z" fill="#000000" fill-rule="nonzero" fill-opacity="1" /><path clip-path="url(#clip290)" d="M1321.33 1268.25 L1321.33 1278.37 L1333.39 1278.37 L1333.39 1282.92 L1321.33 1282.92 L1321.33 1302.27 Q1321.33 1306.63 1322.51 1307.87 Q1323.72 1309.11 1327.38 1309.11 L1333.39 1309.11 L1333.39 1314.01 L1327.38 1314.01 Q1320.6 1314.01 1318.02 1311.5 Q1315.44 1308.95 1315.44 1302.27 L1315.44 1282.92 L1311.15 1282.92 L1311.15 1278.37 L1315.44 1278.37 L1315.44 1268.25 L1321.33 1268.25 Z" fill="#000000" fill-rule="nonzero" fill-opacity="1" /><path clip-path="url(#clip290)" d="M1361.75 1283.84 Q1360.77 1283.27 1359.59 1283.01 Q1358.44 1282.73 1357.04 1282.73 Q1352.08 1282.73 1349.4 1285.97 Q1346.76 1289.19 1346.76 1295.24 L1346.76 1314.01 L1340.87 1314.01 L1340.87 1278.37 L1346.76 1278.37 L1346.76 1283.9 Q1348.61 1280.66 1351.57 1279.1 Q1354.53 1277.51 1358.76 1277.51 Q1359.37 1277.51 1360.1 1277.6 Q1360.83 1277.67 1361.72 1277.83 L1361.75 1283.84 Z" fill="#000000" fill-rule="nonzero" fill-opacity="1" /><path clip-path="url(#clip290)" d="M1367.9 1278.37 L1373.75 1278.37 L1373.75 1314.01 L1367.9 1314.01 L1367.9 1278.37 M1367.9 1264.49 L1373.75 1264.49 L1373.75 1271.91 L1367.9 1271.91 L1367.9 1264.49 Z" fill="#000000" fill-rule="nonzero" fill-opacity="1" /><path clip-path="url(#clip290)" d="M1411.6 1296.22 Q1411.6 1289.76 1408.92 1286.1 Q1406.28 1282.41 1401.63 1282.41 Q1396.99 1282.41 1394.31 1286.1 Q1391.67 1289.76 1391.67 1296.22 Q1391.67 1302.68 1394.31 1306.38 Q1396.99 1310.04 1401.63 1310.04 Q1406.28 1310.04 1408.92 1306.38 Q1411.6 1302.68 1411.6 1296.22 M1391.67 1283.78 Q1393.52 1280.59 1396.32 1279.07 Q1399.15 1277.51 1403.07 1277.51 Q1409.56 1277.51 1413.6 1282.66 Q1417.68 1287.82 1417.68 1296.22 Q1417.68 1304.63 1413.6 1309.78 Q1409.56 1314.94 1403.07 1314.94 Q1399.15 1314.94 1396.32 1313.41 Q1393.52 1311.85 1391.67 1308.67 L1391.67 1314.01 L1385.78 1314.01 L1385.78 1264.49 L1391.67 1264.49 L1391.67 1283.78 Z" fill="#000000" fill-rule="nonzero" fill-opacity="1" /><path clip-path="url(#clip290)" d="M1426.78 1299.95 L1426.78 1278.37 L1432.64 1278.37 L1432.64 1299.72 Q1432.64 1304.78 1434.61 1307.33 Q1436.58 1309.85 1440.53 1309.85 Q1445.27 1309.85 1448.01 1306.82 Q1450.78 1303.8 1450.78 1298.58 L1450.78 1278.37 L1456.63 1278.37 L1456.63 1314.01 L1450.78 1314.01 L1450.78 1308.54 Q1448.65 1311.79 1445.81 1313.38 Q1443.01 1314.94 1439.29 1314.94 Q1433.14 1314.94 1429.96 1311.12 Q1426.78 1307.3 1426.78 1299.95 M1441.52 1277.51 L1441.52 1277.51 Z" fill="#000000" fill-rule="nonzero" fill-opacity="1" /><path clip-path="url(#clip290)" d="M1474.49 1268.25 L1474.49 1278.37 L1486.55 1278.37 L1486.55 1282.92 L1474.49 1282.92 L1474.49 1302.27 Q1474.49 1306.63 1475.67 1307.87 Q1476.88 1309.11 1480.54 1309.11 L1486.55 1309.11 L1486.55 1314.01 L1480.54 1314.01 Q1473.76 1314.01 1471.18 1311.5 Q1468.6 1308.95 1468.6 1302.27 L1468.6 1282.92 L1464.3 1282.92 L1464.3 1278.37 L1468.6 1278.37 L1468.6 1268.25 L1474.49 1268.25 Z" fill="#000000" fill-rule="nonzero" fill-opacity="1" /><path clip-path="url(#clip290)" d="M1494.26 1278.37 L1500.11 1278.37 L1500.11 1314.01 L1494.26 1314.01 L1494.26 1278.37 M1494.26 1264.49 L1500.11 1264.49 L1500.11 1271.91 L1494.26 1271.91 L1494.26 1264.49 Z" fill="#000000" fill-rule="nonzero" fill-opacity="1" /><path clip-path="url(#clip290)" d="M1526.18 1282.47 Q1521.47 1282.47 1518.73 1286.16 Q1515.99 1289.83 1515.99 1296.22 Q1515.99 1302.62 1518.7 1306.31 Q1521.44 1309.97 1526.18 1309.97 Q1530.86 1309.97 1533.6 1306.28 Q1536.33 1302.59 1536.33 1296.22 Q1536.33 1289.89 1533.6 1286.2 Q1530.86 1282.47 1526.18 1282.47 M1526.18 1277.51 Q1533.82 1277.51 1538.18 1282.47 Q1542.54 1287.44 1542.54 1296.22 Q1542.54 1304.98 1538.18 1309.97 Q1533.82 1314.94 1526.18 1314.94 Q1518.51 1314.94 1514.15 1309.97 Q1509.82 1304.98 1509.82 1296.22 Q1509.82 1287.44 1514.15 1282.47 Q1518.51 1277.51 1526.18 1277.51 Z" fill="#000000" fill-rule="nonzero" fill-opacity="1" /><path clip-path="url(#clip290)" d="M1581.88 1292.5 L1581.88 1314.01 L1576.02 1314.01 L1576.02 1292.69 Q1576.02 1287.63 1574.05 1285.11 Q1572.08 1282.6 1568.13 1282.6 Q1563.39 1282.6 1560.65 1285.62 Q1557.91 1288.65 1557.91 1293.87 L1557.91 1314.01 L1552.02 1314.01 L1552.02 1278.37 L1557.91 1278.37 L1557.91 1283.9 Q1560.01 1280.69 1562.85 1279.1 Q1565.71 1277.51 1569.43 1277.51 Q1575.58 1277.51 1578.73 1281.33 Q1581.88 1285.11 1581.88 1292.5 Z" fill="#000000" fill-rule="nonzero" fill-opacity="1" /><path clip-path="url(#clip290)" d="M1628.35 1264.55 Q1624.08 1271.87 1622.02 1279.04 Q1619.95 1286.2 1619.95 1293.55 Q1619.95 1300.9 1622.02 1308.13 Q1624.12 1315.32 1628.35 1322.61 L1623.26 1322.61 Q1618.48 1315.13 1616.09 1307.9 Q1613.74 1300.68 1613.74 1293.55 Q1613.74 1286.45 1616.09 1279.26 Q1618.45 1272.06 1623.26 1264.55 L1628.35 1264.55 Z" fill="#000000" fill-rule="nonzero" fill-opacity="1" /><path clip-path="url(#clip290)" d="M1649.87 1269.74 Q1647.32 1269.74 1645.57 1271.52 Q1643.82 1273.27 1643.82 1275.82 Q1643.82 1278.33 1645.57 1280.09 Q1647.32 1281.8 1649.87 1281.8 Q1652.41 1281.8 1654.16 1280.09 Q1655.91 1278.33 1655.91 1275.82 Q1655.91 1273.31 1654.13 1271.52 Q1652.38 1269.74 1649.87 1269.74 M1649.87 1265.64 Q1651.9 1265.64 1653.78 1266.43 Q1655.66 1267.19 1657.03 1268.66 Q1658.49 1270.09 1659.22 1271.91 Q1659.95 1273.72 1659.95 1275.82 Q1659.95 1280.02 1656.99 1282.95 Q1654.07 1285.85 1649.8 1285.85 Q1645.5 1285.85 1642.64 1282.98 Q1639.78 1280.12 1639.78 1275.82 Q1639.78 1271.56 1642.7 1268.6 Q1645.63 1265.64 1649.87 1265.64 Z" fill="#000000" fill-rule="nonzero" fill-opacity="1" /><path clip-path="url(#clip290)" d="M1708.14 1270.16 L1708.14 1276.93 Q1704.9 1273.91 1701.2 1272.41 Q1697.54 1270.92 1693.41 1270.92 Q1685.26 1270.92 1680.93 1275.92 Q1676.6 1280.88 1676.6 1290.3 Q1676.6 1299.69 1680.93 1304.69 Q1685.26 1309.65 1693.41 1309.65 Q1697.54 1309.65 1701.2 1308.16 Q1704.9 1306.66 1708.14 1303.64 L1708.14 1310.35 Q1704.77 1312.65 1700.98 1313.79 Q1697.23 1314.94 1693.02 1314.94 Q1682.23 1314.94 1676.03 1308.35 Q1669.82 1301.73 1669.82 1290.3 Q1669.82 1278.84 1676.03 1272.26 Q1682.23 1265.64 1693.02 1265.64 Q1697.29 1265.64 1701.05 1266.78 Q1704.83 1267.9 1708.14 1270.16 Z" fill="#000000" fill-rule="nonzero" fill-opacity="1" /><path clip-path="url(#clip290)" d="M1716.9 1264.55 L1721.99 1264.55 Q1726.76 1272.06 1729.12 1279.26 Q1731.51 1286.45 1731.51 1293.55 Q1731.51 1300.68 1729.12 1307.9 Q1726.76 1315.13 1721.99 1322.61 L1716.9 1322.61 Q1721.13 1315.32 1723.2 1308.13 Q1725.3 1300.9 1725.3 1293.55 Q1725.3 1286.2 1723.2 1279.04 Q1721.13 1271.87 1716.9 1264.55 Z" fill="#000000" fill-rule="nonzero" fill-opacity="1" /><polyline clip-path="url(#clip290)" style="stroke:#000000; stroke-linecap:round; stroke-linejoin:round; stroke-width:4; stroke-opacity:1; fill:none" points="244.502,1173.47 244.502,47.2441 "/>
<polyline clip-path="url(#clip290)" style="stroke:#000000; stroke-linecap:round; stroke-linejoin:round; stroke-width:4; stroke-opacity:1; fill:none" points="244.502,1173.47 263.4,1173.47 "/>
<polyline clip-path="url(#clip290)" style="stroke:#000000; stroke-linecap:round; stroke-linejoin:round; stroke-width:4; stroke-opacity:1; fill:none" points="244.502,933.854 263.4,933.854 "/>
<polyline clip-path="url(#clip290)" style="stroke:#000000; stroke-linecap:round; stroke-linejoin:round; stroke-width:4; stroke-opacity:1; fill:none" points="244.502,694.238 263.4,694.238 "/>
<polyline clip-path="url(#clip290)" style="stroke:#000000; stroke-linecap:round; stroke-linejoin:round; stroke-width:4; stroke-opacity:1; fill:none" points="244.502,454.622 263.4,454.622 "/>
<polyline clip-path="url(#clip290)" style="stroke:#000000; stroke-linecap:round; stroke-linejoin:round; stroke-width:4; stroke-opacity:1; fill:none" points="244.502,215.006 263.4,215.006 "/>
<path clip-path="url(#clip290)" d="M125.485 1159.27 Q121.873 1159.27 120.045 1162.83 Q118.239 1166.38 118.239 1173.51 Q118.239 1180.61 120.045 1184.18 Q121.873 1187.72 125.485 1187.72 Q129.119 1187.72 130.924 1184.18 Q132.753 1180.61 132.753 1173.51 Q132.753 1166.38 130.924 1162.83 Q129.119 1159.27 125.485 1159.27 M125.485 1155.57 Q131.295 1155.57 134.35 1160.17 Q137.429 1164.76 137.429 1173.51 Q137.429 1182.23 134.35 1186.84 Q131.295 1191.42 125.485 1191.42 Q119.674 1191.42 116.596 1186.84 Q113.54 1182.23 113.54 1173.51 Q113.54 1164.76 116.596 1160.17 Q119.674 1155.57 125.485 1155.57 Z" fill="#000000" fill-rule="nonzero" fill-opacity="1" /><path clip-path="url(#clip290)" d="M145.646 1184.87 L150.531 1184.87 L150.531 1190.75 L145.646 1190.75 L145.646 1184.87 Z" fill="#000000" fill-rule="nonzero" fill-opacity="1" /><path clip-path="url(#clip290)" d="M170.716 1159.27 Q167.105 1159.27 165.276 1162.83 Q163.47 1166.38 163.47 1173.51 Q163.47 1180.61 165.276 1184.18 Q167.105 1187.72 170.716 1187.72 Q174.35 1187.72 176.156 1184.18 Q177.984 1180.61 177.984 1173.51 Q177.984 1166.38 176.156 1162.83 Q174.35 1159.27 170.716 1159.27 M170.716 1155.57 Q176.526 1155.57 179.581 1160.17 Q182.66 1164.76 182.66 1173.51 Q182.66 1182.23 179.581 1186.84 Q176.526 1191.42 170.716 1191.42 Q164.906 1191.42 161.827 1186.84 Q158.771 1182.23 158.771 1173.51 Q158.771 1164.76 161.827 1160.17 Q164.906 1155.57 170.716 1155.57 Z" fill="#000000" fill-rule="nonzero" fill-opacity="1" /><path clip-path="url(#clip290)" d="M200.878 1159.27 Q197.267 1159.27 195.438 1162.83 Q193.632 1166.38 193.632 1173.51 Q193.632 1180.61 195.438 1184.18 Q197.267 1187.72 200.878 1187.72 Q204.512 1187.72 206.317 1184.18 Q208.146 1180.61 208.146 1173.51 Q208.146 1166.38 206.317 1162.83 Q204.512 1159.27 200.878 1159.27 M200.878 1155.57 Q206.688 1155.57 209.743 1160.17 Q212.822 1164.76 212.822 1173.51 Q212.822 1182.23 209.743 1186.84 Q206.688 1191.42 200.878 1191.42 Q195.067 1191.42 191.989 1186.84 Q188.933 1182.23 188.933 1173.51 Q188.933 1164.76 191.989 1160.17 Q195.067 1155.57 200.878 1155.57 Z" fill="#000000" fill-rule="nonzero" fill-opacity="1" /><path clip-path="url(#clip290)" d="M126.48 919.653 Q122.869 919.653 121.04 923.218 Q119.235 926.76 119.235 933.889 Q119.235 940.996 121.04 944.56 Q122.869 948.102 126.48 948.102 Q130.114 948.102 131.92 944.56 Q133.748 940.996 133.748 933.889 Q133.748 926.76 131.92 923.218 Q130.114 919.653 126.48 919.653 M126.48 915.949 Q132.29 915.949 135.346 920.556 Q138.424 925.139 138.424 933.889 Q138.424 942.616 135.346 947.222 Q132.29 951.806 126.48 951.806 Q120.67 951.806 117.591 947.222 Q114.536 942.616 114.536 933.889 Q114.536 925.139 117.591 920.556 Q120.67 915.949 126.48 915.949 Z" fill="#000000" fill-rule="nonzero" fill-opacity="1" /><path clip-path="url(#clip290)" d="M146.642 945.255 L151.526 945.255 L151.526 951.134 L146.642 951.134 L146.642 945.255 Z" fill="#000000" fill-rule="nonzero" fill-opacity="1" /><path clip-path="url(#clip290)" d="M165.739 947.199 L182.058 947.199 L182.058 951.134 L160.114 951.134 L160.114 947.199 Q162.776 944.445 167.359 939.815 Q171.966 935.162 173.146 933.82 Q175.392 931.297 176.271 929.561 Q177.174 927.801 177.174 926.111 Q177.174 923.357 175.23 921.621 Q173.308 919.885 170.207 919.885 Q168.007 919.885 165.554 920.649 Q163.123 921.412 160.345 922.963 L160.345 918.241 Q163.17 917.107 165.623 916.528 Q168.077 915.949 170.114 915.949 Q175.484 915.949 178.679 918.635 Q181.873 921.32 181.873 925.811 Q181.873 927.94 181.063 929.861 Q180.276 931.76 178.169 934.352 Q177.591 935.023 174.489 938.241 Q171.387 941.435 165.739 947.199 Z" fill="#000000" fill-rule="nonzero" fill-opacity="1" /><path clip-path="url(#clip290)" d="M191.919 916.574 L210.276 916.574 L210.276 920.51 L196.202 920.51 L196.202 928.982 Q197.22 928.635 198.239 928.473 Q199.257 928.287 200.276 928.287 Q206.063 928.287 209.442 931.459 Q212.822 934.63 212.822 940.047 Q212.822 945.625 209.35 948.727 Q205.878 951.806 199.558 951.806 Q197.382 951.806 195.114 951.435 Q192.868 951.065 190.461 950.324 L190.461 945.625 Q192.544 946.76 194.767 947.315 Q196.989 947.871 199.466 947.871 Q203.47 947.871 205.808 945.764 Q208.146 943.658 208.146 940.047 Q208.146 936.435 205.808 934.329 Q203.47 932.223 199.466 932.223 Q197.591 932.223 195.716 932.639 Q193.864 933.056 191.919 933.935 L191.919 916.574 Z" fill="#000000" fill-rule="nonzero" fill-opacity="1" /><path clip-path="url(#clip290)" d="M125.485 680.037 Q121.873 680.037 120.045 683.602 Q118.239 687.143 118.239 694.273 Q118.239 701.379 120.045 704.944 Q121.873 708.486 125.485 708.486 Q129.119 708.486 130.924 704.944 Q132.753 701.379 132.753 694.273 Q132.753 687.143 130.924 683.602 Q129.119 680.037 125.485 680.037 M125.485 676.333 Q131.295 676.333 134.35 680.94 Q137.429 685.523 137.429 694.273 Q137.429 703 134.35 707.606 Q131.295 712.19 125.485 712.19 Q119.674 712.19 116.596 707.606 Q113.54 703 113.54 694.273 Q113.54 685.523 116.596 680.94 Q119.674 676.333 125.485 676.333 Z" fill="#000000" fill-rule="nonzero" fill-opacity="1" /><path clip-path="url(#clip290)" d="M145.646 705.639 L150.531 705.639 L150.531 711.518 L145.646 711.518 L145.646 705.639 Z" fill="#000000" fill-rule="nonzero" fill-opacity="1" /><path clip-path="url(#clip290)" d="M160.762 676.958 L179.119 676.958 L179.119 680.893 L165.045 680.893 L165.045 689.366 Q166.063 689.018 167.082 688.856 Q168.1 688.671 169.119 688.671 Q174.906 688.671 178.285 691.842 Q181.665 695.014 181.665 700.43 Q181.665 706.009 178.193 709.111 Q174.72 712.19 168.401 712.19 Q166.225 712.19 163.957 711.819 Q161.711 711.449 159.304 710.708 L159.304 706.009 Q161.387 707.143 163.609 707.699 Q165.832 708.254 168.308 708.254 Q172.313 708.254 174.651 706.148 Q176.989 704.041 176.989 700.43 Q176.989 696.819 174.651 694.713 Q172.313 692.606 168.308 692.606 Q166.433 692.606 164.558 693.023 Q162.707 693.44 160.762 694.319 L160.762 676.958 Z" fill="#000000" fill-rule="nonzero" fill-opacity="1" /><path clip-path="url(#clip290)" d="M200.878 680.037 Q197.267 680.037 195.438 683.602 Q193.632 687.143 193.632 694.273 Q193.632 701.379 195.438 704.944 Q197.267 708.486 200.878 708.486 Q204.512 708.486 206.317 704.944 Q208.146 701.379 208.146 694.273 Q208.146 687.143 206.317 683.602 Q204.512 680.037 200.878 680.037 M200.878 676.333 Q206.688 676.333 209.743 680.94 Q212.822 685.523 212.822 694.273 Q212.822 703 209.743 707.606 Q206.688 712.19 200.878 712.19 Q195.067 712.19 191.989 707.606 Q188.933 703 188.933 694.273 Q188.933 685.523 191.989 680.94 Q195.067 676.333 200.878 676.333 Z" fill="#000000" fill-rule="nonzero" fill-opacity="1" /><path clip-path="url(#clip290)" d="M126.48 440.421 Q122.869 440.421 121.04 443.985 Q119.235 447.527 119.235 454.657 Q119.235 461.763 121.04 465.328 Q122.869 468.87 126.48 468.87 Q130.114 468.87 131.92 465.328 Q133.748 461.763 133.748 454.657 Q133.748 447.527 131.92 443.985 Q130.114 440.421 126.48 440.421 M126.48 436.717 Q132.29 436.717 135.346 441.323 Q138.424 445.907 138.424 454.657 Q138.424 463.383 135.346 467.99 Q132.29 472.573 126.48 472.573 Q120.67 472.573 117.591 467.99 Q114.536 463.383 114.536 454.657 Q114.536 445.907 117.591 441.323 Q120.67 436.717 126.48 436.717 Z" fill="#000000" fill-rule="nonzero" fill-opacity="1" /><path clip-path="url(#clip290)" d="M146.642 466.022 L151.526 466.022 L151.526 471.902 L146.642 471.902 L146.642 466.022 Z" fill="#000000" fill-rule="nonzero" fill-opacity="1" /><path clip-path="url(#clip290)" d="M160.531 437.342 L182.753 437.342 L182.753 439.333 L170.207 471.902 L165.322 471.902 L177.128 441.277 L160.531 441.277 L160.531 437.342 Z" fill="#000000" fill-rule="nonzero" fill-opacity="1" /><path clip-path="url(#clip290)" d="M191.919 437.342 L210.276 437.342 L210.276 441.277 L196.202 441.277 L196.202 449.749 Q197.22 449.402 198.239 449.24 Q199.257 449.055 200.276 449.055 Q206.063 449.055 209.442 452.226 Q212.822 455.397 212.822 460.814 Q212.822 466.393 209.35 469.495 Q205.878 472.573 199.558 472.573 Q197.382 472.573 195.114 472.203 Q192.868 471.832 190.461 471.092 L190.461 466.393 Q192.544 467.527 194.767 468.083 Q196.989 468.638 199.466 468.638 Q203.47 468.638 205.808 466.532 Q208.146 464.425 208.146 460.814 Q208.146 457.203 205.808 455.096 Q203.47 452.99 199.466 452.99 Q197.591 452.99 195.716 453.407 Q193.864 453.823 191.919 454.703 L191.919 437.342 Z" fill="#000000" fill-rule="nonzero" fill-opacity="1" /><path clip-path="url(#clip290)" d="M116.295 228.351 L123.934 228.351 L123.934 201.985 L115.623 203.652 L115.623 199.392 L123.887 197.726 L128.563 197.726 L128.563 228.351 L136.202 228.351 L136.202 232.286 L116.295 232.286 L116.295 228.351 Z" fill="#000000" fill-rule="nonzero" fill-opacity="1" /><path clip-path="url(#clip290)" d="M145.646 226.406 L150.531 226.406 L150.531 232.286 L145.646 232.286 L145.646 226.406 Z" fill="#000000" fill-rule="nonzero" fill-opacity="1" /><path clip-path="url(#clip290)" d="M170.716 200.804 Q167.105 200.804 165.276 204.369 Q163.47 207.911 163.47 215.04 Q163.47 222.147 165.276 225.712 Q167.105 229.253 170.716 229.253 Q174.35 229.253 176.156 225.712 Q177.984 222.147 177.984 215.04 Q177.984 207.911 176.156 204.369 Q174.35 200.804 170.716 200.804 M170.716 197.101 Q176.526 197.101 179.581 201.707 Q182.66 206.29 182.66 215.04 Q182.66 223.767 179.581 228.374 Q176.526 232.957 170.716 232.957 Q164.906 232.957 161.827 228.374 Q158.771 223.767 158.771 215.04 Q158.771 206.29 161.827 201.707 Q164.906 197.101 170.716 197.101 Z" fill="#000000" fill-rule="nonzero" fill-opacity="1" /><path clip-path="url(#clip290)" d="M200.878 200.804 Q197.267 200.804 195.438 204.369 Q193.632 207.911 193.632 215.04 Q193.632 222.147 195.438 225.712 Q197.267 229.253 200.878 229.253 Q204.512 229.253 206.317 225.712 Q208.146 222.147 208.146 215.04 Q208.146 207.911 206.317 204.369 Q204.512 200.804 200.878 200.804 M200.878 197.101 Q206.688 197.101 209.743 201.707 Q212.822 206.29 212.822 215.04 Q212.822 223.767 209.743 228.374 Q206.688 232.957 200.878 232.957 Q195.067 232.957 191.989 228.374 Q188.933 223.767 188.933 215.04 Q188.933 206.29 191.989 201.707 Q195.067 197.101 200.878 197.101 Z" fill="#000000" fill-rule="nonzero" fill-opacity="1" /><path clip-path="url(#clip290)" d="M25.3677 662.333 L43.2235 662.333 L43.2235 654.249 Q43.2235 649.761 40.9 647.31 Q38.5765 644.86 34.2797 644.86 Q30.0147 644.86 27.6912 647.31 Q25.3677 649.761 25.3677 654.249 L25.3677 662.333 M20.0842 668.763 L20.0842 654.249 Q20.0842 646.26 23.7126 642.186 Q27.3092 638.08 34.2797 638.08 Q41.3138 638.08 44.9104 642.186 Q48.507 646.26 48.507 654.249 L48.507 662.333 L67.6042 662.333 L67.6042 668.763 L20.0842 668.763 Z" fill="#000000" fill-rule="nonzero" fill-opacity="1" /><path clip-path="url(#clip290)" d="M25.3677 623.025 L62.3206 623.025 L62.3206 615.259 Q62.3206 605.424 57.8646 600.873 Q53.4086 596.289 43.7964 596.289 Q34.2479 596.289 29.8237 600.873 Q25.3677 605.424 25.3677 615.259 L25.3677 623.025 M20.0842 629.455 L20.0842 616.246 Q20.0842 602.432 25.8451 595.971 Q31.5743 589.51 43.7964 589.51 Q56.0822 589.51 61.8432 596.003 Q67.6042 602.496 67.6042 616.246 L67.6042 629.455 L20.0842 629.455 Z" fill="#000000" fill-rule="nonzero" fill-opacity="1" /><path clip-path="url(#clip290)" d="M20.0842 579.261 L20.0842 551.952 L25.495 551.952 L25.495 572.832 L39.4996 572.832 L39.4996 553.989 L44.9104 553.989 L44.9104 572.832 L67.6042 572.832 L67.6042 579.261 L20.0842 579.261 Z" fill="#000000" fill-rule="nonzero" fill-opacity="1" /><path clip-path="url(#clip291)" d="M329.452 226.694 L329.452 1173.47 L515.192 1173.47 L515.192 226.694 L329.452 226.694 L329.452 226.694  Z" fill="#add8e6" fill-rule="evenodd" fill-opacity="1"/>
<polyline clip-path="url(#clip291)" style="stroke:#000000; stroke-linecap:round; stroke-linejoin:round; stroke-width:4; stroke-opacity:1; fill:none" points="329.452,226.694 329.452,1173.47 515.192,1173.47 515.192,226.694 329.452,226.694 "/>
<path clip-path="url(#clip291)" d="M515.192 752.681 L515.192 1173.47 L700.931 1173.47 L700.931 752.681 L515.192 752.681 L515.192 752.681  Z" fill="#add8e6" fill-rule="evenodd" fill-opacity="1"/>
<polyline clip-path="url(#clip291)" style="stroke:#000000; stroke-linecap:round; stroke-linejoin:round; stroke-width:4; stroke-opacity:1; fill:none" points="515.192,752.681 515.192,1173.47 700.931,1173.47 700.931,752.681 515.192,752.681 "/>
<path clip-path="url(#clip291)" d="M700.931 963.076 L700.931 1173.47 L886.671 1173.47 L886.671 963.076 L700.931 963.076 L700.931 963.076  Z" fill="#add8e6" fill-rule="evenodd" fill-opacity="1"/>
<polyline clip-path="url(#clip291)" style="stroke:#000000; stroke-linecap:round; stroke-linejoin:round; stroke-width:4; stroke-opacity:1; fill:none" points="700.931,963.076 700.931,1173.47 886.671,1173.47 886.671,963.076 700.931,963.076 "/>
<path clip-path="url(#clip291)" d="M886.671 951.387 L886.671 1173.47 L1072.41 1173.47 L1072.41 951.387 L886.671 951.387 L886.671 951.387  Z" fill="#add8e6" fill-rule="evenodd" fill-opacity="1"/>
<polyline clip-path="url(#clip291)" style="stroke:#000000; stroke-linecap:round; stroke-linejoin:round; stroke-width:4; stroke-opacity:1; fill:none" points="886.671,951.387 886.671,1173.47 1072.41,1173.47 1072.41,951.387 886.671,951.387 "/>
<path clip-path="url(#clip291)" d="M1072.41 1079.96 L1072.41 1173.47 L1258.15 1173.47 L1258.15 1079.96 L1072.41 1079.96 L1072.41 1079.96  Z" fill="#add8e6" fill-rule="evenodd" fill-opacity="1"/>
<polyline clip-path="url(#clip291)" style="stroke:#000000; stroke-linecap:round; stroke-linejoin:round; stroke-width:4; stroke-opacity:1; fill:none" points="1072.41,1079.96 1072.41,1173.47 1258.15,1173.47 1258.15,1079.96 1072.41,1079.96 "/>
<path clip-path="url(#clip291)" d="M1258.15 1150.09 L1258.15 1173.47 L1443.89 1173.47 L1443.89 1150.09 L1258.15 1150.09 L1258.15 1150.09  Z" fill="#add8e6" fill-rule="evenodd" fill-opacity="1"/>
<polyline clip-path="url(#clip291)" style="stroke:#000000; stroke-linecap:round; stroke-linejoin:round; stroke-width:4; stroke-opacity:1; fill:none" points="1258.15,1150.09 1258.15,1173.47 1443.89,1173.47 1443.89,1150.09 1258.15,1150.09 "/>
<circle clip-path="url(#clip291)" style="fill:#add8e6; stroke:none; fill-opacity:0" cx="422.322" cy="226.694" r="2"/>
<circle clip-path="url(#clip291)" style="fill:#add8e6; stroke:none; fill-opacity:0" cx="608.061" cy="752.681" r="2"/>
<circle clip-path="url(#clip291)" style="fill:#add8e6; stroke:none; fill-opacity:0" cx="793.801" cy="963.076" r="2"/>
<circle clip-path="url(#clip291)" style="fill:#add8e6; stroke:none; fill-opacity:0" cx="979.541" cy="951.387" r="2"/>
<circle clip-path="url(#clip291)" style="fill:#add8e6; stroke:none; fill-opacity:0" cx="1165.28" cy="1079.96" r="2"/>
<circle clip-path="url(#clip291)" style="fill:#add8e6; stroke:none; fill-opacity:0" cx="1351.02" cy="1150.09" r="2"/>
<polyline clip-path="url(#clip291)" style="stroke:#ff0000; stroke-linecap:round; stroke-linejoin:round; stroke-width:8; stroke-opacity:1; fill:none" points="329.452,47.2441 333.798,59.7647 338.143,72.178 342.489,84.4846 346.835,96.6852 359.561,131.81 372.287,166.048 385.014,199.414 397.74,231.923 410.466,263.592 423.192,294.436 435.919,324.469 448.645,353.707 460.485,380.209 472.326,406.047 484.167,431.233 496.007,455.779 511.878,487.695 527.748,518.509 543.619,548.247 559.49,576.935 585.718,622.117 611.946,664.62 636.336,701.84 660.726,736.93 676.034,757.906 691.343,778.099 706.652,797.528 721.96,816.215 749.424,847.943 776.888,877.457 808.325,908.668 839.761,937.284 863.259,957.073 886.758,975.563 916.813,997.412 946.868,1017.36 974.299,1034 1001.73,1049.25 1032.95,1065 1064.17,1079.17 1088.92,1089.36 1113.67,1098.68 1144.42,1109.13 1175.16,1118.41 1198.71,1124.8 1222.26,1130.6 1288.66,1144.13 1338.28,1151.88 1394.7,1158.67 1450.58,1163.65 1512.06,1167.52 1559.02,1169.58 1618.28,1171.35 1673.09,1172.36 1729.62,1172.96 1786.91,1173.28 1846.74,1173.42 1893.87,1173.46 2001.2,1173.47 2013.24,1173.47 "/>
<path clip-path="url(#clip290)" d="M1318.98 240.305 L2004.08 240.305 L2004.08 84.785 L1318.98 84.785  Z" fill="#ffffff" fill-rule="evenodd" fill-opacity="1"/>
<polyline clip-path="url(#clip290)" style="stroke:#000000; stroke-linecap:round; stroke-linejoin:round; stroke-width:4; stroke-opacity:1; fill:none" points="1318.98,240.305 2004.08,240.305 2004.08,84.785 1318.98,84.785 1318.98,240.305 "/>
<path clip-path="url(#clip290)" d="M1339.2 157.361 L1460.55 157.361 L1460.55 115.889 L1339.2 115.889 L1339.2 157.361  Z" fill="#add8e6" fill-rule="evenodd" fill-opacity="1"/>
<polyline clip-path="url(#clip290)" style="stroke:#000000; stroke-linecap:round; stroke-linejoin:round; stroke-width:4; stroke-opacity:1; fill:none" points="1339.2,157.361 1460.55,157.361 1460.55,115.889 1339.2,115.889 1339.2,157.361 "/>
<path clip-path="url(#clip290)" d="M1485.46 123.188 L1485.46 150.062 L1491.1 150.062 Q1498.26 150.062 1501.57 146.822 Q1504.9 143.581 1504.9 136.59 Q1504.9 129.646 1501.57 126.428 Q1498.26 123.188 1491.1 123.188 L1485.46 123.188 M1480.78 119.345 L1490.39 119.345 Q1500.43 119.345 1505.13 123.535 Q1509.83 127.701 1509.83 136.59 Q1509.83 145.525 1505.11 149.715 Q1500.39 153.905 1490.39 153.905 L1480.78 153.905 L1480.78 119.345 Z" fill="#000000" fill-rule="nonzero" fill-opacity="1" /><path clip-path="url(#clip290)" d="M1528.88 140.873 Q1523.72 140.873 1521.73 142.053 Q1519.74 143.234 1519.74 146.081 Q1519.74 148.349 1521.22 149.692 Q1522.72 151.011 1525.29 151.011 Q1528.84 151.011 1530.96 148.511 Q1533.12 145.988 1533.12 141.822 L1533.12 140.873 L1528.88 140.873 M1537.38 139.113 L1537.38 153.905 L1533.12 153.905 L1533.12 149.97 Q1531.66 152.331 1529.48 153.465 Q1527.31 154.576 1524.16 154.576 Q1520.18 154.576 1517.82 152.354 Q1515.48 150.109 1515.48 146.359 Q1515.48 141.984 1518.4 139.762 Q1521.34 137.539 1527.15 137.539 L1533.12 137.539 L1533.12 137.123 Q1533.12 134.183 1531.17 132.586 Q1529.25 130.965 1525.76 130.965 Q1523.53 130.965 1521.43 131.498 Q1519.32 132.03 1517.38 133.095 L1517.38 129.16 Q1519.71 128.257 1521.91 127.817 Q1524.11 127.354 1526.2 127.354 Q1531.82 127.354 1534.6 130.271 Q1537.38 133.188 1537.38 139.113 Z" fill="#000000" fill-rule="nonzero" fill-opacity="1" /><path clip-path="url(#clip290)" d="M1550.36 120.618 L1550.36 127.979 L1559.14 127.979 L1559.14 131.289 L1550.36 131.289 L1550.36 145.363 Q1550.36 148.535 1551.22 149.437 Q1552.1 150.34 1554.76 150.34 L1559.14 150.34 L1559.14 153.905 L1554.76 153.905 Q1549.83 153.905 1547.96 152.076 Q1546.08 150.224 1546.08 145.363 L1546.08 131.289 L1542.96 131.289 L1542.96 127.979 L1546.08 127.979 L1546.08 120.618 L1550.36 120.618 Z" fill="#000000" fill-rule="nonzero" fill-opacity="1" /><path clip-path="url(#clip290)" d="M1576.52 140.873 Q1571.36 140.873 1569.37 142.053 Q1567.38 143.234 1567.38 146.081 Q1567.38 148.349 1568.86 149.692 Q1570.36 151.011 1572.93 151.011 Q1576.47 151.011 1578.6 148.511 Q1580.76 145.988 1580.76 141.822 L1580.76 140.873 L1576.52 140.873 M1585.02 139.113 L1585.02 153.905 L1580.76 153.905 L1580.76 149.97 Q1579.3 152.331 1577.12 153.465 Q1574.95 154.576 1571.8 154.576 Q1567.82 154.576 1565.46 152.354 Q1563.12 150.109 1563.12 146.359 Q1563.12 141.984 1566.03 139.762 Q1568.97 137.539 1574.78 137.539 L1580.76 137.539 L1580.76 137.123 Q1580.76 134.183 1578.81 132.586 Q1576.89 130.965 1573.39 130.965 Q1571.17 130.965 1569.07 131.498 Q1566.96 132.03 1565.02 133.095 L1565.02 129.16 Q1567.35 128.257 1569.55 127.817 Q1571.75 127.354 1573.83 127.354 Q1579.46 127.354 1582.24 130.271 Q1585.02 133.188 1585.02 139.113 Z" fill="#000000" fill-rule="nonzero" fill-opacity="1" /><polyline clip-path="url(#clip290)" style="stroke:#ff0000; stroke-linecap:round; stroke-linejoin:round; stroke-width:8; stroke-opacity:1; fill:none" points="1339.2,188.465 1460.55,188.465 "/>
<path clip-path="url(#clip290)" d="M1480.78 171.185 L1500.64 171.185 L1500.64 175.12 L1485.46 175.12 L1485.46 185.305 L1499.16 185.305 L1499.16 189.24 L1485.46 189.24 L1485.46 205.745 L1480.78 205.745 L1480.78 171.185 Z" fill="#000000" fill-rule="nonzero" fill-opacity="1" /><path clip-path="url(#clip290)" d="M1504.41 179.819 L1508.67 179.819 L1508.67 205.745 L1504.41 205.745 L1504.41 179.819 M1504.41 169.727 L1508.67 169.727 L1508.67 175.12 L1504.41 175.12 L1504.41 169.727 Z" fill="#000000" fill-rule="nonzero" fill-opacity="1" /><path clip-path="url(#clip290)" d="M1521.8 172.458 L1521.8 179.819 L1530.57 179.819 L1530.57 183.129 L1521.8 183.129 L1521.8 197.203 Q1521.8 200.375 1522.65 201.277 Q1523.53 202.18 1526.2 202.18 L1530.57 202.18 L1530.57 205.745 L1526.2 205.745 Q1521.27 205.745 1519.39 203.916 Q1517.52 202.064 1517.52 197.203 L1517.52 183.129 L1514.39 183.129 L1514.39 179.819 L1517.52 179.819 L1517.52 172.458 L1521.8 172.458 Z" fill="#000000" fill-rule="nonzero" fill-opacity="1" /><path clip-path="url(#clip290)" d="M1540.39 172.458 L1540.39 179.819 L1549.16 179.819 L1549.16 183.129 L1540.39 183.129 L1540.39 197.203 Q1540.39 200.375 1541.24 201.277 Q1542.12 202.18 1544.78 202.18 L1549.16 202.18 L1549.16 205.745 L1544.78 205.745 Q1539.85 205.745 1537.98 203.916 Q1536.1 202.064 1536.1 197.203 L1536.1 183.129 L1532.98 183.129 L1532.98 179.819 L1536.1 179.819 L1536.1 172.458 L1540.39 172.458 Z" fill="#000000" fill-rule="nonzero" fill-opacity="1" /><path clip-path="url(#clip290)" d="M1576.94 191.717 L1576.94 193.801 L1557.35 193.801 Q1557.63 198.199 1559.99 200.514 Q1562.38 202.805 1566.61 202.805 Q1569.07 202.805 1571.36 202.203 Q1573.67 201.601 1575.94 200.398 L1575.94 204.426 Q1573.65 205.398 1571.24 205.907 Q1568.83 206.416 1566.36 206.416 Q1560.15 206.416 1556.52 202.805 Q1552.91 199.194 1552.91 193.037 Q1552.91 186.671 1556.33 182.944 Q1559.78 179.194 1565.62 179.194 Q1570.85 179.194 1573.88 182.574 Q1576.94 185.93 1576.94 191.717 M1572.68 190.467 Q1572.63 186.972 1570.71 184.889 Q1568.81 182.805 1565.66 182.805 Q1562.1 182.805 1559.95 184.819 Q1557.82 186.833 1557.49 190.49 L1572.68 190.467 Z" fill="#000000" fill-rule="nonzero" fill-opacity="1" /><path clip-path="url(#clip290)" d="M1600.99 183.754 L1600.99 169.727 L1605.25 169.727 L1605.25 205.745 L1600.99 205.745 L1600.99 201.856 Q1599.64 204.171 1597.58 205.305 Q1595.55 206.416 1592.68 206.416 Q1587.98 206.416 1585.02 202.666 Q1582.08 198.916 1582.08 192.805 Q1582.08 186.694 1585.02 182.944 Q1587.98 179.194 1592.68 179.194 Q1595.55 179.194 1597.58 180.328 Q1599.64 181.44 1600.99 183.754 M1586.47 192.805 Q1586.47 197.504 1588.39 200.189 Q1590.34 202.851 1593.72 202.851 Q1597.1 202.851 1599.04 200.189 Q1600.99 197.504 1600.99 192.805 Q1600.99 188.106 1599.04 185.444 Q1597.1 182.759 1593.72 182.759 Q1590.34 182.759 1588.39 185.444 Q1586.47 188.106 1586.47 192.805 Z" fill="#000000" fill-rule="nonzero" fill-opacity="1" /><path clip-path="url(#clip290)" d="M1649.99 172.319 L1649.99 176.879 Q1647.33 175.606 1644.97 174.981 Q1642.61 174.356 1640.41 174.356 Q1636.59 174.356 1634.51 175.838 Q1632.45 177.319 1632.45 180.051 Q1632.45 182.342 1633.81 183.523 Q1635.2 184.68 1639.04 185.398 L1641.87 185.977 Q1647.1 186.972 1649.58 189.495 Q1652.08 191.995 1652.08 196.208 Q1652.08 201.231 1648.7 203.824 Q1645.34 206.416 1638.83 206.416 Q1636.38 206.416 1633.6 205.861 Q1630.85 205.305 1627.89 204.217 L1627.89 199.402 Q1630.73 201 1633.46 201.81 Q1636.2 202.62 1638.83 202.62 Q1642.84 202.62 1645.01 201.046 Q1647.19 199.472 1647.19 196.555 Q1647.19 194.009 1645.62 192.574 Q1644.07 191.139 1640.5 190.421 L1637.65 189.865 Q1632.42 188.824 1630.08 186.602 Q1627.75 184.379 1627.75 180.421 Q1627.75 175.838 1630.96 173.199 Q1634.2 170.56 1639.88 170.56 Q1642.31 170.56 1644.83 171 Q1647.35 171.44 1649.99 172.319 Z" fill="#000000" fill-rule="nonzero" fill-opacity="1" /><path clip-path="url(#clip290)" d="M1663.39 172.458 L1663.39 179.819 L1672.17 179.819 L1672.17 183.129 L1663.39 183.129 L1663.39 197.203 Q1663.39 200.375 1664.25 201.277 Q1665.13 202.18 1667.79 202.18 L1672.17 202.18 L1672.17 205.745 L1667.79 205.745 Q1662.86 205.745 1660.99 203.916 Q1659.11 202.064 1659.11 197.203 L1659.11 183.129 L1655.99 183.129 L1655.99 179.819 L1659.11 179.819 L1659.11 172.458 L1663.39 172.458 Z" fill="#000000" fill-rule="nonzero" fill-opacity="1" /><path clip-path="url(#clip290)" d="M1689.55 192.713 Q1684.39 192.713 1682.4 193.893 Q1680.41 195.074 1680.41 197.921 Q1680.41 200.189 1681.89 201.532 Q1683.39 202.851 1685.96 202.851 Q1689.51 202.851 1691.64 200.351 Q1693.79 197.828 1693.79 193.662 L1693.79 192.713 L1689.55 192.713 M1698.05 190.953 L1698.05 205.745 L1693.79 205.745 L1693.79 201.81 Q1692.33 204.171 1690.15 205.305 Q1687.98 206.416 1684.83 206.416 Q1680.85 206.416 1678.49 204.194 Q1676.15 201.949 1676.15 198.199 Q1676.15 193.824 1679.07 191.602 Q1682.01 189.379 1687.82 189.379 L1693.79 189.379 L1693.79 188.963 Q1693.79 186.023 1691.84 184.426 Q1689.92 182.805 1686.43 182.805 Q1684.2 182.805 1682.1 183.338 Q1679.99 183.87 1678.05 184.935 L1678.05 181 Q1680.39 180.097 1682.58 179.657 Q1684.78 179.194 1686.87 179.194 Q1692.49 179.194 1695.27 182.111 Q1698.05 185.028 1698.05 190.953 Z" fill="#000000" fill-rule="nonzero" fill-opacity="1" /><path clip-path="url(#clip290)" d="M1711.03 172.458 L1711.03 179.819 L1719.81 179.819 L1719.81 183.129 L1711.03 183.129 L1711.03 197.203 Q1711.03 200.375 1711.89 201.277 Q1712.77 202.18 1715.43 202.18 L1719.81 202.18 L1719.81 205.745 L1715.43 205.745 Q1710.5 205.745 1708.63 203.916 Q1706.75 202.064 1706.75 197.203 L1706.75 183.129 L1703.63 183.129 L1703.63 179.819 L1706.75 179.819 L1706.75 172.458 L1711.03 172.458 Z" fill="#000000" fill-rule="nonzero" fill-opacity="1" /><path clip-path="url(#clip290)" d="M1725.41 179.819 L1729.67 179.819 L1729.67 205.745 L1725.41 205.745 L1725.41 179.819 M1725.41 169.727 L1729.67 169.727 L1729.67 175.12 L1725.41 175.12 L1725.41 169.727 Z" fill="#000000" fill-rule="nonzero" fill-opacity="1" /><path clip-path="url(#clip290)" d="M1748.63 182.805 Q1745.2 182.805 1743.21 185.49 Q1741.22 188.152 1741.22 192.805 Q1741.22 197.458 1743.19 200.143 Q1745.18 202.805 1748.63 202.805 Q1752.03 202.805 1754.02 200.12 Q1756.01 197.435 1756.01 192.805 Q1756.01 188.199 1754.02 185.514 Q1752.03 182.805 1748.63 182.805 M1748.63 179.194 Q1754.18 179.194 1757.35 182.805 Q1760.52 186.416 1760.52 192.805 Q1760.52 199.171 1757.35 202.805 Q1754.18 206.416 1748.63 206.416 Q1743.05 206.416 1739.88 202.805 Q1736.73 199.171 1736.73 192.805 Q1736.73 186.416 1739.88 182.805 Q1743.05 179.194 1748.63 179.194 Z" fill="#000000" fill-rule="nonzero" fill-opacity="1" /><path clip-path="url(#clip290)" d="M1789.13 190.097 L1789.13 205.745 L1784.88 205.745 L1784.88 190.236 Q1784.88 186.555 1783.44 184.727 Q1782 182.898 1779.13 182.898 Q1775.69 182.898 1773.69 185.097 Q1771.7 187.296 1771.7 191.092 L1771.7 205.745 L1767.42 205.745 L1767.42 179.819 L1771.7 179.819 L1771.7 183.847 Q1773.23 181.509 1775.29 180.352 Q1777.38 179.194 1780.08 179.194 Q1784.55 179.194 1786.84 181.972 Q1789.13 184.727 1789.13 190.097 Z" fill="#000000" fill-rule="nonzero" fill-opacity="1" /><path clip-path="url(#clip290)" d="M1809.41 192.713 Q1804.25 192.713 1802.26 193.893 Q1800.27 195.074 1800.27 197.921 Q1800.27 200.189 1801.75 201.532 Q1803.25 202.851 1805.82 202.851 Q1809.37 202.851 1811.5 200.351 Q1813.65 197.828 1813.65 193.662 L1813.65 192.713 L1809.41 192.713 M1817.91 190.953 L1817.91 205.745 L1813.65 205.745 L1813.65 201.81 Q1812.19 204.171 1810.01 205.305 Q1807.84 206.416 1804.69 206.416 Q1800.71 206.416 1798.35 204.194 Q1796.01 201.949 1796.01 198.199 Q1796.01 193.824 1798.93 191.602 Q1801.87 189.379 1807.68 189.379 L1813.65 189.379 L1813.65 188.963 Q1813.65 186.023 1811.7 184.426 Q1809.78 182.805 1806.29 182.805 Q1804.07 182.805 1801.96 183.338 Q1799.85 183.87 1797.91 184.935 L1797.91 181 Q1800.25 180.097 1802.44 179.657 Q1804.64 179.194 1806.73 179.194 Q1812.35 179.194 1815.13 182.111 Q1817.91 185.028 1817.91 190.953 Z" fill="#000000" fill-rule="nonzero" fill-opacity="1" /><path clip-path="url(#clip290)" d="M1841.7 183.801 Q1840.99 183.384 1840.13 183.199 Q1839.3 182.99 1838.28 182.99 Q1834.67 182.99 1832.72 185.352 Q1830.8 187.69 1830.8 192.088 L1830.8 205.745 L1826.52 205.745 L1826.52 179.819 L1830.8 179.819 L1830.8 183.847 Q1832.14 181.486 1834.3 180.352 Q1836.45 179.194 1839.53 179.194 Q1839.97 179.194 1840.5 179.264 Q1841.03 179.31 1841.68 179.426 L1841.7 183.801 Z" fill="#000000" fill-rule="nonzero" fill-opacity="1" /><path clip-path="url(#clip290)" d="M1856.96 208.152 Q1855.15 212.782 1853.44 214.194 Q1851.73 215.606 1848.86 215.606 L1845.45 215.606 L1845.45 212.041 L1847.95 212.041 Q1849.71 212.041 1850.69 211.208 Q1851.66 210.375 1852.84 207.273 L1853.6 205.328 L1843.12 179.819 L1847.63 179.819 L1855.73 200.097 L1863.83 179.819 L1868.35 179.819 L1856.96 208.152 Z" fill="#000000" fill-rule="nonzero" fill-opacity="1" /><path clip-path="url(#clip290)" d="M1913.05 200.814 L1913.05 191.532 L1905.41 191.532 L1905.41 187.69 L1917.68 187.69 L1917.68 202.527 Q1914.97 204.449 1911.7 205.444 Q1908.44 206.416 1904.74 206.416 Q1896.63 206.416 1892.05 201.694 Q1887.49 196.949 1887.49 188.5 Q1887.49 180.028 1892.05 175.305 Q1896.63 170.56 1904.74 170.56 Q1908.12 170.56 1911.15 171.393 Q1914.2 172.227 1916.77 173.847 L1916.77 178.824 Q1914.18 176.625 1911.26 175.514 Q1908.35 174.403 1905.13 174.403 Q1898.79 174.403 1895.59 177.944 Q1892.42 181.486 1892.42 188.5 Q1892.42 195.49 1895.59 199.032 Q1898.79 202.574 1905.13 202.574 Q1907.61 202.574 1909.55 202.157 Q1911.5 201.717 1913.05 200.814 Z" fill="#000000" fill-rule="nonzero" fill-opacity="1" /><path clip-path="url(#clip290)" d="M1930.89 175.028 L1930.89 188.014 L1936.77 188.014 Q1940.04 188.014 1941.82 186.324 Q1943.6 184.634 1943.6 181.509 Q1943.6 178.407 1941.82 176.717 Q1940.04 175.028 1936.77 175.028 L1930.89 175.028 M1926.22 171.185 L1936.77 171.185 Q1942.58 171.185 1945.55 173.824 Q1948.53 176.44 1948.53 181.509 Q1948.53 186.625 1945.55 189.24 Q1942.58 191.856 1936.77 191.856 L1930.89 191.856 L1930.89 205.745 L1926.22 205.745 L1926.22 171.185 Z" fill="#000000" fill-rule="nonzero" fill-opacity="1" /><path clip-path="url(#clip290)" d="M1959.48 175.028 L1959.48 201.902 L1965.13 201.902 Q1972.28 201.902 1975.59 198.662 Q1978.93 195.421 1978.93 188.43 Q1978.93 181.486 1975.59 178.268 Q1972.28 175.028 1965.13 175.028 L1959.48 175.028 M1954.8 171.185 L1964.41 171.185 Q1974.46 171.185 1979.16 175.375 Q1983.86 179.541 1983.86 188.43 Q1983.86 197.365 1979.13 201.555 Q1974.41 205.745 1964.41 205.745 L1954.8 205.745 L1954.8 171.185 Z" fill="#000000" fill-rule="nonzero" fill-opacity="1" /></svg>
