<?xml version="1.0" encoding="utf-8"?>
<svg xmlns="http://www.w3.org/2000/svg" xmlns:xlink="http://www.w3.org/1999/xlink" width="528" height="336" viewBox="0 0 2112 1344">
<defs>
  <clipPath id="clip200">
    <rect x="0" y="0" width="2112" height="1344"/>
  </clipPath>
</defs>
<path clip-path="url(#clip200)" d="M0 1344 L2112 1344 L2112 2.13163e-14 L0 2.13163e-14  Z" fill="#ffffff" fill-rule="evenodd" fill-opacity="1"/>
<defs>
  <clipPath id="clip201">
    <rect x="214" y="47" width="1851" height="1127"/>
  </clipPath>
</defs>
<path clip-path="url(#clip200)" d="M214.826 1173.47 L2064.76 1173.47 L2064.76 47.2441 L214.826 47.2441  Z" fill="#ffffff" fill-rule="evenodd" fill-opacity="1"/>
<polyline clip-path="url(#clip201)" style="stroke:#000000; stroke-linecap:round; stroke-linejoin:round; stroke-width:2; stroke-opacity:0.1; fill:none" points="516.2,1173.47 516.2,47.2441 "/>
<polyline clip-path="url(#clip201)" style="stroke:#000000; stroke-linecap:round; stroke-linejoin:round; stroke-width:2; stroke-opacity:0.1; fill:none" points="978.241,1173.47 978.241,47.2441 "/>
<polyline clip-path="url(#clip201)" style="stroke:#000000; stroke-linecap:round; stroke-linejoin:round; stroke-width:2; stroke-opacity:0.1; fill:none" points="1440.28,1173.47 1440.28,47.2441 "/>
<polyline clip-path="url(#clip201)" style="stroke:#000000; stroke-linecap:round; stroke-linejoin:round; stroke-width:2; stroke-opacity:0.1; fill:none" points="1902.32,1173.47 1902.32,47.2441 "/>
<polyline clip-path="url(#clip201)" style="stroke:#000000; stroke-linecap:round; stroke-linejoin:round; stroke-width:2; stroke-opacity:0.1; fill:none" points="214.826,1173.47 2064.76,1173.47 "/>
<polyline clip-path="url(#clip201)" style="stroke:#000000; stroke-linecap:round; stroke-linejoin:round; stroke-width:2; stroke-opacity:0.1; fill:none" points="214.826,891.914 2064.76,891.914 "/>
<polyline clip-path="url(#clip201)" style="stroke:#000000; stroke-linecap:round; stroke-linejoin:round; stroke-width:2; stroke-opacity:0.1; fill:none" points="214.826,610.357 2064.76,610.357 "/>
<polyline clip-path="url(#clip201)" style="stroke:#000000; stroke-linecap:round; stroke-linejoin:round; stroke-width:2; stroke-opacity:0.1; fill:none" points="214.826,328.801 2064.76,328.801 "/>
<polyline clip-path="url(#clip201)" style="stroke:#000000; stroke-linecap:round; stroke-linejoin:round; stroke-width:2; stroke-opacity:0.1; fill:none" points="214.826,47.2441 2064.76,47.2441 "/>
<polyline clip-path="url(#clip200)" style="stroke:#000000; stroke-linecap:round; stroke-linejoin:round; stroke-width:4; stroke-opacity:1; fill:none" points="214.826,1173.47 2064.76,1173.47 "/>
<polyline clip-path="url(#clip200)" style="stroke:#000000; stroke-linecap:round; stroke-linejoin:round; stroke-width:4; stroke-opacity:1; fill:none" points="516.2,1173.47 516.2,1154.57 "/>
<polyline clip-path="url(#clip200)" style="stroke:#000000; stroke-linecap:round; stroke-linejoin:round; stroke-width:4; stroke-opacity:1; fill:none" points="978.241,1173.47 978.241,1154.57 "/>
<polyline clip-path="url(#clip200)" style="stroke:#000000; stroke-linecap:round; stroke-linejoin:round; stroke-width:4; stroke-opacity:1; fill:none" points="1440.28,1173.47 1440.28,1154.57 "/>
<polyline clip-path="url(#clip200)" style="stroke:#000000; stroke-linecap:round; stroke-linejoin:round; stroke-width:4; stroke-opacity:1; fill:none" points="1902.32,1173.47 1902.32,1154.57 "/>
<path clip-path="url(#clip200)" d="M494.893 1229.63 L511.212 1229.63 L511.212 1233.57 L489.268 1233.57 L489.268 1229.63 Q491.93 1226.88 496.513 1222.25 Q501.119 1217.59 502.3 1216.25 Q504.545 1213.73 505.425 1211.99 Q506.328 1210.23 506.328 1208.54 Q506.328 1205.79 504.383 1204.05 Q502.462 1202.32 499.36 1202.32 Q497.161 1202.32 494.707 1203.08 Q492.277 1203.84 489.499 1205.4 L489.499 1200.67 Q492.323 1199.54 494.777 1198.96 Q497.231 1198.38 499.268 1198.38 Q504.638 1198.38 507.832 1201.07 Q511.027 1203.75 511.027 1208.24 Q511.027 1210.37 510.217 1212.29 Q509.43 1214.19 507.323 1216.78 Q506.744 1217.46 503.643 1220.67 Q500.541 1223.87 494.893 1229.63 Z" fill="#000000" fill-rule="nonzero" fill-opacity="1" /><path clip-path="url(#clip200)" d="M531.605 1214.42 Q528.457 1214.42 526.605 1216.58 Q524.777 1218.73 524.777 1222.48 Q524.777 1226.21 526.605 1228.38 Q528.457 1230.53 531.605 1230.53 Q534.754 1230.53 536.582 1228.38 Q538.434 1226.21 538.434 1222.48 Q538.434 1218.73 536.582 1216.58 Q534.754 1214.42 531.605 1214.42 M540.888 1199.77 L540.888 1204.03 Q539.128 1203.2 537.323 1202.76 Q535.541 1202.32 533.781 1202.32 Q529.152 1202.32 526.698 1205.44 Q524.267 1208.57 523.92 1214.89 Q525.286 1212.87 527.346 1211.81 Q529.406 1210.72 531.883 1210.72 Q537.091 1210.72 540.101 1213.89 Q543.133 1217.04 543.133 1222.48 Q543.133 1227.8 539.985 1231.02 Q536.837 1234.24 531.605 1234.24 Q525.61 1234.24 522.439 1229.65 Q519.267 1225.05 519.267 1216.32 Q519.267 1208.13 523.156 1203.27 Q527.045 1198.38 533.596 1198.38 Q535.355 1198.38 537.138 1198.73 Q538.943 1199.08 540.888 1199.77 Z" fill="#000000" fill-rule="nonzero" fill-opacity="1" /><path clip-path="url(#clip200)" d="M957.06 1229.63 L973.38 1229.63 L973.38 1233.57 L951.435 1233.57 L951.435 1229.63 Q954.097 1226.88 958.681 1222.25 Q963.287 1217.59 964.468 1216.25 Q966.713 1213.73 967.593 1211.99 Q968.495 1210.23 968.495 1208.54 Q968.495 1205.79 966.551 1204.05 Q964.63 1202.32 961.528 1202.32 Q959.329 1202.32 956.875 1203.08 Q954.444 1203.84 951.667 1205.4 L951.667 1200.67 Q954.491 1199.54 956.944 1198.96 Q959.398 1198.38 961.435 1198.38 Q966.805 1198.38 970 1201.07 Q973.194 1203.75 973.194 1208.24 Q973.194 1210.37 972.384 1212.29 Q971.597 1214.19 969.491 1216.78 Q968.912 1217.46 965.81 1220.67 Q962.708 1223.87 957.06 1229.63 Z" fill="#000000" fill-rule="nonzero" fill-opacity="1" /><path clip-path="url(#clip200)" d="M993.194 1217.15 Q989.861 1217.15 987.94 1218.94 Q986.041 1220.72 986.041 1223.84 Q986.041 1226.97 987.94 1228.75 Q989.861 1230.53 993.194 1230.53 Q996.528 1230.53 998.449 1228.75 Q1000.37 1226.95 1000.37 1223.84 Q1000.37 1220.72 998.449 1218.94 Q996.551 1217.15 993.194 1217.15 M988.518 1215.16 Q985.509 1214.42 983.819 1212.36 Q982.153 1210.3 982.153 1207.34 Q982.153 1203.2 985.092 1200.79 Q988.055 1198.38 993.194 1198.38 Q998.356 1198.38 1001.3 1200.79 Q1004.24 1203.2 1004.24 1207.34 Q1004.24 1210.3 1002.55 1212.36 Q1000.88 1214.42 997.893 1215.16 Q1001.27 1215.95 1003.15 1218.24 Q1005.05 1220.53 1005.05 1223.84 Q1005.05 1228.87 1001.97 1231.55 Q998.912 1234.24 993.194 1234.24 Q987.477 1234.24 984.398 1231.55 Q981.342 1228.87 981.342 1223.84 Q981.342 1220.53 983.241 1218.24 Q985.139 1215.95 988.518 1215.16 M986.805 1207.78 Q986.805 1210.47 988.472 1211.97 Q990.162 1213.47 993.194 1213.47 Q996.203 1213.47 997.893 1211.97 Q999.606 1210.47 999.606 1207.78 Q999.606 1205.09 997.893 1203.59 Q996.203 1202.09 993.194 1202.09 Q990.162 1202.09 988.472 1203.59 Q986.805 1205.09 986.805 1207.78 Z" fill="#000000" fill-rule="nonzero" fill-opacity="1" /><path clip-path="url(#clip200)" d="M1429.12 1214.93 Q1432.48 1215.65 1434.35 1217.92 Q1436.25 1220.19 1436.25 1223.52 Q1436.25 1228.64 1432.73 1231.44 Q1429.22 1234.24 1422.73 1234.24 Q1420.56 1234.24 1418.24 1233.8 Q1415.95 1233.38 1413.5 1232.53 L1413.5 1228.01 Q1415.44 1229.15 1417.76 1229.72 Q1420.07 1230.3 1422.6 1230.3 Q1426.99 1230.3 1429.29 1228.57 Q1431.6 1226.83 1431.6 1223.52 Q1431.6 1220.46 1429.45 1218.75 Q1427.32 1217.02 1423.5 1217.02 L1419.47 1217.02 L1419.47 1213.17 L1423.68 1213.17 Q1427.13 1213.17 1428.96 1211.81 Q1430.79 1210.42 1430.79 1207.83 Q1430.79 1205.16 1428.89 1203.75 Q1427.02 1202.32 1423.5 1202.32 Q1421.58 1202.32 1419.38 1202.73 Q1417.18 1203.15 1414.54 1204.03 L1414.54 1199.86 Q1417.2 1199.12 1419.52 1198.75 Q1421.86 1198.38 1423.92 1198.38 Q1429.24 1198.38 1432.34 1200.81 Q1435.44 1203.22 1435.44 1207.34 Q1435.44 1210.21 1433.8 1212.2 Q1432.16 1214.17 1429.12 1214.93 Z" fill="#000000" fill-rule="nonzero" fill-opacity="1" /><path clip-path="url(#clip200)" d="M1455.12 1202.09 Q1451.51 1202.09 1449.68 1205.65 Q1447.87 1209.19 1447.87 1216.32 Q1447.87 1223.43 1449.68 1226.99 Q1451.51 1230.53 1455.12 1230.53 Q1458.75 1230.53 1460.56 1226.99 Q1462.39 1223.43 1462.39 1216.32 Q1462.39 1209.19 1460.56 1205.65 Q1458.75 1202.09 1455.12 1202.09 M1455.12 1198.38 Q1460.93 1198.38 1463.98 1202.99 Q1467.06 1207.57 1467.06 1216.32 Q1467.06 1225.05 1463.98 1229.65 Q1460.93 1234.24 1455.12 1234.24 Q1449.31 1234.24 1446.23 1229.65 Q1443.17 1225.05 1443.17 1216.32 Q1443.17 1207.57 1446.23 1202.99 Q1449.31 1198.38 1455.12 1198.38 Z" fill="#000000" fill-rule="nonzero" fill-opacity="1" /><path clip-path="url(#clip200)" d="M1891.96 1214.93 Q1895.32 1215.65 1897.19 1217.92 Q1899.09 1220.19 1899.09 1223.52 Q1899.09 1228.64 1895.57 1231.44 Q1892.05 1234.24 1885.57 1234.24 Q1883.4 1234.24 1881.08 1233.8 Q1878.79 1233.38 1876.34 1232.53 L1876.34 1228.01 Q1878.28 1229.15 1880.6 1229.72 Q1882.91 1230.3 1885.43 1230.3 Q1889.83 1230.3 1892.12 1228.57 Q1894.44 1226.83 1894.44 1223.52 Q1894.44 1220.46 1892.29 1218.75 Q1890.16 1217.02 1886.34 1217.02 L1882.31 1217.02 L1882.31 1213.17 L1886.52 1213.17 Q1889.97 1213.17 1891.8 1211.81 Q1893.63 1210.42 1893.63 1207.83 Q1893.63 1205.16 1891.73 1203.75 Q1889.86 1202.32 1886.34 1202.32 Q1884.42 1202.32 1882.22 1202.73 Q1880.02 1203.15 1877.38 1204.03 L1877.38 1199.86 Q1880.04 1199.12 1882.36 1198.75 Q1884.69 1198.38 1886.75 1198.38 Q1892.08 1198.38 1895.18 1200.81 Q1898.28 1203.22 1898.28 1207.34 Q1898.28 1210.21 1896.64 1212.2 Q1894.99 1214.17 1891.96 1214.93 Z" fill="#000000" fill-rule="nonzero" fill-opacity="1" /><path clip-path="url(#clip200)" d="M1911.99 1229.63 L1928.3 1229.63 L1928.3 1233.57 L1906.36 1233.57 L1906.36 1229.63 Q1909.02 1226.88 1913.61 1222.25 Q1918.21 1217.59 1919.39 1216.25 Q1921.64 1213.73 1922.52 1211.99 Q1923.42 1210.23 1923.42 1208.54 Q1923.42 1205.79 1921.48 1204.05 Q1919.55 1202.32 1916.45 1202.32 Q1914.25 1202.32 1911.8 1203.08 Q1909.37 1203.84 1906.59 1205.4 L1906.59 1200.67 Q1909.42 1199.54 1911.87 1198.96 Q1914.32 1198.38 1916.36 1198.38 Q1921.73 1198.38 1924.93 1201.07 Q1928.12 1203.75 1928.12 1208.24 Q1928.12 1210.37 1927.31 1212.29 Q1926.52 1214.19 1924.42 1216.78 Q1923.84 1217.46 1920.74 1220.67 Q1917.63 1223.87 1911.99 1229.63 Z" fill="#000000" fill-rule="nonzero" fill-opacity="1" /><path clip-path="url(#clip200)" d="M612.09 1272.83 L603.369 1296.48 L620.843 1296.48 L612.09 1272.83 M608.461 1266.49 L615.75 1266.49 L633.861 1314.01 L627.177 1314.01 L622.848 1301.82 L601.427 1301.82 L597.099 1314.01 L590.319 1314.01 L608.461 1266.49 Z" fill="#000000" fill-rule="nonzero" fill-opacity="1" /><path clip-path="url(#clip200)" d="M670.177 1292.5 L670.177 1314.01 L664.321 1314.01 L664.321 1292.69 Q664.321 1287.63 662.347 1285.11 Q660.374 1282.6 656.427 1282.6 Q651.685 1282.6 648.947 1285.62 Q646.21 1288.65 646.21 1293.87 L646.21 1314.01 L640.322 1314.01 L640.322 1278.37 L646.21 1278.37 L646.21 1283.9 Q648.311 1280.69 651.144 1279.1 Q654.008 1277.51 657.732 1277.51 Q663.875 1277.51 667.026 1281.33 Q670.177 1285.11 670.177 1292.5 Z" fill="#000000" fill-rule="nonzero" fill-opacity="1" /><path clip-path="url(#clip200)" d="M711.49 1292.5 L711.49 1314.01 L705.634 1314.01 L705.634 1292.69 Q705.634 1287.63 703.661 1285.11 Q701.687 1282.6 697.741 1282.6 Q692.998 1282.6 690.261 1285.62 Q687.524 1288.65 687.524 1293.87 L687.524 1314.01 L681.635 1314.01 L681.635 1278.37 L687.524 1278.37 L687.524 1283.9 Q689.624 1280.69 692.457 1279.1 Q695.322 1277.51 699.045 1277.51 Q705.188 1277.51 708.339 1281.33 Q711.49 1285.11 711.49 1292.5 Z" fill="#000000" fill-rule="nonzero" fill-opacity="1" /><path clip-path="url(#clip200)" d="M722.567 1299.95 L722.567 1278.37 L728.423 1278.37 L728.423 1299.72 Q728.423 1304.78 730.397 1307.33 Q732.37 1309.85 736.317 1309.85 Q741.059 1309.85 743.796 1306.82 Q746.565 1303.8 746.565 1298.58 L746.565 1278.37 L752.422 1278.37 L752.422 1314.01 L746.565 1314.01 L746.565 1308.54 Q744.433 1311.79 741.6 1313.38 Q738.799 1314.94 735.075 1314.94 Q728.932 1314.94 725.75 1311.12 Q722.567 1307.3 722.567 1299.95 M737.303 1277.51 L737.303 1277.51 Z" fill="#000000" fill-rule="nonzero" fill-opacity="1" /><path clip-path="url(#clip200)" d="M780.686 1296.1 Q773.588 1296.1 770.851 1297.72 Q768.113 1299.34 768.113 1303.26 Q768.113 1306.38 770.15 1308.22 Q772.219 1310.04 775.752 1310.04 Q780.622 1310.04 783.55 1306.6 Q786.51 1303.13 786.51 1297.4 L786.51 1296.1 L780.686 1296.1 M792.367 1293.68 L792.367 1314.01 L786.51 1314.01 L786.51 1308.6 Q784.505 1311.85 781.513 1313.41 Q778.521 1314.94 774.193 1314.94 Q768.718 1314.94 765.472 1311.88 Q762.257 1308.79 762.257 1303.64 Q762.257 1297.62 766.267 1294.57 Q770.31 1291.51 778.299 1291.51 L786.51 1291.51 L786.51 1290.94 Q786.51 1286.9 783.837 1284.7 Q781.195 1282.47 776.389 1282.47 Q773.333 1282.47 770.437 1283.2 Q767.54 1283.94 764.867 1285.4 L764.867 1279.99 Q768.082 1278.75 771.105 1278.14 Q774.129 1277.51 776.994 1277.51 Q784.728 1277.51 788.547 1281.52 Q792.367 1285.53 792.367 1293.68 Z" fill="#000000" fill-rule="nonzero" fill-opacity="1" /><path clip-path="url(#clip200)" d="M804.43 1264.49 L810.286 1264.49 L810.286 1314.01 L804.43 1314.01 L804.43 1264.49 Z" fill="#000000" fill-rule="nonzero" fill-opacity="1" /><path clip-path="url(#clip200)" d="M843.515 1266.49 L853.096 1266.49 L865.222 1298.83 L877.413 1266.49 L886.993 1266.49 L886.993 1314.01 L880.723 1314.01 L880.723 1272.29 L868.469 1304.88 L862.008 1304.88 L849.754 1272.29 L849.754 1314.01 L843.515 1314.01 L843.515 1266.49 Z" fill="#000000" fill-rule="nonzero" fill-opacity="1" /><path clip-path="url(#clip200)" d="M915.702 1296.1 Q908.605 1296.1 905.867 1297.72 Q903.13 1299.34 903.13 1303.26 Q903.13 1306.38 905.167 1308.22 Q907.236 1310.04 910.769 1310.04 Q915.639 1310.04 918.567 1306.6 Q921.527 1303.13 921.527 1297.4 L921.527 1296.1 L915.702 1296.1 M927.383 1293.68 L927.383 1314.01 L921.527 1314.01 L921.527 1308.6 Q919.522 1311.85 916.53 1313.41 Q913.538 1314.94 909.209 1314.94 Q903.735 1314.94 900.488 1311.88 Q897.274 1308.79 897.274 1303.64 Q897.274 1297.62 901.284 1294.57 Q905.326 1291.51 913.315 1291.51 L921.527 1291.51 L921.527 1290.94 Q921.527 1286.9 918.853 1284.7 Q916.212 1282.47 911.405 1282.47 Q908.35 1282.47 905.454 1283.2 Q902.557 1283.94 899.884 1285.4 L899.884 1279.99 Q903.098 1278.75 906.122 1278.14 Q909.146 1277.51 912.01 1277.51 Q919.745 1277.51 923.564 1281.52 Q927.383 1285.53 927.383 1293.68 Z" fill="#000000" fill-rule="nonzero" fill-opacity="1" /><path clip-path="url(#clip200)" d="M969.079 1278.37 L956.188 1295.71 L969.747 1314.01 L962.84 1314.01 L952.464 1300.01 L942.088 1314.01 L935.181 1314.01 L949.027 1295.36 L936.359 1278.37 L943.266 1278.37 L952.719 1291.07 L962.172 1278.37 L969.079 1278.37 Z" fill="#000000" fill-rule="nonzero" fill-opacity="1" /><path clip-path="url(#clip200)" d="M978.023 1278.37 L983.879 1278.37 L983.879 1314.01 L978.023 1314.01 L978.023 1278.37 M978.023 1264.49 L983.879 1264.49 L983.879 1271.91 L978.023 1271.91 L978.023 1264.49 Z" fill="#000000" fill-rule="nonzero" fill-opacity="1" /><path clip-path="url(#clip200)" d="M1023.89 1285.21 Q1026.08 1281.26 1029.14 1279.39 Q1032.19 1277.51 1036.33 1277.51 Q1041.9 1277.51 1044.93 1281.42 Q1047.95 1285.31 1047.95 1292.5 L1047.95 1314.01 L1042.06 1314.01 L1042.06 1292.69 Q1042.06 1287.57 1040.25 1285.08 Q1038.43 1282.6 1034.71 1282.6 Q1030.16 1282.6 1027.52 1285.62 Q1024.87 1288.65 1024.87 1293.87 L1024.87 1314.01 L1018.99 1314.01 L1018.99 1292.69 Q1018.99 1287.53 1017.17 1285.08 Q1015.36 1282.6 1011.57 1282.6 Q1007.08 1282.6 1004.44 1285.66 Q1001.8 1288.68 1001.8 1293.87 L1001.8 1314.01 L995.91 1314.01 L995.91 1278.37 L1001.8 1278.37 L1001.8 1283.9 Q1003.8 1280.63 1006.6 1279.07 Q1009.41 1277.51 1013.26 1277.51 Q1017.14 1277.51 1019.85 1279.48 Q1022.58 1281.45 1023.89 1285.21 Z" fill="#000000" fill-rule="nonzero" fill-opacity="1" /><path clip-path="url(#clip200)" d="M1075.83 1296.1 Q1068.73 1296.1 1066 1297.72 Q1063.26 1299.34 1063.26 1303.26 Q1063.26 1306.38 1065.3 1308.22 Q1067.37 1310.04 1070.9 1310.04 Q1075.77 1310.04 1078.7 1306.6 Q1081.66 1303.13 1081.66 1297.4 L1081.66 1296.1 L1075.83 1296.1 M1087.51 1293.68 L1087.51 1314.01 L1081.66 1314.01 L1081.66 1308.6 Q1079.65 1311.85 1076.66 1313.41 Q1073.67 1314.94 1069.34 1314.94 Q1063.86 1314.94 1060.62 1311.88 Q1057.4 1308.79 1057.4 1303.64 Q1057.4 1297.62 1061.41 1294.57 Q1065.46 1291.51 1073.44 1291.51 L1081.66 1291.51 L1081.66 1290.94 Q1081.66 1286.9 1078.98 1284.7 Q1076.34 1282.47 1071.53 1282.47 Q1068.48 1282.47 1065.58 1283.2 Q1062.69 1283.94 1060.01 1285.4 L1060.01 1279.99 Q1063.23 1278.75 1066.25 1278.14 Q1069.27 1277.51 1072.14 1277.51 Q1079.87 1277.51 1083.69 1281.52 Q1087.51 1285.53 1087.51 1293.68 Z" fill="#000000" fill-rule="nonzero" fill-opacity="1" /><path clip-path="url(#clip200)" d="M1099.58 1264.49 L1105.43 1264.49 L1105.43 1314.01 L1099.58 1314.01 L1099.58 1264.49 Z" fill="#000000" fill-rule="nonzero" fill-opacity="1" /><path clip-path="url(#clip200)" d="M1132.07 1266.49 L1172.27 1266.49 L1172.27 1271.91 L1155.4 1271.91 L1155.4 1314.01 L1148.94 1314.01 L1148.94 1271.91 L1132.07 1271.91 L1132.07 1266.49 Z" fill="#000000" fill-rule="nonzero" fill-opacity="1" /><path clip-path="url(#clip200)" d="M1197.64 1294.73 L1197.64 1297.59 L1170.71 1297.59 Q1171.09 1303.64 1174.34 1306.82 Q1177.62 1309.97 1183.44 1309.97 Q1186.82 1309.97 1189.97 1309.14 Q1193.15 1308.32 1196.27 1306.66 L1196.27 1312.2 Q1193.12 1313.54 1189.81 1314.24 Q1186.5 1314.94 1183.09 1314.94 Q1174.56 1314.94 1169.57 1309.97 Q1164.6 1305.01 1164.6 1296.54 Q1164.6 1287.79 1169.31 1282.66 Q1174.05 1277.51 1182.08 1277.51 Q1189.27 1277.51 1193.44 1282.15 Q1197.64 1286.77 1197.64 1294.73 M1191.78 1293.01 Q1191.72 1288.2 1189.08 1285.34 Q1186.47 1282.47 1182.14 1282.47 Q1177.24 1282.47 1174.28 1285.24 Q1171.35 1288.01 1170.9 1293.04 L1191.78 1293.01 Z" fill="#000000" fill-rule="nonzero" fill-opacity="1" /><path clip-path="url(#clip200)" d="M1235.01 1285.21 Q1237.2 1281.26 1240.26 1279.39 Q1243.31 1277.51 1247.45 1277.51 Q1253.02 1277.51 1256.04 1281.42 Q1259.07 1285.31 1259.07 1292.5 L1259.07 1314.01 L1253.18 1314.01 L1253.18 1292.69 Q1253.18 1287.57 1251.37 1285.08 Q1249.55 1282.6 1245.83 1282.6 Q1241.28 1282.6 1238.63 1285.62 Q1235.99 1288.65 1235.99 1293.87 L1235.99 1314.01 L1230.1 1314.01 L1230.1 1292.69 Q1230.1 1287.53 1228.29 1285.08 Q1226.48 1282.6 1222.69 1282.6 Q1218.2 1282.6 1215.56 1285.66 Q1212.92 1288.68 1212.92 1293.87 L1212.92 1314.01 L1207.03 1314.01 L1207.03 1278.37 L1212.92 1278.37 L1212.92 1283.9 Q1214.92 1280.63 1217.72 1279.07 Q1220.52 1277.51 1224.38 1277.51 Q1228.26 1277.51 1230.96 1279.48 Q1233.7 1281.45 1235.01 1285.21 Z" fill="#000000" fill-rule="nonzero" fill-opacity="1" /><path clip-path="url(#clip200)" d="M1276.42 1308.67 L1276.42 1327.57 L1270.53 1327.57 L1270.53 1278.37 L1276.42 1278.37 L1276.42 1283.78 Q1278.26 1280.59 1281.06 1279.07 Q1283.89 1277.51 1287.81 1277.51 Q1294.3 1277.51 1298.34 1282.66 Q1302.42 1287.82 1302.42 1296.22 Q1302.42 1304.63 1298.34 1309.78 Q1294.3 1314.94 1287.81 1314.94 Q1283.89 1314.94 1281.06 1313.41 Q1278.26 1311.85 1276.42 1308.67 M1296.34 1296.22 Q1296.34 1289.76 1293.67 1286.1 Q1291.02 1282.41 1286.38 1282.41 Q1281.73 1282.41 1279.06 1286.1 Q1276.42 1289.76 1276.42 1296.22 Q1276.42 1302.68 1279.06 1306.38 Q1281.73 1310.04 1286.38 1310.04 Q1291.02 1310.04 1293.67 1306.38 Q1296.34 1302.68 1296.34 1296.22 Z" fill="#000000" fill-rule="nonzero" fill-opacity="1" /><path clip-path="url(#clip200)" d="M1342.62 1294.73 L1342.62 1297.59 L1315.69 1297.59 Q1316.07 1303.64 1319.32 1306.82 Q1322.6 1309.97 1328.42 1309.97 Q1331.8 1309.97 1334.95 1309.14 Q1338.13 1308.32 1341.25 1306.66 L1341.25 1312.2 Q1338.1 1313.54 1334.79 1314.24 Q1331.48 1314.94 1328.07 1314.94 Q1319.54 1314.94 1314.55 1309.97 Q1309.58 1305.01 1309.58 1296.54 Q1309.58 1287.79 1314.29 1282.66 Q1319.03 1277.51 1327.05 1277.51 Q1334.25 1277.51 1338.42 1282.15 Q1342.62 1286.77 1342.62 1294.73 M1336.76 1293.01 Q1336.7 1288.2 1334.06 1285.34 Q1331.45 1282.47 1327.12 1282.47 Q1322.22 1282.47 1319.26 1285.24 Q1316.33 1288.01 1315.88 1293.04 L1336.76 1293.01 Z" fill="#000000" fill-rule="nonzero" fill-opacity="1" /><path clip-path="url(#clip200)" d="M1372.89 1283.84 Q1371.9 1283.27 1370.72 1283.01 Q1369.58 1282.73 1368.18 1282.73 Q1363.21 1282.73 1360.54 1285.97 Q1357.9 1289.19 1357.9 1295.24 L1357.9 1314.01 L1352.01 1314.01 L1352.01 1278.37 L1357.9 1278.37 L1357.9 1283.9 Q1359.74 1280.66 1362.7 1279.1 Q1365.66 1277.51 1369.9 1277.51 Q1370.5 1277.51 1371.23 1277.6 Q1371.96 1277.67 1372.86 1277.83 L1372.89 1283.84 Z" fill="#000000" fill-rule="nonzero" fill-opacity="1" /><path clip-path="url(#clip200)" d="M1395.23 1296.1 Q1388.13 1296.1 1385.4 1297.72 Q1382.66 1299.34 1382.66 1303.26 Q1382.66 1306.38 1384.7 1308.22 Q1386.76 1310.04 1390.3 1310.04 Q1395.17 1310.04 1398.1 1306.6 Q1401.06 1303.13 1401.06 1297.4 L1401.06 1296.1 L1395.23 1296.1 M1406.91 1293.68 L1406.91 1314.01 L1401.06 1314.01 L1401.06 1308.6 Q1399.05 1311.85 1396.06 1313.41 Q1393.07 1314.94 1388.74 1314.94 Q1383.26 1314.94 1380.02 1311.88 Q1376.8 1308.79 1376.8 1303.64 Q1376.8 1297.62 1380.81 1294.57 Q1384.85 1291.51 1392.84 1291.51 L1401.06 1291.51 L1401.06 1290.94 Q1401.06 1286.9 1398.38 1284.7 Q1395.74 1282.47 1390.93 1282.47 Q1387.88 1282.47 1384.98 1283.2 Q1382.09 1283.94 1379.41 1285.4 L1379.41 1279.99 Q1382.63 1278.75 1385.65 1278.14 Q1388.67 1277.51 1391.54 1277.51 Q1399.27 1277.51 1403.09 1281.52 Q1406.91 1285.53 1406.91 1293.68 Z" fill="#000000" fill-rule="nonzero" fill-opacity="1" /><path clip-path="url(#clip200)" d="M1424.77 1268.25 L1424.77 1278.37 L1436.83 1278.37 L1436.83 1282.92 L1424.77 1282.92 L1424.77 1302.27 Q1424.77 1306.63 1425.95 1307.87 Q1427.15 1309.11 1430.82 1309.11 L1436.83 1309.11 L1436.83 1314.01 L1430.82 1314.01 Q1424.04 1314.01 1421.46 1311.5 Q1418.88 1308.95 1418.88 1302.27 L1418.88 1282.92 L1414.58 1282.92 L1414.58 1278.37 L1418.88 1278.37 L1418.88 1268.25 L1424.77 1268.25 Z" fill="#000000" fill-rule="nonzero" fill-opacity="1" /><path clip-path="url(#clip200)" d="M1443.93 1299.95 L1443.93 1278.37 L1449.79 1278.37 L1449.79 1299.72 Q1449.79 1304.78 1451.76 1307.33 Q1453.73 1309.85 1457.68 1309.85 Q1462.42 1309.85 1465.16 1306.82 Q1467.93 1303.8 1467.93 1298.58 L1467.93 1278.37 L1473.78 1278.37 L1473.78 1314.01 L1467.93 1314.01 L1467.93 1308.54 Q1465.79 1311.79 1462.96 1313.38 Q1460.16 1314.94 1456.44 1314.94 Q1450.29 1314.94 1447.11 1311.12 Q1443.93 1307.3 1443.93 1299.95 M1458.67 1277.51 L1458.67 1277.51 Z" fill="#000000" fill-rule="nonzero" fill-opacity="1" /><path clip-path="url(#clip200)" d="M1506.5 1283.84 Q1505.52 1283.27 1504.34 1283.01 Q1503.19 1282.73 1501.79 1282.73 Q1496.83 1282.73 1494.15 1285.97 Q1491.51 1289.19 1491.51 1295.24 L1491.51 1314.01 L1485.62 1314.01 L1485.62 1278.37 L1491.51 1278.37 L1491.51 1283.9 Q1493.36 1280.66 1496.32 1279.1 Q1499.28 1277.51 1503.51 1277.51 Q1504.12 1277.51 1504.85 1277.6 Q1505.58 1277.67 1506.47 1277.83 L1506.5 1283.84 Z" fill="#000000" fill-rule="nonzero" fill-opacity="1" /><path clip-path="url(#clip200)" d="M1541.71 1294.73 L1541.71 1297.59 L1514.78 1297.59 Q1515.16 1303.64 1518.41 1306.82 Q1521.69 1309.97 1527.51 1309.97 Q1530.88 1309.97 1534.04 1309.14 Q1537.22 1308.32 1540.34 1306.66 L1540.34 1312.2 Q1537.19 1313.54 1533.88 1314.24 Q1530.57 1314.94 1527.16 1314.94 Q1518.63 1314.94 1513.63 1309.97 Q1508.67 1305.01 1508.67 1296.54 Q1508.67 1287.79 1513.38 1282.66 Q1518.12 1277.51 1526.14 1277.51 Q1533.33 1277.51 1537.5 1282.15 Q1541.71 1286.77 1541.71 1294.73 M1535.85 1293.01 Q1535.79 1288.2 1533.14 1285.34 Q1530.53 1282.47 1526.21 1282.47 Q1521.3 1282.47 1518.34 1285.24 Q1515.42 1288.01 1514.97 1293.04 L1535.85 1293.01 Z" fill="#000000" fill-rule="nonzero" fill-opacity="1" /><path clip-path="url(#clip200)" d="M1586.11 1264.55 Q1581.84 1271.87 1579.77 1279.04 Q1577.7 1286.2 1577.7 1293.55 Q1577.7 1300.9 1579.77 1308.13 Q1581.87 1315.32 1586.11 1322.61 L1581.01 1322.61 Q1576.24 1315.13 1573.85 1307.9 Q1571.5 1300.68 1571.5 1293.55 Q1571.5 1286.45 1573.85 1279.26 Q1576.21 1272.06 1581.01 1264.55 L1586.11 1264.55 Z" fill="#000000" fill-rule="nonzero" fill-opacity="1" /><path clip-path="url(#clip200)" d="M1607.62 1269.74 Q1605.08 1269.74 1603.33 1271.52 Q1601.58 1273.27 1601.58 1275.82 Q1601.58 1278.33 1603.33 1280.09 Q1605.08 1281.8 1607.62 1281.8 Q1610.17 1281.8 1611.92 1280.09 Q1613.67 1278.33 1613.67 1275.82 Q1613.67 1273.31 1611.89 1271.52 Q1610.14 1269.74 1607.62 1269.74 M1607.62 1265.64 Q1609.66 1265.64 1611.54 1266.43 Q1613.42 1267.19 1614.78 1268.66 Q1616.25 1270.09 1616.98 1271.91 Q1617.71 1273.72 1617.71 1275.82 Q1617.71 1280.02 1614.75 1282.95 Q1611.82 1285.85 1607.56 1285.85 Q1603.26 1285.85 1600.4 1282.98 Q1597.53 1280.12 1597.53 1275.82 Q1597.53 1271.56 1600.46 1268.6 Q1603.39 1265.64 1607.62 1265.64 Z" fill="#000000" fill-rule="nonzero" fill-opacity="1" /><path clip-path="url(#clip200)" d="M1665.9 1270.16 L1665.9 1276.93 Q1662.65 1273.91 1658.96 1272.41 Q1655.3 1270.92 1651.16 1270.92 Q1643.02 1270.92 1638.69 1275.92 Q1634.36 1280.88 1634.36 1290.3 Q1634.36 1299.69 1638.69 1304.69 Q1643.02 1309.65 1651.16 1309.65 Q1655.3 1309.65 1658.96 1308.16 Q1662.65 1306.66 1665.9 1303.64 L1665.9 1310.35 Q1662.53 1312.65 1658.74 1313.79 Q1654.98 1314.94 1650.78 1314.94 Q1639.99 1314.94 1633.79 1308.35 Q1627.58 1301.73 1627.58 1290.3 Q1627.58 1278.84 1633.79 1272.26 Q1639.99 1265.64 1650.78 1265.64 Q1655.05 1265.64 1658.8 1266.78 Q1662.59 1267.9 1665.9 1270.16 Z" fill="#000000" fill-rule="nonzero" fill-opacity="1" /><path clip-path="url(#clip200)" d="M1674.65 1264.55 L1679.75 1264.55 Q1684.52 1272.06 1686.88 1279.26 Q1689.26 1286.45 1689.26 1293.55 Q1689.26 1300.68 1686.88 1307.9 Q1684.52 1315.13 1679.75 1322.61 L1674.65 1322.61 Q1678.89 1315.32 1680.96 1308.13 Q1683.06 1300.9 1683.06 1293.55 Q1683.06 1286.2 1680.96 1279.04 Q1678.89 1271.87 1674.65 1264.55 Z" fill="#000000" fill-rule="nonzero" fill-opacity="1" /><polyline clip-path="url(#clip200)" style="stroke:#000000; stroke-linecap:round; stroke-linejoin:round; stroke-width:4; stroke-opacity:1; fill:none" points="214.826,1173.47 214.826,47.2441 "/>
<polyline clip-path="url(#clip200)" style="stroke:#000000; stroke-linecap:round; stroke-linejoin:round; stroke-width:4; stroke-opacity:1; fill:none" points="214.826,1173.47 233.724,1173.47 "/>
<polyline clip-path="url(#clip200)" style="stroke:#000000; stroke-linecap:round; stroke-linejoin:round; stroke-width:4; stroke-opacity:1; fill:none" points="214.826,891.914 233.724,891.914 "/>
<polyline clip-path="url(#clip200)" style="stroke:#000000; stroke-linecap:round; stroke-linejoin:round; stroke-width:4; stroke-opacity:1; fill:none" points="214.826,610.357 233.724,610.357 "/>
<polyline clip-path="url(#clip200)" style="stroke:#000000; stroke-linecap:round; stroke-linejoin:round; stroke-width:4; stroke-opacity:1; fill:none" points="214.826,328.801 233.724,328.801 "/>
<polyline clip-path="url(#clip200)" style="stroke:#000000; stroke-linecap:round; stroke-linejoin:round; stroke-width:4; stroke-opacity:1; fill:none" points="214.826,47.2441 233.724,47.2441 "/>
<path clip-path="url(#clip200)" d="M125.971 1159.27 Q122.36 1159.27 120.531 1162.83 Q118.725 1166.38 118.725 1173.51 Q118.725 1180.61 120.531 1184.18 Q122.36 1187.72 125.971 1187.72 Q129.605 1187.72 131.41 1184.18 Q133.239 1180.61 133.239 1173.51 Q133.239 1166.38 131.41 1162.83 Q129.605 1159.27 125.971 1159.27 M125.971 1155.57 Q131.781 1155.57 134.836 1160.17 Q137.915 1164.76 137.915 1173.51 Q137.915 1182.23 134.836 1186.84 Q131.781 1191.42 125.971 1191.42 Q120.16 1191.42 117.082 1186.84 Q114.026 1182.23 114.026 1173.51 Q114.026 1164.76 117.082 1160.17 Q120.16 1155.57 125.971 1155.57 Z" fill="#000000" fill-rule="nonzero" fill-opacity="1" /><path clip-path="url(#clip200)" d="M146.133 1184.87 L151.017 1184.87 L151.017 1190.75 L146.133 1190.75 L146.133 1184.87 Z" fill="#000000" fill-rule="nonzero" fill-opacity="1" /><path clip-path="url(#clip200)" d="M171.202 1159.27 Q167.591 1159.27 165.762 1162.83 Q163.957 1166.38 163.957 1173.51 Q163.957 1180.61 165.762 1184.18 Q167.591 1187.72 171.202 1187.72 Q174.836 1187.72 176.642 1184.18 Q178.47 1180.61 178.47 1173.51 Q178.47 1166.38 176.642 1162.83 Q174.836 1159.27 171.202 1159.27 M171.202 1155.57 Q177.012 1155.57 180.068 1160.17 Q183.146 1164.76 183.146 1173.51 Q183.146 1182.23 180.068 1186.84 Q177.012 1191.42 171.202 1191.42 Q165.392 1191.42 162.313 1186.84 Q159.258 1182.23 159.258 1173.51 Q159.258 1164.76 162.313 1160.17 Q165.392 1155.57 171.202 1155.57 Z" fill="#000000" fill-rule="nonzero" fill-opacity="1" /><path clip-path="url(#clip200)" d="M127.197 877.713 Q123.586 877.713 121.758 881.278 Q119.952 884.819 119.952 891.949 Q119.952 899.055 121.758 902.62 Q123.586 906.162 127.197 906.162 Q130.832 906.162 132.637 902.62 Q134.466 899.055 134.466 891.949 Q134.466 884.819 132.637 881.278 Q130.832 877.713 127.197 877.713 M127.197 874.009 Q133.008 874.009 136.063 878.616 Q139.142 883.199 139.142 891.949 Q139.142 900.676 136.063 905.282 Q133.008 909.865 127.197 909.865 Q121.387 909.865 118.309 905.282 Q115.253 900.676 115.253 891.949 Q115.253 883.199 118.309 878.616 Q121.387 874.009 127.197 874.009 Z" fill="#000000" fill-rule="nonzero" fill-opacity="1" /><path clip-path="url(#clip200)" d="M147.359 903.314 L152.244 903.314 L152.244 909.194 L147.359 909.194 L147.359 903.314 Z" fill="#000000" fill-rule="nonzero" fill-opacity="1" /><path clip-path="url(#clip200)" d="M163.239 905.259 L170.878 905.259 L170.878 878.893 L162.568 880.56 L162.568 876.301 L170.832 874.634 L175.507 874.634 L175.507 905.259 L183.146 905.259 L183.146 909.194 L163.239 909.194 L163.239 905.259 Z" fill="#000000" fill-rule="nonzero" fill-opacity="1" /><path clip-path="url(#clip200)" d="M127.568 596.156 Q123.957 596.156 122.128 599.721 Q120.323 603.263 120.323 610.392 Q120.323 617.499 122.128 621.063 Q123.957 624.605 127.568 624.605 Q131.202 624.605 133.008 621.063 Q134.836 617.499 134.836 610.392 Q134.836 603.263 133.008 599.721 Q131.202 596.156 127.568 596.156 M127.568 592.452 Q133.378 592.452 136.434 597.059 Q139.512 601.642 139.512 610.392 Q139.512 619.119 136.434 623.725 Q133.378 628.309 127.568 628.309 Q121.758 628.309 118.679 623.725 Q115.623 619.119 115.623 610.392 Q115.623 601.642 118.679 597.059 Q121.758 592.452 127.568 592.452 Z" fill="#000000" fill-rule="nonzero" fill-opacity="1" /><path clip-path="url(#clip200)" d="M147.73 621.758 L152.614 621.758 L152.614 627.637 L147.73 627.637 L147.73 621.758 Z" fill="#000000" fill-rule="nonzero" fill-opacity="1" /><path clip-path="url(#clip200)" d="M166.827 623.702 L183.146 623.702 L183.146 627.637 L161.202 627.637 L161.202 623.702 Q163.864 620.948 168.447 616.318 Q173.054 611.665 174.234 610.323 Q176.48 607.8 177.359 606.063 Q178.262 604.304 178.262 602.614 Q178.262 599.86 176.318 598.124 Q174.396 596.388 171.294 596.388 Q169.095 596.388 166.642 597.151 Q164.211 597.915 161.433 599.466 L161.433 594.744 Q164.257 593.61 166.711 593.031 Q169.165 592.452 171.202 592.452 Q176.572 592.452 179.767 595.138 Q182.961 597.823 182.961 602.313 Q182.961 604.443 182.151 606.364 Q181.364 608.263 179.257 610.855 Q178.679 611.526 175.577 614.744 Q172.475 617.938 166.827 623.702 Z" fill="#000000" fill-rule="nonzero" fill-opacity="1" /><path clip-path="url(#clip200)" d="M126.619 314.599 Q123.008 314.599 121.179 318.164 Q119.373 321.706 119.373 328.835 Q119.373 335.942 121.179 339.507 Q123.008 343.048 126.619 343.048 Q130.253 343.048 132.059 339.507 Q133.887 335.942 133.887 328.835 Q133.887 321.706 132.059 318.164 Q130.253 314.599 126.619 314.599 M126.619 310.896 Q132.429 310.896 135.484 315.502 Q138.563 320.086 138.563 328.835 Q138.563 337.562 135.484 342.169 Q132.429 346.752 126.619 346.752 Q120.809 346.752 117.73 342.169 Q114.674 337.562 114.674 328.835 Q114.674 320.086 117.73 315.502 Q120.809 310.896 126.619 310.896 Z" fill="#000000" fill-rule="nonzero" fill-opacity="1" /><path clip-path="url(#clip200)" d="M146.781 340.201 L151.665 340.201 L151.665 346.081 L146.781 346.081 L146.781 340.201 Z" fill="#000000" fill-rule="nonzero" fill-opacity="1" /><path clip-path="url(#clip200)" d="M176.017 327.447 Q179.373 328.164 181.248 330.433 Q183.146 332.701 183.146 336.035 Q183.146 341.15 179.628 343.951 Q176.109 346.752 169.628 346.752 Q167.452 346.752 165.137 346.312 Q162.845 345.896 160.392 345.039 L160.392 340.525 Q162.336 341.659 164.651 342.238 Q166.966 342.817 169.489 342.817 Q173.887 342.817 176.179 341.081 Q178.494 339.345 178.494 336.035 Q178.494 332.979 176.341 331.266 Q174.211 329.53 170.392 329.53 L166.364 329.53 L166.364 325.687 L170.577 325.687 Q174.026 325.687 175.855 324.322 Q177.683 322.933 177.683 320.34 Q177.683 317.678 175.785 316.266 Q173.91 314.831 170.392 314.831 Q168.47 314.831 166.271 315.248 Q164.072 315.664 161.433 316.544 L161.433 312.377 Q164.095 311.636 166.41 311.266 Q168.748 310.896 170.808 310.896 Q176.132 310.896 179.234 313.326 Q182.336 315.734 182.336 319.854 Q182.336 322.724 180.693 324.715 Q179.049 326.683 176.017 327.447 Z" fill="#000000" fill-rule="nonzero" fill-opacity="1" /><path clip-path="url(#clip200)" d="M125.485 33.0428 Q121.873 33.0428 120.045 36.6076 Q118.239 40.1492 118.239 47.2788 Q118.239 54.3853 120.045 57.9501 Q121.873 61.4917 125.485 61.4917 Q129.119 61.4917 130.924 57.9501 Q132.753 54.3853 132.753 47.2788 Q132.753 40.1492 130.924 36.6076 Q129.119 33.0428 125.485 33.0428 M125.485 29.3391 Q131.295 29.3391 134.35 33.9456 Q137.429 38.5289 137.429 47.2788 Q137.429 56.0056 134.35 60.6121 Q131.295 65.1954 125.485 65.1954 Q119.674 65.1954 116.596 60.6121 Q113.54 56.0056 113.54 47.2788 Q113.54 38.5289 116.596 33.9456 Q119.674 29.3391 125.485 29.3391 Z" fill="#000000" fill-rule="nonzero" fill-opacity="1" /><path clip-path="url(#clip200)" d="M145.646 58.6445 L150.531 58.6445 L150.531 64.5241 L145.646 64.5241 L145.646 58.6445 Z" fill="#000000" fill-rule="nonzero" fill-opacity="1" /><path clip-path="url(#clip200)" d="M173.563 34.0381 L161.757 52.4871 L173.563 52.4871 L173.563 34.0381 M172.336 29.9641 L178.216 29.9641 L178.216 52.4871 L183.146 52.4871 L183.146 56.376 L178.216 56.376 L178.216 64.5241 L173.563 64.5241 L173.563 56.376 L157.961 56.376 L157.961 51.8621 L172.336 29.9641 Z" fill="#000000" fill-rule="nonzero" fill-opacity="1" /><path clip-path="url(#clip200)" d="M25.3677 662.333 L43.2235 662.333 L43.2235 654.249 Q43.2235 649.761 40.9 647.31 Q38.5765 644.86 34.2797 644.86 Q30.0147 644.86 27.6912 647.31 Q25.3677 649.761 25.3677 654.249 L25.3677 662.333 M20.0842 668.763 L20.0842 654.249 Q20.0842 646.26 23.7126 642.186 Q27.3092 638.08 34.2797 638.08 Q41.3138 638.08 44.9104 642.186 Q48.507 646.26 48.507 654.249 L48.507 662.333 L67.6042 662.333 L67.6042 668.763 L20.0842 668.763 Z" fill="#000000" fill-rule="nonzero" fill-opacity="1" /><path clip-path="url(#clip200)" d="M25.3677 623.025 L62.3206 623.025 L62.3206 615.259 Q62.3206 605.424 57.8646 600.873 Q53.4086 596.289 43.7964 596.289 Q34.2479 596.289 29.8237 600.873 Q25.3677 605.424 25.3677 615.259 L25.3677 623.025 M20.0842 629.455 L20.0842 616.246 Q20.0842 602.432 25.8451 595.971 Q31.5743 589.51 43.7964 589.51 Q56.0822 589.51 61.8432 596.003 Q67.6042 602.496 67.6042 616.246 L67.6042 629.455 L20.0842 629.455 Z" fill="#000000" fill-rule="nonzero" fill-opacity="1" /><path clip-path="url(#clip200)" d="M20.0842 579.261 L20.0842 551.952 L25.495 551.952 L25.495 572.832 L39.4996 572.832 L39.4996 553.989 L44.9104 553.989 L44.9104 572.832 L67.6042 572.832 L67.6042 579.261 L20.0842 579.261 Z" fill="#000000" fill-rule="nonzero" fill-opacity="1" /><path clip-path="url(#clip201)" d="M516.2 1002.83 L516.2 1173.47 L631.71 1173.47 L631.71 1002.83 L516.2 1002.83 L516.2 1002.83  Z" fill="#add8e6" fill-rule="evenodd" fill-opacity="1"/>
<polyline clip-path="url(#clip201)" style="stroke:#000000; stroke-linecap:round; stroke-linejoin:round; stroke-width:4; stroke-opacity:1; fill:none" points="516.2,1002.83 516.2,1173.47 631.71,1173.47 631.71,1002.83 516.2,1002.83 "/>
<path clip-path="url(#clip201)" d="M631.71 525.037 L631.71 1173.47 L747.22 1173.47 L747.22 525.037 L631.71 525.037 L631.71 525.037  Z" fill="#add8e6" fill-rule="evenodd" fill-opacity="1"/>
<polyline clip-path="url(#clip201)" style="stroke:#000000; stroke-linecap:round; stroke-linejoin:round; stroke-width:4; stroke-opacity:1; fill:none" points="631.71,525.037 631.71,1173.47 747.22,1173.47 747.22,525.037 631.71,525.037 "/>
<path clip-path="url(#clip201)" d="M747.22 593.293 L747.22 1173.47 L862.731 1173.47 L862.731 593.293 L747.22 593.293 L747.22 593.293  Z" fill="#add8e6" fill-rule="evenodd" fill-opacity="1"/>
<polyline clip-path="url(#clip201)" style="stroke:#000000; stroke-linecap:round; stroke-linejoin:round; stroke-width:4; stroke-opacity:1; fill:none" points="747.22,593.293 747.22,1173.47 862.731,1173.47 862.731,593.293 747.22,593.293 "/>
<path clip-path="url(#clip201)" d="M862.731 183.756 L862.731 1173.47 L978.241 1173.47 L978.241 183.756 L862.731 183.756 L862.731 183.756  Z" fill="#add8e6" fill-rule="evenodd" fill-opacity="1"/>
<polyline clip-path="url(#clip201)" style="stroke:#000000; stroke-linecap:round; stroke-linejoin:round; stroke-width:4; stroke-opacity:1; fill:none" points="862.731,183.756 862.731,1173.47 978.241,1173.47 978.241,183.756 862.731,183.756 "/>
<path clip-path="url(#clip201)" d="M978.241 47.2441 L978.241 1173.47 L1093.75 1173.47 L1093.75 47.2441 L978.241 47.2441 L978.241 47.2441  Z" fill="#add8e6" fill-rule="evenodd" fill-opacity="1"/>
<polyline clip-path="url(#clip201)" style="stroke:#000000; stroke-linecap:round; stroke-linejoin:round; stroke-width:4; stroke-opacity:1; fill:none" points="978.241,47.2441 978.241,1173.47 1093.75,1173.47 1093.75,47.2441 978.241,47.2441 "/>
<path clip-path="url(#clip201)" d="M1093.75 388.525 L1093.75 1173.47 L1209.26 1173.47 L1209.26 388.525 L1093.75 388.525 L1093.75 388.525  Z" fill="#add8e6" fill-rule="evenodd" fill-opacity="1"/>
<polyline clip-path="url(#clip201)" style="stroke:#000000; stroke-linecap:round; stroke-linejoin:round; stroke-width:4; stroke-opacity:1; fill:none" points="1093.75,388.525 1093.75,1173.47 1209.26,1173.47 1209.26,388.525 1093.75,388.525 "/>
<path clip-path="url(#clip201)" d="M1209.26 729.806 L1209.26 1173.47 L1324.77 1173.47 L1324.77 729.806 L1209.26 729.806 L1209.26 729.806  Z" fill="#add8e6" fill-rule="evenodd" fill-opacity="1"/>
<polyline clip-path="url(#clip201)" style="stroke:#000000; stroke-linecap:round; stroke-linejoin:round; stroke-width:4; stroke-opacity:1; fill:none" points="1209.26,729.806 1209.26,1173.47 1324.77,1173.47 1324.77,729.806 1209.26,729.806 "/>
<path clip-path="url(#clip201)" d="M1324.77 627.421 L1324.77 1173.47 L1440.28 1173.47 L1440.28 627.421 L1324.77 627.421 L1324.77 627.421  Z" fill="#add8e6" fill-rule="evenodd" fill-opacity="1"/>
<polyline clip-path="url(#clip201)" style="stroke:#000000; stroke-linecap:round; stroke-linejoin:round; stroke-width:4; stroke-opacity:1; fill:none" points="1324.77,627.421 1324.77,1173.47 1440.28,1173.47 1440.28,627.421 1324.77,627.421 "/>
<path clip-path="url(#clip201)" d="M1440.28 900.446 L1440.28 1173.47 L1555.79 1173.47 L1555.79 900.446 L1440.28 900.446 L1440.28 900.446  Z" fill="#add8e6" fill-rule="evenodd" fill-opacity="1"/>
<polyline clip-path="url(#clip201)" style="stroke:#000000; stroke-linecap:round; stroke-linejoin:round; stroke-width:4; stroke-opacity:1; fill:none" points="1440.28,900.446 1440.28,1173.47 1555.79,1173.47 1555.79,900.446 1440.28,900.446 "/>
<path clip-path="url(#clip201)" d="M1555.79 1105.21 L1555.79 1173.47 L1671.3 1173.47 L1671.3 1105.21 L1555.79 1105.21 L1555.79 1105.21  Z" fill="#add8e6" fill-rule="evenodd" fill-opacity="1"/>
<polyline clip-path="url(#clip201)" style="stroke:#000000; stroke-linecap:round; stroke-linejoin:round; stroke-width:4; stroke-opacity:1; fill:none" points="1555.79,1105.21 1555.79,1173.47 1671.3,1173.47 1671.3,1105.21 1555.79,1105.21 "/>
<circle clip-path="url(#clip201)" style="fill:#add8e6; stroke:none; fill-opacity:0" cx="573.955" cy="1002.83" r="2"/>
<circle clip-path="url(#clip201)" style="fill:#add8e6; stroke:none; fill-opacity:0" cx="689.465" cy="525.037" r="2"/>
<circle clip-path="url(#clip201)" style="fill:#add8e6; stroke:none; fill-opacity:0" cx="804.976" cy="593.293" r="2"/>
<circle clip-path="url(#clip201)" style="fill:#add8e6; stroke:none; fill-opacity:0" cx="920.486" cy="183.756" r="2"/>
<circle clip-path="url(#clip201)" style="fill:#add8e6; stroke:none; fill-opacity:0" cx="1036" cy="47.2441" r="2"/>
<circle clip-path="url(#clip201)" style="fill:#add8e6; stroke:none; fill-opacity:0" cx="1151.51" cy="388.525" r="2"/>
<circle clip-path="url(#clip201)" style="fill:#add8e6; stroke:none; fill-opacity:0" cx="1267.02" cy="729.806" r="2"/>
<circle clip-path="url(#clip201)" style="fill:#add8e6; stroke:none; fill-opacity:0" cx="1382.53" cy="627.421" r="2"/>
<circle clip-path="url(#clip201)" style="fill:#add8e6; stroke:none; fill-opacity:0" cx="1498.04" cy="900.446" r="2"/>
<circle clip-path="url(#clip201)" style="fill:#add8e6; stroke:none; fill-opacity:0" cx="1613.55" cy="1105.21" r="2"/>
<polyline clip-path="url(#clip201)" style="stroke:#ff0000; stroke-linecap:round; stroke-linejoin:round; stroke-width:8; stroke-opacity:1; fill:none" points="267.183,1171.9 271.687,1171.74 276.191,1171.56 280.696,1171.37 285.2,1171.15 311.581,1169.49 337.962,1166.85 364.343,1162.8 390.724,1156.8 402.997,1153.15 415.269,1148.87 427.542,1143.86 439.814,1138.05 456.264,1128.85 472.714,1117.84 489.164,1104.8 505.613,1089.54 519.206,1075.12 532.798,1058.95 546.391,1040.96 559.983,1021.08 572.623,1000.86 585.263,978.946 597.903,955.34 610.542,930.059 626.41,896.015 642.277,859.523 658.144,820.761 674.011,779.964 688.244,741.87 702.477,702.604 716.71,662.431 730.943,621.642 763.526,527.633 796.109,435.977 808.287,403.145 820.465,371.41 832.643,340.968 844.821,312.007 852.609,294.345 860.397,277.403 868.185,261.222 875.972,245.842 883.76,231.297 891.548,217.621 899.336,204.842 907.124,192.988 914.232,182.996 921.34,173.81 928.448,165.444 935.556,157.908 942.664,151.212 949.772,145.362 956.88,140.365 963.988,136.221 972.078,132.545 980.168,129.973 988.258,128.499 996.348,128.115 1004.44,128.807 1012.53,130.561 1020.62,133.358 1028.71,137.177 1041.53,145.269 1054.36,155.765 1067.19,168.546 1080.01,183.481 1087.98,193.782 1095.95,204.826 1103.91,216.577 1111.88,228.997 1127.81,255.696 1143.75,284.616 1155.95,308.075 1168.16,332.517 1180.36,357.807 1192.56,383.808 1261.38,537.744 1312.81,652.58 1327.43,684.104 1342.05,714.904 1356.67,744.882 1371.3,773.952 1385.78,801.774 1400.26,828.573 1414.74,854.303 1429.22,878.926 1445.15,904.705 1461.08,929.088 1477.01,952.064 1492.94,973.634 1505.11,989.168 1517.28,1003.89 1529.44,1017.83 1541.61,1030.97 1556.97,1046.47 1572.32,1060.79 1587.68,1073.96 1603.03,1086.02 1617.24,1096.24 1631.44,1105.59 1645.64,1114.12 1659.84,1121.86 1674.49,1129.07 1689.14,1135.53 1703.78,1141.3 1718.43,1146.41 1748.12,1154.95 1777.82,1161.36 1808.82,1166.17 1839.83,1169.42 1864.25,1171.12 1888.68,1172.24 1944.3,1173.32 1999.92,1173.47 2006.16,1173.47 2012.4,1173.47 "/>
<path clip-path="url(#clip200)" d="M1315.32 240.305 L2003.09 240.305 L2003.09 84.785 L1315.32 84.785  Z" fill="#ffffff" fill-rule="evenodd" fill-opacity="1"/>
<polyline clip-path="url(#clip200)" style="stroke:#000000; stroke-linecap:round; stroke-linejoin:round; stroke-width:4; stroke-opacity:1; fill:none" points="1315.32,240.305 2003.09,240.305 2003.09,84.785 1315.32,84.785 1315.32,240.305 "/>
<path clip-path="url(#clip200)" d="M1335.88 157.361 L1459.21 157.361 L1459.21 115.889 L1335.88 115.889 L1335.88 157.361  Z" fill="#add8e6" fill-rule="evenodd" fill-opacity="1"/>
<polyline clip-path="url(#clip200)" style="stroke:#000000; stroke-linecap:round; stroke-linejoin:round; stroke-width:4; stroke-opacity:1; fill:none" points="1335.88,157.361 1459.21,157.361 1459.21,115.889 1335.88,115.889 1335.88,157.361 "/>
<path clip-path="url(#clip200)" d="M1484.44 123.188 L1484.44 150.062 L1490.09 150.062 Q1497.24 150.062 1500.55 146.822 Q1503.88 143.581 1503.88 136.59 Q1503.88 129.646 1500.55 126.428 Q1497.24 123.188 1490.09 123.188 L1484.44 123.188 M1479.76 119.345 L1489.37 119.345 Q1499.41 119.345 1504.11 123.535 Q1508.81 127.701 1508.81 136.59 Q1508.81 145.525 1504.09 149.715 Q1499.37 153.905 1489.37 153.905 L1479.76 153.905 L1479.76 119.345 Z" fill="#000000" fill-rule="nonzero" fill-opacity="1" /><path clip-path="url(#clip200)" d="M1527.86 140.873 Q1522.7 140.873 1520.71 142.053 Q1518.72 143.234 1518.72 146.081 Q1518.72 148.349 1520.2 149.692 Q1521.71 151.011 1524.28 151.011 Q1527.82 151.011 1529.95 148.511 Q1532.1 145.988 1532.1 141.822 L1532.1 140.873 L1527.86 140.873 M1536.36 139.113 L1536.36 153.905 L1532.1 153.905 L1532.1 149.97 Q1530.64 152.331 1528.47 153.465 Q1526.29 154.576 1523.14 154.576 Q1519.16 154.576 1516.8 152.354 Q1514.46 150.109 1514.46 146.359 Q1514.46 141.984 1517.38 139.762 Q1520.32 137.539 1526.13 137.539 L1532.1 137.539 L1532.1 137.123 Q1532.1 134.183 1530.15 132.586 Q1528.23 130.965 1524.74 130.965 Q1522.52 130.965 1520.41 131.498 Q1518.3 132.03 1516.36 133.095 L1516.36 129.16 Q1518.7 128.257 1520.9 127.817 Q1523.09 127.354 1525.18 127.354 Q1530.8 127.354 1533.58 130.271 Q1536.36 133.188 1536.36 139.113 Z" fill="#000000" fill-rule="nonzero" fill-opacity="1" /><path clip-path="url(#clip200)" d="M1549.34 120.618 L1549.34 127.979 L1558.12 127.979 L1558.12 131.289 L1549.34 131.289 L1549.34 145.363 Q1549.34 148.535 1550.2 149.437 Q1551.08 150.34 1553.74 150.34 L1558.12 150.34 L1558.12 153.905 L1553.74 153.905 Q1548.81 153.905 1546.94 152.076 Q1545.06 150.224 1545.06 145.363 L1545.06 131.289 L1541.94 131.289 L1541.94 127.979 L1545.06 127.979 L1545.06 120.618 L1549.34 120.618 Z" fill="#000000" fill-rule="nonzero" fill-opacity="1" /><path clip-path="url(#clip200)" d="M1575.5 140.873 Q1570.34 140.873 1568.35 142.053 Q1566.36 143.234 1566.36 146.081 Q1566.36 148.349 1567.84 149.692 Q1569.34 151.011 1571.91 151.011 Q1575.46 151.011 1577.59 148.511 Q1579.74 145.988 1579.74 141.822 L1579.74 140.873 L1575.5 140.873 M1584 139.113 L1584 153.905 L1579.74 153.905 L1579.74 149.97 Q1578.28 152.331 1576.1 153.465 Q1573.93 154.576 1570.78 154.576 Q1566.8 154.576 1564.44 152.354 Q1562.1 150.109 1562.1 146.359 Q1562.1 141.984 1565.02 139.762 Q1567.96 137.539 1573.77 137.539 L1579.74 137.539 L1579.74 137.123 Q1579.74 134.183 1577.79 132.586 Q1575.87 130.965 1572.38 130.965 Q1570.15 130.965 1568.05 131.498 Q1565.94 132.03 1564 133.095 L1564 129.16 Q1566.34 128.257 1568.53 127.817 Q1570.73 127.354 1572.82 127.354 Q1578.44 127.354 1581.22 130.271 Q1584 133.188 1584 139.113 Z" fill="#000000" fill-rule="nonzero" fill-opacity="1" /><polyline clip-path="url(#clip200)" style="stroke:#ff0000; stroke-linecap:round; stroke-linejoin:round; stroke-width:8; stroke-opacity:1; fill:none" points="1335.88,188.465 1459.21,188.465 "/>
<path clip-path="url(#clip200)" d="M1479.76 171.185 L1499.62 171.185 L1499.62 175.12 L1484.44 175.12 L1484.44 185.305 L1498.14 185.305 L1498.14 189.24 L1484.44 189.24 L1484.44 205.745 L1479.76 205.745 L1479.76 171.185 Z" fill="#000000" fill-rule="nonzero" fill-opacity="1" /><path clip-path="url(#clip200)" d="M1503.4 179.819 L1507.66 179.819 L1507.66 205.745 L1503.4 205.745 L1503.4 179.819 M1503.4 169.727 L1507.66 169.727 L1507.66 175.12 L1503.4 175.12 L1503.4 169.727 Z" fill="#000000" fill-rule="nonzero" fill-opacity="1" /><path clip-path="url(#clip200)" d="M1520.78 172.458 L1520.78 179.819 L1529.55 179.819 L1529.55 183.129 L1520.78 183.129 L1520.78 197.203 Q1520.78 200.375 1521.64 201.277 Q1522.52 202.18 1525.18 202.18 L1529.55 202.18 L1529.55 205.745 L1525.18 205.745 Q1520.25 205.745 1518.37 203.916 Q1516.5 202.064 1516.5 197.203 L1516.5 183.129 L1513.37 183.129 L1513.37 179.819 L1516.5 179.819 L1516.5 172.458 L1520.78 172.458 Z" fill="#000000" fill-rule="nonzero" fill-opacity="1" /><path clip-path="url(#clip200)" d="M1539.37 172.458 L1539.37 179.819 L1548.14 179.819 L1548.14 183.129 L1539.37 183.129 L1539.37 197.203 Q1539.37 200.375 1540.22 201.277 Q1541.1 202.18 1543.77 202.18 L1548.14 202.18 L1548.14 205.745 L1543.77 205.745 Q1538.84 205.745 1536.96 203.916 Q1535.09 202.064 1535.09 197.203 L1535.09 183.129 L1531.96 183.129 L1531.96 179.819 L1535.09 179.819 L1535.09 172.458 L1539.37 172.458 Z" fill="#000000" fill-rule="nonzero" fill-opacity="1" /><path clip-path="url(#clip200)" d="M1575.92 191.717 L1575.92 193.801 L1556.34 193.801 Q1556.61 198.199 1558.97 200.514 Q1561.36 202.805 1565.59 202.805 Q1568.05 202.805 1570.34 202.203 Q1572.65 201.601 1574.92 200.398 L1574.92 204.426 Q1572.63 205.398 1570.22 205.907 Q1567.82 206.416 1565.34 206.416 Q1559.14 206.416 1555.5 202.805 Q1551.89 199.194 1551.89 193.037 Q1551.89 186.671 1555.32 182.944 Q1558.77 179.194 1564.6 179.194 Q1569.83 179.194 1572.86 182.574 Q1575.92 185.93 1575.92 191.717 M1571.66 190.467 Q1571.61 186.972 1569.69 184.889 Q1567.79 182.805 1564.65 182.805 Q1561.08 182.805 1558.93 184.819 Q1556.8 186.833 1556.47 190.49 L1571.66 190.467 Z" fill="#000000" fill-rule="nonzero" fill-opacity="1" /><path clip-path="url(#clip200)" d="M1599.97 183.754 L1599.97 169.727 L1604.23 169.727 L1604.23 205.745 L1599.97 205.745 L1599.97 201.856 Q1598.63 204.171 1596.57 205.305 Q1594.53 206.416 1591.66 206.416 Q1586.96 206.416 1584 202.666 Q1581.06 198.916 1581.06 192.805 Q1581.06 186.694 1584 182.944 Q1586.96 179.194 1591.66 179.194 Q1594.53 179.194 1596.57 180.328 Q1598.63 181.44 1599.97 183.754 M1585.46 192.805 Q1585.46 197.504 1587.38 200.189 Q1589.32 202.851 1592.7 202.851 Q1596.08 202.851 1598.02 200.189 Q1599.97 197.504 1599.97 192.805 Q1599.97 188.106 1598.02 185.444 Q1596.08 182.759 1592.7 182.759 Q1589.32 182.759 1587.38 185.444 Q1585.46 188.106 1585.46 192.805 Z" fill="#000000" fill-rule="nonzero" fill-opacity="1" /><path clip-path="url(#clip200)" d="M1648.97 172.319 L1648.97 176.879 Q1646.31 175.606 1643.95 174.981 Q1641.59 174.356 1639.39 174.356 Q1635.57 174.356 1633.49 175.838 Q1631.43 177.319 1631.43 180.051 Q1631.43 182.342 1632.79 183.523 Q1634.18 184.68 1638.02 185.398 L1640.85 185.977 Q1646.08 186.972 1648.56 189.495 Q1651.06 191.995 1651.06 196.208 Q1651.06 201.231 1647.68 203.824 Q1644.32 206.416 1637.82 206.416 Q1635.36 206.416 1632.58 205.861 Q1629.83 205.305 1626.87 204.217 L1626.87 199.402 Q1629.71 201 1632.45 201.81 Q1635.18 202.62 1637.82 202.62 Q1641.82 202.62 1644 201.046 Q1646.17 199.472 1646.17 196.555 Q1646.17 194.009 1644.6 192.574 Q1643.05 191.139 1639.48 190.421 L1636.64 189.865 Q1631.4 188.824 1629.07 186.602 Q1626.73 184.379 1626.73 180.421 Q1626.73 175.838 1629.95 173.199 Q1633.19 170.56 1638.86 170.56 Q1641.29 170.56 1643.81 171 Q1646.33 171.44 1648.97 172.319 Z" fill="#000000" fill-rule="nonzero" fill-opacity="1" /><path clip-path="url(#clip200)" d="M1662.38 172.458 L1662.38 179.819 L1671.15 179.819 L1671.15 183.129 L1662.38 183.129 L1662.38 197.203 Q1662.38 200.375 1663.23 201.277 Q1664.11 202.18 1666.77 202.18 L1671.15 202.18 L1671.15 205.745 L1666.77 205.745 Q1661.84 205.745 1659.97 203.916 Q1658.09 202.064 1658.09 197.203 L1658.09 183.129 L1654.97 183.129 L1654.97 179.819 L1658.09 179.819 L1658.09 172.458 L1662.38 172.458 Z" fill="#000000" fill-rule="nonzero" fill-opacity="1" /><path clip-path="url(#clip200)" d="M1688.53 192.713 Q1683.37 192.713 1681.38 193.893 Q1679.39 195.074 1679.39 197.921 Q1679.39 200.189 1680.87 201.532 Q1682.38 202.851 1684.95 202.851 Q1688.49 202.851 1690.62 200.351 Q1692.77 197.828 1692.77 193.662 L1692.77 192.713 L1688.53 192.713 M1697.03 190.953 L1697.03 205.745 L1692.77 205.745 L1692.77 201.81 Q1691.31 204.171 1689.14 205.305 Q1686.96 206.416 1683.81 206.416 Q1679.83 206.416 1677.47 204.194 Q1675.13 201.949 1675.13 198.199 Q1675.13 193.824 1678.05 191.602 Q1680.99 189.379 1686.8 189.379 L1692.77 189.379 L1692.77 188.963 Q1692.77 186.023 1690.83 184.426 Q1688.9 182.805 1685.41 182.805 Q1683.19 182.805 1681.08 183.338 Q1678.97 183.87 1677.03 184.935 L1677.03 181 Q1679.37 180.097 1681.57 179.657 Q1683.77 179.194 1685.85 179.194 Q1691.47 179.194 1694.25 182.111 Q1697.03 185.028 1697.03 190.953 Z" fill="#000000" fill-rule="nonzero" fill-opacity="1" /><path clip-path="url(#clip200)" d="M1710.02 172.458 L1710.02 179.819 L1718.79 179.819 L1718.79 183.129 L1710.02 183.129 L1710.02 197.203 Q1710.02 200.375 1710.87 201.277 Q1711.75 202.18 1714.41 202.18 L1718.79 202.18 L1718.79 205.745 L1714.41 205.745 Q1709.48 205.745 1707.61 203.916 Q1705.73 202.064 1705.73 197.203 L1705.73 183.129 L1702.61 183.129 L1702.61 179.819 L1705.73 179.819 L1705.73 172.458 L1710.02 172.458 Z" fill="#000000" fill-rule="nonzero" fill-opacity="1" /><path clip-path="url(#clip200)" d="M1724.39 179.819 L1728.65 179.819 L1728.65 205.745 L1724.39 205.745 L1724.39 179.819 M1724.39 169.727 L1728.65 169.727 L1728.65 175.12 L1724.39 175.12 L1724.39 169.727 Z" fill="#000000" fill-rule="nonzero" fill-opacity="1" /><path clip-path="url(#clip200)" d="M1747.61 182.805 Q1744.18 182.805 1742.19 185.49 Q1740.2 188.152 1740.2 192.805 Q1740.2 197.458 1742.17 200.143 Q1744.16 202.805 1747.61 202.805 Q1751.01 202.805 1753 200.12 Q1754.99 197.435 1754.99 192.805 Q1754.99 188.199 1753 185.514 Q1751.01 182.805 1747.61 182.805 M1747.61 179.194 Q1753.16 179.194 1756.33 182.805 Q1759.51 186.416 1759.51 192.805 Q1759.51 199.171 1756.33 202.805 Q1753.16 206.416 1747.61 206.416 Q1742.03 206.416 1738.86 202.805 Q1735.71 199.171 1735.71 192.805 Q1735.71 186.416 1738.86 182.805 Q1742.03 179.194 1747.61 179.194 Z" fill="#000000" fill-rule="nonzero" fill-opacity="1" /><path clip-path="url(#clip200)" d="M1788.12 190.097 L1788.12 205.745 L1783.86 205.745 L1783.86 190.236 Q1783.86 186.555 1782.42 184.727 Q1780.99 182.898 1778.12 182.898 Q1774.67 182.898 1772.68 185.097 Q1770.69 187.296 1770.69 191.092 L1770.69 205.745 L1766.4 205.745 L1766.4 179.819 L1770.69 179.819 L1770.69 183.847 Q1772.21 181.509 1774.27 180.352 Q1776.36 179.194 1779.07 179.194 Q1783.53 179.194 1785.82 181.972 Q1788.12 184.727 1788.12 190.097 Z" fill="#000000" fill-rule="nonzero" fill-opacity="1" /><path clip-path="url(#clip200)" d="M1808.39 192.713 Q1803.23 192.713 1801.24 193.893 Q1799.25 195.074 1799.25 197.921 Q1799.25 200.189 1800.73 201.532 Q1802.24 202.851 1804.81 202.851 Q1808.35 202.851 1810.48 200.351 Q1812.63 197.828 1812.63 193.662 L1812.63 192.713 L1808.39 192.713 M1816.89 190.953 L1816.89 205.745 L1812.63 205.745 L1812.63 201.81 Q1811.17 204.171 1809 205.305 Q1806.82 206.416 1803.67 206.416 Q1799.69 206.416 1797.33 204.194 Q1794.99 201.949 1794.99 198.199 Q1794.99 193.824 1797.91 191.602 Q1800.85 189.379 1806.66 189.379 L1812.63 189.379 L1812.63 188.963 Q1812.63 186.023 1810.69 184.426 Q1808.76 182.805 1805.27 182.805 Q1803.05 182.805 1800.94 183.338 Q1798.83 183.87 1796.89 184.935 L1796.89 181 Q1799.23 180.097 1801.43 179.657 Q1803.63 179.194 1805.71 179.194 Q1811.33 179.194 1814.11 182.111 Q1816.89 185.028 1816.89 190.953 Z" fill="#000000" fill-rule="nonzero" fill-opacity="1" /><path clip-path="url(#clip200)" d="M1840.69 183.801 Q1839.97 183.384 1839.11 183.199 Q1838.28 182.99 1837.26 182.99 Q1833.65 182.99 1831.7 185.352 Q1829.78 187.69 1829.78 192.088 L1829.78 205.745 L1825.5 205.745 L1825.5 179.819 L1829.78 179.819 L1829.78 183.847 Q1831.13 181.486 1833.28 180.352 Q1835.43 179.194 1838.51 179.194 Q1838.95 179.194 1839.48 179.264 Q1840.01 179.31 1840.66 179.426 L1840.69 183.801 Z" fill="#000000" fill-rule="nonzero" fill-opacity="1" /><path clip-path="url(#clip200)" d="M1855.94 208.152 Q1854.13 212.782 1852.42 214.194 Q1850.71 215.606 1847.84 215.606 L1844.44 215.606 L1844.44 212.041 L1846.94 212.041 Q1848.69 212.041 1849.67 211.208 Q1850.64 210.375 1851.82 207.273 L1852.58 205.328 L1842.1 179.819 L1846.61 179.819 L1854.71 200.097 L1862.82 179.819 L1867.33 179.819 L1855.94 208.152 Z" fill="#000000" fill-rule="nonzero" fill-opacity="1" /><path clip-path="url(#clip200)" d="M1912.03 200.814 L1912.03 191.532 L1904.39 191.532 L1904.39 187.69 L1916.66 187.69 L1916.66 202.527 Q1913.95 204.449 1910.69 205.444 Q1907.42 206.416 1903.72 206.416 Q1895.62 206.416 1891.03 201.694 Q1886.47 196.949 1886.47 188.5 Q1886.47 180.028 1891.03 175.305 Q1895.62 170.56 1903.72 170.56 Q1907.1 170.56 1910.13 171.393 Q1913.19 172.227 1915.75 173.847 L1915.75 178.824 Q1913.16 176.625 1910.25 175.514 Q1907.33 174.403 1904.11 174.403 Q1897.77 174.403 1894.57 177.944 Q1891.4 181.486 1891.4 188.5 Q1891.4 195.49 1894.57 199.032 Q1897.77 202.574 1904.11 202.574 Q1906.59 202.574 1908.53 202.157 Q1910.48 201.717 1912.03 200.814 Z" fill="#000000" fill-rule="nonzero" fill-opacity="1" /><path clip-path="url(#clip200)" d="M1925.2 171.185 L1947.05 171.185 L1947.05 175.12 L1929.88 175.12 L1929.88 185.352 L1946.33 185.352 L1946.33 189.287 L1929.88 189.287 L1929.88 201.81 L1947.47 201.81 L1947.47 205.745 L1925.2 205.745 L1925.2 171.185 Z" fill="#000000" fill-rule="nonzero" fill-opacity="1" /><path clip-path="url(#clip200)" d="M1964.06 205.745 L1950.87 171.185 L1955.75 171.185 L1966.7 200.282 L1977.68 171.185 L1982.54 171.185 L1969.37 205.745 L1964.06 205.745 Z" fill="#000000" fill-rule="nonzero" fill-opacity="1" /></svg>
