<?xml version="1.0" encoding="utf-8"?>
<svg xmlns="http://www.w3.org/2000/svg" xmlns:xlink="http://www.w3.org/1999/xlink" width="528" height="336" viewBox="0 0 2112 1344">
<defs>
  <clipPath id="clip090">
    <rect x="0" y="0" width="2112" height="1344"/>
  </clipPath>
</defs>
<path clip-path="url(#clip090)" d="M0 1344 L2112 1344 L2112 2.13163e-14 L0 2.13163e-14  Z" fill="#ffffff" fill-rule="evenodd" fill-opacity="1"/>
<defs>
  <clipPath id="clip091">
    <rect x="167" y="47" width="1687" height="1188"/>
  </clipPath>
</defs>
<path clip-path="url(#clip090)" d="M153.718 1234.58 L2064.76 1234.58 L2064.76 47.2441 L153.718 47.2441  Z" fill="#ffffff" fill-rule="evenodd" fill-opacity="1"/>
<defs>
  <clipPath id="clip092">
    <rect x="153" y="47" width="1912" height="1188"/>
  </clipPath>
</defs>
<polyline clip-path="url(#clip092)" style="stroke:#000000; stroke-linecap:round; stroke-linejoin:round; stroke-width:2; stroke-opacity:0.1; fill:none" points="408.123,1234.58 408.123,47.2441 "/>
<polyline clip-path="url(#clip092)" style="stroke:#000000; stroke-linecap:round; stroke-linejoin:round; stroke-width:2; stroke-opacity:0.1; fill:none" points="808.759,1234.58 808.759,47.2441 "/>
<polyline clip-path="url(#clip092)" style="stroke:#000000; stroke-linecap:round; stroke-linejoin:round; stroke-width:2; stroke-opacity:0.1; fill:none" points="1209.4,1234.58 1209.4,47.2441 "/>
<polyline clip-path="url(#clip092)" style="stroke:#000000; stroke-linecap:round; stroke-linejoin:round; stroke-width:2; stroke-opacity:0.1; fill:none" points="1610.03,1234.58 1610.03,47.2441 "/>
<polyline clip-path="url(#clip092)" style="stroke:#000000; stroke-linecap:round; stroke-linejoin:round; stroke-width:2; stroke-opacity:0.1; fill:none" points="2010.67,1234.58 2010.67,47.2441 "/>
<polyline clip-path="url(#clip092)" style="stroke:#000000; stroke-linecap:round; stroke-linejoin:round; stroke-width:2; stroke-opacity:0.1; fill:none" points="153.718,1116.06 2064.76,1116.06 "/>
<polyline clip-path="url(#clip092)" style="stroke:#000000; stroke-linecap:round; stroke-linejoin:round; stroke-width:2; stroke-opacity:0.1; fill:none" points="153.718,931.64 2064.76,931.64 "/>
<polyline clip-path="url(#clip092)" style="stroke:#000000; stroke-linecap:round; stroke-linejoin:round; stroke-width:2; stroke-opacity:0.1; fill:none" points="153.718,747.224 2064.76,747.224 "/>
<polyline clip-path="url(#clip092)" style="stroke:#000000; stroke-linecap:round; stroke-linejoin:round; stroke-width:2; stroke-opacity:0.1; fill:none" points="153.718,562.808 2064.76,562.808 "/>
<polyline clip-path="url(#clip092)" style="stroke:#000000; stroke-linecap:round; stroke-linejoin:round; stroke-width:2; stroke-opacity:0.1; fill:none" points="153.718,378.392 2064.76,378.392 "/>
<polyline clip-path="url(#clip092)" style="stroke:#000000; stroke-linecap:round; stroke-linejoin:round; stroke-width:2; stroke-opacity:0.1; fill:none" points="153.718,193.976 2064.76,193.976 "/>
<polyline clip-path="url(#clip090)" style="stroke:#000000; stroke-linecap:round; stroke-linejoin:round; stroke-width:4; stroke-opacity:1; fill:none" points="153.718,1234.58 2064.76,1234.58 "/>
<polyline clip-path="url(#clip090)" style="stroke:#000000; stroke-linecap:round; stroke-linejoin:round; stroke-width:4; stroke-opacity:1; fill:none" points="408.123,1234.58 408.123,1215.68 "/>
<polyline clip-path="url(#clip090)" style="stroke:#000000; stroke-linecap:round; stroke-linejoin:round; stroke-width:4; stroke-opacity:1; fill:none" points="808.759,1234.58 808.759,1215.68 "/>
<polyline clip-path="url(#clip090)" style="stroke:#000000; stroke-linecap:round; stroke-linejoin:round; stroke-width:4; stroke-opacity:1; fill:none" points="1209.4,1234.58 1209.4,1215.68 "/>
<polyline clip-path="url(#clip090)" style="stroke:#000000; stroke-linecap:round; stroke-linejoin:round; stroke-width:4; stroke-opacity:1; fill:none" points="1610.03,1234.58 1610.03,1215.68 "/>
<polyline clip-path="url(#clip090)" style="stroke:#000000; stroke-linecap:round; stroke-linejoin:round; stroke-width:4; stroke-opacity:1; fill:none" points="2010.67,1234.58 2010.67,1215.68 "/>
<path clip-path="url(#clip090)" d="M402.775 1290.74 L419.095 1290.74 L419.095 1294.67 L397.15 1294.67 L397.15 1290.74 Q399.812 1287.99 404.396 1283.36 Q409.002 1278.7 410.183 1277.36 Q412.428 1274.84 413.308 1273.1 Q414.211 1271.34 414.211 1269.65 Q414.211 1266.9 412.266 1265.16 Q410.345 1263.42 407.243 1263.42 Q405.044 1263.42 402.59 1264.19 Q400.16 1264.95 397.382 1266.5 L397.382 1261.78 Q400.206 1260.65 402.66 1260.07 Q405.113 1259.49 407.15 1259.49 Q412.521 1259.49 415.715 1262.17 Q418.91 1264.86 418.91 1269.35 Q418.91 1271.48 418.099 1273.4 Q417.312 1275.3 415.206 1277.89 Q414.627 1278.56 411.525 1281.78 Q408.424 1284.98 402.775 1290.74 Z" fill="#000000" fill-rule="nonzero" fill-opacity="1" /><path clip-path="url(#clip090)" d="M811.769 1264.19 L799.963 1282.64 L811.769 1282.64 L811.769 1264.19 M810.542 1260.11 L816.421 1260.11 L816.421 1282.64 L821.352 1282.64 L821.352 1286.53 L816.421 1286.53 L816.421 1294.67 L811.769 1294.67 L811.769 1286.53 L796.167 1286.53 L796.167 1282.01 L810.542 1260.11 Z" fill="#000000" fill-rule="nonzero" fill-opacity="1" /><path clip-path="url(#clip090)" d="M1209.8 1275.53 Q1206.65 1275.53 1204.8 1277.68 Q1202.97 1279.84 1202.97 1283.59 Q1202.97 1287.31 1204.8 1289.49 Q1206.65 1291.64 1209.8 1291.64 Q1212.95 1291.64 1214.78 1289.49 Q1216.63 1287.31 1216.63 1283.59 Q1216.63 1279.84 1214.78 1277.68 Q1212.95 1275.53 1209.8 1275.53 M1219.08 1260.88 L1219.08 1265.14 Q1217.32 1264.3 1215.52 1263.86 Q1213.74 1263.42 1211.98 1263.42 Q1207.35 1263.42 1204.89 1266.55 Q1202.46 1269.67 1202.12 1275.99 Q1203.48 1273.98 1205.54 1272.92 Q1207.6 1271.83 1210.08 1271.83 Q1215.29 1271.83 1218.3 1275 Q1221.33 1278.15 1221.33 1283.59 Q1221.33 1288.91 1218.18 1292.13 Q1215.03 1295.35 1209.8 1295.35 Q1203.81 1295.35 1200.63 1290.76 Q1197.46 1286.16 1197.46 1277.43 Q1197.46 1269.24 1201.35 1264.37 Q1205.24 1259.49 1211.79 1259.49 Q1213.55 1259.49 1215.33 1259.84 Q1217.14 1260.18 1219.08 1260.88 Z" fill="#000000" fill-rule="nonzero" fill-opacity="1" /><path clip-path="url(#clip090)" d="M1610.03 1278.26 Q1606.7 1278.26 1604.78 1280.05 Q1602.88 1281.83 1602.88 1284.95 Q1602.88 1288.08 1604.78 1289.86 Q1606.7 1291.64 1610.03 1291.64 Q1613.37 1291.64 1615.29 1289.86 Q1617.21 1288.05 1617.21 1284.95 Q1617.21 1281.83 1615.29 1280.05 Q1613.39 1278.26 1610.03 1278.26 M1605.36 1276.27 Q1602.35 1275.53 1600.66 1273.47 Q1598.99 1271.41 1598.99 1268.45 Q1598.99 1264.3 1601.93 1261.9 Q1604.89 1259.49 1610.03 1259.49 Q1615.2 1259.49 1618.13 1261.9 Q1621.07 1264.3 1621.07 1268.45 Q1621.07 1271.41 1619.38 1273.47 Q1617.72 1275.53 1614.73 1276.27 Q1618.11 1277.06 1619.99 1279.35 Q1621.88 1281.64 1621.88 1284.95 Q1621.88 1289.98 1618.81 1292.66 Q1615.75 1295.35 1610.03 1295.35 Q1604.32 1295.35 1601.24 1292.66 Q1598.18 1289.98 1598.18 1284.95 Q1598.18 1281.64 1600.08 1279.35 Q1601.98 1277.06 1605.36 1276.27 M1603.64 1268.89 Q1603.64 1271.57 1605.31 1273.08 Q1607 1274.58 1610.03 1274.58 Q1613.04 1274.58 1614.73 1273.08 Q1616.45 1271.57 1616.45 1268.89 Q1616.45 1266.2 1614.73 1264.7 Q1613.04 1263.19 1610.03 1263.19 Q1607 1263.19 1605.31 1264.7 Q1603.64 1266.2 1603.64 1268.89 Z" fill="#000000" fill-rule="nonzero" fill-opacity="1" /><path clip-path="url(#clip090)" d="M1985.36 1290.74 L1993 1290.74 L1993 1264.37 L1984.69 1266.04 L1984.69 1261.78 L1992.95 1260.11 L1997.63 1260.11 L1997.63 1290.74 L2005.26 1290.74 L2005.26 1294.67 L1985.36 1294.67 L1985.36 1290.74 Z" fill="#000000" fill-rule="nonzero" fill-opacity="1" /><path clip-path="url(#clip090)" d="M2024.71 1263.19 Q2021.1 1263.19 2019.27 1266.76 Q2017.46 1270.3 2017.46 1277.43 Q2017.46 1284.54 2019.27 1288.1 Q2021.1 1291.64 2024.71 1291.64 Q2028.34 1291.64 2030.15 1288.1 Q2031.98 1284.54 2031.98 1277.43 Q2031.98 1270.3 2030.15 1266.76 Q2028.34 1263.19 2024.71 1263.19 M2024.71 1259.49 Q2030.52 1259.49 2033.57 1264.1 Q2036.65 1268.68 2036.65 1277.43 Q2036.65 1286.16 2033.57 1290.76 Q2030.52 1295.35 2024.71 1295.35 Q2018.9 1295.35 2015.82 1290.76 Q2012.76 1286.16 2012.76 1277.43 Q2012.76 1268.68 2015.82 1264.1 Q2018.9 1259.49 2024.71 1259.49 Z" fill="#000000" fill-rule="nonzero" fill-opacity="1" /><polyline clip-path="url(#clip090)" style="stroke:#000000; stroke-linecap:round; stroke-linejoin:round; stroke-width:4; stroke-opacity:1; fill:none" points="153.718,1234.58 153.718,47.2441 "/>
<polyline clip-path="url(#clip090)" style="stroke:#000000; stroke-linecap:round; stroke-linejoin:round; stroke-width:4; stroke-opacity:1; fill:none" points="153.718,1116.06 172.616,1116.06 "/>
<polyline clip-path="url(#clip090)" style="stroke:#000000; stroke-linecap:round; stroke-linejoin:round; stroke-width:4; stroke-opacity:1; fill:none" points="153.718,931.64 172.616,931.64 "/>
<polyline clip-path="url(#clip090)" style="stroke:#000000; stroke-linecap:round; stroke-linejoin:round; stroke-width:4; stroke-opacity:1; fill:none" points="153.718,747.224 172.616,747.224 "/>
<polyline clip-path="url(#clip090)" style="stroke:#000000; stroke-linecap:round; stroke-linejoin:round; stroke-width:4; stroke-opacity:1; fill:none" points="153.718,562.808 172.616,562.808 "/>
<polyline clip-path="url(#clip090)" style="stroke:#000000; stroke-linecap:round; stroke-linejoin:round; stroke-width:4; stroke-opacity:1; fill:none" points="153.718,378.392 172.616,378.392 "/>
<polyline clip-path="url(#clip090)" style="stroke:#000000; stroke-linecap:round; stroke-linejoin:round; stroke-width:4; stroke-opacity:1; fill:none" points="153.718,193.976 172.616,193.976 "/>
<path clip-path="url(#clip090)" d="M66.4598 1101.85 Q62.8487 1101.85 61.02 1105.42 Q59.2145 1108.96 59.2145 1116.09 Q59.2145 1123.2 61.02 1126.76 Q62.8487 1130.3 66.4598 1130.3 Q70.0941 1130.3 71.8996 1126.76 Q73.7283 1123.2 73.7283 1116.09 Q73.7283 1108.96 71.8996 1105.42 Q70.0941 1101.85 66.4598 1101.85 M66.4598 1098.15 Q72.27 1098.15 75.3255 1102.76 Q78.4042 1107.34 78.4042 1116.09 Q78.4042 1124.82 75.3255 1129.42 Q72.27 1134.01 66.4598 1134.01 Q60.6497 1134.01 57.571 1129.42 Q54.5154 1124.82 54.5154 1116.09 Q54.5154 1107.34 57.571 1102.76 Q60.6497 1098.15 66.4598 1098.15 Z" fill="#000000" fill-rule="nonzero" fill-opacity="1" /><path clip-path="url(#clip090)" d="M86.6218 1127.46 L91.506 1127.46 L91.506 1133.34 L86.6218 1133.34 L86.6218 1127.46 Z" fill="#000000" fill-rule="nonzero" fill-opacity="1" /><path clip-path="url(#clip090)" d="M105.719 1129.4 L122.038 1129.4 L122.038 1133.34 L100.094 1133.34 L100.094 1129.4 Q102.756 1126.65 107.339 1122.02 Q111.946 1117.36 113.126 1116.02 Q115.372 1113.5 116.251 1111.76 Q117.154 1110 117.154 1108.31 Q117.154 1105.56 115.21 1103.82 Q113.288 1102.09 110.186 1102.09 Q107.987 1102.09 105.534 1102.85 Q103.103 1103.61 100.325 1105.16 L100.325 1100.44 Q103.149 1099.31 105.603 1098.73 Q108.057 1098.15 110.094 1098.15 Q115.464 1098.15 118.659 1100.84 Q121.853 1103.52 121.853 1108.01 Q121.853 1110.14 121.043 1112.06 Q120.256 1113.96 118.149 1116.55 Q117.571 1117.22 114.469 1120.44 Q111.367 1123.64 105.719 1129.4 Z" fill="#000000" fill-rule="nonzero" fill-opacity="1" /><path clip-path="url(#clip090)" d="M65.5108 917.438 Q61.8997 917.438 60.071 921.003 Q58.2654 924.545 58.2654 931.674 Q58.2654 938.781 60.071 942.346 Q61.8997 945.887 65.5108 945.887 Q69.145 945.887 70.9505 942.346 Q72.7792 938.781 72.7792 931.674 Q72.7792 924.545 70.9505 921.003 Q69.145 917.438 65.5108 917.438 M65.5108 913.735 Q71.3209 913.735 74.3765 918.341 Q77.4551 922.924 77.4551 931.674 Q77.4551 940.401 74.3765 945.008 Q71.3209 949.591 65.5108 949.591 Q59.7006 949.591 56.6219 945.008 Q53.5664 940.401 53.5664 931.674 Q53.5664 922.924 56.6219 918.341 Q59.7006 913.735 65.5108 913.735 Z" fill="#000000" fill-rule="nonzero" fill-opacity="1" /><path clip-path="url(#clip090)" d="M85.6727 943.04 L90.5569 943.04 L90.5569 948.92 L85.6727 948.92 L85.6727 943.04 Z" fill="#000000" fill-rule="nonzero" fill-opacity="1" /><path clip-path="url(#clip090)" d="M114.909 930.285 Q118.265 931.003 120.14 933.272 Q122.038 935.54 122.038 938.873 Q122.038 943.989 118.52 946.79 Q115.001 949.591 108.52 949.591 Q106.344 949.591 104.029 949.151 Q101.737 948.734 99.2837 947.878 L99.2837 943.364 Q101.228 944.498 103.543 945.077 Q105.858 945.656 108.381 945.656 Q112.779 945.656 115.071 943.92 Q117.385 942.184 117.385 938.873 Q117.385 935.818 115.233 934.105 Q113.103 932.369 109.284 932.369 L105.256 932.369 L105.256 928.526 L109.469 928.526 Q112.918 928.526 114.747 927.161 Q116.575 925.772 116.575 923.179 Q116.575 920.517 114.677 919.105 Q112.802 917.67 109.284 917.67 Q107.362 917.67 105.163 918.086 Q102.964 918.503 100.325 919.383 L100.325 915.216 Q102.987 914.475 105.302 914.105 Q107.64 913.735 109.7 913.735 Q115.024 913.735 118.126 916.165 Q121.228 918.573 121.228 922.693 Q121.228 925.563 119.585 927.554 Q117.941 929.522 114.909 930.285 Z" fill="#000000" fill-rule="nonzero" fill-opacity="1" /><path clip-path="url(#clip090)" d="M64.3765 733.023 Q60.7654 733.023 58.9367 736.587 Q57.1312 740.129 57.1312 747.259 Q57.1312 754.365 58.9367 757.93 Q60.7654 761.471 64.3765 761.471 Q68.0107 761.471 69.8163 757.93 Q71.645 754.365 71.645 747.259 Q71.645 740.129 69.8163 736.587 Q68.0107 733.023 64.3765 733.023 M64.3765 729.319 Q70.1867 729.319 73.2422 733.925 Q76.3209 738.509 76.3209 747.259 Q76.3209 755.985 73.2422 760.592 Q70.1867 765.175 64.3765 765.175 Q58.5664 765.175 55.4877 760.592 Q52.4321 755.985 52.4321 747.259 Q52.4321 738.509 55.4877 733.925 Q58.5664 729.319 64.3765 729.319 Z" fill="#000000" fill-rule="nonzero" fill-opacity="1" /><path clip-path="url(#clip090)" d="M84.5384 758.624 L89.4227 758.624 L89.4227 764.504 L84.5384 764.504 L84.5384 758.624 Z" fill="#000000" fill-rule="nonzero" fill-opacity="1" /><path clip-path="url(#clip090)" d="M112.455 734.018 L100.649 752.467 L112.455 752.467 L112.455 734.018 M111.228 729.944 L117.108 729.944 L117.108 752.467 L122.038 752.467 L122.038 756.356 L117.108 756.356 L117.108 764.504 L112.455 764.504 L112.455 756.356 L96.8532 756.356 L96.8532 751.842 L111.228 729.944 Z" fill="#000000" fill-rule="nonzero" fill-opacity="1" /><path clip-path="url(#clip090)" d="M65.858 548.607 Q62.2469 548.607 60.4182 552.171 Q58.6126 555.713 58.6126 562.843 Q58.6126 569.949 60.4182 573.514 Q62.2469 577.056 65.858 577.056 Q69.4922 577.056 71.2978 573.514 Q73.1265 569.949 73.1265 562.843 Q73.1265 555.713 71.2978 552.171 Q69.4922 548.607 65.858 548.607 M65.858 544.903 Q71.6681 544.903 74.7237 549.509 Q77.8024 554.093 77.8024 562.843 Q77.8024 571.57 74.7237 576.176 Q71.6681 580.759 65.858 580.759 Q60.0478 580.759 56.9691 576.176 Q53.9136 571.57 53.9136 562.843 Q53.9136 554.093 56.9691 549.509 Q60.0478 544.903 65.858 544.903 Z" fill="#000000" fill-rule="nonzero" fill-opacity="1" /><path clip-path="url(#clip090)" d="M86.0199 574.208 L90.9041 574.208 L90.9041 580.088 L86.0199 580.088 L86.0199 574.208 Z" fill="#000000" fill-rule="nonzero" fill-opacity="1" /><path clip-path="url(#clip090)" d="M101.136 545.528 L119.492 545.528 L119.492 549.463 L105.418 549.463 L105.418 557.935 Q106.436 557.588 107.455 557.426 Q108.473 557.241 109.492 557.241 Q115.279 557.241 118.659 560.412 Q122.038 563.583 122.038 569 Q122.038 574.579 118.566 577.681 Q115.094 580.759 108.774 580.759 Q106.599 580.759 104.33 580.389 Q102.085 580.019 99.6772 579.278 L99.6772 574.579 Q101.761 575.713 103.983 576.269 Q106.205 576.824 108.682 576.824 Q112.686 576.824 115.024 574.718 Q117.362 572.611 117.362 569 Q117.362 565.389 115.024 563.283 Q112.686 561.176 108.682 561.176 Q106.807 561.176 104.932 561.593 Q103.08 562.009 101.136 562.889 L101.136 545.528 Z" fill="#000000" fill-rule="nonzero" fill-opacity="1" /><path clip-path="url(#clip090)" d="M64.7006 364.191 Q61.0895 364.191 59.2608 367.756 Q57.4552 371.297 57.4552 378.427 Q57.4552 385.533 59.2608 389.098 Q61.0895 392.64 64.7006 392.64 Q68.3348 392.64 70.1404 389.098 Q71.9691 385.533 71.9691 378.427 Q71.9691 371.297 70.1404 367.756 Q68.3348 364.191 64.7006 364.191 M64.7006 360.487 Q70.5107 360.487 73.5663 365.094 Q76.645 369.677 76.645 378.427 Q76.645 387.154 73.5663 391.76 Q70.5107 396.343 64.7006 396.343 Q58.8904 396.343 55.8117 391.76 Q52.7562 387.154 52.7562 378.427 Q52.7562 369.677 55.8117 365.094 Q58.8904 360.487 64.7006 360.487 Z" fill="#000000" fill-rule="nonzero" fill-opacity="1" /><path clip-path="url(#clip090)" d="M84.8625 389.793 L89.7467 389.793 L89.7467 395.672 L84.8625 395.672 L84.8625 389.793 Z" fill="#000000" fill-rule="nonzero" fill-opacity="1" /><path clip-path="url(#clip090)" d="M110.511 376.529 Q107.362 376.529 105.511 378.682 Q103.682 380.834 103.682 384.584 Q103.682 388.311 105.511 390.487 Q107.362 392.64 110.511 392.64 Q113.659 392.64 115.487 390.487 Q117.339 388.311 117.339 384.584 Q117.339 380.834 115.487 378.682 Q113.659 376.529 110.511 376.529 M119.793 361.876 L119.793 366.135 Q118.034 365.302 116.228 364.862 Q114.446 364.422 112.686 364.422 Q108.057 364.422 105.603 367.547 Q103.173 370.672 102.825 376.992 Q104.191 374.978 106.251 373.913 Q108.311 372.825 110.788 372.825 Q115.997 372.825 119.006 375.996 Q122.038 379.145 122.038 384.584 Q122.038 389.908 118.89 393.126 Q115.742 396.343 110.511 396.343 Q104.515 396.343 101.344 391.76 Q98.1726 387.154 98.1726 378.427 Q98.1726 370.233 102.061 365.371 Q105.95 360.487 112.501 360.487 Q114.26 360.487 116.043 360.834 Q117.848 361.182 119.793 361.876 Z" fill="#000000" fill-rule="nonzero" fill-opacity="1" /><path clip-path="url(#clip090)" d="M65.7654 179.775 Q62.1543 179.775 60.3256 183.34 Q58.5201 186.882 58.5201 194.011 Q58.5201 201.118 60.3256 204.682 Q62.1543 208.224 65.7654 208.224 Q69.3996 208.224 71.2052 204.682 Q73.0339 201.118 73.0339 194.011 Q73.0339 186.882 71.2052 183.34 Q69.3996 179.775 65.7654 179.775 M65.7654 176.071 Q71.5755 176.071 74.6311 180.678 Q77.7098 185.261 77.7098 194.011 Q77.7098 202.738 74.6311 207.344 Q71.5755 211.928 65.7654 211.928 Q59.9552 211.928 56.8765 207.344 Q53.821 202.738 53.821 194.011 Q53.821 185.261 56.8765 180.678 Q59.9552 176.071 65.7654 176.071 Z" fill="#000000" fill-rule="nonzero" fill-opacity="1" /><path clip-path="url(#clip090)" d="M85.9273 205.377 L90.8115 205.377 L90.8115 211.256 L85.9273 211.256 L85.9273 205.377 Z" fill="#000000" fill-rule="nonzero" fill-opacity="1" /><path clip-path="url(#clip090)" d="M99.8161 176.696 L122.038 176.696 L122.038 178.687 L109.492 211.256 L104.608 211.256 L116.413 180.632 L99.8161 180.632 L99.8161 176.696 Z" fill="#000000" fill-rule="nonzero" fill-opacity="1" /><path clip-path="url(#clip092)" d="M207.804 80.8479 L408.123 331.867 L608.441 83.8822 L808.759 1200.97 L1009.08 322.894 L1209.4 1149.27 L1409.71 507.815 L1610.03 629.191 L1810.35 1030.49 L2010.67 699.96 L2010.67 562.808 L1810.35 562.808 L1610.03 562.808 L1409.71 562.808 L1209.4 562.808 L1009.08 562.808 L808.759 562.808 L608.441 562.808 L408.123 562.808 L207.804 562.808  Z" fill="#009af9" fill-rule="evenodd" fill-opacity="1"/>
<polyline clip-path="url(#clip092)" style="stroke:#009af9; stroke-linecap:round; stroke-linejoin:round; stroke-width:4; stroke-opacity:1; fill:none" points="207.804,80.8479 408.123,331.867 608.441,83.8822 808.759,1200.97 1009.08,322.894 1209.4,1149.27 1409.71,507.815 1610.03,629.191 1810.35,1030.49 2010.67,699.96 "/>
<path clip-path="url(#clip090)" d="M821.024 190.502 L1397.45 190.502 L1397.45 86.8219 L821.024 86.8219  Z" fill="#ffffff" fill-rule="evenodd" fill-opacity="1"/>
<polyline clip-path="url(#clip090)" style="stroke:#000000; stroke-linecap:round; stroke-linejoin:round; stroke-width:4; stroke-opacity:1; fill:none" points="821.024,190.502 1397.45,190.502 1397.45,86.8219 821.024,86.8219 821.024,190.502 "/>
<path clip-path="url(#clip090)" d="M842.258 159.398 L969.66 159.398 L969.66 117.926 L842.258 117.926 L842.258 159.398  Z" fill="#009af9" fill-rule="evenodd" fill-opacity="1"/>
<polyline clip-path="url(#clip090)" style="stroke:#009af9; stroke-linecap:round; stroke-linejoin:round; stroke-width:4; stroke-opacity:1; fill:none" points="842.258,117.926 969.66,117.926 "/>
<path clip-path="url(#clip090)" d="M1004.3 142.91 Q999.135 142.91 997.144 144.09 Q995.153 145.271 995.153 148.118 Q995.153 150.386 996.635 151.729 Q998.14 153.048 1000.71 153.048 Q1004.25 153.048 1006.38 150.548 Q1008.53 148.025 1008.53 143.859 L1008.53 142.91 L1004.3 142.91 M1012.79 141.15 L1012.79 155.942 L1008.53 155.942 L1008.53 152.007 Q1007.07 154.368 1004.9 155.502 Q1002.72 156.613 999.575 156.613 Q995.593 156.613 993.232 154.391 Q990.894 152.146 990.894 148.396 Q990.894 144.021 993.811 141.798 Q996.751 139.576 1002.56 139.576 L1008.53 139.576 L1008.53 139.16 Q1008.53 136.22 1006.59 134.623 Q1004.67 133.002 1001.17 133.002 Q998.95 133.002 996.843 133.535 Q994.737 134.067 992.792 135.132 L992.792 131.197 Q995.13 130.294 997.329 129.854 Q999.528 129.391 1001.61 129.391 Q1007.24 129.391 1010.01 132.308 Q1012.79 135.224 1012.79 141.15 Z" fill="#000000" fill-rule="nonzero" fill-opacity="1" /><path clip-path="url(#clip090)" d="M1040.18 143.002 Q1040.18 138.303 1038.23 135.641 Q1036.31 132.956 1032.93 132.956 Q1029.55 132.956 1027.61 135.641 Q1025.69 138.303 1025.69 143.002 Q1025.69 147.701 1027.61 150.386 Q1029.55 153.048 1032.93 153.048 Q1036.31 153.048 1038.23 150.386 Q1040.18 147.701 1040.18 143.002 M1025.69 133.951 Q1027.03 131.636 1029.07 130.525 Q1031.13 129.391 1033.97 129.391 Q1038.69 129.391 1041.63 133.141 Q1044.6 136.891 1044.6 143.002 Q1044.6 149.113 1041.63 152.863 Q1038.69 156.613 1033.97 156.613 Q1031.13 156.613 1029.07 155.502 Q1027.03 154.368 1025.69 152.053 L1025.69 155.942 L1021.4 155.942 L1021.4 119.924 L1025.69 119.924 L1025.69 133.951 Z" fill="#000000" fill-rule="nonzero" fill-opacity="1" /><path clip-path="url(#clip090)" d="M1061.7 133.002 Q1058.28 133.002 1056.29 135.687 Q1054.3 138.349 1054.3 143.002 Q1054.3 147.655 1056.26 150.34 Q1058.25 153.002 1061.7 153.002 Q1065.11 153.002 1067.1 150.317 Q1069.09 147.632 1069.09 143.002 Q1069.09 138.396 1067.1 135.711 Q1065.11 133.002 1061.7 133.002 M1061.7 129.391 Q1067.26 129.391 1070.43 133.002 Q1073.6 136.613 1073.6 143.002 Q1073.6 149.368 1070.43 153.002 Q1067.26 156.613 1061.7 156.613 Q1056.13 156.613 1052.95 153.002 Q1049.81 149.368 1049.81 143.002 Q1049.81 136.613 1052.95 133.002 Q1056.13 129.391 1061.7 129.391 Z" fill="#000000" fill-rule="nonzero" fill-opacity="1" /><path clip-path="url(#clip090)" d="M1077.61 130.016 L1082.12 130.016 L1090.22 151.775 L1098.32 130.016 L1102.84 130.016 L1093.12 155.942 L1087.33 155.942 L1077.61 130.016 Z" fill="#000000" fill-rule="nonzero" fill-opacity="1" /><path clip-path="url(#clip090)" d="M1130.89 141.914 L1130.89 143.998 L1111.31 143.998 Q1111.59 148.396 1113.95 150.71 Q1116.33 153.002 1120.57 153.002 Q1123.02 153.002 1125.31 152.4 Q1127.63 151.798 1129.9 150.595 L1129.9 154.622 Q1127.61 155.595 1125.2 156.104 Q1122.79 156.613 1120.31 156.613 Q1114.11 156.613 1110.48 153.002 Q1106.87 149.391 1106.87 143.234 Q1106.87 136.868 1110.29 133.141 Q1113.74 129.391 1119.57 129.391 Q1124.81 129.391 1127.84 132.771 Q1130.89 136.127 1130.89 141.914 M1126.63 140.664 Q1126.59 137.169 1124.67 135.086 Q1122.77 133.002 1119.62 133.002 Q1116.06 133.002 1113.9 135.016 Q1111.77 137.03 1111.45 140.687 L1126.63 140.664 Z" fill="#000000" fill-rule="nonzero" fill-opacity="1" /><path clip-path="url(#clip090)" d="M1145.45 121.382 L1149.39 121.382 L1137.35 160.34 L1133.42 160.34 L1145.45 121.382 Z" fill="#000000" fill-rule="nonzero" fill-opacity="1" /><path clip-path="url(#clip090)" d="M1172.47 143.002 Q1172.47 138.303 1170.52 135.641 Q1168.6 132.956 1165.22 132.956 Q1161.84 132.956 1159.9 135.641 Q1157.98 138.303 1157.98 143.002 Q1157.98 147.701 1159.9 150.386 Q1161.84 153.048 1165.22 153.048 Q1168.6 153.048 1170.52 150.386 Q1172.47 147.701 1172.47 143.002 M1157.98 133.951 Q1159.32 131.636 1161.36 130.525 Q1163.42 129.391 1166.26 129.391 Q1170.99 129.391 1173.93 133.141 Q1176.89 136.891 1176.89 143.002 Q1176.89 149.113 1173.93 152.863 Q1170.99 156.613 1166.26 156.613 Q1163.42 156.613 1161.36 155.502 Q1159.32 154.368 1157.98 152.053 L1157.98 155.942 L1153.69 155.942 L1153.69 119.924 L1157.98 119.924 L1157.98 133.951 Z" fill="#000000" fill-rule="nonzero" fill-opacity="1" /><path clip-path="url(#clip090)" d="M1206.12 141.914 L1206.12 143.998 L1186.54 143.998 Q1186.82 148.396 1189.18 150.71 Q1191.56 153.002 1195.8 153.002 Q1198.25 153.002 1200.55 152.4 Q1202.86 151.798 1205.13 150.595 L1205.13 154.622 Q1202.84 155.595 1200.43 156.104 Q1198.02 156.613 1195.55 156.613 Q1189.34 156.613 1185.71 153.002 Q1182.1 149.391 1182.1 143.234 Q1182.1 136.868 1185.52 133.141 Q1188.97 129.391 1194.81 129.391 Q1200.04 129.391 1203.07 132.771 Q1206.12 136.127 1206.12 141.914 M1201.87 140.664 Q1201.82 137.169 1199.9 135.086 Q1198 133.002 1194.85 133.002 Q1191.29 133.002 1189.13 135.016 Q1187 137.03 1186.68 140.687 L1201.87 140.664 Z" fill="#000000" fill-rule="nonzero" fill-opacity="1" /><path clip-path="url(#clip090)" d="M1213.12 119.924 L1217.37 119.924 L1217.37 155.942 L1213.12 155.942 L1213.12 119.924 Z" fill="#000000" fill-rule="nonzero" fill-opacity="1" /><path clip-path="url(#clip090)" d="M1236.33 133.002 Q1232.91 133.002 1230.92 135.687 Q1228.93 138.349 1228.93 143.002 Q1228.93 147.655 1230.89 150.34 Q1232.88 153.002 1236.33 153.002 Q1239.74 153.002 1241.73 150.317 Q1243.72 147.632 1243.72 143.002 Q1243.72 138.396 1241.73 135.711 Q1239.74 133.002 1236.33 133.002 M1236.33 129.391 Q1241.89 129.391 1245.06 133.002 Q1248.23 136.613 1248.23 143.002 Q1248.23 149.368 1245.06 153.002 Q1241.89 156.613 1236.33 156.613 Q1230.75 156.613 1227.58 153.002 Q1224.43 149.368 1224.43 143.002 Q1224.43 136.613 1227.58 133.002 Q1230.75 129.391 1236.33 129.391 Z" fill="#000000" fill-rule="nonzero" fill-opacity="1" /><path clip-path="url(#clip090)" d="M1252.81 130.016 L1257.07 130.016 L1262.4 150.248 L1267.7 130.016 L1272.72 130.016 L1278.05 150.248 L1283.35 130.016 L1287.61 130.016 L1280.82 155.942 L1275.8 155.942 L1270.22 134.692 L1264.62 155.942 L1259.6 155.942 L1252.81 130.016 Z" fill="#000000" fill-rule="nonzero" fill-opacity="1" /><path clip-path="url(#clip090)" d="M1310.55 152.007 L1318.18 152.007 L1318.18 125.641 L1309.87 127.308 L1309.87 123.049 L1318.14 121.382 L1322.81 121.382 L1322.81 152.007 L1330.45 152.007 L1330.45 155.942 L1310.55 155.942 L1310.55 152.007 Z" fill="#000000" fill-rule="nonzero" fill-opacity="1" /><path clip-path="url(#clip090)" d="M1346.86 121.382 L1350.8 121.382 L1338.76 160.34 L1334.83 160.34 L1346.86 121.382 Z" fill="#000000" fill-rule="nonzero" fill-opacity="1" /><path clip-path="url(#clip090)" d="M1359.9 152.007 L1376.22 152.007 L1376.22 155.942 L1354.27 155.942 L1354.27 152.007 Q1356.93 149.252 1361.52 144.623 Q1366.12 139.97 1367.3 138.627 Q1369.55 136.104 1370.43 134.368 Q1371.33 132.609 1371.33 130.919 Q1371.33 128.164 1369.39 126.428 Q1367.47 124.692 1364.36 124.692 Q1362.17 124.692 1359.71 125.456 Q1357.28 126.22 1354.5 127.771 L1354.5 123.049 Q1357.33 121.914 1359.78 121.336 Q1362.23 120.757 1364.27 120.757 Q1369.64 120.757 1372.84 123.442 Q1376.03 126.127 1376.03 130.618 Q1376.03 132.748 1375.22 134.669 Q1374.43 136.567 1372.33 139.16 Q1371.75 139.831 1368.65 143.048 Q1365.54 146.243 1359.9 152.007 Z" fill="#000000" fill-rule="nonzero" fill-opacity="1" /></svg>
