<?xml version="1.0" encoding="utf-8"?>
<svg xmlns="http://www.w3.org/2000/svg" xmlns:xlink="http://www.w3.org/1999/xlink" width="528" height="336" viewBox="0 0 2112 1344">
<defs>
  <clipPath id="clip410">
    <rect x="0" y="0" width="2112" height="1344"/>
  </clipPath>
</defs>
<path clip-path="url(#clip410)" d="M0 1344 L2112 1344 L2112 2.13163e-14 L0 2.13163e-14  Z" fill="#ffffff" fill-rule="evenodd" fill-opacity="1"/>
<defs>
  <clipPath id="clip411">
    <rect x="153" y="47" width="1913" height="1188"/>
  </clipPath>
</defs>
<path clip-path="url(#clip410)" d="M153.394 1234.58 L2064.76 1234.58 L2064.76 47.2441 L153.394 47.2441  Z" fill="#ffffff" fill-rule="evenodd" fill-opacity="1"/>
<defs>
  <clipPath id="clip412">
    <rect x="153" y="47" width="1912" height="1188"/>
  </clipPath>
</defs>
<polyline clip-path="url(#clip412)" style="stroke:#000000; stroke-linecap:round; stroke-linejoin:round; stroke-width:2; stroke-opacity:0.1; fill:none" points="270.779,1234.58 270.779,47.2441 "/>
<polyline clip-path="url(#clip412)" style="stroke:#000000; stroke-linecap:round; stroke-linejoin:round; stroke-width:2; stroke-opacity:0.1; fill:none" points="677.81,1234.58 677.81,47.2441 "/>
<polyline clip-path="url(#clip412)" style="stroke:#000000; stroke-linecap:round; stroke-linejoin:round; stroke-width:2; stroke-opacity:0.1; fill:none" points="1084.84,1234.58 1084.84,47.2441 "/>
<polyline clip-path="url(#clip412)" style="stroke:#000000; stroke-linecap:round; stroke-linejoin:round; stroke-width:2; stroke-opacity:0.1; fill:none" points="1491.87,1234.58 1491.87,47.2441 "/>
<polyline clip-path="url(#clip412)" style="stroke:#000000; stroke-linecap:round; stroke-linejoin:round; stroke-width:2; stroke-opacity:0.1; fill:none" points="1898.9,1234.58 1898.9,47.2441 "/>
<polyline clip-path="url(#clip412)" style="stroke:#000000; stroke-linecap:round; stroke-linejoin:round; stroke-width:2; stroke-opacity:0.1; fill:none" points="153.394,1200.99 2064.76,1200.99 "/>
<polyline clip-path="url(#clip412)" style="stroke:#000000; stroke-linecap:round; stroke-linejoin:round; stroke-width:2; stroke-opacity:0.1; fill:none" points="153.394,969.073 2064.76,969.073 "/>
<polyline clip-path="url(#clip412)" style="stroke:#000000; stroke-linecap:round; stroke-linejoin:round; stroke-width:2; stroke-opacity:0.1; fill:none" points="153.394,737.157 2064.76,737.157 "/>
<polyline clip-path="url(#clip412)" style="stroke:#000000; stroke-linecap:round; stroke-linejoin:round; stroke-width:2; stroke-opacity:0.1; fill:none" points="153.394,505.24 2064.76,505.24 "/>
<polyline clip-path="url(#clip412)" style="stroke:#000000; stroke-linecap:round; stroke-linejoin:round; stroke-width:2; stroke-opacity:0.1; fill:none" points="153.394,273.323 2064.76,273.323 "/>
<polyline clip-path="url(#clip410)" style="stroke:#000000; stroke-linecap:round; stroke-linejoin:round; stroke-width:4; stroke-opacity:1; fill:none" points="153.394,1234.58 2064.76,1234.58 "/>
<polyline clip-path="url(#clip410)" style="stroke:#000000; stroke-linecap:round; stroke-linejoin:round; stroke-width:4; stroke-opacity:1; fill:none" points="270.779,1234.58 270.779,1215.68 "/>
<polyline clip-path="url(#clip410)" style="stroke:#000000; stroke-linecap:round; stroke-linejoin:round; stroke-width:4; stroke-opacity:1; fill:none" points="677.81,1234.58 677.81,1215.68 "/>
<polyline clip-path="url(#clip410)" style="stroke:#000000; stroke-linecap:round; stroke-linejoin:round; stroke-width:4; stroke-opacity:1; fill:none" points="1084.84,1234.58 1084.84,1215.68 "/>
<polyline clip-path="url(#clip410)" style="stroke:#000000; stroke-linecap:round; stroke-linejoin:round; stroke-width:4; stroke-opacity:1; fill:none" points="1491.87,1234.58 1491.87,1215.68 "/>
<polyline clip-path="url(#clip410)" style="stroke:#000000; stroke-linecap:round; stroke-linejoin:round; stroke-width:4; stroke-opacity:1; fill:none" points="1898.9,1234.58 1898.9,1215.68 "/>
<path clip-path="url(#clip410)" d="M240.421 1277.85 L270.096 1277.85 L270.096 1281.78 L240.421 1281.78 L240.421 1277.85 Z" fill="#000000" fill-rule="nonzero" fill-opacity="1" /><path clip-path="url(#clip410)" d="M280.235 1260.11 L298.591 1260.11 L298.591 1264.05 L284.517 1264.05 L284.517 1272.52 Q285.536 1272.17 286.555 1272.01 Q287.573 1271.83 288.592 1271.83 Q294.379 1271.83 297.758 1275 Q301.138 1278.17 301.138 1283.59 Q301.138 1289.17 297.666 1292.27 Q294.193 1295.35 287.874 1295.35 Q285.698 1295.35 283.43 1294.98 Q281.184 1294.61 278.777 1293.86 L278.777 1289.17 Q280.86 1290.3 283.082 1290.86 Q285.305 1291.41 287.781 1291.41 Q291.786 1291.41 294.124 1289.3 Q296.462 1287.2 296.462 1283.59 Q296.462 1279.98 294.124 1277.87 Q291.786 1275.76 287.781 1275.76 Q285.906 1275.76 284.031 1276.18 Q282.18 1276.6 280.235 1277.48 L280.235 1260.11 Z" fill="#000000" fill-rule="nonzero" fill-opacity="1" /><path clip-path="url(#clip410)" d="M677.81 1263.19 Q674.199 1263.19 672.37 1266.76 Q670.565 1270.3 670.565 1277.43 Q670.565 1284.54 672.37 1288.1 Q674.199 1291.64 677.81 1291.64 Q681.444 1291.64 683.25 1288.1 Q685.078 1284.54 685.078 1277.43 Q685.078 1270.3 683.25 1266.76 Q681.444 1263.19 677.81 1263.19 M677.81 1259.49 Q683.62 1259.49 686.676 1264.1 Q689.754 1268.68 689.754 1277.43 Q689.754 1286.16 686.676 1290.76 Q683.62 1295.35 677.81 1295.35 Q672 1295.35 668.921 1290.76 Q665.865 1286.16 665.865 1277.43 Q665.865 1268.68 668.921 1264.1 Q672 1259.49 677.81 1259.49 Z" fill="#000000" fill-rule="nonzero" fill-opacity="1" /><path clip-path="url(#clip410)" d="M1075.12 1260.11 L1093.47 1260.11 L1093.47 1264.05 L1079.4 1264.05 L1079.4 1272.52 Q1080.42 1272.17 1081.44 1272.01 Q1082.46 1271.83 1083.47 1271.83 Q1089.26 1271.83 1092.64 1275 Q1096.02 1278.17 1096.02 1283.59 Q1096.02 1289.17 1092.55 1292.27 Q1089.08 1295.35 1082.76 1295.35 Q1080.58 1295.35 1078.31 1294.98 Q1076.07 1294.61 1073.66 1293.86 L1073.66 1289.17 Q1075.74 1290.3 1077.97 1290.86 Q1080.19 1291.41 1082.66 1291.41 Q1086.67 1291.41 1089.01 1289.3 Q1091.35 1287.2 1091.35 1283.59 Q1091.35 1279.98 1089.01 1277.87 Q1086.67 1275.76 1082.66 1275.76 Q1080.79 1275.76 1078.91 1276.18 Q1077.06 1276.6 1075.12 1277.48 L1075.12 1260.11 Z" fill="#000000" fill-rule="nonzero" fill-opacity="1" /><path clip-path="url(#clip410)" d="M1466.56 1290.74 L1474.2 1290.74 L1474.2 1264.37 L1465.89 1266.04 L1465.89 1261.78 L1474.15 1260.11 L1478.83 1260.11 L1478.83 1290.74 L1486.47 1290.74 L1486.47 1294.67 L1466.56 1294.67 L1466.56 1290.74 Z" fill="#000000" fill-rule="nonzero" fill-opacity="1" /><path clip-path="url(#clip410)" d="M1505.91 1263.19 Q1502.3 1263.19 1500.47 1266.76 Q1498.67 1270.3 1498.67 1277.43 Q1498.67 1284.54 1500.47 1288.1 Q1502.3 1291.64 1505.91 1291.64 Q1509.54 1291.64 1511.35 1288.1 Q1513.18 1284.54 1513.18 1277.43 Q1513.18 1270.3 1511.35 1266.76 Q1509.54 1263.19 1505.91 1263.19 M1505.91 1259.49 Q1511.72 1259.49 1514.78 1264.1 Q1517.85 1268.68 1517.85 1277.43 Q1517.85 1286.16 1514.78 1290.76 Q1511.72 1295.35 1505.91 1295.35 Q1500.1 1295.35 1497.02 1290.76 Q1493.97 1286.16 1493.97 1277.43 Q1493.97 1268.68 1497.02 1264.1 Q1500.1 1259.49 1505.91 1259.49 Z" fill="#000000" fill-rule="nonzero" fill-opacity="1" /><path clip-path="url(#clip410)" d="M1874.09 1290.74 L1881.73 1290.74 L1881.73 1264.37 L1873.42 1266.04 L1873.42 1261.78 L1881.68 1260.11 L1886.36 1260.11 L1886.36 1290.74 L1893.99 1290.74 L1893.99 1294.67 L1874.09 1294.67 L1874.09 1290.74 Z" fill="#000000" fill-rule="nonzero" fill-opacity="1" /><path clip-path="url(#clip410)" d="M1903.49 1260.11 L1921.84 1260.11 L1921.84 1264.05 L1907.77 1264.05 L1907.77 1272.52 Q1908.79 1272.17 1909.8 1272.01 Q1910.82 1271.83 1911.84 1271.83 Q1917.63 1271.83 1921.01 1275 Q1924.39 1278.17 1924.39 1283.59 Q1924.39 1289.17 1920.92 1292.27 Q1917.44 1295.35 1911.12 1295.35 Q1908.95 1295.35 1906.68 1294.98 Q1904.43 1294.61 1902.03 1293.86 L1902.03 1289.17 Q1904.11 1290.3 1906.33 1290.86 Q1908.55 1291.41 1911.03 1291.41 Q1915.04 1291.41 1917.37 1289.3 Q1919.71 1287.2 1919.71 1283.59 Q1919.71 1279.98 1917.37 1277.87 Q1915.04 1275.76 1911.03 1275.76 Q1909.16 1275.76 1907.28 1276.18 Q1905.43 1276.6 1903.49 1277.48 L1903.49 1260.11 Z" fill="#000000" fill-rule="nonzero" fill-opacity="1" /><polyline clip-path="url(#clip410)" style="stroke:#000000; stroke-linecap:round; stroke-linejoin:round; stroke-width:4; stroke-opacity:1; fill:none" points="153.394,1234.58 153.394,47.2441 "/>
<polyline clip-path="url(#clip410)" style="stroke:#000000; stroke-linecap:round; stroke-linejoin:round; stroke-width:4; stroke-opacity:1; fill:none" points="153.394,1200.99 172.292,1200.99 "/>
<polyline clip-path="url(#clip410)" style="stroke:#000000; stroke-linecap:round; stroke-linejoin:round; stroke-width:4; stroke-opacity:1; fill:none" points="153.394,969.073 172.292,969.073 "/>
<polyline clip-path="url(#clip410)" style="stroke:#000000; stroke-linecap:round; stroke-linejoin:round; stroke-width:4; stroke-opacity:1; fill:none" points="153.394,737.157 172.292,737.157 "/>
<polyline clip-path="url(#clip410)" style="stroke:#000000; stroke-linecap:round; stroke-linejoin:round; stroke-width:4; stroke-opacity:1; fill:none" points="153.394,505.24 172.292,505.24 "/>
<polyline clip-path="url(#clip410)" style="stroke:#000000; stroke-linecap:round; stroke-linejoin:round; stroke-width:4; stroke-opacity:1; fill:none" points="153.394,273.323 172.292,273.323 "/>
<path clip-path="url(#clip410)" d="M64.5385 1186.79 Q60.9275 1186.79 59.0988 1190.35 Q57.2932 1193.9 57.2932 1201.02 Q57.2932 1208.13 59.0988 1211.7 Q60.9275 1215.24 64.5385 1215.24 Q68.1728 1215.24 69.9783 1211.7 Q71.807 1208.13 71.807 1201.02 Q71.807 1193.9 69.9783 1190.35 Q68.1728 1186.79 64.5385 1186.79 M64.5385 1183.09 Q70.3487 1183.09 73.4042 1187.69 Q76.4829 1192.27 76.4829 1201.02 Q76.4829 1209.75 73.4042 1214.36 Q70.3487 1218.94 64.5385 1218.94 Q58.7284 1218.94 55.6497 1214.36 Q52.5942 1209.75 52.5942 1201.02 Q52.5942 1192.27 55.6497 1187.69 Q58.7284 1183.09 64.5385 1183.09 Z" fill="#000000" fill-rule="nonzero" fill-opacity="1" /><path clip-path="url(#clip410)" d="M84.7005 1212.39 L89.5847 1212.39 L89.5847 1218.27 L84.7005 1218.27 L84.7005 1212.39 Z" fill="#000000" fill-rule="nonzero" fill-opacity="1" /><path clip-path="url(#clip410)" d="M109.77 1186.79 Q106.159 1186.79 104.33 1190.35 Q102.524 1193.9 102.524 1201.02 Q102.524 1208.13 104.33 1211.7 Q106.159 1215.24 109.77 1215.24 Q113.404 1215.24 115.21 1211.7 Q117.038 1208.13 117.038 1201.02 Q117.038 1193.9 115.21 1190.35 Q113.404 1186.79 109.77 1186.79 M109.77 1183.09 Q115.58 1183.09 118.635 1187.69 Q121.714 1192.27 121.714 1201.02 Q121.714 1209.75 118.635 1214.36 Q115.58 1218.94 109.77 1218.94 Q103.96 1218.94 100.881 1214.36 Q97.8254 1209.75 97.8254 1201.02 Q97.8254 1192.27 100.881 1187.69 Q103.96 1183.09 109.77 1183.09 Z" fill="#000000" fill-rule="nonzero" fill-opacity="1" /><path clip-path="url(#clip410)" d="M65.1867 954.872 Q61.5756 954.872 59.7469 958.437 Q57.9414 961.979 57.9414 969.108 Q57.9414 976.215 59.7469 979.779 Q61.5756 983.321 65.1867 983.321 Q68.8209 983.321 70.6265 979.779 Q72.4552 976.215 72.4552 969.108 Q72.4552 961.979 70.6265 958.437 Q68.8209 954.872 65.1867 954.872 M65.1867 951.168 Q70.9968 951.168 74.0524 955.775 Q77.1311 960.358 77.1311 969.108 Q77.1311 977.835 74.0524 982.441 Q70.9968 987.025 65.1867 987.025 Q59.3765 987.025 56.2978 982.441 Q53.2423 977.835 53.2423 969.108 Q53.2423 960.358 56.2978 955.775 Q59.3765 951.168 65.1867 951.168 Z" fill="#000000" fill-rule="nonzero" fill-opacity="1" /><path clip-path="url(#clip410)" d="M85.3486 980.474 L90.2328 980.474 L90.2328 986.353 L85.3486 986.353 L85.3486 980.474 Z" fill="#000000" fill-rule="nonzero" fill-opacity="1" /><path clip-path="url(#clip410)" d="M114.585 967.719 Q117.941 968.437 119.816 970.705 Q121.714 972.974 121.714 976.307 Q121.714 981.423 118.196 984.224 Q114.677 987.025 108.196 987.025 Q106.02 987.025 103.705 986.585 Q101.413 986.168 98.9597 985.312 L98.9597 980.798 Q100.904 981.932 103.219 982.511 Q105.534 983.09 108.057 983.09 Q112.455 983.09 114.747 981.353 Q117.061 979.617 117.061 976.307 Q117.061 973.252 114.909 971.539 Q112.779 969.803 108.96 969.803 L104.932 969.803 L104.932 965.96 L109.145 965.96 Q112.594 965.96 114.423 964.594 Q116.251 963.205 116.251 960.613 Q116.251 957.951 114.353 956.539 Q112.478 955.104 108.96 955.104 Q107.038 955.104 104.839 955.52 Q102.64 955.937 100.001 956.817 L100.001 952.65 Q102.663 951.909 104.978 951.539 Q107.316 951.168 109.376 951.168 Q114.7 951.168 117.802 953.599 Q120.904 956.006 120.904 960.127 Q120.904 962.997 119.26 964.988 Q117.617 966.955 114.585 967.719 Z" fill="#000000" fill-rule="nonzero" fill-opacity="1" /><path clip-path="url(#clip410)" d="M64.3765 722.955 Q60.7654 722.955 58.9367 726.52 Q57.1312 730.062 57.1312 737.191 Q57.1312 744.298 58.9367 747.863 Q60.7654 751.404 64.3765 751.404 Q68.0107 751.404 69.8163 747.863 Q71.645 744.298 71.645 737.191 Q71.645 730.062 69.8163 726.52 Q68.0107 722.955 64.3765 722.955 M64.3765 719.252 Q70.1867 719.252 73.2422 723.858 Q76.3209 728.442 76.3209 737.191 Q76.3209 745.918 73.2422 750.525 Q70.1867 755.108 64.3765 755.108 Q58.5664 755.108 55.4877 750.525 Q52.4321 745.918 52.4321 737.191 Q52.4321 728.442 55.4877 723.858 Q58.5664 719.252 64.3765 719.252 Z" fill="#000000" fill-rule="nonzero" fill-opacity="1" /><path clip-path="url(#clip410)" d="M84.5384 748.557 L89.4227 748.557 L89.4227 754.437 L84.5384 754.437 L84.5384 748.557 Z" fill="#000000" fill-rule="nonzero" fill-opacity="1" /><path clip-path="url(#clip410)" d="M110.186 735.293 Q107.038 735.293 105.186 737.446 Q103.358 739.599 103.358 743.349 Q103.358 747.076 105.186 749.252 Q107.038 751.404 110.186 751.404 Q113.335 751.404 115.163 749.252 Q117.015 747.076 117.015 743.349 Q117.015 739.599 115.163 737.446 Q113.335 735.293 110.186 735.293 M119.469 720.641 L119.469 724.9 Q117.71 724.067 115.904 723.627 Q114.122 723.187 112.362 723.187 Q107.733 723.187 105.279 726.312 Q102.849 729.437 102.501 735.756 Q103.867 733.742 105.927 732.678 Q107.987 731.59 110.464 731.59 Q115.673 731.59 118.682 734.761 Q121.714 737.909 121.714 743.349 Q121.714 748.673 118.566 751.89 Q115.418 755.108 110.186 755.108 Q104.191 755.108 101.02 750.525 Q97.8485 745.918 97.8485 737.191 Q97.8485 728.997 101.737 724.136 Q105.626 719.252 112.177 719.252 Q113.936 719.252 115.719 719.599 Q117.524 719.946 119.469 720.641 Z" fill="#000000" fill-rule="nonzero" fill-opacity="1" /><path clip-path="url(#clip410)" d="M64.7237 491.039 Q61.1126 491.039 59.2839 494.604 Q57.4784 498.145 57.4784 505.275 Q57.4784 512.381 59.2839 515.946 Q61.1126 519.488 64.7237 519.488 Q68.358 519.488 70.1635 515.946 Q71.9922 512.381 71.9922 505.275 Q71.9922 498.145 70.1635 494.604 Q68.358 491.039 64.7237 491.039 M64.7237 487.335 Q70.5339 487.335 73.5894 491.941 Q76.6681 496.525 76.6681 505.275 Q76.6681 514.002 73.5894 518.608 Q70.5339 523.191 64.7237 523.191 Q58.9136 523.191 55.8349 518.608 Q52.7793 514.002 52.7793 505.275 Q52.7793 496.525 55.8349 491.941 Q58.9136 487.335 64.7237 487.335 Z" fill="#000000" fill-rule="nonzero" fill-opacity="1" /><path clip-path="url(#clip410)" d="M84.8857 516.64 L89.7699 516.64 L89.7699 522.52 L84.8857 522.52 L84.8857 516.64 Z" fill="#000000" fill-rule="nonzero" fill-opacity="1" /><path clip-path="url(#clip410)" d="M100.094 521.802 L100.094 517.543 Q101.853 518.377 103.659 518.816 Q105.464 519.256 107.2 519.256 Q111.83 519.256 114.26 516.154 Q116.714 513.029 117.061 506.687 Q115.719 508.678 113.659 509.742 Q111.598 510.807 109.098 510.807 Q103.913 510.807 100.881 507.682 Q97.8717 504.534 97.8717 499.094 Q97.8717 493.77 101.02 490.553 Q104.168 487.335 109.399 487.335 Q115.395 487.335 118.543 491.941 Q121.714 496.525 121.714 505.275 Q121.714 513.446 117.825 518.33 Q113.96 523.191 107.409 523.191 Q105.649 523.191 103.844 522.844 Q102.038 522.497 100.094 521.802 M109.399 507.15 Q112.548 507.15 114.376 504.997 Q116.228 502.844 116.228 499.094 Q116.228 495.367 114.376 493.215 Q112.548 491.039 109.399 491.039 Q106.251 491.039 104.399 493.215 Q102.571 495.367 102.571 499.094 Q102.571 502.844 104.399 504.997 Q106.251 507.15 109.399 507.15 Z" fill="#000000" fill-rule="nonzero" fill-opacity="1" /><path clip-path="url(#clip410)" d="M56.946 286.668 L64.5848 286.668 L64.5848 260.303 L56.2747 261.969 L56.2747 257.71 L64.5385 256.043 L69.2144 256.043 L69.2144 286.668 L76.8533 286.668 L76.8533 290.603 L56.946 290.603 L56.946 286.668 Z" fill="#000000" fill-rule="nonzero" fill-opacity="1" /><path clip-path="url(#clip410)" d="M86.2977 284.724 L91.1819 284.724 L91.1819 290.603 L86.2977 290.603 L86.2977 284.724 Z" fill="#000000" fill-rule="nonzero" fill-opacity="1" /><path clip-path="url(#clip410)" d="M105.395 286.668 L121.714 286.668 L121.714 290.603 L99.7698 290.603 L99.7698 286.668 Q102.432 283.914 107.015 279.284 Q111.622 274.631 112.802 273.289 Q115.048 270.765 115.927 269.029 Q116.83 267.27 116.83 265.58 Q116.83 262.826 114.885 261.09 Q112.964 259.353 109.862 259.353 Q107.663 259.353 105.21 260.117 Q102.779 260.881 100.001 262.432 L100.001 257.71 Q102.825 256.576 105.279 255.997 Q107.733 255.418 109.77 255.418 Q115.14 255.418 118.335 258.103 Q121.529 260.789 121.529 265.279 Q121.529 267.409 120.719 269.33 Q119.932 271.228 117.825 273.821 Q117.247 274.492 114.145 277.71 Q111.043 280.904 105.395 286.668 Z" fill="#000000" fill-rule="nonzero" fill-opacity="1" /><polyline clip-path="url(#clip412)" style="stroke:#000000; stroke-linecap:round; stroke-linejoin:round; stroke-width:4; stroke-opacity:1; fill:none" points="1454.55,1200.81 1455.27,1200.8 1455.99,1200.79 1456.71,1200.76 1457.43,1200.71 1458.14,1200.65 1458.86,1200.57 1459.58,1200.46 1460.3,1200.32 1461.02,1200.14 1461.74,1199.92 1462.45,1199.65 1463.17,1199.31 1463.89,1198.9 1464.61,1198.4 1465.33,1197.8 1466.04,1197.07 1466.76,1196.2 1467.48,1195.16 1468.2,1193.92 1468.92,1192.46 1469.64,1190.75 1470.35,1188.75 1471.07,1186.42 1471.79,1183.73 1472.51,1180.64 1473.23,1177.09 1473.95,1173.06 1474.66,1168.48 1475.38,1163.33 1476.1,1157.55 1476.82,1151.1 1477.54,1143.95 1478.25,1136.05 1478.97,1127.39 1479.69,1117.93 1480.41,1107.65 1481.13,1096.55 1481.85,1084.63 1482.56,1071.9 1483.28,1058.38 1484,1044.1 1484.72,1029.12 1485.44,1013.48 1486.15,997.25 1486.87,980.521 1487.59,963.381 1488.31,945.932 1489.03,928.285 1489.75,910.557 1490.46,892.871 1491.18,875.352 1491.9,858.125 1492.62,841.314 1493.34,825.038 1494.06,809.408 1494.77,794.523 1495.49,780.472 1496.21,767.325 1496.93,755.136 1497.65,743.939 1498.36,733.745 1499.08,724.545 1499.8,716.302 1500.52,708.96 1501.24,702.436 1501.96,696.627 1502.67,691.406 1503.39,686.63 1504.11,682.138 1504.83,677.756 1505.55,673.301 1506.27,668.583 1506.98,663.41 1507.7,657.594 1508.42,650.954 1509.14,643.32 1509.86,634.537 1510.57,624.471 1511.29,613.012 1512.01,600.076 1512.73,585.607 1513.45,569.582 1514.17,552.012 1514.88,532.939 1515.6,512.439 1516.32,490.62 1517.04,467.622 1517.76,443.612 1518.48,418.782 1519.19,393.345 1519.91,367.533 1520.63,341.588 1521.35,315.761 1522.07,290.307 1522.78,265.477 1523.5,241.513 1524.22,218.647 1524.94,197.092 1525.66,177.041 1526.38,158.66 1527.09,142.09 1527.81,127.438 1528.53,114.781 1529.25,104.161 1529.97,95.5885 1530.68,89.0399 1531.4,84.4605 1532.12,81.7666 1532.84,80.8479 1533.56,81.5714 1534.28,83.7853 1534.99,87.3233 1535.71,92.0096 1536.43,97.6644 1537.15,104.108 1537.87,111.167 1538.59,118.679 1539.3,126.497 1540.02,134.493 1540.74,142.563 1541.46,150.628 1542.18,158.639 1542.89,166.575 1543.61,174.445 1544.33,182.289 1545.05,190.174 1545.77,198.191 1546.49,206.456 1547.2,215.101 1547.92,224.274 1548.64,234.131 1549.36,244.831 1550.08,256.533 1550.8,269.387 1551.51,283.531 1552.23,299.086 1552.95,316.15 1553.67,334.796 1554.39,355.071 1555.1,376.987 1555.82,400.528 1556.54,425.644 1557.26,452.255 1557.98,480.251 1558.7,509.494 1559.41,539.823 1560.13,571.055 1560.85,602.993 1561.57,635.425 1562.29,668.136 1563,700.904 1563.72,733.511 1564.44,765.747 1565.16,797.41 1565.88,828.312 1566.6,858.283 1567.31,887.171 1568.03,914.846 1568.75,941.198 1569.47,966.141 1570.19,989.612 1570.91,1011.57 1571.62,1031.99 1572.34,1050.88 1573.06,1068.24 1573.78,1084.13 1574.5,1098.57 1575.21,1111.63 1575.93,1123.37 1576.65,1133.88 1577.37,1143.22 1578.09,1151.49 1578.81,1158.77 1579.52,1165.14 1580.24,1170.69 1580.96,1175.5 1581.68,1179.64 1582.4,1183.19 1583.12,1186.22 1583.83,1188.79 1584.55,1190.96 1585.27,1192.78 1585.99,1194.3 1586.71,1195.57 1587.42,1196.61 1588.14,1197.47 1588.86,1198.18 1589.58,1198.75 1590.3,1199.21 1591.02,1199.59 1591.73,1199.89 1592.45,1200.12 1593.17,1200.31 1593.89,1200.46 1594.61,1200.57 1595.32,1200.66 1596.04,1200.72 1596.76,1200.77 1597.48,1200.79 "/>
<polyline clip-path="url(#clip412)" style="stroke:#ff0000; stroke-linecap:round; stroke-linejoin:round; stroke-width:4; stroke-opacity:1; fill:none" points="207.489,1200.97 216.55,1200.97 225.612,1200.97 234.673,1200.96 243.734,1200.96 252.795,1200.95 261.856,1200.94 270.917,1200.93 279.979,1200.91 289.04,1200.89 298.101,1200.87 307.162,1200.84 316.223,1200.81 325.284,1200.76 334.346,1200.71 343.407,1200.65 352.468,1200.57 361.529,1200.48 370.59,1200.38 379.651,1200.25 388.713,1200.1 397.774,1199.93 406.835,1199.73 415.896,1199.49 424.957,1199.22 434.018,1198.9 443.08,1198.54 452.141,1198.13 461.202,1197.66 470.263,1197.13 479.324,1196.53 488.385,1195.86 497.447,1195.1 506.508,1194.27 515.569,1193.34 524.63,1192.32 533.691,1191.2 542.752,1189.98 551.814,1188.65 560.875,1187.21 569.936,1185.66 578.997,1184 588.058,1182.22 597.119,1180.33 606.18,1178.34 615.242,1176.24 624.303,1174.04 633.364,1171.75 642.425,1169.38 651.486,1166.93 660.547,1164.41 669.609,1161.84 678.67,1159.23 687.731,1156.59 696.792,1153.94 705.853,1151.29 714.914,1148.66 723.976,1146.06 733.037,1143.5 742.098,1141.01 751.159,1138.59 760.22,1136.27 769.281,1134.05 778.343,1131.94 787.404,1129.96 796.465,1128.12 805.526,1126.42 814.587,1124.87 823.648,1123.48 832.71,1122.26 841.771,1121.2 850.832,1120.3 859.893,1119.57 868.954,1119.01 878.015,1118.61 887.077,1118.38 896.138,1118.29 905.199,1118.36 914.26,1118.56 923.321,1118.91 932.382,1119.38 941.444,1119.96 950.505,1120.66 959.566,1121.45 968.627,1122.32 977.688,1123.28 986.749,1124.29 995.81,1125.36 1004.87,1126.46 1013.93,1127.59 1022.99,1128.73 1032.06,1129.87 1041.12,1131 1050.18,1132.1 1059.24,1133.16 1068.3,1134.16 1077.36,1135.11 1086.42,1135.98 1095.48,1136.76 1104.54,1137.46 1113.61,1138.05 1122.67,1138.54 1131.73,1138.92 1140.79,1139.18 1149.85,1139.34 1158.91,1139.38 1167.97,1139.32 1177.03,1139.15 1186.09,1138.89 1195.16,1138.54 1204.22,1138.12 1213.28,1137.63 1222.34,1137.1 1231.4,1136.53 1240.46,1135.94 1249.52,1135.36 1258.58,1134.79 1267.65,1134.26 1276.71,1133.77 1285.77,1133.36 1294.83,1133.03 1303.89,1132.8 1312.95,1132.68 1322.01,1132.69 1331.07,1132.83 1340.13,1133.12 1349.2,1133.56 1358.26,1134.15 1367.32,1134.91 1376.38,1135.82 1385.44,1136.89 1394.5,1138.11 1403.56,1139.49 1412.62,1141 1421.69,1142.65 1430.75,1144.41 1439.81,1146.29 1448.87,1148.27 1457.93,1150.33 1466.99,1152.46 1476.05,1154.64 1485.11,1156.86 1494.17,1159.12 1503.24,1161.38 1512.3,1163.64 1521.36,1165.88 1530.42,1168.1 1539.48,1170.28 1548.54,1172.4 1557.6,1174.47 1566.66,1176.47 1575.72,1178.39 1584.79,1180.24 1593.85,1181.99 1602.91,1183.66 1611.97,1185.23 1621.03,1186.71 1630.09,1188.1 1639.15,1189.39 1648.21,1190.58 1657.28,1191.69 1666.34,1192.71 1675.4,1193.64 1684.46,1194.49 1693.52,1195.26 1702.58,1195.96 1711.64,1196.59 1720.7,1197.15 1729.76,1197.65 1738.83,1198.1 1747.89,1198.5 1756.95,1198.85 1766.01,1199.16 1775.07,1199.43 1784.13,1199.66 1793.19,1199.86 1802.25,1200.04 1811.32,1200.19 1820.38,1200.32 1829.44,1200.43 1838.5,1200.53 1847.56,1200.6 1856.62,1200.67 1865.68,1200.73 1874.74,1200.78 1883.8,1200.82 1892.87,1200.85 1901.93,1200.87 1910.99,1200.9 1920.05,1200.92 1929.11,1200.93 1938.17,1200.94 1947.23,1200.95 1956.29,1200.96 1965.35,1200.96 1974.42,1200.97 1983.48,1200.97 1992.54,1200.97 2001.6,1200.97 2010.66,1200.97 "/>
<path clip-path="url(#clip410)" d="M1786.71 242.342 L2001.04 242.342 L2001.04 86.8219 L1786.71 86.8219  Z" fill="#ffffff" fill-rule="evenodd" fill-opacity="1"/>
<polyline clip-path="url(#clip410)" style="stroke:#000000; stroke-linecap:round; stroke-linejoin:round; stroke-width:4; stroke-opacity:1; fill:none" points="1786.71,242.342 2001.04,242.342 2001.04,86.8219 1786.71,86.8219 1786.71,242.342 "/>
<polyline clip-path="url(#clip410)" style="stroke:#000000; stroke-linecap:round; stroke-linejoin:round; stroke-width:4; stroke-opacity:1; fill:none" points="1807.95,138.662 1935.37,138.662 "/>
<path clip-path="url(#clip410)" d="M1975.39 143.002 Q1975.39 138.303 1973.44 135.641 Q1971.52 132.956 1968.14 132.956 Q1964.76 132.956 1962.82 135.641 Q1960.89 138.303 1960.89 143.002 Q1960.89 147.701 1962.82 150.386 Q1964.76 153.048 1968.14 153.048 Q1971.52 153.048 1973.44 150.386 Q1975.39 147.701 1975.39 143.002 M1960.89 133.951 Q1962.24 131.636 1964.27 130.525 Q1966.33 129.391 1969.18 129.391 Q1973.9 129.391 1976.84 133.141 Q1979.81 136.891 1979.81 143.002 Q1979.81 149.113 1976.84 152.863 Q1973.9 156.613 1969.18 156.613 Q1966.33 156.613 1964.27 155.502 Q1962.24 154.368 1960.89 152.053 L1960.89 155.942 L1956.61 155.942 L1956.61 119.924 L1960.89 119.924 L1960.89 133.951 Z" fill="#000000" fill-rule="nonzero" fill-opacity="1" /><polyline clip-path="url(#clip410)" style="stroke:#ff0000; stroke-linecap:round; stroke-linejoin:round; stroke-width:4; stroke-opacity:1; fill:none" points="1807.95,190.502 1935.37,190.502 "/>
<path clip-path="url(#clip410)" d="M1977.12 182.851 L1977.12 186.833 Q1975.32 185.838 1973.49 185.351 Q1971.68 184.842 1969.83 184.842 Q1965.69 184.842 1963.39 187.481 Q1961.1 190.097 1961.1 194.842 Q1961.1 199.588 1963.39 202.226 Q1965.69 204.842 1969.83 204.842 Q1971.68 204.842 1973.49 204.356 Q1975.32 203.847 1977.12 202.851 L1977.12 206.787 Q1975.34 207.62 1973.42 208.037 Q1971.52 208.453 1969.37 208.453 Q1963.51 208.453 1960.06 204.773 Q1956.61 201.092 1956.61 194.842 Q1956.61 188.5 1960.08 184.865 Q1963.58 181.231 1969.64 181.231 Q1971.61 181.231 1973.49 181.648 Q1975.36 182.041 1977.12 182.851 Z" fill="#000000" fill-rule="nonzero" fill-opacity="1" /></svg>
