<?xml version="1.0" encoding="utf-8"?>
<svg xmlns="http://www.w3.org/2000/svg" xmlns:xlink="http://www.w3.org/1999/xlink" width="528" height="336" viewBox="0 0 2112 1344">
<defs>
  <clipPath id="clip420">
    <rect x="0" y="0" width="2112" height="1344"/>
  </clipPath>
</defs>
<path clip-path="url(#clip420)" d="M0 1344 L2112 1344 L2112 2.13163e-14 L0 2.13163e-14  Z" fill="#ffffff" fill-rule="evenodd" fill-opacity="1"/>
<defs>
  <clipPath id="clip421">
    <rect x="221" y="19" width="1808" height="1140"/>
  </clipPath>
</defs>
<path clip-path="url(#clip420)" d="M185.224 1222.85 L2064.76 1222.85 L2064.76 47.2441 L185.224 47.2441  Z" fill="#ffffff" fill-rule="evenodd" fill-opacity="1"/>
<defs>
  <clipPath id="clip422">
    <rect x="185" y="47" width="1881" height="1177"/>
  </clipPath>
</defs>
<polyline clip-path="url(#clip422)" style="stroke:#000000; stroke-linecap:round; stroke-linejoin:round; stroke-width:2; stroke-opacity:0.1; fill:none" points="238.418,1222.85 238.418,47.2441 "/>
<polyline clip-path="url(#clip422)" style="stroke:#000000; stroke-linecap:round; stroke-linejoin:round; stroke-width:2; stroke-opacity:0.1; fill:none" points="1124.99,1222.85 1124.99,47.2441 "/>
<polyline clip-path="url(#clip422)" style="stroke:#000000; stroke-linecap:round; stroke-linejoin:round; stroke-width:2; stroke-opacity:0.1; fill:none" points="2011.56,1222.85 2011.56,47.2441 "/>
<polyline clip-path="url(#clip422)" style="stroke:#000000; stroke-linecap:round; stroke-linejoin:round; stroke-width:2; stroke-opacity:0.1; fill:none" points="185.224,1189.58 2064.76,1189.58 "/>
<polyline clip-path="url(#clip422)" style="stroke:#000000; stroke-linecap:round; stroke-linejoin:round; stroke-width:2; stroke-opacity:0.1; fill:none" points="185.224,912.315 2064.76,912.315 "/>
<polyline clip-path="url(#clip422)" style="stroke:#000000; stroke-linecap:round; stroke-linejoin:round; stroke-width:2; stroke-opacity:0.1; fill:none" points="185.224,635.049 2064.76,635.049 "/>
<polyline clip-path="url(#clip422)" style="stroke:#000000; stroke-linecap:round; stroke-linejoin:round; stroke-width:2; stroke-opacity:0.1; fill:none" points="185.224,357.783 2064.76,357.783 "/>
<polyline clip-path="url(#clip422)" style="stroke:#000000; stroke-linecap:round; stroke-linejoin:round; stroke-width:2; stroke-opacity:0.1; fill:none" points="185.224,80.5161 2064.76,80.5161 "/>
<polyline clip-path="url(#clip420)" style="stroke:#000000; stroke-linecap:round; stroke-linejoin:round; stroke-width:4; stroke-opacity:1; fill:none" points="185.224,1222.85 2064.76,1222.85 "/>
<polyline clip-path="url(#clip420)" style="stroke:#000000; stroke-linecap:round; stroke-linejoin:round; stroke-width:4; stroke-opacity:1; fill:none" points="238.418,1222.85 238.418,1203.96 "/>
<polyline clip-path="url(#clip420)" style="stroke:#000000; stroke-linecap:round; stroke-linejoin:round; stroke-width:4; stroke-opacity:1; fill:none" points="1124.99,1222.85 1124.99,1203.96 "/>
<polyline clip-path="url(#clip420)" style="stroke:#000000; stroke-linecap:round; stroke-linejoin:round; stroke-width:4; stroke-opacity:1; fill:none" points="2011.56,1222.85 2011.56,1203.96 "/>
<path clip-path="url(#clip420)" d="M203.401 1294.67 L211.04 1294.67 L211.04 1268.31 L202.73 1269.98 L202.73 1265.72 L210.994 1264.05 L215.67 1264.05 L215.67 1294.67 L223.309 1294.67 L223.309 1298.61 L203.401 1298.61 L203.401 1294.67 Z" fill="#000000" fill-rule="nonzero" fill-opacity="1" /><path clip-path="url(#clip420)" d="M242.753 1267.13 Q239.142 1267.13 237.313 1270.69 Q235.508 1274.24 235.508 1281.36 Q235.508 1288.47 237.313 1292.04 Q239.142 1295.58 242.753 1295.58 Q246.387 1295.58 248.193 1292.04 Q250.021 1288.47 250.021 1281.36 Q250.021 1274.24 248.193 1270.69 Q246.387 1267.13 242.753 1267.13 M242.753 1263.42 Q248.563 1263.42 251.619 1268.03 Q254.697 1272.61 254.697 1281.36 Q254.697 1290.09 251.619 1294.7 Q248.563 1299.28 242.753 1299.28 Q236.943 1299.28 233.864 1294.7 Q230.809 1290.09 230.809 1281.36 Q230.809 1272.61 233.864 1268.03 Q236.943 1263.42 242.753 1263.42 Z" fill="#000000" fill-rule="nonzero" fill-opacity="1" /><path clip-path="url(#clip420)" d="M264.402 1245.62 Q261.468 1245.62 259.982 1248.52 Q258.515 1251.39 258.515 1257.19 Q258.515 1262.96 259.982 1265.86 Q261.468 1268.74 264.402 1268.74 Q267.355 1268.74 268.822 1265.86 Q270.308 1262.96 270.308 1257.19 Q270.308 1251.39 268.822 1248.52 Q267.355 1245.62 264.402 1245.62 M264.402 1242.61 Q269.123 1242.61 271.605 1246.35 Q274.107 1250.08 274.107 1257.19 Q274.107 1264.28 271.605 1268.02 Q269.123 1271.74 264.402 1271.74 Q259.681 1271.74 257.18 1268.02 Q254.697 1264.28 254.697 1257.19 Q254.697 1250.08 257.18 1246.35 Q259.681 1242.61 264.402 1242.61 Z" fill="#000000" fill-rule="nonzero" fill-opacity="1" /><path clip-path="url(#clip420)" d="M1091.32 1294.67 L1098.96 1294.67 L1098.96 1268.31 L1090.65 1269.98 L1090.65 1265.72 L1098.91 1264.05 L1103.59 1264.05 L1103.59 1294.67 L1111.22 1294.67 L1111.22 1298.61 L1091.32 1298.61 L1091.32 1294.67 Z" fill="#000000" fill-rule="nonzero" fill-opacity="1" /><path clip-path="url(#clip420)" d="M1130.67 1267.13 Q1127.06 1267.13 1125.23 1270.69 Q1123.42 1274.24 1123.42 1281.36 Q1123.42 1288.47 1125.23 1292.04 Q1127.06 1295.58 1130.67 1295.58 Q1134.3 1295.58 1136.11 1292.04 Q1137.94 1288.47 1137.94 1281.36 Q1137.94 1274.24 1136.11 1270.69 Q1134.3 1267.13 1130.67 1267.13 M1130.67 1263.42 Q1136.48 1263.42 1139.53 1268.03 Q1142.61 1272.61 1142.61 1281.36 Q1142.61 1290.09 1139.53 1294.7 Q1136.48 1299.28 1130.67 1299.28 Q1124.86 1299.28 1121.78 1294.7 Q1118.72 1290.09 1118.72 1281.36 Q1118.72 1272.61 1121.78 1268.03 Q1124.86 1263.42 1130.67 1263.42 Z" fill="#000000" fill-rule="nonzero" fill-opacity="1" /><path clip-path="url(#clip420)" d="M1143.16 1268 L1149.37 1268 L1149.37 1246.58 L1142.61 1247.93 L1142.61 1244.47 L1149.33 1243.12 L1153.13 1243.12 L1153.13 1268 L1159.33 1268 L1159.33 1271.2 L1143.16 1271.2 L1143.16 1268 Z" fill="#000000" fill-rule="nonzero" fill-opacity="1" /><path clip-path="url(#clip420)" d="M1977.33 1294.67 L1984.97 1294.67 L1984.97 1268.31 L1976.66 1269.98 L1976.66 1265.72 L1984.93 1264.05 L1989.6 1264.05 L1989.6 1294.67 L1997.24 1294.67 L1997.24 1298.61 L1977.33 1298.61 L1977.33 1294.67 Z" fill="#000000" fill-rule="nonzero" fill-opacity="1" /><path clip-path="url(#clip420)" d="M2016.69 1267.13 Q2013.07 1267.13 2011.25 1270.69 Q2009.44 1274.24 2009.44 1281.36 Q2009.44 1288.47 2011.25 1292.04 Q2013.07 1295.58 2016.69 1295.58 Q2020.32 1295.58 2022.13 1292.04 Q2023.95 1288.47 2023.95 1281.36 Q2023.95 1274.24 2022.13 1270.69 Q2020.32 1267.13 2016.69 1267.13 M2016.69 1263.42 Q2022.5 1263.42 2025.55 1268.03 Q2028.63 1272.61 2028.63 1281.36 Q2028.63 1290.09 2025.55 1294.7 Q2022.5 1299.28 2016.69 1299.28 Q2010.88 1299.28 2007.8 1294.7 Q2004.74 1290.09 2004.74 1281.36 Q2004.74 1272.61 2007.8 1268.03 Q2010.88 1263.42 2016.69 1263.42 Z" fill="#000000" fill-rule="nonzero" fill-opacity="1" /><path clip-path="url(#clip420)" d="M2033.2 1268 L2046.46 1268 L2046.46 1271.2 L2028.63 1271.2 L2028.63 1268 Q2030.79 1265.76 2034.52 1262 Q2038.26 1258.22 2039.22 1257.13 Q2041.04 1255.08 2041.76 1253.67 Q2042.49 1252.24 2042.49 1250.87 Q2042.49 1248.63 2040.91 1247.22 Q2039.35 1245.81 2036.83 1245.81 Q2035.04 1245.81 2033.05 1246.43 Q2031.08 1247.05 2028.82 1248.31 L2028.82 1244.47 Q2031.11 1243.55 2033.11 1243.08 Q2035.1 1242.61 2036.76 1242.61 Q2041.12 1242.61 2043.71 1244.79 Q2046.31 1246.98 2046.31 1250.62 Q2046.31 1252.35 2045.65 1253.92 Q2045.01 1255.46 2043.3 1257.56 Q2042.83 1258.11 2040.31 1260.72 Q2037.79 1263.32 2033.2 1268 Z" fill="#000000" fill-rule="nonzero" fill-opacity="1" /><polyline clip-path="url(#clip420)" style="stroke:#000000; stroke-linecap:round; stroke-linejoin:round; stroke-width:4; stroke-opacity:1; fill:none" points="185.224,1222.85 185.224,47.2441 "/>
<polyline clip-path="url(#clip420)" style="stroke:#000000; stroke-linecap:round; stroke-linejoin:round; stroke-width:4; stroke-opacity:1; fill:none" points="185.224,1189.58 204.122,1189.58 "/>
<polyline clip-path="url(#clip420)" style="stroke:#000000; stroke-linecap:round; stroke-linejoin:round; stroke-width:4; stroke-opacity:1; fill:none" points="185.224,912.315 204.122,912.315 "/>
<polyline clip-path="url(#clip420)" style="stroke:#000000; stroke-linecap:round; stroke-linejoin:round; stroke-width:4; stroke-opacity:1; fill:none" points="185.224,635.049 204.122,635.049 "/>
<polyline clip-path="url(#clip420)" style="stroke:#000000; stroke-linecap:round; stroke-linejoin:round; stroke-width:4; stroke-opacity:1; fill:none" points="185.224,357.783 204.122,357.783 "/>
<polyline clip-path="url(#clip420)" style="stroke:#000000; stroke-linecap:round; stroke-linejoin:round; stroke-width:4; stroke-opacity:1; fill:none" points="185.224,80.5161 204.122,80.5161 "/>
<path clip-path="url(#clip420)" d="M53.4043 1209.37 L61.0432 1209.37 L61.0432 1183.01 L52.7331 1184.68 L52.7331 1180.42 L60.9969 1178.75 L65.6728 1178.75 L65.6728 1209.37 L73.3116 1209.37 L73.3116 1213.31 L53.4043 1213.31 L53.4043 1209.37 Z" fill="#000000" fill-rule="nonzero" fill-opacity="1" /><path clip-path="url(#clip420)" d="M92.756 1181.83 Q89.1449 1181.83 87.3162 1185.39 Q85.5107 1188.93 85.5107 1196.06 Q85.5107 1203.17 87.3162 1206.74 Q89.1449 1210.28 92.756 1210.28 Q96.3902 1210.28 98.1958 1206.74 Q100.024 1203.17 100.024 1196.06 Q100.024 1188.93 98.1958 1185.39 Q96.3902 1181.83 92.756 1181.83 M92.756 1178.12 Q98.5661 1178.12 101.622 1182.73 Q104.7 1187.31 104.7 1196.06 Q104.7 1204.79 101.622 1209.4 Q98.5661 1213.98 92.756 1213.98 Q86.9458 1213.98 83.8671 1209.4 Q80.8116 1204.79 80.8116 1196.06 Q80.8116 1187.31 83.8671 1182.73 Q86.9458 1178.12 92.756 1178.12 Z" fill="#000000" fill-rule="nonzero" fill-opacity="1" /><path clip-path="url(#clip420)" d="M104.7 1172.23 L128.812 1172.23 L128.812 1175.42 L104.7 1175.42 L104.7 1172.23 Z" fill="#000000" fill-rule="nonzero" fill-opacity="1" /><path clip-path="url(#clip420)" d="M140.285 1182.7 L153.544 1182.7 L153.544 1185.9 L135.714 1185.9 L135.714 1182.7 Q137.877 1180.46 141.601 1176.7 Q145.344 1172.92 146.303 1171.83 Q148.128 1169.78 148.842 1168.37 Q149.576 1166.94 149.576 1165.57 Q149.576 1163.33 147.996 1161.92 Q146.435 1160.51 143.915 1160.51 Q142.128 1160.51 140.134 1161.13 Q138.159 1161.75 135.902 1163.01 L135.902 1159.17 Q138.197 1158.25 140.191 1157.78 Q142.184 1157.31 143.839 1157.31 Q148.203 1157.31 150.798 1159.49 Q153.394 1161.67 153.394 1165.32 Q153.394 1167.05 152.735 1168.61 Q152.096 1170.16 150.384 1172.26 Q149.914 1172.81 147.394 1175.42 Q144.874 1178.02 140.285 1182.7 Z" fill="#000000" fill-rule="nonzero" fill-opacity="1" /><path clip-path="url(#clip420)" d="M53.1034 932.108 L60.7423 932.108 L60.7423 905.742 L52.4321 907.409 L52.4321 903.15 L60.696 901.483 L65.3719 901.483 L65.3719 932.108 L73.0107 932.108 L73.0107 936.043 L53.1034 936.043 L53.1034 932.108 Z" fill="#000000" fill-rule="nonzero" fill-opacity="1" /><path clip-path="url(#clip420)" d="M92.4551 904.562 Q88.844 904.562 87.0153 908.127 Q85.2097 911.668 85.2097 918.798 Q85.2097 925.904 87.0153 929.469 Q88.844 933.011 92.4551 933.011 Q96.0893 933.011 97.8948 929.469 Q99.7235 925.904 99.7235 918.798 Q99.7235 911.668 97.8948 908.127 Q96.0893 904.562 92.4551 904.562 M92.4551 900.858 Q98.2652 900.858 101.321 905.465 Q104.399 910.048 104.399 918.798 Q104.399 927.525 101.321 932.131 Q98.2652 936.714 92.4551 936.714 Q86.6449 936.714 83.5662 932.131 Q80.5107 927.525 80.5107 918.798 Q80.5107 910.048 83.5662 905.465 Q86.6449 900.858 92.4551 900.858 Z" fill="#000000" fill-rule="nonzero" fill-opacity="1" /><path clip-path="url(#clip420)" d="M104.399 894.959 L128.511 894.959 L128.511 898.157 L104.399 898.157 L104.399 894.959 Z" fill="#000000" fill-rule="nonzero" fill-opacity="1" /><path clip-path="url(#clip420)" d="M137.369 905.435 L143.576 905.435 L143.576 884.013 L136.824 885.367 L136.824 881.907 L143.538 880.553 L147.338 880.553 L147.338 905.435 L153.544 905.435 L153.544 908.633 L137.369 908.633 L137.369 905.435 Z" fill="#000000" fill-rule="nonzero" fill-opacity="1" /><path clip-path="url(#clip420)" d="M82.8385 654.841 L90.4774 654.841 L90.4774 628.476 L82.1672 630.142 L82.1672 625.883 L90.4311 624.217 L95.107 624.217 L95.107 654.841 L102.746 654.841 L102.746 658.777 L82.8385 658.777 L82.8385 654.841 Z" fill="#000000" fill-rule="nonzero" fill-opacity="1" /><path clip-path="url(#clip420)" d="M122.19 627.295 Q118.579 627.295 116.75 630.86 Q114.945 634.402 114.945 641.531 Q114.945 648.638 116.75 652.203 Q118.579 655.744 122.19 655.744 Q125.824 655.744 127.63 652.203 Q129.459 648.638 129.459 641.531 Q129.459 634.402 127.63 630.86 Q125.824 627.295 122.19 627.295 M122.19 623.592 Q128 623.592 131.056 628.198 Q134.135 632.781 134.135 641.531 Q134.135 650.258 131.056 654.865 Q128 659.448 122.19 659.448 Q116.38 659.448 113.301 654.865 Q110.246 650.258 110.246 641.531 Q110.246 632.781 113.301 628.198 Q116.38 623.592 122.19 623.592 Z" fill="#000000" fill-rule="nonzero" fill-opacity="1" /><path clip-path="url(#clip420)" d="M143.839 605.788 Q140.905 605.788 139.42 608.684 Q137.953 611.562 137.953 617.354 Q137.953 623.128 139.42 626.025 Q140.905 628.902 143.839 628.902 Q146.792 628.902 148.259 626.025 Q149.745 623.128 149.745 617.354 Q149.745 611.562 148.259 608.684 Q146.792 605.788 143.839 605.788 M143.839 602.778 Q148.56 602.778 151.043 606.521 Q153.544 610.245 153.544 617.354 Q153.544 624.445 151.043 628.188 Q148.56 631.912 143.839 631.912 Q139.119 631.912 136.617 628.188 Q134.135 624.445 134.135 617.354 Q134.135 610.245 136.617 606.521 Q139.119 602.778 143.839 602.778 Z" fill="#000000" fill-rule="nonzero" fill-opacity="1" /><path clip-path="url(#clip420)" d="M85.528 377.575 L93.1669 377.575 L93.1669 351.209 L84.8567 352.876 L84.8567 348.617 L93.1206 346.95 L97.7965 346.95 L97.7965 377.575 L105.435 377.575 L105.435 381.51 L85.528 381.51 L85.528 377.575 Z" fill="#000000" fill-rule="nonzero" fill-opacity="1" /><path clip-path="url(#clip420)" d="M124.88 350.029 Q121.269 350.029 119.44 353.594 Q117.634 357.135 117.634 364.265 Q117.634 371.371 119.44 374.936 Q121.269 378.478 124.88 378.478 Q128.514 378.478 130.319 374.936 Q132.148 371.371 132.148 364.265 Q132.148 357.135 130.319 353.594 Q128.514 350.029 124.88 350.029 M124.88 346.325 Q130.69 346.325 133.745 350.932 Q136.824 355.515 136.824 364.265 Q136.824 372.992 133.745 377.598 Q130.69 382.181 124.88 382.181 Q119.07 382.181 115.991 377.598 Q112.935 372.992 112.935 364.265 Q112.935 355.515 115.991 350.932 Q119.07 346.325 124.88 346.325 Z" fill="#000000" fill-rule="nonzero" fill-opacity="1" /><path clip-path="url(#clip420)" d="M137.369 350.902 L143.576 350.902 L143.576 329.48 L136.824 330.835 L136.824 327.374 L143.538 326.02 L147.338 326.02 L147.338 350.902 L153.544 350.902 L153.544 354.1 L137.369 354.1 L137.369 350.902 Z" fill="#000000" fill-rule="nonzero" fill-opacity="1" /><path clip-path="url(#clip420)" d="M84.4184 100.309 L92.0572 100.309 L92.0572 73.9429 L83.7471 75.6096 L83.7471 71.3503 L92.0109 69.6837 L96.6868 69.6837 L96.6868 100.309 L104.326 100.309 L104.326 104.244 L84.4184 104.244 L84.4184 100.309 Z" fill="#000000" fill-rule="nonzero" fill-opacity="1" /><path clip-path="url(#clip420)" d="M123.77 72.7624 Q120.159 72.7624 118.33 76.3272 Q116.525 79.8688 116.525 86.9984 Q116.525 94.1048 118.33 97.6696 Q120.159 101.211 123.77 101.211 Q127.404 101.211 129.21 97.6696 Q131.038 94.1048 131.038 86.9984 Q131.038 79.8688 129.21 76.3272 Q127.404 72.7624 123.77 72.7624 M123.77 69.0587 Q129.58 69.0587 132.636 73.6651 Q135.714 78.2484 135.714 86.9984 Q135.714 95.7252 132.636 100.332 Q129.58 104.915 123.77 104.915 Q117.96 104.915 114.881 100.332 Q111.826 95.7252 111.826 86.9984 Q111.826 78.2484 114.881 73.6651 Q117.96 69.0587 123.77 69.0587 Z" fill="#000000" fill-rule="nonzero" fill-opacity="1" /><path clip-path="url(#clip420)" d="M140.285 73.6359 L153.544 73.6359 L153.544 76.8333 L135.714 76.8333 L135.714 73.6359 Q137.877 71.3978 141.601 67.6363 Q145.344 63.8559 146.303 62.7651 Q148.128 60.715 148.842 59.3044 Q149.576 57.875 149.576 56.5021 Q149.576 54.2639 147.996 52.8534 Q146.435 51.4428 143.915 51.4428 Q142.128 51.4428 140.134 52.0634 Q138.159 52.6841 135.902 53.9442 L135.902 50.1074 Q138.197 49.1858 140.191 48.7157 Q142.184 48.2455 143.839 48.2455 Q148.203 48.2455 150.798 50.4272 Q153.394 52.6089 153.394 56.2576 Q153.394 57.9879 152.735 59.5489 Q152.096 61.0912 150.384 63.1976 Q149.914 63.7431 147.394 66.3573 Q144.874 68.9528 140.285 73.6359 Z" fill="#000000" fill-rule="nonzero" fill-opacity="1" /><polyline clip-path="url(#clip422)" style="stroke:#009af9; stroke-linecap:round; stroke-linejoin:round; stroke-width:4; stroke-opacity:1; fill:none" points="238.418,1189.58 505.303,1022.65 661.421,925.002 772.188,855.72 858.105,801.98 928.305,758.071 987.658,720.947 1039.07,688.789 1084.42,660.423 1124.99,635.049 1161.69,612.095 1195.19,591.14 1226.01,571.864 1254.54,554.016 1281.11,537.401 1305.96,521.858 1329.3,507.257 1351.31,493.492 1372.13,480.471 1391.87,468.118 1410.66,456.368 1428.57,445.164 1445.69,434.459 1462.07,424.209 1477.79,414.378 1492.89,404.933 1507.42,395.844 1521.43,387.085 1534.94,378.634 1547.99,370.47 1560.62,362.573 1572.84,354.927 1584.69,347.516 1596.18,340.326 1607.35,333.345 1618.19,326.561 1628.74,319.962 1639.01,313.54 1649.01,307.284 1658.76,301.187 1668.27,295.24 1677.55,289.437 1686.61,283.77 1695.46,278.233 1704.11,272.821 1712.57,267.528 1720.85,262.349 1728.96,257.278 1736.9,252.313 1744.68,247.447 1752.3,242.678 1759.78,238.002 1767.11,233.414 1774.31,228.913 1781.37,224.494 1788.31,220.154 1795.13,215.892 1801.82,211.703 1808.41,207.586 1814.88,203.539 1821.24,199.558 1827.5,195.642 1833.66,191.788 1839.73,187.996 1845.7,184.262 1851.57,180.585 1857.36,176.963 1863.07,173.395 1868.69,169.88 1874.23,166.414 1879.69,162.998 1885.08,159.63 1890.39,156.308 1895.63,153.031 1900.79,149.799 1905.89,146.609 1910.93,143.461 1915.9,140.353 1920.8,137.285 1925.64,134.256 1930.43,131.264 1935.15,128.309 1939.82,125.39 1944.43,122.506 1948.99,119.656 1953.49,116.839 1957.94,114.055 1962.34,111.302 1966.69,108.581 1970.99,105.89 1975.25,103.229 1979.46,100.597 1983.62,97.9933 1987.74,95.4176 1991.81,92.8691 1995.84,90.3473 1999.83,87.8516 2003.78,85.3815 2007.69,82.9365 2011.56,80.5161 "/>
<path clip-path="url(#clip420)" d="M247.875 190.111 L488.259 190.111 L488.259 86.4311 L247.875 86.4311  Z" fill="#ffffff" fill-rule="evenodd" fill-opacity="1"/>
<polyline clip-path="url(#clip420)" style="stroke:#000000; stroke-linecap:round; stroke-linejoin:round; stroke-width:4; stroke-opacity:1; fill:none" points="247.875,190.111 488.259,190.111 488.259,86.4311 247.875,86.4311 247.875,190.111 "/>
<polyline clip-path="url(#clip420)" style="stroke:#009af9; stroke-linecap:round; stroke-linejoin:round; stroke-width:4; stroke-opacity:1; fill:none" points="268.759,138.271 394.061,138.271 "/>
<path clip-path="url(#clip420)" d="M428.787 157.958 Q426.982 162.588 425.269 164 Q423.556 165.412 420.685 165.412 L417.283 165.412 L417.283 161.847 L419.783 161.847 Q421.542 161.847 422.514 161.014 Q423.486 160.181 424.667 157.079 L425.431 155.134 L414.945 129.625 L419.459 129.625 L427.56 149.903 L435.662 129.625 L440.176 129.625 L428.787 157.958 Z" fill="#000000" fill-rule="nonzero" fill-opacity="1" /><path clip-path="url(#clip420)" d="M447.468 151.616 L455.107 151.616 L455.107 125.25 L446.796 126.917 L446.796 122.658 L455.06 120.991 L459.736 120.991 L459.736 151.616 L467.375 151.616 L467.375 155.551 L447.468 155.551 L447.468 151.616 Z" fill="#000000" fill-rule="nonzero" fill-opacity="1" /></svg>
