<?xml version="1.0" encoding="utf-8"?>
<svg xmlns="http://www.w3.org/2000/svg" xmlns:xlink="http://www.w3.org/1999/xlink" width="528" height="336" viewBox="0 0 2112 1344">
<defs>
  <clipPath id="clip960">
    <rect x="0" y="0" width="2112" height="1344"/>
  </clipPath>
</defs>
<path clip-path="url(#clip960)" d="M0 1344 L2112 1344 L2112 2.13163e-14 L0 2.13163e-14  Z" fill="#ffffff" fill-rule="evenodd" fill-opacity="1"/>
<defs>
  <clipPath id="clip961">
    <rect x="422" y="0" width="1479" height="1344"/>
  </clipPath>
</defs>
<path clip-path="url(#clip960)" d="M153.718 1234.58 L2064.76 1234.58 L2064.76 47.2441 L153.718 47.2441  Z" fill="#ffffff" fill-rule="evenodd" fill-opacity="1"/>
<defs>
  <clipPath id="clip962">
    <rect x="153" y="47" width="1912" height="1188"/>
  </clipPath>
</defs>
<polyline clip-path="url(#clip962)" style="stroke:#000000; stroke-linecap:round; stroke-linejoin:round; stroke-width:2; stroke-opacity:0.1; fill:none" points="207.804,1234.58 207.804,47.2441 "/>
<polyline clip-path="url(#clip962)" style="stroke:#000000; stroke-linecap:round; stroke-linejoin:round; stroke-width:2; stroke-opacity:0.1; fill:none" points="658.521,1234.58 658.521,47.2441 "/>
<polyline clip-path="url(#clip962)" style="stroke:#000000; stroke-linecap:round; stroke-linejoin:round; stroke-width:2; stroke-opacity:0.1; fill:none" points="1109.24,1234.58 1109.24,47.2441 "/>
<polyline clip-path="url(#clip962)" style="stroke:#000000; stroke-linecap:round; stroke-linejoin:round; stroke-width:2; stroke-opacity:0.1; fill:none" points="1559.95,1234.58 1559.95,47.2441 "/>
<polyline clip-path="url(#clip962)" style="stroke:#000000; stroke-linecap:round; stroke-linejoin:round; stroke-width:2; stroke-opacity:0.1; fill:none" points="2010.67,1234.58 2010.67,47.2441 "/>
<polyline clip-path="url(#clip962)" style="stroke:#000000; stroke-linecap:round; stroke-linejoin:round; stroke-width:2; stroke-opacity:0.1; fill:none" points="153.718,1032.42 2064.76,1032.42 "/>
<polyline clip-path="url(#clip962)" style="stroke:#000000; stroke-linecap:round; stroke-linejoin:round; stroke-width:2; stroke-opacity:0.1; fill:none" points="153.718,766.223 2064.76,766.223 "/>
<polyline clip-path="url(#clip962)" style="stroke:#000000; stroke-linecap:round; stroke-linejoin:round; stroke-width:2; stroke-opacity:0.1; fill:none" points="153.718,500.021 2064.76,500.021 "/>
<polyline clip-path="url(#clip962)" style="stroke:#000000; stroke-linecap:round; stroke-linejoin:round; stroke-width:2; stroke-opacity:0.1; fill:none" points="153.718,233.819 2064.76,233.819 "/>
<polyline clip-path="url(#clip960)" style="stroke:#000000; stroke-linecap:round; stroke-linejoin:round; stroke-width:4; stroke-opacity:1; fill:none" points="153.718,1234.58 2064.76,1234.58 "/>
<polyline clip-path="url(#clip960)" style="stroke:#000000; stroke-linecap:round; stroke-linejoin:round; stroke-width:4; stroke-opacity:1; fill:none" points="207.804,1234.58 207.804,1215.68 "/>
<polyline clip-path="url(#clip960)" style="stroke:#000000; stroke-linecap:round; stroke-linejoin:round; stroke-width:4; stroke-opacity:1; fill:none" points="658.521,1234.58 658.521,1215.68 "/>
<polyline clip-path="url(#clip960)" style="stroke:#000000; stroke-linecap:round; stroke-linejoin:round; stroke-width:4; stroke-opacity:1; fill:none" points="1109.24,1234.58 1109.24,1215.68 "/>
<polyline clip-path="url(#clip960)" style="stroke:#000000; stroke-linecap:round; stroke-linejoin:round; stroke-width:4; stroke-opacity:1; fill:none" points="1559.95,1234.58 1559.95,1215.68 "/>
<polyline clip-path="url(#clip960)" style="stroke:#000000; stroke-linecap:round; stroke-linejoin:round; stroke-width:4; stroke-opacity:1; fill:none" points="2010.67,1234.58 2010.67,1215.68 "/>
<path clip-path="url(#clip960)" d="M198.186 1290.74 L205.825 1290.74 L205.825 1264.37 L197.515 1266.04 L197.515 1261.78 L205.779 1260.11 L210.455 1260.11 L210.455 1290.74 L218.094 1290.74 L218.094 1294.67 L198.186 1294.67 L198.186 1290.74 Z" fill="#000000" fill-rule="nonzero" fill-opacity="1" /><path clip-path="url(#clip960)" d="M653.173 1290.74 L669.493 1290.74 L669.493 1294.67 L647.548 1294.67 L647.548 1290.74 Q650.21 1287.99 654.794 1283.36 Q659.4 1278.7 660.581 1277.36 Q662.826 1274.84 663.706 1273.1 Q664.609 1271.34 664.609 1269.65 Q664.609 1266.9 662.664 1265.16 Q660.743 1263.42 657.641 1263.42 Q655.442 1263.42 652.988 1264.19 Q650.558 1264.95 647.78 1266.5 L647.78 1261.78 Q650.604 1260.65 653.058 1260.07 Q655.511 1259.49 657.548 1259.49 Q662.919 1259.49 666.113 1262.17 Q669.308 1264.86 669.308 1269.35 Q669.308 1271.48 668.497 1273.4 Q667.71 1275.3 665.604 1277.89 Q665.025 1278.56 661.923 1281.78 Q658.822 1284.98 653.173 1290.74 Z" fill="#000000" fill-rule="nonzero" fill-opacity="1" /><path clip-path="url(#clip960)" d="M1113.48 1276.04 Q1116.84 1276.76 1118.72 1279.03 Q1120.61 1281.3 1120.61 1284.63 Q1120.61 1289.74 1117.1 1292.55 Q1113.58 1295.35 1107.1 1295.35 Q1104.92 1295.35 1102.61 1294.91 Q1100.31 1294.49 1097.86 1293.63 L1097.86 1289.12 Q1099.8 1290.25 1102.12 1290.83 Q1104.43 1291.41 1106.96 1291.41 Q1111.36 1291.41 1113.65 1289.67 Q1115.96 1287.94 1115.96 1284.63 Q1115.96 1281.57 1113.81 1279.86 Q1111.68 1278.12 1107.86 1278.12 L1103.83 1278.12 L1103.83 1274.28 L1108.04 1274.28 Q1111.49 1274.28 1113.32 1272.92 Q1115.15 1271.53 1115.15 1268.93 Q1115.15 1266.27 1113.25 1264.86 Q1111.38 1263.42 1107.86 1263.42 Q1105.94 1263.42 1103.74 1263.84 Q1101.54 1264.26 1098.9 1265.14 L1098.9 1260.97 Q1101.56 1260.23 1103.88 1259.86 Q1106.22 1259.49 1108.28 1259.49 Q1113.6 1259.49 1116.7 1261.92 Q1119.8 1264.33 1119.8 1268.45 Q1119.8 1271.32 1118.16 1273.31 Q1116.52 1275.28 1113.48 1276.04 Z" fill="#000000" fill-rule="nonzero" fill-opacity="1" /><path clip-path="url(#clip960)" d="M1562.96 1264.19 L1551.16 1282.64 L1562.96 1282.64 L1562.96 1264.19 M1561.74 1260.11 L1567.62 1260.11 L1567.62 1282.64 L1572.55 1282.64 L1572.55 1286.53 L1567.62 1286.53 L1567.62 1294.67 L1562.96 1294.67 L1562.96 1286.53 L1547.36 1286.53 L1547.36 1282.01 L1561.74 1260.11 Z" fill="#000000" fill-rule="nonzero" fill-opacity="1" /><path clip-path="url(#clip960)" d="M2000.95 1260.11 L2019.3 1260.11 L2019.3 1264.05 L2005.23 1264.05 L2005.23 1272.52 Q2006.25 1272.17 2007.27 1272.01 Q2008.29 1271.83 2009.3 1271.83 Q2015.09 1271.83 2018.47 1275 Q2021.85 1278.17 2021.85 1283.59 Q2021.85 1289.17 2018.38 1292.27 Q2014.91 1295.35 2008.59 1295.35 Q2006.41 1295.35 2004.14 1294.98 Q2001.9 1294.61 1999.49 1293.86 L1999.49 1289.17 Q2001.57 1290.3 2003.79 1290.86 Q2006.02 1291.41 2008.49 1291.41 Q2012.5 1291.41 2014.84 1289.3 Q2017.17 1287.2 2017.17 1283.59 Q2017.17 1279.98 2014.84 1277.87 Q2012.5 1275.76 2008.49 1275.76 Q2006.62 1275.76 2004.74 1276.18 Q2002.89 1276.6 2000.95 1277.48 L2000.95 1260.11 Z" fill="#000000" fill-rule="nonzero" fill-opacity="1" /><polyline clip-path="url(#clip960)" style="stroke:#000000; stroke-linecap:round; stroke-linejoin:round; stroke-width:4; stroke-opacity:1; fill:none" points="153.718,1234.58 153.718,47.2441 "/>
<polyline clip-path="url(#clip960)" style="stroke:#000000; stroke-linecap:round; stroke-linejoin:round; stroke-width:4; stroke-opacity:1; fill:none" points="153.718,1032.42 172.616,1032.42 "/>
<polyline clip-path="url(#clip960)" style="stroke:#000000; stroke-linecap:round; stroke-linejoin:round; stroke-width:4; stroke-opacity:1; fill:none" points="153.718,766.223 172.616,766.223 "/>
<polyline clip-path="url(#clip960)" style="stroke:#000000; stroke-linecap:round; stroke-linejoin:round; stroke-width:4; stroke-opacity:1; fill:none" points="153.718,500.021 172.616,500.021 "/>
<polyline clip-path="url(#clip960)" style="stroke:#000000; stroke-linecap:round; stroke-linejoin:round; stroke-width:4; stroke-opacity:1; fill:none" points="153.718,233.819 172.616,233.819 "/>
<path clip-path="url(#clip960)" d="M66.4598 1018.22 Q62.8487 1018.22 61.02 1021.79 Q59.2145 1025.33 59.2145 1032.46 Q59.2145 1039.57 61.02 1043.13 Q62.8487 1046.67 66.4598 1046.67 Q70.0941 1046.67 71.8996 1043.13 Q73.7283 1039.57 73.7283 1032.46 Q73.7283 1025.33 71.8996 1021.79 Q70.0941 1018.22 66.4598 1018.22 M66.4598 1014.52 Q72.27 1014.52 75.3255 1019.13 Q78.4042 1023.71 78.4042 1032.46 Q78.4042 1041.19 75.3255 1045.79 Q72.27 1050.38 66.4598 1050.38 Q60.6497 1050.38 57.571 1045.79 Q54.5154 1041.19 54.5154 1032.46 Q54.5154 1023.71 57.571 1019.13 Q60.6497 1014.52 66.4598 1014.52 Z" fill="#000000" fill-rule="nonzero" fill-opacity="1" /><path clip-path="url(#clip960)" d="M86.6218 1043.82 L91.506 1043.82 L91.506 1049.7 L86.6218 1049.7 L86.6218 1043.82 Z" fill="#000000" fill-rule="nonzero" fill-opacity="1" /><path clip-path="url(#clip960)" d="M105.719 1045.77 L122.038 1045.77 L122.038 1049.7 L100.094 1049.7 L100.094 1045.77 Q102.756 1043.01 107.339 1038.39 Q111.946 1033.73 113.126 1032.39 Q115.372 1029.87 116.251 1028.13 Q117.154 1026.37 117.154 1024.68 Q117.154 1021.93 115.21 1020.19 Q113.288 1018.45 110.186 1018.45 Q107.987 1018.45 105.534 1019.22 Q103.103 1019.98 100.325 1021.53 L100.325 1016.81 Q103.149 1015.68 105.603 1015.1 Q108.057 1014.52 110.094 1014.52 Q115.464 1014.52 118.659 1017.2 Q121.853 1019.89 121.853 1024.38 Q121.853 1026.51 121.043 1028.43 Q120.256 1030.33 118.149 1032.92 Q117.571 1033.59 114.469 1036.81 Q111.367 1040.01 105.719 1045.77 Z" fill="#000000" fill-rule="nonzero" fill-opacity="1" /><path clip-path="url(#clip960)" d="M64.3765 752.021 Q60.7654 752.021 58.9367 755.586 Q57.1312 759.128 57.1312 766.258 Q57.1312 773.364 58.9367 776.929 Q60.7654 780.47 64.3765 780.47 Q68.0107 780.47 69.8163 776.929 Q71.645 773.364 71.645 766.258 Q71.645 759.128 69.8163 755.586 Q68.0107 752.021 64.3765 752.021 M64.3765 748.318 Q70.1867 748.318 73.2422 752.924 Q76.3209 757.508 76.3209 766.258 Q76.3209 774.984 73.2422 779.591 Q70.1867 784.174 64.3765 784.174 Q58.5664 784.174 55.4877 779.591 Q52.4321 774.984 52.4321 766.258 Q52.4321 757.508 55.4877 752.924 Q58.5664 748.318 64.3765 748.318 Z" fill="#000000" fill-rule="nonzero" fill-opacity="1" /><path clip-path="url(#clip960)" d="M84.5384 777.623 L89.4227 777.623 L89.4227 783.503 L84.5384 783.503 L84.5384 777.623 Z" fill="#000000" fill-rule="nonzero" fill-opacity="1" /><path clip-path="url(#clip960)" d="M112.455 753.017 L100.649 771.466 L112.455 771.466 L112.455 753.017 M111.228 748.943 L117.108 748.943 L117.108 771.466 L122.038 771.466 L122.038 775.355 L117.108 775.355 L117.108 783.503 L112.455 783.503 L112.455 775.355 L96.8532 775.355 L96.8532 770.841 L111.228 748.943 Z" fill="#000000" fill-rule="nonzero" fill-opacity="1" /><path clip-path="url(#clip960)" d="M64.7006 485.82 Q61.0895 485.82 59.2608 489.385 Q57.4552 492.926 57.4552 500.056 Q57.4552 507.162 59.2608 510.727 Q61.0895 514.269 64.7006 514.269 Q68.3348 514.269 70.1404 510.727 Q71.9691 507.162 71.9691 500.056 Q71.9691 492.926 70.1404 489.385 Q68.3348 485.82 64.7006 485.82 M64.7006 482.116 Q70.5107 482.116 73.5663 486.723 Q76.645 491.306 76.645 500.056 Q76.645 508.783 73.5663 513.389 Q70.5107 517.972 64.7006 517.972 Q58.8904 517.972 55.8117 513.389 Q52.7562 508.783 52.7562 500.056 Q52.7562 491.306 55.8117 486.723 Q58.8904 482.116 64.7006 482.116 Z" fill="#000000" fill-rule="nonzero" fill-opacity="1" /><path clip-path="url(#clip960)" d="M84.8625 511.421 L89.7467 511.421 L89.7467 517.301 L84.8625 517.301 L84.8625 511.421 Z" fill="#000000" fill-rule="nonzero" fill-opacity="1" /><path clip-path="url(#clip960)" d="M110.511 498.158 Q107.362 498.158 105.511 500.31 Q103.682 502.463 103.682 506.213 Q103.682 509.94 105.511 512.116 Q107.362 514.269 110.511 514.269 Q113.659 514.269 115.487 512.116 Q117.339 509.94 117.339 506.213 Q117.339 502.463 115.487 500.31 Q113.659 498.158 110.511 498.158 M119.793 483.505 L119.793 487.764 Q118.034 486.931 116.228 486.491 Q114.446 486.051 112.686 486.051 Q108.057 486.051 105.603 489.176 Q103.173 492.301 102.825 498.621 Q104.191 496.607 106.251 495.542 Q108.311 494.454 110.788 494.454 Q115.997 494.454 119.006 497.625 Q122.038 500.773 122.038 506.213 Q122.038 511.537 118.89 514.755 Q115.742 517.972 110.511 517.972 Q104.515 517.972 101.344 513.389 Q98.1726 508.783 98.1726 500.056 Q98.1726 491.861 102.061 487 Q105.95 482.116 112.501 482.116 Q114.26 482.116 116.043 482.463 Q117.848 482.811 119.793 483.505 Z" fill="#000000" fill-rule="nonzero" fill-opacity="1" /><path clip-path="url(#clip960)" d="M64.9552 219.618 Q61.3441 219.618 59.5154 223.183 Q57.7099 226.725 57.7099 233.854 Q57.7099 240.961 59.5154 244.525 Q61.3441 248.067 64.9552 248.067 Q68.5894 248.067 70.395 244.525 Q72.2237 240.961 72.2237 233.854 Q72.2237 226.725 70.395 223.183 Q68.5894 219.618 64.9552 219.618 M64.9552 215.914 Q70.7654 215.914 73.8209 220.521 Q76.8996 225.104 76.8996 233.854 Q76.8996 242.581 73.8209 247.187 Q70.7654 251.771 64.9552 251.771 Q59.1451 251.771 56.0664 247.187 Q53.0108 242.581 53.0108 233.854 Q53.0108 225.104 56.0664 220.521 Q59.1451 215.914 64.9552 215.914 Z" fill="#000000" fill-rule="nonzero" fill-opacity="1" /><path clip-path="url(#clip960)" d="M85.1171 245.22 L90.0014 245.22 L90.0014 251.099 L85.1171 251.099 L85.1171 245.22 Z" fill="#000000" fill-rule="nonzero" fill-opacity="1" /><path clip-path="url(#clip960)" d="M110.186 234.687 Q106.853 234.687 104.932 236.47 Q103.034 238.252 103.034 241.377 Q103.034 244.502 104.932 246.285 Q106.853 248.067 110.186 248.067 Q113.52 248.067 115.441 246.285 Q117.362 244.479 117.362 241.377 Q117.362 238.252 115.441 236.47 Q113.543 234.687 110.186 234.687 M105.511 232.697 Q102.501 231.956 100.811 229.896 Q99.1448 227.836 99.1448 224.873 Q99.1448 220.729 102.085 218.322 Q105.048 215.914 110.186 215.914 Q115.348 215.914 118.288 218.322 Q121.228 220.729 121.228 224.873 Q121.228 227.836 119.538 229.896 Q117.872 231.956 114.885 232.697 Q118.265 233.484 120.14 235.775 Q122.038 238.067 122.038 241.377 Q122.038 246.4 118.96 249.086 Q115.904 251.771 110.186 251.771 Q104.469 251.771 101.39 249.086 Q98.3347 246.4 98.3347 241.377 Q98.3347 238.067 100.233 235.775 Q102.131 233.484 105.511 232.697 M103.798 225.312 Q103.798 227.998 105.464 229.502 Q107.154 231.007 110.186 231.007 Q113.196 231.007 114.885 229.502 Q116.598 227.998 116.598 225.312 Q116.598 222.627 114.885 221.123 Q113.196 219.618 110.186 219.618 Q107.154 219.618 105.464 221.123 Q103.798 222.627 103.798 225.312 Z" fill="#000000" fill-rule="nonzero" fill-opacity="1" /><polyline clip-path="url(#clip962)" style="stroke:#009af9; stroke-linecap:round; stroke-linejoin:round; stroke-width:4; stroke-opacity:1; fill:none" points="207.804,1200.97 658.521,833.783 1109.24,368.482 1559.95,462.4 2010.67,80.8479 "/>
<path clip-path="url(#clip960)" d="M1517.82 190.502 L2001.05 190.502 L2001.05 86.8219 L1517.82 86.8219  Z" fill="#ffffff" fill-rule="evenodd" fill-opacity="1"/>
<polyline clip-path="url(#clip960)" style="stroke:#000000; stroke-linecap:round; stroke-linejoin:round; stroke-width:4; stroke-opacity:1; fill:none" points="1517.82,190.502 2001.05,190.502 2001.05,86.8219 1517.82,86.8219 1517.82,190.502 "/>
<polyline clip-path="url(#clip960)" style="stroke:#009af9; stroke-linecap:round; stroke-linejoin:round; stroke-width:4; stroke-opacity:1; fill:none" points="1539.06,138.662 1666.46,138.662 "/>
<path clip-path="url(#clip960)" d="M1699.59 133.002 Q1696.17 133.002 1694.17 135.687 Q1692.18 138.349 1692.18 143.002 Q1692.18 147.655 1694.15 150.34 Q1696.14 153.002 1699.59 153.002 Q1702.99 153.002 1704.98 150.317 Q1706.98 147.632 1706.98 143.002 Q1706.98 138.396 1704.98 135.711 Q1702.99 133.002 1699.59 133.002 M1699.59 129.391 Q1705.15 129.391 1708.32 133.002 Q1711.49 136.613 1711.49 143.002 Q1711.49 149.368 1708.32 153.002 Q1705.15 156.613 1699.59 156.613 Q1694.01 156.613 1690.84 153.002 Q1687.69 149.368 1687.69 143.002 Q1687.69 136.613 1690.84 133.002 Q1694.01 129.391 1699.59 129.391 Z" fill="#000000" fill-rule="nonzero" fill-opacity="1" /><path clip-path="url(#clip960)" d="M1733.57 133.998 Q1732.85 133.581 1732 133.396 Q1731.16 133.187 1730.15 133.187 Q1726.54 133.187 1724.59 135.549 Q1722.67 137.886 1722.67 142.285 L1722.67 155.942 L1718.39 155.942 L1718.39 130.016 L1722.67 130.016 L1722.67 134.044 Q1724.01 131.683 1726.16 130.549 Q1728.32 129.391 1731.4 129.391 Q1731.84 129.391 1732.37 129.461 Q1732.9 129.507 1733.55 129.623 L1733.57 133.998 Z" fill="#000000" fill-rule="nonzero" fill-opacity="1" /><path clip-path="url(#clip960)" d="M1738.04 130.016 L1742.3 130.016 L1742.3 155.942 L1738.04 155.942 L1738.04 130.016 M1738.04 119.924 L1742.3 119.924 L1742.3 125.317 L1738.04 125.317 L1738.04 119.924 Z" fill="#000000" fill-rule="nonzero" fill-opacity="1" /><path clip-path="url(#clip960)" d="M1768.27 142.678 Q1768.27 138.048 1766.35 135.502 Q1764.45 132.956 1761 132.956 Q1757.58 132.956 1755.66 135.502 Q1753.76 138.048 1753.76 142.678 Q1753.76 147.285 1755.66 149.831 Q1757.58 152.377 1761 152.377 Q1764.45 152.377 1766.35 149.831 Q1768.27 147.285 1768.27 142.678 M1772.53 152.724 Q1772.53 159.345 1769.59 162.562 Q1766.65 165.803 1760.59 165.803 Q1758.34 165.803 1756.35 165.456 Q1754.36 165.132 1752.48 164.437 L1752.48 160.294 Q1754.36 161.312 1756.19 161.798 Q1758.02 162.284 1759.91 162.284 Q1764.1 162.284 1766.19 160.085 Q1768.27 157.909 1768.27 153.488 L1768.27 151.382 Q1766.95 153.673 1764.89 154.808 Q1762.83 155.942 1759.96 155.942 Q1755.19 155.942 1752.28 152.308 Q1749.36 148.673 1749.36 142.678 Q1749.36 136.66 1752.28 133.025 Q1755.19 129.391 1759.96 129.391 Q1762.83 129.391 1764.89 130.525 Q1766.95 131.66 1768.27 133.951 L1768.27 130.016 L1772.53 130.016 L1772.53 152.724 Z" fill="#000000" fill-rule="nonzero" fill-opacity="1" /><path clip-path="url(#clip960)" d="M1781.3 130.016 L1785.56 130.016 L1785.56 155.942 L1781.3 155.942 L1781.3 130.016 M1781.3 119.924 L1785.56 119.924 L1785.56 125.317 L1781.3 125.317 L1781.3 119.924 Z" fill="#000000" fill-rule="nonzero" fill-opacity="1" /><path clip-path="url(#clip960)" d="M1816.03 140.294 L1816.03 155.942 L1811.77 155.942 L1811.77 140.433 Q1811.77 136.752 1810.33 134.924 Q1808.9 133.095 1806.03 133.095 Q1802.58 133.095 1800.59 135.294 Q1798.6 137.493 1798.6 141.289 L1798.6 155.942 L1794.31 155.942 L1794.31 130.016 L1798.6 130.016 L1798.6 134.044 Q1800.12 131.706 1802.18 130.549 Q1804.27 129.391 1806.97 129.391 Q1811.44 129.391 1813.73 132.169 Q1816.03 134.924 1816.03 140.294 Z" fill="#000000" fill-rule="nonzero" fill-opacity="1" /><path clip-path="url(#clip960)" d="M1836.3 142.91 Q1831.14 142.91 1829.15 144.09 Q1827.16 145.271 1827.16 148.118 Q1827.16 150.386 1828.64 151.729 Q1830.15 153.048 1832.72 153.048 Q1836.26 153.048 1838.39 150.548 Q1840.54 148.025 1840.54 143.859 L1840.54 142.91 L1836.3 142.91 M1844.8 141.15 L1844.8 155.942 L1840.54 155.942 L1840.54 152.007 Q1839.08 154.368 1836.9 155.502 Q1834.73 156.613 1831.58 156.613 Q1827.6 156.613 1825.24 154.391 Q1822.9 152.146 1822.9 148.396 Q1822.9 144.021 1825.82 141.798 Q1828.76 139.576 1834.57 139.576 L1840.54 139.576 L1840.54 139.16 Q1840.54 136.22 1838.59 134.623 Q1836.67 133.002 1833.18 133.002 Q1830.96 133.002 1828.85 133.535 Q1826.74 134.067 1824.8 135.132 L1824.8 131.197 Q1827.14 130.294 1829.34 129.854 Q1831.53 129.391 1833.62 129.391 Q1839.24 129.391 1842.02 132.308 Q1844.8 135.224 1844.8 141.15 Z" fill="#000000" fill-rule="nonzero" fill-opacity="1" /><path clip-path="url(#clip960)" d="M1853.57 119.924 L1857.83 119.924 L1857.83 155.942 L1853.57 155.942 L1853.57 119.924 Z" fill="#000000" fill-rule="nonzero" fill-opacity="1" /><path clip-path="url(#clip960)" d="M1898.87 133.951 L1898.87 119.924 L1903.13 119.924 L1903.13 155.942 L1898.87 155.942 L1898.87 152.053 Q1897.53 154.368 1895.47 155.502 Q1893.43 156.613 1890.56 156.613 Q1885.86 156.613 1882.9 152.863 Q1879.96 149.113 1879.96 143.002 Q1879.96 136.891 1882.9 133.141 Q1885.86 129.391 1890.56 129.391 Q1893.43 129.391 1895.47 130.525 Q1897.53 131.636 1898.87 133.951 M1884.36 143.002 Q1884.36 147.701 1886.28 150.386 Q1888.22 153.048 1891.6 153.048 Q1894.98 153.048 1896.93 150.386 Q1898.87 147.701 1898.87 143.002 Q1898.87 138.303 1896.93 135.641 Q1894.98 132.956 1891.6 132.956 Q1888.22 132.956 1886.28 135.641 Q1884.36 138.303 1884.36 143.002 Z" fill="#000000" fill-rule="nonzero" fill-opacity="1" /><path clip-path="url(#clip960)" d="M1923.69 142.91 Q1918.52 142.91 1916.53 144.09 Q1914.54 145.271 1914.54 148.118 Q1914.54 150.386 1916.02 151.729 Q1917.53 153.048 1920.1 153.048 Q1923.64 153.048 1925.77 150.548 Q1927.92 148.025 1927.92 143.859 L1927.92 142.91 L1923.69 142.91 M1932.18 141.15 L1932.18 155.942 L1927.92 155.942 L1927.92 152.007 Q1926.46 154.368 1924.29 155.502 Q1922.11 156.613 1918.96 156.613 Q1914.98 156.613 1912.62 154.391 Q1910.28 152.146 1910.28 148.396 Q1910.28 144.021 1913.2 141.798 Q1916.14 139.576 1921.95 139.576 L1927.92 139.576 L1927.92 139.16 Q1927.92 136.22 1925.98 134.623 Q1924.06 133.002 1920.56 133.002 Q1918.34 133.002 1916.23 133.535 Q1914.13 134.067 1912.18 135.132 L1912.18 131.197 Q1914.52 130.294 1916.72 129.854 Q1918.92 129.391 1921 129.391 Q1926.63 129.391 1929.4 132.308 Q1932.18 135.224 1932.18 141.15 Z" fill="#000000" fill-rule="nonzero" fill-opacity="1" /><path clip-path="url(#clip960)" d="M1945.17 122.655 L1945.17 130.016 L1953.94 130.016 L1953.94 133.326 L1945.17 133.326 L1945.17 147.4 Q1945.17 150.572 1946.02 151.474 Q1946.9 152.377 1949.57 152.377 L1953.94 152.377 L1953.94 155.942 L1949.57 155.942 Q1944.64 155.942 1942.76 154.113 Q1940.89 152.261 1940.89 147.4 L1940.89 133.326 L1937.76 133.326 L1937.76 130.016 L1940.89 130.016 L1940.89 122.655 L1945.17 122.655 Z" fill="#000000" fill-rule="nonzero" fill-opacity="1" /><path clip-path="url(#clip960)" d="M1971.33 142.91 Q1966.16 142.91 1964.17 144.09 Q1962.18 145.271 1962.18 148.118 Q1962.18 150.386 1963.66 151.729 Q1965.17 153.048 1967.74 153.048 Q1971.28 153.048 1973.41 150.548 Q1975.56 148.025 1975.56 143.859 L1975.56 142.91 L1971.33 142.91 M1979.82 141.15 L1979.82 155.942 L1975.56 155.942 L1975.56 152.007 Q1974.1 154.368 1971.93 155.502 Q1969.75 156.613 1966.6 156.613 Q1962.62 156.613 1960.26 154.391 Q1957.92 152.146 1957.92 148.396 Q1957.92 144.021 1960.84 141.798 Q1963.78 139.576 1969.59 139.576 L1975.56 139.576 L1975.56 139.16 Q1975.56 136.22 1973.62 134.623 Q1971.7 133.002 1968.2 133.002 Q1965.98 133.002 1963.87 133.535 Q1961.77 134.067 1959.82 135.132 L1959.82 131.197 Q1962.16 130.294 1964.36 129.854 Q1966.56 129.391 1968.64 129.391 Q1974.27 129.391 1977.04 132.308 Q1979.82 135.224 1979.82 141.15 Z" fill="#000000" fill-rule="nonzero" fill-opacity="1" /></svg>
