<?xml version="1.0" encoding="utf-8"?>
<svg xmlns="http://www.w3.org/2000/svg" xmlns:xlink="http://www.w3.org/1999/xlink" width="528" height="336" viewBox="0 0 2112 1344">
<defs>
  <clipPath id="clip600">
    <rect x="0" y="0" width="2112" height="1344"/>
  </clipPath>
</defs>
<path clip-path="url(#clip600)" d="M0 1344 L2112 1344 L2112 2.13163e-14 L0 2.13163e-14  Z" fill="#ffffff" fill-rule="evenodd" fill-opacity="1"/>
<defs>
  <clipPath id="clip601">
    <rect x="422" y="0" width="1479" height="1344"/>
  </clipPath>
</defs>
<path clip-path="url(#clip600)" d="M153.718 1234.58 L2064.76 1234.58 L2064.76 47.2441 L153.718 47.2441  Z" fill="#ffffff" fill-rule="evenodd" fill-opacity="1"/>
<defs>
  <clipPath id="clip602">
    <rect x="153" y="47" width="1912" height="1188"/>
  </clipPath>
</defs>
<polyline clip-path="url(#clip602)" style="stroke:#000000; stroke-linecap:round; stroke-linejoin:round; stroke-width:2; stroke-opacity:0.1; fill:none" points="207.804,1234.58 207.804,47.2441 "/>
<polyline clip-path="url(#clip602)" style="stroke:#000000; stroke-linecap:round; stroke-linejoin:round; stroke-width:2; stroke-opacity:0.1; fill:none" points="658.521,1234.58 658.521,47.2441 "/>
<polyline clip-path="url(#clip602)" style="stroke:#000000; stroke-linecap:round; stroke-linejoin:round; stroke-width:2; stroke-opacity:0.1; fill:none" points="1109.24,1234.58 1109.24,47.2441 "/>
<polyline clip-path="url(#clip602)" style="stroke:#000000; stroke-linecap:round; stroke-linejoin:round; stroke-width:2; stroke-opacity:0.1; fill:none" points="1559.95,1234.58 1559.95,47.2441 "/>
<polyline clip-path="url(#clip602)" style="stroke:#000000; stroke-linecap:round; stroke-linejoin:round; stroke-width:2; stroke-opacity:0.1; fill:none" points="2010.67,1234.58 2010.67,47.2441 "/>
<polyline clip-path="url(#clip602)" style="stroke:#000000; stroke-linecap:round; stroke-linejoin:round; stroke-width:2; stroke-opacity:0.1; fill:none" points="153.718,1202.63 2064.76,1202.63 "/>
<polyline clip-path="url(#clip602)" style="stroke:#000000; stroke-linecap:round; stroke-linejoin:round; stroke-width:2; stroke-opacity:0.1; fill:none" points="153.718,957.413 2064.76,957.413 "/>
<polyline clip-path="url(#clip602)" style="stroke:#000000; stroke-linecap:round; stroke-linejoin:round; stroke-width:2; stroke-opacity:0.1; fill:none" points="153.718,712.196 2064.76,712.196 "/>
<polyline clip-path="url(#clip602)" style="stroke:#000000; stroke-linecap:round; stroke-linejoin:round; stroke-width:2; stroke-opacity:0.1; fill:none" points="153.718,466.978 2064.76,466.978 "/>
<polyline clip-path="url(#clip602)" style="stroke:#000000; stroke-linecap:round; stroke-linejoin:round; stroke-width:2; stroke-opacity:0.1; fill:none" points="153.718,221.761 2064.76,221.761 "/>
<polyline clip-path="url(#clip600)" style="stroke:#000000; stroke-linecap:round; stroke-linejoin:round; stroke-width:4; stroke-opacity:1; fill:none" points="153.718,1234.58 2064.76,1234.58 "/>
<polyline clip-path="url(#clip600)" style="stroke:#000000; stroke-linecap:round; stroke-linejoin:round; stroke-width:4; stroke-opacity:1; fill:none" points="207.804,1234.58 207.804,1215.68 "/>
<polyline clip-path="url(#clip600)" style="stroke:#000000; stroke-linecap:round; stroke-linejoin:round; stroke-width:4; stroke-opacity:1; fill:none" points="658.521,1234.58 658.521,1215.68 "/>
<polyline clip-path="url(#clip600)" style="stroke:#000000; stroke-linecap:round; stroke-linejoin:round; stroke-width:4; stroke-opacity:1; fill:none" points="1109.24,1234.58 1109.24,1215.68 "/>
<polyline clip-path="url(#clip600)" style="stroke:#000000; stroke-linecap:round; stroke-linejoin:round; stroke-width:4; stroke-opacity:1; fill:none" points="1559.95,1234.58 1559.95,1215.68 "/>
<polyline clip-path="url(#clip600)" style="stroke:#000000; stroke-linecap:round; stroke-linejoin:round; stroke-width:4; stroke-opacity:1; fill:none" points="2010.67,1234.58 2010.67,1215.68 "/>
<path clip-path="url(#clip600)" d="M198.186 1290.74 L205.825 1290.74 L205.825 1264.37 L197.515 1266.04 L197.515 1261.78 L205.779 1260.11 L210.455 1260.11 L210.455 1290.74 L218.094 1290.74 L218.094 1294.67 L198.186 1294.67 L198.186 1290.74 Z" fill="#000000" fill-rule="nonzero" fill-opacity="1" /><path clip-path="url(#clip600)" d="M653.173 1290.74 L669.493 1290.74 L669.493 1294.67 L647.548 1294.67 L647.548 1290.74 Q650.21 1287.99 654.794 1283.36 Q659.4 1278.7 660.581 1277.36 Q662.826 1274.84 663.706 1273.1 Q664.609 1271.34 664.609 1269.65 Q664.609 1266.9 662.664 1265.16 Q660.743 1263.42 657.641 1263.42 Q655.442 1263.42 652.988 1264.19 Q650.558 1264.95 647.78 1266.5 L647.78 1261.78 Q650.604 1260.65 653.058 1260.07 Q655.511 1259.49 657.548 1259.49 Q662.919 1259.49 666.113 1262.17 Q669.308 1264.86 669.308 1269.35 Q669.308 1271.48 668.497 1273.4 Q667.71 1275.3 665.604 1277.89 Q665.025 1278.56 661.923 1281.78 Q658.822 1284.98 653.173 1290.74 Z" fill="#000000" fill-rule="nonzero" fill-opacity="1" /><path clip-path="url(#clip600)" d="M1113.48 1276.04 Q1116.84 1276.76 1118.72 1279.03 Q1120.61 1281.3 1120.61 1284.63 Q1120.61 1289.74 1117.1 1292.55 Q1113.58 1295.35 1107.1 1295.35 Q1104.92 1295.35 1102.61 1294.91 Q1100.31 1294.49 1097.86 1293.63 L1097.86 1289.12 Q1099.8 1290.25 1102.12 1290.83 Q1104.43 1291.41 1106.96 1291.41 Q1111.36 1291.41 1113.65 1289.67 Q1115.96 1287.94 1115.96 1284.63 Q1115.96 1281.57 1113.81 1279.86 Q1111.68 1278.12 1107.86 1278.12 L1103.83 1278.12 L1103.83 1274.28 L1108.04 1274.28 Q1111.49 1274.28 1113.32 1272.92 Q1115.15 1271.53 1115.15 1268.93 Q1115.15 1266.27 1113.25 1264.86 Q1111.38 1263.42 1107.86 1263.42 Q1105.94 1263.42 1103.74 1263.84 Q1101.54 1264.26 1098.9 1265.14 L1098.9 1260.97 Q1101.56 1260.23 1103.88 1259.86 Q1106.22 1259.49 1108.28 1259.49 Q1113.6 1259.49 1116.7 1261.92 Q1119.8 1264.33 1119.8 1268.45 Q1119.8 1271.32 1118.16 1273.31 Q1116.52 1275.28 1113.48 1276.04 Z" fill="#000000" fill-rule="nonzero" fill-opacity="1" /><path clip-path="url(#clip600)" d="M1562.96 1264.19 L1551.16 1282.64 L1562.96 1282.64 L1562.96 1264.19 M1561.74 1260.11 L1567.62 1260.11 L1567.62 1282.64 L1572.55 1282.64 L1572.55 1286.53 L1567.62 1286.53 L1567.62 1294.67 L1562.96 1294.67 L1562.96 1286.53 L1547.36 1286.53 L1547.36 1282.01 L1561.74 1260.11 Z" fill="#000000" fill-rule="nonzero" fill-opacity="1" /><path clip-path="url(#clip600)" d="M2000.95 1260.11 L2019.3 1260.11 L2019.3 1264.05 L2005.23 1264.05 L2005.23 1272.52 Q2006.25 1272.17 2007.27 1272.01 Q2008.29 1271.83 2009.3 1271.83 Q2015.09 1271.83 2018.47 1275 Q2021.85 1278.17 2021.85 1283.59 Q2021.85 1289.17 2018.38 1292.27 Q2014.91 1295.35 2008.59 1295.35 Q2006.41 1295.35 2004.14 1294.98 Q2001.9 1294.61 1999.49 1293.86 L1999.49 1289.17 Q2001.57 1290.3 2003.79 1290.86 Q2006.02 1291.41 2008.49 1291.41 Q2012.5 1291.41 2014.84 1289.3 Q2017.17 1287.2 2017.17 1283.59 Q2017.17 1279.98 2014.84 1277.87 Q2012.5 1275.76 2008.49 1275.76 Q2006.62 1275.76 2004.74 1276.18 Q2002.89 1276.6 2000.95 1277.48 L2000.95 1260.11 Z" fill="#000000" fill-rule="nonzero" fill-opacity="1" /><polyline clip-path="url(#clip600)" style="stroke:#000000; stroke-linecap:round; stroke-linejoin:round; stroke-width:4; stroke-opacity:1; fill:none" points="153.718,1234.58 153.718,47.2441 "/>
<polyline clip-path="url(#clip600)" style="stroke:#000000; stroke-linecap:round; stroke-linejoin:round; stroke-width:4; stroke-opacity:1; fill:none" points="153.718,1202.63 172.616,1202.63 "/>
<polyline clip-path="url(#clip600)" style="stroke:#000000; stroke-linecap:round; stroke-linejoin:round; stroke-width:4; stroke-opacity:1; fill:none" points="153.718,957.413 172.616,957.413 "/>
<polyline clip-path="url(#clip600)" style="stroke:#000000; stroke-linecap:round; stroke-linejoin:round; stroke-width:4; stroke-opacity:1; fill:none" points="153.718,712.196 172.616,712.196 "/>
<polyline clip-path="url(#clip600)" style="stroke:#000000; stroke-linecap:round; stroke-linejoin:round; stroke-width:4; stroke-opacity:1; fill:none" points="153.718,466.978 172.616,466.978 "/>
<polyline clip-path="url(#clip600)" style="stroke:#000000; stroke-linecap:round; stroke-linejoin:round; stroke-width:4; stroke-opacity:1; fill:none" points="153.718,221.761 172.616,221.761 "/>
<path clip-path="url(#clip600)" d="M64.8626 1188.43 Q61.2515 1188.43 59.4228 1191.99 Q57.6173 1195.54 57.6173 1202.67 Q57.6173 1209.77 59.4228 1213.34 Q61.2515 1216.88 64.8626 1216.88 Q68.4969 1216.88 70.3024 1213.34 Q72.1311 1209.77 72.1311 1202.67 Q72.1311 1195.54 70.3024 1191.99 Q68.4969 1188.43 64.8626 1188.43 M64.8626 1184.73 Q70.6728 1184.73 73.7283 1189.33 Q76.807 1193.92 76.807 1202.67 Q76.807 1211.39 73.7283 1216 Q70.6728 1220.58 64.8626 1220.58 Q59.0525 1220.58 55.9738 1216 Q52.9182 1211.39 52.9182 1202.67 Q52.9182 1193.92 55.9738 1189.33 Q59.0525 1184.73 64.8626 1184.73 Z" fill="#000000" fill-rule="nonzero" fill-opacity="1" /><path clip-path="url(#clip600)" d="M85.0245 1214.03 L89.9088 1214.03 L89.9088 1219.91 L85.0245 1219.91 L85.0245 1214.03 Z" fill="#000000" fill-rule="nonzero" fill-opacity="1" /><path clip-path="url(#clip600)" d="M110.094 1188.43 Q106.483 1188.43 104.654 1191.99 Q102.849 1195.54 102.849 1202.67 Q102.849 1209.77 104.654 1213.34 Q106.483 1216.88 110.094 1216.88 Q113.728 1216.88 115.534 1213.34 Q117.362 1209.77 117.362 1202.67 Q117.362 1195.54 115.534 1191.99 Q113.728 1188.43 110.094 1188.43 M110.094 1184.73 Q115.904 1184.73 118.96 1189.33 Q122.038 1193.92 122.038 1202.67 Q122.038 1211.39 118.96 1216 Q115.904 1220.58 110.094 1220.58 Q104.284 1220.58 101.205 1216 Q98.1495 1211.39 98.1495 1202.67 Q98.1495 1193.92 101.205 1189.33 Q104.284 1184.73 110.094 1184.73 Z" fill="#000000" fill-rule="nonzero" fill-opacity="1" /><path clip-path="url(#clip600)" d="M66.4598 943.212 Q62.8487 943.212 61.02 946.777 Q59.2145 950.318 59.2145 957.448 Q59.2145 964.554 61.02 968.119 Q62.8487 971.661 66.4598 971.661 Q70.0941 971.661 71.8996 968.119 Q73.7283 964.554 73.7283 957.448 Q73.7283 950.318 71.8996 946.777 Q70.0941 943.212 66.4598 943.212 M66.4598 939.508 Q72.27 939.508 75.3255 944.115 Q78.4042 948.698 78.4042 957.448 Q78.4042 966.175 75.3255 970.781 Q72.27 975.364 66.4598 975.364 Q60.6497 975.364 57.571 970.781 Q54.5154 966.175 54.5154 957.448 Q54.5154 948.698 57.571 944.115 Q60.6497 939.508 66.4598 939.508 Z" fill="#000000" fill-rule="nonzero" fill-opacity="1" /><path clip-path="url(#clip600)" d="M86.6218 968.814 L91.506 968.814 L91.506 974.693 L86.6218 974.693 L86.6218 968.814 Z" fill="#000000" fill-rule="nonzero" fill-opacity="1" /><path clip-path="url(#clip600)" d="M105.719 970.758 L122.038 970.758 L122.038 974.693 L100.094 974.693 L100.094 970.758 Q102.756 968.003 107.339 963.374 Q111.946 958.721 113.126 957.378 Q115.372 954.855 116.251 953.119 Q117.154 951.36 117.154 949.67 Q117.154 946.915 115.21 945.179 Q113.288 943.443 110.186 943.443 Q107.987 943.443 105.534 944.207 Q103.103 944.971 100.325 946.522 L100.325 941.8 Q103.149 940.666 105.603 940.087 Q108.057 939.508 110.094 939.508 Q115.464 939.508 118.659 942.193 Q121.853 944.878 121.853 949.369 Q121.853 951.499 121.043 953.42 Q120.256 955.318 118.149 957.911 Q117.571 958.582 114.469 961.8 Q111.367 964.994 105.719 970.758 Z" fill="#000000" fill-rule="nonzero" fill-opacity="1" /><path clip-path="url(#clip600)" d="M64.3765 697.994 Q60.7654 697.994 58.9367 701.559 Q57.1312 705.101 57.1312 712.23 Q57.1312 719.337 58.9367 722.902 Q60.7654 726.443 64.3765 726.443 Q68.0107 726.443 69.8163 722.902 Q71.645 719.337 71.645 712.23 Q71.645 705.101 69.8163 701.559 Q68.0107 697.994 64.3765 697.994 M64.3765 694.291 Q70.1867 694.291 73.2422 698.897 Q76.3209 703.48 76.3209 712.23 Q76.3209 720.957 73.2422 725.564 Q70.1867 730.147 64.3765 730.147 Q58.5664 730.147 55.4877 725.564 Q52.4321 720.957 52.4321 712.23 Q52.4321 703.48 55.4877 698.897 Q58.5664 694.291 64.3765 694.291 Z" fill="#000000" fill-rule="nonzero" fill-opacity="1" /><path clip-path="url(#clip600)" d="M84.5384 723.596 L89.4227 723.596 L89.4227 729.476 L84.5384 729.476 L84.5384 723.596 Z" fill="#000000" fill-rule="nonzero" fill-opacity="1" /><path clip-path="url(#clip600)" d="M112.455 698.99 L100.649 717.439 L112.455 717.439 L112.455 698.99 M111.228 694.916 L117.108 694.916 L117.108 717.439 L122.038 717.439 L122.038 721.328 L117.108 721.328 L117.108 729.476 L112.455 729.476 L112.455 721.328 L96.8532 721.328 L96.8532 716.814 L111.228 694.916 Z" fill="#000000" fill-rule="nonzero" fill-opacity="1" /><path clip-path="url(#clip600)" d="M64.7006 452.777 Q61.0895 452.777 59.2608 456.342 Q57.4552 459.883 57.4552 467.013 Q57.4552 474.119 59.2608 477.684 Q61.0895 481.226 64.7006 481.226 Q68.3348 481.226 70.1404 477.684 Q71.9691 474.119 71.9691 467.013 Q71.9691 459.883 70.1404 456.342 Q68.3348 452.777 64.7006 452.777 M64.7006 449.073 Q70.5107 449.073 73.5663 453.68 Q76.645 458.263 76.645 467.013 Q76.645 475.74 73.5663 480.346 Q70.5107 484.93 64.7006 484.93 Q58.8904 484.93 55.8117 480.346 Q52.7562 475.74 52.7562 467.013 Q52.7562 458.263 55.8117 453.68 Q58.8904 449.073 64.7006 449.073 Z" fill="#000000" fill-rule="nonzero" fill-opacity="1" /><path clip-path="url(#clip600)" d="M84.8625 478.379 L89.7467 478.379 L89.7467 484.258 L84.8625 484.258 L84.8625 478.379 Z" fill="#000000" fill-rule="nonzero" fill-opacity="1" /><path clip-path="url(#clip600)" d="M110.511 465.115 Q107.362 465.115 105.511 467.268 Q103.682 469.42 103.682 473.17 Q103.682 476.897 105.511 479.073 Q107.362 481.226 110.511 481.226 Q113.659 481.226 115.487 479.073 Q117.339 476.897 117.339 473.17 Q117.339 469.42 115.487 467.268 Q113.659 465.115 110.511 465.115 M119.793 450.462 L119.793 454.721 Q118.034 453.888 116.228 453.448 Q114.446 453.008 112.686 453.008 Q108.057 453.008 105.603 456.133 Q103.173 459.258 102.825 465.578 Q104.191 463.564 106.251 462.499 Q108.311 461.411 110.788 461.411 Q115.997 461.411 119.006 464.582 Q122.038 467.731 122.038 473.17 Q122.038 478.494 118.89 481.712 Q115.742 484.93 110.511 484.93 Q104.515 484.93 101.344 480.346 Q98.1726 475.74 98.1726 467.013 Q98.1726 458.819 102.061 453.958 Q105.95 449.073 112.501 449.073 Q114.26 449.073 116.043 449.421 Q117.848 449.768 119.793 450.462 Z" fill="#000000" fill-rule="nonzero" fill-opacity="1" /><path clip-path="url(#clip600)" d="M64.9552 207.56 Q61.3441 207.56 59.5154 211.124 Q57.7099 214.666 57.7099 221.796 Q57.7099 228.902 59.5154 232.467 Q61.3441 236.008 64.9552 236.008 Q68.5894 236.008 70.395 232.467 Q72.2237 228.902 72.2237 221.796 Q72.2237 214.666 70.395 211.124 Q68.5894 207.56 64.9552 207.56 M64.9552 203.856 Q70.7654 203.856 73.8209 208.462 Q76.8996 213.046 76.8996 221.796 Q76.8996 230.522 73.8209 235.129 Q70.7654 239.712 64.9552 239.712 Q59.1451 239.712 56.0664 235.129 Q53.0108 230.522 53.0108 221.796 Q53.0108 213.046 56.0664 208.462 Q59.1451 203.856 64.9552 203.856 Z" fill="#000000" fill-rule="nonzero" fill-opacity="1" /><path clip-path="url(#clip600)" d="M85.1171 233.161 L90.0014 233.161 L90.0014 239.041 L85.1171 239.041 L85.1171 233.161 Z" fill="#000000" fill-rule="nonzero" fill-opacity="1" /><path clip-path="url(#clip600)" d="M110.186 222.629 Q106.853 222.629 104.932 224.411 Q103.034 226.194 103.034 229.319 Q103.034 232.444 104.932 234.226 Q106.853 236.008 110.186 236.008 Q113.52 236.008 115.441 234.226 Q117.362 232.421 117.362 229.319 Q117.362 226.194 115.441 224.411 Q113.543 222.629 110.186 222.629 M105.511 220.638 Q102.501 219.897 100.811 217.837 Q99.1448 215.777 99.1448 212.814 Q99.1448 208.671 102.085 206.263 Q105.048 203.856 110.186 203.856 Q115.348 203.856 118.288 206.263 Q121.228 208.671 121.228 212.814 Q121.228 215.777 119.538 217.837 Q117.872 219.897 114.885 220.638 Q118.265 221.425 120.14 223.717 Q122.038 226.009 122.038 229.319 Q122.038 234.342 118.96 237.027 Q115.904 239.712 110.186 239.712 Q104.469 239.712 101.39 237.027 Q98.3347 234.342 98.3347 229.319 Q98.3347 226.009 100.233 223.717 Q102.131 221.425 105.511 220.638 M103.798 213.254 Q103.798 215.939 105.464 217.444 Q107.154 218.948 110.186 218.948 Q113.196 218.948 114.885 217.444 Q116.598 215.939 116.598 213.254 Q116.598 210.569 114.885 209.064 Q113.196 207.56 110.186 207.56 Q107.154 207.56 105.464 209.064 Q103.798 210.569 103.798 213.254 Z" fill="#000000" fill-rule="nonzero" fill-opacity="1" /><polyline clip-path="url(#clip602)" style="stroke:#009af9; stroke-linecap:round; stroke-linejoin:round; stroke-width:4; stroke-opacity:1; fill:none" points="207.804,1112.68 658.521,774.43 1109.24,345.808 1559.95,432.323 2010.67,80.8479 "/>
<polyline clip-path="url(#clip602)" style="stroke:#e26f46; stroke-linecap:round; stroke-linejoin:round; stroke-width:4; stroke-opacity:1; fill:none" points="207.804,966.231 658.521,258.322 1109.24,245.646 1559.95,380.829 2010.67,997.001 "/>
<circle clip-path="url(#clip602)" cx="207.804" cy="502.428" r="14.4" fill="#3da44d" fill-rule="evenodd" fill-opacity="1" stroke="#000000" stroke-opacity="1" stroke-width="2.688"/>
<circle clip-path="url(#clip602)" cx="658.521" cy="647.448" r="14.4" fill="#3da44d" fill-rule="evenodd" fill-opacity="1" stroke="#000000" stroke-opacity="1" stroke-width="2.688"/>
<circle clip-path="url(#clip602)" cx="1109.24" cy="831.953" r="14.4" fill="#3da44d" fill-rule="evenodd" fill-opacity="1" stroke="#000000" stroke-opacity="1" stroke-width="2.688"/>
<circle clip-path="url(#clip602)" cx="1559.95" cy="1200.97" r="14.4" fill="#3da44d" fill-rule="evenodd" fill-opacity="1" stroke="#000000" stroke-opacity="1" stroke-width="2.688"/>
<circle clip-path="url(#clip602)" cx="2010.67" cy="507.41" r="14.4" fill="#3da44d" fill-rule="evenodd" fill-opacity="1" stroke="#000000" stroke-opacity="1" stroke-width="2.688"/>
<path clip-path="url(#clip600)" d="M1440.72 294.182 L2001.05 294.182 L2001.05 86.8219 L1440.72 86.8219  Z" fill="#ffffff" fill-rule="evenodd" fill-opacity="1"/>
<polyline clip-path="url(#clip600)" style="stroke:#000000; stroke-linecap:round; stroke-linejoin:round; stroke-width:4; stroke-opacity:1; fill:none" points="1440.72,294.182 2001.05,294.182 2001.05,86.8219 1440.72,86.8219 1440.72,294.182 "/>
<polyline clip-path="url(#clip600)" style="stroke:#009af9; stroke-linecap:round; stroke-linejoin:round; stroke-width:4; stroke-opacity:1; fill:none" points="1461.95,138.662 1589.35,138.662 "/>
<path clip-path="url(#clip600)" d="M1622.48 133.002 Q1619.06 133.002 1617.07 135.687 Q1615.08 138.349 1615.08 143.002 Q1615.08 147.655 1617.05 150.34 Q1619.04 153.002 1622.48 153.002 Q1625.89 153.002 1627.88 150.317 Q1629.87 147.632 1629.87 143.002 Q1629.87 138.396 1627.88 135.711 Q1625.89 133.002 1622.48 133.002 M1622.48 129.391 Q1628.04 129.391 1631.21 133.002 Q1634.38 136.613 1634.38 143.002 Q1634.38 149.368 1631.21 153.002 Q1628.04 156.613 1622.48 156.613 Q1616.91 156.613 1613.73 153.002 Q1610.59 149.368 1610.59 143.002 Q1610.59 136.613 1613.73 133.002 Q1616.91 129.391 1622.48 129.391 Z" fill="#000000" fill-rule="nonzero" fill-opacity="1" /><path clip-path="url(#clip600)" d="M1656.47 133.998 Q1655.75 133.581 1654.89 133.396 Q1654.06 133.187 1653.04 133.187 Q1649.43 133.187 1647.48 135.549 Q1645.56 137.886 1645.56 142.285 L1645.56 155.942 L1641.28 155.942 L1641.28 130.016 L1645.56 130.016 L1645.56 134.044 Q1646.91 131.683 1649.06 130.549 Q1651.21 129.391 1654.29 129.391 Q1654.73 129.391 1655.26 129.461 Q1655.79 129.507 1656.44 129.623 L1656.47 133.998 Z" fill="#000000" fill-rule="nonzero" fill-opacity="1" /><path clip-path="url(#clip600)" d="M1660.93 130.016 L1665.19 130.016 L1665.19 155.942 L1660.93 155.942 L1660.93 130.016 M1660.93 119.924 L1665.19 119.924 L1665.19 125.317 L1660.93 125.317 L1660.93 119.924 Z" fill="#000000" fill-rule="nonzero" fill-opacity="1" /><path clip-path="url(#clip600)" d="M1691.17 142.678 Q1691.17 138.048 1689.24 135.502 Q1687.35 132.956 1683.9 132.956 Q1680.47 132.956 1678.55 135.502 Q1676.65 138.048 1676.65 142.678 Q1676.65 147.285 1678.55 149.831 Q1680.47 152.377 1683.9 152.377 Q1687.35 152.377 1689.24 149.831 Q1691.17 147.285 1691.17 142.678 M1695.42 152.724 Q1695.42 159.345 1692.48 162.562 Q1689.54 165.803 1683.48 165.803 Q1681.23 165.803 1679.24 165.456 Q1677.25 165.132 1675.38 164.437 L1675.38 160.294 Q1677.25 161.312 1679.08 161.798 Q1680.91 162.284 1682.81 162.284 Q1687 162.284 1689.08 160.085 Q1691.17 157.909 1691.17 153.488 L1691.17 151.382 Q1689.85 153.673 1687.79 154.808 Q1685.73 155.942 1682.85 155.942 Q1678.09 155.942 1675.17 152.308 Q1672.25 148.673 1672.25 142.678 Q1672.25 136.66 1675.17 133.025 Q1678.09 129.391 1682.85 129.391 Q1685.73 129.391 1687.79 130.525 Q1689.85 131.66 1691.17 133.951 L1691.17 130.016 L1695.42 130.016 L1695.42 152.724 Z" fill="#000000" fill-rule="nonzero" fill-opacity="1" /><path clip-path="url(#clip600)" d="M1704.2 130.016 L1708.46 130.016 L1708.46 155.942 L1704.2 155.942 L1704.2 130.016 M1704.2 119.924 L1708.46 119.924 L1708.46 125.317 L1704.2 125.317 L1704.2 119.924 Z" fill="#000000" fill-rule="nonzero" fill-opacity="1" /><path clip-path="url(#clip600)" d="M1738.92 140.294 L1738.92 155.942 L1734.66 155.942 L1734.66 140.433 Q1734.66 136.752 1733.22 134.924 Q1731.79 133.095 1728.92 133.095 Q1725.47 133.095 1723.48 135.294 Q1721.49 137.493 1721.49 141.289 L1721.49 155.942 L1717.21 155.942 L1717.21 130.016 L1721.49 130.016 L1721.49 134.044 Q1723.02 131.706 1725.08 130.549 Q1727.16 129.391 1729.87 129.391 Q1734.34 129.391 1736.63 132.169 Q1738.92 134.924 1738.92 140.294 Z" fill="#000000" fill-rule="nonzero" fill-opacity="1" /><path clip-path="url(#clip600)" d="M1759.2 142.91 Q1754.04 142.91 1752.04 144.09 Q1750.05 145.271 1750.05 148.118 Q1750.05 150.386 1751.54 151.729 Q1753.04 153.048 1755.61 153.048 Q1759.15 153.048 1761.28 150.548 Q1763.43 148.025 1763.43 143.859 L1763.43 142.91 L1759.2 142.91 M1767.69 141.15 L1767.69 155.942 L1763.43 155.942 L1763.43 152.007 Q1761.97 154.368 1759.8 155.502 Q1757.62 156.613 1754.47 156.613 Q1750.49 156.613 1748.13 154.391 Q1745.79 152.146 1745.79 148.396 Q1745.79 144.021 1748.71 141.798 Q1751.65 139.576 1757.46 139.576 L1763.43 139.576 L1763.43 139.16 Q1763.43 136.22 1761.49 134.623 Q1759.57 133.002 1756.07 133.002 Q1753.85 133.002 1751.74 133.535 Q1749.64 134.067 1747.69 135.132 L1747.69 131.197 Q1750.03 130.294 1752.23 129.854 Q1754.43 129.391 1756.51 129.391 Q1762.14 129.391 1764.91 132.308 Q1767.69 135.224 1767.69 141.15 Z" fill="#000000" fill-rule="nonzero" fill-opacity="1" /><path clip-path="url(#clip600)" d="M1776.47 119.924 L1780.72 119.924 L1780.72 155.942 L1776.47 155.942 L1776.47 119.924 Z" fill="#000000" fill-rule="nonzero" fill-opacity="1" /><path clip-path="url(#clip600)" d="M1821.77 133.951 L1821.77 119.924 L1826.03 119.924 L1826.03 155.942 L1821.77 155.942 L1821.77 152.053 Q1820.42 154.368 1818.36 155.502 Q1816.33 156.613 1813.46 156.613 Q1808.76 156.613 1805.79 152.863 Q1802.85 149.113 1802.85 143.002 Q1802.85 136.891 1805.79 133.141 Q1808.76 129.391 1813.46 129.391 Q1816.33 129.391 1818.36 130.525 Q1820.42 131.636 1821.77 133.951 M1807.25 143.002 Q1807.25 147.701 1809.17 150.386 Q1811.12 153.048 1814.5 153.048 Q1817.88 153.048 1819.82 150.386 Q1821.77 147.701 1821.77 143.002 Q1821.77 138.303 1819.82 135.641 Q1817.88 132.956 1814.5 132.956 Q1811.12 132.956 1809.17 135.641 Q1807.25 138.303 1807.25 143.002 Z" fill="#000000" fill-rule="nonzero" fill-opacity="1" /><path clip-path="url(#clip600)" d="M1846.58 142.91 Q1841.42 142.91 1839.43 144.09 Q1837.44 145.271 1837.44 148.118 Q1837.44 150.386 1838.92 151.729 Q1840.42 153.048 1842.99 153.048 Q1846.53 153.048 1848.66 150.548 Q1850.82 148.025 1850.82 143.859 L1850.82 142.91 L1846.58 142.91 M1855.08 141.15 L1855.08 155.942 L1850.82 155.942 L1850.82 152.007 Q1849.36 154.368 1847.18 155.502 Q1845.01 156.613 1841.86 156.613 Q1837.88 156.613 1835.52 154.391 Q1833.18 152.146 1833.18 148.396 Q1833.18 144.021 1836.09 141.798 Q1839.03 139.576 1844.84 139.576 L1850.82 139.576 L1850.82 139.16 Q1850.82 136.22 1848.87 134.623 Q1846.95 133.002 1843.46 133.002 Q1841.23 133.002 1839.13 133.535 Q1837.02 134.067 1835.08 135.132 L1835.08 131.197 Q1837.41 130.294 1839.61 129.854 Q1841.81 129.391 1843.9 129.391 Q1849.52 129.391 1852.3 132.308 Q1855.08 135.224 1855.08 141.15 Z" fill="#000000" fill-rule="nonzero" fill-opacity="1" /><path clip-path="url(#clip600)" d="M1868.06 122.655 L1868.06 130.016 L1876.84 130.016 L1876.84 133.326 L1868.06 133.326 L1868.06 147.4 Q1868.06 150.572 1868.92 151.474 Q1869.8 152.377 1872.46 152.377 L1876.84 152.377 L1876.84 155.942 L1872.46 155.942 Q1867.53 155.942 1865.65 154.113 Q1863.78 152.261 1863.78 147.4 L1863.78 133.326 L1860.65 133.326 L1860.65 130.016 L1863.78 130.016 L1863.78 122.655 L1868.06 122.655 Z" fill="#000000" fill-rule="nonzero" fill-opacity="1" /><path clip-path="url(#clip600)" d="M1894.22 142.91 Q1889.06 142.91 1887.07 144.09 Q1885.08 145.271 1885.08 148.118 Q1885.08 150.386 1886.56 151.729 Q1888.06 153.048 1890.63 153.048 Q1894.17 153.048 1896.3 150.548 Q1898.46 148.025 1898.46 143.859 L1898.46 142.91 L1894.22 142.91 M1902.71 141.15 L1902.71 155.942 L1898.46 155.942 L1898.46 152.007 Q1897 154.368 1894.82 155.502 Q1892.65 156.613 1889.5 156.613 Q1885.52 156.613 1883.15 154.391 Q1880.82 152.146 1880.82 148.396 Q1880.82 144.021 1883.73 141.798 Q1886.67 139.576 1892.48 139.576 L1898.46 139.576 L1898.46 139.16 Q1898.46 136.22 1896.51 134.623 Q1894.59 133.002 1891.09 133.002 Q1888.87 133.002 1886.77 133.535 Q1884.66 134.067 1882.71 135.132 L1882.71 131.197 Q1885.05 130.294 1887.25 129.854 Q1889.45 129.391 1891.53 129.391 Q1897.16 129.391 1899.94 132.308 Q1902.71 135.224 1902.71 141.15 Z" fill="#000000" fill-rule="nonzero" fill-opacity="1" /><polyline clip-path="url(#clip600)" style="stroke:#e26f46; stroke-linecap:round; stroke-linejoin:round; stroke-width:4; stroke-opacity:1; fill:none" points="1461.95,190.502 1589.35,190.502 "/>
<path clip-path="url(#clip600)" d="M1632.3 192.134 L1632.3 207.782 L1628.04 207.782 L1628.04 192.273 Q1628.04 188.592 1626.61 186.764 Q1625.17 184.935 1622.3 184.935 Q1618.85 184.935 1616.86 187.134 Q1614.87 189.333 1614.87 193.129 L1614.87 207.782 L1610.59 207.782 L1610.59 181.856 L1614.87 181.856 L1614.87 185.884 Q1616.4 183.546 1618.46 182.389 Q1620.54 181.231 1623.25 181.231 Q1627.72 181.231 1630.01 184.009 Q1632.3 186.764 1632.3 192.134 Z" fill="#000000" fill-rule="nonzero" fill-opacity="1" /><path clip-path="url(#clip600)" d="M1662.97 193.754 L1662.97 195.838 L1643.39 195.838 Q1643.67 200.236 1646.03 202.55 Q1648.41 204.842 1652.65 204.842 Q1655.1 204.842 1657.39 204.24 Q1659.71 203.638 1661.98 202.435 L1661.98 206.462 Q1659.68 207.435 1657.28 207.944 Q1654.87 208.453 1652.39 208.453 Q1646.19 208.453 1642.55 204.842 Q1638.94 201.231 1638.94 195.074 Q1638.94 188.708 1642.37 184.981 Q1645.82 181.231 1651.65 181.231 Q1656.88 181.231 1659.92 184.611 Q1662.97 187.967 1662.97 193.754 M1658.71 192.504 Q1658.67 189.009 1656.74 186.926 Q1654.85 184.842 1651.7 184.842 Q1648.13 184.842 1645.98 186.856 Q1643.85 188.87 1643.53 192.527 L1658.71 192.504 Z" fill="#000000" fill-rule="nonzero" fill-opacity="1" /><path clip-path="url(#clip600)" d="M1667.48 181.856 L1671.74 181.856 L1677.07 202.088 L1682.37 181.856 L1687.39 181.856 L1692.72 202.088 L1698.02 181.856 L1702.28 181.856 L1695.49 207.782 L1690.47 207.782 L1684.89 186.532 L1679.29 207.782 L1674.27 207.782 L1667.48 181.856 Z" fill="#000000" fill-rule="nonzero" fill-opacity="1" /><path clip-path="url(#clip600)" d="M1740.86 185.791 L1740.86 171.764 L1745.12 171.764 L1745.12 207.782 L1740.86 207.782 L1740.86 203.893 Q1739.52 206.208 1737.46 207.342 Q1735.42 208.453 1732.55 208.453 Q1727.85 208.453 1724.89 204.703 Q1721.95 200.953 1721.95 194.842 Q1721.95 188.731 1724.89 184.981 Q1727.85 181.231 1732.55 181.231 Q1735.42 181.231 1737.46 182.365 Q1739.52 183.476 1740.86 185.791 M1726.35 194.842 Q1726.35 199.541 1728.27 202.226 Q1730.22 204.888 1733.6 204.888 Q1736.97 204.888 1738.92 202.226 Q1740.86 199.541 1740.86 194.842 Q1740.86 190.143 1738.92 187.481 Q1736.97 184.796 1733.6 184.796 Q1730.22 184.796 1728.27 187.481 Q1726.35 190.143 1726.35 194.842 Z" fill="#000000" fill-rule="nonzero" fill-opacity="1" /><path clip-path="url(#clip600)" d="M1765.68 194.75 Q1760.52 194.75 1758.53 195.93 Q1756.54 197.111 1756.54 199.958 Q1756.54 202.226 1758.02 203.569 Q1759.52 204.888 1762.09 204.888 Q1765.63 204.888 1767.76 202.388 Q1769.91 199.865 1769.91 195.699 L1769.91 194.75 L1765.68 194.75 M1774.17 192.99 L1774.17 207.782 L1769.91 207.782 L1769.91 203.847 Q1768.46 206.208 1766.28 207.342 Q1764.1 208.453 1760.96 208.453 Q1756.97 208.453 1754.61 206.231 Q1752.28 203.986 1752.28 200.236 Q1752.28 195.861 1755.19 193.638 Q1758.13 191.416 1763.94 191.416 L1769.91 191.416 L1769.91 191 Q1769.91 188.06 1767.97 186.463 Q1766.05 184.842 1762.55 184.842 Q1760.33 184.842 1758.22 185.375 Q1756.12 185.907 1754.17 186.972 L1754.17 183.037 Q1756.51 182.134 1758.71 181.694 Q1760.91 181.231 1762.99 181.231 Q1768.62 181.231 1771.4 184.148 Q1774.17 187.064 1774.17 192.99 Z" fill="#000000" fill-rule="nonzero" fill-opacity="1" /><path clip-path="url(#clip600)" d="M1787.16 174.495 L1787.16 181.856 L1795.93 181.856 L1795.93 185.166 L1787.16 185.166 L1787.16 199.24 Q1787.16 202.412 1788.02 203.314 Q1788.9 204.217 1791.56 204.217 L1795.93 204.217 L1795.93 207.782 L1791.56 207.782 Q1786.63 207.782 1784.75 205.953 Q1782.88 204.101 1782.88 199.24 L1782.88 185.166 L1779.75 185.166 L1779.75 181.856 L1782.88 181.856 L1782.88 174.495 L1787.16 174.495 Z" fill="#000000" fill-rule="nonzero" fill-opacity="1" /><path clip-path="url(#clip600)" d="M1813.32 194.75 Q1808.16 194.75 1806.16 195.93 Q1804.17 197.111 1804.17 199.958 Q1804.17 202.226 1805.66 203.569 Q1807.16 204.888 1809.73 204.888 Q1813.27 204.888 1815.4 202.388 Q1817.55 199.865 1817.55 195.699 L1817.55 194.75 L1813.32 194.75 M1821.81 192.99 L1821.81 207.782 L1817.55 207.782 L1817.55 203.847 Q1816.09 206.208 1813.92 207.342 Q1811.74 208.453 1808.59 208.453 Q1804.61 208.453 1802.25 206.231 Q1799.91 203.986 1799.91 200.236 Q1799.91 195.861 1802.83 193.638 Q1805.77 191.416 1811.58 191.416 L1817.55 191.416 L1817.55 191 Q1817.55 188.06 1815.61 186.463 Q1813.69 184.842 1810.19 184.842 Q1807.97 184.842 1805.86 185.375 Q1803.76 185.907 1801.81 186.972 L1801.81 183.037 Q1804.15 182.134 1806.35 181.694 Q1808.55 181.231 1810.63 181.231 Q1816.26 181.231 1819.03 184.148 Q1821.81 187.064 1821.81 192.99 Z" fill="#000000" fill-rule="nonzero" fill-opacity="1" /><circle clip-path="url(#clip600)" cx="1525.65" cy="242.342" r="20.48" fill="#3da44d" fill-rule="evenodd" fill-opacity="1" stroke="#000000" stroke-opacity="1" stroke-width="3.82293"/>
<path clip-path="url(#clip600)" d="M1634.61 245.594 L1634.61 247.678 L1615.03 247.678 Q1615.31 252.076 1617.67 254.39 Q1620.05 256.682 1624.29 256.682 Q1626.74 256.682 1629.04 256.08 Q1631.35 255.478 1633.62 254.275 L1633.62 258.302 Q1631.33 259.275 1628.92 259.784 Q1626.51 260.293 1624.04 260.293 Q1617.83 260.293 1614.2 256.682 Q1610.59 253.071 1610.59 246.914 Q1610.59 240.548 1614.01 236.821 Q1617.46 233.071 1623.3 233.071 Q1628.53 233.071 1631.56 236.451 Q1634.61 239.807 1634.61 245.594 M1630.36 244.344 Q1630.31 240.849 1628.39 238.766 Q1626.49 236.682 1623.34 236.682 Q1619.78 236.682 1617.62 238.696 Q1615.49 240.71 1615.17 244.367 L1630.36 244.344 Z" fill="#000000" fill-rule="nonzero" fill-opacity="1" /><path clip-path="url(#clip600)" d="M1638.55 233.696 L1643.06 233.696 L1651.17 255.455 L1659.27 233.696 L1663.78 233.696 L1654.06 259.622 L1648.27 259.622 L1638.55 233.696 Z" fill="#000000" fill-rule="nonzero" fill-opacity="1" /><path clip-path="url(#clip600)" d="M1691.84 245.594 L1691.84 247.678 L1672.25 247.678 Q1672.53 252.076 1674.89 254.39 Q1677.28 256.682 1681.51 256.682 Q1683.97 256.682 1686.26 256.08 Q1688.57 255.478 1690.84 254.275 L1690.84 258.302 Q1688.55 259.275 1686.14 259.784 Q1683.73 260.293 1681.26 260.293 Q1675.05 260.293 1671.42 256.682 Q1667.81 253.071 1667.81 246.914 Q1667.81 240.548 1671.23 236.821 Q1674.68 233.071 1680.52 233.071 Q1685.75 233.071 1688.78 236.451 Q1691.84 239.807 1691.84 245.594 M1687.58 244.344 Q1687.53 240.849 1685.61 238.766 Q1683.71 236.682 1680.56 236.682 Q1677 236.682 1674.85 238.696 Q1672.72 240.71 1672.39 244.367 L1687.58 244.344 Z" fill="#000000" fill-rule="nonzero" fill-opacity="1" /><path clip-path="url(#clip600)" d="M1720.38 243.974 L1720.38 259.622 L1716.12 259.622 L1716.12 244.113 Q1716.12 240.432 1714.68 238.604 Q1713.25 236.775 1710.38 236.775 Q1706.93 236.775 1704.94 238.974 Q1702.95 241.173 1702.95 244.969 L1702.95 259.622 L1698.66 259.622 L1698.66 233.696 L1702.95 233.696 L1702.95 237.724 Q1704.48 235.386 1706.54 234.229 Q1708.62 233.071 1711.33 233.071 Q1715.79 233.071 1718.09 235.849 Q1720.38 238.604 1720.38 243.974 Z" fill="#000000" fill-rule="nonzero" fill-opacity="1" /><path clip-path="url(#clip600)" d="M1764.13 238.673 Q1765.72 235.803 1767.95 234.437 Q1770.17 233.071 1773.18 233.071 Q1777.23 233.071 1779.43 235.918 Q1781.63 238.742 1781.63 243.974 L1781.63 259.622 L1777.35 259.622 L1777.35 244.113 Q1777.35 240.386 1776.03 238.58 Q1774.71 236.775 1772 236.775 Q1768.69 236.775 1766.77 238.974 Q1764.85 241.173 1764.85 244.969 L1764.85 259.622 L1760.56 259.622 L1760.56 244.113 Q1760.56 240.363 1759.24 238.58 Q1757.92 236.775 1755.17 236.775 Q1751.91 236.775 1749.98 238.997 Q1748.06 241.196 1748.06 244.969 L1748.06 259.622 L1743.78 259.622 L1743.78 233.696 L1748.06 233.696 L1748.06 237.724 Q1749.52 235.34 1751.56 234.205 Q1753.6 233.071 1756.4 233.071 Q1759.22 233.071 1761.19 234.506 Q1763.18 235.941 1764.13 238.673 Z" fill="#000000" fill-rule="nonzero" fill-opacity="1" /><path clip-path="url(#clip600)" d="M1800.17 236.682 Q1796.74 236.682 1794.75 239.367 Q1792.76 242.029 1792.76 246.682 Q1792.76 251.335 1794.73 254.02 Q1796.72 256.682 1800.17 256.682 Q1803.57 256.682 1805.56 253.997 Q1807.55 251.312 1807.55 246.682 Q1807.55 242.076 1805.56 239.391 Q1803.57 236.682 1800.17 236.682 M1800.17 233.071 Q1805.72 233.071 1808.9 236.682 Q1812.07 240.293 1812.07 246.682 Q1812.07 253.048 1808.9 256.682 Q1805.72 260.293 1800.17 260.293 Q1794.59 260.293 1791.42 256.682 Q1788.27 253.048 1788.27 246.682 Q1788.27 240.293 1791.42 236.682 Q1794.59 233.071 1800.17 233.071 Z" fill="#000000" fill-rule="nonzero" fill-opacity="1" /><path clip-path="url(#clip600)" d="M1834.15 237.678 Q1833.43 237.261 1832.58 237.076 Q1831.74 236.867 1830.72 236.867 Q1827.11 236.867 1825.17 239.229 Q1823.25 241.566 1823.25 245.965 L1823.25 259.622 L1818.97 259.622 L1818.97 233.696 L1823.25 233.696 L1823.25 237.724 Q1824.59 235.363 1826.74 234.229 Q1828.9 233.071 1831.97 233.071 Q1832.41 233.071 1832.95 233.141 Q1833.48 233.187 1834.13 233.303 L1834.15 237.678 Z" fill="#000000" fill-rule="nonzero" fill-opacity="1" /><path clip-path="url(#clip600)" d="M1859.75 245.594 L1859.75 247.678 L1840.17 247.678 Q1840.45 252.076 1842.81 254.39 Q1845.19 256.682 1849.43 256.682 Q1851.88 256.682 1854.17 256.08 Q1856.49 255.478 1858.76 254.275 L1858.76 258.302 Q1856.47 259.275 1854.06 259.784 Q1851.65 260.293 1849.17 260.293 Q1842.97 260.293 1839.34 256.682 Q1835.72 253.071 1835.72 246.914 Q1835.72 240.548 1839.15 236.821 Q1842.6 233.071 1848.43 233.071 Q1853.66 233.071 1856.7 236.451 Q1859.75 239.807 1859.75 245.594 M1855.49 244.344 Q1855.45 240.849 1853.53 238.766 Q1851.63 236.682 1848.48 236.682 Q1844.91 236.682 1842.76 238.696 Q1840.63 240.71 1840.31 244.367 L1855.49 244.344 Z" fill="#000000" fill-rule="nonzero" fill-opacity="1" /><path clip-path="url(#clip600)" d="M1898.87 237.631 L1898.87 223.604 L1903.13 223.604 L1903.13 259.622 L1898.87 259.622 L1898.87 255.733 Q1897.53 258.048 1895.47 259.182 Q1893.43 260.293 1890.56 260.293 Q1885.86 260.293 1882.9 256.543 Q1879.96 252.793 1879.96 246.682 Q1879.96 240.571 1882.9 236.821 Q1885.86 233.071 1890.56 233.071 Q1893.43 233.071 1895.47 234.205 Q1897.53 235.316 1898.87 237.631 M1884.36 246.682 Q1884.36 251.381 1886.28 254.066 Q1888.22 256.728 1891.6 256.728 Q1894.98 256.728 1896.93 254.066 Q1898.87 251.381 1898.87 246.682 Q1898.87 241.983 1896.93 239.321 Q1894.98 236.636 1891.6 236.636 Q1888.22 236.636 1886.28 239.321 Q1884.36 241.983 1884.36 246.682 Z" fill="#000000" fill-rule="nonzero" fill-opacity="1" /><path clip-path="url(#clip600)" d="M1923.69 246.59 Q1918.52 246.59 1916.53 247.77 Q1914.54 248.951 1914.54 251.798 Q1914.54 254.066 1916.02 255.409 Q1917.53 256.728 1920.1 256.728 Q1923.64 256.728 1925.77 254.228 Q1927.92 251.705 1927.92 247.539 L1927.92 246.59 L1923.69 246.59 M1932.18 244.83 L1932.18 259.622 L1927.92 259.622 L1927.92 255.687 Q1926.46 258.048 1924.29 259.182 Q1922.11 260.293 1918.96 260.293 Q1914.98 260.293 1912.62 258.071 Q1910.28 255.826 1910.28 252.076 Q1910.28 247.701 1913.2 245.478 Q1916.14 243.256 1921.95 243.256 L1927.92 243.256 L1927.92 242.84 Q1927.92 239.9 1925.98 238.303 Q1924.06 236.682 1920.56 236.682 Q1918.34 236.682 1916.23 237.215 Q1914.13 237.747 1912.18 238.812 L1912.18 234.877 Q1914.52 233.974 1916.72 233.534 Q1918.92 233.071 1921 233.071 Q1926.63 233.071 1929.4 235.988 Q1932.18 238.904 1932.18 244.83 Z" fill="#000000" fill-rule="nonzero" fill-opacity="1" /><path clip-path="url(#clip600)" d="M1945.17 226.335 L1945.17 233.696 L1953.94 233.696 L1953.94 237.006 L1945.17 237.006 L1945.17 251.08 Q1945.17 254.252 1946.02 255.154 Q1946.9 256.057 1949.57 256.057 L1953.94 256.057 L1953.94 259.622 L1949.57 259.622 Q1944.64 259.622 1942.76 257.793 Q1940.89 255.941 1940.89 251.08 L1940.89 237.006 L1937.76 237.006 L1937.76 233.696 L1940.89 233.696 L1940.89 226.335 L1945.17 226.335 Z" fill="#000000" fill-rule="nonzero" fill-opacity="1" /><path clip-path="url(#clip600)" d="M1971.33 246.59 Q1966.16 246.59 1964.17 247.77 Q1962.18 248.951 1962.18 251.798 Q1962.18 254.066 1963.66 255.409 Q1965.17 256.728 1967.74 256.728 Q1971.28 256.728 1973.41 254.228 Q1975.56 251.705 1975.56 247.539 L1975.56 246.59 L1971.33 246.59 M1979.82 244.83 L1979.82 259.622 L1975.56 259.622 L1975.56 255.687 Q1974.1 258.048 1971.93 259.182 Q1969.75 260.293 1966.6 260.293 Q1962.62 260.293 1960.26 258.071 Q1957.92 255.826 1957.92 252.076 Q1957.92 247.701 1960.84 245.478 Q1963.78 243.256 1969.59 243.256 L1975.56 243.256 L1975.56 242.84 Q1975.56 239.9 1973.62 238.303 Q1971.7 236.682 1968.2 236.682 Q1965.98 236.682 1963.87 237.215 Q1961.77 237.747 1959.82 238.812 L1959.82 234.877 Q1962.16 233.974 1964.36 233.534 Q1966.56 233.071 1968.64 233.071 Q1974.27 233.071 1977.04 235.988 Q1979.82 238.904 1979.82 244.83 Z" fill="#000000" fill-rule="nonzero" fill-opacity="1" /></svg>
