<?xml version="1.0" encoding="utf-8"?>
<svg xmlns="http://www.w3.org/2000/svg" xmlns:xlink="http://www.w3.org/1999/xlink" width="528" height="336" viewBox="0 0 2112 1344">
<defs>
  <clipPath id="clip120">
    <rect x="0" y="0" width="2112" height="1344"/>
  </clipPath>
</defs>
<path clip-path="url(#clip120)" d="M0 1344 L2112 1344 L2112 2.13163e-14 L0 2.13163e-14  Z" fill="#ffffff" fill-rule="evenodd" fill-opacity="1"/>
<defs>
  <clipPath id="clip121">
    <rect x="153" y="47" width="1912" height="1188"/>
  </clipPath>
</defs>
<path clip-path="url(#clip120)" d="M181.311 1234.58 L2064.76 1234.58 L2064.76 47.2441 L181.311 47.2441  Z" fill="#ffffff" fill-rule="evenodd" fill-opacity="1"/>
<defs>
  <clipPath id="clip122">
    <rect x="181" y="47" width="1884" height="1188"/>
  </clipPath>
</defs>
<polyline clip-path="url(#clip122)" style="stroke:#000000; stroke-linecap:round; stroke-linejoin:round; stroke-width:2; stroke-opacity:0.1; fill:none" points="234.616,1234.58 234.616,47.2441 "/>
<polyline clip-path="url(#clip122)" style="stroke:#000000; stroke-linecap:round; stroke-linejoin:round; stroke-width:2; stroke-opacity:0.1; fill:none" points="678.825,1234.58 678.825,47.2441 "/>
<polyline clip-path="url(#clip122)" style="stroke:#000000; stroke-linecap:round; stroke-linejoin:round; stroke-width:2; stroke-opacity:0.1; fill:none" points="1123.03,1234.58 1123.03,47.2441 "/>
<polyline clip-path="url(#clip122)" style="stroke:#000000; stroke-linecap:round; stroke-linejoin:round; stroke-width:2; stroke-opacity:0.1; fill:none" points="1567.24,1234.58 1567.24,47.2441 "/>
<polyline clip-path="url(#clip122)" style="stroke:#000000; stroke-linecap:round; stroke-linejoin:round; stroke-width:2; stroke-opacity:0.1; fill:none" points="2011.45,1234.58 2011.45,47.2441 "/>
<polyline clip-path="url(#clip122)" style="stroke:#000000; stroke-linecap:round; stroke-linejoin:round; stroke-width:2; stroke-opacity:0.1; fill:none" points="181.311,1066.17 2064.76,1066.17 "/>
<polyline clip-path="url(#clip122)" style="stroke:#000000; stroke-linecap:round; stroke-linejoin:round; stroke-width:2; stroke-opacity:0.1; fill:none" points="181.311,841.491 2064.76,841.491 "/>
<polyline clip-path="url(#clip122)" style="stroke:#000000; stroke-linecap:round; stroke-linejoin:round; stroke-width:2; stroke-opacity:0.1; fill:none" points="181.311,616.814 2064.76,616.814 "/>
<polyline clip-path="url(#clip122)" style="stroke:#000000; stroke-linecap:round; stroke-linejoin:round; stroke-width:2; stroke-opacity:0.1; fill:none" points="181.311,392.137 2064.76,392.137 "/>
<polyline clip-path="url(#clip122)" style="stroke:#000000; stroke-linecap:round; stroke-linejoin:round; stroke-width:2; stroke-opacity:0.1; fill:none" points="181.311,167.46 2064.76,167.46 "/>
<polyline clip-path="url(#clip120)" style="stroke:#000000; stroke-linecap:round; stroke-linejoin:round; stroke-width:4; stroke-opacity:1; fill:none" points="181.311,1234.58 2064.76,1234.58 "/>
<polyline clip-path="url(#clip120)" style="stroke:#000000; stroke-linecap:round; stroke-linejoin:round; stroke-width:4; stroke-opacity:1; fill:none" points="234.616,1234.58 234.616,1215.68 "/>
<polyline clip-path="url(#clip120)" style="stroke:#000000; stroke-linecap:round; stroke-linejoin:round; stroke-width:4; stroke-opacity:1; fill:none" points="678.825,1234.58 678.825,1215.68 "/>
<polyline clip-path="url(#clip120)" style="stroke:#000000; stroke-linecap:round; stroke-linejoin:round; stroke-width:4; stroke-opacity:1; fill:none" points="1123.03,1234.58 1123.03,1215.68 "/>
<polyline clip-path="url(#clip120)" style="stroke:#000000; stroke-linecap:round; stroke-linejoin:round; stroke-width:4; stroke-opacity:1; fill:none" points="1567.24,1234.58 1567.24,1215.68 "/>
<polyline clip-path="url(#clip120)" style="stroke:#000000; stroke-linecap:round; stroke-linejoin:round; stroke-width:4; stroke-opacity:1; fill:none" points="2011.45,1234.58 2011.45,1215.68 "/>
<path clip-path="url(#clip120)" d="M212 1263.19 Q208.389 1263.19 206.56 1266.76 Q204.755 1270.3 204.755 1277.43 Q204.755 1284.54 206.56 1288.1 Q208.389 1291.64 212 1291.64 Q215.634 1291.64 217.44 1288.1 Q219.269 1284.54 219.269 1277.43 Q219.269 1270.3 217.44 1266.76 Q215.634 1263.19 212 1263.19 M212 1259.49 Q217.81 1259.49 220.866 1264.1 Q223.944 1268.68 223.944 1277.43 Q223.944 1286.16 220.866 1290.76 Q217.81 1295.35 212 1295.35 Q206.19 1295.35 203.111 1290.76 Q200.056 1286.16 200.056 1277.43 Q200.056 1268.68 203.111 1264.1 Q206.19 1259.49 212 1259.49 Z" fill="#000000" fill-rule="nonzero" fill-opacity="1" /><path clip-path="url(#clip120)" d="M232.162 1288.8 L237.046 1288.8 L237.046 1294.67 L232.162 1294.67 L232.162 1288.8 Z" fill="#000000" fill-rule="nonzero" fill-opacity="1" /><path clip-path="url(#clip120)" d="M257.231 1263.19 Q253.62 1263.19 251.792 1266.76 Q249.986 1270.3 249.986 1277.43 Q249.986 1284.54 251.792 1288.1 Q253.62 1291.64 257.231 1291.64 Q260.866 1291.64 262.671 1288.1 Q264.5 1284.54 264.5 1277.43 Q264.5 1270.3 262.671 1266.76 Q260.866 1263.19 257.231 1263.19 M257.231 1259.49 Q263.042 1259.49 266.097 1264.1 Q269.176 1268.68 269.176 1277.43 Q269.176 1286.16 266.097 1290.76 Q263.042 1295.35 257.231 1295.35 Q251.421 1295.35 248.343 1290.76 Q245.287 1286.16 245.287 1277.43 Q245.287 1268.68 248.343 1264.1 Q251.421 1259.49 257.231 1259.49 Z" fill="#000000" fill-rule="nonzero" fill-opacity="1" /><path clip-path="url(#clip120)" d="M656.707 1263.19 Q653.095 1263.19 651.267 1266.76 Q649.461 1270.3 649.461 1277.43 Q649.461 1284.54 651.267 1288.1 Q653.095 1291.64 656.707 1291.64 Q660.341 1291.64 662.146 1288.1 Q663.975 1284.54 663.975 1277.43 Q663.975 1270.3 662.146 1266.76 Q660.341 1263.19 656.707 1263.19 M656.707 1259.49 Q662.517 1259.49 665.572 1264.1 Q668.651 1268.68 668.651 1277.43 Q668.651 1286.16 665.572 1290.76 Q662.517 1295.35 656.707 1295.35 Q650.896 1295.35 647.818 1290.76 Q644.762 1286.16 644.762 1277.43 Q644.762 1268.68 647.818 1264.1 Q650.896 1259.49 656.707 1259.49 Z" fill="#000000" fill-rule="nonzero" fill-opacity="1" /><path clip-path="url(#clip120)" d="M676.869 1288.8 L681.753 1288.8 L681.753 1294.67 L676.869 1294.67 L676.869 1288.8 Z" fill="#000000" fill-rule="nonzero" fill-opacity="1" /><path clip-path="url(#clip120)" d="M691.984 1260.11 L710.341 1260.11 L710.341 1264.05 L696.267 1264.05 L696.267 1272.52 Q697.285 1272.17 698.304 1272.01 Q699.322 1271.83 700.341 1271.83 Q706.128 1271.83 709.507 1275 Q712.887 1278.17 712.887 1283.59 Q712.887 1289.17 709.415 1292.27 Q705.942 1295.35 699.623 1295.35 Q697.447 1295.35 695.179 1294.98 Q692.933 1294.61 690.526 1293.86 L690.526 1289.17 Q692.609 1290.3 694.831 1290.86 Q697.054 1291.41 699.53 1291.41 Q703.535 1291.41 705.873 1289.3 Q708.211 1287.2 708.211 1283.59 Q708.211 1279.98 705.873 1277.87 Q703.535 1275.76 699.53 1275.76 Q697.655 1275.76 695.78 1276.18 Q693.929 1276.6 691.984 1277.48 L691.984 1260.11 Z" fill="#000000" fill-rule="nonzero" fill-opacity="1" /><path clip-path="url(#clip120)" d="M1090.19 1290.74 L1097.83 1290.74 L1097.83 1264.37 L1089.51 1266.04 L1089.51 1261.78 L1097.78 1260.11 L1102.45 1260.11 L1102.45 1290.74 L1110.09 1290.74 L1110.09 1294.67 L1090.19 1294.67 L1090.19 1290.74 Z" fill="#000000" fill-rule="nonzero" fill-opacity="1" /><path clip-path="url(#clip120)" d="M1119.54 1288.8 L1124.42 1288.8 L1124.42 1294.67 L1119.54 1294.67 L1119.54 1288.8 Z" fill="#000000" fill-rule="nonzero" fill-opacity="1" /><path clip-path="url(#clip120)" d="M1144.61 1263.19 Q1141 1263.19 1139.17 1266.76 Q1137.36 1270.3 1137.36 1277.43 Q1137.36 1284.54 1139.17 1288.1 Q1141 1291.64 1144.61 1291.64 Q1148.24 1291.64 1150.05 1288.1 Q1151.88 1284.54 1151.88 1277.43 Q1151.88 1270.3 1150.05 1266.76 Q1148.24 1263.19 1144.61 1263.19 M1144.61 1259.49 Q1150.42 1259.49 1153.47 1264.1 Q1156.55 1268.68 1156.55 1277.43 Q1156.55 1286.16 1153.47 1290.76 Q1150.42 1295.35 1144.61 1295.35 Q1138.8 1295.35 1135.72 1290.76 Q1132.66 1286.16 1132.66 1277.43 Q1132.66 1268.68 1135.72 1264.1 Q1138.8 1259.49 1144.61 1259.49 Z" fill="#000000" fill-rule="nonzero" fill-opacity="1" /><path clip-path="url(#clip120)" d="M1534.89 1290.74 L1542.53 1290.74 L1542.53 1264.37 L1534.22 1266.04 L1534.22 1261.78 L1542.49 1260.11 L1547.16 1260.11 L1547.16 1290.74 L1554.8 1290.74 L1554.8 1294.67 L1534.89 1294.67 L1534.89 1290.74 Z" fill="#000000" fill-rule="nonzero" fill-opacity="1" /><path clip-path="url(#clip120)" d="M1564.24 1288.8 L1569.13 1288.8 L1569.13 1294.67 L1564.24 1294.67 L1564.24 1288.8 Z" fill="#000000" fill-rule="nonzero" fill-opacity="1" /><path clip-path="url(#clip120)" d="M1579.36 1260.11 L1597.72 1260.11 L1597.72 1264.05 L1583.64 1264.05 L1583.64 1272.52 Q1584.66 1272.17 1585.68 1272.01 Q1586.7 1271.83 1587.72 1271.83 Q1593.5 1271.83 1596.88 1275 Q1600.26 1278.17 1600.26 1283.59 Q1600.26 1289.17 1596.79 1292.27 Q1593.32 1295.35 1587 1295.35 Q1584.82 1295.35 1582.55 1294.98 Q1580.31 1294.61 1577.9 1293.86 L1577.9 1289.17 Q1579.99 1290.3 1582.21 1290.86 Q1584.43 1291.41 1586.91 1291.41 Q1590.91 1291.41 1593.25 1289.3 Q1595.59 1287.2 1595.59 1283.59 Q1595.59 1279.98 1593.25 1277.87 Q1590.91 1275.76 1586.91 1275.76 Q1585.03 1275.76 1583.16 1276.18 Q1581.3 1276.6 1579.36 1277.48 L1579.36 1260.11 Z" fill="#000000" fill-rule="nonzero" fill-opacity="1" /><path clip-path="url(#clip120)" d="M1982.69 1290.74 L1999.01 1290.74 L1999.01 1294.67 L1977.06 1294.67 L1977.06 1290.74 Q1979.73 1287.99 1984.31 1283.36 Q1988.92 1278.7 1990.1 1277.36 Q1992.34 1274.84 1993.22 1273.1 Q1994.12 1271.34 1994.12 1269.65 Q1994.12 1266.9 1992.18 1265.16 Q1990.26 1263.42 1987.16 1263.42 Q1984.96 1263.42 1982.5 1264.19 Q1980.07 1264.95 1977.3 1266.5 L1977.3 1261.78 Q1980.12 1260.65 1982.57 1260.07 Q1985.03 1259.49 1987.06 1259.49 Q1992.43 1259.49 1995.63 1262.17 Q1998.82 1264.86 1998.82 1269.35 Q1998.82 1271.48 1998.01 1273.4 Q1997.23 1275.3 1995.12 1277.89 Q1994.54 1278.56 1991.44 1281.78 Q1988.34 1284.98 1982.69 1290.74 Z" fill="#000000" fill-rule="nonzero" fill-opacity="1" /><path clip-path="url(#clip120)" d="M2008.82 1288.8 L2013.71 1288.8 L2013.71 1294.67 L2008.82 1294.67 L2008.82 1288.8 Z" fill="#000000" fill-rule="nonzero" fill-opacity="1" /><path clip-path="url(#clip120)" d="M2033.89 1263.19 Q2030.28 1263.19 2028.45 1266.76 Q2026.65 1270.3 2026.65 1277.43 Q2026.65 1284.54 2028.45 1288.1 Q2030.28 1291.64 2033.89 1291.64 Q2037.53 1291.64 2039.33 1288.1 Q2041.16 1284.54 2041.16 1277.43 Q2041.16 1270.3 2039.33 1266.76 Q2037.53 1263.19 2033.89 1263.19 M2033.89 1259.49 Q2039.7 1259.49 2042.76 1264.1 Q2045.84 1268.68 2045.84 1277.43 Q2045.84 1286.16 2042.76 1290.76 Q2039.7 1295.35 2033.89 1295.35 Q2028.08 1295.35 2025 1290.76 Q2021.95 1286.16 2021.95 1277.43 Q2021.95 1268.68 2025 1264.1 Q2028.08 1259.49 2033.89 1259.49 Z" fill="#000000" fill-rule="nonzero" fill-opacity="1" /><polyline clip-path="url(#clip120)" style="stroke:#000000; stroke-linecap:round; stroke-linejoin:round; stroke-width:4; stroke-opacity:1; fill:none" points="181.311,1234.58 181.311,47.2441 "/>
<polyline clip-path="url(#clip120)" style="stroke:#000000; stroke-linecap:round; stroke-linejoin:round; stroke-width:4; stroke-opacity:1; fill:none" points="181.311,1066.17 200.208,1066.17 "/>
<polyline clip-path="url(#clip120)" style="stroke:#000000; stroke-linecap:round; stroke-linejoin:round; stroke-width:4; stroke-opacity:1; fill:none" points="181.311,841.491 200.208,841.491 "/>
<polyline clip-path="url(#clip120)" style="stroke:#000000; stroke-linecap:round; stroke-linejoin:round; stroke-width:4; stroke-opacity:1; fill:none" points="181.311,616.814 200.208,616.814 "/>
<polyline clip-path="url(#clip120)" style="stroke:#000000; stroke-linecap:round; stroke-linejoin:round; stroke-width:4; stroke-opacity:1; fill:none" points="181.311,392.137 200.208,392.137 "/>
<polyline clip-path="url(#clip120)" style="stroke:#000000; stroke-linecap:round; stroke-linejoin:round; stroke-width:4; stroke-opacity:1; fill:none" points="181.311,167.46 200.208,167.46 "/>
<path clip-path="url(#clip120)" d="M87.4782 1079.51 L103.798 1079.51 L103.798 1083.45 L81.8533 1083.45 L81.8533 1079.51 Q84.5153 1076.76 89.0986 1072.13 Q93.7051 1067.48 94.8856 1066.13 Q97.131 1063.61 98.0106 1061.87 Q98.9134 1060.12 98.9134 1058.43 Q98.9134 1055.67 96.9689 1053.93 Q95.0476 1052.2 91.9458 1052.2 Q89.7467 1052.2 87.2931 1052.96 Q84.8625 1053.73 82.0847 1055.28 L82.0847 1050.56 Q84.9088 1049.42 87.3625 1048.84 Q89.8162 1048.26 91.8532 1048.26 Q97.2236 1048.26 100.418 1050.95 Q103.612 1053.63 103.612 1058.12 Q103.612 1060.25 102.802 1062.18 Q102.015 1064.07 99.9087 1066.67 Q99.33 1067.34 96.2282 1070.56 Q93.1264 1073.75 87.4782 1079.51 Z" fill="#000000" fill-rule="nonzero" fill-opacity="1" /><path clip-path="url(#clip120)" d="M113.612 1077.57 L118.497 1077.57 L118.497 1083.45 L113.612 1083.45 L113.612 1077.57 Z" fill="#000000" fill-rule="nonzero" fill-opacity="1" /><path clip-path="url(#clip120)" d="M128.728 1048.89 L147.084 1048.89 L147.084 1052.82 L133.01 1052.82 L133.01 1061.3 Q134.029 1060.95 135.047 1060.79 Q136.066 1060.6 137.084 1060.6 Q142.871 1060.6 146.251 1063.77 Q149.631 1066.94 149.631 1072.36 Q149.631 1077.94 146.158 1081.04 Q142.686 1084.12 136.367 1084.12 Q134.191 1084.12 131.922 1083.75 Q129.677 1083.38 127.27 1082.64 L127.27 1077.94 Q129.353 1079.07 131.575 1079.63 Q133.797 1080.18 136.274 1080.18 Q140.279 1080.18 142.617 1078.08 Q144.955 1075.97 144.955 1072.36 Q144.955 1068.75 142.617 1066.64 Q140.279 1064.54 136.274 1064.54 Q134.399 1064.54 132.524 1064.95 Q130.672 1065.37 128.728 1066.25 L128.728 1048.89 Z" fill="#000000" fill-rule="nonzero" fill-opacity="1" /><path clip-path="url(#clip120)" d="M82.5014 824.211 L100.858 824.211 L100.858 828.147 L86.7838 828.147 L86.7838 836.619 Q87.8023 836.272 88.8208 836.11 Q89.8393 835.924 90.8578 835.924 Q96.6449 835.924 100.024 839.096 Q103.404 842.267 103.404 847.684 Q103.404 853.262 99.9319 856.364 Q96.4597 859.443 90.1403 859.443 Q87.9643 859.443 85.6958 859.072 Q83.4505 858.702 81.0431 857.961 L81.0431 853.262 Q83.1264 854.396 85.3486 854.952 Q87.5708 855.508 90.0477 855.508 Q94.0523 855.508 96.3902 853.401 Q98.7282 851.295 98.7282 847.684 Q98.7282 844.072 96.3902 841.966 Q94.0523 839.86 90.0477 839.86 Q88.1727 839.86 86.2977 840.276 Q84.4458 840.693 82.5014 841.572 L82.5014 824.211 Z" fill="#000000" fill-rule="nonzero" fill-opacity="1" /><path clip-path="url(#clip120)" d="M112.617 852.892 L117.501 852.892 L117.501 858.771 L112.617 858.771 L112.617 852.892 Z" fill="#000000" fill-rule="nonzero" fill-opacity="1" /><path clip-path="url(#clip120)" d="M137.686 827.29 Q134.075 827.29 132.247 830.855 Q130.441 834.397 130.441 841.526 Q130.441 848.633 132.247 852.197 Q134.075 855.739 137.686 855.739 Q141.321 855.739 143.126 852.197 Q144.955 848.633 144.955 841.526 Q144.955 834.397 143.126 830.855 Q141.321 827.29 137.686 827.29 M137.686 823.586 Q143.496 823.586 146.552 828.193 Q149.631 832.776 149.631 841.526 Q149.631 850.253 146.552 854.859 Q143.496 859.443 137.686 859.443 Q131.876 859.443 128.797 854.859 Q125.742 850.253 125.742 841.526 Q125.742 832.776 128.797 828.193 Q131.876 823.586 137.686 823.586 Z" fill="#000000" fill-rule="nonzero" fill-opacity="1" /><path clip-path="url(#clip120)" d="M82.2699 599.534 L104.492 599.534 L104.492 601.525 L91.9458 634.094 L87.0616 634.094 L98.8671 603.469 L82.2699 603.469 L82.2699 599.534 Z" fill="#000000" fill-rule="nonzero" fill-opacity="1" /><path clip-path="url(#clip120)" d="M113.612 628.215 L118.497 628.215 L118.497 634.094 L113.612 634.094 L113.612 628.215 Z" fill="#000000" fill-rule="nonzero" fill-opacity="1" /><path clip-path="url(#clip120)" d="M128.728 599.534 L147.084 599.534 L147.084 603.469 L133.01 603.469 L133.01 611.942 Q134.029 611.594 135.047 611.432 Q136.066 611.247 137.084 611.247 Q142.871 611.247 146.251 614.418 Q149.631 617.59 149.631 623.006 Q149.631 628.585 146.158 631.687 Q142.686 634.766 136.367 634.766 Q134.191 634.766 131.922 634.395 Q129.677 634.025 127.27 633.284 L127.27 628.585 Q129.353 629.719 131.575 630.275 Q133.797 630.83 136.274 630.83 Q140.279 630.83 142.617 628.724 Q144.955 626.617 144.955 623.006 Q144.955 619.395 142.617 617.289 Q140.279 615.182 136.274 615.182 Q134.399 615.182 132.524 615.599 Q130.672 616.016 128.728 616.895 L128.728 599.534 Z" fill="#000000" fill-rule="nonzero" fill-opacity="1" /><path clip-path="url(#clip120)" d="M53.1034 405.482 L60.7423 405.482 L60.7423 379.116 L52.4321 380.783 L52.4321 376.524 L60.696 374.857 L65.3719 374.857 L65.3719 405.482 L73.0107 405.482 L73.0107 409.417 L53.1034 409.417 L53.1034 405.482 Z" fill="#000000" fill-rule="nonzero" fill-opacity="1" /><path clip-path="url(#clip120)" d="M92.4551 377.936 Q88.844 377.936 87.0153 381.501 Q85.2097 385.042 85.2097 392.172 Q85.2097 399.278 87.0153 402.843 Q88.844 406.385 92.4551 406.385 Q96.0893 406.385 97.8948 402.843 Q99.7235 399.278 99.7235 392.172 Q99.7235 385.042 97.8948 381.501 Q96.0893 377.936 92.4551 377.936 M92.4551 374.232 Q98.2652 374.232 101.321 378.839 Q104.399 383.422 104.399 392.172 Q104.399 400.899 101.321 405.505 Q98.2652 410.088 92.4551 410.088 Q86.6449 410.088 83.5662 405.505 Q80.5107 400.899 80.5107 392.172 Q80.5107 383.422 83.5662 378.839 Q86.6449 374.232 92.4551 374.232 Z" fill="#000000" fill-rule="nonzero" fill-opacity="1" /><path clip-path="url(#clip120)" d="M112.617 403.537 L117.501 403.537 L117.501 409.417 L112.617 409.417 L112.617 403.537 Z" fill="#000000" fill-rule="nonzero" fill-opacity="1" /><path clip-path="url(#clip120)" d="M137.686 377.936 Q134.075 377.936 132.247 381.501 Q130.441 385.042 130.441 392.172 Q130.441 399.278 132.247 402.843 Q134.075 406.385 137.686 406.385 Q141.321 406.385 143.126 402.843 Q144.955 399.278 144.955 392.172 Q144.955 385.042 143.126 381.501 Q141.321 377.936 137.686 377.936 M137.686 374.232 Q143.496 374.232 146.552 378.839 Q149.631 383.422 149.631 392.172 Q149.631 400.899 146.552 405.505 Q143.496 410.088 137.686 410.088 Q131.876 410.088 128.797 405.505 Q125.742 400.899 125.742 392.172 Q125.742 383.422 128.797 378.839 Q131.876 374.232 137.686 374.232 Z" fill="#000000" fill-rule="nonzero" fill-opacity="1" /><path clip-path="url(#clip120)" d="M54.0988 180.805 L61.7376 180.805 L61.7376 154.439 L53.4275 156.106 L53.4275 151.847 L61.6913 150.18 L66.3672 150.18 L66.3672 180.805 L74.0061 180.805 L74.0061 184.74 L54.0988 184.74 L54.0988 180.805 Z" fill="#000000" fill-rule="nonzero" fill-opacity="1" /><path clip-path="url(#clip120)" d="M87.4782 180.805 L103.798 180.805 L103.798 184.74 L81.8533 184.74 L81.8533 180.805 Q84.5153 178.05 89.0986 173.421 Q93.7051 168.768 94.8856 167.425 Q97.131 164.902 98.0106 163.166 Q98.9134 161.407 98.9134 159.717 Q98.9134 156.962 96.9689 155.226 Q95.0476 153.49 91.9458 153.49 Q89.7467 153.49 87.2931 154.254 Q84.8625 155.018 82.0847 156.569 L82.0847 151.847 Q84.9088 150.712 87.3625 150.134 Q89.8162 149.555 91.8532 149.555 Q97.2236 149.555 100.418 152.24 Q103.612 154.925 103.612 159.416 Q103.612 161.546 102.802 163.467 Q102.015 165.365 99.9087 167.958 Q99.33 168.629 96.2282 171.846 Q93.1264 175.041 87.4782 180.805 Z" fill="#000000" fill-rule="nonzero" fill-opacity="1" /><path clip-path="url(#clip120)" d="M113.612 178.86 L118.497 178.86 L118.497 184.74 L113.612 184.74 L113.612 178.86 Z" fill="#000000" fill-rule="nonzero" fill-opacity="1" /><path clip-path="url(#clip120)" d="M128.728 150.18 L147.084 150.18 L147.084 154.115 L133.01 154.115 L133.01 162.587 Q134.029 162.24 135.047 162.078 Q136.066 161.893 137.084 161.893 Q142.871 161.893 146.251 165.064 Q149.631 168.235 149.631 173.652 Q149.631 179.231 146.158 182.332 Q142.686 185.411 136.367 185.411 Q134.191 185.411 131.922 185.041 Q129.677 184.67 127.27 183.93 L127.27 179.231 Q129.353 180.365 131.575 180.92 Q133.797 181.476 136.274 181.476 Q140.279 181.476 142.617 179.37 Q144.955 177.263 144.955 173.652 Q144.955 170.041 142.617 167.934 Q140.279 165.828 136.274 165.828 Q134.399 165.828 132.524 166.245 Q130.672 166.661 128.728 167.541 L128.728 150.18 Z" fill="#000000" fill-rule="nonzero" fill-opacity="1" /><path clip-path="url(#clip122)" d="M234.616 1200.97 L252.564 1199.14 L270.511 1197.27 L288.459 1195.36 L306.407 1193.41 L324.355 1191.42 L342.303 1189.39 L360.251 1187.32 L378.198 1185.21 L396.146 1183.06 L414.094 1180.86 L432.042 1178.61 L449.99 1176.32 L467.938 1173.98 L485.885 1171.6 L503.833 1169.16 L521.781 1166.68 L539.729 1164.15 L557.677 1161.56 L575.624 1158.92 L593.572 1156.23 L611.52 1153.48 L629.468 1150.68 L647.416 1147.82 L665.364 1144.9 L683.311 1141.92 L701.259 1138.88 L719.207 1135.78 L737.155 1132.62 L755.103 1129.39 L773.051 1126.09 L790.998 1122.73 L808.946 1119.3 L826.894 1115.8 L844.842 1112.23 L862.79 1108.58 L880.738 1104.86 L898.685 1101.07 L916.633 1097.2 L934.581 1093.24 L952.529 1089.21 L970.477 1085.1 L988.425 1080.9 L1006.37 1076.61 L1024.32 1072.24 L1042.27 1067.78 L1060.22 1063.23 L1078.16 1058.58 L1096.11 1053.84 L1114.06 1049.01 L1132.01 1044.07 L1149.96 1039.04 L1167.9 1033.9 L1185.85 1028.65 L1203.8 1023.3 L1221.75 1017.84 L1239.69 1012.27 L1257.64 1006.59 L1275.59 1000.78 L1293.54 994.865 L1311.49 988.825 L1329.43 982.662 L1347.38 976.373 L1365.33 969.955 L1383.28 963.406 L1401.22 956.724 L1419.17 949.906 L1437.12 942.948 L1455.07 935.848 L1473.02 928.604 L1490.96 921.211 L1508.91 913.668 L1526.86 905.971 L1544.81 898.116 L1562.76 890.102 L1580.7 881.923 L1598.65 873.578 L1616.6 865.063 L1634.55 856.374 L1652.49 847.507 L1670.44 838.46 L1688.39 829.228 L1706.34 819.807 L1724.29 810.195 L1742.23 800.386 L1760.18 790.377 L1778.13 780.164 L1796.08 769.742 L1814.02 759.107 L1831.97 748.256 L1849.92 737.183 L1867.87 725.884 L1885.82 714.355 L1903.76 702.59 L1921.71 690.585 L1939.66 678.335 L1957.61 665.836 L1975.56 653.081 L1993.5 640.066 L2011.45 626.785 L2011.45 80.8479 L1993.5 112.212 L1975.56 142.763 L1957.61 172.522 L1939.66 201.51 L1921.71 229.746 L1903.76 257.251 L1885.82 284.043 L1867.87 310.14 L1849.92 335.56 L1831.97 360.322 L1814.02 384.442 L1796.08 407.937 L1778.13 430.822 L1760.18 453.115 L1742.23 474.829 L1724.29 495.981 L1706.34 516.585 L1688.39 536.654 L1670.44 556.203 L1652.49 575.246 L1634.55 593.795 L1616.6 611.863 L1598.65 629.463 L1580.7 646.606 L1562.76 663.305 L1544.81 679.572 L1526.86 695.416 L1508.91 710.85 L1490.96 725.884 L1473.02 740.528 L1455.07 754.793 L1437.12 768.688 L1419.17 782.223 L1401.22 795.407 L1383.28 808.249 L1365.33 820.758 L1347.38 832.943 L1329.43 844.812 L1311.49 856.374 L1293.54 867.636 L1275.59 878.606 L1257.64 889.291 L1239.69 899.7 L1221.75 909.839 L1203.8 919.715 L1185.85 929.335 L1167.9 938.705 L1149.96 947.833 L1132.01 956.724 L1114.06 965.385 L1096.11 973.821 L1078.16 982.039 L1060.22 990.043 L1042.27 997.84 L1024.32 1005.44 L1006.37 1012.83 L988.425 1020.04 L970.477 1027.06 L952.529 1033.9 L934.581 1040.56 L916.633 1047.04 L898.685 1053.36 L880.738 1059.52 L862.79 1065.52 L844.842 1071.36 L826.894 1077.05 L808.946 1082.59 L790.998 1087.99 L773.051 1093.24 L755.103 1098.37 L737.155 1103.36 L719.207 1108.22 L701.259 1112.95 L683.311 1117.56 L665.364 1122.05 L647.416 1126.43 L629.468 1130.69 L611.52 1134.84 L593.572 1138.88 L575.624 1142.82 L557.677 1146.66 L539.729 1150.4 L521.781 1154.04 L503.833 1157.58 L485.885 1161.04 L467.938 1164.4 L449.99 1167.68 L432.042 1170.87 L414.094 1173.98 L396.146 1177.01 L378.198 1179.96 L360.251 1182.84 L342.303 1185.64 L324.355 1188.36 L306.407 1191.02 L288.459 1193.61 L270.511 1196.13 L252.564 1198.58 L234.616 1200.97  Z" fill="#009af9" fill-rule="evenodd" fill-opacity="0.35"/>
<polyline clip-path="url(#clip122)" style="stroke:#009af9; stroke-linecap:round; stroke-linejoin:round; stroke-width:4; stroke-opacity:1; fill:none" points="234.616,1200.97 252.564,1199.14 270.511,1197.27 288.459,1195.36 306.407,1193.41 324.355,1191.42 342.303,1189.39 360.251,1187.32 378.198,1185.21 396.146,1183.06 414.094,1180.86 432.042,1178.61 449.99,1176.32 467.938,1173.98 485.885,1171.6 503.833,1169.16 521.781,1166.68 539.729,1164.15 557.677,1161.56 575.624,1158.92 593.572,1156.23 611.52,1153.48 629.468,1150.68 647.416,1147.82 665.364,1144.9 683.311,1141.92 701.259,1138.88 719.207,1135.78 737.155,1132.62 755.103,1129.39 773.051,1126.09 790.998,1122.73 808.946,1119.3 826.894,1115.8 844.842,1112.23 862.79,1108.58 880.738,1104.86 898.685,1101.07 916.633,1097.2 934.581,1093.24 952.529,1089.21 970.477,1085.1 988.425,1080.9 1006.37,1076.61 1024.32,1072.24 1042.27,1067.78 1060.22,1063.23 1078.16,1058.58 1096.11,1053.84 1114.06,1049.01 1132.01,1044.07 1149.96,1039.04 1167.9,1033.9 1185.85,1028.65 1203.8,1023.3 1221.75,1017.84 1239.69,1012.27 1257.64,1006.59 1275.59,1000.78 1293.54,994.865 1311.49,988.825 1329.43,982.662 1347.38,976.373 1365.33,969.955 1383.28,963.406 1401.22,956.724 1419.17,949.906 1437.12,942.948 1455.07,935.848 1473.02,928.604 1490.96,921.211 1508.91,913.668 1526.86,905.971 1544.81,898.116 1562.76,890.102 1580.7,881.923 1598.65,873.578 1616.6,865.063 1634.55,856.374 1652.49,847.507 1670.44,838.46 1688.39,829.228 1706.34,819.807 1724.29,810.195 1742.23,800.386 1760.18,790.377 1778.13,780.164 1796.08,769.742 1814.02,759.107 1831.97,748.256 1849.92,737.183 1867.87,725.884 1885.82,714.355 1903.76,702.59 1921.71,690.585 1939.66,678.335 1957.61,665.836 1975.56,653.081 1993.5,640.066 2011.45,626.785 "/>
<path clip-path="url(#clip120)" d="M244.092 190.502 L826.37 190.502 L826.37 86.8219 L244.092 86.8219  Z" fill="#ffffff" fill-rule="evenodd" fill-opacity="1"/>
<polyline clip-path="url(#clip120)" style="stroke:#000000; stroke-linecap:round; stroke-linejoin:round; stroke-width:4; stroke-opacity:1; fill:none" points="244.092,190.502 826.37,190.502 826.37,86.8219 244.092,86.8219 244.092,190.502 "/>
<path clip-path="url(#clip120)" d="M265.019 159.398 L390.582 159.398 L390.582 117.926 L265.019 117.926 L265.019 159.398  Z" fill="#009af9" fill-rule="evenodd" fill-opacity="0.35"/>
<polyline clip-path="url(#clip120)" style="stroke:#009af9; stroke-linecap:round; stroke-linejoin:round; stroke-width:4; stroke-opacity:1; fill:none" points="265.019,117.926 390.582,117.926 "/>
<path clip-path="url(#clip120)" d="M439.38 124.044 L439.38 128.974 Q437.019 126.775 434.333 125.687 Q431.671 124.599 428.662 124.599 Q422.736 124.599 419.588 128.234 Q416.44 131.845 416.44 138.697 Q416.44 145.525 419.588 149.16 Q422.736 152.771 428.662 152.771 Q431.671 152.771 434.333 151.683 Q437.019 150.595 439.38 148.396 L439.38 153.28 Q436.926 154.947 434.171 155.78 Q431.44 156.613 428.384 156.613 Q420.537 156.613 416.023 151.822 Q411.51 147.007 411.51 138.697 Q411.51 130.363 416.023 125.572 Q420.537 120.757 428.384 120.757 Q431.486 120.757 434.218 121.59 Q436.972 122.4 439.38 124.044 Z" fill="#000000" fill-rule="nonzero" fill-opacity="1" /><path clip-path="url(#clip120)" d="M456.463 133.002 Q453.037 133.002 451.046 135.687 Q449.056 138.349 449.056 143.002 Q449.056 147.655 451.023 150.34 Q453.014 153.002 456.463 153.002 Q459.866 153.002 461.856 150.317 Q463.847 147.632 463.847 143.002 Q463.847 138.396 461.856 135.711 Q459.866 133.002 456.463 133.002 M456.463 129.391 Q462.019 129.391 465.19 133.002 Q468.361 136.613 468.361 143.002 Q468.361 149.368 465.19 153.002 Q462.019 156.613 456.463 156.613 Q450.884 156.613 447.713 153.002 Q444.565 149.368 444.565 143.002 Q444.565 136.613 447.713 133.002 Q450.884 129.391 456.463 129.391 Z" fill="#000000" fill-rule="nonzero" fill-opacity="1" /><path clip-path="url(#clip120)" d="M496.972 140.294 L496.972 155.942 L492.713 155.942 L492.713 140.433 Q492.713 136.752 491.278 134.924 Q489.842 133.095 486.972 133.095 Q483.523 133.095 481.532 135.294 Q479.542 137.493 479.542 141.289 L479.542 155.942 L475.259 155.942 L475.259 130.016 L479.542 130.016 L479.542 134.044 Q481.069 131.706 483.13 130.549 Q485.213 129.391 487.921 129.391 Q492.389 129.391 494.68 132.169 Q496.972 134.924 496.972 140.294 Z" fill="#000000" fill-rule="nonzero" fill-opacity="1" /><path clip-path="url(#clip120)" d="M518.592 119.924 L518.592 123.465 L514.518 123.465 Q512.227 123.465 511.324 124.391 Q510.444 125.317 510.444 127.724 L510.444 130.016 L517.458 130.016 L517.458 133.326 L510.444 133.326 L510.444 155.942 L506.162 155.942 L506.162 133.326 L502.088 133.326 L502.088 130.016 L506.162 130.016 L506.162 128.211 Q506.162 123.882 508.176 121.914 Q510.19 119.924 514.565 119.924 L518.592 119.924 Z" fill="#000000" fill-rule="nonzero" fill-opacity="1" /><path clip-path="url(#clip120)" d="M522.157 130.016 L526.416 130.016 L526.416 155.942 L522.157 155.942 L522.157 130.016 M522.157 119.924 L526.416 119.924 L526.416 125.317 L522.157 125.317 L522.157 119.924 Z" fill="#000000" fill-rule="nonzero" fill-opacity="1" /><path clip-path="url(#clip120)" d="M552.388 133.951 L552.388 119.924 L556.648 119.924 L556.648 155.942 L552.388 155.942 L552.388 152.053 Q551.046 154.368 548.986 155.502 Q546.949 156.613 544.078 156.613 Q539.379 156.613 536.416 152.863 Q533.476 149.113 533.476 143.002 Q533.476 136.891 536.416 133.141 Q539.379 129.391 544.078 129.391 Q546.949 129.391 548.986 130.525 Q551.046 131.636 552.388 133.951 M537.875 143.002 Q537.875 147.701 539.796 150.386 Q541.74 153.048 545.12 153.048 Q548.5 153.048 550.444 150.386 Q552.388 147.701 552.388 143.002 Q552.388 138.303 550.444 135.641 Q548.5 132.956 545.12 132.956 Q541.74 132.956 539.796 135.641 Q537.875 138.303 537.875 143.002 Z" fill="#000000" fill-rule="nonzero" fill-opacity="1" /><path clip-path="url(#clip120)" d="M587.597 141.914 L587.597 143.998 L568.013 143.998 Q568.291 148.396 570.652 150.71 Q573.036 153.002 577.273 153.002 Q579.726 153.002 582.018 152.4 Q584.333 151.798 586.601 150.595 L586.601 154.622 Q584.31 155.595 581.902 156.104 Q579.495 156.613 577.018 156.613 Q570.814 156.613 567.18 153.002 Q563.569 149.391 563.569 143.234 Q563.569 136.868 566.995 133.141 Q570.444 129.391 576.277 129.391 Q581.509 129.391 584.541 132.771 Q587.597 136.127 587.597 141.914 M583.337 140.664 Q583.291 137.169 581.37 135.086 Q579.472 133.002 576.323 133.002 Q572.759 133.002 570.606 135.016 Q568.476 137.03 568.152 140.687 L583.337 140.664 Z" fill="#000000" fill-rule="nonzero" fill-opacity="1" /><path clip-path="url(#clip120)" d="M616.138 140.294 L616.138 155.942 L611.879 155.942 L611.879 140.433 Q611.879 136.752 610.444 134.924 Q609.008 133.095 606.138 133.095 Q602.689 133.095 600.698 135.294 Q598.708 137.493 598.708 141.289 L598.708 155.942 L594.425 155.942 L594.425 130.016 L598.708 130.016 L598.708 134.044 Q600.235 131.706 602.296 130.549 Q604.379 129.391 607.087 129.391 Q611.555 129.391 613.846 132.169 Q616.138 134.924 616.138 140.294 Z" fill="#000000" fill-rule="nonzero" fill-opacity="1" /><path clip-path="url(#clip120)" d="M643.291 131.011 L643.291 134.993 Q641.485 133.998 639.656 133.511 Q637.851 133.002 635.999 133.002 Q631.856 133.002 629.564 135.641 Q627.272 138.257 627.272 143.002 Q627.272 147.748 629.564 150.386 Q631.856 153.002 635.999 153.002 Q637.851 153.002 639.656 152.516 Q641.485 152.007 643.291 151.011 L643.291 154.947 Q641.508 155.78 639.587 156.197 Q637.689 156.613 635.536 156.613 Q629.68 156.613 626.231 152.933 Q622.782 149.252 622.782 143.002 Q622.782 136.66 626.254 133.025 Q629.749 129.391 635.814 129.391 Q637.781 129.391 639.656 129.808 Q641.531 130.201 643.291 131.011 Z" fill="#000000" fill-rule="nonzero" fill-opacity="1" /><path clip-path="url(#clip120)" d="M672.874 141.914 L672.874 143.998 L653.291 143.998 Q653.568 148.396 655.93 150.71 Q658.314 153.002 662.55 153.002 Q665.004 153.002 667.295 152.4 Q669.61 151.798 671.879 150.595 L671.879 154.622 Q669.587 155.595 667.179 156.104 Q664.772 156.613 662.295 156.613 Q656.092 156.613 652.457 153.002 Q648.846 149.391 648.846 143.234 Q648.846 136.868 652.272 133.141 Q655.721 129.391 661.554 129.391 Q666.786 129.391 669.818 132.771 Q672.874 136.127 672.874 141.914 M668.615 140.664 Q668.568 137.169 666.647 135.086 Q664.749 133.002 661.601 133.002 Q658.036 133.002 655.883 135.016 Q653.754 137.03 653.43 140.687 L668.615 140.664 Z" fill="#000000" fill-rule="nonzero" fill-opacity="1" /><path clip-path="url(#clip120)" d="M713.545 143.002 Q713.545 138.303 711.601 135.641 Q709.679 132.956 706.3 132.956 Q702.92 132.956 700.976 135.641 Q699.054 138.303 699.054 143.002 Q699.054 147.701 700.976 150.386 Q702.92 153.048 706.3 153.048 Q709.679 153.048 711.601 150.386 Q713.545 147.701 713.545 143.002 M699.054 133.951 Q700.397 131.636 702.434 130.525 Q704.494 129.391 707.341 129.391 Q712.063 129.391 715.003 133.141 Q717.966 136.891 717.966 143.002 Q717.966 149.113 715.003 152.863 Q712.063 156.613 707.341 156.613 Q704.494 156.613 702.434 155.502 Q700.397 154.368 699.054 152.053 L699.054 155.942 L694.772 155.942 L694.772 119.924 L699.054 119.924 L699.054 133.951 Z" fill="#000000" fill-rule="nonzero" fill-opacity="1" /><path clip-path="url(#clip120)" d="M736.809 142.91 Q731.647 142.91 729.656 144.09 Q727.665 145.271 727.665 148.118 Q727.665 150.386 729.147 151.729 Q730.651 153.048 733.221 153.048 Q736.762 153.048 738.892 150.548 Q741.045 148.025 741.045 143.859 L741.045 142.91 L736.809 142.91 M745.304 141.15 L745.304 155.942 L741.045 155.942 L741.045 152.007 Q739.586 154.368 737.411 155.502 Q735.235 156.613 732.087 156.613 Q728.105 156.613 725.744 154.391 Q723.406 152.146 723.406 148.396 Q723.406 144.021 726.323 141.798 Q729.262 139.576 735.073 139.576 L741.045 139.576 L741.045 139.16 Q741.045 136.22 739.1 134.623 Q737.179 133.002 733.684 133.002 Q731.462 133.002 729.355 133.535 Q727.249 134.067 725.304 135.132 L725.304 131.197 Q727.642 130.294 729.841 129.854 Q732.04 129.391 734.124 129.391 Q739.749 129.391 742.526 132.308 Q745.304 135.224 745.304 141.15 Z" fill="#000000" fill-rule="nonzero" fill-opacity="1" /><path clip-path="url(#clip120)" d="M775.628 140.294 L775.628 155.942 L771.369 155.942 L771.369 140.433 Q771.369 136.752 769.934 134.924 Q768.498 133.095 765.628 133.095 Q762.179 133.095 760.188 135.294 Q758.197 137.493 758.197 141.289 L758.197 155.942 L753.915 155.942 L753.915 130.016 L758.197 130.016 L758.197 134.044 Q759.725 131.706 761.785 130.549 Q763.869 129.391 766.577 129.391 Q771.045 129.391 773.336 132.169 Q775.628 134.924 775.628 140.294 Z" fill="#000000" fill-rule="nonzero" fill-opacity="1" /><path clip-path="url(#clip120)" d="M801.183 133.951 L801.183 119.924 L805.443 119.924 L805.443 155.942 L801.183 155.942 L801.183 152.053 Q799.841 154.368 797.781 155.502 Q795.744 156.613 792.873 156.613 Q788.174 156.613 785.211 152.863 Q782.271 149.113 782.271 143.002 Q782.271 136.891 785.211 133.141 Q788.174 129.391 792.873 129.391 Q795.744 129.391 797.781 130.525 Q799.841 131.636 801.183 133.951 M786.67 143.002 Q786.67 147.701 788.591 150.386 Q790.535 153.048 793.915 153.048 Q797.295 153.048 799.239 150.386 Q801.183 147.701 801.183 143.002 Q801.183 138.303 799.239 135.641 Q797.295 132.956 793.915 132.956 Q790.535 132.956 788.591 135.641 Q786.67 138.303 786.67 143.002 Z" fill="#000000" fill-rule="nonzero" fill-opacity="1" /></svg>
