<?xml version="1.0" encoding="utf-8"?>
<svg xmlns="http://www.w3.org/2000/svg" xmlns:xlink="http://www.w3.org/1999/xlink" width="528" height="336" viewBox="0 0 2112 1344">
<defs>
  <clipPath id="clip440">
    <rect x="0" y="0" width="2112" height="1344"/>
  </clipPath>
</defs>
<path clip-path="url(#clip440)" d="M0 1344 L2112 1344 L2112 2.13163e-14 L0 2.13163e-14  Z" fill="#ffffff" fill-rule="evenodd" fill-opacity="1"/>
<defs>
  <clipPath id="clip441">
    <rect x="153" y="47" width="1912" height="1188"/>
  </clipPath>
</defs>
<path clip-path="url(#clip440)" d="M135.084 1234.58 L2064.76 1234.58 L2064.76 47.2441 L135.084 47.2441  Z" fill="#ffffff" fill-rule="evenodd" fill-opacity="1"/>
<defs>
  <clipPath id="clip442">
    <rect x="135" y="47" width="1931" height="1188"/>
  </clipPath>
</defs>
<polyline clip-path="url(#clip442)" style="stroke:#000000; stroke-linecap:round; stroke-linejoin:round; stroke-width:2; stroke-opacity:0.1; fill:none" points="189.697,1234.58 189.697,47.2441 "/>
<polyline clip-path="url(#clip442)" style="stroke:#000000; stroke-linecap:round; stroke-linejoin:round; stroke-width:2; stroke-opacity:0.1; fill:none" points="796.512,1234.58 796.512,47.2441 "/>
<polyline clip-path="url(#clip442)" style="stroke:#000000; stroke-linecap:round; stroke-linejoin:round; stroke-width:2; stroke-opacity:0.1; fill:none" points="1403.33,1234.58 1403.33,47.2441 "/>
<polyline clip-path="url(#clip442)" style="stroke:#000000; stroke-linecap:round; stroke-linejoin:round; stroke-width:2; stroke-opacity:0.1; fill:none" points="2010.14,1234.58 2010.14,47.2441 "/>
<polyline clip-path="url(#clip442)" style="stroke:#000000; stroke-linecap:round; stroke-linejoin:round; stroke-width:2; stroke-opacity:0.1; fill:none" points="135.084,1051.62 2064.76,1051.62 "/>
<polyline clip-path="url(#clip442)" style="stroke:#000000; stroke-linecap:round; stroke-linejoin:round; stroke-width:2; stroke-opacity:0.1; fill:none" points="135.084,827.599 2064.76,827.599 "/>
<polyline clip-path="url(#clip442)" style="stroke:#000000; stroke-linecap:round; stroke-linejoin:round; stroke-width:2; stroke-opacity:0.1; fill:none" points="135.084,603.574 2064.76,603.574 "/>
<polyline clip-path="url(#clip442)" style="stroke:#000000; stroke-linecap:round; stroke-linejoin:round; stroke-width:2; stroke-opacity:0.1; fill:none" points="135.084,379.548 2064.76,379.548 "/>
<polyline clip-path="url(#clip442)" style="stroke:#000000; stroke-linecap:round; stroke-linejoin:round; stroke-width:2; stroke-opacity:0.1; fill:none" points="135.084,155.523 2064.76,155.523 "/>
<polyline clip-path="url(#clip440)" style="stroke:#000000; stroke-linecap:round; stroke-linejoin:round; stroke-width:4; stroke-opacity:1; fill:none" points="135.084,1234.58 2064.76,1234.58 "/>
<polyline clip-path="url(#clip440)" style="stroke:#000000; stroke-linecap:round; stroke-linejoin:round; stroke-width:4; stroke-opacity:1; fill:none" points="189.697,1234.58 189.697,1215.68 "/>
<polyline clip-path="url(#clip440)" style="stroke:#000000; stroke-linecap:round; stroke-linejoin:round; stroke-width:4; stroke-opacity:1; fill:none" points="796.512,1234.58 796.512,1215.68 "/>
<polyline clip-path="url(#clip440)" style="stroke:#000000; stroke-linecap:round; stroke-linejoin:round; stroke-width:4; stroke-opacity:1; fill:none" points="1403.33,1234.58 1403.33,1215.68 "/>
<polyline clip-path="url(#clip440)" style="stroke:#000000; stroke-linecap:round; stroke-linejoin:round; stroke-width:4; stroke-opacity:1; fill:none" points="2010.14,1234.58 2010.14,1215.68 "/>
<path clip-path="url(#clip440)" d="M180.079 1290.74 L187.718 1290.74 L187.718 1264.37 L179.408 1266.04 L179.408 1261.78 L187.672 1260.11 L192.348 1260.11 L192.348 1290.74 L199.987 1290.74 L199.987 1294.67 L180.079 1294.67 L180.079 1290.74 Z" fill="#000000" fill-rule="nonzero" fill-opacity="1" /><path clip-path="url(#clip440)" d="M791.165 1290.74 L807.485 1290.74 L807.485 1294.67 L785.54 1294.67 L785.54 1290.74 Q788.202 1287.99 792.786 1283.36 Q797.392 1278.7 798.573 1277.36 Q800.818 1274.84 801.698 1273.1 Q802.6 1271.34 802.6 1269.65 Q802.6 1266.9 800.656 1265.16 Q798.735 1263.42 795.633 1263.42 Q793.434 1263.42 790.98 1264.19 Q788.55 1264.95 785.772 1266.5 L785.772 1261.78 Q788.596 1260.65 791.05 1260.07 Q793.503 1259.49 795.54 1259.49 Q800.911 1259.49 804.105 1262.17 Q807.299 1264.86 807.299 1269.35 Q807.299 1271.48 806.489 1273.4 Q805.702 1275.3 803.596 1277.89 Q803.017 1278.56 799.915 1281.78 Q796.813 1284.98 791.165 1290.74 Z" fill="#000000" fill-rule="nonzero" fill-opacity="1" /><path clip-path="url(#clip440)" d="M1407.58 1276.04 Q1410.93 1276.76 1412.81 1279.03 Q1414.7 1281.3 1414.7 1284.63 Q1414.7 1289.74 1411.19 1292.55 Q1407.67 1295.35 1401.19 1295.35 Q1399.01 1295.35 1396.7 1294.91 Q1394.4 1294.49 1391.95 1293.63 L1391.95 1289.12 Q1393.89 1290.25 1396.21 1290.83 Q1398.52 1291.41 1401.05 1291.41 Q1405.45 1291.41 1407.74 1289.67 Q1410.05 1287.94 1410.05 1284.63 Q1410.05 1281.57 1407.9 1279.86 Q1405.77 1278.12 1401.95 1278.12 L1397.92 1278.12 L1397.92 1274.28 L1402.14 1274.28 Q1405.58 1274.28 1407.41 1272.92 Q1409.24 1271.53 1409.24 1268.93 Q1409.24 1266.27 1407.34 1264.86 Q1405.47 1263.42 1401.95 1263.42 Q1400.03 1263.42 1397.83 1263.84 Q1395.63 1264.26 1392.99 1265.14 L1392.99 1260.97 Q1395.65 1260.23 1397.97 1259.86 Q1400.31 1259.49 1402.37 1259.49 Q1407.69 1259.49 1410.79 1261.92 Q1413.89 1264.33 1413.89 1268.45 Q1413.89 1271.32 1412.25 1273.31 Q1410.61 1275.28 1407.58 1276.04 Z" fill="#000000" fill-rule="nonzero" fill-opacity="1" /><path clip-path="url(#clip440)" d="M2013.15 1264.19 L2001.35 1282.64 L2013.15 1282.64 L2013.15 1264.19 M2011.92 1260.11 L2017.8 1260.11 L2017.8 1282.64 L2022.74 1282.64 L2022.74 1286.53 L2017.8 1286.53 L2017.8 1294.67 L2013.15 1294.67 L2013.15 1286.53 L1997.55 1286.53 L1997.55 1282.01 L2011.92 1260.11 Z" fill="#000000" fill-rule="nonzero" fill-opacity="1" /><polyline clip-path="url(#clip440)" style="stroke:#000000; stroke-linecap:round; stroke-linejoin:round; stroke-width:4; stroke-opacity:1; fill:none" points="135.084,1234.58 135.084,47.2441 "/>
<polyline clip-path="url(#clip440)" style="stroke:#000000; stroke-linecap:round; stroke-linejoin:round; stroke-width:4; stroke-opacity:1; fill:none" points="135.084,1051.62 153.982,1051.62 "/>
<polyline clip-path="url(#clip440)" style="stroke:#000000; stroke-linecap:round; stroke-linejoin:round; stroke-width:4; stroke-opacity:1; fill:none" points="135.084,827.599 153.982,827.599 "/>
<polyline clip-path="url(#clip440)" style="stroke:#000000; stroke-linecap:round; stroke-linejoin:round; stroke-width:4; stroke-opacity:1; fill:none" points="135.084,603.574 153.982,603.574 "/>
<polyline clip-path="url(#clip440)" style="stroke:#000000; stroke-linecap:round; stroke-linejoin:round; stroke-width:4; stroke-opacity:1; fill:none" points="135.084,379.548 153.982,379.548 "/>
<polyline clip-path="url(#clip440)" style="stroke:#000000; stroke-linecap:round; stroke-linejoin:round; stroke-width:4; stroke-opacity:1; fill:none" points="135.084,155.523 153.982,155.523 "/>
<path clip-path="url(#clip440)" d="M96.2745 1050.27 Q99.6309 1050.99 101.506 1053.26 Q103.404 1055.53 103.404 1058.86 Q103.404 1063.97 99.8856 1066.78 Q96.3671 1069.58 89.8856 1069.58 Q87.7097 1069.58 85.3949 1069.14 Q83.1033 1068.72 80.6496 1067.86 L80.6496 1063.35 Q82.594 1064.48 84.9088 1065.06 Q87.2236 1065.64 89.7467 1065.64 Q94.1449 1065.64 96.4365 1063.9 Q98.7513 1062.17 98.7513 1058.86 Q98.7513 1055.8 96.5986 1054.09 Q94.4689 1052.35 90.6495 1052.35 L86.6218 1052.35 L86.6218 1048.51 L90.8347 1048.51 Q94.2838 1048.51 96.1124 1047.15 Q97.9411 1045.76 97.9411 1043.16 Q97.9411 1040.5 96.043 1039.09 Q94.168 1037.65 90.6495 1037.65 Q88.7282 1037.65 86.5292 1038.07 Q84.3301 1038.49 81.6912 1039.37 L81.6912 1035.2 Q84.3533 1034.46 86.6681 1034.09 Q89.006 1033.72 91.0662 1033.72 Q96.3902 1033.72 99.4921 1036.15 Q102.594 1038.56 102.594 1042.68 Q102.594 1045.55 100.95 1047.54 Q99.3069 1049.51 96.2745 1050.27 Z" fill="#000000" fill-rule="nonzero" fill-opacity="1" /><path clip-path="url(#clip440)" d="M91.8764 825.736 Q88.7282 825.736 86.8764 827.889 Q85.0477 830.041 85.0477 833.791 Q85.0477 837.518 86.8764 839.694 Q88.7282 841.847 91.8764 841.847 Q95.0245 841.847 96.8532 839.694 Q98.705 837.518 98.705 833.791 Q98.705 830.041 96.8532 827.889 Q95.0245 825.736 91.8764 825.736 M101.159 811.083 L101.159 815.342 Q99.3995 814.509 97.5939 814.069 Q95.8115 813.629 94.0523 813.629 Q89.4227 813.629 86.969 816.754 Q84.5384 819.879 84.1912 826.199 Q85.5569 824.185 87.6171 823.12 Q89.6773 822.032 92.1541 822.032 Q97.3624 822.032 100.372 825.203 Q103.404 828.352 103.404 833.791 Q103.404 839.115 100.256 842.333 Q97.1078 845.551 91.8764 845.551 Q85.881 845.551 82.7097 840.967 Q79.5385 836.361 79.5385 827.634 Q79.5385 819.44 83.4273 814.579 Q87.3162 809.694 93.8671 809.694 Q95.6263 809.694 97.4087 810.042 Q99.2143 810.389 101.159 811.083 Z" fill="#000000" fill-rule="nonzero" fill-opacity="1" /><path clip-path="url(#clip440)" d="M81.7838 620.136 L81.7838 615.877 Q83.5431 616.71 85.3486 617.15 Q87.1542 617.59 88.8903 617.59 Q93.5199 617.59 95.9504 614.488 Q98.4041 611.363 98.7513 605.021 Q97.4087 607.011 95.3486 608.076 Q93.2884 609.141 90.7884 609.141 Q85.6032 609.141 82.5709 606.016 Q79.5616 602.868 79.5616 597.428 Q79.5616 592.104 82.7097 588.886 Q85.8579 585.669 91.0893 585.669 Q97.0847 585.669 100.233 590.275 Q103.404 594.859 103.404 603.609 Q103.404 611.78 99.5152 616.664 Q95.6495 621.525 89.0986 621.525 Q87.3393 621.525 85.5338 621.178 Q83.7283 620.831 81.7838 620.136 M91.0893 605.484 Q94.2375 605.484 96.0662 603.331 Q97.918 601.178 97.918 597.428 Q97.918 593.701 96.0662 591.548 Q94.2375 589.373 91.0893 589.373 Q87.9412 589.373 86.0894 591.548 Q84.2607 593.701 84.2607 597.428 Q84.2607 601.178 86.0894 603.331 Q87.9412 605.484 91.0893 605.484 Z" fill="#000000" fill-rule="nonzero" fill-opacity="1" /><path clip-path="url(#clip440)" d="M53.7053 392.893 L61.3441 392.893 L61.3441 366.528 L53.034 368.194 L53.034 363.935 L61.2978 362.268 L65.9737 362.268 L65.9737 392.893 L73.6126 392.893 L73.6126 396.828 L53.7053 396.828 L53.7053 392.893 Z" fill="#000000" fill-rule="nonzero" fill-opacity="1" /><path clip-path="url(#clip440)" d="M87.0847 392.893 L103.404 392.893 L103.404 396.828 L81.4597 396.828 L81.4597 392.893 Q84.1218 390.139 88.7051 385.509 Q93.3115 380.856 94.4921 379.514 Q96.7374 376.991 97.6171 375.254 Q98.5198 373.495 98.5198 371.805 Q98.5198 369.051 96.5754 367.315 Q94.6541 365.579 91.5523 365.579 Q89.3532 365.579 86.8995 366.343 Q84.469 367.106 81.6912 368.657 L81.6912 363.935 Q84.5153 362.801 86.969 362.222 Q89.4227 361.643 91.4597 361.643 Q96.83 361.643 100.024 364.329 Q103.219 367.014 103.219 371.505 Q103.219 373.634 102.409 375.555 Q101.622 377.454 99.5152 380.046 Q98.9365 380.717 95.8347 383.935 Q92.7328 387.129 87.0847 392.893 Z" fill="#000000" fill-rule="nonzero" fill-opacity="1" /><path clip-path="url(#clip440)" d="M53.1034 168.868 L60.7423 168.868 L60.7423 142.502 L52.4321 144.169 L52.4321 139.91 L60.696 138.243 L65.3719 138.243 L65.3719 168.868 L73.0107 168.868 L73.0107 172.803 L53.1034 172.803 L53.1034 168.868 Z" fill="#000000" fill-rule="nonzero" fill-opacity="1" /><path clip-path="url(#clip440)" d="M82.5014 138.243 L100.858 138.243 L100.858 142.178 L86.7838 142.178 L86.7838 150.65 Q87.8023 150.303 88.8208 150.141 Q89.8393 149.956 90.8578 149.956 Q96.6449 149.956 100.024 153.127 Q103.404 156.299 103.404 161.715 Q103.404 167.294 99.9319 170.396 Q96.4597 173.474 90.1403 173.474 Q87.9643 173.474 85.6958 173.104 Q83.4505 172.734 81.0431 171.993 L81.0431 167.294 Q83.1264 168.428 85.3486 168.984 Q87.5708 169.539 90.0477 169.539 Q94.0523 169.539 96.3902 167.433 Q98.7282 165.326 98.7282 161.715 Q98.7282 158.104 96.3902 155.998 Q94.0523 153.891 90.0477 153.891 Q88.1727 153.891 86.2977 154.308 Q84.4458 154.724 82.5014 155.604 L82.5014 138.243 Z" fill="#000000" fill-rule="nonzero" fill-opacity="1" /><polyline clip-path="url(#clip442)" style="stroke:#009af9; stroke-linecap:round; stroke-linejoin:round; stroke-width:4; stroke-opacity:1; fill:none" points="189.697,1200.97 796.512,976.95 1403.33,603.574 2010.14,80.8479 "/>
<path clip-path="url(#clip440)" d="M199.406 190.502 L444.804 190.502 L444.804 86.8219 L199.406 86.8219  Z" fill="#ffffff" fill-rule="evenodd" fill-opacity="1"/>
<polyline clip-path="url(#clip440)" style="stroke:#000000; stroke-linecap:round; stroke-linejoin:round; stroke-width:4; stroke-opacity:1; fill:none" points="199.406,190.502 444.804,190.502 444.804,86.8219 199.406,86.8219 199.406,190.502 "/>
<polyline clip-path="url(#clip440)" style="stroke:#009af9; stroke-linecap:round; stroke-linejoin:round; stroke-width:4; stroke-opacity:1; fill:none" points="220.847,138.662 349.492,138.662 "/>
<path clip-path="url(#clip440)" d="M384.775 158.349 Q382.97 162.979 381.257 164.391 Q379.544 165.803 376.674 165.803 L373.271 165.803 L373.271 162.238 L375.771 162.238 Q377.53 162.238 378.502 161.405 Q379.474 160.572 380.655 157.47 L381.419 155.525 L370.933 130.016 L375.447 130.016 L383.549 150.294 L391.65 130.016 L396.164 130.016 L384.775 158.349 Z" fill="#000000" fill-rule="nonzero" fill-opacity="1" /><path clip-path="url(#clip440)" d="M403.456 152.007 L411.095 152.007 L411.095 125.641 L402.785 127.308 L402.785 123.049 L411.048 121.382 L415.724 121.382 L415.724 152.007 L423.363 152.007 L423.363 155.942 L403.456 155.942 L403.456 152.007 Z" fill="#000000" fill-rule="nonzero" fill-opacity="1" /></svg>
