<?xml version="1.0" encoding="utf-8"?>
<svg xmlns="http://www.w3.org/2000/svg" xmlns:xlink="http://www.w3.org/1999/xlink" width="528" height="336" viewBox="0 0 2112 1344">
<defs>
  <clipPath id="clip180">
    <rect x="0" y="0" width="2112" height="1344"/>
  </clipPath>
</defs>
<path clip-path="url(#clip180)" d="M0 1344 L2112 1344 L2112 2.13163e-14 L0 2.13163e-14  Z" fill="#ffffff" fill-rule="evenodd" fill-opacity="1"/>
<defs>
  <clipPath id="clip181">
    <rect x="153" y="47" width="1912" height="1188"/>
  </clipPath>
</defs>
<path clip-path="url(#clip180)" d="M137.816 1234.58 L2064.76 1234.58 L2064.76 47.2441 L137.816 47.2441  Z" fill="#ffffff" fill-rule="evenodd" fill-opacity="1"/>
<defs>
  <clipPath id="clip182">
    <rect x="137" y="47" width="1928" height="1188"/>
  </clipPath>
</defs>
<polyline clip-path="url(#clip182)" style="stroke:#000000; stroke-linecap:round; stroke-linejoin:round; stroke-width:2; stroke-opacity:0.1; fill:none" points="192.352,1234.58 192.352,47.2441 "/>
<polyline clip-path="url(#clip182)" style="stroke:#000000; stroke-linecap:round; stroke-linejoin:round; stroke-width:2; stroke-opacity:0.1; fill:none" points="646.819,1234.58 646.819,47.2441 "/>
<polyline clip-path="url(#clip182)" style="stroke:#000000; stroke-linecap:round; stroke-linejoin:round; stroke-width:2; stroke-opacity:0.1; fill:none" points="1101.29,1234.58 1101.29,47.2441 "/>
<polyline clip-path="url(#clip182)" style="stroke:#000000; stroke-linecap:round; stroke-linejoin:round; stroke-width:2; stroke-opacity:0.1; fill:none" points="1555.75,1234.58 1555.75,47.2441 "/>
<polyline clip-path="url(#clip182)" style="stroke:#000000; stroke-linecap:round; stroke-linejoin:round; stroke-width:2; stroke-opacity:0.1; fill:none" points="2010.22,1234.58 2010.22,47.2441 "/>
<polyline clip-path="url(#clip182)" style="stroke:#000000; stroke-linecap:round; stroke-linejoin:round; stroke-width:2; stroke-opacity:0.1; fill:none" points="137.816,1200.97 2064.76,1200.97 "/>
<polyline clip-path="url(#clip182)" style="stroke:#000000; stroke-linecap:round; stroke-linejoin:round; stroke-width:2; stroke-opacity:0.1; fill:none" points="137.816,967.615 2064.76,967.615 "/>
<polyline clip-path="url(#clip182)" style="stroke:#000000; stroke-linecap:round; stroke-linejoin:round; stroke-width:2; stroke-opacity:0.1; fill:none" points="137.816,734.255 2064.76,734.255 "/>
<polyline clip-path="url(#clip182)" style="stroke:#000000; stroke-linecap:round; stroke-linejoin:round; stroke-width:2; stroke-opacity:0.1; fill:none" points="137.816,500.896 2064.76,500.896 "/>
<polyline clip-path="url(#clip182)" style="stroke:#000000; stroke-linecap:round; stroke-linejoin:round; stroke-width:2; stroke-opacity:0.1; fill:none" points="137.816,267.536 2064.76,267.536 "/>
<polyline clip-path="url(#clip180)" style="stroke:#000000; stroke-linecap:round; stroke-linejoin:round; stroke-width:4; stroke-opacity:1; fill:none" points="137.816,1234.58 2064.76,1234.58 "/>
<polyline clip-path="url(#clip180)" style="stroke:#000000; stroke-linecap:round; stroke-linejoin:round; stroke-width:4; stroke-opacity:1; fill:none" points="192.352,1234.58 192.352,1215.68 "/>
<polyline clip-path="url(#clip180)" style="stroke:#000000; stroke-linecap:round; stroke-linejoin:round; stroke-width:4; stroke-opacity:1; fill:none" points="646.819,1234.58 646.819,1215.68 "/>
<polyline clip-path="url(#clip180)" style="stroke:#000000; stroke-linecap:round; stroke-linejoin:round; stroke-width:4; stroke-opacity:1; fill:none" points="1101.29,1234.58 1101.29,1215.68 "/>
<polyline clip-path="url(#clip180)" style="stroke:#000000; stroke-linecap:round; stroke-linejoin:round; stroke-width:4; stroke-opacity:1; fill:none" points="1555.75,1234.58 1555.75,1215.68 "/>
<polyline clip-path="url(#clip180)" style="stroke:#000000; stroke-linecap:round; stroke-linejoin:round; stroke-width:4; stroke-opacity:1; fill:none" points="2010.22,1234.58 2010.22,1215.68 "/>
<path clip-path="url(#clip180)" d="M159.505 1290.74 L167.143 1290.74 L167.143 1264.37 L158.833 1266.04 L158.833 1261.78 L167.097 1260.11 L171.773 1260.11 L171.773 1290.74 L179.412 1290.74 L179.412 1294.67 L159.505 1294.67 L159.505 1290.74 Z" fill="#000000" fill-rule="nonzero" fill-opacity="1" /><path clip-path="url(#clip180)" d="M188.856 1288.8 L193.74 1288.8 L193.74 1294.67 L188.856 1294.67 L188.856 1288.8 Z" fill="#000000" fill-rule="nonzero" fill-opacity="1" /><path clip-path="url(#clip180)" d="M213.926 1263.19 Q210.314 1263.19 208.486 1266.76 Q206.68 1270.3 206.68 1277.43 Q206.68 1284.54 208.486 1288.1 Q210.314 1291.64 213.926 1291.64 Q217.56 1291.64 219.365 1288.1 Q221.194 1284.54 221.194 1277.43 Q221.194 1270.3 219.365 1266.76 Q217.56 1263.19 213.926 1263.19 M213.926 1259.49 Q219.736 1259.49 222.791 1264.1 Q225.87 1268.68 225.87 1277.43 Q225.87 1286.16 222.791 1290.76 Q219.736 1295.35 213.926 1295.35 Q208.115 1295.35 205.037 1290.76 Q201.981 1286.16 201.981 1277.43 Q201.981 1268.68 205.037 1264.1 Q208.115 1259.49 213.926 1259.49 Z" fill="#000000" fill-rule="nonzero" fill-opacity="1" /><path clip-path="url(#clip180)" d="M614.469 1290.74 L622.108 1290.74 L622.108 1264.37 L613.798 1266.04 L613.798 1261.78 L622.062 1260.11 L626.738 1260.11 L626.738 1290.74 L634.377 1290.74 L634.377 1294.67 L614.469 1294.67 L614.469 1290.74 Z" fill="#000000" fill-rule="nonzero" fill-opacity="1" /><path clip-path="url(#clip180)" d="M643.821 1288.8 L648.705 1288.8 L648.705 1294.67 L643.821 1294.67 L643.821 1288.8 Z" fill="#000000" fill-rule="nonzero" fill-opacity="1" /><path clip-path="url(#clip180)" d="M658.937 1260.11 L677.293 1260.11 L677.293 1264.05 L663.219 1264.05 L663.219 1272.52 Q664.238 1272.17 665.256 1272.01 Q666.275 1271.83 667.293 1271.83 Q673.08 1271.83 676.46 1275 Q679.839 1278.17 679.839 1283.59 Q679.839 1289.17 676.367 1292.27 Q672.895 1295.35 666.575 1295.35 Q664.4 1295.35 662.131 1294.98 Q659.886 1294.61 657.478 1293.86 L657.478 1289.17 Q659.562 1290.3 661.784 1290.86 Q664.006 1291.41 666.483 1291.41 Q670.488 1291.41 672.825 1289.3 Q675.163 1287.2 675.163 1283.59 Q675.163 1279.98 672.825 1277.87 Q670.488 1275.76 666.483 1275.76 Q664.608 1275.76 662.733 1276.18 Q660.881 1276.6 658.937 1277.48 L658.937 1260.11 Z" fill="#000000" fill-rule="nonzero" fill-opacity="1" /><path clip-path="url(#clip180)" d="M1072.52 1290.74 L1088.84 1290.74 L1088.84 1294.67 L1066.9 1294.67 L1066.9 1290.74 Q1069.56 1287.99 1074.14 1283.36 Q1078.75 1278.7 1079.93 1277.36 Q1082.18 1274.84 1083.06 1273.1 Q1083.96 1271.34 1083.96 1269.65 Q1083.96 1266.9 1082.01 1265.16 Q1080.09 1263.42 1076.99 1263.42 Q1074.79 1263.42 1072.34 1264.19 Q1069.91 1264.95 1067.13 1266.5 L1067.13 1261.78 Q1069.95 1260.65 1072.41 1260.07 Q1074.86 1259.49 1076.9 1259.49 Q1082.27 1259.49 1085.46 1262.17 Q1088.66 1264.86 1088.66 1269.35 Q1088.66 1271.48 1087.85 1273.4 Q1087.06 1275.3 1084.95 1277.89 Q1084.38 1278.56 1081.27 1281.78 Q1078.17 1284.98 1072.52 1290.74 Z" fill="#000000" fill-rule="nonzero" fill-opacity="1" /><path clip-path="url(#clip180)" d="M1098.66 1288.8 L1103.54 1288.8 L1103.54 1294.67 L1098.66 1294.67 L1098.66 1288.8 Z" fill="#000000" fill-rule="nonzero" fill-opacity="1" /><path clip-path="url(#clip180)" d="M1123.73 1263.19 Q1120.12 1263.19 1118.29 1266.76 Q1116.48 1270.3 1116.48 1277.43 Q1116.48 1284.54 1118.29 1288.1 Q1120.12 1291.64 1123.73 1291.64 Q1127.36 1291.64 1129.17 1288.1 Q1131 1284.54 1131 1277.43 Q1131 1270.3 1129.17 1266.76 Q1127.36 1263.19 1123.73 1263.19 M1123.73 1259.49 Q1129.54 1259.49 1132.59 1264.1 Q1135.67 1268.68 1135.67 1277.43 Q1135.67 1286.16 1132.59 1290.76 Q1129.54 1295.35 1123.73 1295.35 Q1117.92 1295.35 1114.84 1290.76 Q1111.78 1286.16 1111.78 1277.43 Q1111.78 1268.68 1114.84 1264.1 Q1117.92 1259.49 1123.73 1259.49 Z" fill="#000000" fill-rule="nonzero" fill-opacity="1" /><path clip-path="url(#clip180)" d="M1527.49 1290.74 L1543.81 1290.74 L1543.81 1294.67 L1521.86 1294.67 L1521.86 1290.74 Q1524.53 1287.99 1529.11 1283.36 Q1533.72 1278.7 1534.9 1277.36 Q1537.14 1274.84 1538.02 1273.1 Q1538.92 1271.34 1538.92 1269.65 Q1538.92 1266.9 1536.98 1265.16 Q1535.06 1263.42 1531.96 1263.42 Q1529.76 1263.42 1527.3 1264.19 Q1524.87 1264.95 1522.1 1266.5 L1522.1 1261.78 Q1524.92 1260.65 1527.37 1260.07 Q1529.83 1259.49 1531.86 1259.49 Q1537.23 1259.49 1540.43 1262.17 Q1543.62 1264.86 1543.62 1269.35 Q1543.62 1271.48 1542.81 1273.4 Q1542.03 1275.3 1539.92 1277.89 Q1539.34 1278.56 1536.24 1281.78 Q1533.14 1284.98 1527.49 1290.74 Z" fill="#000000" fill-rule="nonzero" fill-opacity="1" /><path clip-path="url(#clip180)" d="M1553.62 1288.8 L1558.51 1288.8 L1558.51 1294.67 L1553.62 1294.67 L1553.62 1288.8 Z" fill="#000000" fill-rule="nonzero" fill-opacity="1" /><path clip-path="url(#clip180)" d="M1568.74 1260.11 L1587.1 1260.11 L1587.1 1264.05 L1573.02 1264.05 L1573.02 1272.52 Q1574.04 1272.17 1575.06 1272.01 Q1576.08 1271.83 1577.1 1271.83 Q1582.88 1271.83 1586.26 1275 Q1589.64 1278.17 1589.64 1283.59 Q1589.64 1289.17 1586.17 1292.27 Q1582.7 1295.35 1576.38 1295.35 Q1574.2 1295.35 1571.93 1294.98 Q1569.69 1294.61 1567.28 1293.86 L1567.28 1289.17 Q1569.36 1290.3 1571.59 1290.86 Q1573.81 1291.41 1576.29 1291.41 Q1580.29 1291.41 1582.63 1289.3 Q1584.97 1287.2 1584.97 1283.59 Q1584.97 1279.98 1582.63 1277.87 Q1580.29 1275.76 1576.29 1275.76 Q1574.41 1275.76 1572.54 1276.18 Q1570.68 1276.6 1568.74 1277.48 L1568.74 1260.11 Z" fill="#000000" fill-rule="nonzero" fill-opacity="1" /><path clip-path="url(#clip180)" d="M1991.53 1276.04 Q1994.88 1276.76 1996.76 1279.03 Q1998.66 1281.3 1998.66 1284.63 Q1998.66 1289.74 1995.14 1292.55 Q1991.62 1295.35 1985.14 1295.35 Q1982.96 1295.35 1980.65 1294.91 Q1978.36 1294.49 1975.9 1293.63 L1975.9 1289.12 Q1977.85 1290.25 1980.16 1290.83 Q1982.48 1291.41 1985 1291.41 Q1989.4 1291.41 1991.69 1289.67 Q1994 1287.94 1994 1284.63 Q1994 1281.57 1991.85 1279.86 Q1989.72 1278.12 1985.9 1278.12 L1981.88 1278.12 L1981.88 1274.28 L1986.09 1274.28 Q1989.54 1274.28 1991.37 1272.92 Q1993.19 1271.53 1993.19 1268.93 Q1993.19 1266.27 1991.3 1264.86 Q1989.42 1263.42 1985.9 1263.42 Q1983.98 1263.42 1981.78 1263.84 Q1979.58 1264.26 1976.94 1265.14 L1976.94 1260.97 Q1979.61 1260.23 1981.92 1259.86 Q1984.26 1259.49 1986.32 1259.49 Q1991.64 1259.49 1994.75 1261.92 Q1997.85 1264.33 1997.85 1268.45 Q1997.85 1271.32 1996.2 1273.31 Q1994.56 1275.28 1991.53 1276.04 Z" fill="#000000" fill-rule="nonzero" fill-opacity="1" /><path clip-path="url(#clip180)" d="M2007.52 1288.8 L2012.41 1288.8 L2012.41 1294.67 L2007.52 1294.67 L2007.52 1288.8 Z" fill="#000000" fill-rule="nonzero" fill-opacity="1" /><path clip-path="url(#clip180)" d="M2032.59 1263.19 Q2028.98 1263.19 2027.15 1266.76 Q2025.35 1270.3 2025.35 1277.43 Q2025.35 1284.54 2027.15 1288.1 Q2028.98 1291.64 2032.59 1291.64 Q2036.23 1291.64 2038.03 1288.1 Q2039.86 1284.54 2039.86 1277.43 Q2039.86 1270.3 2038.03 1266.76 Q2036.23 1263.19 2032.59 1263.19 M2032.59 1259.49 Q2038.4 1259.49 2041.46 1264.1 Q2044.54 1268.68 2044.54 1277.43 Q2044.54 1286.16 2041.46 1290.76 Q2038.4 1295.35 2032.59 1295.35 Q2026.78 1295.35 2023.7 1290.76 Q2020.65 1286.16 2020.65 1277.43 Q2020.65 1268.68 2023.7 1264.1 Q2026.78 1259.49 2032.59 1259.49 Z" fill="#000000" fill-rule="nonzero" fill-opacity="1" /><polyline clip-path="url(#clip180)" style="stroke:#000000; stroke-linecap:round; stroke-linejoin:round; stroke-width:4; stroke-opacity:1; fill:none" points="137.816,1234.58 137.816,47.2441 "/>
<polyline clip-path="url(#clip180)" style="stroke:#000000; stroke-linecap:round; stroke-linejoin:round; stroke-width:4; stroke-opacity:1; fill:none" points="137.816,1200.97 156.713,1200.97 "/>
<polyline clip-path="url(#clip180)" style="stroke:#000000; stroke-linecap:round; stroke-linejoin:round; stroke-width:4; stroke-opacity:1; fill:none" points="137.816,967.615 156.713,967.615 "/>
<polyline clip-path="url(#clip180)" style="stroke:#000000; stroke-linecap:round; stroke-linejoin:round; stroke-width:4; stroke-opacity:1; fill:none" points="137.816,734.255 156.713,734.255 "/>
<polyline clip-path="url(#clip180)" style="stroke:#000000; stroke-linecap:round; stroke-linejoin:round; stroke-width:4; stroke-opacity:1; fill:none" points="137.816,500.896 156.713,500.896 "/>
<polyline clip-path="url(#clip180)" style="stroke:#000000; stroke-linecap:round; stroke-linejoin:round; stroke-width:4; stroke-opacity:1; fill:none" points="137.816,267.536 156.713,267.536 "/>
<path clip-path="url(#clip180)" d="M94.1912 1186.77 Q90.5801 1186.77 88.7514 1190.34 Q86.9458 1193.88 86.9458 1201.01 Q86.9458 1208.12 88.7514 1211.68 Q90.5801 1215.22 94.1912 1215.22 Q97.8254 1215.22 99.6309 1211.68 Q101.46 1208.12 101.46 1201.01 Q101.46 1193.88 99.6309 1190.34 Q97.8254 1186.77 94.1912 1186.77 M94.1912 1183.07 Q100.001 1183.07 103.057 1187.68 Q106.136 1192.26 106.136 1201.01 Q106.136 1209.74 103.057 1214.34 Q100.001 1218.93 94.1912 1218.93 Q88.381 1218.93 85.3023 1214.34 Q82.2468 1209.74 82.2468 1201.01 Q82.2468 1192.26 85.3023 1187.68 Q88.381 1183.07 94.1912 1183.07 Z" fill="#000000" fill-rule="nonzero" fill-opacity="1" /><path clip-path="url(#clip180)" d="M85.2329 950.335 L103.589 950.335 L103.589 954.27 L89.5153 954.27 L89.5153 962.743 Q90.5338 962.395 91.5523 962.233 Q92.5708 962.048 93.5893 962.048 Q99.3763 962.048 102.756 965.219 Q106.136 968.391 106.136 973.807 Q106.136 979.386 102.663 982.488 Q99.1911 985.566 92.8717 985.566 Q90.6958 985.566 88.4273 985.196 Q86.1819 984.826 83.7746 984.085 L83.7746 979.386 Q85.8579 980.52 88.0801 981.076 Q90.3023 981.631 92.7791 981.631 Q96.7837 981.631 99.1217 979.525 Q101.46 977.418 101.46 973.807 Q101.46 970.196 99.1217 968.09 Q96.7837 965.983 92.7791 965.983 Q90.9041 965.983 89.0292 966.4 Q87.1773 966.817 85.2329 967.696 L85.2329 950.335 Z" fill="#000000" fill-rule="nonzero" fill-opacity="1" /><path clip-path="url(#clip180)" d="M54.8395 747.6 L62.4784 747.6 L62.4784 721.235 L54.1682 722.901 L54.1682 718.642 L62.4321 716.975 L67.108 716.975 L67.108 747.6 L74.7468 747.6 L74.7468 751.535 L54.8395 751.535 L54.8395 747.6 Z" fill="#000000" fill-rule="nonzero" fill-opacity="1" /><path clip-path="url(#clip180)" d="M94.1912 720.054 Q90.5801 720.054 88.7514 723.619 Q86.9458 727.16 86.9458 734.29 Q86.9458 741.397 88.7514 744.961 Q90.5801 748.503 94.1912 748.503 Q97.8254 748.503 99.6309 744.961 Q101.46 741.397 101.46 734.29 Q101.46 727.16 99.6309 723.619 Q97.8254 720.054 94.1912 720.054 M94.1912 716.35 Q100.001 716.35 103.057 720.957 Q106.136 725.54 106.136 734.29 Q106.136 743.017 103.057 747.623 Q100.001 752.207 94.1912 752.207 Q88.381 752.207 85.3023 747.623 Q82.2468 743.017 82.2468 734.29 Q82.2468 725.54 85.3023 720.957 Q88.381 716.35 94.1912 716.35 Z" fill="#000000" fill-rule="nonzero" fill-opacity="1" /><path clip-path="url(#clip180)" d="M55.8349 514.24 L63.4737 514.24 L63.4737 487.875 L55.1636 489.541 L55.1636 485.282 L63.4274 483.616 L68.1033 483.616 L68.1033 514.24 L75.7422 514.24 L75.7422 518.176 L55.8349 518.176 L55.8349 514.24 Z" fill="#000000" fill-rule="nonzero" fill-opacity="1" /><path clip-path="url(#clip180)" d="M85.2329 483.616 L103.589 483.616 L103.589 487.551 L89.5153 487.551 L89.5153 496.023 Q90.5338 495.676 91.5523 495.514 Q92.5708 495.328 93.5893 495.328 Q99.3763 495.328 102.756 498.5 Q106.136 501.671 106.136 507.088 Q106.136 512.666 102.663 515.768 Q99.1911 518.847 92.8717 518.847 Q90.6958 518.847 88.4273 518.476 Q86.1819 518.106 83.7746 517.365 L83.7746 512.666 Q85.8579 513.801 88.0801 514.356 Q90.3023 514.912 92.7791 514.912 Q96.7837 514.912 99.1217 512.805 Q101.46 510.699 101.46 507.088 Q101.46 503.477 99.1217 501.37 Q96.7837 499.264 92.7791 499.264 Q90.9041 499.264 89.0292 499.68 Q87.1773 500.097 85.2329 500.977 L85.2329 483.616 Z" fill="#000000" fill-rule="nonzero" fill-opacity="1" /><path clip-path="url(#clip180)" d="M58.0571 280.881 L74.3765 280.881 L74.3765 284.816 L52.4321 284.816 L52.4321 280.881 Q55.0941 278.126 59.6775 273.496 Q64.2839 268.844 65.4645 267.501 Q67.7098 264.978 68.5894 263.242 Q69.4922 261.483 69.4922 259.793 Q69.4922 257.038 67.5478 255.302 Q65.6265 253.566 62.5247 253.566 Q60.3256 253.566 57.8719 254.33 Q55.4414 255.094 52.6636 256.645 L52.6636 251.922 Q55.4877 250.788 57.9414 250.209 Q60.395 249.631 62.4321 249.631 Q67.8024 249.631 70.9968 252.316 Q74.1913 255.001 74.1913 259.492 Q74.1913 261.621 73.3811 263.543 Q72.5941 265.441 70.4876 268.033 Q69.9089 268.705 66.807 271.922 Q63.7052 275.117 58.0571 280.881 Z" fill="#000000" fill-rule="nonzero" fill-opacity="1" /><path clip-path="url(#clip180)" d="M94.1912 253.334 Q90.5801 253.334 88.7514 256.899 Q86.9458 260.441 86.9458 267.57 Q86.9458 274.677 88.7514 278.242 Q90.5801 281.783 94.1912 281.783 Q97.8254 281.783 99.6309 278.242 Q101.46 274.677 101.46 267.57 Q101.46 260.441 99.6309 256.899 Q97.8254 253.334 94.1912 253.334 M94.1912 249.631 Q100.001 249.631 103.057 254.237 Q106.136 258.821 106.136 267.57 Q106.136 276.297 103.057 280.904 Q100.001 285.487 94.1912 285.487 Q88.381 285.487 85.3023 280.904 Q82.2468 276.297 82.2468 267.57 Q82.2468 258.821 85.3023 254.237 Q88.381 249.631 94.1912 249.631 Z" fill="#000000" fill-rule="nonzero" fill-opacity="1" /><path clip-path="url(#clip182)" d="M192.352 1154.3 L1101.29 874.271 L2010.22 1014.29 L2010.22 1200.97 L1101.29 1200.97 L192.352 1200.97  Z" fill="#ff0000" fill-rule="evenodd" fill-opacity="0.2"/>
<polyline clip-path="url(#clip182)" style="stroke:#ff0000; stroke-linecap:round; stroke-linejoin:round; stroke-width:4; stroke-opacity:1; fill:none" points="192.352,1154.3 1101.29,874.271 2010.22,1014.29 "/>
<path clip-path="url(#clip182)" d="M192.352 1060.96 L1101.29 500.896 L2010.22 780.927 L2010.22 1014.29 L1101.29 874.271 L192.352 1154.3  Z" fill="#008000" fill-rule="evenodd" fill-opacity="0.3"/>
<polyline clip-path="url(#clip182)" style="stroke:#008000; stroke-linecap:round; stroke-linejoin:round; stroke-width:4; stroke-opacity:1; fill:none" points="192.352,1060.96 1101.29,500.896 2010.22,780.927 "/>
<path clip-path="url(#clip182)" d="M192.352 920.943 L1101.29 80.8479 L2010.22 500.896 L2010.22 780.927 L1101.29 500.896 L192.352 1060.96  Z" fill="#0000ff" fill-rule="evenodd" fill-opacity="0.4"/>
<polyline clip-path="url(#clip182)" style="stroke:#0000ff; stroke-linecap:round; stroke-linejoin:round; stroke-width:4; stroke-opacity:1; fill:none" points="192.352,920.943 1101.29,80.8479 2010.22,500.896 "/>
<path clip-path="url(#clip180)" d="M1754.82 294.182 L2000.52 294.182 L2000.52 86.8219 L1754.82 86.8219  Z" fill="#ffffff" fill-rule="evenodd" fill-opacity="1"/>
<polyline clip-path="url(#clip180)" style="stroke:#000000; stroke-linecap:round; stroke-linejoin:round; stroke-width:4; stroke-opacity:1; fill:none" points="1754.82,294.182 2000.52,294.182 2000.52,86.8219 1754.82,86.8219 1754.82,294.182 "/>
<path clip-path="url(#clip180)" d="M1776.23 159.398 L1904.69 159.398 L1904.69 117.926 L1776.23 117.926 L1776.23 159.398  Z" fill="#ff0000" fill-rule="evenodd" fill-opacity="0.2"/>
<polyline clip-path="url(#clip180)" style="stroke:#ff0000; stroke-linecap:round; stroke-linejoin:round; stroke-width:4; stroke-opacity:1; fill:none" points="1776.23,117.926 1904.69,117.926 "/>
<path clip-path="url(#clip180)" d="M1939.95 158.349 Q1938.14 162.979 1936.43 164.391 Q1934.72 165.803 1931.85 165.803 L1928.44 165.803 L1928.44 162.238 L1930.94 162.238 Q1932.7 162.238 1933.67 161.405 Q1934.65 160.572 1935.83 157.47 L1936.59 155.525 L1926.11 130.016 L1930.62 130.016 L1938.72 150.294 L1946.82 130.016 L1951.34 130.016 L1939.95 158.349 Z" fill="#000000" fill-rule="nonzero" fill-opacity="1" /><path clip-path="url(#clip180)" d="M1958.63 152.007 L1966.27 152.007 L1966.27 125.641 L1957.96 127.308 L1957.96 123.049 L1966.22 121.382 L1970.9 121.382 L1970.9 152.007 L1978.54 152.007 L1978.54 155.942 L1958.63 155.942 L1958.63 152.007 Z" fill="#000000" fill-rule="nonzero" fill-opacity="1" /><path clip-path="url(#clip180)" d="M1776.23 211.238 L1904.69 211.238 L1904.69 169.766 L1776.23 169.766 L1776.23 211.238  Z" fill="#008000" fill-rule="evenodd" fill-opacity="0.3"/>
<polyline clip-path="url(#clip180)" style="stroke:#008000; stroke-linecap:round; stroke-linejoin:round; stroke-width:4; stroke-opacity:1; fill:none" points="1776.23,169.766 1904.69,169.766 "/>
<path clip-path="url(#clip180)" d="M1939.95 210.189 Q1938.14 214.819 1936.43 216.231 Q1934.72 217.643 1931.85 217.643 L1928.44 217.643 L1928.44 214.078 L1930.94 214.078 Q1932.7 214.078 1933.67 213.245 Q1934.65 212.412 1935.83 209.31 L1936.59 207.365 L1926.11 181.856 L1930.62 181.856 L1938.72 202.134 L1946.82 181.856 L1951.34 181.856 L1939.95 210.189 Z" fill="#000000" fill-rule="nonzero" fill-opacity="1" /><path clip-path="url(#clip180)" d="M1961.85 203.847 L1978.17 203.847 L1978.17 207.782 L1956.22 207.782 L1956.22 203.847 Q1958.88 201.092 1963.47 196.463 Q1968.07 191.81 1969.25 190.467 Q1971.5 187.944 1972.38 186.208 Q1973.28 184.449 1973.28 182.759 Q1973.28 180.004 1971.34 178.268 Q1969.42 176.532 1966.31 176.532 Q1964.11 176.532 1961.66 177.296 Q1959.23 178.06 1956.45 179.611 L1956.45 174.889 Q1959.28 173.754 1961.73 173.176 Q1964.18 172.597 1966.22 172.597 Q1971.59 172.597 1974.79 175.282 Q1977.98 177.967 1977.98 182.458 Q1977.98 184.588 1977.17 186.509 Q1976.38 188.407 1974.28 191 Q1973.7 191.671 1970.6 194.888 Q1967.49 198.083 1961.85 203.847 Z" fill="#000000" fill-rule="nonzero" fill-opacity="1" /><path clip-path="url(#clip180)" d="M1776.23 263.078 L1904.69 263.078 L1904.69 221.606 L1776.23 221.606 L1776.23 263.078  Z" fill="#0000ff" fill-rule="evenodd" fill-opacity="0.4"/>
<polyline clip-path="url(#clip180)" style="stroke:#0000ff; stroke-linecap:round; stroke-linejoin:round; stroke-width:4; stroke-opacity:1; fill:none" points="1776.23,221.606 1904.69,221.606 "/>
<path clip-path="url(#clip180)" d="M1939.95 262.029 Q1938.14 266.659 1936.43 268.071 Q1934.72 269.483 1931.85 269.483 L1928.44 269.483 L1928.44 265.918 L1930.94 265.918 Q1932.7 265.918 1933.67 265.085 Q1934.65 264.252 1935.83 261.15 L1936.59 259.205 L1926.11 233.696 L1930.62 233.696 L1938.72 253.974 L1946.82 233.696 L1951.34 233.696 L1939.95 262.029 Z" fill="#000000" fill-rule="nonzero" fill-opacity="1" /><path clip-path="url(#clip180)" d="M1971.98 240.988 Q1975.34 241.705 1977.22 243.974 Q1979.11 246.242 1979.11 249.576 Q1979.11 254.691 1975.6 257.492 Q1972.08 260.293 1965.6 260.293 Q1963.42 260.293 1961.1 259.853 Q1958.81 259.437 1956.36 258.58 L1956.36 254.066 Q1958.3 255.201 1960.62 255.779 Q1962.93 256.358 1965.46 256.358 Q1969.85 256.358 1972.15 254.622 Q1974.46 252.886 1974.46 249.576 Q1974.46 246.52 1972.31 244.807 Q1970.18 243.071 1966.36 243.071 L1962.33 243.071 L1962.33 239.229 L1966.54 239.229 Q1969.99 239.229 1971.82 237.863 Q1973.65 236.474 1973.65 233.881 Q1973.65 231.219 1971.75 229.807 Q1969.88 228.372 1966.36 228.372 Q1964.44 228.372 1962.24 228.789 Q1960.04 229.205 1957.4 230.085 L1957.4 225.918 Q1960.06 225.178 1962.38 224.807 Q1964.72 224.437 1966.78 224.437 Q1972.1 224.437 1975.2 226.867 Q1978.3 229.275 1978.3 233.395 Q1978.3 236.266 1976.66 238.256 Q1975.02 240.224 1971.98 240.988 Z" fill="#000000" fill-rule="nonzero" fill-opacity="1" /></svg>
