<?xml version="1.0" encoding="utf-8"?>
<svg xmlns="http://www.w3.org/2000/svg" xmlns:xlink="http://www.w3.org/1999/xlink" width="528" height="336" viewBox="0 0 2112 1344">
<defs>
  <clipPath id="clip230">
    <rect x="0" y="0" width="2112" height="1344"/>
  </clipPath>
</defs>
<path clip-path="url(#clip230)" d="M0 1344 L2112 1344 L2112 2.13163e-14 L0 2.13163e-14  Z" fill="#ffffff" fill-rule="evenodd" fill-opacity="1"/>
<defs>
  <clipPath id="clip231">
    <rect x="181" y="47" width="1884" height="1188"/>
  </clipPath>
</defs>
<path clip-path="url(#clip230)" d="M153.718 1234.58 L2064.76 1234.58 L2064.76 47.2441 L153.718 47.2441  Z" fill="#ffffff" fill-rule="evenodd" fill-opacity="1"/>
<defs>
  <clipPath id="clip232">
    <rect x="153" y="47" width="1912" height="1188"/>
  </clipPath>
</defs>
<polyline clip-path="url(#clip232)" style="stroke:#000000; stroke-linecap:round; stroke-linejoin:round; stroke-width:2; stroke-opacity:0.1; fill:none" points="207.804,1234.58 207.804,47.2441 "/>
<polyline clip-path="url(#clip232)" style="stroke:#000000; stroke-linecap:round; stroke-linejoin:round; stroke-width:2; stroke-opacity:0.1; fill:none" points="508.282,1234.58 508.282,47.2441 "/>
<polyline clip-path="url(#clip232)" style="stroke:#000000; stroke-linecap:round; stroke-linejoin:round; stroke-width:2; stroke-opacity:0.1; fill:none" points="808.759,1234.58 808.759,47.2441 "/>
<polyline clip-path="url(#clip232)" style="stroke:#000000; stroke-linecap:round; stroke-linejoin:round; stroke-width:2; stroke-opacity:0.1; fill:none" points="1109.24,1234.58 1109.24,47.2441 "/>
<polyline clip-path="url(#clip232)" style="stroke:#000000; stroke-linecap:round; stroke-linejoin:round; stroke-width:2; stroke-opacity:0.1; fill:none" points="1409.71,1234.58 1409.71,47.2441 "/>
<polyline clip-path="url(#clip232)" style="stroke:#000000; stroke-linecap:round; stroke-linejoin:round; stroke-width:2; stroke-opacity:0.1; fill:none" points="1710.19,1234.58 1710.19,47.2441 "/>
<polyline clip-path="url(#clip232)" style="stroke:#000000; stroke-linecap:round; stroke-linejoin:round; stroke-width:2; stroke-opacity:0.1; fill:none" points="2010.67,1234.58 2010.67,47.2441 "/>
<polyline clip-path="url(#clip232)" style="stroke:#000000; stroke-linecap:round; stroke-linejoin:round; stroke-width:2; stroke-opacity:0.1; fill:none" points="153.718,1200.97 2064.76,1200.97 "/>
<polyline clip-path="url(#clip232)" style="stroke:#000000; stroke-linecap:round; stroke-linejoin:round; stroke-width:2; stroke-opacity:0.1; fill:none" points="153.718,920.201 2064.76,920.201 "/>
<polyline clip-path="url(#clip232)" style="stroke:#000000; stroke-linecap:round; stroke-linejoin:round; stroke-width:2; stroke-opacity:0.1; fill:none" points="153.718,639.427 2064.76,639.427 "/>
<polyline clip-path="url(#clip232)" style="stroke:#000000; stroke-linecap:round; stroke-linejoin:round; stroke-width:2; stroke-opacity:0.1; fill:none" points="153.718,358.652 2064.76,358.652 "/>
<polyline clip-path="url(#clip232)" style="stroke:#000000; stroke-linecap:round; stroke-linejoin:round; stroke-width:2; stroke-opacity:0.1; fill:none" points="153.718,77.8781 2064.76,77.8781 "/>
<polyline clip-path="url(#clip230)" style="stroke:#000000; stroke-linecap:round; stroke-linejoin:round; stroke-width:4; stroke-opacity:1; fill:none" points="153.718,1234.58 2064.76,1234.58 "/>
<polyline clip-path="url(#clip230)" style="stroke:#000000; stroke-linecap:round; stroke-linejoin:round; stroke-width:4; stroke-opacity:1; fill:none" points="207.804,1234.58 207.804,1215.68 "/>
<polyline clip-path="url(#clip230)" style="stroke:#000000; stroke-linecap:round; stroke-linejoin:round; stroke-width:4; stroke-opacity:1; fill:none" points="508.282,1234.58 508.282,1215.68 "/>
<polyline clip-path="url(#clip230)" style="stroke:#000000; stroke-linecap:round; stroke-linejoin:round; stroke-width:4; stroke-opacity:1; fill:none" points="808.759,1234.58 808.759,1215.68 "/>
<polyline clip-path="url(#clip230)" style="stroke:#000000; stroke-linecap:round; stroke-linejoin:round; stroke-width:4; stroke-opacity:1; fill:none" points="1109.24,1234.58 1109.24,1215.68 "/>
<polyline clip-path="url(#clip230)" style="stroke:#000000; stroke-linecap:round; stroke-linejoin:round; stroke-width:4; stroke-opacity:1; fill:none" points="1409.71,1234.58 1409.71,1215.68 "/>
<polyline clip-path="url(#clip230)" style="stroke:#000000; stroke-linecap:round; stroke-linejoin:round; stroke-width:4; stroke-opacity:1; fill:none" points="1710.19,1234.58 1710.19,1215.68 "/>
<polyline clip-path="url(#clip230)" style="stroke:#000000; stroke-linecap:round; stroke-linejoin:round; stroke-width:4; stroke-opacity:1; fill:none" points="2010.67,1234.58 2010.67,1215.68 "/>
<path clip-path="url(#clip230)" d="M177.272 1277.85 L206.948 1277.85 L206.948 1281.78 L177.272 1281.78 L177.272 1277.85 Z" fill="#000000" fill-rule="nonzero" fill-opacity="1" /><path clip-path="url(#clip230)" d="M231.207 1276.04 Q234.563 1276.76 236.438 1279.03 Q238.336 1281.3 238.336 1284.63 Q238.336 1289.74 234.818 1292.55 Q231.299 1295.35 224.818 1295.35 Q222.642 1295.35 220.327 1294.91 Q218.036 1294.49 215.582 1293.63 L215.582 1289.12 Q217.526 1290.25 219.841 1290.83 Q222.156 1291.41 224.679 1291.41 Q229.077 1291.41 231.369 1289.67 Q233.684 1287.94 233.684 1284.63 Q233.684 1281.57 231.531 1279.86 Q229.401 1278.12 225.582 1278.12 L221.554 1278.12 L221.554 1274.28 L225.767 1274.28 Q229.216 1274.28 231.045 1272.92 Q232.874 1271.53 232.874 1268.93 Q232.874 1266.27 230.975 1264.86 Q229.1 1263.42 225.582 1263.42 Q223.661 1263.42 221.462 1263.84 Q219.262 1264.26 216.624 1265.14 L216.624 1260.97 Q219.286 1260.23 221.6 1259.86 Q223.938 1259.49 225.999 1259.49 Q231.323 1259.49 234.424 1261.92 Q237.526 1264.33 237.526 1268.45 Q237.526 1271.32 235.883 1273.31 Q234.239 1275.28 231.207 1276.04 Z" fill="#000000" fill-rule="nonzero" fill-opacity="1" /><path clip-path="url(#clip230)" d="M478.224 1277.85 L507.9 1277.85 L507.9 1281.78 L478.224 1281.78 L478.224 1277.85 Z" fill="#000000" fill-rule="nonzero" fill-opacity="1" /><path clip-path="url(#clip230)" d="M522.02 1290.74 L538.34 1290.74 L538.34 1294.67 L516.395 1294.67 L516.395 1290.74 Q519.057 1287.99 523.641 1283.36 Q528.247 1278.7 529.428 1277.36 Q531.673 1274.84 532.553 1273.1 Q533.455 1271.34 533.455 1269.65 Q533.455 1266.9 531.511 1265.16 Q529.59 1263.42 526.488 1263.42 Q524.289 1263.42 521.835 1264.19 Q519.404 1264.95 516.627 1266.5 L516.627 1261.78 Q519.451 1260.65 521.904 1260.07 Q524.358 1259.49 526.395 1259.49 Q531.765 1259.49 534.96 1262.17 Q538.154 1264.86 538.154 1269.35 Q538.154 1271.48 537.344 1273.4 Q536.557 1275.3 534.451 1277.89 Q533.872 1278.56 530.77 1281.78 Q527.668 1284.98 522.02 1290.74 Z" fill="#000000" fill-rule="nonzero" fill-opacity="1" /><path clip-path="url(#clip230)" d="M778.517 1277.85 L808.192 1277.85 L808.192 1281.78 L778.517 1281.78 L778.517 1277.85 Z" fill="#000000" fill-rule="nonzero" fill-opacity="1" /><path clip-path="url(#clip230)" d="M819.095 1290.74 L826.734 1290.74 L826.734 1264.37 L818.424 1266.04 L818.424 1261.78 L826.688 1260.11 L831.363 1260.11 L831.363 1290.74 L839.002 1290.74 L839.002 1294.67 L819.095 1294.67 L819.095 1290.74 Z" fill="#000000" fill-rule="nonzero" fill-opacity="1" /><path clip-path="url(#clip230)" d="M1109.24 1263.19 Q1105.63 1263.19 1103.8 1266.76 Q1101.99 1270.3 1101.99 1277.43 Q1101.99 1284.54 1103.8 1288.1 Q1105.63 1291.64 1109.24 1291.64 Q1112.87 1291.64 1114.68 1288.1 Q1116.51 1284.54 1116.51 1277.43 Q1116.51 1270.3 1114.68 1266.76 Q1112.87 1263.19 1109.24 1263.19 M1109.24 1259.49 Q1115.05 1259.49 1118.1 1264.1 Q1121.18 1268.68 1121.18 1277.43 Q1121.18 1286.16 1118.1 1290.76 Q1115.05 1295.35 1109.24 1295.35 Q1103.43 1295.35 1100.35 1290.76 Q1097.29 1286.16 1097.29 1277.43 Q1097.29 1268.68 1100.35 1264.1 Q1103.43 1259.49 1109.24 1259.49 Z" fill="#000000" fill-rule="nonzero" fill-opacity="1" /><path clip-path="url(#clip230)" d="M1400.1 1290.74 L1407.74 1290.74 L1407.74 1264.37 L1399.43 1266.04 L1399.43 1261.78 L1407.69 1260.11 L1412.37 1260.11 L1412.37 1290.74 L1420 1290.74 L1420 1294.67 L1400.1 1294.67 L1400.1 1290.74 Z" fill="#000000" fill-rule="nonzero" fill-opacity="1" /><path clip-path="url(#clip230)" d="M1704.85 1290.74 L1721.16 1290.74 L1721.16 1294.67 L1699.22 1294.67 L1699.22 1290.74 Q1701.88 1287.99 1706.47 1283.36 Q1711.07 1278.7 1712.25 1277.36 Q1714.5 1274.84 1715.38 1273.1 Q1716.28 1271.34 1716.28 1269.65 Q1716.28 1266.9 1714.34 1265.16 Q1712.41 1263.42 1709.31 1263.42 Q1707.11 1263.42 1704.66 1264.19 Q1702.23 1264.95 1699.45 1266.5 L1699.45 1261.78 Q1702.28 1260.65 1704.73 1260.07 Q1707.18 1259.49 1709.22 1259.49 Q1714.59 1259.49 1717.78 1262.17 Q1720.98 1264.86 1720.98 1269.35 Q1720.98 1271.48 1720.17 1273.4 Q1719.38 1275.3 1717.28 1277.89 Q1716.7 1278.56 1713.6 1281.78 Q1710.49 1284.98 1704.85 1290.74 Z" fill="#000000" fill-rule="nonzero" fill-opacity="1" /><path clip-path="url(#clip230)" d="M2014.92 1276.04 Q2018.27 1276.76 2020.15 1279.03 Q2022.05 1281.3 2022.05 1284.63 Q2022.05 1289.74 2018.53 1292.55 Q2015.01 1295.35 2008.53 1295.35 Q2006.35 1295.35 2004.04 1294.91 Q2001.75 1294.49 1999.29 1293.63 L1999.29 1289.12 Q2001.24 1290.25 2003.55 1290.83 Q2005.87 1291.41 2008.39 1291.41 Q2012.79 1291.41 2015.08 1289.67 Q2017.39 1287.94 2017.39 1284.63 Q2017.39 1281.57 2015.24 1279.86 Q2013.11 1278.12 2009.29 1278.12 L2005.26 1278.12 L2005.26 1274.28 L2009.48 1274.28 Q2012.93 1274.28 2014.76 1272.92 Q2016.58 1271.53 2016.58 1268.93 Q2016.58 1266.27 2014.69 1264.86 Q2012.81 1263.42 2009.29 1263.42 Q2007.37 1263.42 2005.17 1263.84 Q2002.97 1264.26 2000.33 1265.14 L2000.33 1260.97 Q2003 1260.23 2005.31 1259.86 Q2007.65 1259.49 2009.71 1259.49 Q2015.03 1259.49 2018.14 1261.92 Q2021.24 1264.33 2021.24 1268.45 Q2021.24 1271.32 2019.59 1273.31 Q2017.95 1275.28 2014.92 1276.04 Z" fill="#000000" fill-rule="nonzero" fill-opacity="1" /><polyline clip-path="url(#clip230)" style="stroke:#000000; stroke-linecap:round; stroke-linejoin:round; stroke-width:4; stroke-opacity:1; fill:none" points="153.718,1234.58 153.718,47.2441 "/>
<polyline clip-path="url(#clip230)" style="stroke:#000000; stroke-linecap:round; stroke-linejoin:round; stroke-width:4; stroke-opacity:1; fill:none" points="153.718,1200.97 172.616,1200.97 "/>
<polyline clip-path="url(#clip230)" style="stroke:#000000; stroke-linecap:round; stroke-linejoin:round; stroke-width:4; stroke-opacity:1; fill:none" points="153.718,920.201 172.616,920.201 "/>
<polyline clip-path="url(#clip230)" style="stroke:#000000; stroke-linecap:round; stroke-linejoin:round; stroke-width:4; stroke-opacity:1; fill:none" points="153.718,639.427 172.616,639.427 "/>
<polyline clip-path="url(#clip230)" style="stroke:#000000; stroke-linecap:round; stroke-linejoin:round; stroke-width:4; stroke-opacity:1; fill:none" points="153.718,358.652 172.616,358.652 "/>
<polyline clip-path="url(#clip230)" style="stroke:#000000; stroke-linecap:round; stroke-linejoin:round; stroke-width:4; stroke-opacity:1; fill:none" points="153.718,77.8781 172.616,77.8781 "/>
<path clip-path="url(#clip230)" d="M64.8626 1186.77 Q61.2515 1186.77 59.4228 1190.34 Q57.6173 1193.88 57.6173 1201.01 Q57.6173 1208.12 59.4228 1211.68 Q61.2515 1215.22 64.8626 1215.22 Q68.4969 1215.22 70.3024 1211.68 Q72.1311 1208.12 72.1311 1201.01 Q72.1311 1193.88 70.3024 1190.34 Q68.4969 1186.77 64.8626 1186.77 M64.8626 1183.07 Q70.6728 1183.07 73.7283 1187.68 Q76.807 1192.26 76.807 1201.01 Q76.807 1209.74 73.7283 1214.34 Q70.6728 1218.93 64.8626 1218.93 Q59.0525 1218.93 55.9738 1214.34 Q52.9182 1209.74 52.9182 1201.01 Q52.9182 1192.26 55.9738 1187.68 Q59.0525 1183.07 64.8626 1183.07 Z" fill="#000000" fill-rule="nonzero" fill-opacity="1" /><path clip-path="url(#clip230)" d="M85.0245 1212.38 L89.9088 1212.38 L89.9088 1218.25 L85.0245 1218.25 L85.0245 1212.38 Z" fill="#000000" fill-rule="nonzero" fill-opacity="1" /><path clip-path="url(#clip230)" d="M110.094 1186.77 Q106.483 1186.77 104.654 1190.34 Q102.849 1193.88 102.849 1201.01 Q102.849 1208.12 104.654 1211.68 Q106.483 1215.22 110.094 1215.22 Q113.728 1215.22 115.534 1211.68 Q117.362 1208.12 117.362 1201.01 Q117.362 1193.88 115.534 1190.34 Q113.728 1186.77 110.094 1186.77 M110.094 1183.07 Q115.904 1183.07 118.96 1187.68 Q122.038 1192.26 122.038 1201.01 Q122.038 1209.74 118.96 1214.34 Q115.904 1218.93 110.094 1218.93 Q104.284 1218.93 101.205 1214.34 Q98.1495 1209.74 98.1495 1201.01 Q98.1495 1192.26 101.205 1187.68 Q104.284 1183.07 110.094 1183.07 Z" fill="#000000" fill-rule="nonzero" fill-opacity="1" /><path clip-path="url(#clip230)" d="M66.0895 905.999 Q62.4784 905.999 60.6497 909.564 Q58.8441 913.106 58.8441 920.235 Q58.8441 927.342 60.6497 930.907 Q62.4784 934.448 66.0895 934.448 Q69.7237 934.448 71.5292 930.907 Q73.3579 927.342 73.3579 920.235 Q73.3579 913.106 71.5292 909.564 Q69.7237 905.999 66.0895 905.999 M66.0895 902.296 Q71.8996 902.296 74.9552 906.902 Q78.0338 911.486 78.0338 920.235 Q78.0338 928.962 74.9552 933.569 Q71.8996 938.152 66.0895 938.152 Q60.2793 938.152 57.2006 933.569 Q54.1451 928.962 54.1451 920.235 Q54.1451 911.486 57.2006 906.902 Q60.2793 902.296 66.0895 902.296 Z" fill="#000000" fill-rule="nonzero" fill-opacity="1" /><path clip-path="url(#clip230)" d="M86.2514 931.601 L91.1356 931.601 L91.1356 937.481 L86.2514 937.481 L86.2514 931.601 Z" fill="#000000" fill-rule="nonzero" fill-opacity="1" /><path clip-path="url(#clip230)" d="M102.131 933.546 L109.77 933.546 L109.77 907.18 L101.46 908.847 L101.46 904.587 L109.723 902.921 L114.399 902.921 L114.399 933.546 L122.038 933.546 L122.038 937.481 L102.131 937.481 L102.131 933.546 Z" fill="#000000" fill-rule="nonzero" fill-opacity="1" /><path clip-path="url(#clip230)" d="M66.4598 625.225 Q62.8487 625.225 61.02 628.79 Q59.2145 632.332 59.2145 639.461 Q59.2145 646.568 61.02 650.132 Q62.8487 653.674 66.4598 653.674 Q70.0941 653.674 71.8996 650.132 Q73.7283 646.568 73.7283 639.461 Q73.7283 632.332 71.8996 628.79 Q70.0941 625.225 66.4598 625.225 M66.4598 621.522 Q72.27 621.522 75.3255 626.128 Q78.4042 630.711 78.4042 639.461 Q78.4042 648.188 75.3255 652.795 Q72.27 657.378 66.4598 657.378 Q60.6497 657.378 57.571 652.795 Q54.5154 648.188 54.5154 639.461 Q54.5154 630.711 57.571 626.128 Q60.6497 621.522 66.4598 621.522 Z" fill="#000000" fill-rule="nonzero" fill-opacity="1" /><path clip-path="url(#clip230)" d="M86.6218 650.827 L91.506 650.827 L91.506 656.707 L86.6218 656.707 L86.6218 650.827 Z" fill="#000000" fill-rule="nonzero" fill-opacity="1" /><path clip-path="url(#clip230)" d="M105.719 652.771 L122.038 652.771 L122.038 656.707 L100.094 656.707 L100.094 652.771 Q102.756 650.017 107.339 645.387 Q111.946 640.734 113.126 639.392 Q115.372 636.869 116.251 635.133 Q117.154 633.373 117.154 631.684 Q117.154 628.929 115.21 627.193 Q113.288 625.457 110.186 625.457 Q107.987 625.457 105.534 626.221 Q103.103 626.984 100.325 628.535 L100.325 623.813 Q103.149 622.679 105.603 622.1 Q108.057 621.522 110.094 621.522 Q115.464 621.522 118.659 624.207 Q121.853 626.892 121.853 631.383 Q121.853 633.512 121.043 635.434 Q120.256 637.332 118.149 639.924 Q117.571 640.596 114.469 643.813 Q111.367 647.008 105.719 652.771 Z" fill="#000000" fill-rule="nonzero" fill-opacity="1" /><path clip-path="url(#clip230)" d="M65.5108 344.451 Q61.8997 344.451 60.071 348.016 Q58.2654 351.557 58.2654 358.687 Q58.2654 365.793 60.071 369.358 Q61.8997 372.9 65.5108 372.9 Q69.145 372.9 70.9505 369.358 Q72.7792 365.793 72.7792 358.687 Q72.7792 351.557 70.9505 348.016 Q69.145 344.451 65.5108 344.451 M65.5108 340.747 Q71.3209 340.747 74.3765 345.354 Q77.4551 349.937 77.4551 358.687 Q77.4551 367.414 74.3765 372.02 Q71.3209 376.604 65.5108 376.604 Q59.7006 376.604 56.6219 372.02 Q53.5664 367.414 53.5664 358.687 Q53.5664 349.937 56.6219 345.354 Q59.7006 340.747 65.5108 340.747 Z" fill="#000000" fill-rule="nonzero" fill-opacity="1" /><path clip-path="url(#clip230)" d="M85.6727 370.053 L90.5569 370.053 L90.5569 375.932 L85.6727 375.932 L85.6727 370.053 Z" fill="#000000" fill-rule="nonzero" fill-opacity="1" /><path clip-path="url(#clip230)" d="M114.909 357.298 Q118.265 358.016 120.14 360.284 Q122.038 362.553 122.038 365.886 Q122.038 371.002 118.52 373.803 Q115.001 376.604 108.52 376.604 Q106.344 376.604 104.029 376.164 Q101.737 375.747 99.2837 374.891 L99.2837 370.377 Q101.228 371.511 103.543 372.09 Q105.858 372.668 108.381 372.668 Q112.779 372.668 115.071 370.932 Q117.385 369.196 117.385 365.886 Q117.385 362.831 115.233 361.118 Q113.103 359.381 109.284 359.381 L105.256 359.381 L105.256 355.539 L109.469 355.539 Q112.918 355.539 114.747 354.173 Q116.575 352.784 116.575 350.192 Q116.575 347.53 114.677 346.118 Q112.802 344.682 109.284 344.682 Q107.362 344.682 105.163 345.099 Q102.964 345.516 100.325 346.395 L100.325 342.229 Q102.987 341.488 105.302 341.118 Q107.64 340.747 109.7 340.747 Q115.024 340.747 118.126 343.178 Q121.228 345.585 121.228 349.706 Q121.228 352.576 119.585 354.567 Q117.941 356.534 114.909 357.298 Z" fill="#000000" fill-rule="nonzero" fill-opacity="1" /><path clip-path="url(#clip230)" d="M64.3765 63.6768 Q60.7654 63.6768 58.9367 67.2416 Q57.1312 70.7832 57.1312 77.9128 Q57.1312 85.0193 58.9367 88.5841 Q60.7654 92.1257 64.3765 92.1257 Q68.0107 92.1257 69.8163 88.5841 Q71.645 85.0193 71.645 77.9128 Q71.645 70.7832 69.8163 67.2416 Q68.0107 63.6768 64.3765 63.6768 M64.3765 59.9731 Q70.1867 59.9731 73.2422 64.5796 Q76.3209 69.1629 76.3209 77.9128 Q76.3209 86.6396 73.2422 91.2461 Q70.1867 95.8294 64.3765 95.8294 Q58.5664 95.8294 55.4877 91.2461 Q52.4321 86.6396 52.4321 77.9128 Q52.4321 69.1629 55.4877 64.5796 Q58.5664 59.9731 64.3765 59.9731 Z" fill="#000000" fill-rule="nonzero" fill-opacity="1" /><path clip-path="url(#clip230)" d="M84.5384 89.2785 L89.4227 89.2785 L89.4227 95.1581 L84.5384 95.1581 L84.5384 89.2785 Z" fill="#000000" fill-rule="nonzero" fill-opacity="1" /><path clip-path="url(#clip230)" d="M112.455 64.6722 L100.649 83.1211 L112.455 83.1211 L112.455 64.6722 M111.228 60.5981 L117.108 60.5981 L117.108 83.1211 L122.038 83.1211 L122.038 87.01 L117.108 87.01 L117.108 95.1581 L112.455 95.1581 L112.455 87.01 L96.8532 87.01 L96.8532 82.4961 L111.228 60.5981 Z" fill="#000000" fill-rule="nonzero" fill-opacity="1" /><path clip-path="url(#clip232)" d="M207.804 1188.53 L210.809 1188.15 L213.814 1187.76 L216.819 1187.37 L219.823 1186.96 L222.828 1186.54 L225.833 1186.1 L228.838 1185.66 L231.842 1185.21 L234.847 1184.74 L237.852 1184.26 L240.857 1183.77 L243.862 1183.27 L246.866 1182.75 L249.871 1182.22 L252.876 1181.68 L255.881 1181.12 L258.885 1180.55 L261.89 1179.96 L264.895 1179.37 L267.9 1178.75 L270.905 1178.12 L273.909 1177.48 L276.914 1176.81 L279.919 1176.14 L282.924 1175.44 L285.928 1174.73 L288.933 1174 L291.938 1173.26 L294.943 1172.5 L297.947 1171.72 L300.952 1170.92 L303.957 1170.1 L306.962 1169.26 L309.967 1168.4 L312.971 1167.53 L315.976 1166.63 L318.981 1165.72 L321.986 1164.78 L324.99 1163.82 L327.995 1162.84 L331 1161.83 L334.005 1160.81 L337.01 1159.76 L340.014 1158.69 L343.019 1157.6 L346.024 1156.48 L349.029 1155.34 L352.033 1154.17 L355.038 1152.98 L358.043 1151.76 L361.048 1150.52 L364.053 1149.25 L367.057 1147.95 L370.062 1146.63 L373.067 1145.28 L376.072 1143.9 L379.076 1142.49 L382.081 1141.06 L385.086 1139.59 L388.091 1138.1 L391.096 1136.57 L394.1 1135.02 L397.105 1133.43 L400.11 1131.82 L403.115 1130.17 L406.119 1128.49 L409.124 1126.78 L412.129 1125.03 L415.134 1123.25 L418.139 1121.44 L421.143 1119.59 L424.148 1117.71 L427.153 1115.8 L430.158 1113.85 L433.162 1111.86 L436.167 1109.83 L439.172 1107.78 L442.177 1105.68 L445.182 1103.54 L448.186 1101.37 L451.191 1099.16 L454.196 1096.91 L457.201 1094.62 L460.205 1092.3 L463.21 1089.93 L466.215 1087.52 L469.22 1085.07 L472.225 1082.58 L475.229 1080.05 L478.234 1077.48 L481.239 1074.87 L484.244 1072.21 L487.248 1069.51 L490.253 1066.77 L493.258 1063.98 L496.263 1061.15 L499.267 1058.27 L502.272 1055.36 L505.277 1052.39 L508.282 1049.38 L511.287 1046.33 L514.291 1043.23 L517.296 1040.08 L520.301 1036.89 L523.306 1033.65 L526.31 1030.36 L529.315 1027.03 L532.32 1023.65 L535.325 1020.22 L538.33 1016.74 L541.334 1013.22 L544.339 1009.65 L547.344 1006.02 L550.349 1002.35 L553.353 998.635 L556.358 994.868 L559.363 991.051 L562.368 987.184 L565.373 983.269 L568.377 979.303 L571.382 975.288 L574.387 971.224 L577.392 967.109 L580.396 962.945 L583.401 958.731 L586.406 954.466 L589.411 950.152 L592.416 945.788 L595.42 941.374 L598.425 936.909 L601.43 932.395 L604.435 927.831 L607.439 923.218 L610.444 918.554 L613.449 913.841 L616.454 909.079 L619.459 904.267 L622.463 899.406 L625.468 894.497 L628.473 889.538 L631.478 884.531 L634.482 879.475 L637.487 874.371 L640.492 869.22 L643.497 864.021 L646.502 858.774 L649.506 853.481 L652.511 848.141 L655.516 842.755 L658.521 837.323 L661.525 831.846 L664.53 826.323 L667.535 820.756 L670.54 815.145 L673.545 809.49 L676.549 803.792 L679.554 798.051 L682.559 792.268 L685.564 786.444 L688.568 780.579 L691.573 774.673 L694.578 768.728 L697.583 762.743 L700.588 756.721 L703.592 750.66 L706.597 744.562 L709.602 738.428 L712.607 732.259 L715.611 726.054 L718.616 719.816 L721.621 713.545 L724.626 707.241 L727.63 700.905 L730.635 694.539 L733.64 688.143 L736.645 681.719 L739.65 675.266 L742.654 668.787 L745.659 662.281 L748.664 655.751 L751.669 649.196 L754.673 642.619 L757.678 636.019 L760.683 629.399 L763.688 622.759 L766.693 616.1 L769.697 609.424 L772.702 602.732 L775.707 596.024 L778.712 589.302 L781.716 582.568 L784.721 575.821 L787.726 569.065 L790.731 562.299 L793.736 555.525 L796.74 548.745 L799.745 541.959 L802.75 535.17 L805.755 528.377 L808.759 521.584 L811.764 514.79 L814.769 507.998 L817.774 501.208 L820.779 494.423 L823.783 487.643 L826.788 480.87 L829.793 474.105 L832.798 467.35 L835.802 460.607 L838.807 453.876 L841.812 447.16 L844.817 440.459 L847.822 433.775 L850.826 427.11 L853.831 420.465 L856.836 413.842 L859.841 407.242 L862.845 400.666 L865.85 394.117 L868.855 387.596 L871.86 381.104 L874.865 374.642 L877.869 368.213 L880.874 361.818 L883.879 355.459 L886.884 349.136 L889.888 342.852 L892.893 336.608 L895.898 330.406 L898.903 324.246 L901.908 318.132 L904.912 312.064 L907.917 306.043 L910.922 300.072 L913.927 294.152 L916.931 288.284 L919.936 282.47 L922.941 276.711 L925.946 271.01 L928.95 265.366 L931.955 259.783 L934.96 254.261 L937.965 248.801 L940.97 243.406 L943.974 238.077 L946.979 232.815 L949.984 227.621 L952.989 222.498 L955.993 217.446 L958.998 212.466 L962.003 207.561 L965.008 202.731 L968.013 197.978 L971.017 193.304 L974.022 188.708 L977.027 184.194 L980.032 179.761 L983.036 175.412 L986.041 171.147 L989.046 166.967 L992.051 162.875 L995.056 158.871 L998.06 154.955 L1001.07 151.13 L1004.07 147.397 L1007.07 143.756 L1010.08 140.208 L1013.08 136.755 L1016.09 133.397 L1019.09 130.136 L1022.1 126.973 L1025.1 123.907 L1028.11 120.941 L1031.11 118.076 L1034.12 115.311 L1037.12 112.647 L1040.13 110.087 L1043.13 107.63 L1046.14 105.276 L1049.14 103.028 L1052.15 100.885 L1055.15 98.8478 L1058.16 96.9174 L1061.16 95.0942 L1064.17 93.3787 L1067.17 91.7715 L1070.17 90.2731 L1073.18 88.8839 L1076.18 87.6042 L1079.19 86.4346 L1082.19 85.3752 L1085.2 84.4266 L1088.2 83.5889 L1091.21 82.8623 L1094.21 82.2472 L1097.22 81.7436 L1100.22 81.3519 L1103.23 81.0719 L1106.23 80.9039 L1109.24 80.8479 L1112.24 80.9039 L1115.25 81.0719 L1118.25 81.3519 L1121.26 81.7436 L1124.26 82.2472 L1127.27 82.8623 L1130.27 83.5889 L1133.28 84.4266 L1136.28 85.3752 L1139.28 86.4346 L1142.29 87.6042 L1145.29 88.8839 L1148.3 90.2731 L1151.3 91.7715 L1154.31 93.3787 L1157.31 95.0942 L1160.32 96.9174 L1163.32 98.8478 L1166.33 100.885 L1169.33 103.028 L1172.34 105.276 L1175.34 107.63 L1178.35 110.087 L1181.35 112.647 L1184.36 115.311 L1187.36 118.076 L1190.37 120.941 L1193.37 123.907 L1196.38 126.973 L1199.38 130.136 L1202.39 133.397 L1205.39 136.755 L1208.39 140.208 L1211.4 143.756 L1214.4 147.397 L1217.41 151.13 L1220.41 154.955 L1223.42 158.871 L1226.42 162.875 L1229.43 166.967 L1232.43 171.147 L1235.44 175.412 L1238.44 179.761 L1241.45 184.194 L1244.45 188.708 L1247.46 193.304 L1250.46 197.978 L1253.47 202.731 L1256.47 207.561 L1259.48 212.466 L1262.48 217.446 L1265.49 222.498 L1268.49 227.621 L1271.49 232.815 L1274.5 238.077 L1277.5 243.406 L1280.51 248.801 L1283.51 254.261 L1286.52 259.783 L1289.52 265.366 L1292.53 271.01 L1295.53 276.711 L1298.54 282.47 L1301.54 288.284 L1304.55 294.152 L1307.55 300.072 L1310.56 306.043 L1313.56 312.064 L1316.57 318.132 L1319.57 324.246 L1322.58 330.406 L1325.58 336.608 L1328.59 342.852 L1331.59 349.136 L1334.6 355.459 L1337.6 361.818 L1340.6 368.213 L1343.61 374.642 L1346.61 381.104 L1349.62 387.596 L1352.62 394.117 L1355.63 400.666 L1358.63 407.242 L1361.64 413.842 L1364.64 420.465 L1367.65 427.11 L1370.65 433.775 L1373.66 440.459 L1376.66 447.16 L1379.67 453.876 L1382.67 460.607 L1385.68 467.35 L1388.68 474.105 L1391.69 480.87 L1394.69 487.643 L1397.7 494.423 L1400.7 501.208 L1403.71 507.998 L1406.71 514.79 L1409.71 521.584 L1412.72 528.377 L1415.72 535.17 L1418.73 541.959 L1421.73 548.745 L1424.74 555.525 L1427.74 562.299 L1430.75 569.065 L1433.75 575.821 L1436.76 582.568 L1439.76 589.302 L1442.77 596.024 L1445.77 602.732 L1448.78 609.424 L1451.78 616.1 L1454.79 622.759 L1457.79 629.399 L1460.8 636.019 L1463.8 642.619 L1466.81 649.196 L1469.81 655.751 L1472.81 662.281 L1475.82 668.787 L1478.82 675.266 L1481.83 681.719 L1484.83 688.143 L1487.84 694.539 L1490.84 700.905 L1493.85 707.241 L1496.85 713.545 L1499.86 719.816 L1502.86 726.054 L1505.87 732.259 L1508.87 738.428 L1511.88 744.562 L1514.88 750.66 L1517.89 756.721 L1520.89 762.743 L1523.9 768.728 L1526.9 774.673 L1529.91 780.579 L1532.91 786.444 L1535.92 792.268 L1538.92 798.051 L1541.92 803.792 L1544.93 809.49 L1547.93 815.145 L1550.94 820.756 L1553.94 826.323 L1556.95 831.846 L1559.95 837.323 L1562.96 842.755 L1565.96 848.141 L1568.97 853.481 L1571.97 858.774 L1574.98 864.021 L1577.98 869.22 L1580.99 874.371 L1583.99 879.475 L1587 884.531 L1590 889.538 L1593.01 894.497 L1596.01 899.406 L1599.02 904.267 L1602.02 909.079 L1605.03 913.841 L1608.03 918.554 L1611.03 923.218 L1614.04 927.831 L1617.04 932.395 L1620.05 936.909 L1623.05 941.374 L1626.06 945.788 L1629.06 950.152 L1632.07 954.466 L1635.07 958.731 L1638.08 962.945 L1641.08 967.109 L1644.09 971.224 L1647.09 975.288 L1650.1 979.303 L1653.1 983.269 L1656.11 987.184 L1659.11 991.051 L1662.12 994.868 L1665.12 998.635 L1668.13 1002.35 L1671.13 1006.02 L1674.13 1009.65 L1677.14 1013.22 L1680.14 1016.74 L1683.15 1020.22 L1686.15 1023.65 L1689.16 1027.03 L1692.16 1030.36 L1695.17 1033.65 L1698.17 1036.89 L1701.18 1040.08 L1704.18 1043.23 L1707.19 1046.33 L1710.19 1049.38 L1713.2 1052.39 L1716.2 1055.36 L1719.21 1058.27 L1722.21 1061.15 L1725.22 1063.98 L1728.22 1066.77 L1731.23 1069.51 L1734.23 1072.21 L1737.24 1074.87 L1740.24 1077.48 L1743.24 1080.05 L1746.25 1082.58 L1749.25 1085.07 L1752.26 1087.52 L1755.26 1089.93 L1758.27 1092.3 L1761.27 1094.62 L1764.28 1096.91 L1767.28 1099.16 L1770.29 1101.37 L1773.29 1103.54 L1776.3 1105.68 L1779.3 1107.78 L1782.31 1109.83 L1785.31 1111.86 L1788.32 1113.85 L1791.32 1115.8 L1794.33 1117.71 L1797.33 1119.59 L1800.34 1121.44 L1803.34 1123.25 L1806.35 1125.03 L1809.35 1126.78 L1812.35 1128.49 L1815.36 1130.17 L1818.36 1131.82 L1821.37 1133.43 L1824.37 1135.02 L1827.38 1136.57 L1830.38 1138.1 L1833.39 1139.59 L1836.39 1141.06 L1839.4 1142.49 L1842.4 1143.9 L1845.41 1145.28 L1848.41 1146.63 L1851.42 1147.95 L1854.42 1149.25 L1857.43 1150.52 L1860.43 1151.76 L1863.44 1152.98 L1866.44 1154.17 L1869.45 1155.34 L1872.45 1156.48 L1875.46 1157.6 L1878.46 1158.69 L1881.46 1159.76 L1884.47 1160.81 L1887.47 1161.83 L1890.48 1162.84 L1893.48 1163.82 L1896.49 1164.78 L1899.49 1165.72 L1902.5 1166.63 L1905.5 1167.53 L1908.51 1168.4 L1911.51 1169.26 L1914.52 1170.1 L1917.52 1170.92 L1920.53 1171.72 L1923.53 1172.5 L1926.54 1173.26 L1929.54 1174 L1932.55 1174.73 L1935.55 1175.44 L1938.56 1176.14 L1941.56 1176.81 L1944.56 1177.48 L1947.57 1178.12 L1950.57 1178.75 L1953.58 1179.37 L1956.58 1179.96 L1959.59 1180.55 L1962.59 1181.12 L1965.6 1181.68 L1968.6 1182.22 L1971.61 1182.75 L1974.61 1183.27 L1977.62 1183.77 L1980.62 1184.26 L1983.63 1184.74 L1986.63 1185.21 L1989.64 1185.66 L1992.64 1186.1 L1995.65 1186.54 L1998.65 1186.96 L2001.66 1187.37 L2004.66 1187.76 L2007.67 1188.15 L2010.67 1188.53 L2010.67 1200.97 L2007.67 1200.97 L2004.66 1200.97 L2001.66 1200.97 L1998.65 1200.97 L1995.65 1200.97 L1992.64 1200.97 L1989.64 1200.97 L1986.63 1200.97 L1983.63 1200.97 L1980.62 1200.97 L1977.62 1200.97 L1974.61 1200.97 L1971.61 1200.97 L1968.6 1200.97 L1965.6 1200.97 L1962.59 1200.97 L1959.59 1200.97 L1956.58 1200.97 L1953.58 1200.97 L1950.57 1200.97 L1947.57 1200.97 L1944.56 1200.97 L1941.56 1200.97 L1938.56 1200.97 L1935.55 1200.97 L1932.55 1200.97 L1929.54 1200.97 L1926.54 1200.97 L1923.53 1200.97 L1920.53 1200.97 L1917.52 1200.97 L1914.52 1200.97 L1911.51 1200.97 L1908.51 1200.97 L1905.5 1200.97 L1902.5 1200.97 L1899.49 1200.97 L1896.49 1200.97 L1893.48 1200.97 L1890.48 1200.97 L1887.47 1200.97 L1884.47 1200.97 L1881.46 1200.97 L1878.46 1200.97 L1875.46 1200.97 L1872.45 1200.97 L1869.45 1200.97 L1866.44 1200.97 L1863.44 1200.97 L1860.43 1200.97 L1857.43 1200.97 L1854.42 1200.97 L1851.42 1200.97 L1848.41 1200.97 L1845.41 1200.97 L1842.4 1200.97 L1839.4 1200.97 L1836.39 1200.97 L1833.39 1200.97 L1830.38 1200.97 L1827.38 1200.97 L1824.37 1200.97 L1821.37 1200.97 L1818.36 1200.97 L1815.36 1200.97 L1812.35 1200.97 L1809.35 1200.97 L1806.35 1200.97 L1803.34 1200.97 L1800.34 1200.97 L1797.33 1200.97 L1794.33 1200.97 L1791.32 1200.97 L1788.32 1200.97 L1785.31 1200.97 L1782.31 1200.97 L1779.3 1200.97 L1776.3 1200.97 L1773.29 1200.97 L1770.29 1200.97 L1767.28 1200.97 L1764.28 1200.97 L1761.27 1200.97 L1758.27 1200.97 L1755.26 1200.97 L1752.26 1200.97 L1749.25 1200.97 L1746.25 1200.97 L1743.24 1200.97 L1740.24 1200.97 L1737.24 1200.97 L1734.23 1200.97 L1731.23 1200.97 L1728.22 1200.97 L1725.22 1200.97 L1722.21 1200.97 L1719.21 1200.97 L1716.2 1200.97 L1713.2 1200.97 L1710.19 1200.97 L1707.19 1200.97 L1704.18 1200.97 L1701.18 1200.97 L1698.17 1200.97 L1695.17 1200.97 L1692.16 1200.97 L1689.16 1200.97 L1686.15 1200.97 L1683.15 1200.97 L1680.14 1200.97 L1677.14 1200.97 L1674.13 1200.97 L1671.13 1200.97 L1668.13 1200.97 L1665.12 1200.97 L1662.12 1200.97 L1659.11 1200.97 L1656.11 1200.97 L1653.1 1200.97 L1650.1 1200.97 L1647.09 1200.97 L1644.09 1200.97 L1641.08 1200.97 L1638.08 1200.97 L1635.07 1200.97 L1632.07 1200.97 L1629.06 1200.97 L1626.06 1200.97 L1623.05 1200.97 L1620.05 1200.97 L1617.04 1200.97 L1614.04 1200.97 L1611.03 1200.97 L1608.03 1200.97 L1605.03 1200.97 L1602.02 1200.97 L1599.02 1200.97 L1596.01 1200.97 L1593.01 1200.97 L1590 1200.97 L1587 1200.97 L1583.99 1200.97 L1580.99 1200.97 L1577.98 1200.97 L1574.98 1200.97 L1571.97 1200.97 L1568.97 1200.97 L1565.96 1200.97 L1562.96 1200.97 L1559.95 1200.97 L1556.95 1200.97 L1553.94 1200.97 L1550.94 1200.97 L1547.93 1200.97 L1544.93 1200.97 L1541.92 1200.97 L1538.92 1200.97 L1535.92 1200.97 L1532.91 1200.97 L1529.91 1200.97 L1526.9 1200.97 L1523.9 1200.97 L1520.89 1200.97 L1517.89 1200.97 L1514.88 1200.97 L1511.88 1200.97 L1508.87 1200.97 L1505.87 1200.97 L1502.86 1200.97 L1499.86 1200.97 L1496.85 1200.97 L1493.85 1200.97 L1490.84 1200.97 L1487.84 1200.97 L1484.83 1200.97 L1481.83 1200.97 L1478.82 1200.97 L1475.82 1200.97 L1472.81 1200.97 L1469.81 1200.97 L1466.81 1200.97 L1463.8 1200.97 L1460.8 1200.97 L1457.79 1200.97 L1454.79 1200.97 L1451.78 1200.97 L1448.78 1200.97 L1445.77 1200.97 L1442.77 1200.97 L1439.76 1200.97 L1436.76 1200.97 L1433.75 1200.97 L1430.75 1200.97 L1427.74 1200.97 L1424.74 1200.97 L1421.73 1200.97 L1418.73 1200.97 L1415.72 1200.97 L1412.72 1200.97 L1409.71 1200.97 L1406.71 1200.97 L1403.71 1200.97 L1400.7 1200.97 L1397.7 1200.97 L1394.69 1200.97 L1391.69 1200.97 L1388.68 1200.97 L1385.68 1200.97 L1382.67 1200.97 L1379.67 1200.97 L1376.66 1200.97 L1373.66 1200.97 L1370.65 1200.97 L1367.65 1200.97 L1364.64 1200.97 L1361.64 1200.97 L1358.63 1200.97 L1355.63 1200.97 L1352.62 1200.97 L1349.62 1200.97 L1346.61 1200.97 L1343.61 1200.97 L1340.6 1200.97 L1337.6 1200.97 L1334.6 1200.97 L1331.59 1200.97 L1328.59 1200.97 L1325.58 1200.97 L1322.58 1200.97 L1319.57 1200.97 L1316.57 1200.97 L1313.56 1200.97 L1310.56 1200.97 L1307.55 1200.97 L1304.55 1200.97 L1301.54 1200.97 L1298.54 1200.97 L1295.53 1200.97 L1292.53 1200.97 L1289.52 1200.97 L1286.52 1200.97 L1283.51 1200.97 L1280.51 1200.97 L1277.5 1200.97 L1274.5 1200.97 L1271.49 1200.97 L1268.49 1200.97 L1265.49 1200.97 L1262.48 1200.97 L1259.48 1200.97 L1256.47 1200.97 L1253.47 1200.97 L1250.46 1200.97 L1247.46 1200.97 L1244.45 1200.97 L1241.45 1200.97 L1238.44 1200.97 L1235.44 1200.97 L1232.43 1200.97 L1229.43 1200.97 L1226.42 1200.97 L1223.42 1200.97 L1220.41 1200.97 L1217.41 1200.97 L1214.4 1200.97 L1211.4 1200.97 L1208.39 1200.97 L1205.39 1200.97 L1202.39 1200.97 L1199.38 1200.97 L1196.38 1200.97 L1193.37 1200.97 L1190.37 1200.97 L1187.36 1200.97 L1184.36 1200.97 L1181.35 1200.97 L1178.35 1200.97 L1175.34 1200.97 L1172.34 1200.97 L1169.33 1200.97 L1166.33 1200.97 L1163.32 1200.97 L1160.32 1200.97 L1157.31 1200.97 L1154.31 1200.97 L1151.3 1200.97 L1148.3 1200.97 L1145.29 1200.97 L1142.29 1200.97 L1139.28 1200.97 L1136.28 1200.97 L1133.28 1200.97 L1130.27 1200.97 L1127.27 1200.97 L1124.26 1200.97 L1121.26 1200.97 L1118.25 1200.97 L1115.25 1200.97 L1112.24 1200.97 L1109.24 1200.97 L1106.23 1200.97 L1103.23 1200.97 L1100.22 1200.97 L1097.22 1200.97 L1094.21 1200.97 L1091.21 1200.97 L1088.2 1200.97 L1085.2 1200.97 L1082.19 1200.97 L1079.19 1200.97 L1076.18 1200.97 L1073.18 1200.97 L1070.17 1200.97 L1067.17 1200.97 L1064.17 1200.97 L1061.16 1200.97 L1058.16 1200.97 L1055.15 1200.97 L1052.15 1200.97 L1049.14 1200.97 L1046.14 1200.97 L1043.13 1200.97 L1040.13 1200.97 L1037.12 1200.97 L1034.12 1200.97 L1031.11 1200.97 L1028.11 1200.97 L1025.1 1200.97 L1022.1 1200.97 L1019.09 1200.97 L1016.09 1200.97 L1013.08 1200.97 L1010.08 1200.97 L1007.07 1200.97 L1004.07 1200.97 L1001.07 1200.97 L998.06 1200.97 L995.056 1200.97 L992.051 1200.97 L989.046 1200.97 L986.041 1200.97 L983.036 1200.97 L980.032 1200.97 L977.027 1200.97 L974.022 1200.97 L971.017 1200.97 L968.013 1200.97 L965.008 1200.97 L962.003 1200.97 L958.998 1200.97 L955.993 1200.97 L952.989 1200.97 L949.984 1200.97 L946.979 1200.97 L943.974 1200.97 L940.97 1200.97 L937.965 1200.97 L934.96 1200.97 L931.955 1200.97 L928.95 1200.97 L925.946 1200.97 L922.941 1200.97 L919.936 1200.97 L916.931 1200.97 L913.927 1200.97 L910.922 1200.97 L907.917 1200.97 L904.912 1200.97 L901.908 1200.97 L898.903 1200.97 L895.898 1200.97 L892.893 1200.97 L889.888 1200.97 L886.884 1200.97 L883.879 1200.97 L880.874 1200.97 L877.869 1200.97 L874.865 1200.97 L871.86 1200.97 L868.855 1200.97 L865.85 1200.97 L862.845 1200.97 L859.841 1200.97 L856.836 1200.97 L853.831 1200.97 L850.826 1200.97 L847.822 1200.97 L844.817 1200.97 L841.812 1200.97 L838.807 1200.97 L835.802 1200.97 L832.798 1200.97 L829.793 1200.97 L826.788 1200.97 L823.783 1200.97 L820.779 1200.97 L817.774 1200.97 L814.769 1200.97 L811.764 1200.97 L808.759 1200.97 L805.755 1200.97 L802.75 1200.97 L799.745 1200.97 L796.74 1200.97 L793.736 1200.97 L790.731 1200.97 L787.726 1200.97 L784.721 1200.97 L781.716 1200.97 L778.712 1200.97 L775.707 1200.97 L772.702 1200.97 L769.697 1200.97 L766.693 1200.97 L763.688 1200.97 L760.683 1200.97 L757.678 1200.97 L754.673 1200.97 L751.669 1200.97 L748.664 1200.97 L745.659 1200.97 L742.654 1200.97 L739.65 1200.97 L736.645 1200.97 L733.64 1200.97 L730.635 1200.97 L727.63 1200.97 L724.626 1200.97 L721.621 1200.97 L718.616 1200.97 L715.611 1200.97 L712.607 1200.97 L709.602 1200.97 L706.597 1200.97 L703.592 1200.97 L700.588 1200.97 L697.583 1200.97 L694.578 1200.97 L691.573 1200.97 L688.568 1200.97 L685.564 1200.97 L682.559 1200.97 L679.554 1200.97 L676.549 1200.97 L673.545 1200.97 L670.54 1200.97 L667.535 1200.97 L664.53 1200.97 L661.525 1200.97 L658.521 1200.97 L655.516 1200.97 L652.511 1200.97 L649.506 1200.97 L646.502 1200.97 L643.497 1200.97 L640.492 1200.97 L637.487 1200.97 L634.482 1200.97 L631.478 1200.97 L628.473 1200.97 L625.468 1200.97 L622.463 1200.97 L619.459 1200.97 L616.454 1200.97 L613.449 1200.97 L610.444 1200.97 L607.439 1200.97 L604.435 1200.97 L601.43 1200.97 L598.425 1200.97 L595.42 1200.97 L592.416 1200.97 L589.411 1200.97 L586.406 1200.97 L583.401 1200.97 L580.396 1200.97 L577.392 1200.97 L574.387 1200.97 L571.382 1200.97 L568.377 1200.97 L565.373 1200.97 L562.368 1200.97 L559.363 1200.97 L556.358 1200.97 L553.353 1200.97 L550.349 1200.97 L547.344 1200.97 L544.339 1200.97 L541.334 1200.97 L538.33 1200.97 L535.325 1200.97 L532.32 1200.97 L529.315 1200.97 L526.31 1200.97 L523.306 1200.97 L520.301 1200.97 L517.296 1200.97 L514.291 1200.97 L511.287 1200.97 L508.282 1200.97 L505.277 1200.97 L502.272 1200.97 L499.267 1200.97 L496.263 1200.97 L493.258 1200.97 L490.253 1200.97 L487.248 1200.97 L484.244 1200.97 L481.239 1200.97 L478.234 1200.97 L475.229 1200.97 L472.225 1200.97 L469.22 1200.97 L466.215 1200.97 L463.21 1200.97 L460.205 1200.97 L457.201 1200.97 L454.196 1200.97 L451.191 1200.97 L448.186 1200.97 L445.182 1200.97 L442.177 1200.97 L439.172 1200.97 L436.167 1200.97 L433.162 1200.97 L430.158 1200.97 L427.153 1200.97 L424.148 1200.97 L421.143 1200.97 L418.139 1200.97 L415.134 1200.97 L412.129 1200.97 L409.124 1200.97 L406.119 1200.97 L403.115 1200.97 L400.11 1200.97 L397.105 1200.97 L394.1 1200.97 L391.096 1200.97 L388.091 1200.97 L385.086 1200.97 L382.081 1200.97 L379.076 1200.97 L376.072 1200.97 L373.067 1200.97 L370.062 1200.97 L367.057 1200.97 L364.053 1200.97 L361.048 1200.97 L358.043 1200.97 L355.038 1200.97 L352.033 1200.97 L349.029 1200.97 L346.024 1200.97 L343.019 1200.97 L340.014 1200.97 L337.01 1200.97 L334.005 1200.97 L331 1200.97 L327.995 1200.97 L324.99 1200.97 L321.986 1200.97 L318.981 1200.97 L315.976 1200.97 L312.971 1200.97 L309.967 1200.97 L306.962 1200.97 L303.957 1200.97 L300.952 1200.97 L297.947 1200.97 L294.943 1200.97 L291.938 1200.97 L288.933 1200.97 L285.928 1200.97 L282.924 1200.97 L279.919 1200.97 L276.914 1200.97 L273.909 1200.97 L270.905 1200.97 L267.9 1200.97 L264.895 1200.97 L261.89 1200.97 L258.885 1200.97 L255.881 1200.97 L252.876 1200.97 L249.871 1200.97 L246.866 1200.97 L243.862 1200.97 L240.857 1200.97 L237.852 1200.97 L234.847 1200.97 L231.842 1200.97 L228.838 1200.97 L225.833 1200.97 L222.828 1200.97 L219.823 1200.97 L216.819 1200.97 L213.814 1200.97 L210.809 1200.97 L207.804 1200.97  Z" fill="#009af9" fill-rule="evenodd" fill-opacity="0.25"/>
<polyline clip-path="url(#clip232)" style="stroke:#009af9; stroke-linecap:round; stroke-linejoin:round; stroke-width:4; stroke-opacity:0.25; fill:none" points="207.804,1188.53 210.809,1188.15 213.814,1187.76 216.819,1187.37 219.823,1186.96 222.828,1186.54 225.833,1186.1 228.838,1185.66 231.842,1185.21 234.847,1184.74 237.852,1184.26 240.857,1183.77 243.862,1183.27 246.866,1182.75 249.871,1182.22 252.876,1181.68 255.881,1181.12 258.885,1180.55 261.89,1179.96 264.895,1179.37 267.9,1178.75 270.905,1178.12 273.909,1177.48 276.914,1176.81 279.919,1176.14 282.924,1175.44 285.928,1174.73 288.933,1174 291.938,1173.26 294.943,1172.5 297.947,1171.72 300.952,1170.92 303.957,1170.1 306.962,1169.26 309.967,1168.4 312.971,1167.53 315.976,1166.63 318.981,1165.72 321.986,1164.78 324.99,1163.82 327.995,1162.84 331,1161.83 334.005,1160.81 337.01,1159.76 340.014,1158.69 343.019,1157.6 346.024,1156.48 349.029,1155.34 352.033,1154.17 355.038,1152.98 358.043,1151.76 361.048,1150.52 364.053,1149.25 367.057,1147.95 370.062,1146.63 373.067,1145.28 376.072,1143.9 379.076,1142.49 382.081,1141.06 385.086,1139.59 388.091,1138.1 391.096,1136.57 394.1,1135.02 397.105,1133.43 400.11,1131.82 403.115,1130.17 406.119,1128.49 409.124,1126.78 412.129,1125.03 415.134,1123.25 418.139,1121.44 421.143,1119.59 424.148,1117.71 427.153,1115.8 430.158,1113.85 433.162,1111.86 436.167,1109.83 439.172,1107.78 442.177,1105.68 445.182,1103.54 448.186,1101.37 451.191,1099.16 454.196,1096.91 457.201,1094.62 460.205,1092.3 463.21,1089.93 466.215,1087.52 469.22,1085.07 472.225,1082.58 475.229,1080.05 478.234,1077.48 481.239,1074.87 484.244,1072.21 487.248,1069.51 490.253,1066.77 493.258,1063.98 496.263,1061.15 499.267,1058.27 502.272,1055.36 505.277,1052.39 508.282,1049.38 511.287,1046.33 514.291,1043.23 517.296,1040.08 520.301,1036.89 523.306,1033.65 526.31,1030.36 529.315,1027.03 532.32,1023.65 535.325,1020.22 538.33,1016.74 541.334,1013.22 544.339,1009.65 547.344,1006.02 550.349,1002.35 553.353,998.635 556.358,994.868 559.363,991.051 562.368,987.184 565.373,983.269 568.377,979.303 571.382,975.288 574.387,971.224 577.392,967.109 580.396,962.945 583.401,958.731 586.406,954.466 589.411,950.152 592.416,945.788 595.42,941.374 598.425,936.909 601.43,932.395 604.435,927.831 607.439,923.218 610.444,918.554 613.449,913.841 616.454,909.079 619.459,904.267 622.463,899.406 625.468,894.497 628.473,889.538 631.478,884.531 634.482,879.475 637.487,874.371 640.492,869.22 643.497,864.021 646.502,858.774 649.506,853.481 652.511,848.141 655.516,842.755 658.521,837.323 661.525,831.846 664.53,826.323 667.535,820.756 670.54,815.145 673.545,809.49 676.549,803.792 679.554,798.051 682.559,792.268 685.564,786.444 688.568,780.579 691.573,774.673 694.578,768.728 697.583,762.743 700.588,756.721 703.592,750.66 706.597,744.562 709.602,738.428 712.607,732.259 715.611,726.054 718.616,719.816 721.621,713.545 724.626,707.241 727.63,700.905 730.635,694.539 733.64,688.143 736.645,681.719 739.65,675.266 742.654,668.787 745.659,662.281 748.664,655.751 751.669,649.196 754.673,642.619 757.678,636.019 760.683,629.399 763.688,622.759 766.693,616.1 769.697,609.424 772.702,602.732 775.707,596.024 778.712,589.302 781.716,582.568 784.721,575.821 787.726,569.065 790.731,562.299 793.736,555.525 796.74,548.745 799.745,541.959 802.75,535.17 805.755,528.377 808.759,521.584 811.764,514.79 814.769,507.998 817.774,501.208 820.779,494.423 823.783,487.643 826.788,480.87 829.793,474.105 832.798,467.35 835.802,460.607 838.807,453.876 841.812,447.16 844.817,440.459 847.822,433.775 850.826,427.11 853.831,420.465 856.836,413.842 859.841,407.242 862.845,400.666 865.85,394.117 868.855,387.596 871.86,381.104 874.865,374.642 877.869,368.213 880.874,361.818 883.879,355.459 886.884,349.136 889.888,342.852 892.893,336.608 895.898,330.406 898.903,324.246 901.908,318.132 904.912,312.064 907.917,306.043 910.922,300.072 913.927,294.152 916.931,288.284 919.936,282.47 922.941,276.711 925.946,271.01 928.95,265.366 931.955,259.783 934.96,254.261 937.965,248.801 940.97,243.406 943.974,238.077 946.979,232.815 949.984,227.621 952.989,222.498 955.993,217.446 958.998,212.466 962.003,207.561 965.008,202.731 968.013,197.978 971.017,193.304 974.022,188.708 977.027,184.194 980.032,179.761 983.036,175.412 986.041,171.147 989.046,166.967 992.051,162.875 995.056,158.871 998.06,154.955 1001.07,151.13 1004.07,147.397 1007.07,143.756 1010.08,140.208 1013.08,136.755 1016.09,133.397 1019.09,130.136 1022.1,126.973 1025.1,123.907 1028.11,120.941 1031.11,118.076 1034.12,115.311 1037.12,112.647 1040.13,110.087 1043.13,107.63 1046.14,105.276 1049.14,103.028 1052.15,100.885 1055.15,98.8478 1058.16,96.9174 1061.16,95.0942 1064.17,93.3787 1067.17,91.7715 1070.17,90.2731 1073.18,88.8839 1076.18,87.6042 1079.19,86.4346 1082.19,85.3752 1085.2,84.4266 1088.2,83.5889 1091.21,82.8623 1094.21,82.2472 1097.22,81.7436 1100.22,81.3519 1103.23,81.0719 1106.23,80.9039 1109.24,80.8479 1112.24,80.9039 1115.25,81.0719 1118.25,81.3519 1121.26,81.7436 1124.26,82.2472 1127.27,82.8623 1130.27,83.5889 1133.28,84.4266 1136.28,85.3752 1139.28,86.4346 1142.29,87.6042 1145.29,88.8839 1148.3,90.2731 1151.3,91.7715 1154.31,93.3787 1157.31,95.0942 1160.32,96.9174 1163.32,98.8478 1166.33,100.885 1169.33,103.028 1172.34,105.276 1175.34,107.63 1178.35,110.087 1181.35,112.647 1184.36,115.311 1187.36,118.076 1190.37,120.941 1193.37,123.907 1196.38,126.973 1199.38,130.136 1202.39,133.397 1205.39,136.755 1208.39,140.208 1211.4,143.756 1214.4,147.397 1217.41,151.13 1220.41,154.955 1223.42,158.871 1226.42,162.875 1229.43,166.967 1232.43,171.147 1235.44,175.412 1238.44,179.761 1241.45,184.194 1244.45,188.708 1247.46,193.304 1250.46,197.978 1253.47,202.731 1256.47,207.561 1259.48,212.466 1262.48,217.446 1265.49,222.498 1268.49,227.621 1271.49,232.815 1274.5,238.077 1277.5,243.406 1280.51,248.801 1283.51,254.261 1286.52,259.783 1289.52,265.366 1292.53,271.01 1295.53,276.711 1298.54,282.47 1301.54,288.284 1304.55,294.152 1307.55,300.072 1310.56,306.043 1313.56,312.064 1316.57,318.132 1319.57,324.246 1322.58,330.406 1325.58,336.608 1328.59,342.852 1331.59,349.136 1334.6,355.459 1337.6,361.818 1340.6,368.213 1343.61,374.642 1346.61,381.104 1349.62,387.596 1352.62,394.117 1355.63,400.666 1358.63,407.242 1361.64,413.842 1364.64,420.465 1367.65,427.11 1370.65,433.775 1373.66,440.459 1376.66,447.16 1379.67,453.876 1382.67,460.607 1385.68,467.35 1388.68,474.105 1391.69,480.87 1394.69,487.643 1397.7,494.423 1400.7,501.208 1403.71,507.998 1406.71,514.79 1409.71,521.584 1412.72,528.377 1415.72,535.17 1418.73,541.959 1421.73,548.745 1424.74,555.525 1427.74,562.299 1430.75,569.065 1433.75,575.821 1436.76,582.568 1439.76,589.302 1442.77,596.024 1445.77,602.732 1448.78,609.424 1451.78,616.1 1454.79,622.759 1457.79,629.399 1460.8,636.019 1463.8,642.619 1466.81,649.196 1469.81,655.751 1472.81,662.281 1475.82,668.787 1478.82,675.266 1481.83,681.719 1484.83,688.143 1487.84,694.539 1490.84,700.905 1493.85,707.241 1496.85,713.545 1499.86,719.816 1502.86,726.054 1505.87,732.259 1508.87,738.428 1511.88,744.562 1514.88,750.66 1517.89,756.721 1520.89,762.743 1523.9,768.728 1526.9,774.673 1529.91,780.579 1532.91,786.444 1535.92,792.268 1538.92,798.051 1541.92,803.792 1544.93,809.49 1547.93,815.145 1550.94,820.756 1553.94,826.323 1556.95,831.846 1559.95,837.323 1562.96,842.755 1565.96,848.141 1568.97,853.481 1571.97,858.774 1574.98,864.021 1577.98,869.22 1580.99,874.371 1583.99,879.475 1587,884.531 1590,889.538 1593.01,894.497 1596.01,899.406 1599.02,904.267 1602.02,909.079 1605.03,913.841 1608.03,918.554 1611.03,923.218 1614.04,927.831 1617.04,932.395 1620.05,936.909 1623.05,941.374 1626.06,945.788 1629.06,950.152 1632.07,954.466 1635.07,958.731 1638.08,962.945 1641.08,967.109 1644.09,971.224 1647.09,975.288 1650.1,979.303 1653.1,983.269 1656.11,987.184 1659.11,991.051 1662.12,994.868 1665.12,998.635 1668.13,1002.35 1671.13,1006.02 1674.13,1009.65 1677.14,1013.22 1680.14,1016.74 1683.15,1020.22 1686.15,1023.65 1689.16,1027.03 1692.16,1030.36 1695.17,1033.65 1698.17,1036.89 1701.18,1040.08 1704.18,1043.23 1707.19,1046.33 1710.19,1049.38 1713.2,1052.39 1716.2,1055.36 1719.21,1058.27 1722.21,1061.15 1725.22,1063.98 1728.22,1066.77 1731.23,1069.51 1734.23,1072.21 1737.24,1074.87 1740.24,1077.48 1743.24,1080.05 1746.25,1082.58 1749.25,1085.07 1752.26,1087.52 1755.26,1089.93 1758.27,1092.3 1761.27,1094.62 1764.28,1096.91 1767.28,1099.16 1770.29,1101.37 1773.29,1103.54 1776.3,1105.68 1779.3,1107.78 1782.31,1109.83 1785.31,1111.86 1788.32,1113.85 1791.32,1115.8 1794.33,1117.71 1797.33,1119.59 1800.34,1121.44 1803.34,1123.25 1806.35,1125.03 1809.35,1126.78 1812.35,1128.49 1815.36,1130.17 1818.36,1131.82 1821.37,1133.43 1824.37,1135.02 1827.38,1136.57 1830.38,1138.1 1833.39,1139.59 1836.39,1141.06 1839.4,1142.49 1842.4,1143.9 1845.41,1145.28 1848.41,1146.63 1851.42,1147.95 1854.42,1149.25 1857.43,1150.52 1860.43,1151.76 1863.44,1152.98 1866.44,1154.17 1869.45,1155.34 1872.45,1156.48 1875.46,1157.6 1878.46,1158.69 1881.46,1159.76 1884.47,1160.81 1887.47,1161.83 1890.48,1162.84 1893.48,1163.82 1896.49,1164.78 1899.49,1165.72 1902.5,1166.63 1905.5,1167.53 1908.51,1168.4 1911.51,1169.26 1914.52,1170.1 1917.52,1170.92 1920.53,1171.72 1923.53,1172.5 1926.54,1173.26 1929.54,1174 1932.55,1174.73 1935.55,1175.44 1938.56,1176.14 1941.56,1176.81 1944.56,1177.48 1947.57,1178.12 1950.57,1178.75 1953.58,1179.37 1956.58,1179.96 1959.59,1180.55 1962.59,1181.12 1965.6,1181.68 1968.6,1182.22 1971.61,1182.75 1974.61,1183.27 1977.62,1183.77 1980.62,1184.26 1983.63,1184.74 1986.63,1185.21 1989.64,1185.66 1992.64,1186.1 1995.65,1186.54 1998.65,1186.96 2001.66,1187.37 2004.66,1187.76 2007.67,1188.15 2010.67,1188.53 "/>
</svg>
