<?xml version="1.0" encoding="utf-8"?>
<svg xmlns="http://www.w3.org/2000/svg" xmlns:xlink="http://www.w3.org/1999/xlink" width="528" height="336" viewBox="0 0 2112 1344">
<defs>
  <clipPath id="clip050">
    <rect x="0" y="0" width="2112" height="1344"/>
  </clipPath>
</defs>
<path clip-path="url(#clip050)" d="M0 1344 L2112 1344 L2112 2.13163e-14 L0 2.13163e-14  Z" fill="#ffffff" fill-rule="evenodd" fill-opacity="1"/>
<defs>
  <clipPath id="clip051">
    <rect x="47" y="47" width="2019" height="1251"/>
  </clipPath>
</defs>
<path clip-path="url(#clip050)" d="M153.718 1234.58 L2064.76 1234.58 L2064.76 47.2441 L153.718 47.2441  Z" fill="#ffffff" fill-rule="evenodd" fill-opacity="1"/>
<defs>
  <clipPath id="clip052">
    <rect x="153" y="47" width="1912" height="1188"/>
  </clipPath>
</defs>
<polyline clip-path="url(#clip052)" style="stroke:#000000; stroke-linecap:round; stroke-linejoin:round; stroke-width:2; stroke-opacity:0.1; fill:none" points="207.804,1234.58 207.804,47.2441 "/>
<polyline clip-path="url(#clip052)" style="stroke:#000000; stroke-linecap:round; stroke-linejoin:round; stroke-width:2; stroke-opacity:0.1; fill:none" points="658.521,1234.58 658.521,47.2441 "/>
<polyline clip-path="url(#clip052)" style="stroke:#000000; stroke-linecap:round; stroke-linejoin:round; stroke-width:2; stroke-opacity:0.1; fill:none" points="1109.24,1234.58 1109.24,47.2441 "/>
<polyline clip-path="url(#clip052)" style="stroke:#000000; stroke-linecap:round; stroke-linejoin:round; stroke-width:2; stroke-opacity:0.1; fill:none" points="1559.95,1234.58 1559.95,47.2441 "/>
<polyline clip-path="url(#clip052)" style="stroke:#000000; stroke-linecap:round; stroke-linejoin:round; stroke-width:2; stroke-opacity:0.1; fill:none" points="2010.67,1234.58 2010.67,47.2441 "/>
<polyline clip-path="url(#clip052)" style="stroke:#000000; stroke-linecap:round; stroke-linejoin:round; stroke-width:2; stroke-opacity:0.1; fill:none" points="153.718,1233.24 2064.76,1233.24 "/>
<polyline clip-path="url(#clip052)" style="stroke:#000000; stroke-linecap:round; stroke-linejoin:round; stroke-width:2; stroke-opacity:0.1; fill:none" points="153.718,1007.88 2064.76,1007.88 "/>
<polyline clip-path="url(#clip052)" style="stroke:#000000; stroke-linecap:round; stroke-linejoin:round; stroke-width:2; stroke-opacity:0.1; fill:none" points="153.718,782.527 2064.76,782.527 "/>
<polyline clip-path="url(#clip052)" style="stroke:#000000; stroke-linecap:round; stroke-linejoin:round; stroke-width:2; stroke-opacity:0.1; fill:none" points="153.718,557.168 2064.76,557.168 "/>
<polyline clip-path="url(#clip052)" style="stroke:#000000; stroke-linecap:round; stroke-linejoin:round; stroke-width:2; stroke-opacity:0.1; fill:none" points="153.718,331.81 2064.76,331.81 "/>
<polyline clip-path="url(#clip052)" style="stroke:#000000; stroke-linecap:round; stroke-linejoin:round; stroke-width:2; stroke-opacity:0.1; fill:none" points="153.718,106.452 2064.76,106.452 "/>
<polyline clip-path="url(#clip050)" style="stroke:#000000; stroke-linecap:round; stroke-linejoin:round; stroke-width:4; stroke-opacity:1; fill:none" points="153.718,1234.58 2064.76,1234.58 "/>
<polyline clip-path="url(#clip050)" style="stroke:#000000; stroke-linecap:round; stroke-linejoin:round; stroke-width:4; stroke-opacity:1; fill:none" points="207.804,1234.58 207.804,1215.68 "/>
<polyline clip-path="url(#clip050)" style="stroke:#000000; stroke-linecap:round; stroke-linejoin:round; stroke-width:4; stroke-opacity:1; fill:none" points="658.521,1234.58 658.521,1215.68 "/>
<polyline clip-path="url(#clip050)" style="stroke:#000000; stroke-linecap:round; stroke-linejoin:round; stroke-width:4; stroke-opacity:1; fill:none" points="1109.24,1234.58 1109.24,1215.68 "/>
<polyline clip-path="url(#clip050)" style="stroke:#000000; stroke-linecap:round; stroke-linejoin:round; stroke-width:4; stroke-opacity:1; fill:none" points="1559.95,1234.58 1559.95,1215.68 "/>
<polyline clip-path="url(#clip050)" style="stroke:#000000; stroke-linecap:round; stroke-linejoin:round; stroke-width:4; stroke-opacity:1; fill:none" points="2010.67,1234.58 2010.67,1215.68 "/>
<path clip-path="url(#clip050)" d="M198.186 1290.74 L205.825 1290.74 L205.825 1264.37 L197.515 1266.04 L197.515 1261.78 L205.779 1260.11 L210.455 1260.11 L210.455 1290.74 L218.094 1290.74 L218.094 1294.67 L198.186 1294.67 L198.186 1290.74 Z" fill="#000000" fill-rule="nonzero" fill-opacity="1" /><path clip-path="url(#clip050)" d="M653.173 1290.74 L669.493 1290.74 L669.493 1294.67 L647.548 1294.67 L647.548 1290.74 Q650.21 1287.99 654.794 1283.36 Q659.4 1278.7 660.581 1277.36 Q662.826 1274.84 663.706 1273.1 Q664.609 1271.34 664.609 1269.65 Q664.609 1266.9 662.664 1265.16 Q660.743 1263.42 657.641 1263.42 Q655.442 1263.42 652.988 1264.19 Q650.558 1264.95 647.78 1266.5 L647.78 1261.78 Q650.604 1260.65 653.058 1260.07 Q655.511 1259.49 657.548 1259.49 Q662.919 1259.49 666.113 1262.17 Q669.308 1264.86 669.308 1269.35 Q669.308 1271.48 668.497 1273.4 Q667.71 1275.3 665.604 1277.89 Q665.025 1278.56 661.923 1281.78 Q658.822 1284.98 653.173 1290.74 Z" fill="#000000" fill-rule="nonzero" fill-opacity="1" /><path clip-path="url(#clip050)" d="M1113.48 1276.04 Q1116.84 1276.76 1118.72 1279.03 Q1120.61 1281.3 1120.61 1284.63 Q1120.61 1289.74 1117.1 1292.55 Q1113.58 1295.35 1107.1 1295.35 Q1104.92 1295.35 1102.61 1294.91 Q1100.31 1294.49 1097.86 1293.63 L1097.86 1289.12 Q1099.8 1290.25 1102.12 1290.83 Q1104.43 1291.41 1106.96 1291.41 Q1111.36 1291.41 1113.65 1289.67 Q1115.96 1287.94 1115.96 1284.63 Q1115.96 1281.57 1113.81 1279.86 Q1111.68 1278.12 1107.86 1278.12 L1103.83 1278.12 L1103.83 1274.28 L1108.04 1274.28 Q1111.49 1274.28 1113.32 1272.92 Q1115.15 1271.53 1115.15 1268.93 Q1115.15 1266.27 1113.25 1264.86 Q1111.38 1263.42 1107.86 1263.42 Q1105.94 1263.42 1103.74 1263.84 Q1101.54 1264.26 1098.9 1265.14 L1098.9 1260.97 Q1101.56 1260.23 1103.88 1259.86 Q1106.22 1259.49 1108.28 1259.49 Q1113.6 1259.49 1116.7 1261.92 Q1119.8 1264.33 1119.8 1268.45 Q1119.8 1271.32 1118.16 1273.31 Q1116.52 1275.28 1113.48 1276.04 Z" fill="#000000" fill-rule="nonzero" fill-opacity="1" /><path clip-path="url(#clip050)" d="M1562.96 1264.19 L1551.16 1282.64 L1562.96 1282.64 L1562.96 1264.19 M1561.74 1260.11 L1567.62 1260.11 L1567.62 1282.64 L1572.55 1282.64 L1572.55 1286.53 L1567.62 1286.53 L1567.62 1294.67 L1562.96 1294.67 L1562.96 1286.53 L1547.36 1286.53 L1547.36 1282.01 L1561.74 1260.11 Z" fill="#000000" fill-rule="nonzero" fill-opacity="1" /><path clip-path="url(#clip050)" d="M2000.95 1260.11 L2019.3 1260.11 L2019.3 1264.05 L2005.23 1264.05 L2005.23 1272.52 Q2006.25 1272.17 2007.27 1272.01 Q2008.29 1271.83 2009.3 1271.83 Q2015.09 1271.83 2018.47 1275 Q2021.85 1278.17 2021.85 1283.59 Q2021.85 1289.17 2018.38 1292.27 Q2014.91 1295.35 2008.59 1295.35 Q2006.41 1295.35 2004.14 1294.98 Q2001.9 1294.61 1999.49 1293.86 L1999.49 1289.17 Q2001.57 1290.3 2003.79 1290.86 Q2006.02 1291.41 2008.49 1291.41 Q2012.5 1291.41 2014.84 1289.3 Q2017.17 1287.2 2017.17 1283.59 Q2017.17 1279.98 2014.84 1277.87 Q2012.5 1275.76 2008.49 1275.76 Q2006.62 1275.76 2004.74 1276.18 Q2002.89 1276.6 2000.95 1277.48 L2000.95 1260.11 Z" fill="#000000" fill-rule="nonzero" fill-opacity="1" /><polyline clip-path="url(#clip050)" style="stroke:#000000; stroke-linecap:round; stroke-linejoin:round; stroke-width:4; stroke-opacity:1; fill:none" points="153.718,1234.58 153.718,47.2441 "/>
<polyline clip-path="url(#clip050)" style="stroke:#000000; stroke-linecap:round; stroke-linejoin:round; stroke-width:4; stroke-opacity:1; fill:none" points="153.718,1233.24 172.616,1233.24 "/>
<polyline clip-path="url(#clip050)" style="stroke:#000000; stroke-linecap:round; stroke-linejoin:round; stroke-width:4; stroke-opacity:1; fill:none" points="153.718,1007.88 172.616,1007.88 "/>
<polyline clip-path="url(#clip050)" style="stroke:#000000; stroke-linecap:round; stroke-linejoin:round; stroke-width:4; stroke-opacity:1; fill:none" points="153.718,782.527 172.616,782.527 "/>
<polyline clip-path="url(#clip050)" style="stroke:#000000; stroke-linecap:round; stroke-linejoin:round; stroke-width:4; stroke-opacity:1; fill:none" points="153.718,557.168 172.616,557.168 "/>
<polyline clip-path="url(#clip050)" style="stroke:#000000; stroke-linecap:round; stroke-linejoin:round; stroke-width:4; stroke-opacity:1; fill:none" points="153.718,331.81 172.616,331.81 "/>
<polyline clip-path="url(#clip050)" style="stroke:#000000; stroke-linecap:round; stroke-linejoin:round; stroke-width:4; stroke-opacity:1; fill:none" points="153.718,106.452 172.616,106.452 "/>
<path clip-path="url(#clip050)" d="M15.0944 1233.69 L44.7701 1233.69 L44.7701 1237.63 L15.0944 1237.63 L15.0944 1233.69 Z" fill="#000000" fill-rule="nonzero" fill-opacity="1" /><path clip-path="url(#clip050)" d="M55.6728 1246.59 L63.3117 1246.59 L63.3117 1220.22 L55.0016 1221.89 L55.0016 1217.63 L63.2654 1215.96 L67.9413 1215.96 L67.9413 1246.59 L75.5802 1246.59 L75.5802 1250.52 L55.6728 1250.52 L55.6728 1246.59 Z" fill="#000000" fill-rule="nonzero" fill-opacity="1" /><path clip-path="url(#clip050)" d="M85.0245 1244.64 L89.9088 1244.64 L89.9088 1250.52 L85.0245 1250.52 L85.0245 1244.64 Z" fill="#000000" fill-rule="nonzero" fill-opacity="1" /><path clip-path="url(#clip050)" d="M110.094 1219.04 Q106.483 1219.04 104.654 1222.61 Q102.849 1226.15 102.849 1233.28 Q102.849 1240.38 104.654 1243.95 Q106.483 1247.49 110.094 1247.49 Q113.728 1247.49 115.534 1243.95 Q117.362 1240.38 117.362 1233.28 Q117.362 1226.15 115.534 1222.61 Q113.728 1219.04 110.094 1219.04 M110.094 1215.34 Q115.904 1215.34 118.96 1219.94 Q122.038 1224.53 122.038 1233.28 Q122.038 1242 118.96 1246.61 Q115.904 1251.19 110.094 1251.19 Q104.284 1251.19 101.205 1246.61 Q98.1495 1242 98.1495 1233.28 Q98.1495 1224.53 101.205 1219.94 Q104.284 1215.34 110.094 1215.34 Z" fill="#000000" fill-rule="nonzero" fill-opacity="1" /><path clip-path="url(#clip050)" d="M16.0897 1008.34 L45.7655 1008.34 L45.7655 1012.27 L16.0897 1012.27 L16.0897 1008.34 Z" fill="#000000" fill-rule="nonzero" fill-opacity="1" /><path clip-path="url(#clip050)" d="M65.858 993.683 Q62.2469 993.683 60.4182 997.248 Q58.6126 1000.79 58.6126 1007.92 Q58.6126 1015.03 60.4182 1018.59 Q62.2469 1022.13 65.858 1022.13 Q69.4922 1022.13 71.2978 1018.59 Q73.1265 1015.03 73.1265 1007.92 Q73.1265 1000.79 71.2978 997.248 Q69.4922 993.683 65.858 993.683 M65.858 989.98 Q71.6681 989.98 74.7237 994.586 Q77.8024 999.169 77.8024 1007.92 Q77.8024 1016.65 74.7237 1021.25 Q71.6681 1025.84 65.858 1025.84 Q60.0478 1025.84 56.9691 1021.25 Q53.9136 1016.65 53.9136 1007.92 Q53.9136 999.169 56.9691 994.586 Q60.0478 989.98 65.858 989.98 Z" fill="#000000" fill-rule="nonzero" fill-opacity="1" /><path clip-path="url(#clip050)" d="M86.0199 1019.29 L90.9041 1019.29 L90.9041 1025.16 L86.0199 1025.16 L86.0199 1019.29 Z" fill="#000000" fill-rule="nonzero" fill-opacity="1" /><path clip-path="url(#clip050)" d="M101.136 990.605 L119.492 990.605 L119.492 994.54 L105.418 994.54 L105.418 1003.01 Q106.436 1002.66 107.455 1002.5 Q108.473 1002.32 109.492 1002.32 Q115.279 1002.32 118.659 1005.49 Q122.038 1008.66 122.038 1014.08 Q122.038 1019.66 118.566 1022.76 Q115.094 1025.84 108.774 1025.84 Q106.599 1025.84 104.33 1025.47 Q102.085 1025.1 99.6772 1024.35 L99.6772 1019.66 Q101.761 1020.79 103.983 1021.35 Q106.205 1021.9 108.682 1021.9 Q112.686 1021.9 115.024 1019.79 Q117.362 1017.69 117.362 1014.08 Q117.362 1010.47 115.024 1008.36 Q112.686 1006.25 108.682 1006.25 Q106.807 1006.25 104.932 1006.67 Q103.08 1007.09 101.136 1007.97 L101.136 990.605 Z" fill="#000000" fill-rule="nonzero" fill-opacity="1" /><path clip-path="url(#clip050)" d="M64.8626 768.325 Q61.2515 768.325 59.4228 771.89 Q57.6173 775.432 57.6173 782.561 Q57.6173 789.668 59.4228 793.232 Q61.2515 796.774 64.8626 796.774 Q68.4969 796.774 70.3024 793.232 Q72.1311 789.668 72.1311 782.561 Q72.1311 775.432 70.3024 771.89 Q68.4969 768.325 64.8626 768.325 M64.8626 764.622 Q70.6728 764.622 73.7283 769.228 Q76.807 773.811 76.807 782.561 Q76.807 791.288 73.7283 795.894 Q70.6728 800.478 64.8626 800.478 Q59.0525 800.478 55.9738 795.894 Q52.9182 791.288 52.9182 782.561 Q52.9182 773.811 55.9738 769.228 Q59.0525 764.622 64.8626 764.622 Z" fill="#000000" fill-rule="nonzero" fill-opacity="1" /><path clip-path="url(#clip050)" d="M85.0245 793.927 L89.9088 793.927 L89.9088 799.807 L85.0245 799.807 L85.0245 793.927 Z" fill="#000000" fill-rule="nonzero" fill-opacity="1" /><path clip-path="url(#clip050)" d="M110.094 768.325 Q106.483 768.325 104.654 771.89 Q102.849 775.432 102.849 782.561 Q102.849 789.668 104.654 793.232 Q106.483 796.774 110.094 796.774 Q113.728 796.774 115.534 793.232 Q117.362 789.668 117.362 782.561 Q117.362 775.432 115.534 771.89 Q113.728 768.325 110.094 768.325 M110.094 764.622 Q115.904 764.622 118.96 769.228 Q122.038 773.811 122.038 782.561 Q122.038 791.288 118.96 795.894 Q115.904 800.478 110.094 800.478 Q104.284 800.478 101.205 795.894 Q98.1495 791.288 98.1495 782.561 Q98.1495 773.811 101.205 769.228 Q104.284 764.622 110.094 764.622 Z" fill="#000000" fill-rule="nonzero" fill-opacity="1" /><path clip-path="url(#clip050)" d="M65.858 542.967 Q62.2469 542.967 60.4182 546.532 Q58.6126 550.073 58.6126 557.203 Q58.6126 564.309 60.4182 567.874 Q62.2469 571.416 65.858 571.416 Q69.4922 571.416 71.2978 567.874 Q73.1265 564.309 73.1265 557.203 Q73.1265 550.073 71.2978 546.532 Q69.4922 542.967 65.858 542.967 M65.858 539.263 Q71.6681 539.263 74.7237 543.87 Q77.8024 548.453 77.8024 557.203 Q77.8024 565.93 74.7237 570.536 Q71.6681 575.12 65.858 575.12 Q60.0478 575.12 56.9691 570.536 Q53.9136 565.93 53.9136 557.203 Q53.9136 548.453 56.9691 543.87 Q60.0478 539.263 65.858 539.263 Z" fill="#000000" fill-rule="nonzero" fill-opacity="1" /><path clip-path="url(#clip050)" d="M86.0199 568.569 L90.9041 568.569 L90.9041 574.448 L86.0199 574.448 L86.0199 568.569 Z" fill="#000000" fill-rule="nonzero" fill-opacity="1" /><path clip-path="url(#clip050)" d="M101.136 539.888 L119.492 539.888 L119.492 543.823 L105.418 543.823 L105.418 552.296 Q106.436 551.948 107.455 551.786 Q108.473 551.601 109.492 551.601 Q115.279 551.601 118.659 554.772 Q122.038 557.944 122.038 563.36 Q122.038 568.939 118.566 572.041 Q115.094 575.12 108.774 575.12 Q106.599 575.12 104.33 574.749 Q102.085 574.379 99.6772 573.638 L99.6772 568.939 Q101.761 570.073 103.983 570.629 Q106.205 571.184 108.682 571.184 Q112.686 571.184 115.024 569.078 Q117.362 566.971 117.362 563.36 Q117.362 559.749 115.024 557.643 Q112.686 555.536 108.682 555.536 Q106.807 555.536 104.932 555.953 Q103.08 556.37 101.136 557.249 L101.136 539.888 Z" fill="#000000" fill-rule="nonzero" fill-opacity="1" /><path clip-path="url(#clip050)" d="M55.6728 345.155 L63.3117 345.155 L63.3117 318.789 L55.0016 320.456 L55.0016 316.197 L63.2654 314.53 L67.9413 314.53 L67.9413 345.155 L75.5802 345.155 L75.5802 349.09 L55.6728 349.09 L55.6728 345.155 Z" fill="#000000" fill-rule="nonzero" fill-opacity="1" /><path clip-path="url(#clip050)" d="M85.0245 343.21 L89.9088 343.21 L89.9088 349.09 L85.0245 349.09 L85.0245 343.21 Z" fill="#000000" fill-rule="nonzero" fill-opacity="1" /><path clip-path="url(#clip050)" d="M110.094 317.609 Q106.483 317.609 104.654 321.174 Q102.849 324.715 102.849 331.845 Q102.849 338.951 104.654 342.516 Q106.483 346.058 110.094 346.058 Q113.728 346.058 115.534 342.516 Q117.362 338.951 117.362 331.845 Q117.362 324.715 115.534 321.174 Q113.728 317.609 110.094 317.609 M110.094 313.905 Q115.904 313.905 118.96 318.512 Q122.038 323.095 122.038 331.845 Q122.038 340.572 118.96 345.178 Q115.904 349.761 110.094 349.761 Q104.284 349.761 101.205 345.178 Q98.1495 340.572 98.1495 331.845 Q98.1495 323.095 101.205 318.512 Q104.284 313.905 110.094 313.905 Z" fill="#000000" fill-rule="nonzero" fill-opacity="1" /><path clip-path="url(#clip050)" d="M56.6682 119.797 L64.3071 119.797 L64.3071 93.4311 L55.9969 95.0978 L55.9969 90.8385 L64.2608 89.1719 L68.9367 89.1719 L68.9367 119.797 L76.5755 119.797 L76.5755 123.732 L56.6682 123.732 L56.6682 119.797 Z" fill="#000000" fill-rule="nonzero" fill-opacity="1" /><path clip-path="url(#clip050)" d="M86.0199 117.852 L90.9041 117.852 L90.9041 123.732 L86.0199 123.732 L86.0199 117.852 Z" fill="#000000" fill-rule="nonzero" fill-opacity="1" /><path clip-path="url(#clip050)" d="M101.136 89.1719 L119.492 89.1719 L119.492 93.107 L105.418 93.107 L105.418 101.579 Q106.436 101.232 107.455 101.07 Q108.473 100.885 109.492 100.885 Q115.279 100.885 118.659 104.056 Q122.038 107.227 122.038 112.644 Q122.038 118.223 118.566 121.324 Q115.094 124.403 108.774 124.403 Q106.599 124.403 104.33 124.033 Q102.085 123.662 99.6772 122.922 L99.6772 118.223 Q101.761 119.357 103.983 119.912 Q106.205 120.468 108.682 120.468 Q112.686 120.468 115.024 118.362 Q117.362 116.255 117.362 112.644 Q117.362 109.033 115.024 106.926 Q112.686 104.82 108.682 104.82 Q106.807 104.82 104.932 105.237 Q103.08 105.653 101.136 106.533 L101.136 89.1719 Z" fill="#000000" fill-rule="nonzero" fill-opacity="1" /><polyline clip-path="url(#clip052)" style="stroke:#009af9; stroke-linecap:round; stroke-linejoin:round; stroke-width:4; stroke-opacity:1; fill:none" points="207.804,504.913 658.521,694.304 1109.24,776.91 1559.95,641.906 2010.67,730.785 "/>
<circle clip-path="url(#clip052)" cx="207.804" cy="504.913" r="14.4" fill="#e26f46" fill-rule="evenodd" fill-opacity="1" stroke="#000000" stroke-opacity="1" stroke-width="2.688"/>
<circle clip-path="url(#clip052)" cx="658.521" cy="694.304" r="14.4" fill="#e26f46" fill-rule="evenodd" fill-opacity="1" stroke="#000000" stroke-opacity="1" stroke-width="2.688"/>
<circle clip-path="url(#clip052)" cx="1109.24" cy="776.91" r="14.4" fill="#e26f46" fill-rule="evenodd" fill-opacity="1" stroke="#000000" stroke-opacity="1" stroke-width="2.688"/>
<circle clip-path="url(#clip052)" cx="1559.95" cy="641.906" r="14.4" fill="#e26f46" fill-rule="evenodd" fill-opacity="1" stroke="#000000" stroke-opacity="1" stroke-width="2.688"/>
<circle clip-path="url(#clip052)" cx="2010.67" cy="730.785" r="14.4" fill="#e26f46" fill-rule="evenodd" fill-opacity="1" stroke="#000000" stroke-opacity="1" stroke-width="2.688"/>
</svg>
