<?xml version="1.0" encoding="utf-8"?>
<svg xmlns="http://www.w3.org/2000/svg" xmlns:xlink="http://www.w3.org/1999/xlink" width="528" height="336" viewBox="0 0 2112 1344">
<defs>
  <clipPath id="clip290">
    <rect x="0" y="0" width="2112" height="1344"/>
  </clipPath>
</defs>
<path clip-path="url(#clip290)" d="M0 1344 L2112 1344 L2112 2.13163e-14 L0 2.13163e-14  Z" fill="#ffffff" fill-rule="evenodd" fill-opacity="1"/>
<defs>
  <clipPath id="clip291">
    <rect x="137" y="47" width="1928" height="1188"/>
  </clipPath>
</defs>
<path clip-path="url(#clip290)" d="M153.718 1234.58 L2064.76 1234.58 L2064.76 47.2441 L153.718 47.2441  Z" fill="#ffffff" fill-rule="evenodd" fill-opacity="1"/>
<defs>
  <clipPath id="clip292">
    <rect x="153" y="47" width="1912" height="1188"/>
  </clipPath>
</defs>
<polyline clip-path="url(#clip292)" style="stroke:#000000; stroke-linecap:round; stroke-linejoin:round; stroke-width:2; stroke-opacity:0.1; fill:none" points="409.32,1234.58 409.32,47.2441 "/>
<polyline clip-path="url(#clip292)" style="stroke:#000000; stroke-linecap:round; stroke-linejoin:round; stroke-width:2; stroke-opacity:0.1; fill:none" points="759.279,1234.58 759.279,47.2441 "/>
<polyline clip-path="url(#clip292)" style="stroke:#000000; stroke-linecap:round; stroke-linejoin:round; stroke-width:2; stroke-opacity:0.1; fill:none" points="1109.24,1234.58 1109.24,47.2441 "/>
<polyline clip-path="url(#clip292)" style="stroke:#000000; stroke-linecap:round; stroke-linejoin:round; stroke-width:2; stroke-opacity:0.1; fill:none" points="1459.2,1234.58 1459.2,47.2441 "/>
<polyline clip-path="url(#clip292)" style="stroke:#000000; stroke-linecap:round; stroke-linejoin:round; stroke-width:2; stroke-opacity:0.1; fill:none" points="1809.15,1234.58 1809.15,47.2441 "/>
<polyline clip-path="url(#clip292)" style="stroke:#000000; stroke-linecap:round; stroke-linejoin:round; stroke-width:2; stroke-opacity:0.1; fill:none" points="153.718,1200.97 2064.76,1200.97 "/>
<polyline clip-path="url(#clip292)" style="stroke:#000000; stroke-linecap:round; stroke-linejoin:round; stroke-width:2; stroke-opacity:0.1; fill:none" points="153.718,920.179 2064.76,920.179 "/>
<polyline clip-path="url(#clip292)" style="stroke:#000000; stroke-linecap:round; stroke-linejoin:round; stroke-width:2; stroke-opacity:0.1; fill:none" points="153.718,639.382 2064.76,639.382 "/>
<polyline clip-path="url(#clip292)" style="stroke:#000000; stroke-linecap:round; stroke-linejoin:round; stroke-width:2; stroke-opacity:0.1; fill:none" points="153.718,358.586 2064.76,358.586 "/>
<polyline clip-path="url(#clip292)" style="stroke:#000000; stroke-linecap:round; stroke-linejoin:round; stroke-width:2; stroke-opacity:0.1; fill:none" points="153.718,77.7899 2064.76,77.7899 "/>
<polyline clip-path="url(#clip290)" style="stroke:#000000; stroke-linecap:round; stroke-linejoin:round; stroke-width:4; stroke-opacity:1; fill:none" points="153.718,1234.58 2064.76,1234.58 "/>
<polyline clip-path="url(#clip290)" style="stroke:#000000; stroke-linecap:round; stroke-linejoin:round; stroke-width:4; stroke-opacity:1; fill:none" points="409.32,1234.58 409.32,1215.68 "/>
<polyline clip-path="url(#clip290)" style="stroke:#000000; stroke-linecap:round; stroke-linejoin:round; stroke-width:4; stroke-opacity:1; fill:none" points="759.279,1234.58 759.279,1215.68 "/>
<polyline clip-path="url(#clip290)" style="stroke:#000000; stroke-linecap:round; stroke-linejoin:round; stroke-width:4; stroke-opacity:1; fill:none" points="1109.24,1234.58 1109.24,1215.68 "/>
<polyline clip-path="url(#clip290)" style="stroke:#000000; stroke-linecap:round; stroke-linejoin:round; stroke-width:4; stroke-opacity:1; fill:none" points="1459.2,1234.58 1459.2,1215.68 "/>
<polyline clip-path="url(#clip290)" style="stroke:#000000; stroke-linecap:round; stroke-linejoin:round; stroke-width:4; stroke-opacity:1; fill:none" points="1809.15,1234.58 1809.15,1215.68 "/>
<path clip-path="url(#clip290)" d="M379.263 1277.85 L408.939 1277.85 L408.939 1281.78 L379.263 1281.78 L379.263 1277.85 Z" fill="#000000" fill-rule="nonzero" fill-opacity="1" /><path clip-path="url(#clip290)" d="M423.059 1290.74 L439.378 1290.74 L439.378 1294.67 L417.434 1294.67 L417.434 1290.74 Q420.096 1287.99 424.679 1283.36 Q429.286 1278.7 430.466 1277.36 Q432.712 1274.84 433.591 1273.1 Q434.494 1271.34 434.494 1269.65 Q434.494 1266.9 432.549 1265.16 Q430.628 1263.42 427.526 1263.42 Q425.327 1263.42 422.874 1264.19 Q420.443 1264.95 417.665 1266.5 L417.665 1261.78 Q420.489 1260.65 422.943 1260.07 Q425.397 1259.49 427.434 1259.49 Q432.804 1259.49 435.999 1262.17 Q439.193 1264.86 439.193 1269.35 Q439.193 1271.48 438.383 1273.4 Q437.596 1275.3 435.489 1277.89 Q434.911 1278.56 431.809 1281.78 Q428.707 1284.98 423.059 1290.74 Z" fill="#000000" fill-rule="nonzero" fill-opacity="1" /><path clip-path="url(#clip290)" d="M729.036 1277.85 L758.712 1277.85 L758.712 1281.78 L729.036 1281.78 L729.036 1277.85 Z" fill="#000000" fill-rule="nonzero" fill-opacity="1" /><path clip-path="url(#clip290)" d="M769.614 1290.74 L777.253 1290.74 L777.253 1264.37 L768.943 1266.04 L768.943 1261.78 L777.207 1260.11 L781.883 1260.11 L781.883 1290.74 L789.522 1290.74 L789.522 1294.67 L769.614 1294.67 L769.614 1290.74 Z" fill="#000000" fill-rule="nonzero" fill-opacity="1" /><path clip-path="url(#clip290)" d="M1109.24 1263.19 Q1105.63 1263.19 1103.8 1266.76 Q1101.99 1270.3 1101.99 1277.43 Q1101.99 1284.54 1103.8 1288.1 Q1105.63 1291.64 1109.24 1291.64 Q1112.87 1291.64 1114.68 1288.1 Q1116.51 1284.54 1116.51 1277.43 Q1116.51 1270.3 1114.68 1266.76 Q1112.87 1263.19 1109.24 1263.19 M1109.24 1259.49 Q1115.05 1259.49 1118.1 1264.1 Q1121.18 1268.68 1121.18 1277.43 Q1121.18 1286.16 1118.1 1290.76 Q1115.05 1295.35 1109.24 1295.35 Q1103.43 1295.35 1100.35 1290.76 Q1097.29 1286.16 1097.29 1277.43 Q1097.29 1268.68 1100.35 1264.1 Q1103.43 1259.49 1109.24 1259.49 Z" fill="#000000" fill-rule="nonzero" fill-opacity="1" /><path clip-path="url(#clip290)" d="M1449.58 1290.74 L1457.22 1290.74 L1457.22 1264.37 L1448.91 1266.04 L1448.91 1261.78 L1457.17 1260.11 L1461.85 1260.11 L1461.85 1290.74 L1469.48 1290.74 L1469.48 1294.67 L1449.58 1294.67 L1449.58 1290.74 Z" fill="#000000" fill-rule="nonzero" fill-opacity="1" /><path clip-path="url(#clip290)" d="M1803.81 1290.74 L1820.13 1290.74 L1820.13 1294.67 L1798.18 1294.67 L1798.18 1290.74 Q1800.84 1287.99 1805.43 1283.36 Q1810.03 1278.7 1811.21 1277.36 Q1813.46 1274.84 1814.34 1273.1 Q1815.24 1271.34 1815.24 1269.65 Q1815.24 1266.9 1813.3 1265.16 Q1811.38 1263.42 1808.27 1263.42 Q1806.07 1263.42 1803.62 1264.19 Q1801.19 1264.95 1798.41 1266.5 L1798.41 1261.78 Q1801.24 1260.65 1803.69 1260.07 Q1806.14 1259.49 1808.18 1259.49 Q1813.55 1259.49 1816.75 1262.17 Q1819.94 1264.86 1819.94 1269.35 Q1819.94 1271.48 1819.13 1273.4 Q1818.34 1275.3 1816.24 1277.89 Q1815.66 1278.56 1812.56 1281.78 Q1809.45 1284.98 1803.81 1290.74 Z" fill="#000000" fill-rule="nonzero" fill-opacity="1" /><polyline clip-path="url(#clip290)" style="stroke:#000000; stroke-linecap:round; stroke-linejoin:round; stroke-width:4; stroke-opacity:1; fill:none" points="153.718,1234.58 153.718,47.2441 "/>
<polyline clip-path="url(#clip290)" style="stroke:#000000; stroke-linecap:round; stroke-linejoin:round; stroke-width:4; stroke-opacity:1; fill:none" points="153.718,1200.97 172.616,1200.97 "/>
<polyline clip-path="url(#clip290)" style="stroke:#000000; stroke-linecap:round; stroke-linejoin:round; stroke-width:4; stroke-opacity:1; fill:none" points="153.718,920.179 172.616,920.179 "/>
<polyline clip-path="url(#clip290)" style="stroke:#000000; stroke-linecap:round; stroke-linejoin:round; stroke-width:4; stroke-opacity:1; fill:none" points="153.718,639.382 172.616,639.382 "/>
<polyline clip-path="url(#clip290)" style="stroke:#000000; stroke-linecap:round; stroke-linejoin:round; stroke-width:4; stroke-opacity:1; fill:none" points="153.718,358.586 172.616,358.586 "/>
<polyline clip-path="url(#clip290)" style="stroke:#000000; stroke-linecap:round; stroke-linejoin:round; stroke-width:4; stroke-opacity:1; fill:none" points="153.718,77.7899 172.616,77.7899 "/>
<path clip-path="url(#clip290)" d="M64.8626 1186.77 Q61.2515 1186.77 59.4228 1190.34 Q57.6173 1193.88 57.6173 1201.01 Q57.6173 1208.12 59.4228 1211.68 Q61.2515 1215.22 64.8626 1215.22 Q68.4969 1215.22 70.3024 1211.68 Q72.1311 1208.12 72.1311 1201.01 Q72.1311 1193.88 70.3024 1190.34 Q68.4969 1186.77 64.8626 1186.77 M64.8626 1183.07 Q70.6728 1183.07 73.7283 1187.68 Q76.807 1192.26 76.807 1201.01 Q76.807 1209.74 73.7283 1214.34 Q70.6728 1218.93 64.8626 1218.93 Q59.0525 1218.93 55.9738 1214.34 Q52.9182 1209.74 52.9182 1201.01 Q52.9182 1192.26 55.9738 1187.68 Q59.0525 1183.07 64.8626 1183.07 Z" fill="#000000" fill-rule="nonzero" fill-opacity="1" /><path clip-path="url(#clip290)" d="M85.0245 1212.38 L89.9088 1212.38 L89.9088 1218.25 L85.0245 1218.25 L85.0245 1212.38 Z" fill="#000000" fill-rule="nonzero" fill-opacity="1" /><path clip-path="url(#clip290)" d="M110.094 1186.77 Q106.483 1186.77 104.654 1190.34 Q102.849 1193.88 102.849 1201.01 Q102.849 1208.12 104.654 1211.68 Q106.483 1215.22 110.094 1215.22 Q113.728 1215.22 115.534 1211.68 Q117.362 1208.12 117.362 1201.01 Q117.362 1193.88 115.534 1190.34 Q113.728 1186.77 110.094 1186.77 M110.094 1183.07 Q115.904 1183.07 118.96 1187.68 Q122.038 1192.26 122.038 1201.01 Q122.038 1209.74 118.96 1214.34 Q115.904 1218.93 110.094 1218.93 Q104.284 1218.93 101.205 1214.34 Q98.1495 1209.74 98.1495 1201.01 Q98.1495 1192.26 101.205 1187.68 Q104.284 1183.07 110.094 1183.07 Z" fill="#000000" fill-rule="nonzero" fill-opacity="1" /><path clip-path="url(#clip290)" d="M66.0895 905.977 Q62.4784 905.977 60.6497 909.542 Q58.8441 913.084 58.8441 920.213 Q58.8441 927.32 60.6497 930.885 Q62.4784 934.426 66.0895 934.426 Q69.7237 934.426 71.5292 930.885 Q73.3579 927.32 73.3579 920.213 Q73.3579 913.084 71.5292 909.542 Q69.7237 905.977 66.0895 905.977 M66.0895 902.274 Q71.8996 902.274 74.9552 906.88 Q78.0338 911.463 78.0338 920.213 Q78.0338 928.94 74.9552 933.547 Q71.8996 938.13 66.0895 938.13 Q60.2793 938.13 57.2006 933.547 Q54.1451 928.94 54.1451 920.213 Q54.1451 911.463 57.2006 906.88 Q60.2793 902.274 66.0895 902.274 Z" fill="#000000" fill-rule="nonzero" fill-opacity="1" /><path clip-path="url(#clip290)" d="M86.2514 931.579 L91.1356 931.579 L91.1356 937.459 L86.2514 937.459 L86.2514 931.579 Z" fill="#000000" fill-rule="nonzero" fill-opacity="1" /><path clip-path="url(#clip290)" d="M102.131 933.524 L109.77 933.524 L109.77 907.158 L101.46 908.825 L101.46 904.565 L109.723 902.899 L114.399 902.899 L114.399 933.524 L122.038 933.524 L122.038 937.459 L102.131 937.459 L102.131 933.524 Z" fill="#000000" fill-rule="nonzero" fill-opacity="1" /><path clip-path="url(#clip290)" d="M66.4598 625.181 Q62.8487 625.181 61.02 628.746 Q59.2145 632.288 59.2145 639.417 Q59.2145 646.524 61.02 650.088 Q62.8487 653.63 66.4598 653.63 Q70.0941 653.63 71.8996 650.088 Q73.7283 646.524 73.7283 639.417 Q73.7283 632.288 71.8996 628.746 Q70.0941 625.181 66.4598 625.181 M66.4598 621.477 Q72.27 621.477 75.3255 626.084 Q78.4042 630.667 78.4042 639.417 Q78.4042 648.144 75.3255 652.75 Q72.27 657.334 66.4598 657.334 Q60.6497 657.334 57.571 652.75 Q54.5154 648.144 54.5154 639.417 Q54.5154 630.667 57.571 626.084 Q60.6497 621.477 66.4598 621.477 Z" fill="#000000" fill-rule="nonzero" fill-opacity="1" /><path clip-path="url(#clip290)" d="M86.6218 650.783 L91.506 650.783 L91.506 656.662 L86.6218 656.662 L86.6218 650.783 Z" fill="#000000" fill-rule="nonzero" fill-opacity="1" /><path clip-path="url(#clip290)" d="M105.719 652.727 L122.038 652.727 L122.038 656.662 L100.094 656.662 L100.094 652.727 Q102.756 649.973 107.339 645.343 Q111.946 640.69 113.126 639.348 Q115.372 636.825 116.251 635.088 Q117.154 633.329 117.154 631.639 Q117.154 628.885 115.21 627.149 Q113.288 625.413 110.186 625.413 Q107.987 625.413 105.534 626.176 Q103.103 626.94 100.325 628.491 L100.325 623.769 Q103.149 622.635 105.603 622.056 Q108.057 621.477 110.094 621.477 Q115.464 621.477 118.659 624.163 Q121.853 626.848 121.853 631.338 Q121.853 633.468 121.043 635.389 Q120.256 637.288 118.149 639.88 Q117.571 640.551 114.469 643.769 Q111.367 646.963 105.719 652.727 Z" fill="#000000" fill-rule="nonzero" fill-opacity="1" /><path clip-path="url(#clip290)" d="M65.5108 344.385 Q61.8997 344.385 60.071 347.95 Q58.2654 351.491 58.2654 358.621 Q58.2654 365.727 60.071 369.292 Q61.8997 372.834 65.5108 372.834 Q69.145 372.834 70.9505 369.292 Q72.7792 365.727 72.7792 358.621 Q72.7792 351.491 70.9505 347.95 Q69.145 344.385 65.5108 344.385 M65.5108 340.681 Q71.3209 340.681 74.3765 345.288 Q77.4551 349.871 77.4551 358.621 Q77.4551 367.348 74.3765 371.954 Q71.3209 376.537 65.5108 376.537 Q59.7006 376.537 56.6219 371.954 Q53.5664 367.348 53.5664 358.621 Q53.5664 349.871 56.6219 345.288 Q59.7006 340.681 65.5108 340.681 Z" fill="#000000" fill-rule="nonzero" fill-opacity="1" /><path clip-path="url(#clip290)" d="M85.6727 369.987 L90.5569 369.987 L90.5569 375.866 L85.6727 375.866 L85.6727 369.987 Z" fill="#000000" fill-rule="nonzero" fill-opacity="1" /><path clip-path="url(#clip290)" d="M114.909 357.232 Q118.265 357.95 120.14 360.218 Q122.038 362.487 122.038 365.82 Q122.038 370.936 118.52 373.737 Q115.001 376.537 108.52 376.537 Q106.344 376.537 104.029 376.098 Q101.737 375.681 99.2837 374.824 L99.2837 370.311 Q101.228 371.445 103.543 372.024 Q105.858 372.602 108.381 372.602 Q112.779 372.602 115.071 370.866 Q117.385 369.13 117.385 365.82 Q117.385 362.764 115.233 361.051 Q113.103 359.315 109.284 359.315 L105.256 359.315 L105.256 355.473 L109.469 355.473 Q112.918 355.473 114.747 354.107 Q116.575 352.718 116.575 350.126 Q116.575 347.464 114.677 346.052 Q112.802 344.616 109.284 344.616 Q107.362 344.616 105.163 345.033 Q102.964 345.45 100.325 346.329 L100.325 342.163 Q102.987 341.422 105.302 341.052 Q107.64 340.681 109.7 340.681 Q115.024 340.681 118.126 343.112 Q121.228 345.519 121.228 349.639 Q121.228 352.51 119.585 354.501 Q117.941 356.468 114.909 357.232 Z" fill="#000000" fill-rule="nonzero" fill-opacity="1" /><path clip-path="url(#clip290)" d="M64.3765 63.5886 Q60.7654 63.5886 58.9367 67.1534 Q57.1312 70.695 57.1312 77.8246 Q57.1312 84.9311 58.9367 88.4958 Q60.7654 92.0375 64.3765 92.0375 Q68.0107 92.0375 69.8163 88.4958 Q71.645 84.9311 71.645 77.8246 Q71.645 70.695 69.8163 67.1534 Q68.0107 63.5886 64.3765 63.5886 M64.3765 59.8849 Q70.1867 59.8849 73.2422 64.4913 Q76.3209 69.0747 76.3209 77.8246 Q76.3209 86.5514 73.2422 91.1579 Q70.1867 95.7412 64.3765 95.7412 Q58.5664 95.7412 55.4877 91.1579 Q52.4321 86.5514 52.4321 77.8246 Q52.4321 69.0747 55.4877 64.4913 Q58.5664 59.8849 64.3765 59.8849 Z" fill="#000000" fill-rule="nonzero" fill-opacity="1" /><path clip-path="url(#clip290)" d="M84.5384 89.1903 L89.4227 89.1903 L89.4227 95.0699 L84.5384 95.0699 L84.5384 89.1903 Z" fill="#000000" fill-rule="nonzero" fill-opacity="1" /><path clip-path="url(#clip290)" d="M112.455 64.5839 L100.649 83.0329 L112.455 83.0329 L112.455 64.5839 M111.228 60.5099 L117.108 60.5099 L117.108 83.0329 L122.038 83.0329 L122.038 86.9218 L117.108 86.9218 L117.108 95.0699 L112.455 95.0699 L112.455 86.9218 L96.8532 86.9218 L96.8532 82.4079 L111.228 60.5099 Z" fill="#000000" fill-rule="nonzero" fill-opacity="1" /><path clip-path="url(#clip292)" d="M207.804 1160.37 L349.796 1094.64 L349.796 1200.97 L207.804 1200.97  Z" fill="#ff0000" fill-rule="evenodd" fill-opacity="1"/>
<polyline clip-path="url(#clip292)" style="stroke:#ff0000; stroke-linecap:round; stroke-linejoin:round; stroke-width:4; stroke-opacity:1; fill:none" points="207.804,1160.37 349.796,1094.64 "/>
<path clip-path="url(#clip292)" d="M349.796 1094.64 L423.331 1036.86 L423.331 1200.97 L349.796 1200.97  Z" fill="#0000ff" fill-rule="evenodd" fill-opacity="1"/>
<polyline clip-path="url(#clip292)" style="stroke:#0000ff; stroke-linecap:round; stroke-linejoin:round; stroke-width:4; stroke-opacity:1; fill:none" points="349.796,1094.64 423.331,1036.86 "/>
<path clip-path="url(#clip292)" d="M423.331 1036.86 L475.144 984.004 L475.144 1200.97 L423.331 1200.97  Z" fill="#ff0000" fill-rule="evenodd" fill-opacity="1"/>
<polyline clip-path="url(#clip292)" style="stroke:#ff0000; stroke-linecap:round; stroke-linejoin:round; stroke-width:4; stroke-opacity:1; fill:none" points="423.331,1036.86 475.144,984.004 "/>
<path clip-path="url(#clip292)" d="M475.144 984.004 L515.919 934.817 L515.919 1200.97 L475.144 1200.97  Z" fill="#0000ff" fill-rule="evenodd" fill-opacity="1"/>
<polyline clip-path="url(#clip292)" style="stroke:#0000ff; stroke-linecap:round; stroke-linejoin:round; stroke-width:4; stroke-opacity:1; fill:none" points="475.144,984.004 515.919,934.817 "/>
<path clip-path="url(#clip292)" d="M515.919 934.817 L549.936 888.612 L549.936 1200.97 L515.919 1200.97  Z" fill="#ff0000" fill-rule="evenodd" fill-opacity="1"/>
<polyline clip-path="url(#clip292)" style="stroke:#ff0000; stroke-linecap:round; stroke-linejoin:round; stroke-width:4; stroke-opacity:1; fill:none" points="515.919,934.817 549.936,888.612 "/>
<path clip-path="url(#clip292)" d="M549.936 888.612 L579.365 844.942 L579.365 1200.97 L549.936 1200.97  Z" fill="#0000ff" fill-rule="evenodd" fill-opacity="1"/>
<polyline clip-path="url(#clip292)" style="stroke:#0000ff; stroke-linecap:round; stroke-linejoin:round; stroke-width:4; stroke-opacity:1; fill:none" points="549.936,888.612 579.365,844.942 "/>
<path clip-path="url(#clip292)" d="M579.365 844.942 L605.461 803.493 L605.461 1200.97 L579.365 1200.97  Z" fill="#ff0000" fill-rule="evenodd" fill-opacity="1"/>
<polyline clip-path="url(#clip292)" style="stroke:#ff0000; stroke-linecap:round; stroke-linejoin:round; stroke-width:4; stroke-opacity:1; fill:none" points="579.365,844.942 605.461,803.493 "/>
<path clip-path="url(#clip292)" d="M605.461 803.493 L629.023 764.031 L629.023 1200.97 L605.461 1200.97  Z" fill="#0000ff" fill-rule="evenodd" fill-opacity="1"/>
<polyline clip-path="url(#clip292)" style="stroke:#0000ff; stroke-linecap:round; stroke-linejoin:round; stroke-width:4; stroke-opacity:1; fill:none" points="605.461,803.493 629.023,764.031 "/>
<path clip-path="url(#clip292)" d="M629.023 764.031 L650.589 726.377 L650.589 1200.97 L629.023 1200.97  Z" fill="#ff0000" fill-rule="evenodd" fill-opacity="1"/>
<polyline clip-path="url(#clip292)" style="stroke:#ff0000; stroke-linecap:round; stroke-linejoin:round; stroke-width:4; stroke-opacity:1; fill:none" points="629.023,764.031 650.589,726.377 "/>
<path clip-path="url(#clip292)" d="M650.589 726.377 L670.541 690.387 L670.541 1200.97 L650.589 1200.97  Z" fill="#0000ff" fill-rule="evenodd" fill-opacity="1"/>
<polyline clip-path="url(#clip292)" style="stroke:#0000ff; stroke-linecap:round; stroke-linejoin:round; stroke-width:4; stroke-opacity:1; fill:none" points="650.589,726.377 670.541,690.387 "/>
<path clip-path="url(#clip292)" d="M670.541 690.387 L689.162 655.943 L689.162 1200.97 L670.541 1200.97  Z" fill="#ff0000" fill-rule="evenodd" fill-opacity="1"/>
<polyline clip-path="url(#clip292)" style="stroke:#ff0000; stroke-linecap:round; stroke-linejoin:round; stroke-width:4; stroke-opacity:1; fill:none" points="670.541,690.387 689.162,655.943 "/>
<path clip-path="url(#clip292)" d="M689.162 655.943 L706.663 622.946 L706.663 1200.97 L689.162 1200.97  Z" fill="#0000ff" fill-rule="evenodd" fill-opacity="1"/>
<polyline clip-path="url(#clip292)" style="stroke:#0000ff; stroke-linecap:round; stroke-linejoin:round; stroke-width:4; stroke-opacity:1; fill:none" points="689.162,655.943 706.663,622.946 "/>
<path clip-path="url(#clip292)" d="M706.663 622.946 L723.211 591.314 L723.211 1200.97 L706.663 1200.97  Z" fill="#ff0000" fill-rule="evenodd" fill-opacity="1"/>
<polyline clip-path="url(#clip292)" style="stroke:#ff0000; stroke-linecap:round; stroke-linejoin:round; stroke-width:4; stroke-opacity:1; fill:none" points="706.663,622.946 723.211,591.314 "/>
<path clip-path="url(#clip292)" d="M723.211 591.314 L738.939 560.977 L738.939 1200.97 L723.211 1200.97  Z" fill="#0000ff" fill-rule="evenodd" fill-opacity="1"/>
<polyline clip-path="url(#clip292)" style="stroke:#0000ff; stroke-linecap:round; stroke-linejoin:round; stroke-width:4; stroke-opacity:1; fill:none" points="723.211,591.314 738.939,560.977 "/>
<path clip-path="url(#clip292)" d="M738.939 560.977 L753.952 531.872 L753.952 1200.97 L738.939 1200.97  Z" fill="#ff0000" fill-rule="evenodd" fill-opacity="1"/>
<polyline clip-path="url(#clip292)" style="stroke:#ff0000; stroke-linecap:round; stroke-linejoin:round; stroke-width:4; stroke-opacity:1; fill:none" points="738.939,560.977 753.952,531.872 "/>
<path clip-path="url(#clip292)" d="M753.952 531.872 L768.338 503.946 L768.338 1200.97 L753.952 1200.97  Z" fill="#0000ff" fill-rule="evenodd" fill-opacity="1"/>
<polyline clip-path="url(#clip292)" style="stroke:#0000ff; stroke-linecap:round; stroke-linejoin:round; stroke-width:4; stroke-opacity:1; fill:none" points="753.952,531.872 768.338,503.946 "/>
<path clip-path="url(#clip292)" d="M768.338 503.946 L782.17 477.152 L782.17 1200.97 L768.338 1200.97  Z" fill="#ff0000" fill-rule="evenodd" fill-opacity="1"/>
<polyline clip-path="url(#clip292)" style="stroke:#ff0000; stroke-linecap:round; stroke-linejoin:round; stroke-width:4; stroke-opacity:1; fill:none" points="768.338,503.946 782.17,477.152 "/>
<path clip-path="url(#clip292)" d="M782.17 477.152 L795.509 451.447 L795.509 1200.97 L782.17 1200.97  Z" fill="#0000ff" fill-rule="evenodd" fill-opacity="1"/>
<polyline clip-path="url(#clip292)" style="stroke:#0000ff; stroke-linecap:round; stroke-linejoin:round; stroke-width:4; stroke-opacity:1; fill:none" points="782.17,477.152 795.509,451.447 "/>
<path clip-path="url(#clip292)" d="M795.509 451.447 L808.407 426.795 L808.407 1200.97 L795.509 1200.97  Z" fill="#ff0000" fill-rule="evenodd" fill-opacity="1"/>
<polyline clip-path="url(#clip292)" style="stroke:#ff0000; stroke-linecap:round; stroke-linejoin:round; stroke-width:4; stroke-opacity:1; fill:none" points="795.509,451.447 808.407,426.795 "/>
<path clip-path="url(#clip292)" d="M808.407 426.795 L820.909 403.161 L820.909 1200.97 L808.407 1200.97  Z" fill="#0000ff" fill-rule="evenodd" fill-opacity="1"/>
<polyline clip-path="url(#clip292)" style="stroke:#0000ff; stroke-linecap:round; stroke-linejoin:round; stroke-width:4; stroke-opacity:1; fill:none" points="808.407,426.795 820.909,403.161 "/>
<path clip-path="url(#clip292)" d="M820.909 403.161 L833.053 380.516 L833.053 1200.97 L820.909 1200.97  Z" fill="#ff0000" fill-rule="evenodd" fill-opacity="1"/>
<polyline clip-path="url(#clip292)" style="stroke:#ff0000; stroke-linecap:round; stroke-linejoin:round; stroke-width:4; stroke-opacity:1; fill:none" points="820.909,403.161 833.053,380.516 "/>
<path clip-path="url(#clip292)" d="M833.053 380.516 L844.873 358.832 L844.873 1200.97 L833.053 1200.97  Z" fill="#0000ff" fill-rule="evenodd" fill-opacity="1"/>
<polyline clip-path="url(#clip292)" style="stroke:#0000ff; stroke-linecap:round; stroke-linejoin:round; stroke-width:4; stroke-opacity:1; fill:none" points="833.053,380.516 844.873,358.832 "/>
<path clip-path="url(#clip292)" d="M844.873 358.832 L856.4 338.084 L856.4 1200.97 L844.873 1200.97  Z" fill="#ff0000" fill-rule="evenodd" fill-opacity="1"/>
<polyline clip-path="url(#clip292)" style="stroke:#ff0000; stroke-linecap:round; stroke-linejoin:round; stroke-width:4; stroke-opacity:1; fill:none" points="844.873,358.832 856.4,338.084 "/>
<path clip-path="url(#clip292)" d="M856.4 338.084 L867.658 318.251 L867.658 1200.97 L856.4 1200.97  Z" fill="#0000ff" fill-rule="evenodd" fill-opacity="1"/>
<polyline clip-path="url(#clip292)" style="stroke:#0000ff; stroke-linecap:round; stroke-linejoin:round; stroke-width:4; stroke-opacity:1; fill:none" points="856.4,338.084 867.658,318.251 "/>
<path clip-path="url(#clip292)" d="M867.658 318.251 L878.671 299.311 L878.671 1200.97 L867.658 1200.97  Z" fill="#ff0000" fill-rule="evenodd" fill-opacity="1"/>
<polyline clip-path="url(#clip292)" style="stroke:#ff0000; stroke-linecap:round; stroke-linejoin:round; stroke-width:4; stroke-opacity:1; fill:none" points="867.658,318.251 878.671,299.311 "/>
<path clip-path="url(#clip292)" d="M878.671 299.311 L889.461 281.245 L889.461 1200.97 L878.671 1200.97  Z" fill="#0000ff" fill-rule="evenodd" fill-opacity="1"/>
<polyline clip-path="url(#clip292)" style="stroke:#0000ff; stroke-linecap:round; stroke-linejoin:round; stroke-width:4; stroke-opacity:1; fill:none" points="878.671,299.311 889.461,281.245 "/>
<path clip-path="url(#clip292)" d="M889.461 281.245 L900.046 264.037 L900.046 1200.97 L889.461 1200.97  Z" fill="#ff0000" fill-rule="evenodd" fill-opacity="1"/>
<polyline clip-path="url(#clip292)" style="stroke:#ff0000; stroke-linecap:round; stroke-linejoin:round; stroke-width:4; stroke-opacity:1; fill:none" points="889.461,281.245 900.046,264.037 "/>
<path clip-path="url(#clip292)" d="M900.046 264.037 L910.443 247.67 L910.443 1200.97 L900.046 1200.97  Z" fill="#0000ff" fill-rule="evenodd" fill-opacity="1"/>
<polyline clip-path="url(#clip292)" style="stroke:#0000ff; stroke-linecap:round; stroke-linejoin:round; stroke-width:4; stroke-opacity:1; fill:none" points="900.046,264.037 910.443,247.67 "/>
<path clip-path="url(#clip292)" d="M910.443 247.67 L920.667 232.131 L920.667 1200.97 L910.443 1200.97  Z" fill="#ff0000" fill-rule="evenodd" fill-opacity="1"/>
<polyline clip-path="url(#clip292)" style="stroke:#ff0000; stroke-linecap:round; stroke-linejoin:round; stroke-width:4; stroke-opacity:1; fill:none" points="910.443,247.67 920.667,232.131 "/>
<path clip-path="url(#clip292)" d="M920.667 232.131 L930.733 217.405 L930.733 1200.97 L920.667 1200.97  Z" fill="#0000ff" fill-rule="evenodd" fill-opacity="1"/>
<polyline clip-path="url(#clip292)" style="stroke:#0000ff; stroke-linecap:round; stroke-linejoin:round; stroke-width:4; stroke-opacity:1; fill:none" points="920.667,232.131 930.733,217.405 "/>
<path clip-path="url(#clip292)" d="M930.733 217.405 L940.653 203.482 L940.653 1200.97 L930.733 1200.97  Z" fill="#ff0000" fill-rule="evenodd" fill-opacity="1"/>
<polyline clip-path="url(#clip292)" style="stroke:#ff0000; stroke-linecap:round; stroke-linejoin:round; stroke-width:4; stroke-opacity:1; fill:none" points="930.733,217.405 940.653,203.482 "/>
<path clip-path="url(#clip292)" d="M940.653 203.482 L950.439 190.348 L950.439 1200.97 L940.653 1200.97  Z" fill="#0000ff" fill-rule="evenodd" fill-opacity="1"/>
<polyline clip-path="url(#clip292)" style="stroke:#0000ff; stroke-linecap:round; stroke-linejoin:round; stroke-width:4; stroke-opacity:1; fill:none" points="940.653,203.482 950.439,190.348 "/>
<path clip-path="url(#clip292)" d="M950.439 190.348 L960.103 177.995 L960.103 1200.97 L950.439 1200.97  Z" fill="#ff0000" fill-rule="evenodd" fill-opacity="1"/>
<polyline clip-path="url(#clip292)" style="stroke:#ff0000; stroke-linecap:round; stroke-linejoin:round; stroke-width:4; stroke-opacity:1; fill:none" points="950.439,190.348 960.103,177.995 "/>
<path clip-path="url(#clip292)" d="M960.103 177.995 L969.654 166.413 L969.654 1200.97 L960.103 1200.97  Z" fill="#0000ff" fill-rule="evenodd" fill-opacity="1"/>
<polyline clip-path="url(#clip292)" style="stroke:#0000ff; stroke-linecap:round; stroke-linejoin:round; stroke-width:4; stroke-opacity:1; fill:none" points="960.103,177.995 969.654,166.413 "/>
<path clip-path="url(#clip292)" d="M969.654 166.413 L979.103 155.593 L979.103 1200.97 L969.654 1200.97  Z" fill="#ff0000" fill-rule="evenodd" fill-opacity="1"/>
<polyline clip-path="url(#clip292)" style="stroke:#ff0000; stroke-linecap:round; stroke-linejoin:round; stroke-width:4; stroke-opacity:1; fill:none" points="969.654,166.413 979.103,155.593 "/>
<path clip-path="url(#clip292)" d="M979.103 155.593 L988.458 145.527 L988.458 1200.97 L979.103 1200.97  Z" fill="#0000ff" fill-rule="evenodd" fill-opacity="1"/>
<polyline clip-path="url(#clip292)" style="stroke:#0000ff; stroke-linecap:round; stroke-linejoin:round; stroke-width:4; stroke-opacity:1; fill:none" points="979.103,155.593 988.458,145.527 "/>
<path clip-path="url(#clip292)" d="M988.458 145.527 L997.727 136.209 L997.727 1200.97 L988.458 1200.97  Z" fill="#ff0000" fill-rule="evenodd" fill-opacity="1"/>
<polyline clip-path="url(#clip292)" style="stroke:#ff0000; stroke-linecap:round; stroke-linejoin:round; stroke-width:4; stroke-opacity:1; fill:none" points="988.458,145.527 997.727,136.209 "/>
<path clip-path="url(#clip292)" d="M997.727 136.209 L1006.92 127.631 L1006.92 1200.97 L997.727 1200.97  Z" fill="#0000ff" fill-rule="evenodd" fill-opacity="1"/>
<polyline clip-path="url(#clip292)" style="stroke:#0000ff; stroke-linecap:round; stroke-linejoin:round; stroke-width:4; stroke-opacity:1; fill:none" points="997.727,136.209 1006.92,127.631 "/>
<path clip-path="url(#clip292)" d="M1006.92 127.631 L1016.04 119.787 L1016.04 1200.97 L1006.92 1200.97  Z" fill="#ff0000" fill-rule="evenodd" fill-opacity="1"/>
<polyline clip-path="url(#clip292)" style="stroke:#ff0000; stroke-linecap:round; stroke-linejoin:round; stroke-width:4; stroke-opacity:1; fill:none" points="1006.92,127.631 1016.04,119.787 "/>
<path clip-path="url(#clip292)" d="M1016.04 119.787 L1025.1 112.673 L1025.1 1200.97 L1016.04 1200.97  Z" fill="#0000ff" fill-rule="evenodd" fill-opacity="1"/>
<polyline clip-path="url(#clip292)" style="stroke:#0000ff; stroke-linecap:round; stroke-linejoin:round; stroke-width:4; stroke-opacity:1; fill:none" points="1016.04,119.787 1025.1,112.673 "/>
<path clip-path="url(#clip292)" d="M1025.1 112.673 L1034.1 106.284 L1034.1 1200.97 L1025.1 1200.97  Z" fill="#ff0000" fill-rule="evenodd" fill-opacity="1"/>
<polyline clip-path="url(#clip292)" style="stroke:#ff0000; stroke-linecap:round; stroke-linejoin:round; stroke-width:4; stroke-opacity:1; fill:none" points="1025.1,112.673 1034.1,106.284 "/>
<path clip-path="url(#clip292)" d="M1034.1 106.284 L1043.05 100.615 L1043.05 1200.97 L1034.1 1200.97  Z" fill="#0000ff" fill-rule="evenodd" fill-opacity="1"/>
<polyline clip-path="url(#clip292)" style="stroke:#0000ff; stroke-linecap:round; stroke-linejoin:round; stroke-width:4; stroke-opacity:1; fill:none" points="1034.1,106.284 1043.05,100.615 "/>
<path clip-path="url(#clip292)" d="M1043.05 100.615 L1051.96 95.6619 L1051.96 1200.97 L1043.05 1200.97  Z" fill="#ff0000" fill-rule="evenodd" fill-opacity="1"/>
<polyline clip-path="url(#clip292)" style="stroke:#ff0000; stroke-linecap:round; stroke-linejoin:round; stroke-width:4; stroke-opacity:1; fill:none" points="1043.05,100.615 1051.96,95.6619 "/>
<path clip-path="url(#clip292)" d="M1051.96 95.6619 L1060.84 91.4226 L1060.84 1200.97 L1051.96 1200.97  Z" fill="#0000ff" fill-rule="evenodd" fill-opacity="1"/>
<polyline clip-path="url(#clip292)" style="stroke:#0000ff; stroke-linecap:round; stroke-linejoin:round; stroke-width:4; stroke-opacity:1; fill:none" points="1051.96,95.6619 1060.84,91.4226 "/>
<path clip-path="url(#clip292)" d="M1060.84 91.4226 L1069.68 87.894 L1069.68 1200.97 L1060.84 1200.97  Z" fill="#ff0000" fill-rule="evenodd" fill-opacity="1"/>
<polyline clip-path="url(#clip292)" style="stroke:#ff0000; stroke-linecap:round; stroke-linejoin:round; stroke-width:4; stroke-opacity:1; fill:none" points="1060.84,91.4226 1069.68,87.894 "/>
<path clip-path="url(#clip292)" d="M1069.68 87.894 L1078.5 85.0738 L1078.5 1200.97 L1069.68 1200.97  Z" fill="#0000ff" fill-rule="evenodd" fill-opacity="1"/>
<polyline clip-path="url(#clip292)" style="stroke:#0000ff; stroke-linecap:round; stroke-linejoin:round; stroke-width:4; stroke-opacity:1; fill:none" points="1069.68,87.894 1078.5,85.0738 "/>
<path clip-path="url(#clip292)" d="M1078.5 85.0738 L1087.29 82.9602 L1087.29 1200.97 L1078.5 1200.97  Z" fill="#ff0000" fill-rule="evenodd" fill-opacity="1"/>
<polyline clip-path="url(#clip292)" style="stroke:#ff0000; stroke-linecap:round; stroke-linejoin:round; stroke-width:4; stroke-opacity:1; fill:none" points="1078.5,85.0738 1087.29,82.9602 "/>
<path clip-path="url(#clip292)" d="M1087.29 82.9602 L1096.08 81.5519 L1096.08 1200.97 L1087.29 1200.97  Z" fill="#0000ff" fill-rule="evenodd" fill-opacity="1"/>
<polyline clip-path="url(#clip292)" style="stroke:#0000ff; stroke-linecap:round; stroke-linejoin:round; stroke-width:4; stroke-opacity:1; fill:none" points="1087.29,82.9602 1096.08,81.5519 "/>
<path clip-path="url(#clip292)" d="M1096.08 81.5519 L1104.85 80.8479 L1104.85 1200.97 L1096.08 1200.97  Z" fill="#ff0000" fill-rule="evenodd" fill-opacity="1"/>
<polyline clip-path="url(#clip292)" style="stroke:#ff0000; stroke-linecap:round; stroke-linejoin:round; stroke-width:4; stroke-opacity:1; fill:none" points="1096.08,81.5519 1104.85,80.8479 "/>
<path clip-path="url(#clip292)" d="M1104.85 80.8479 L1113.62 80.8479 L1113.62 1200.97 L1104.85 1200.97  Z" fill="#0000ff" fill-rule="evenodd" fill-opacity="1"/>
<polyline clip-path="url(#clip292)" style="stroke:#0000ff; stroke-linecap:round; stroke-linejoin:round; stroke-width:4; stroke-opacity:1; fill:none" points="1104.85,80.8479 1113.62,80.8479 "/>
<path clip-path="url(#clip292)" d="M1113.62 80.8479 L1122.4 81.5519 L1122.4 1200.97 L1113.62 1200.97  Z" fill="#ff0000" fill-rule="evenodd" fill-opacity="1"/>
<polyline clip-path="url(#clip292)" style="stroke:#ff0000; stroke-linecap:round; stroke-linejoin:round; stroke-width:4; stroke-opacity:1; fill:none" points="1113.62,80.8479 1122.4,81.5519 "/>
<path clip-path="url(#clip292)" d="M1122.4 81.5519 L1131.18 82.9602 L1131.18 1200.97 L1122.4 1200.97  Z" fill="#0000ff" fill-rule="evenodd" fill-opacity="1"/>
<polyline clip-path="url(#clip292)" style="stroke:#0000ff; stroke-linecap:round; stroke-linejoin:round; stroke-width:4; stroke-opacity:1; fill:none" points="1122.4,81.5519 1131.18,82.9602 "/>
<path clip-path="url(#clip292)" d="M1131.18 82.9602 L1139.98 85.0738 L1139.98 1200.97 L1131.18 1200.97  Z" fill="#ff0000" fill-rule="evenodd" fill-opacity="1"/>
<polyline clip-path="url(#clip292)" style="stroke:#ff0000; stroke-linecap:round; stroke-linejoin:round; stroke-width:4; stroke-opacity:1; fill:none" points="1131.18,82.9602 1139.98,85.0738 "/>
<path clip-path="url(#clip292)" d="M1139.98 85.0738 L1148.8 87.894 L1148.8 1200.97 L1139.98 1200.97  Z" fill="#0000ff" fill-rule="evenodd" fill-opacity="1"/>
<polyline clip-path="url(#clip292)" style="stroke:#0000ff; stroke-linecap:round; stroke-linejoin:round; stroke-width:4; stroke-opacity:1; fill:none" points="1139.98,85.0738 1148.8,87.894 "/>
<path clip-path="url(#clip292)" d="M1148.8 87.894 L1157.64 91.4226 L1157.64 1200.97 L1148.8 1200.97  Z" fill="#ff0000" fill-rule="evenodd" fill-opacity="1"/>
<polyline clip-path="url(#clip292)" style="stroke:#ff0000; stroke-linecap:round; stroke-linejoin:round; stroke-width:4; stroke-opacity:1; fill:none" points="1148.8,87.894 1157.64,91.4226 "/>
<path clip-path="url(#clip292)" d="M1157.64 91.4226 L1166.51 95.6619 L1166.51 1200.97 L1157.64 1200.97  Z" fill="#0000ff" fill-rule="evenodd" fill-opacity="1"/>
<polyline clip-path="url(#clip292)" style="stroke:#0000ff; stroke-linecap:round; stroke-linejoin:round; stroke-width:4; stroke-opacity:1; fill:none" points="1157.64,91.4226 1166.51,95.6619 "/>
<path clip-path="url(#clip292)" d="M1166.51 95.6619 L1175.42 100.615 L1175.42 1200.97 L1166.51 1200.97  Z" fill="#ff0000" fill-rule="evenodd" fill-opacity="1"/>
<polyline clip-path="url(#clip292)" style="stroke:#ff0000; stroke-linecap:round; stroke-linejoin:round; stroke-width:4; stroke-opacity:1; fill:none" points="1166.51,95.6619 1175.42,100.615 "/>
<path clip-path="url(#clip292)" d="M1175.42 100.615 L1184.37 106.284 L1184.37 1200.97 L1175.42 1200.97  Z" fill="#0000ff" fill-rule="evenodd" fill-opacity="1"/>
<polyline clip-path="url(#clip292)" style="stroke:#0000ff; stroke-linecap:round; stroke-linejoin:round; stroke-width:4; stroke-opacity:1; fill:none" points="1175.42,100.615 1184.37,106.284 "/>
<path clip-path="url(#clip292)" d="M1184.37 106.284 L1193.38 112.673 L1193.38 1200.97 L1184.37 1200.97  Z" fill="#ff0000" fill-rule="evenodd" fill-opacity="1"/>
<polyline clip-path="url(#clip292)" style="stroke:#ff0000; stroke-linecap:round; stroke-linejoin:round; stroke-width:4; stroke-opacity:1; fill:none" points="1184.37,106.284 1193.38,112.673 "/>
<path clip-path="url(#clip292)" d="M1193.38 112.673 L1202.43 119.787 L1202.43 1200.97 L1193.38 1200.97  Z" fill="#0000ff" fill-rule="evenodd" fill-opacity="1"/>
<polyline clip-path="url(#clip292)" style="stroke:#0000ff; stroke-linecap:round; stroke-linejoin:round; stroke-width:4; stroke-opacity:1; fill:none" points="1193.38,112.673 1202.43,119.787 "/>
<path clip-path="url(#clip292)" d="M1202.43 119.787 L1211.56 127.631 L1211.56 1200.97 L1202.43 1200.97  Z" fill="#ff0000" fill-rule="evenodd" fill-opacity="1"/>
<polyline clip-path="url(#clip292)" style="stroke:#ff0000; stroke-linecap:round; stroke-linejoin:round; stroke-width:4; stroke-opacity:1; fill:none" points="1202.43,119.787 1211.56,127.631 "/>
<path clip-path="url(#clip292)" d="M1211.56 127.631 L1220.75 136.209 L1220.75 1200.97 L1211.56 1200.97  Z" fill="#0000ff" fill-rule="evenodd" fill-opacity="1"/>
<polyline clip-path="url(#clip292)" style="stroke:#0000ff; stroke-linecap:round; stroke-linejoin:round; stroke-width:4; stroke-opacity:1; fill:none" points="1211.56,127.631 1220.75,136.209 "/>
<path clip-path="url(#clip292)" d="M1220.75 136.209 L1230.02 145.527 L1230.02 1200.97 L1220.75 1200.97  Z" fill="#ff0000" fill-rule="evenodd" fill-opacity="1"/>
<polyline clip-path="url(#clip292)" style="stroke:#ff0000; stroke-linecap:round; stroke-linejoin:round; stroke-width:4; stroke-opacity:1; fill:none" points="1220.75,136.209 1230.02,145.527 "/>
<path clip-path="url(#clip292)" d="M1230.02 145.527 L1239.37 155.593 L1239.37 1200.97 L1230.02 1200.97  Z" fill="#0000ff" fill-rule="evenodd" fill-opacity="1"/>
<polyline clip-path="url(#clip292)" style="stroke:#0000ff; stroke-linecap:round; stroke-linejoin:round; stroke-width:4; stroke-opacity:1; fill:none" points="1230.02,145.527 1239.37,155.593 "/>
<path clip-path="url(#clip292)" d="M1239.37 155.593 L1248.82 166.413 L1248.82 1200.97 L1239.37 1200.97  Z" fill="#ff0000" fill-rule="evenodd" fill-opacity="1"/>
<polyline clip-path="url(#clip292)" style="stroke:#ff0000; stroke-linecap:round; stroke-linejoin:round; stroke-width:4; stroke-opacity:1; fill:none" points="1239.37,155.593 1248.82,166.413 "/>
<path clip-path="url(#clip292)" d="M1248.82 166.413 L1258.37 177.995 L1258.37 1200.97 L1248.82 1200.97  Z" fill="#0000ff" fill-rule="evenodd" fill-opacity="1"/>
<polyline clip-path="url(#clip292)" style="stroke:#0000ff; stroke-linecap:round; stroke-linejoin:round; stroke-width:4; stroke-opacity:1; fill:none" points="1248.82,166.413 1258.37,177.995 "/>
<path clip-path="url(#clip292)" d="M1258.37 177.995 L1268.03 190.348 L1268.03 1200.97 L1258.37 1200.97  Z" fill="#ff0000" fill-rule="evenodd" fill-opacity="1"/>
<polyline clip-path="url(#clip292)" style="stroke:#ff0000; stroke-linecap:round; stroke-linejoin:round; stroke-width:4; stroke-opacity:1; fill:none" points="1258.37,177.995 1268.03,190.348 "/>
<path clip-path="url(#clip292)" d="M1268.03 190.348 L1277.82 203.482 L1277.82 1200.97 L1268.03 1200.97  Z" fill="#0000ff" fill-rule="evenodd" fill-opacity="1"/>
<polyline clip-path="url(#clip292)" style="stroke:#0000ff; stroke-linecap:round; stroke-linejoin:round; stroke-width:4; stroke-opacity:1; fill:none" points="1268.03,190.348 1277.82,203.482 "/>
<path clip-path="url(#clip292)" d="M1277.82 203.482 L1287.74 217.405 L1287.74 1200.97 L1277.82 1200.97  Z" fill="#ff0000" fill-rule="evenodd" fill-opacity="1"/>
<polyline clip-path="url(#clip292)" style="stroke:#ff0000; stroke-linecap:round; stroke-linejoin:round; stroke-width:4; stroke-opacity:1; fill:none" points="1277.82,203.482 1287.74,217.405 "/>
<path clip-path="url(#clip292)" d="M1287.74 217.405 L1297.81 232.131 L1297.81 1200.97 L1287.74 1200.97  Z" fill="#0000ff" fill-rule="evenodd" fill-opacity="1"/>
<polyline clip-path="url(#clip292)" style="stroke:#0000ff; stroke-linecap:round; stroke-linejoin:round; stroke-width:4; stroke-opacity:1; fill:none" points="1287.74,217.405 1297.81,232.131 "/>
<path clip-path="url(#clip292)" d="M1297.81 232.131 L1308.03 247.67 L1308.03 1200.97 L1297.81 1200.97  Z" fill="#ff0000" fill-rule="evenodd" fill-opacity="1"/>
<polyline clip-path="url(#clip292)" style="stroke:#ff0000; stroke-linecap:round; stroke-linejoin:round; stroke-width:4; stroke-opacity:1; fill:none" points="1297.81,232.131 1308.03,247.67 "/>
<path clip-path="url(#clip292)" d="M1308.03 247.67 L1318.43 264.037 L1318.43 1200.97 L1308.03 1200.97  Z" fill="#0000ff" fill-rule="evenodd" fill-opacity="1"/>
<polyline clip-path="url(#clip292)" style="stroke:#0000ff; stroke-linecap:round; stroke-linejoin:round; stroke-width:4; stroke-opacity:1; fill:none" points="1308.03,247.67 1318.43,264.037 "/>
<path clip-path="url(#clip292)" d="M1318.43 264.037 L1329.01 281.245 L1329.01 1200.97 L1318.43 1200.97  Z" fill="#ff0000" fill-rule="evenodd" fill-opacity="1"/>
<polyline clip-path="url(#clip292)" style="stroke:#ff0000; stroke-linecap:round; stroke-linejoin:round; stroke-width:4; stroke-opacity:1; fill:none" points="1318.43,264.037 1329.01,281.245 "/>
<path clip-path="url(#clip292)" d="M1329.01 281.245 L1339.8 299.311 L1339.8 1200.97 L1329.01 1200.97  Z" fill="#0000ff" fill-rule="evenodd" fill-opacity="1"/>
<polyline clip-path="url(#clip292)" style="stroke:#0000ff; stroke-linecap:round; stroke-linejoin:round; stroke-width:4; stroke-opacity:1; fill:none" points="1329.01,281.245 1339.8,299.311 "/>
<path clip-path="url(#clip292)" d="M1339.8 299.311 L1350.82 318.251 L1350.82 1200.97 L1339.8 1200.97  Z" fill="#ff0000" fill-rule="evenodd" fill-opacity="1"/>
<polyline clip-path="url(#clip292)" style="stroke:#ff0000; stroke-linecap:round; stroke-linejoin:round; stroke-width:4; stroke-opacity:1; fill:none" points="1339.8,299.311 1350.82,318.251 "/>
<path clip-path="url(#clip292)" d="M1350.82 318.251 L1362.07 338.084 L1362.07 1200.97 L1350.82 1200.97  Z" fill="#0000ff" fill-rule="evenodd" fill-opacity="1"/>
<polyline clip-path="url(#clip292)" style="stroke:#0000ff; stroke-linecap:round; stroke-linejoin:round; stroke-width:4; stroke-opacity:1; fill:none" points="1350.82,318.251 1362.07,338.084 "/>
<path clip-path="url(#clip292)" d="M1362.07 338.084 L1373.6 358.832 L1373.6 1200.97 L1362.07 1200.97  Z" fill="#ff0000" fill-rule="evenodd" fill-opacity="1"/>
<polyline clip-path="url(#clip292)" style="stroke:#ff0000; stroke-linecap:round; stroke-linejoin:round; stroke-width:4; stroke-opacity:1; fill:none" points="1362.07,338.084 1373.6,358.832 "/>
<path clip-path="url(#clip292)" d="M1373.6 358.832 L1385.42 380.516 L1385.42 1200.97 L1373.6 1200.97  Z" fill="#0000ff" fill-rule="evenodd" fill-opacity="1"/>
<polyline clip-path="url(#clip292)" style="stroke:#0000ff; stroke-linecap:round; stroke-linejoin:round; stroke-width:4; stroke-opacity:1; fill:none" points="1373.6,358.832 1385.42,380.516 "/>
<path clip-path="url(#clip292)" d="M1385.42 380.516 L1397.57 403.161 L1397.57 1200.97 L1385.42 1200.97  Z" fill="#ff0000" fill-rule="evenodd" fill-opacity="1"/>
<polyline clip-path="url(#clip292)" style="stroke:#ff0000; stroke-linecap:round; stroke-linejoin:round; stroke-width:4; stroke-opacity:1; fill:none" points="1385.42,380.516 1397.57,403.161 "/>
<path clip-path="url(#clip292)" d="M1397.57 403.161 L1410.07 426.795 L1410.07 1200.97 L1397.57 1200.97  Z" fill="#0000ff" fill-rule="evenodd" fill-opacity="1"/>
<polyline clip-path="url(#clip292)" style="stroke:#0000ff; stroke-linecap:round; stroke-linejoin:round; stroke-width:4; stroke-opacity:1; fill:none" points="1397.57,403.161 1410.07,426.795 "/>
<path clip-path="url(#clip292)" d="M1410.07 426.795 L1422.97 451.447 L1422.97 1200.97 L1410.07 1200.97  Z" fill="#ff0000" fill-rule="evenodd" fill-opacity="1"/>
<polyline clip-path="url(#clip292)" style="stroke:#ff0000; stroke-linecap:round; stroke-linejoin:round; stroke-width:4; stroke-opacity:1; fill:none" points="1410.07,426.795 1422.97,451.447 "/>
<path clip-path="url(#clip292)" d="M1422.97 451.447 L1436.3 477.152 L1436.3 1200.97 L1422.97 1200.97  Z" fill="#0000ff" fill-rule="evenodd" fill-opacity="1"/>
<polyline clip-path="url(#clip292)" style="stroke:#0000ff; stroke-linecap:round; stroke-linejoin:round; stroke-width:4; stroke-opacity:1; fill:none" points="1422.97,451.447 1436.3,477.152 "/>
<path clip-path="url(#clip292)" d="M1436.3 477.152 L1450.14 503.946 L1450.14 1200.97 L1436.3 1200.97  Z" fill="#ff0000" fill-rule="evenodd" fill-opacity="1"/>
<polyline clip-path="url(#clip292)" style="stroke:#ff0000; stroke-linecap:round; stroke-linejoin:round; stroke-width:4; stroke-opacity:1; fill:none" points="1436.3,477.152 1450.14,503.946 "/>
<path clip-path="url(#clip292)" d="M1450.14 503.946 L1464.52 531.872 L1464.52 1200.97 L1450.14 1200.97  Z" fill="#0000ff" fill-rule="evenodd" fill-opacity="1"/>
<polyline clip-path="url(#clip292)" style="stroke:#0000ff; stroke-linecap:round; stroke-linejoin:round; stroke-width:4; stroke-opacity:1; fill:none" points="1450.14,503.946 1464.52,531.872 "/>
<path clip-path="url(#clip292)" d="M1464.52 531.872 L1479.54 560.977 L1479.54 1200.97 L1464.52 1200.97  Z" fill="#ff0000" fill-rule="evenodd" fill-opacity="1"/>
<polyline clip-path="url(#clip292)" style="stroke:#ff0000; stroke-linecap:round; stroke-linejoin:round; stroke-width:4; stroke-opacity:1; fill:none" points="1464.52,531.872 1479.54,560.977 "/>
<path clip-path="url(#clip292)" d="M1479.54 560.977 L1495.26 591.314 L1495.26 1200.97 L1479.54 1200.97  Z" fill="#0000ff" fill-rule="evenodd" fill-opacity="1"/>
<polyline clip-path="url(#clip292)" style="stroke:#0000ff; stroke-linecap:round; stroke-linejoin:round; stroke-width:4; stroke-opacity:1; fill:none" points="1479.54,560.977 1495.26,591.314 "/>
<path clip-path="url(#clip292)" d="M1495.26 591.314 L1511.81 622.946 L1511.81 1200.97 L1495.26 1200.97  Z" fill="#ff0000" fill-rule="evenodd" fill-opacity="1"/>
<polyline clip-path="url(#clip292)" style="stroke:#ff0000; stroke-linecap:round; stroke-linejoin:round; stroke-width:4; stroke-opacity:1; fill:none" points="1495.26,591.314 1511.81,622.946 "/>
<path clip-path="url(#clip292)" d="M1511.81 622.946 L1529.31 655.943 L1529.31 1200.97 L1511.81 1200.97  Z" fill="#0000ff" fill-rule="evenodd" fill-opacity="1"/>
<polyline clip-path="url(#clip292)" style="stroke:#0000ff; stroke-linecap:round; stroke-linejoin:round; stroke-width:4; stroke-opacity:1; fill:none" points="1511.81,622.946 1529.31,655.943 "/>
<path clip-path="url(#clip292)" d="M1529.31 655.943 L1547.93 690.387 L1547.93 1200.97 L1529.31 1200.97  Z" fill="#ff0000" fill-rule="evenodd" fill-opacity="1"/>
<polyline clip-path="url(#clip292)" style="stroke:#ff0000; stroke-linecap:round; stroke-linejoin:round; stroke-width:4; stroke-opacity:1; fill:none" points="1529.31,655.943 1547.93,690.387 "/>
<path clip-path="url(#clip292)" d="M1547.93 690.387 L1567.89 726.377 L1567.89 1200.97 L1547.93 1200.97  Z" fill="#0000ff" fill-rule="evenodd" fill-opacity="1"/>
<polyline clip-path="url(#clip292)" style="stroke:#0000ff; stroke-linecap:round; stroke-linejoin:round; stroke-width:4; stroke-opacity:1; fill:none" points="1547.93,690.387 1567.89,726.377 "/>
<path clip-path="url(#clip292)" d="M1567.89 726.377 L1589.45 764.031 L1589.45 1200.97 L1567.89 1200.97  Z" fill="#ff0000" fill-rule="evenodd" fill-opacity="1"/>
<polyline clip-path="url(#clip292)" style="stroke:#ff0000; stroke-linecap:round; stroke-linejoin:round; stroke-width:4; stroke-opacity:1; fill:none" points="1567.89,726.377 1589.45,764.031 "/>
<path clip-path="url(#clip292)" d="M1589.45 764.031 L1613.01 803.493 L1613.01 1200.97 L1589.45 1200.97  Z" fill="#0000ff" fill-rule="evenodd" fill-opacity="1"/>
<polyline clip-path="url(#clip292)" style="stroke:#0000ff; stroke-linecap:round; stroke-linejoin:round; stroke-width:4; stroke-opacity:1; fill:none" points="1589.45,764.031 1613.01,803.493 "/>
<path clip-path="url(#clip292)" d="M1613.01 803.493 L1639.11 844.942 L1639.11 1200.97 L1613.01 1200.97  Z" fill="#ff0000" fill-rule="evenodd" fill-opacity="1"/>
<polyline clip-path="url(#clip292)" style="stroke:#ff0000; stroke-linecap:round; stroke-linejoin:round; stroke-width:4; stroke-opacity:1; fill:none" points="1613.01,803.493 1639.11,844.942 "/>
<path clip-path="url(#clip292)" d="M1639.11 844.942 L1668.54 888.612 L1668.54 1200.97 L1639.11 1200.97  Z" fill="#0000ff" fill-rule="evenodd" fill-opacity="1"/>
<polyline clip-path="url(#clip292)" style="stroke:#0000ff; stroke-linecap:round; stroke-linejoin:round; stroke-width:4; stroke-opacity:1; fill:none" points="1639.11,844.942 1668.54,888.612 "/>
<path clip-path="url(#clip292)" d="M1668.54 888.612 L1702.56 934.817 L1702.56 1200.97 L1668.54 1200.97  Z" fill="#ff0000" fill-rule="evenodd" fill-opacity="1"/>
<polyline clip-path="url(#clip292)" style="stroke:#ff0000; stroke-linecap:round; stroke-linejoin:round; stroke-width:4; stroke-opacity:1; fill:none" points="1668.54,888.612 1702.56,934.817 "/>
<path clip-path="url(#clip292)" d="M1702.56 934.817 L1743.33 984.004 L1743.33 1200.97 L1702.56 1200.97  Z" fill="#0000ff" fill-rule="evenodd" fill-opacity="1"/>
<polyline clip-path="url(#clip292)" style="stroke:#0000ff; stroke-linecap:round; stroke-linejoin:round; stroke-width:4; stroke-opacity:1; fill:none" points="1702.56,934.817 1743.33,984.004 "/>
<path clip-path="url(#clip292)" d="M1743.33 984.004 L1795.14 1036.86 L1795.14 1200.97 L1743.33 1200.97  Z" fill="#ff0000" fill-rule="evenodd" fill-opacity="1"/>
<polyline clip-path="url(#clip292)" style="stroke:#ff0000; stroke-linecap:round; stroke-linejoin:round; stroke-width:4; stroke-opacity:1; fill:none" points="1743.33,984.004 1795.14,1036.86 "/>
<path clip-path="url(#clip292)" d="M1795.14 1036.86 L1868.68 1094.64 L1868.68 1200.97 L1795.14 1200.97  Z" fill="#0000ff" fill-rule="evenodd" fill-opacity="1"/>
<polyline clip-path="url(#clip292)" style="stroke:#0000ff; stroke-linecap:round; stroke-linejoin:round; stroke-width:4; stroke-opacity:1; fill:none" points="1795.14,1036.86 1868.68,1094.64 "/>
<path clip-path="url(#clip292)" d="M1868.68 1094.64 L2010.67 1160.37 L2010.67 1200.97 L1868.68 1200.97  Z" fill="#ff0000" fill-rule="evenodd" fill-opacity="1"/>
<polyline clip-path="url(#clip292)" style="stroke:#ff0000; stroke-linecap:round; stroke-linejoin:round; stroke-width:4; stroke-opacity:1; fill:none" points="1868.68,1094.64 2010.67,1160.37 "/>
<polyline clip-path="url(#clip292)" style="stroke:#000000; stroke-linecap:round; stroke-linejoin:round; stroke-width:4; stroke-opacity:1; fill:none" points="207.804,1160.37 349.796,1094.64 423.331,1036.86 475.144,984.004 515.919,934.817 549.936,888.612 579.365,844.942 605.461,803.493 629.023,764.031 650.589,726.377 670.541,690.387 689.162,655.943 706.663,622.946 723.211,591.314 738.939,560.977 753.952,531.872 768.338,503.946 782.17,477.152 795.509,451.447 808.407,426.795 820.909,403.161 833.053,380.516 844.873,358.832 856.4,338.084 867.658,318.251 878.671,299.311 889.461,281.245 900.046,264.037 910.443,247.67 920.667,232.131 930.733,217.405 940.653,203.482 950.439,190.348 960.103,177.995 969.654,166.413 979.103,155.593 988.458,145.527 997.727,136.209 1006.92,127.631 1016.04,119.787 1025.1,112.673 1034.1,106.284 1043.05,100.615 1051.96,95.6619 1060.84,91.4226 1069.68,87.894 1078.5,85.0738 1087.29,82.9602 1096.08,81.5519 1104.85,80.8479 1113.62,80.8479 1122.4,81.5519 1131.18,82.9602 1139.98,85.0738 1148.8,87.894 1157.64,91.4226 1166.51,95.6619 1175.42,100.615 1184.37,106.284 1193.38,112.673 1202.43,119.787 1211.56,127.631 1220.75,136.209 1230.02,145.527 1239.37,155.593 1248.82,166.413 1258.37,177.995 1268.03,190.348 1277.82,203.482 1287.74,217.405 1297.81,232.131 1308.03,247.67 1318.43,264.037 1329.01,281.245 1339.8,299.311 1350.82,318.251 1362.07,338.084 1373.6,358.832 1385.42,380.516 1397.57,403.161 1410.07,426.795 1422.97,451.447 1436.3,477.152 1450.14,503.946 1464.52,531.872 1479.54,560.977 1495.26,591.314 1511.81,622.946 1529.31,655.943 1547.93,690.387 1567.89,726.377 1589.45,764.031 1613.01,803.493 1639.11,844.942 1668.54,888.612 1702.56,934.817 1743.33,984.004 1795.14,1036.86 1868.68,1094.64 2010.67,1160.37 "/>
</svg>
