<?xml version="1.0" encoding="utf-8"?>
<svg xmlns="http://www.w3.org/2000/svg" xmlns:xlink="http://www.w3.org/1999/xlink" width="528" height="336" viewBox="0 0 2112 1344">
<defs>
  <clipPath id="clip930">
    <rect x="0" y="0" width="2112" height="1344"/>
  </clipPath>
</defs>
<path clip-path="url(#clip930)" d="M0 1344 L2112 1344 L2112 2.13163e-14 L0 2.13163e-14  Z" fill="#ffffff" fill-rule="evenodd" fill-opacity="1"/>
<defs>
  <clipPath id="clip931">
    <rect x="422" y="0" width="1479" height="1344"/>
  </clipPath>
</defs>
<path clip-path="url(#clip930)" d="M146.311 1234.58 L2064.76 1234.58 L2064.76 47.2441 L146.311 47.2441  Z" fill="#ffffff" fill-rule="evenodd" fill-opacity="1"/>
<defs>
  <clipPath id="clip932">
    <rect x="146" y="47" width="1919" height="1188"/>
  </clipPath>
</defs>
<polyline clip-path="url(#clip932)" style="stroke:#000000; stroke-linecap:round; stroke-linejoin:round; stroke-width:2; stroke-opacity:0.1; fill:none" points="433.448,1234.58 433.448,47.2441 "/>
<polyline clip-path="url(#clip932)" style="stroke:#000000; stroke-linecap:round; stroke-linejoin:round; stroke-width:2; stroke-opacity:0.1; fill:none" points="769.488,1234.58 769.488,47.2441 "/>
<polyline clip-path="url(#clip932)" style="stroke:#000000; stroke-linecap:round; stroke-linejoin:round; stroke-width:2; stroke-opacity:0.1; fill:none" points="1105.53,1234.58 1105.53,47.2441 "/>
<polyline clip-path="url(#clip932)" style="stroke:#000000; stroke-linecap:round; stroke-linejoin:round; stroke-width:2; stroke-opacity:0.1; fill:none" points="1441.57,1234.58 1441.57,47.2441 "/>
<polyline clip-path="url(#clip932)" style="stroke:#000000; stroke-linecap:round; stroke-linejoin:round; stroke-width:2; stroke-opacity:0.1; fill:none" points="1777.61,1234.58 1777.61,47.2441 "/>
<polyline clip-path="url(#clip932)" style="stroke:#000000; stroke-linecap:round; stroke-linejoin:round; stroke-width:2; stroke-opacity:0.1; fill:none" points="146.311,1088.96 2064.76,1088.96 "/>
<polyline clip-path="url(#clip932)" style="stroke:#000000; stroke-linecap:round; stroke-linejoin:round; stroke-width:2; stroke-opacity:0.1; fill:none" points="146.311,864.938 2064.76,864.938 "/>
<polyline clip-path="url(#clip932)" style="stroke:#000000; stroke-linecap:round; stroke-linejoin:round; stroke-width:2; stroke-opacity:0.1; fill:none" points="146.311,640.911 2064.76,640.911 "/>
<polyline clip-path="url(#clip932)" style="stroke:#000000; stroke-linecap:round; stroke-linejoin:round; stroke-width:2; stroke-opacity:0.1; fill:none" points="146.311,416.885 2064.76,416.885 "/>
<polyline clip-path="url(#clip932)" style="stroke:#000000; stroke-linecap:round; stroke-linejoin:round; stroke-width:2; stroke-opacity:0.1; fill:none" points="146.311,192.858 2064.76,192.858 "/>
<polyline clip-path="url(#clip930)" style="stroke:#000000; stroke-linecap:round; stroke-linejoin:round; stroke-width:4; stroke-opacity:1; fill:none" points="146.311,1234.58 2064.76,1234.58 "/>
<polyline clip-path="url(#clip930)" style="stroke:#000000; stroke-linecap:round; stroke-linejoin:round; stroke-width:4; stroke-opacity:1; fill:none" points="433.448,1234.58 433.448,1215.68 "/>
<polyline clip-path="url(#clip930)" style="stroke:#000000; stroke-linecap:round; stroke-linejoin:round; stroke-width:4; stroke-opacity:1; fill:none" points="769.488,1234.58 769.488,1215.68 "/>
<polyline clip-path="url(#clip930)" style="stroke:#000000; stroke-linecap:round; stroke-linejoin:round; stroke-width:4; stroke-opacity:1; fill:none" points="1105.53,1234.58 1105.53,1215.68 "/>
<polyline clip-path="url(#clip930)" style="stroke:#000000; stroke-linecap:round; stroke-linejoin:round; stroke-width:4; stroke-opacity:1; fill:none" points="1441.57,1234.58 1441.57,1215.68 "/>
<polyline clip-path="url(#clip930)" style="stroke:#000000; stroke-linecap:round; stroke-linejoin:round; stroke-width:4; stroke-opacity:1; fill:none" points="1777.61,1234.58 1777.61,1215.68 "/>
<path clip-path="url(#clip930)" d="M402.511 1277.85 L432.187 1277.85 L432.187 1281.78 L402.511 1281.78 L402.511 1277.85 Z" fill="#000000" fill-rule="nonzero" fill-opacity="1" /><path clip-path="url(#clip930)" d="M452.858 1275.53 Q449.71 1275.53 447.858 1277.68 Q446.029 1279.84 446.029 1283.59 Q446.029 1287.31 447.858 1289.49 Q449.71 1291.64 452.858 1291.64 Q456.006 1291.64 457.835 1289.49 Q459.687 1287.31 459.687 1283.59 Q459.687 1279.84 457.835 1277.68 Q456.006 1275.53 452.858 1275.53 M462.14 1260.88 L462.14 1265.14 Q460.381 1264.3 458.575 1263.86 Q456.793 1263.42 455.034 1263.42 Q450.404 1263.42 447.951 1266.55 Q445.52 1269.67 445.173 1275.99 Q446.538 1273.98 448.599 1272.92 Q450.659 1271.83 453.136 1271.83 Q458.344 1271.83 461.353 1275 Q464.386 1278.15 464.386 1283.59 Q464.386 1288.91 461.237 1292.13 Q458.089 1295.35 452.858 1295.35 Q446.863 1295.35 443.691 1290.76 Q440.52 1286.16 440.52 1277.43 Q440.52 1269.24 444.409 1264.37 Q448.298 1259.49 454.849 1259.49 Q456.608 1259.49 458.39 1259.84 Q460.196 1260.18 462.14 1260.88 Z" fill="#000000" fill-rule="nonzero" fill-opacity="1" /><path clip-path="url(#clip930)" d="M738.956 1277.85 L768.632 1277.85 L768.632 1281.78 L738.956 1281.78 L738.956 1277.85 Z" fill="#000000" fill-rule="nonzero" fill-opacity="1" /><path clip-path="url(#clip930)" d="M792.891 1276.04 Q796.247 1276.76 798.122 1279.03 Q800.02 1281.3 800.02 1284.63 Q800.02 1289.74 796.502 1292.55 Q792.983 1295.35 786.502 1295.35 Q784.326 1295.35 782.011 1294.91 Q779.719 1294.49 777.266 1293.63 L777.266 1289.12 Q779.21 1290.25 781.525 1290.83 Q783.84 1291.41 786.363 1291.41 Q790.761 1291.41 793.053 1289.67 Q795.368 1287.94 795.368 1284.63 Q795.368 1281.57 793.215 1279.86 Q791.085 1278.12 787.266 1278.12 L783.238 1278.12 L783.238 1274.28 L787.451 1274.28 Q790.9 1274.28 792.729 1272.92 Q794.557 1271.53 794.557 1268.93 Q794.557 1266.27 792.659 1264.86 Q790.784 1263.42 787.266 1263.42 Q785.344 1263.42 783.145 1263.84 Q780.946 1264.26 778.307 1265.14 L778.307 1260.97 Q780.969 1260.23 783.284 1259.86 Q785.622 1259.49 787.682 1259.49 Q793.006 1259.49 796.108 1261.92 Q799.21 1264.33 799.21 1268.45 Q799.21 1271.32 797.567 1273.31 Q795.923 1275.28 792.891 1276.04 Z" fill="#000000" fill-rule="nonzero" fill-opacity="1" /><path clip-path="url(#clip930)" d="M1105.53 1263.19 Q1101.92 1263.19 1100.09 1266.76 Q1098.28 1270.3 1098.28 1277.43 Q1098.28 1284.54 1100.09 1288.1 Q1101.92 1291.64 1105.53 1291.64 Q1109.16 1291.64 1110.97 1288.1 Q1112.8 1284.54 1112.8 1277.43 Q1112.8 1270.3 1110.97 1266.76 Q1109.16 1263.19 1105.53 1263.19 M1105.53 1259.49 Q1111.34 1259.49 1114.39 1264.1 Q1117.47 1268.68 1117.47 1277.43 Q1117.47 1286.16 1114.39 1290.76 Q1111.34 1295.35 1105.53 1295.35 Q1099.72 1295.35 1096.64 1290.76 Q1093.58 1286.16 1093.58 1277.43 Q1093.58 1268.68 1096.64 1264.1 Q1099.72 1259.49 1105.53 1259.49 Z" fill="#000000" fill-rule="nonzero" fill-opacity="1" /><path clip-path="url(#clip930)" d="M1445.82 1276.04 Q1449.17 1276.76 1451.05 1279.03 Q1452.94 1281.3 1452.94 1284.63 Q1452.94 1289.74 1449.43 1292.55 Q1445.91 1295.35 1439.43 1295.35 Q1437.25 1295.35 1434.94 1294.91 Q1432.64 1294.49 1430.19 1293.63 L1430.19 1289.12 Q1432.13 1290.25 1434.45 1290.83 Q1436.76 1291.41 1439.29 1291.41 Q1443.69 1291.41 1445.98 1289.67 Q1448.29 1287.94 1448.29 1284.63 Q1448.29 1281.57 1446.14 1279.86 Q1444.01 1278.12 1440.19 1278.12 L1436.16 1278.12 L1436.16 1274.28 L1440.38 1274.28 Q1443.82 1274.28 1445.65 1272.92 Q1447.48 1271.53 1447.48 1268.93 Q1447.48 1266.27 1445.58 1264.86 Q1443.71 1263.42 1440.19 1263.42 Q1438.27 1263.42 1436.07 1263.84 Q1433.87 1264.26 1431.23 1265.14 L1431.23 1260.97 Q1433.89 1260.23 1436.21 1259.86 Q1438.55 1259.49 1440.61 1259.49 Q1445.93 1259.49 1449.03 1261.92 Q1452.13 1264.33 1452.13 1268.45 Q1452.13 1271.32 1450.49 1273.31 Q1448.85 1275.28 1445.82 1276.04 Z" fill="#000000" fill-rule="nonzero" fill-opacity="1" /><path clip-path="url(#clip930)" d="M1778.01 1275.53 Q1774.86 1275.53 1773.01 1277.68 Q1771.18 1279.84 1771.18 1283.59 Q1771.18 1287.31 1773.01 1289.49 Q1774.86 1291.64 1778.01 1291.64 Q1781.16 1291.64 1782.99 1289.49 Q1784.84 1287.31 1784.84 1283.59 Q1784.84 1279.84 1782.99 1277.68 Q1781.16 1275.53 1778.01 1275.53 M1787.29 1260.88 L1787.29 1265.14 Q1785.54 1264.3 1783.73 1263.86 Q1781.95 1263.42 1780.19 1263.42 Q1775.56 1263.42 1773.11 1266.55 Q1770.67 1269.67 1770.33 1275.99 Q1771.69 1273.98 1773.75 1272.92 Q1775.81 1271.83 1778.29 1271.83 Q1783.5 1271.83 1786.51 1275 Q1789.54 1278.15 1789.54 1283.59 Q1789.54 1288.91 1786.39 1292.13 Q1783.24 1295.35 1778.01 1295.35 Q1772.02 1295.35 1768.85 1290.76 Q1765.67 1286.16 1765.67 1277.43 Q1765.67 1269.24 1769.56 1264.37 Q1773.45 1259.49 1780 1259.49 Q1781.76 1259.49 1783.54 1259.84 Q1785.35 1260.18 1787.29 1260.88 Z" fill="#000000" fill-rule="nonzero" fill-opacity="1" /><polyline clip-path="url(#clip930)" style="stroke:#000000; stroke-linecap:round; stroke-linejoin:round; stroke-width:4; stroke-opacity:1; fill:none" points="146.311,1234.58 146.311,47.2441 "/>
<polyline clip-path="url(#clip930)" style="stroke:#000000; stroke-linecap:round; stroke-linejoin:round; stroke-width:4; stroke-opacity:1; fill:none" points="146.311,1088.96 165.209,1088.96 "/>
<polyline clip-path="url(#clip930)" style="stroke:#000000; stroke-linecap:round; stroke-linejoin:round; stroke-width:4; stroke-opacity:1; fill:none" points="146.311,864.938 165.209,864.938 "/>
<polyline clip-path="url(#clip930)" style="stroke:#000000; stroke-linecap:round; stroke-linejoin:round; stroke-width:4; stroke-opacity:1; fill:none" points="146.311,640.911 165.209,640.911 "/>
<polyline clip-path="url(#clip930)" style="stroke:#000000; stroke-linecap:round; stroke-linejoin:round; stroke-width:4; stroke-opacity:1; fill:none" points="146.311,416.885 165.209,416.885 "/>
<polyline clip-path="url(#clip930)" style="stroke:#000000; stroke-linecap:round; stroke-linejoin:round; stroke-width:4; stroke-opacity:1; fill:none" points="146.311,192.858 165.209,192.858 "/>
<path clip-path="url(#clip930)" d="M52.4321 1089.42 L82.1079 1089.42 L82.1079 1093.35 L52.4321 1093.35 L52.4321 1089.42 Z" fill="#000000" fill-rule="nonzero" fill-opacity="1" /><path clip-path="url(#clip930)" d="M105.048 1075.76 L93.2421 1094.21 L105.048 1094.21 L105.048 1075.76 M103.821 1071.68 L109.7 1071.68 L109.7 1094.21 L114.631 1094.21 L114.631 1098.1 L109.7 1098.1 L109.7 1106.24 L105.048 1106.24 L105.048 1098.1 L89.4458 1098.1 L89.4458 1093.58 L103.821 1071.68 Z" fill="#000000" fill-rule="nonzero" fill-opacity="1" /><path clip-path="url(#clip930)" d="M54.5154 865.389 L84.1912 865.389 L84.1912 869.325 L54.5154 869.325 L54.5154 865.389 Z" fill="#000000" fill-rule="nonzero" fill-opacity="1" /><path clip-path="url(#clip930)" d="M98.3115 878.283 L114.631 878.283 L114.631 882.218 L92.6865 882.218 L92.6865 878.283 Q95.3486 875.528 99.9319 870.899 Q104.538 866.246 105.719 864.903 Q107.964 862.38 108.844 860.644 Q109.747 858.885 109.747 857.195 Q109.747 854.44 107.802 852.704 Q105.881 850.968 102.779 850.968 Q100.58 850.968 98.1263 851.732 Q95.6958 852.496 92.918 854.047 L92.918 849.325 Q95.7421 848.19 98.1958 847.612 Q100.649 847.033 102.686 847.033 Q108.057 847.033 111.251 849.718 Q114.446 852.403 114.446 856.894 Q114.446 859.024 113.636 860.945 Q112.848 862.843 110.742 865.436 Q110.163 866.107 107.061 869.325 Q103.96 872.519 98.3115 878.283 Z" fill="#000000" fill-rule="nonzero" fill-opacity="1" /><path clip-path="url(#clip930)" d="M102.686 626.71 Q99.0754 626.71 97.2467 630.275 Q95.4412 633.817 95.4412 640.946 Q95.4412 648.053 97.2467 651.617 Q99.0754 655.159 102.686 655.159 Q106.321 655.159 108.126 651.617 Q109.955 648.053 109.955 640.946 Q109.955 633.817 108.126 630.275 Q106.321 626.71 102.686 626.71 M102.686 623.006 Q108.497 623.006 111.552 627.613 Q114.631 632.196 114.631 640.946 Q114.631 649.673 111.552 654.279 Q108.497 658.863 102.686 658.863 Q96.8763 658.863 93.7976 654.279 Q90.7421 649.673 90.7421 640.946 Q90.7421 632.196 93.7976 627.613 Q96.8763 623.006 102.686 623.006 Z" fill="#000000" fill-rule="nonzero" fill-opacity="1" /><path clip-path="url(#clip930)" d="M98.3115 430.23 L114.631 430.23 L114.631 434.165 L92.6865 434.165 L92.6865 430.23 Q95.3486 427.475 99.9319 422.846 Q104.538 418.193 105.719 416.85 Q107.964 414.327 108.844 412.591 Q109.747 410.832 109.747 409.142 Q109.747 406.387 107.802 404.651 Q105.881 402.915 102.779 402.915 Q100.58 402.915 98.1263 403.679 Q95.6958 404.443 92.918 405.994 L92.918 401.272 Q95.7421 400.137 98.1958 399.559 Q100.649 398.98 102.686 398.98 Q108.057 398.98 111.251 401.665 Q114.446 404.35 114.446 408.841 Q114.446 410.971 113.636 412.892 Q112.848 414.79 110.742 417.383 Q110.163 418.054 107.061 421.271 Q103.96 424.466 98.3115 430.23 Z" fill="#000000" fill-rule="nonzero" fill-opacity="1" /><path clip-path="url(#clip930)" d="M105.048 179.652 L93.2421 198.101 L105.048 198.101 L105.048 179.652 M103.821 175.578 L109.7 175.578 L109.7 198.101 L114.631 198.101 L114.631 201.99 L109.7 201.99 L109.7 210.138 L105.048 210.138 L105.048 201.99 L89.4458 201.99 L89.4458 197.476 L103.821 175.578 Z" fill="#000000" fill-rule="nonzero" fill-opacity="1" /><path clip-path="url(#clip932)" d="M1665.59 640.911 L1665.55 633.86 L1665.42 626.809 L1665.19 619.76 L1664.88 612.715 L1664.48 605.674 L1664 598.639 L1663.42 591.611 L1662.76 584.59 L1662 577.578 L1661.16 570.577 L1660.23 563.586 L1659.21 556.608 L1658.11 549.643 L1656.91 542.693 L1655.63 535.758 L1654.27 528.839 L1652.81 521.939 L1651.27 515.058 L1649.64 508.196 L1647.93 501.355 L1646.13 494.537 L1644.24 487.742 L1642.27 480.971 L1640.21 474.225 L1638.07 467.506 L1635.85 460.814 L1633.54 454.151 L1631.14 447.518 L1628.67 440.915 L1626.11 434.344 L1623.47 427.806 L1620.74 421.301 L1617.94 414.831 L1615.05 408.397 L1612.08 402 L1609.03 395.641 L1605.9 389.321 L1602.7 383.04 L1599.41 376.801 L1596.05 370.603 L1592.6 364.448 L1589.08 358.337 L1585.49 352.271 L1581.81 346.251 L1578.07 340.277 L1574.24 334.351 L1570.35 328.474 L1566.38 322.646 L1562.33 316.868 L1558.22 311.142 L1554.03 305.469 L1549.77 299.848 L1545.44 294.282 L1541.04 288.77 L1536.57 283.314 L1532.03 277.915 L1527.43 272.574 L1522.76 267.291 L1518.02 262.067 L1513.22 256.903 L1508.35 251.8 L1503.42 246.759 L1498.43 241.78 L1493.37 236.865 L1488.25 232.014 L1483.07 227.227 L1477.83 222.506 L1472.54 217.852 L1467.18 213.264 L1461.77 208.744 L1456.3 204.293 L1450.77 199.911 L1445.19 195.599 L1439.56 191.358 L1433.87 187.187 L1428.13 183.089 L1422.34 179.063 L1416.5 175.111 L1410.61 171.232 L1404.67 167.428 L1398.69 163.699 L1392.66 160.046 L1386.58 156.469 L1380.46 152.968 L1374.29 149.545 L1368.08 146.2 L1361.83 142.933 L1355.54 139.746 L1349.21 136.637 L1342.84 133.609 L1336.44 130.661 L1329.99 127.794 L1323.52 125.009 L1317 122.305 L1310.46 119.683 L1303.88 117.144 L1297.27 114.688 L1290.62 112.316 L1283.95 110.027 L1277.26 107.823 L1270.53 105.703 L1263.78 103.667 L1257 101.717 L1250.2 99.853 L1243.38 98.0742 L1236.53 96.3816 L1229.66 94.7753 L1222.78 93.2556 L1215.87 91.8227 L1208.95 90.4768 L1202.01 89.2183 L1195.06 88.0472 L1188.09 86.9637 L1181.11 85.9681 L1174.11 85.0605 L1167.11 84.241 L1160.09 83.5097 L1153.07 82.8668 L1146.04 82.3124 L1139.01 81.8466 L1131.96 81.4694 L1124.92 81.1809 L1117.87 80.9811 L1110.82 80.8701 L1103.76 80.8479 L1096.71 80.9145 L1089.66 81.0699 L1082.61 81.314 L1075.57 81.6469 L1068.53 82.0684 L1061.5 82.5786 L1054.47 83.1772 L1047.45 83.8643 L1040.44 84.6397 L1033.44 85.5033 L1026.46 86.4549 L1019.48 87.4945 L1012.52 88.6218 L1005.57 89.8366 L998.643 91.1389 L991.729 92.5283 L984.833 94.0046 L977.957 95.5676 L971.1 97.2172 L964.265 98.9529 L957.452 100.774 L950.663 102.682 L943.898 104.674 L937.159 106.752 L930.447 108.914 L923.762 111.161 L917.107 113.492 L910.481 115.906 L903.886 118.403 L897.323 120.984 L890.793 123.646 L884.297 126.391 L877.836 129.218 L871.411 132.125 L865.023 135.113 L858.674 138.182 L852.363 141.33 L846.093 144.557 L839.864 147.863 L833.677 151.247 L827.533 154.709 L821.433 158.248 L815.378 161.863 L809.369 165.554 L803.408 169.321 L797.494 173.162 L791.629 177.078 L785.813 181.067 L780.049 185.129 L774.335 189.263 L768.675 193.469 L763.068 197.746 L757.515 202.093 L752.017 206.51 L746.576 210.996 L741.191 215.549 L735.864 220.171 L730.596 224.858 L725.387 229.612 L720.238 234.431 L715.151 239.315 L710.125 244.262 L705.162 249.272 L700.263 254.344 L695.427 259.478 L690.657 264.671 L685.953 269.925 L681.315 275.237 L676.744 280.608 L672.241 286.035 L667.807 291.519 L663.443 297.058 L659.148 302.652 L654.925 308.299 L650.772 313.999 L646.692 319.751 L642.685 325.554 L638.751 331.406 L634.891 337.308 L631.105 343.258 L627.395 349.255 L623.761 355.299 L620.203 361.387 L616.722 367.52 L613.318 373.697 L609.992 379.915 L606.745 386.176 L603.578 392.476 L600.489 398.816 L597.481 405.194 L594.553 411.61 L591.707 418.062 L588.941 424.549 L586.258 431.071 L583.657 437.625 L581.139 444.213 L578.704 450.831 L576.352 457.479 L574.084 464.157 L571.901 470.862 L569.802 477.595 L567.788 484.353 L565.86 491.136 L564.017 497.943 L562.259 504.773 L560.588 511.624 L559.004 518.496 L557.506 525.387 L556.094 532.296 L554.77 539.223 L553.534 546.166 L552.384 553.124 L551.323 560.095 L550.349 567.08 L549.464 574.076 L548.666 581.083 L547.957 588.099 L547.336 595.124 L546.804 602.156 L546.36 609.194 L546.005 616.237 L545.739 623.284 L545.561 630.334 L545.473 637.385 L545.473 644.437 L545.561 651.489 L545.739 658.539 L546.005 665.586 L546.36 672.629 L546.804 679.667 L547.336 686.699 L547.957 693.724 L548.666 700.74 L549.464 707.747 L550.349 714.743 L551.323 721.728 L552.384 728.699 L553.534 735.657 L554.77 742.6 L556.094 749.526 L557.506 756.436 L559.004 763.327 L560.588 770.199 L562.259 777.05 L564.017 783.88 L565.86 790.686 L567.788 797.47 L569.802 804.228 L571.901 810.961 L574.084 817.666 L576.352 824.344 L578.704 830.992 L581.139 837.61 L583.657 844.197 L586.258 850.752 L588.941 857.274 L591.707 863.761 L594.553 870.213 L597.481 876.629 L600.489 883.007 L603.578 889.347 L606.745 895.647 L609.992 901.907 L613.318 908.126 L616.722 914.303 L620.203 920.435 L623.761 926.524 L627.395 932.568 L631.105 938.565 L634.891 944.515 L638.751 950.417 L642.685 956.269 L646.692 962.072 L650.772 967.824 L654.925 973.524 L659.148 979.171 L663.443 984.765 L667.807 990.304 L672.241 995.788 L676.744 1001.22 L681.315 1006.59 L685.953 1011.9 L690.657 1017.15 L695.427 1022.35 L700.263 1027.48 L705.162 1032.55 L710.125 1037.56 L715.151 1042.51 L720.238 1047.39 L725.387 1052.21 L730.596 1056.96 L735.864 1061.65 L741.191 1066.27 L746.576 1070.83 L752.017 1075.31 L757.515 1079.73 L763.068 1084.08 L768.675 1088.35 L774.335 1092.56 L780.049 1096.69 L785.813 1100.76 L791.629 1104.74 L797.494 1108.66 L803.408 1112.5 L809.369 1116.27 L815.378 1119.96 L821.433 1123.58 L827.533 1127.11 L833.677 1130.58 L839.864 1133.96 L846.093 1137.27 L852.363 1140.49 L858.674 1143.64 L865.023 1146.71 L871.411 1149.7 L877.836 1152.61 L884.297 1155.43 L890.793 1158.18 L897.323 1160.84 L903.886 1163.42 L910.481 1165.92 L917.107 1168.33 L923.762 1170.66 L930.447 1172.91 L937.159 1175.07 L943.898 1177.15 L950.663 1179.14 L957.452 1181.05 L964.265 1182.87 L971.1 1184.61 L977.957 1186.26 L984.833 1187.82 L991.729 1189.29 L998.643 1190.68 L1005.57 1191.99 L1012.52 1193.2 L1019.48 1194.33 L1026.46 1195.37 L1033.44 1196.32 L1040.44 1197.18 L1047.45 1197.96 L1054.47 1198.65 L1061.5 1199.24 L1068.53 1199.75 L1075.57 1200.18 L1082.61 1200.51 L1089.66 1200.75 L1096.71 1200.91 L1103.76 1200.97 L1110.82 1200.95 L1117.87 1200.84 L1124.92 1200.64 L1131.96 1200.35 L1139.01 1199.98 L1146.04 1199.51 L1153.07 1198.96 L1160.09 1198.31 L1167.11 1197.58 L1174.11 1196.76 L1181.11 1195.85 L1188.09 1194.86 L1195.06 1193.78 L1202.01 1192.6 L1208.95 1191.35 L1215.87 1190 L1222.78 1188.57 L1229.66 1187.05 L1236.53 1185.44 L1243.38 1183.75 L1250.2 1181.97 L1257 1180.11 L1263.78 1178.16 L1270.53 1176.12 L1277.26 1174 L1283.95 1171.8 L1290.62 1169.51 L1297.27 1167.13 L1303.88 1164.68 L1310.46 1162.14 L1317 1159.52 L1323.52 1156.81 L1329.99 1154.03 L1336.44 1151.16 L1342.84 1148.21 L1349.21 1145.19 L1355.54 1142.08 L1361.83 1138.89 L1368.08 1135.62 L1374.29 1132.28 L1380.46 1128.85 L1386.58 1125.35 L1392.66 1121.78 L1398.69 1118.12 L1404.67 1114.39 L1410.61 1110.59 L1416.5 1106.71 L1422.34 1102.76 L1428.13 1098.73 L1433.87 1094.64 L1439.56 1090.47 L1445.19 1086.22 L1450.77 1081.91 L1456.3 1077.53 L1461.77 1073.08 L1467.18 1068.56 L1472.54 1063.97 L1477.83 1059.32 L1483.07 1054.6 L1488.25 1049.81 L1493.37 1044.96 L1498.43 1040.04 L1503.42 1035.06 L1508.35 1030.02 L1513.22 1024.92 L1518.02 1019.76 L1522.76 1014.53 L1527.43 1009.25 L1532.03 1003.91 L1536.57 998.509 L1541.04 993.053 L1545.44 987.541 L1549.77 981.975 L1554.03 976.354 L1558.22 970.68 L1562.33 964.954 L1566.38 959.177 L1570.35 953.349 L1574.24 947.472 L1578.07 941.546 L1581.81 935.572 L1585.49 929.552 L1589.08 923.485 L1592.6 917.374 L1596.05 911.22 L1599.41 905.022 L1602.7 898.783 L1605.9 892.502 L1609.03 886.182 L1612.08 879.823 L1615.05 873.426 L1617.94 866.992 L1620.74 860.522 L1623.47 854.017 L1626.11 847.479 L1628.67 840.908 L1631.14 834.305 L1633.54 827.672 L1635.85 821.008 L1638.07 814.317 L1640.21 807.598 L1642.27 800.852 L1644.24 794.081 L1646.13 787.286 L1647.93 780.467 L1649.64 773.627 L1651.27 766.765 L1652.81 759.884 L1654.27 752.983 L1655.63 746.065 L1656.91 739.13 L1658.11 732.18 L1659.21 725.215 L1660.23 718.237 L1661.16 711.246 L1662 704.245 L1662.76 697.233 L1663.42 690.212 L1664 683.184 L1664.48 676.149 L1664.88 669.108 L1665.19 662.063 L1665.42 655.014 L1665.55 647.963 L1665.59 640.911 L1665.59 640.911 L1665.55 640.911 L1665.42 640.911 L1665.19 640.911 L1664.88 640.911 L1664.48 640.911 L1664 640.911 L1663.42 640.911 L1662.76 640.911 L1662 640.911 L1661.16 640.911 L1660.23 640.911 L1659.21 640.911 L1658.11 640.911 L1656.91 640.911 L1655.63 640.911 L1654.27 640.911 L1652.81 640.911 L1651.27 640.911 L1649.64 640.911 L1647.93 640.911 L1646.13 640.911 L1644.24 640.911 L1642.27 640.911 L1640.21 640.911 L1638.07 640.911 L1635.85 640.911 L1633.54 640.911 L1631.14 640.911 L1628.67 640.911 L1626.11 640.911 L1623.47 640.911 L1620.74 640.911 L1617.94 640.911 L1615.05 640.911 L1612.08 640.911 L1609.03 640.911 L1605.9 640.911 L1602.7 640.911 L1599.41 640.911 L1596.05 640.911 L1592.6 640.911 L1589.08 640.911 L1585.49 640.911 L1581.81 640.911 L1578.07 640.911 L1574.24 640.911 L1570.35 640.911 L1566.38 640.911 L1562.33 640.911 L1558.22 640.911 L1554.03 640.911 L1549.77 640.911 L1545.44 640.911 L1541.04 640.911 L1536.57 640.911 L1532.03 640.911 L1527.43 640.911 L1522.76 640.911 L1518.02 640.911 L1513.22 640.911 L1508.35 640.911 L1503.42 640.911 L1498.43 640.911 L1493.37 640.911 L1488.25 640.911 L1483.07 640.911 L1477.83 640.911 L1472.54 640.911 L1467.18 640.911 L1461.77 640.911 L1456.3 640.911 L1450.77 640.911 L1445.19 640.911 L1439.56 640.911 L1433.87 640.911 L1428.13 640.911 L1422.34 640.911 L1416.5 640.911 L1410.61 640.911 L1404.67 640.911 L1398.69 640.911 L1392.66 640.911 L1386.58 640.911 L1380.46 640.911 L1374.29 640.911 L1368.08 640.911 L1361.83 640.911 L1355.54 640.911 L1349.21 640.911 L1342.84 640.911 L1336.44 640.911 L1329.99 640.911 L1323.52 640.911 L1317 640.911 L1310.46 640.911 L1303.88 640.911 L1297.27 640.911 L1290.62 640.911 L1283.95 640.911 L1277.26 640.911 L1270.53 640.911 L1263.78 640.911 L1257 640.911 L1250.2 640.911 L1243.38 640.911 L1236.53 640.911 L1229.66 640.911 L1222.78 640.911 L1215.87 640.911 L1208.95 640.911 L1202.01 640.911 L1195.06 640.911 L1188.09 640.911 L1181.11 640.911 L1174.11 640.911 L1167.11 640.911 L1160.09 640.911 L1153.07 640.911 L1146.04 640.911 L1139.01 640.911 L1131.96 640.911 L1124.92 640.911 L1117.87 640.911 L1110.82 640.911 L1103.76 640.911 L1096.71 640.911 L1089.66 640.911 L1082.61 640.911 L1075.57 640.911 L1068.53 640.911 L1061.5 640.911 L1054.47 640.911 L1047.45 640.911 L1040.44 640.911 L1033.44 640.911 L1026.46 640.911 L1019.48 640.911 L1012.52 640.911 L1005.57 640.911 L998.643 640.911 L991.729 640.911 L984.833 640.911 L977.957 640.911 L971.1 640.911 L964.265 640.911 L957.452 640.911 L950.663 640.911 L943.898 640.911 L937.159 640.911 L930.447 640.911 L923.762 640.911 L917.107 640.911 L910.481 640.911 L903.886 640.911 L897.323 640.911 L890.793 640.911 L884.297 640.911 L877.836 640.911 L871.411 640.911 L865.023 640.911 L858.674 640.911 L852.363 640.911 L846.093 640.911 L839.864 640.911 L833.677 640.911 L827.533 640.911 L821.433 640.911 L815.378 640.911 L809.369 640.911 L803.408 640.911 L797.494 640.911 L791.629 640.911 L785.813 640.911 L780.049 640.911 L774.335 640.911 L768.675 640.911 L763.068 640.911 L757.515 640.911 L752.017 640.911 L746.576 640.911 L741.191 640.911 L735.864 640.911 L730.596 640.911 L725.387 640.911 L720.238 640.911 L715.151 640.911 L710.125 640.911 L705.162 640.911 L700.263 640.911 L695.427 640.911 L690.657 640.911 L685.953 640.911 L681.315 640.911 L676.744 640.911 L672.241 640.911 L667.807 640.911 L663.443 640.911 L659.148 640.911 L654.925 640.911 L650.772 640.911 L646.692 640.911 L642.685 640.911 L638.751 640.911 L634.891 640.911 L631.105 640.911 L627.395 640.911 L623.761 640.911 L620.203 640.911 L616.722 640.911 L613.318 640.911 L609.992 640.911 L606.745 640.911 L603.578 640.911 L600.489 640.911 L597.481 640.911 L594.553 640.911 L591.707 640.911 L588.941 640.911 L586.258 640.911 L583.657 640.911 L581.139 640.911 L578.704 640.911 L576.352 640.911 L574.084 640.911 L571.901 640.911 L569.802 640.911 L567.788 640.911 L565.86 640.911 L564.017 640.911 L562.259 640.911 L560.588 640.911 L559.004 640.911 L557.506 640.911 L556.094 640.911 L554.77 640.911 L553.534 640.911 L552.384 640.911 L551.323 640.911 L550.349 640.911 L549.464 640.911 L548.666 640.911 L547.957 640.911 L547.336 640.911 L546.804 640.911 L546.36 640.911 L546.005 640.911 L545.739 640.911 L545.561 640.911 L545.473 640.911 L545.473 640.911 L545.561 640.911 L545.739 640.911 L546.005 640.911 L546.36 640.911 L546.804 640.911 L547.336 640.911 L547.957 640.911 L548.666 640.911 L549.464 640.911 L550.349 640.911 L551.323 640.911 L552.384 640.911 L553.534 640.911 L554.77 640.911 L556.094 640.911 L557.506 640.911 L559.004 640.911 L560.588 640.911 L562.259 640.911 L564.017 640.911 L565.86 640.911 L567.788 640.911 L569.802 640.911 L571.901 640.911 L574.084 640.911 L576.352 640.911 L578.704 640.911 L581.139 640.911 L583.657 640.911 L586.258 640.911 L588.941 640.911 L591.707 640.911 L594.553 640.911 L597.481 640.911 L600.489 640.911 L603.578 640.911 L606.745 640.911 L609.992 640.911 L613.318 640.911 L616.722 640.911 L620.203 640.911 L623.761 640.911 L627.395 640.911 L631.105 640.911 L634.891 640.911 L638.751 640.911 L642.685 640.911 L646.692 640.911 L650.772 640.911 L654.925 640.911 L659.148 640.911 L663.443 640.911 L667.807 640.911 L672.241 640.911 L676.744 640.911 L681.315 640.911 L685.953 640.911 L690.657 640.911 L695.427 640.911 L700.263 640.911 L705.162 640.911 L710.125 640.911 L715.151 640.911 L720.238 640.911 L725.387 640.911 L730.596 640.911 L735.864 640.911 L741.191 640.911 L746.576 640.911 L752.017 640.911 L757.515 640.911 L763.068 640.911 L768.675 640.911 L774.335 640.911 L780.049 640.911 L785.813 640.911 L791.629 640.911 L797.494 640.911 L803.408 640.911 L809.369 640.911 L815.378 640.911 L821.433 640.911 L827.533 640.911 L833.677 640.911 L839.864 640.911 L846.093 640.911 L852.363 640.911 L858.674 640.911 L865.023 640.911 L871.411 640.911 L877.836 640.911 L884.297 640.911 L890.793 640.911 L897.323 640.911 L903.886 640.911 L910.481 640.911 L917.107 640.911 L923.762 640.911 L930.447 640.911 L937.159 640.911 L943.898 640.911 L950.663 640.911 L957.452 640.911 L964.265 640.911 L971.1 640.911 L977.957 640.911 L984.833 640.911 L991.729 640.911 L998.643 640.911 L1005.57 640.911 L1012.52 640.911 L1019.48 640.911 L1026.46 640.911 L1033.44 640.911 L1040.44 640.911 L1047.45 640.911 L1054.47 640.911 L1061.5 640.911 L1068.53 640.911 L1075.57 640.911 L1082.61 640.911 L1089.66 640.911 L1096.71 640.911 L1103.76 640.911 L1110.82 640.911 L1117.87 640.911 L1124.92 640.911 L1131.96 640.911 L1139.01 640.911 L1146.04 640.911 L1153.07 640.911 L1160.09 640.911 L1167.11 640.911 L1174.11 640.911 L1181.11 640.911 L1188.09 640.911 L1195.06 640.911 L1202.01 640.911 L1208.95 640.911 L1215.87 640.911 L1222.78 640.911 L1229.66 640.911 L1236.53 640.911 L1243.38 640.911 L1250.2 640.911 L1257 640.911 L1263.78 640.911 L1270.53 640.911 L1277.26 640.911 L1283.95 640.911 L1290.62 640.911 L1297.27 640.911 L1303.88 640.911 L1310.46 640.911 L1317 640.911 L1323.52 640.911 L1329.99 640.911 L1336.44 640.911 L1342.84 640.911 L1349.21 640.911 L1355.54 640.911 L1361.83 640.911 L1368.08 640.911 L1374.29 640.911 L1380.46 640.911 L1386.58 640.911 L1392.66 640.911 L1398.69 640.911 L1404.67 640.911 L1410.61 640.911 L1416.5 640.911 L1422.34 640.911 L1428.13 640.911 L1433.87 640.911 L1439.56 640.911 L1445.19 640.911 L1450.77 640.911 L1456.3 640.911 L1461.77 640.911 L1467.18 640.911 L1472.54 640.911 L1477.83 640.911 L1483.07 640.911 L1488.25 640.911 L1493.37 640.911 L1498.43 640.911 L1503.42 640.911 L1508.35 640.911 L1513.22 640.911 L1518.02 640.911 L1522.76 640.911 L1527.43 640.911 L1532.03 640.911 L1536.57 640.911 L1541.04 640.911 L1545.44 640.911 L1549.77 640.911 L1554.03 640.911 L1558.22 640.911 L1562.33 640.911 L1566.38 640.911 L1570.35 640.911 L1574.24 640.911 L1578.07 640.911 L1581.81 640.911 L1585.49 640.911 L1589.08 640.911 L1592.6 640.911 L1596.05 640.911 L1599.41 640.911 L1602.7 640.911 L1605.9 640.911 L1609.03 640.911 L1612.08 640.911 L1615.05 640.911 L1617.94 640.911 L1620.74 640.911 L1623.47 640.911 L1626.11 640.911 L1628.67 640.911 L1631.14 640.911 L1633.54 640.911 L1635.85 640.911 L1638.07 640.911 L1640.21 640.911 L1642.27 640.911 L1644.24 640.911 L1646.13 640.911 L1647.93 640.911 L1649.64 640.911 L1651.27 640.911 L1652.81 640.911 L1654.27 640.911 L1655.63 640.911 L1656.91 640.911 L1658.11 640.911 L1659.21 640.911 L1660.23 640.911 L1661.16 640.911 L1662 640.911 L1662.76 640.911 L1663.42 640.911 L1664 640.911 L1664.48 640.911 L1664.88 640.911 L1665.19 640.911 L1665.42 640.911 L1665.55 640.911 L1665.59 640.911  Z" fill="#ff0000" fill-rule="evenodd" fill-opacity="1"/>
<polyline clip-path="url(#clip932)" style="stroke:#ff0000; stroke-linecap:round; stroke-linejoin:round; stroke-width:4; stroke-opacity:1; fill:none" points="1665.59,640.911 1665.55,633.86 1665.42,626.809 1665.19,619.76 1664.88,612.715 1664.48,605.674 1664,598.639 1663.42,591.611 1662.76,584.59 1662,577.578 1661.16,570.577 1660.23,563.586 1659.21,556.608 1658.11,549.643 1656.91,542.693 1655.63,535.758 1654.27,528.839 1652.81,521.939 1651.27,515.058 1649.64,508.196 1647.93,501.355 1646.13,494.537 1644.24,487.742 1642.27,480.971 1640.21,474.225 1638.07,467.506 1635.85,460.814 1633.54,454.151 1631.14,447.518 1628.67,440.915 1626.11,434.344 1623.47,427.806 1620.74,421.301 1617.94,414.831 1615.05,408.397 1612.08,402 1609.03,395.641 1605.9,389.321 1602.7,383.04 1599.41,376.801 1596.05,370.603 1592.6,364.448 1589.08,358.337 1585.49,352.271 1581.81,346.251 1578.07,340.277 1574.24,334.351 1570.35,328.474 1566.38,322.646 1562.33,316.868 1558.22,311.142 1554.03,305.469 1549.77,299.848 1545.44,294.282 1541.04,288.77 1536.57,283.314 1532.03,277.915 1527.43,272.574 1522.76,267.291 1518.02,262.067 1513.22,256.903 1508.35,251.8 1503.42,246.759 1498.43,241.78 1493.37,236.865 1488.25,232.014 1483.07,227.227 1477.83,222.506 1472.54,217.852 1467.18,213.264 1461.77,208.744 1456.3,204.293 1450.77,199.911 1445.19,195.599 1439.56,191.358 1433.87,187.187 1428.13,183.089 1422.34,179.063 1416.5,175.111 1410.61,171.232 1404.67,167.428 1398.69,163.699 1392.66,160.046 1386.58,156.469 1380.46,152.968 1374.29,149.545 1368.08,146.2 1361.83,142.933 1355.54,139.746 1349.21,136.637 1342.84,133.609 1336.44,130.661 1329.99,127.794 1323.52,125.009 1317,122.305 1310.46,119.683 1303.88,117.144 1297.27,114.688 1290.62,112.316 1283.95,110.027 1277.26,107.823 1270.53,105.703 1263.78,103.667 1257,101.717 1250.2,99.853 1243.38,98.0742 1236.53,96.3816 1229.66,94.7753 1222.78,93.2556 1215.87,91.8227 1208.95,90.4768 1202.01,89.2183 1195.06,88.0472 1188.09,86.9637 1181.11,85.9681 1174.11,85.0605 1167.11,84.241 1160.09,83.5097 1153.07,82.8668 1146.04,82.3124 1139.01,81.8466 1131.96,81.4694 1124.92,81.1809 1117.87,80.9811 1110.82,80.8701 1103.76,80.8479 1096.71,80.9145 1089.66,81.0699 1082.61,81.314 1075.57,81.6469 1068.53,82.0684 1061.5,82.5786 1054.47,83.1772 1047.45,83.8643 1040.44,84.6397 1033.44,85.5033 1026.46,86.4549 1019.48,87.4945 1012.52,88.6218 1005.57,89.8366 998.643,91.1389 991.729,92.5283 984.833,94.0046 977.957,95.5676 971.1,97.2172 964.265,98.9529 957.452,100.774 950.663,102.682 943.898,104.674 937.159,106.752 930.447,108.914 923.762,111.161 917.107,113.492 910.481,115.906 903.886,118.403 897.323,120.984 890.793,123.646 884.297,126.391 877.836,129.218 871.411,132.125 865.023,135.113 858.674,138.182 852.363,141.33 846.093,144.557 839.864,147.863 833.677,151.247 827.533,154.709 821.433,158.248 815.378,161.863 809.369,165.554 803.408,169.321 797.494,173.162 791.629,177.078 785.813,181.067 780.049,185.129 774.335,189.263 768.675,193.469 763.068,197.746 757.515,202.093 752.017,206.51 746.576,210.996 741.191,215.549 735.864,220.171 730.596,224.858 725.387,229.612 720.238,234.431 715.151,239.315 710.125,244.262 705.162,249.272 700.263,254.344 695.427,259.478 690.657,264.671 685.953,269.925 681.315,275.237 676.744,280.608 672.241,286.035 667.807,291.519 663.443,297.058 659.148,302.652 654.925,308.299 650.772,313.999 646.692,319.751 642.685,325.554 638.751,331.406 634.891,337.308 631.105,343.258 627.395,349.255 623.761,355.299 620.203,361.387 616.722,367.52 613.318,373.697 609.992,379.915 606.745,386.176 603.578,392.476 600.489,398.816 597.481,405.194 594.553,411.61 591.707,418.062 588.941,424.549 586.258,431.071 583.657,437.625 581.139,444.213 578.704,450.831 576.352,457.479 574.084,464.157 571.901,470.862 569.802,477.595 567.788,484.353 565.86,491.136 564.017,497.943 562.259,504.773 560.588,511.624 559.004,518.496 557.506,525.387 556.094,532.296 554.77,539.223 553.534,546.166 552.384,553.124 551.323,560.095 550.349,567.08 549.464,574.076 548.666,581.083 547.957,588.099 547.336,595.124 546.804,602.156 546.36,609.194 546.005,616.237 545.739,623.284 545.561,630.334 545.473,637.385 545.473,644.437 545.561,651.489 545.739,658.539 546.005,665.586 546.36,672.629 546.804,679.667 547.336,686.699 547.957,693.724 548.666,700.74 549.464,707.747 550.349,714.743 551.323,721.728 552.384,728.699 553.534,735.657 554.77,742.6 556.094,749.526 557.506,756.436 559.004,763.327 560.588,770.199 562.259,777.05 564.017,783.88 565.86,790.686 567.788,797.47 569.802,804.228 571.901,810.961 574.084,817.666 576.352,824.344 578.704,830.992 581.139,837.61 583.657,844.197 586.258,850.752 588.941,857.274 591.707,863.761 594.553,870.213 597.481,876.629 600.489,883.007 603.578,889.347 606.745,895.647 609.992,901.907 613.318,908.126 616.722,914.303 620.203,920.435 623.761,926.524 627.395,932.568 631.105,938.565 634.891,944.515 638.751,950.417 642.685,956.269 646.692,962.072 650.772,967.824 654.925,973.524 659.148,979.171 663.443,984.765 667.807,990.304 672.241,995.788 676.744,1001.22 681.315,1006.59 685.953,1011.9 690.657,1017.15 695.427,1022.35 700.263,1027.48 705.162,1032.55 710.125,1037.56 715.151,1042.51 720.238,1047.39 725.387,1052.21 730.596,1056.96 735.864,1061.65 741.191,1066.27 746.576,1070.83 752.017,1075.31 757.515,1079.73 763.068,1084.08 768.675,1088.35 774.335,1092.56 780.049,1096.69 785.813,1100.76 791.629,1104.74 797.494,1108.66 803.408,1112.5 809.369,1116.27 815.378,1119.96 821.433,1123.58 827.533,1127.11 833.677,1130.58 839.864,1133.96 846.093,1137.27 852.363,1140.49 858.674,1143.64 865.023,1146.71 871.411,1149.7 877.836,1152.61 884.297,1155.43 890.793,1158.18 897.323,1160.84 903.886,1163.42 910.481,1165.92 917.107,1168.33 923.762,1170.66 930.447,1172.91 937.159,1175.07 943.898,1177.15 950.663,1179.14 957.452,1181.05 964.265,1182.87 971.1,1184.61 977.957,1186.26 984.833,1187.82 991.729,1189.29 998.643,1190.68 1005.57,1191.99 1012.52,1193.2 1019.48,1194.33 1026.46,1195.37 1033.44,1196.32 1040.44,1197.18 1047.45,1197.96 1054.47,1198.65 1061.5,1199.24 1068.53,1199.75 1075.57,1200.18 1082.61,1200.51 1089.66,1200.75 1096.71,1200.91 1103.76,1200.97 1110.82,1200.95 1117.87,1200.84 1124.92,1200.64 1131.96,1200.35 1139.01,1199.98 1146.04,1199.51 1153.07,1198.96 1160.09,1198.31 1167.11,1197.58 1174.11,1196.76 1181.11,1195.85 1188.09,1194.86 1195.06,1193.78 1202.01,1192.6 1208.95,1191.35 1215.87,1190 1222.78,1188.57 1229.66,1187.05 1236.53,1185.44 1243.38,1183.75 1250.2,1181.97 1257,1180.11 1263.78,1178.16 1270.53,1176.12 1277.26,1174 1283.95,1171.8 1290.62,1169.51 1297.27,1167.13 1303.88,1164.68 1310.46,1162.14 1317,1159.52 1323.52,1156.81 1329.99,1154.03 1336.44,1151.16 1342.84,1148.21 1349.21,1145.19 1355.54,1142.08 1361.83,1138.89 1368.08,1135.62 1374.29,1132.28 1380.46,1128.85 1386.58,1125.35 1392.66,1121.78 1398.69,1118.12 1404.67,1114.39 1410.61,1110.59 1416.5,1106.71 1422.34,1102.76 1428.13,1098.73 1433.87,1094.64 1439.56,1090.47 1445.19,1086.22 1450.77,1081.91 1456.3,1077.53 1461.77,1073.08 1467.18,1068.56 1472.54,1063.97 1477.83,1059.32 1483.07,1054.6 1488.25,1049.81 1493.37,1044.96 1498.43,1040.04 1503.42,1035.06 1508.35,1030.02 1513.22,1024.92 1518.02,1019.76 1522.76,1014.53 1527.43,1009.25 1532.03,1003.91 1536.57,998.509 1541.04,993.053 1545.44,987.541 1549.77,981.975 1554.03,976.354 1558.22,970.68 1562.33,964.954 1566.38,959.177 1570.35,953.349 1574.24,947.472 1578.07,941.546 1581.81,935.572 1585.49,929.552 1589.08,923.485 1592.6,917.374 1596.05,911.22 1599.41,905.022 1602.7,898.783 1605.9,892.502 1609.03,886.182 1612.08,879.823 1615.05,873.426 1617.94,866.992 1620.74,860.522 1623.47,854.017 1626.11,847.479 1628.67,840.908 1631.14,834.305 1633.54,827.672 1635.85,821.008 1638.07,814.317 1640.21,807.598 1642.27,800.852 1644.24,794.081 1646.13,787.286 1647.93,780.467 1649.64,773.627 1651.27,766.765 1652.81,759.884 1654.27,752.983 1655.63,746.065 1656.91,739.13 1658.11,732.18 1659.21,725.215 1660.23,718.237 1661.16,711.246 1662,704.245 1662.76,697.233 1663.42,690.212 1664,683.184 1664.48,676.149 1664.88,669.108 1665.19,662.063 1665.42,655.014 1665.55,647.963 1665.59,640.911 "/>
<path clip-path="url(#clip932)" d="M709.501 1036.94 L1501.55 1036.94 L1501.55 244.885 L709.501 244.885 L709.501 1036.94  Z" fill="#ffffff" fill-rule="evenodd" fill-opacity="1"/>
<polyline clip-path="url(#clip932)" style="stroke:#000000; stroke-linecap:round; stroke-linejoin:round; stroke-width:4; stroke-opacity:1; fill:none" points="709.501,1036.94 1501.55,1036.94 1501.55,244.885 709.501,244.885 709.501,1036.94 "/>
</svg>
