<?xml version="1.0" encoding="utf-8"?>
<svg xmlns="http://www.w3.org/2000/svg" xmlns:xlink="http://www.w3.org/1999/xlink" width="528" height="336" viewBox="0 0 2112 1344">
<defs>
  <clipPath id="clip350">
    <rect x="0" y="0" width="2112" height="1344"/>
  </clipPath>
</defs>
<path clip-path="url(#clip350)" d="M0 1344 L2112 1344 L2112 2.13163e-14 L0 2.13163e-14  Z" fill="#ffffff" fill-rule="evenodd" fill-opacity="1"/>
<defs>
  <clipPath id="clip351">
    <rect x="146" y="47" width="1919" height="1188"/>
  </clipPath>
</defs>
<path clip-path="url(#clip350)" d="M183.88 1234.58 L2064.76 1234.58 L2064.76 47.2441 L183.88 47.2441  Z" fill="#ffffff" fill-rule="evenodd" fill-opacity="1"/>
<defs>
  <clipPath id="clip352">
    <rect x="183" y="47" width="1882" height="1188"/>
  </clipPath>
</defs>
<polyline clip-path="url(#clip352)" style="stroke:#000000; stroke-linecap:round; stroke-linejoin:round; stroke-width:2; stroke-opacity:0.1; fill:none" points="551.776,1234.58 551.776,47.2441 "/>
<polyline clip-path="url(#clip352)" style="stroke:#000000; stroke-linecap:round; stroke-linejoin:round; stroke-width:2; stroke-opacity:0.1; fill:none" points="1028.89,1234.58 1028.89,47.2441 "/>
<polyline clip-path="url(#clip352)" style="stroke:#000000; stroke-linecap:round; stroke-linejoin:round; stroke-width:2; stroke-opacity:0.1; fill:none" points="1506.01,1234.58 1506.01,47.2441 "/>
<polyline clip-path="url(#clip352)" style="stroke:#000000; stroke-linecap:round; stroke-linejoin:round; stroke-width:2; stroke-opacity:0.1; fill:none" points="1983.13,1234.58 1983.13,47.2441 "/>
<polyline clip-path="url(#clip352)" style="stroke:#000000; stroke-linecap:round; stroke-linejoin:round; stroke-width:2; stroke-opacity:0.1; fill:none" points="183.88,1202.09 2064.76,1202.09 "/>
<polyline clip-path="url(#clip352)" style="stroke:#000000; stroke-linecap:round; stroke-linejoin:round; stroke-width:2; stroke-opacity:0.1; fill:none" points="183.88,920.995 2064.76,920.995 "/>
<polyline clip-path="url(#clip352)" style="stroke:#000000; stroke-linecap:round; stroke-linejoin:round; stroke-width:2; stroke-opacity:0.1; fill:none" points="183.88,639.901 2064.76,639.901 "/>
<polyline clip-path="url(#clip352)" style="stroke:#000000; stroke-linecap:round; stroke-linejoin:round; stroke-width:2; stroke-opacity:0.1; fill:none" points="183.88,358.808 2064.76,358.808 "/>
<polyline clip-path="url(#clip352)" style="stroke:#000000; stroke-linecap:round; stroke-linejoin:round; stroke-width:2; stroke-opacity:0.1; fill:none" points="183.88,77.7151 2064.76,77.7151 "/>
<polyline clip-path="url(#clip350)" style="stroke:#000000; stroke-linecap:round; stroke-linejoin:round; stroke-width:4; stroke-opacity:1; fill:none" points="183.88,1234.58 2064.76,1234.58 "/>
<polyline clip-path="url(#clip350)" style="stroke:#000000; stroke-linecap:round; stroke-linejoin:round; stroke-width:4; stroke-opacity:1; fill:none" points="551.776,1234.58 551.776,1215.68 "/>
<polyline clip-path="url(#clip350)" style="stroke:#000000; stroke-linecap:round; stroke-linejoin:round; stroke-width:4; stroke-opacity:1; fill:none" points="1028.89,1234.58 1028.89,1215.68 "/>
<polyline clip-path="url(#clip350)" style="stroke:#000000; stroke-linecap:round; stroke-linejoin:round; stroke-width:4; stroke-opacity:1; fill:none" points="1506.01,1234.58 1506.01,1215.68 "/>
<polyline clip-path="url(#clip350)" style="stroke:#000000; stroke-linecap:round; stroke-linejoin:round; stroke-width:4; stroke-opacity:1; fill:none" points="1983.13,1234.58 1983.13,1215.68 "/>
<path clip-path="url(#clip350)" d="M505.839 1277.85 L535.514 1277.85 L535.514 1281.78 L505.839 1281.78 L505.839 1277.85 Z" fill="#000000" fill-rule="nonzero" fill-opacity="1" /><path clip-path="url(#clip350)" d="M546.417 1290.74 L554.056 1290.74 L554.056 1264.37 L545.746 1266.04 L545.746 1261.78 L554.01 1260.11 L558.686 1260.11 L558.686 1290.74 L566.324 1290.74 L566.324 1294.67 L546.417 1294.67 L546.417 1290.74 Z" fill="#000000" fill-rule="nonzero" fill-opacity="1" /><path clip-path="url(#clip350)" d="M585.769 1263.19 Q582.158 1263.19 580.329 1266.76 Q578.523 1270.3 578.523 1277.43 Q578.523 1284.54 580.329 1288.1 Q582.158 1291.64 585.769 1291.64 Q589.403 1291.64 591.209 1288.1 Q593.037 1284.54 593.037 1277.43 Q593.037 1270.3 591.209 1266.76 Q589.403 1263.19 585.769 1263.19 M585.769 1259.49 Q591.579 1259.49 594.635 1264.1 Q597.713 1268.68 597.713 1277.43 Q597.713 1286.16 594.635 1290.76 Q591.579 1295.35 585.769 1295.35 Q579.959 1295.35 576.88 1290.76 Q573.824 1286.16 573.824 1277.43 Q573.824 1268.68 576.88 1264.1 Q579.959 1259.49 585.769 1259.49 Z" fill="#000000" fill-rule="nonzero" fill-opacity="1" /><path clip-path="url(#clip350)" d="M1028.89 1263.19 Q1025.28 1263.19 1023.45 1266.76 Q1021.65 1270.3 1021.65 1277.43 Q1021.65 1284.54 1023.45 1288.1 Q1025.28 1291.64 1028.89 1291.64 Q1032.53 1291.64 1034.33 1288.1 Q1036.16 1284.54 1036.16 1277.43 Q1036.16 1270.3 1034.33 1266.76 Q1032.53 1263.19 1028.89 1263.19 M1028.89 1259.49 Q1034.7 1259.49 1037.76 1264.1 Q1040.84 1268.68 1040.84 1277.43 Q1040.84 1286.16 1037.76 1290.76 Q1034.7 1295.35 1028.89 1295.35 Q1023.08 1295.35 1020.01 1290.76 Q1016.95 1286.16 1016.95 1277.43 Q1016.95 1268.68 1020.01 1264.1 Q1023.08 1259.49 1028.89 1259.49 Z" fill="#000000" fill-rule="nonzero" fill-opacity="1" /><path clip-path="url(#clip350)" d="M1480.7 1290.74 L1488.34 1290.74 L1488.34 1264.37 L1480.03 1266.04 L1480.03 1261.78 L1488.29 1260.11 L1492.97 1260.11 L1492.97 1290.74 L1500.61 1290.74 L1500.61 1294.67 L1480.7 1294.67 L1480.7 1290.74 Z" fill="#000000" fill-rule="nonzero" fill-opacity="1" /><path clip-path="url(#clip350)" d="M1520.05 1263.19 Q1516.44 1263.19 1514.61 1266.76 Q1512.81 1270.3 1512.81 1277.43 Q1512.81 1284.54 1514.61 1288.1 Q1516.44 1291.64 1520.05 1291.64 Q1523.69 1291.64 1525.49 1288.1 Q1527.32 1284.54 1527.32 1277.43 Q1527.32 1270.3 1525.49 1266.76 Q1523.69 1263.19 1520.05 1263.19 M1520.05 1259.49 Q1525.86 1259.49 1528.92 1264.1 Q1532 1268.68 1532 1277.43 Q1532 1286.16 1528.92 1290.76 Q1525.86 1295.35 1520.05 1295.35 Q1514.24 1295.35 1511.16 1290.76 Q1508.11 1286.16 1508.11 1277.43 Q1508.11 1268.68 1511.16 1264.1 Q1514.24 1259.49 1520.05 1259.49 Z" fill="#000000" fill-rule="nonzero" fill-opacity="1" /><path clip-path="url(#clip350)" d="M1961.9 1290.74 L1978.22 1290.74 L1978.22 1294.67 L1956.28 1294.67 L1956.28 1290.74 Q1958.94 1287.99 1963.52 1283.36 Q1968.13 1278.7 1969.31 1277.36 Q1971.56 1274.84 1972.44 1273.1 Q1973.34 1271.34 1973.34 1269.65 Q1973.34 1266.9 1971.4 1265.16 Q1969.47 1263.42 1966.37 1263.42 Q1964.17 1263.42 1961.72 1264.19 Q1959.29 1264.95 1956.51 1266.5 L1956.51 1261.78 Q1959.33 1260.65 1961.79 1260.07 Q1964.24 1259.49 1966.28 1259.49 Q1971.65 1259.49 1974.84 1262.17 Q1978.04 1264.86 1978.04 1269.35 Q1978.04 1271.48 1977.23 1273.4 Q1976.44 1275.3 1974.33 1277.89 Q1973.76 1278.56 1970.65 1281.78 Q1967.55 1284.98 1961.9 1290.74 Z" fill="#000000" fill-rule="nonzero" fill-opacity="1" /><path clip-path="url(#clip350)" d="M1998.04 1263.19 Q1994.43 1263.19 1992.6 1266.76 Q1990.79 1270.3 1990.79 1277.43 Q1990.79 1284.54 1992.6 1288.1 Q1994.43 1291.64 1998.04 1291.64 Q2001.67 1291.64 2003.48 1288.1 Q2005.31 1284.54 2005.31 1277.43 Q2005.31 1270.3 2003.48 1266.76 Q2001.67 1263.19 1998.04 1263.19 M1998.04 1259.49 Q2003.85 1259.49 2006.9 1264.1 Q2009.98 1268.68 2009.98 1277.43 Q2009.98 1286.16 2006.9 1290.76 Q2003.85 1295.35 1998.04 1295.35 Q1992.23 1295.35 1989.15 1290.76 Q1986.09 1286.16 1986.09 1277.43 Q1986.09 1268.68 1989.15 1264.1 Q1992.23 1259.49 1998.04 1259.49 Z" fill="#000000" fill-rule="nonzero" fill-opacity="1" /><polyline clip-path="url(#clip350)" style="stroke:#000000; stroke-linecap:round; stroke-linejoin:round; stroke-width:4; stroke-opacity:1; fill:none" points="183.88,1234.58 183.88,47.2441 "/>
<polyline clip-path="url(#clip350)" style="stroke:#000000; stroke-linecap:round; stroke-linejoin:round; stroke-width:4; stroke-opacity:1; fill:none" points="183.88,1202.09 202.778,1202.09 "/>
<polyline clip-path="url(#clip350)" style="stroke:#000000; stroke-linecap:round; stroke-linejoin:round; stroke-width:4; stroke-opacity:1; fill:none" points="183.88,920.995 202.778,920.995 "/>
<polyline clip-path="url(#clip350)" style="stroke:#000000; stroke-linecap:round; stroke-linejoin:round; stroke-width:4; stroke-opacity:1; fill:none" points="183.88,639.901 202.778,639.901 "/>
<polyline clip-path="url(#clip350)" style="stroke:#000000; stroke-linecap:round; stroke-linejoin:round; stroke-width:4; stroke-opacity:1; fill:none" points="183.88,358.808 202.778,358.808 "/>
<polyline clip-path="url(#clip350)" style="stroke:#000000; stroke-linecap:round; stroke-linejoin:round; stroke-width:4; stroke-opacity:1; fill:none" points="183.88,77.7151 202.778,77.7151 "/>
<path clip-path="url(#clip350)" d="M64.8626 1187.89 Q61.2515 1187.89 59.4228 1191.45 Q57.6173 1194.99 57.6173 1202.12 Q57.6173 1209.23 59.4228 1212.79 Q61.2515 1216.34 64.8626 1216.34 Q68.4969 1216.34 70.3024 1212.79 Q72.1311 1209.23 72.1311 1202.12 Q72.1311 1194.99 70.3024 1191.45 Q68.4969 1187.89 64.8626 1187.89 M64.8626 1184.18 Q70.6728 1184.18 73.7283 1188.79 Q76.807 1193.37 76.807 1202.12 Q76.807 1210.85 73.7283 1215.46 Q70.6728 1220.04 64.8626 1220.04 Q59.0525 1220.04 55.9738 1215.46 Q52.9182 1210.85 52.9182 1202.12 Q52.9182 1193.37 55.9738 1188.79 Q59.0525 1184.18 64.8626 1184.18 Z" fill="#000000" fill-rule="nonzero" fill-opacity="1" /><path clip-path="url(#clip350)" d="M85.0245 1213.49 L89.9088 1213.49 L89.9088 1219.37 L85.0245 1219.37 L85.0245 1213.49 Z" fill="#000000" fill-rule="nonzero" fill-opacity="1" /><path clip-path="url(#clip350)" d="M110.094 1187.89 Q106.483 1187.89 104.654 1191.45 Q102.849 1194.99 102.849 1202.12 Q102.849 1209.23 104.654 1212.79 Q106.483 1216.34 110.094 1216.34 Q113.728 1216.34 115.534 1212.79 Q117.362 1209.23 117.362 1202.12 Q117.362 1194.99 115.534 1191.45 Q113.728 1187.89 110.094 1187.89 M110.094 1184.18 Q115.904 1184.18 118.96 1188.79 Q122.038 1193.37 122.038 1202.12 Q122.038 1210.85 118.96 1215.46 Q115.904 1220.04 110.094 1220.04 Q104.284 1220.04 101.205 1215.46 Q98.1495 1210.85 98.1495 1202.12 Q98.1495 1193.37 101.205 1188.79 Q104.284 1184.18 110.094 1184.18 Z" fill="#000000" fill-rule="nonzero" fill-opacity="1" /><path clip-path="url(#clip350)" d="M140.256 1187.89 Q136.645 1187.89 134.816 1191.45 Q133.01 1194.99 133.01 1202.12 Q133.01 1209.23 134.816 1212.79 Q136.645 1216.34 140.256 1216.34 Q143.89 1216.34 145.696 1212.79 Q147.524 1209.23 147.524 1202.12 Q147.524 1194.99 145.696 1191.45 Q143.89 1187.89 140.256 1187.89 M140.256 1184.18 Q146.066 1184.18 149.121 1188.79 Q152.2 1193.37 152.2 1202.12 Q152.2 1210.85 149.121 1215.46 Q146.066 1220.04 140.256 1220.04 Q134.446 1220.04 131.367 1215.46 Q128.311 1210.85 128.311 1202.12 Q128.311 1193.37 131.367 1188.79 Q134.446 1184.18 140.256 1184.18 Z" fill="#000000" fill-rule="nonzero" fill-opacity="1" /><path clip-path="url(#clip350)" d="M66.4598 906.793 Q62.8487 906.793 61.02 910.358 Q59.2145 913.9 59.2145 921.029 Q59.2145 928.136 61.02 931.701 Q62.8487 935.242 66.4598 935.242 Q70.0941 935.242 71.8996 931.701 Q73.7283 928.136 73.7283 921.029 Q73.7283 913.9 71.8996 910.358 Q70.0941 906.793 66.4598 906.793 M66.4598 903.09 Q72.27 903.09 75.3255 907.696 Q78.4042 912.279 78.4042 921.029 Q78.4042 929.756 75.3255 934.363 Q72.27 938.946 66.4598 938.946 Q60.6497 938.946 57.571 934.363 Q54.5154 929.756 54.5154 921.029 Q54.5154 912.279 57.571 907.696 Q60.6497 903.09 66.4598 903.09 Z" fill="#000000" fill-rule="nonzero" fill-opacity="1" /><path clip-path="url(#clip350)" d="M86.6218 932.395 L91.506 932.395 L91.506 938.275 L86.6218 938.275 L86.6218 932.395 Z" fill="#000000" fill-rule="nonzero" fill-opacity="1" /><path clip-path="url(#clip350)" d="M111.691 906.793 Q108.08 906.793 106.251 910.358 Q104.446 913.9 104.446 921.029 Q104.446 928.136 106.251 931.701 Q108.08 935.242 111.691 935.242 Q115.325 935.242 117.131 931.701 Q118.96 928.136 118.96 921.029 Q118.96 913.9 117.131 910.358 Q115.325 906.793 111.691 906.793 M111.691 903.09 Q117.501 903.09 120.557 907.696 Q123.635 912.279 123.635 921.029 Q123.635 929.756 120.557 934.363 Q117.501 938.946 111.691 938.946 Q105.881 938.946 102.802 934.363 Q99.7467 929.756 99.7467 921.029 Q99.7467 912.279 102.802 907.696 Q105.881 903.09 111.691 903.09 Z" fill="#000000" fill-rule="nonzero" fill-opacity="1" /><path clip-path="url(#clip350)" d="M135.881 934.339 L152.2 934.339 L152.2 938.275 L130.256 938.275 L130.256 934.339 Q132.918 931.585 137.501 926.955 Q142.108 922.302 143.288 920.96 Q145.533 918.437 146.413 916.701 Q147.316 914.941 147.316 913.252 Q147.316 910.497 145.371 908.761 Q143.45 907.025 140.348 907.025 Q138.149 907.025 135.696 907.789 Q133.265 908.552 130.487 910.103 L130.487 905.381 Q133.311 904.247 135.765 903.668 Q138.219 903.09 140.256 903.09 Q145.626 903.09 148.82 905.775 Q152.015 908.46 152.015 912.951 Q152.015 915.08 151.205 917.002 Q150.418 918.9 148.311 921.492 Q147.733 922.164 144.631 925.381 Q141.529 928.576 135.881 934.339 Z" fill="#000000" fill-rule="nonzero" fill-opacity="1" /><path clip-path="url(#clip350)" d="M64.3765 625.7 Q60.7654 625.7 58.9367 629.265 Q57.1312 632.807 57.1312 639.936 Q57.1312 647.043 58.9367 650.607 Q60.7654 654.149 64.3765 654.149 Q68.0107 654.149 69.8163 650.607 Q71.645 647.043 71.645 639.936 Q71.645 632.807 69.8163 629.265 Q68.0107 625.7 64.3765 625.7 M64.3765 621.996 Q70.1867 621.996 73.2422 626.603 Q76.3209 631.186 76.3209 639.936 Q76.3209 648.663 73.2422 653.269 Q70.1867 657.853 64.3765 657.853 Q58.5664 657.853 55.4877 653.269 Q52.4321 648.663 52.4321 639.936 Q52.4321 631.186 55.4877 626.603 Q58.5664 621.996 64.3765 621.996 Z" fill="#000000" fill-rule="nonzero" fill-opacity="1" /><path clip-path="url(#clip350)" d="M84.5384 651.302 L89.4227 651.302 L89.4227 657.181 L84.5384 657.181 L84.5384 651.302 Z" fill="#000000" fill-rule="nonzero" fill-opacity="1" /><path clip-path="url(#clip350)" d="M109.608 625.7 Q105.997 625.7 104.168 629.265 Q102.362 632.807 102.362 639.936 Q102.362 647.043 104.168 650.607 Q105.997 654.149 109.608 654.149 Q113.242 654.149 115.048 650.607 Q116.876 647.043 116.876 639.936 Q116.876 632.807 115.048 629.265 Q113.242 625.7 109.608 625.7 M109.608 621.996 Q115.418 621.996 118.473 626.603 Q121.552 631.186 121.552 639.936 Q121.552 648.663 118.473 653.269 Q115.418 657.853 109.608 657.853 Q103.798 657.853 100.719 653.269 Q97.6634 648.663 97.6634 639.936 Q97.6634 631.186 100.719 626.603 Q103.798 621.996 109.608 621.996 Z" fill="#000000" fill-rule="nonzero" fill-opacity="1" /><path clip-path="url(#clip350)" d="M142.617 626.695 L130.811 645.144 L142.617 645.144 L142.617 626.695 M141.39 622.621 L147.27 622.621 L147.27 645.144 L152.2 645.144 L152.2 649.033 L147.27 649.033 L147.27 657.181 L142.617 657.181 L142.617 649.033 L127.015 649.033 L127.015 644.519 L141.39 622.621 Z" fill="#000000" fill-rule="nonzero" fill-opacity="1" /><path clip-path="url(#clip350)" d="M64.7006 344.607 Q61.0895 344.607 59.2608 348.172 Q57.4552 351.713 57.4552 358.843 Q57.4552 365.949 59.2608 369.514 Q61.0895 373.056 64.7006 373.056 Q68.3348 373.056 70.1404 369.514 Q71.9691 365.949 71.9691 358.843 Q71.9691 351.713 70.1404 348.172 Q68.3348 344.607 64.7006 344.607 M64.7006 340.903 Q70.5107 340.903 73.5663 345.51 Q76.645 350.093 76.645 358.843 Q76.645 367.57 73.5663 372.176 Q70.5107 376.76 64.7006 376.76 Q58.8904 376.76 55.8117 372.176 Q52.7562 367.57 52.7562 358.843 Q52.7562 350.093 55.8117 345.51 Q58.8904 340.903 64.7006 340.903 Z" fill="#000000" fill-rule="nonzero" fill-opacity="1" /><path clip-path="url(#clip350)" d="M84.8625 370.209 L89.7467 370.209 L89.7467 376.088 L84.8625 376.088 L84.8625 370.209 Z" fill="#000000" fill-rule="nonzero" fill-opacity="1" /><path clip-path="url(#clip350)" d="M109.932 344.607 Q106.321 344.607 104.492 348.172 Q102.686 351.713 102.686 358.843 Q102.686 365.949 104.492 369.514 Q106.321 373.056 109.932 373.056 Q113.566 373.056 115.372 369.514 Q117.2 365.949 117.2 358.843 Q117.2 351.713 115.372 348.172 Q113.566 344.607 109.932 344.607 M109.932 340.903 Q115.742 340.903 118.798 345.51 Q121.876 350.093 121.876 358.843 Q121.876 367.57 118.798 372.176 Q115.742 376.76 109.932 376.76 Q104.122 376.76 101.043 372.176 Q97.9874 367.57 97.9874 358.843 Q97.9874 350.093 101.043 345.51 Q104.122 340.903 109.932 340.903 Z" fill="#000000" fill-rule="nonzero" fill-opacity="1" /><path clip-path="url(#clip350)" d="M140.672 356.945 Q137.524 356.945 135.672 359.098 Q133.844 361.25 133.844 365 Q133.844 368.727 135.672 370.903 Q137.524 373.056 140.672 373.056 Q143.821 373.056 145.649 370.903 Q147.501 368.727 147.501 365 Q147.501 361.25 145.649 359.098 Q143.821 356.945 140.672 356.945 M149.955 342.292 L149.955 346.551 Q148.196 345.718 146.39 345.278 Q144.608 344.838 142.848 344.838 Q138.219 344.838 135.765 347.963 Q133.334 351.088 132.987 357.408 Q134.353 355.394 136.413 354.329 Q138.473 353.241 140.95 353.241 Q146.158 353.241 149.168 356.412 Q152.2 359.561 152.2 365 Q152.2 370.324 149.052 373.542 Q145.904 376.76 140.672 376.76 Q134.677 376.76 131.506 372.176 Q128.334 367.57 128.334 358.843 Q128.334 350.649 132.223 345.788 Q136.112 340.903 142.663 340.903 Q144.422 340.903 146.205 341.251 Q148.01 341.598 149.955 342.292 Z" fill="#000000" fill-rule="nonzero" fill-opacity="1" /><path clip-path="url(#clip350)" d="M64.9552 63.5138 Q61.3441 63.5138 59.5154 67.0786 Q57.7099 70.6203 57.7099 77.7499 Q57.7099 84.8563 59.5154 88.4211 Q61.3441 91.9628 64.9552 91.9628 Q68.5894 91.9628 70.395 88.4211 Q72.2237 84.8563 72.2237 77.7499 Q72.2237 70.6203 70.395 67.0786 Q68.5894 63.5138 64.9552 63.5138 M64.9552 59.8101 Q70.7654 59.8101 73.8209 64.4166 Q76.8996 68.9999 76.8996 77.7499 Q76.8996 86.4767 73.8209 91.0831 Q70.7654 95.6664 64.9552 95.6664 Q59.1451 95.6664 56.0664 91.0831 Q53.0108 86.4767 53.0108 77.7499 Q53.0108 68.9999 56.0664 64.4166 Q59.1451 59.8101 64.9552 59.8101 Z" fill="#000000" fill-rule="nonzero" fill-opacity="1" /><path clip-path="url(#clip350)" d="M85.1171 89.1155 L90.0014 89.1155 L90.0014 94.9951 L85.1171 94.9951 L85.1171 89.1155 Z" fill="#000000" fill-rule="nonzero" fill-opacity="1" /><path clip-path="url(#clip350)" d="M110.186 63.5138 Q106.575 63.5138 104.747 67.0786 Q102.941 70.6203 102.941 77.7499 Q102.941 84.8563 104.747 88.4211 Q106.575 91.9628 110.186 91.9628 Q113.821 91.9628 115.626 88.4211 Q117.455 84.8563 117.455 77.7499 Q117.455 70.6203 115.626 67.0786 Q113.821 63.5138 110.186 63.5138 M110.186 59.8101 Q115.997 59.8101 119.052 64.4166 Q122.131 68.9999 122.131 77.7499 Q122.131 86.4767 119.052 91.0831 Q115.997 95.6664 110.186 95.6664 Q104.376 95.6664 101.298 91.0831 Q98.2421 86.4767 98.2421 77.7499 Q98.2421 68.9999 101.298 64.4166 Q104.376 59.8101 110.186 59.8101 Z" fill="#000000" fill-rule="nonzero" fill-opacity="1" /><path clip-path="url(#clip350)" d="M140.348 78.5832 Q137.015 78.5832 135.094 80.3656 Q133.196 82.148 133.196 85.273 Q133.196 88.398 135.094 90.1804 Q137.015 91.9628 140.348 91.9628 Q143.682 91.9628 145.603 90.1804 Q147.524 88.3748 147.524 85.273 Q147.524 82.148 145.603 80.3656 Q143.705 78.5832 140.348 78.5832 M135.672 76.5925 Q132.663 75.8517 130.973 73.7916 Q129.307 71.7314 129.307 68.7684 Q129.307 64.6249 132.247 62.2175 Q135.209 59.8101 140.348 59.8101 Q145.51 59.8101 148.45 62.2175 Q151.39 64.6249 151.39 68.7684 Q151.39 71.7314 149.7 73.7916 Q148.033 75.8517 145.047 76.5925 Q148.427 77.3795 150.302 79.6712 Q152.2 81.9628 152.2 85.273 Q152.2 90.2961 149.121 92.9813 Q146.066 95.6664 140.348 95.6664 Q134.631 95.6664 131.552 92.9813 Q128.497 90.2961 128.497 85.273 Q128.497 81.9628 130.395 79.6712 Q132.293 77.3795 135.672 76.5925 M133.959 69.2082 Q133.959 71.8934 135.626 73.398 Q137.316 74.9027 140.348 74.9027 Q143.358 74.9027 145.047 73.398 Q146.76 71.8934 146.76 69.2082 Q146.76 66.5231 145.047 65.0185 Q143.358 63.5138 140.348 63.5138 Q137.316 63.5138 135.626 65.0185 Q133.959 66.5231 133.959 69.2082 Z" fill="#000000" fill-rule="nonzero" fill-opacity="1" /><polyline clip-path="url(#clip352)" style="stroke:#009af9; stroke-linecap:round; stroke-linejoin:round; stroke-width:4; stroke-opacity:1; fill:none" points="237.112,1200.97 246.272,1200.81 255.431,1200.61 309.076,1198.82 362.721,1195.22 387.676,1192.55 412.632,1188.99 446.082,1182.38 479.532,1173.02 493.351,1168.15 507.171,1162.6 520.991,1156.29 534.811,1149.15 547.662,1141.7 560.514,1133.4 573.365,1124.19 586.216,1113.99 602.348,1099.71 618.481,1083.66 634.614,1065.71 650.746,1045.76 665.217,1026.08 679.688,1004.65 694.16,981.421 708.631,956.367 725.195,925.433 741.759,892.102 758.323,856.425 774.887,818.497 787.268,788.755 799.65,757.905 812.032,726.037 824.413,693.255 856.086,606.104 887.759,516.222 916.667,434.31 945.574,355.143 953.8,333.495 962.025,312.352 970.25,291.777 978.475,271.833 986.7,252.581 994.925,234.082 1003.15,216.395 1011.38,199.578 1024.42,174.83 1037.46,152.612 1050.5,133.113 1063.54,116.501 1071.64,107.699 1079.74,100.098 1087.84,93.7221 1095.94,88.5943 1104.04,84.7319 1112.14,82.1481 1120.24,80.852 1128.34,80.8479 1140.75,83.3455 1153.16,88.8529 1165.57,97.3258 1177.97,108.696 1186.72,118.404 1195.47,129.468 1204.21,141.845 1212.96,155.488 1221.7,170.342 1230.45,186.353 1239.2,203.458 1247.94,221.593 1261.02,250.474 1274.09,281.273 1287.16,313.746 1300.23,347.644 1329.96,428.699 1359.7,512.854 1389.14,596.51 1418.58,678.057 1434.78,721.267 1450.98,762.943 1467.18,802.852 1483.37,840.803 1495.75,868.38 1508.12,894.68 1520.49,919.667 1532.86,943.321 1548.47,971.251 1564.09,997.047 1579.7,1020.74 1595.31,1042.38 1609.75,1060.63 1624.19,1077.25 1638.63,1092.32 1653.07,1105.93 1667.96,1118.51 1682.85,1129.74 1697.75,1139.7 1712.64,1148.49 1727.73,1156.33 1742.83,1163.17 1757.92,1169.13 1773.02,1174.28 1804.54,1182.84 1836.06,1189 1860.9,1192.55 1885.73,1195.21 1942.28,1198.95 1998.83,1200.73 2005.18,1200.86 2011.52,1200.97 "/>
<path clip-path="url(#clip350)" d="M1761.54 190.502 L2002.06 190.502 L2002.06 86.8219 L1761.54 86.8219  Z" fill="#ffffff" fill-rule="evenodd" fill-opacity="1"/>
<polyline clip-path="url(#clip350)" style="stroke:#000000; stroke-linecap:round; stroke-linejoin:round; stroke-width:4; stroke-opacity:1; fill:none" points="1761.54,190.502 2002.06,190.502 2002.06,86.8219 1761.54,86.8219 1761.54,190.502 "/>
<polyline clip-path="url(#clip350)" style="stroke:#009af9; stroke-linecap:round; stroke-linejoin:round; stroke-width:4; stroke-opacity:1; fill:none" points="1782.44,138.662 1907.83,138.662 "/>
<path clip-path="url(#clip350)" d="M1942.57 158.349 Q1940.77 162.979 1939.06 164.391 Q1937.34 165.803 1934.47 165.803 L1931.07 165.803 L1931.07 162.238 L1933.57 162.238 Q1935.33 162.238 1936.3 161.405 Q1937.27 160.572 1938.45 157.47 L1939.22 155.525 L1928.73 130.016 L1933.25 130.016 L1941.35 150.294 L1949.45 130.016 L1953.96 130.016 L1942.57 158.349 Z" fill="#000000" fill-rule="nonzero" fill-opacity="1" /><path clip-path="url(#clip350)" d="M1961.25 152.007 L1968.89 152.007 L1968.89 125.641 L1960.58 127.308 L1960.58 123.049 L1968.85 121.382 L1973.52 121.382 L1973.52 152.007 L1981.16 152.007 L1981.16 155.942 L1961.25 155.942 L1961.25 152.007 Z" fill="#000000" fill-rule="nonzero" fill-opacity="1" /></svg>
