<?xml version="1.0" encoding="utf-8"?>
<svg xmlns="http://www.w3.org/2000/svg" xmlns:xlink="http://www.w3.org/1999/xlink" width="528" height="336" viewBox="0 0 2112 1344">
<defs>
  <clipPath id="clip140">
    <rect x="0" y="0" width="2112" height="1344"/>
  </clipPath>
</defs>
<path clip-path="url(#clip140)" d="M0 1344 L2112 1344 L2112 2.13163e-14 L0 2.13163e-14  Z" fill="#ffffff" fill-rule="evenodd" fill-opacity="1"/>
<defs>
  <clipPath id="clip141">
    <rect x="422" y="0" width="1479" height="1344"/>
  </clipPath>
</defs>
<path clip-path="url(#clip140)" d="M185.224 1234.58 L2064.76 1234.58 L2064.76 47.2441 L185.224 47.2441  Z" fill="#ffffff" fill-rule="evenodd" fill-opacity="1"/>
<defs>
  <clipPath id="clip142">
    <rect x="185" y="47" width="1881" height="1188"/>
  </clipPath>
</defs>
<polyline clip-path="url(#clip142)" style="stroke:#000000; stroke-linecap:round; stroke-linejoin:round; stroke-width:2; stroke-opacity:0.1; fill:none" points="220.508,1234.58 220.508,47.2441 "/>
<polyline clip-path="url(#clip142)" style="stroke:#000000; stroke-linecap:round; stroke-linejoin:round; stroke-width:2; stroke-opacity:0.1; fill:none" points="668.271,1234.58 668.271,47.2441 "/>
<polyline clip-path="url(#clip142)" style="stroke:#000000; stroke-linecap:round; stroke-linejoin:round; stroke-width:2; stroke-opacity:0.1; fill:none" points="1116.03,1234.58 1116.03,47.2441 "/>
<polyline clip-path="url(#clip142)" style="stroke:#000000; stroke-linecap:round; stroke-linejoin:round; stroke-width:2; stroke-opacity:0.1; fill:none" points="1563.8,1234.58 1563.8,47.2441 "/>
<polyline clip-path="url(#clip142)" style="stroke:#000000; stroke-linecap:round; stroke-linejoin:round; stroke-width:2; stroke-opacity:0.1; fill:none" points="2011.56,1234.58 2011.56,47.2441 "/>
<polyline clip-path="url(#clip142)" style="stroke:#000000; stroke-linecap:round; stroke-linejoin:round; stroke-width:2; stroke-opacity:0.1; fill:none" points="185.224,1141.56 2064.76,1141.56 "/>
<polyline clip-path="url(#clip142)" style="stroke:#000000; stroke-linecap:round; stroke-linejoin:round; stroke-width:2; stroke-opacity:0.1; fill:none" points="185.224,640.911 2064.76,640.911 "/>
<polyline clip-path="url(#clip142)" style="stroke:#000000; stroke-linecap:round; stroke-linejoin:round; stroke-width:2; stroke-opacity:0.1; fill:none" points="185.224,140.259 2064.76,140.259 "/>
<polyline clip-path="url(#clip140)" style="stroke:#000000; stroke-linecap:round; stroke-linejoin:round; stroke-width:4; stroke-opacity:1; fill:none" points="185.224,1234.58 2064.76,1234.58 "/>
<polyline clip-path="url(#clip140)" style="stroke:#000000; stroke-linecap:round; stroke-linejoin:round; stroke-width:4; stroke-opacity:1; fill:none" points="220.508,1234.58 220.508,1215.68 "/>
<polyline clip-path="url(#clip140)" style="stroke:#000000; stroke-linecap:round; stroke-linejoin:round; stroke-width:4; stroke-opacity:1; fill:none" points="668.271,1234.58 668.271,1215.68 "/>
<polyline clip-path="url(#clip140)" style="stroke:#000000; stroke-linecap:round; stroke-linejoin:round; stroke-width:4; stroke-opacity:1; fill:none" points="1116.03,1234.58 1116.03,1215.68 "/>
<polyline clip-path="url(#clip140)" style="stroke:#000000; stroke-linecap:round; stroke-linejoin:round; stroke-width:4; stroke-opacity:1; fill:none" points="1563.8,1234.58 1563.8,1215.68 "/>
<polyline clip-path="url(#clip140)" style="stroke:#000000; stroke-linecap:round; stroke-linejoin:round; stroke-width:4; stroke-opacity:1; fill:none" points="2011.56,1234.58 2011.56,1215.68 "/>
<path clip-path="url(#clip140)" d="M220.508 1263.19 Q216.897 1263.19 215.068 1266.76 Q213.263 1270.3 213.263 1277.43 Q213.263 1284.54 215.068 1288.1 Q216.897 1291.64 220.508 1291.64 Q224.142 1291.64 225.948 1288.1 Q227.776 1284.54 227.776 1277.43 Q227.776 1270.3 225.948 1266.76 Q224.142 1263.19 220.508 1263.19 M220.508 1259.49 Q226.318 1259.49 229.374 1264.1 Q232.452 1268.68 232.452 1277.43 Q232.452 1286.16 229.374 1290.76 Q226.318 1295.35 220.508 1295.35 Q214.698 1295.35 211.619 1290.76 Q208.564 1286.16 208.564 1277.43 Q208.564 1268.68 211.619 1264.1 Q214.698 1259.49 220.508 1259.49 Z" fill="#000000" fill-rule="nonzero" fill-opacity="1" /><path clip-path="url(#clip140)" d="M647.542 1290.74 L663.862 1290.74 L663.862 1294.67 L641.917 1294.67 L641.917 1290.74 Q644.579 1287.99 649.163 1283.36 Q653.769 1278.7 654.95 1277.36 Q657.195 1274.84 658.075 1273.1 Q658.977 1271.34 658.977 1269.65 Q658.977 1266.9 657.033 1265.16 Q655.112 1263.42 652.01 1263.42 Q649.811 1263.42 647.357 1264.19 Q644.927 1264.95 642.149 1266.5 L642.149 1261.78 Q644.973 1260.65 647.427 1260.07 Q649.88 1259.49 651.917 1259.49 Q657.288 1259.49 660.482 1262.17 Q663.676 1264.86 663.676 1269.35 Q663.676 1271.48 662.866 1273.4 Q662.079 1275.3 659.973 1277.89 Q659.394 1278.56 656.292 1281.78 Q653.19 1284.98 647.542 1290.74 Z" fill="#000000" fill-rule="nonzero" fill-opacity="1" /><path clip-path="url(#clip140)" d="M673.723 1260.11 L692.079 1260.11 L692.079 1264.05 L678.005 1264.05 L678.005 1272.52 Q679.024 1272.17 680.042 1272.01 Q681.061 1271.83 682.079 1271.83 Q687.866 1271.83 691.246 1275 Q694.625 1278.17 694.625 1283.59 Q694.625 1289.17 691.153 1292.27 Q687.681 1295.35 681.362 1295.35 Q679.186 1295.35 676.917 1294.98 Q674.672 1294.61 672.264 1293.86 L672.264 1289.17 Q674.348 1290.3 676.57 1290.86 Q678.792 1291.41 681.269 1291.41 Q685.274 1291.41 687.612 1289.3 Q689.949 1287.2 689.949 1283.59 Q689.949 1279.98 687.612 1277.87 Q685.274 1275.76 681.269 1275.76 Q679.394 1275.76 677.519 1276.18 Q675.667 1276.6 673.723 1277.48 L673.723 1260.11 Z" fill="#000000" fill-rule="nonzero" fill-opacity="1" /><path clip-path="url(#clip140)" d="M1090.73 1260.11 L1109.09 1260.11 L1109.09 1264.05 L1095.02 1264.05 L1095.02 1272.52 Q1096.03 1272.17 1097.05 1272.01 Q1098.07 1271.83 1099.09 1271.83 Q1104.88 1271.83 1108.26 1275 Q1111.64 1278.17 1111.64 1283.59 Q1111.64 1289.17 1108.16 1292.27 Q1104.69 1295.35 1098.37 1295.35 Q1096.2 1295.35 1093.93 1294.98 Q1091.68 1294.61 1089.28 1293.86 L1089.28 1289.17 Q1091.36 1290.3 1093.58 1290.86 Q1095.8 1291.41 1098.28 1291.41 Q1102.28 1291.41 1104.62 1289.3 Q1106.96 1287.2 1106.96 1283.59 Q1106.96 1279.98 1104.62 1277.87 Q1102.28 1275.76 1098.28 1275.76 Q1096.41 1275.76 1094.53 1276.18 Q1092.68 1276.6 1090.73 1277.48 L1090.73 1260.11 Z" fill="#000000" fill-rule="nonzero" fill-opacity="1" /><path clip-path="url(#clip140)" d="M1130.85 1263.19 Q1127.24 1263.19 1125.41 1266.76 Q1123.6 1270.3 1123.6 1277.43 Q1123.6 1284.54 1125.41 1288.1 Q1127.24 1291.64 1130.85 1291.64 Q1134.48 1291.64 1136.29 1288.1 Q1138.12 1284.54 1138.12 1277.43 Q1138.12 1270.3 1136.29 1266.76 Q1134.48 1263.19 1130.85 1263.19 M1130.85 1259.49 Q1136.66 1259.49 1139.72 1264.1 Q1142.79 1268.68 1142.79 1277.43 Q1142.79 1286.16 1139.72 1290.76 Q1136.66 1295.35 1130.85 1295.35 Q1125.04 1295.35 1121.96 1290.76 Q1118.91 1286.16 1118.91 1277.43 Q1118.91 1268.68 1121.96 1264.1 Q1125.04 1259.49 1130.85 1259.49 Z" fill="#000000" fill-rule="nonzero" fill-opacity="1" /><path clip-path="url(#clip140)" d="M1537.65 1260.11 L1559.87 1260.11 L1559.87 1262.11 L1547.33 1294.67 L1542.44 1294.67 L1554.25 1264.05 L1537.65 1264.05 L1537.65 1260.11 Z" fill="#000000" fill-rule="nonzero" fill-opacity="1" /><path clip-path="url(#clip140)" d="M1569.04 1260.11 L1587.4 1260.11 L1587.4 1264.05 L1573.32 1264.05 L1573.32 1272.52 Q1574.34 1272.17 1575.36 1272.01 Q1576.38 1271.83 1577.4 1271.83 Q1583.18 1271.83 1586.56 1275 Q1589.94 1278.17 1589.94 1283.59 Q1589.94 1289.17 1586.47 1292.27 Q1583 1295.35 1576.68 1295.35 Q1574.5 1295.35 1572.24 1294.98 Q1569.99 1294.61 1567.58 1293.86 L1567.58 1289.17 Q1569.67 1290.3 1571.89 1290.86 Q1574.11 1291.41 1576.59 1291.41 Q1580.59 1291.41 1582.93 1289.3 Q1585.27 1287.2 1585.27 1283.59 Q1585.27 1279.98 1582.93 1277.87 Q1580.59 1275.76 1576.59 1275.76 Q1574.71 1275.76 1572.84 1276.18 Q1570.99 1276.6 1569.04 1277.48 L1569.04 1260.11 Z" fill="#000000" fill-rule="nonzero" fill-opacity="1" /><path clip-path="url(#clip140)" d="M1971.17 1290.74 L1978.81 1290.74 L1978.81 1264.37 L1970.5 1266.04 L1970.5 1261.78 L1978.76 1260.11 L1983.44 1260.11 L1983.44 1290.74 L1991.08 1290.74 L1991.08 1294.67 L1971.17 1294.67 L1971.17 1290.74 Z" fill="#000000" fill-rule="nonzero" fill-opacity="1" /><path clip-path="url(#clip140)" d="M2010.52 1263.19 Q2006.91 1263.19 2005.08 1266.76 Q2003.27 1270.3 2003.27 1277.43 Q2003.27 1284.54 2005.08 1288.1 Q2006.91 1291.64 2010.52 1291.64 Q2014.15 1291.64 2015.96 1288.1 Q2017.79 1284.54 2017.79 1277.43 Q2017.79 1270.3 2015.96 1266.76 Q2014.15 1263.19 2010.52 1263.19 M2010.52 1259.49 Q2016.33 1259.49 2019.39 1264.1 Q2022.46 1268.68 2022.46 1277.43 Q2022.46 1286.16 2019.39 1290.76 Q2016.33 1295.35 2010.52 1295.35 Q2004.71 1295.35 2001.63 1290.76 Q1998.58 1286.16 1998.58 1277.43 Q1998.58 1268.68 2001.63 1264.1 Q2004.71 1259.49 2010.52 1259.49 Z" fill="#000000" fill-rule="nonzero" fill-opacity="1" /><path clip-path="url(#clip140)" d="M2040.68 1263.19 Q2037.07 1263.19 2035.24 1266.76 Q2033.44 1270.3 2033.44 1277.43 Q2033.44 1284.54 2035.24 1288.1 Q2037.07 1291.64 2040.68 1291.64 Q2044.32 1291.64 2046.12 1288.1 Q2047.95 1284.54 2047.95 1277.43 Q2047.95 1270.3 2046.12 1266.76 Q2044.32 1263.19 2040.68 1263.19 M2040.68 1259.49 Q2046.49 1259.49 2049.55 1264.1 Q2052.63 1268.68 2052.63 1277.43 Q2052.63 1286.16 2049.55 1290.76 Q2046.49 1295.35 2040.68 1295.35 Q2034.87 1295.35 2031.79 1290.76 Q2028.74 1286.16 2028.74 1277.43 Q2028.74 1268.68 2031.79 1264.1 Q2034.87 1259.49 2040.68 1259.49 Z" fill="#000000" fill-rule="nonzero" fill-opacity="1" /><polyline clip-path="url(#clip140)" style="stroke:#000000; stroke-linecap:round; stroke-linejoin:round; stroke-width:4; stroke-opacity:1; fill:none" points="185.224,1234.58 185.224,47.2441 "/>
<polyline clip-path="url(#clip140)" style="stroke:#000000; stroke-linecap:round; stroke-linejoin:round; stroke-width:4; stroke-opacity:1; fill:none" points="185.224,1141.56 204.122,1141.56 "/>
<polyline clip-path="url(#clip140)" style="stroke:#000000; stroke-linecap:round; stroke-linejoin:round; stroke-width:4; stroke-opacity:1; fill:none" points="185.224,640.911 204.122,640.911 "/>
<polyline clip-path="url(#clip140)" style="stroke:#000000; stroke-linecap:round; stroke-linejoin:round; stroke-width:4; stroke-opacity:1; fill:none" points="185.224,140.259 204.122,140.259 "/>
<path clip-path="url(#clip140)" d="M53.1034 1161.36 L60.7423 1161.36 L60.7423 1134.99 L52.4321 1136.66 L52.4321 1132.4 L60.696 1130.73 L65.3719 1130.73 L65.3719 1161.36 L73.0107 1161.36 L73.0107 1165.29 L53.1034 1165.29 L53.1034 1161.36 Z" fill="#000000" fill-rule="nonzero" fill-opacity="1" /><path clip-path="url(#clip140)" d="M92.4551 1133.81 Q88.844 1133.81 87.0153 1137.37 Q85.2097 1140.92 85.2097 1148.05 Q85.2097 1155.15 87.0153 1158.72 Q88.844 1162.26 92.4551 1162.26 Q96.0893 1162.26 97.8948 1158.72 Q99.7235 1155.15 99.7235 1148.05 Q99.7235 1140.92 97.8948 1137.37 Q96.0893 1133.81 92.4551 1133.81 M92.4551 1130.11 Q98.2652 1130.11 101.321 1134.71 Q104.399 1139.3 104.399 1148.05 Q104.399 1156.77 101.321 1161.38 Q98.2652 1165.96 92.4551 1165.96 Q86.6449 1165.96 83.5662 1161.38 Q80.5107 1156.77 80.5107 1148.05 Q80.5107 1139.3 83.5662 1134.71 Q86.6449 1130.11 92.4551 1130.11 Z" fill="#000000" fill-rule="nonzero" fill-opacity="1" /><path clip-path="url(#clip140)" d="M104.399 1124.21 L128.511 1124.21 L128.511 1127.4 L104.399 1127.4 L104.399 1124.21 Z" fill="#000000" fill-rule="nonzero" fill-opacity="1" /><path clip-path="url(#clip140)" d="M137.369 1134.68 L143.576 1134.68 L143.576 1113.26 L136.824 1114.62 L136.824 1111.15 L143.538 1109.8 L147.338 1109.8 L147.338 1134.68 L153.544 1134.68 L153.544 1137.88 L137.369 1137.88 L137.369 1134.68 Z" fill="#000000" fill-rule="nonzero" fill-opacity="1" /><path clip-path="url(#clip140)" d="M82.8385 660.704 L90.4774 660.704 L90.4774 634.338 L82.1672 636.005 L82.1672 631.746 L90.4311 630.079 L95.107 630.079 L95.107 660.704 L102.746 660.704 L102.746 664.639 L82.8385 664.639 L82.8385 660.704 Z" fill="#000000" fill-rule="nonzero" fill-opacity="1" /><path clip-path="url(#clip140)" d="M122.19 633.158 Q118.579 633.158 116.75 636.723 Q114.945 640.264 114.945 647.394 Q114.945 654.5 116.75 658.065 Q118.579 661.607 122.19 661.607 Q125.824 661.607 127.63 658.065 Q129.459 654.5 129.459 647.394 Q129.459 640.264 127.63 636.723 Q125.824 633.158 122.19 633.158 M122.19 629.454 Q128 629.454 131.056 634.06 Q134.135 638.644 134.135 647.394 Q134.135 656.121 131.056 660.727 Q128 665.31 122.19 665.31 Q116.38 665.31 113.301 660.727 Q110.246 656.121 110.246 647.394 Q110.246 638.644 113.301 634.06 Q116.38 629.454 122.19 629.454 Z" fill="#000000" fill-rule="nonzero" fill-opacity="1" /><path clip-path="url(#clip140)" d="M143.839 611.65 Q140.905 611.65 139.42 614.546 Q137.953 617.424 137.953 623.217 Q137.953 628.991 139.42 631.887 Q140.905 634.765 143.839 634.765 Q146.792 634.765 148.259 631.887 Q149.745 628.991 149.745 623.217 Q149.745 617.424 148.259 614.546 Q146.792 611.65 143.839 611.65 M143.839 608.641 Q148.56 608.641 151.043 612.384 Q153.544 616.108 153.544 623.217 Q153.544 630.307 151.043 634.05 Q148.56 637.774 143.839 637.774 Q139.119 637.774 136.617 634.05 Q134.135 630.307 134.135 623.217 Q134.135 616.108 136.617 612.384 Q139.119 608.641 143.839 608.641 Z" fill="#000000" fill-rule="nonzero" fill-opacity="1" /><path clip-path="url(#clip140)" d="M85.528 160.052 L93.1669 160.052 L93.1669 133.686 L84.8567 135.353 L84.8567 131.094 L93.1206 129.427 L97.7965 129.427 L97.7965 160.052 L105.435 160.052 L105.435 163.987 L85.528 163.987 L85.528 160.052 Z" fill="#000000" fill-rule="nonzero" fill-opacity="1" /><path clip-path="url(#clip140)" d="M124.88 132.506 Q121.269 132.506 119.44 136.071 Q117.634 139.612 117.634 146.742 Q117.634 153.848 119.44 157.413 Q121.269 160.955 124.88 160.955 Q128.514 160.955 130.319 157.413 Q132.148 153.848 132.148 146.742 Q132.148 139.612 130.319 136.071 Q128.514 132.506 124.88 132.506 M124.88 128.802 Q130.69 128.802 133.745 133.409 Q136.824 137.992 136.824 146.742 Q136.824 155.469 133.745 160.075 Q130.69 164.658 124.88 164.658 Q119.07 164.658 115.991 160.075 Q112.935 155.469 112.935 146.742 Q112.935 137.992 115.991 133.409 Q119.07 128.802 124.88 128.802 Z" fill="#000000" fill-rule="nonzero" fill-opacity="1" /><path clip-path="url(#clip140)" d="M137.369 133.379 L143.576 133.379 L143.576 111.957 L136.824 113.311 L136.824 109.851 L143.538 108.497 L147.338 108.497 L147.338 133.379 L153.544 133.379 L153.544 136.577 L137.369 136.577 L137.369 133.379 Z" fill="#000000" fill-rule="nonzero" fill-opacity="1" /><polyline clip-path="url(#clip142)" style="stroke:#009af9; stroke-linecap:round; stroke-linejoin:round; stroke-width:4; stroke-opacity:1; fill:none" points="238.418,1200.97 256.329,1112.76 274.24,1067.07 292.15,1034.88 310.061,1009.54 327.971,988.407 345.882,970.123 363.792,953.909 381.703,939.27 399.613,925.871 417.524,913.475 435.434,901.906 453.345,891.032 471.255,880.751 489.166,870.979 507.076,861.652 524.987,852.713 542.898,844.12 560.808,835.832 578.719,827.818 596.629,820.051 614.54,812.506 632.45,805.162 650.361,798 668.271,791.006 686.182,784.163 704.092,777.459 722.003,770.883 739.913,764.423 757.824,758.071 775.735,751.817 793.645,745.653 811.556,739.573 829.466,733.569 847.377,727.635 865.287,721.764 883.198,715.952 901.108,710.193 919.019,704.483 936.929,698.815 954.84,693.187 972.75,687.594 990.661,682.032 1008.57,676.496 1026.48,670.983 1044.39,665.489 1062.3,660.012 1080.21,654.546 1098.12,649.089 1116.03,643.637 1133.95,638.186 1151.86,632.734 1169.77,627.277 1187.68,621.811 1205.59,616.333 1223.5,610.84 1241.41,605.327 1259.32,599.791 1277.23,594.229 1295.14,588.636 1313.05,583.007 1330.96,577.34 1348.87,571.63 1366.78,565.871 1384.69,560.059 1402.6,554.188 1420.51,548.254 1438.42,542.25 1456.33,536.169 1474.25,530.006 1492.16,523.752 1510.07,517.4 1527.98,510.94 1545.89,504.364 1563.8,497.66 1581.71,490.817 1599.62,483.823 1617.53,476.661 1635.44,469.317 1653.35,461.772 1671.26,454.005 1689.17,445.991 1707.08,437.703 1724.99,429.109 1742.9,420.171 1760.81,410.844 1778.72,401.072 1796.64,390.791 1814.55,379.917 1832.46,368.348 1850.37,355.952 1868.28,342.553 1886.19,327.914 1904.1,311.7 1922.01,293.416 1939.92,272.28 1957.83,246.947 1975.74,214.756 1993.65,169.068 2011.56,80.8479 "/>
<path clip-path="url(#clip140)" d="M247.875 190.502 L488.259 190.502 L488.259 86.8219 L247.875 86.8219  Z" fill="#ffffff" fill-rule="evenodd" fill-opacity="1"/>
<polyline clip-path="url(#clip140)" style="stroke:#000000; stroke-linecap:round; stroke-linejoin:round; stroke-width:4; stroke-opacity:1; fill:none" points="247.875,190.502 488.259,190.502 488.259,86.8219 247.875,86.8219 247.875,190.502 "/>
<polyline clip-path="url(#clip140)" style="stroke:#009af9; stroke-linecap:round; stroke-linejoin:round; stroke-width:4; stroke-opacity:1; fill:none" points="268.759,138.662 394.061,138.662 "/>
<path clip-path="url(#clip140)" d="M428.787 158.349 Q426.982 162.979 425.269 164.391 Q423.556 165.803 420.685 165.803 L417.283 165.803 L417.283 162.238 L419.783 162.238 Q421.542 162.238 422.514 161.405 Q423.486 160.572 424.667 157.47 L425.431 155.525 L414.945 130.016 L419.459 130.016 L427.56 150.294 L435.662 130.016 L440.176 130.016 L428.787 158.349 Z" fill="#000000" fill-rule="nonzero" fill-opacity="1" /><path clip-path="url(#clip140)" d="M447.468 152.007 L455.107 152.007 L455.107 125.641 L446.796 127.308 L446.796 123.049 L455.06 121.382 L459.736 121.382 L459.736 152.007 L467.375 152.007 L467.375 155.942 L447.468 155.942 L447.468 152.007 Z" fill="#000000" fill-rule="nonzero" fill-opacity="1" /></svg>
