<?xml version="1.0" encoding="utf-8"?>
<svg xmlns="http://www.w3.org/2000/svg" xmlns:xlink="http://www.w3.org/1999/xlink" width="960" height="672" viewBox="0 0 3840 2688">
<defs>
  <clipPath id="clip590">
    <rect x="0" y="0" width="3840" height="2688"/>
  </clipPath>
</defs>
<path clip-path="url(#clip590)" d="M0 2688 L3840 2688 L3840 -1.47793e-13 L0 -1.47793e-13  Z" fill="#ffffff" fill-rule="evenodd" fill-opacity="1"/>
<defs>
  <clipPath id="clip591">
    <rect x="768" y="0" width="2689" height="2688"/>
  </clipPath>
</defs>
<path clip-path="url(#clip590)" d="M170.998 2561.84 L3792.76 2561.84 L3792.76 47.2441 L170.998 47.2441  Z" fill="#ffffff" fill-rule="evenodd" fill-opacity="1"/>
<defs>
  <clipPath id="clip592">
    <rect x="170" y="47" width="3623" height="2516"/>
  </clipPath>
</defs>
<polyline clip-path="url(#clip592)" style="stroke:#000000; stroke-linecap:round; stroke-linejoin:round; stroke-width:2; stroke-opacity:0.1; fill:none" points="655.41,2561.84 655.41,47.2441 "/>
<polyline clip-path="url(#clip592)" style="stroke:#000000; stroke-linecap:round; stroke-linejoin:round; stroke-width:2; stroke-opacity:0.1; fill:none" points="1318.64,2561.84 1318.64,47.2441 "/>
<polyline clip-path="url(#clip592)" style="stroke:#000000; stroke-linecap:round; stroke-linejoin:round; stroke-width:2; stroke-opacity:0.1; fill:none" points="1981.88,2561.84 1981.88,47.2441 "/>
<polyline clip-path="url(#clip592)" style="stroke:#000000; stroke-linecap:round; stroke-linejoin:round; stroke-width:2; stroke-opacity:0.1; fill:none" points="2645.11,2561.84 2645.11,47.2441 "/>
<polyline clip-path="url(#clip592)" style="stroke:#000000; stroke-linecap:round; stroke-linejoin:round; stroke-width:2; stroke-opacity:0.1; fill:none" points="3308.34,2561.84 3308.34,47.2441 "/>
<polyline clip-path="url(#clip592)" style="stroke:#000000; stroke-linecap:round; stroke-linejoin:round; stroke-width:2; stroke-opacity:0.1; fill:none" points="170.998,2490.67 3792.76,2490.67 "/>
<polyline clip-path="url(#clip592)" style="stroke:#000000; stroke-linecap:round; stroke-linejoin:round; stroke-width:2; stroke-opacity:0.1; fill:none" points="170.998,1895.99 3792.76,1895.99 "/>
<polyline clip-path="url(#clip592)" style="stroke:#000000; stroke-linecap:round; stroke-linejoin:round; stroke-width:2; stroke-opacity:0.1; fill:none" points="170.998,1301.3 3792.76,1301.3 "/>
<polyline clip-path="url(#clip592)" style="stroke:#000000; stroke-linecap:round; stroke-linejoin:round; stroke-width:2; stroke-opacity:0.1; fill:none" points="170.998,706.62 3792.76,706.62 "/>
<polyline clip-path="url(#clip592)" style="stroke:#000000; stroke-linecap:round; stroke-linejoin:round; stroke-width:2; stroke-opacity:0.1; fill:none" points="170.998,111.935 3792.76,111.935 "/>
<polyline clip-path="url(#clip590)" style="stroke:#000000; stroke-linecap:round; stroke-linejoin:round; stroke-width:4; stroke-opacity:1; fill:none" points="170.998,2561.84 3792.76,2561.84 "/>
<polyline clip-path="url(#clip590)" style="stroke:#000000; stroke-linecap:round; stroke-linejoin:round; stroke-width:4; stroke-opacity:1; fill:none" points="655.41,2561.84 655.41,2542.94 "/>
<polyline clip-path="url(#clip590)" style="stroke:#000000; stroke-linecap:round; stroke-linejoin:round; stroke-width:4; stroke-opacity:1; fill:none" points="1318.64,2561.84 1318.64,2542.94 "/>
<polyline clip-path="url(#clip590)" style="stroke:#000000; stroke-linecap:round; stroke-linejoin:round; stroke-width:4; stroke-opacity:1; fill:none" points="1981.88,2561.84 1981.88,2542.94 "/>
<polyline clip-path="url(#clip590)" style="stroke:#000000; stroke-linecap:round; stroke-linejoin:round; stroke-width:4; stroke-opacity:1; fill:none" points="2645.11,2561.84 2645.11,2542.94 "/>
<polyline clip-path="url(#clip590)" style="stroke:#000000; stroke-linecap:round; stroke-linejoin:round; stroke-width:4; stroke-opacity:1; fill:none" points="3308.34,2561.84 3308.34,2542.94 "/>
<path clip-path="url(#clip590)" d="M625.352 2618.93 L655.028 2618.93 L655.028 2622.87 L625.352 2622.87 L625.352 2618.93 Z" fill="#000000" fill-rule="nonzero" fill-opacity="1" /><path clip-path="url(#clip590)" d="M669.148 2631.82 L685.468 2631.82 L685.468 2635.76 L663.523 2635.76 L663.523 2631.82 Q666.185 2629.07 670.769 2624.44 Q675.375 2619.79 676.556 2618.45 Q678.801 2615.92 679.681 2614.19 Q680.584 2612.43 680.584 2610.74 Q680.584 2607.98 678.639 2606.25 Q676.718 2604.51 673.616 2604.51 Q671.417 2604.51 668.963 2605.27 Q666.533 2606.04 663.755 2607.59 L663.755 2602.87 Q666.579 2601.73 669.033 2601.15 Q671.486 2600.57 673.523 2600.57 Q678.894 2600.57 682.088 2603.26 Q685.283 2605.95 685.283 2610.44 Q685.283 2612.57 684.472 2614.49 Q683.685 2616.38 681.579 2618.98 Q681 2619.65 677.898 2622.87 Q674.797 2626.06 669.148 2631.82 Z" fill="#000000" fill-rule="nonzero" fill-opacity="1" /><path clip-path="url(#clip590)" d="M1288.4 2618.93 L1318.08 2618.93 L1318.08 2622.87 L1288.4 2622.87 L1288.4 2618.93 Z" fill="#000000" fill-rule="nonzero" fill-opacity="1" /><path clip-path="url(#clip590)" d="M1328.98 2631.82 L1336.62 2631.82 L1336.62 2605.46 L1328.31 2607.13 L1328.31 2602.87 L1336.57 2601.2 L1341.25 2601.2 L1341.25 2631.82 L1348.89 2631.82 L1348.89 2635.76 L1328.98 2635.76 L1328.98 2631.82 Z" fill="#000000" fill-rule="nonzero" fill-opacity="1" /><path clip-path="url(#clip590)" d="M1981.88 2604.28 Q1978.27 2604.28 1976.44 2607.84 Q1974.63 2611.39 1974.63 2618.51 Q1974.63 2625.62 1976.44 2629.19 Q1978.27 2632.73 1981.88 2632.73 Q1985.51 2632.73 1987.32 2629.19 Q1989.15 2625.62 1989.15 2618.51 Q1989.15 2611.39 1987.32 2607.84 Q1985.51 2604.28 1981.88 2604.28 M1981.88 2600.57 Q1987.69 2600.57 1990.74 2605.18 Q1993.82 2609.76 1993.82 2618.51 Q1993.82 2627.24 1990.74 2631.85 Q1987.69 2636.43 1981.88 2636.43 Q1976.07 2636.43 1972.99 2631.85 Q1969.93 2627.24 1969.93 2618.51 Q1969.93 2609.76 1972.99 2605.18 Q1976.07 2600.57 1981.88 2600.57 Z" fill="#000000" fill-rule="nonzero" fill-opacity="1" /><path clip-path="url(#clip590)" d="M2635.49 2631.82 L2643.13 2631.82 L2643.13 2605.46 L2634.82 2607.13 L2634.82 2602.87 L2643.09 2601.2 L2647.76 2601.2 L2647.76 2631.82 L2655.4 2631.82 L2655.4 2635.76 L2635.49 2635.76 L2635.49 2631.82 Z" fill="#000000" fill-rule="nonzero" fill-opacity="1" /><path clip-path="url(#clip590)" d="M3303 2631.82 L3319.32 2631.82 L3319.32 2635.76 L3297.37 2635.76 L3297.37 2631.82 Q3300.03 2629.07 3304.62 2624.44 Q3309.22 2619.79 3310.4 2618.45 Q3312.65 2615.92 3313.53 2614.19 Q3314.43 2612.43 3314.43 2610.74 Q3314.43 2607.98 3312.49 2606.25 Q3310.57 2604.51 3307.46 2604.51 Q3305.27 2604.51 3302.81 2605.27 Q3300.38 2606.04 3297.6 2607.59 L3297.6 2602.87 Q3300.43 2601.73 3302.88 2601.15 Q3305.33 2600.57 3307.37 2600.57 Q3312.74 2600.57 3315.94 2603.26 Q3319.13 2605.95 3319.13 2610.44 Q3319.13 2612.57 3318.32 2614.49 Q3317.53 2616.38 3315.43 2618.98 Q3314.85 2619.65 3311.75 2622.87 Q3308.64 2626.06 3303 2631.82 Z" fill="#000000" fill-rule="nonzero" fill-opacity="1" /><polyline clip-path="url(#clip590)" style="stroke:#000000; stroke-linecap:round; stroke-linejoin:round; stroke-width:4; stroke-opacity:1; fill:none" points="170.998,2561.84 170.998,47.2441 "/>
<polyline clip-path="url(#clip590)" style="stroke:#000000; stroke-linecap:round; stroke-linejoin:round; stroke-width:4; stroke-opacity:1; fill:none" points="170.998,2490.67 189.896,2490.67 "/>
<polyline clip-path="url(#clip590)" style="stroke:#000000; stroke-linecap:round; stroke-linejoin:round; stroke-width:4; stroke-opacity:1; fill:none" points="170.998,1895.99 189.896,1895.99 "/>
<polyline clip-path="url(#clip590)" style="stroke:#000000; stroke-linecap:round; stroke-linejoin:round; stroke-width:4; stroke-opacity:1; fill:none" points="170.998,1301.3 189.896,1301.3 "/>
<polyline clip-path="url(#clip590)" style="stroke:#000000; stroke-linecap:round; stroke-linejoin:round; stroke-width:4; stroke-opacity:1; fill:none" points="170.998,706.62 189.896,706.62 "/>
<polyline clip-path="url(#clip590)" style="stroke:#000000; stroke-linecap:round; stroke-linejoin:round; stroke-width:4; stroke-opacity:1; fill:none" points="170.998,111.935 189.896,111.935 "/>
<path clip-path="url(#clip590)" d="M56.2226 2476.47 Q52.6115 2476.47 50.7828 2480.04 Q48.9773 2483.58 48.9773 2490.71 Q48.9773 2497.81 50.7828 2501.38 Q52.6115 2504.92 56.2226 2504.92 Q59.8569 2504.92 61.6624 2501.38 Q63.4911 2497.81 63.4911 2490.71 Q63.4911 2483.58 61.6624 2480.04 Q59.8569 2476.47 56.2226 2476.47 M56.2226 2472.77 Q62.0328 2472.77 65.0883 2477.37 Q68.167 2481.96 68.167 2490.71 Q68.167 2499.43 65.0883 2504.04 Q62.0328 2508.62 56.2226 2508.62 Q50.4125 2508.62 47.3338 2504.04 Q44.2782 2499.43 44.2782 2490.71 Q44.2782 2481.96 47.3338 2477.37 Q50.4125 2472.77 56.2226 2472.77 Z" fill="#000000" fill-rule="nonzero" fill-opacity="1" /><path clip-path="url(#clip590)" d="M76.3845 2502.07 L81.2688 2502.07 L81.2688 2507.95 L76.3845 2507.95 L76.3845 2502.07 Z" fill="#000000" fill-rule="nonzero" fill-opacity="1" /><path clip-path="url(#clip590)" d="M101.454 2476.47 Q97.8428 2476.47 96.0141 2480.04 Q94.2085 2483.58 94.2085 2490.71 Q94.2085 2497.81 96.0141 2501.38 Q97.8428 2504.92 101.454 2504.92 Q105.088 2504.92 106.894 2501.38 Q108.722 2497.81 108.722 2490.71 Q108.722 2483.58 106.894 2480.04 Q105.088 2476.47 101.454 2476.47 M101.454 2472.77 Q107.264 2472.77 110.32 2477.37 Q113.398 2481.96 113.398 2490.71 Q113.398 2499.43 110.32 2504.04 Q107.264 2508.62 101.454 2508.62 Q95.6437 2508.62 92.565 2504.04 Q89.5095 2499.43 89.5095 2490.71 Q89.5095 2481.96 92.565 2477.37 Q95.6437 2472.77 101.454 2472.77 Z" fill="#000000" fill-rule="nonzero" fill-opacity="1" /><path clip-path="url(#clip590)" d="M57.4495 1881.79 Q53.8384 1881.79 52.0097 1885.35 Q50.2041 1888.89 50.2041 1896.02 Q50.2041 1903.13 52.0097 1906.69 Q53.8384 1910.24 57.4495 1910.24 Q61.0837 1910.24 62.8892 1906.69 Q64.7179 1903.13 64.7179 1896.02 Q64.7179 1888.89 62.8892 1885.35 Q61.0837 1881.79 57.4495 1881.79 M57.4495 1878.08 Q63.2596 1878.08 66.3152 1882.69 Q69.3938 1887.27 69.3938 1896.02 Q69.3938 1904.75 66.3152 1909.36 Q63.2596 1913.94 57.4495 1913.94 Q51.6393 1913.94 48.5606 1909.36 Q45.5051 1904.75 45.5051 1896.02 Q45.5051 1887.27 48.5606 1882.69 Q51.6393 1878.08 57.4495 1878.08 Z" fill="#000000" fill-rule="nonzero" fill-opacity="1" /><path clip-path="url(#clip590)" d="M77.6114 1907.39 L82.4956 1907.39 L82.4956 1913.27 L77.6114 1913.27 L77.6114 1907.39 Z" fill="#000000" fill-rule="nonzero" fill-opacity="1" /><path clip-path="url(#clip590)" d="M93.4909 1909.33 L101.13 1909.33 L101.13 1882.97 L92.8196 1884.63 L92.8196 1880.37 L101.083 1878.71 L105.759 1878.71 L105.759 1909.33 L113.398 1909.33 L113.398 1913.27 L93.4909 1913.27 L93.4909 1909.33 Z" fill="#000000" fill-rule="nonzero" fill-opacity="1" /><path clip-path="url(#clip590)" d="M57.8198 1287.1 Q54.2087 1287.1 52.38 1290.67 Q50.5745 1294.21 50.5745 1301.34 Q50.5745 1308.44 52.38 1312.01 Q54.2087 1315.55 57.8198 1315.55 Q61.4541 1315.55 63.2596 1312.01 Q65.0883 1308.44 65.0883 1301.34 Q65.0883 1294.21 63.2596 1290.67 Q61.4541 1287.1 57.8198 1287.1 M57.8198 1283.4 Q63.63 1283.4 66.6855 1288.01 Q69.7642 1292.59 69.7642 1301.34 Q69.7642 1310.07 66.6855 1314.67 Q63.63 1319.26 57.8198 1319.26 Q52.0097 1319.26 48.931 1314.67 Q45.8754 1310.07 45.8754 1301.34 Q45.8754 1292.59 48.931 1288.01 Q52.0097 1283.4 57.8198 1283.4 Z" fill="#000000" fill-rule="nonzero" fill-opacity="1" /><path clip-path="url(#clip590)" d="M77.9818 1312.7 L82.866 1312.7 L82.866 1318.58 L77.9818 1318.58 L77.9818 1312.7 Z" fill="#000000" fill-rule="nonzero" fill-opacity="1" /><path clip-path="url(#clip590)" d="M97.0789 1314.65 L113.398 1314.65 L113.398 1318.58 L91.4539 1318.58 L91.4539 1314.65 Q94.1159 1311.89 98.6992 1307.26 Q103.306 1302.61 104.486 1301.27 Q106.732 1298.75 107.611 1297.01 Q108.514 1295.25 108.514 1293.56 Q108.514 1290.81 106.57 1289.07 Q104.648 1287.33 101.546 1287.33 Q99.3474 1287.33 96.8937 1288.1 Q94.4632 1288.86 91.6854 1290.41 L91.6854 1285.69 Q94.5094 1284.56 96.9631 1283.98 Q99.4168 1283.4 101.454 1283.4 Q106.824 1283.4 110.019 1286.08 Q113.213 1288.77 113.213 1293.26 Q113.213 1295.39 112.403 1297.31 Q111.616 1299.21 109.509 1301.8 Q108.931 1302.47 105.829 1305.69 Q102.727 1308.88 97.0789 1314.65 Z" fill="#000000" fill-rule="nonzero" fill-opacity="1" /><path clip-path="url(#clip590)" d="M56.8708 692.418 Q53.2597 692.418 51.431 695.983 Q49.6254 699.525 49.6254 706.654 Q49.6254 713.761 51.431 717.326 Q53.2597 720.867 56.8708 720.867 Q60.505 720.867 62.3105 717.326 Q64.1392 713.761 64.1392 706.654 Q64.1392 699.525 62.3105 695.983 Q60.505 692.418 56.8708 692.418 M56.8708 688.715 Q62.6809 688.715 65.7365 693.321 Q68.8151 697.904 68.8151 706.654 Q68.8151 715.381 65.7365 719.988 Q62.6809 724.571 56.8708 724.571 Q51.0606 724.571 47.9819 719.988 Q44.9264 715.381 44.9264 706.654 Q44.9264 697.904 47.9819 693.321 Q51.0606 688.715 56.8708 688.715 Z" fill="#000000" fill-rule="nonzero" fill-opacity="1" /><path clip-path="url(#clip590)" d="M77.0327 718.02 L81.9169 718.02 L81.9169 723.9 L77.0327 723.9 L77.0327 718.02 Z" fill="#000000" fill-rule="nonzero" fill-opacity="1" /><path clip-path="url(#clip590)" d="M106.269 705.265 Q109.625 705.983 111.5 708.252 Q113.398 710.52 113.398 713.853 Q113.398 718.969 109.88 721.77 Q106.361 724.571 99.8798 724.571 Q97.7039 724.571 95.3891 724.131 Q93.0974 723.714 90.6437 722.858 L90.6437 718.344 Q92.5882 719.478 94.903 720.057 Q97.2178 720.636 99.7409 720.636 Q104.139 720.636 106.431 718.9 Q108.745 717.164 108.745 713.853 Q108.745 710.798 106.593 709.085 Q104.463 707.349 100.644 707.349 L96.6159 707.349 L96.6159 703.506 L100.829 703.506 Q104.278 703.506 106.107 702.14 Q107.935 700.752 107.935 698.159 Q107.935 695.497 106.037 694.085 Q104.162 692.65 100.644 692.65 Q98.7224 692.65 96.5233 693.066 Q94.3243 693.483 91.6854 694.363 L91.6854 690.196 Q94.3474 689.455 96.6622 689.085 Q99.0002 688.715 101.06 688.715 Q106.384 688.715 109.486 691.145 Q112.588 693.553 112.588 697.673 Q112.588 700.543 110.945 702.534 Q109.301 704.502 106.269 705.265 Z" fill="#000000" fill-rule="nonzero" fill-opacity="1" /><path clip-path="url(#clip590)" d="M55.7365 97.7342 Q52.1254 97.7342 50.2967 101.299 Q48.4912 104.841 48.4912 111.97 Q48.4912 119.077 50.2967 122.641 Q52.1254 126.183 55.7365 126.183 Q59.3707 126.183 61.1763 122.641 Q63.005 119.077 63.005 111.97 Q63.005 104.841 61.1763 101.299 Q59.3707 97.7342 55.7365 97.7342 M55.7365 94.0305 Q61.5467 94.0305 64.6022 98.6369 Q67.6809 103.22 67.6809 111.97 Q67.6809 120.697 64.6022 125.303 Q61.5467 129.887 55.7365 129.887 Q49.9264 129.887 46.8477 125.303 Q43.7921 120.697 43.7921 111.97 Q43.7921 103.22 46.8477 98.6369 Q49.9264 94.0305 55.7365 94.0305 Z" fill="#000000" fill-rule="nonzero" fill-opacity="1" /><path clip-path="url(#clip590)" d="M75.8984 123.336 L80.7827 123.336 L80.7827 129.215 L75.8984 129.215 L75.8984 123.336 Z" fill="#000000" fill-rule="nonzero" fill-opacity="1" /><path clip-path="url(#clip590)" d="M103.815 98.7295 L92.0095 117.179 L103.815 117.179 L103.815 98.7295 M102.588 94.6555 L108.468 94.6555 L108.468 117.179 L113.398 117.179 L113.398 121.067 L108.468 121.067 L108.468 129.215 L103.815 129.215 L103.815 121.067 L88.2132 121.067 L88.2132 116.554 L102.588 94.6555 Z" fill="#000000" fill-rule="nonzero" fill-opacity="1" /><path clip-path="url(#clip592)" d="M273.501 2404.68 L542.6 2265.46 L542.6 2490.67 L273.501 2490.67  Z" fill="#ff0000" fill-rule="evenodd" fill-opacity="1"/>
<polyline clip-path="url(#clip592)" style="stroke:#ff0000; stroke-linecap:round; stroke-linejoin:round; stroke-width:4; stroke-opacity:1; fill:none" points="273.501,2404.68 542.6,2265.46 "/>
<path clip-path="url(#clip592)" d="M542.6 2265.46 L681.963 2143.11 L681.963 2490.67 L542.6 2490.67  Z" fill="#0000ff" fill-rule="evenodd" fill-opacity="1"/>
<polyline clip-path="url(#clip592)" style="stroke:#0000ff; stroke-linecap:round; stroke-linejoin:round; stroke-width:4; stroke-opacity:1; fill:none" points="542.6,2265.46 681.963,2143.11 "/>
<path clip-path="url(#clip592)" d="M681.963 2143.11 L780.157 2031.16 L780.157 2490.67 L681.963 2490.67  Z" fill="#ff0000" fill-rule="evenodd" fill-opacity="1"/>
<polyline clip-path="url(#clip592)" style="stroke:#ff0000; stroke-linecap:round; stroke-linejoin:round; stroke-width:4; stroke-opacity:1; fill:none" points="681.963,2143.11 780.157,2031.16 "/>
<path clip-path="url(#clip592)" d="M780.157 2031.16 L857.433 1926.99 L857.433 2490.67 L780.157 2490.67  Z" fill="#0000ff" fill-rule="evenodd" fill-opacity="1"/>
<polyline clip-path="url(#clip592)" style="stroke:#0000ff; stroke-linecap:round; stroke-linejoin:round; stroke-width:4; stroke-opacity:1; fill:none" points="780.157,2031.16 857.433,1926.99 "/>
<path clip-path="url(#clip592)" d="M857.433 1926.99 L921.902 1829.13 L921.902 2490.67 L857.433 2490.67  Z" fill="#ff0000" fill-rule="evenodd" fill-opacity="1"/>
<polyline clip-path="url(#clip592)" style="stroke:#ff0000; stroke-linecap:round; stroke-linejoin:round; stroke-width:4; stroke-opacity:1; fill:none" points="857.433,1926.99 921.902,1829.13 "/>
<path clip-path="url(#clip592)" d="M921.902 1829.13 L977.674 1736.65 L977.674 2490.67 L921.902 2490.67  Z" fill="#0000ff" fill-rule="evenodd" fill-opacity="1"/>
<polyline clip-path="url(#clip592)" style="stroke:#0000ff; stroke-linecap:round; stroke-linejoin:round; stroke-width:4; stroke-opacity:1; fill:none" points="921.902,1829.13 977.674,1736.65 "/>
<path clip-path="url(#clip592)" d="M977.674 1736.65 L1027.13 1648.86 L1027.13 2490.67 L977.674 2490.67  Z" fill="#ff0000" fill-rule="evenodd" fill-opacity="1"/>
<polyline clip-path="url(#clip592)" style="stroke:#ff0000; stroke-linecap:round; stroke-linejoin:round; stroke-width:4; stroke-opacity:1; fill:none" points="977.674,1736.65 1027.13,1648.86 "/>
<path clip-path="url(#clip592)" d="M1027.13 1648.86 L1071.79 1565.29 L1071.79 2490.67 L1027.13 2490.67  Z" fill="#0000ff" fill-rule="evenodd" fill-opacity="1"/>
<polyline clip-path="url(#clip592)" style="stroke:#0000ff; stroke-linecap:round; stroke-linejoin:round; stroke-width:4; stroke-opacity:1; fill:none" points="1027.13,1648.86 1071.79,1565.29 "/>
<path clip-path="url(#clip592)" d="M1071.79 1565.29 L1112.66 1485.55 L1112.66 2490.67 L1071.79 2490.67  Z" fill="#ff0000" fill-rule="evenodd" fill-opacity="1"/>
<polyline clip-path="url(#clip592)" style="stroke:#ff0000; stroke-linecap:round; stroke-linejoin:round; stroke-width:4; stroke-opacity:1; fill:none" points="1071.79,1565.29 1112.66,1485.55 "/>
<path clip-path="url(#clip592)" d="M1112.66 1485.55 L1150.47 1409.32 L1150.47 2490.67 L1112.66 2490.67  Z" fill="#0000ff" fill-rule="evenodd" fill-opacity="1"/>
<polyline clip-path="url(#clip592)" style="stroke:#0000ff; stroke-linecap:round; stroke-linejoin:round; stroke-width:4; stroke-opacity:1; fill:none" points="1112.66,1485.55 1150.47,1409.32 "/>
<path clip-path="url(#clip592)" d="M1150.47 1409.32 L1185.76 1336.38 L1185.76 2490.67 L1150.47 2490.67  Z" fill="#ff0000" fill-rule="evenodd" fill-opacity="1"/>
<polyline clip-path="url(#clip592)" style="stroke:#ff0000; stroke-linecap:round; stroke-linejoin:round; stroke-width:4; stroke-opacity:1; fill:none" points="1150.47,1409.32 1185.76,1336.38 "/>
<path clip-path="url(#clip592)" d="M1185.76 1336.38 L1218.93 1266.49 L1218.93 2490.67 L1185.76 2490.67  Z" fill="#0000ff" fill-rule="evenodd" fill-opacity="1"/>
<polyline clip-path="url(#clip592)" style="stroke:#0000ff; stroke-linecap:round; stroke-linejoin:round; stroke-width:4; stroke-opacity:1; fill:none" points="1185.76,1336.38 1218.93,1266.49 "/>
<path clip-path="url(#clip592)" d="M1218.93 1266.49 L1250.29 1199.5 L1250.29 2490.67 L1218.93 2490.67  Z" fill="#ff0000" fill-rule="evenodd" fill-opacity="1"/>
<polyline clip-path="url(#clip592)" style="stroke:#ff0000; stroke-linecap:round; stroke-linejoin:round; stroke-width:4; stroke-opacity:1; fill:none" points="1218.93,1266.49 1250.29,1199.5 "/>
<path clip-path="url(#clip592)" d="M1250.29 1199.5 L1280.1 1135.25 L1280.1 2490.67 L1250.29 2490.67  Z" fill="#0000ff" fill-rule="evenodd" fill-opacity="1"/>
<polyline clip-path="url(#clip592)" style="stroke:#0000ff; stroke-linecap:round; stroke-linejoin:round; stroke-width:4; stroke-opacity:1; fill:none" points="1250.29,1199.5 1280.1,1135.25 "/>
<path clip-path="url(#clip592)" d="M1280.1 1135.25 L1308.55 1073.61 L1308.55 2490.67 L1280.1 2490.67  Z" fill="#ff0000" fill-rule="evenodd" fill-opacity="1"/>
<polyline clip-path="url(#clip592)" style="stroke:#ff0000; stroke-linecap:round; stroke-linejoin:round; stroke-width:4; stroke-opacity:1; fill:none" points="1280.1,1135.25 1308.55,1073.61 "/>
<path clip-path="url(#clip592)" d="M1308.55 1073.61 L1335.81 1014.47 L1335.81 2490.67 L1308.55 2490.67  Z" fill="#0000ff" fill-rule="evenodd" fill-opacity="1"/>
<polyline clip-path="url(#clip592)" style="stroke:#0000ff; stroke-linecap:round; stroke-linejoin:round; stroke-width:4; stroke-opacity:1; fill:none" points="1308.55,1073.61 1335.81,1014.47 "/>
<path clip-path="url(#clip592)" d="M1335.81 1014.47 L1362.03 957.723 L1362.03 2490.67 L1335.81 2490.67  Z" fill="#ff0000" fill-rule="evenodd" fill-opacity="1"/>
<polyline clip-path="url(#clip592)" style="stroke:#ff0000; stroke-linecap:round; stroke-linejoin:round; stroke-width:4; stroke-opacity:1; fill:none" points="1335.81,1014.47 1362.03,957.723 "/>
<path clip-path="url(#clip592)" d="M1362.03 957.723 L1387.31 903.285 L1387.31 2490.67 L1362.03 2490.67  Z" fill="#0000ff" fill-rule="evenodd" fill-opacity="1"/>
<polyline clip-path="url(#clip592)" style="stroke:#0000ff; stroke-linecap:round; stroke-linejoin:round; stroke-width:4; stroke-opacity:1; fill:none" points="1362.03,957.723 1387.31,903.285 "/>
<path clip-path="url(#clip592)" d="M1387.31 903.285 L1411.75 851.075 L1411.75 2490.67 L1387.31 2490.67  Z" fill="#ff0000" fill-rule="evenodd" fill-opacity="1"/>
<polyline clip-path="url(#clip592)" style="stroke:#ff0000; stroke-linecap:round; stroke-linejoin:round; stroke-width:4; stroke-opacity:1; fill:none" points="1387.31,903.285 1411.75,851.075 "/>
<path clip-path="url(#clip592)" d="M1411.75 851.075 L1435.44 801.022 L1435.44 2490.67 L1411.75 2490.67  Z" fill="#0000ff" fill-rule="evenodd" fill-opacity="1"/>
<polyline clip-path="url(#clip592)" style="stroke:#0000ff; stroke-linecap:round; stroke-linejoin:round; stroke-width:4; stroke-opacity:1; fill:none" points="1411.75,851.075 1435.44,801.022 "/>
<path clip-path="url(#clip592)" d="M1435.44 801.022 L1458.46 753.063 L1458.46 2490.67 L1435.44 2490.67  Z" fill="#ff0000" fill-rule="evenodd" fill-opacity="1"/>
<polyline clip-path="url(#clip592)" style="stroke:#ff0000; stroke-linecap:round; stroke-linejoin:round; stroke-width:4; stroke-opacity:1; fill:none" points="1435.44,801.022 1458.46,753.063 "/>
<path clip-path="url(#clip592)" d="M1458.46 753.063 L1480.86 707.14 L1480.86 2490.67 L1458.46 2490.67  Z" fill="#0000ff" fill-rule="evenodd" fill-opacity="1"/>
<polyline clip-path="url(#clip592)" style="stroke:#0000ff; stroke-linecap:round; stroke-linejoin:round; stroke-width:4; stroke-opacity:1; fill:none" points="1458.46,753.063 1480.86,707.14 "/>
<path clip-path="url(#clip592)" d="M1480.86 707.14 L1502.7 663.2 L1502.7 2490.67 L1480.86 2490.67  Z" fill="#ff0000" fill-rule="evenodd" fill-opacity="1"/>
<polyline clip-path="url(#clip592)" style="stroke:#ff0000; stroke-linecap:round; stroke-linejoin:round; stroke-width:4; stroke-opacity:1; fill:none" points="1480.86,707.14 1502.7,663.2 "/>
<path clip-path="url(#clip592)" d="M1502.7 663.2 L1524.04 621.195 L1524.04 2490.67 L1502.7 2490.67  Z" fill="#0000ff" fill-rule="evenodd" fill-opacity="1"/>
<polyline clip-path="url(#clip592)" style="stroke:#0000ff; stroke-linecap:round; stroke-linejoin:round; stroke-width:4; stroke-opacity:1; fill:none" points="1502.7,663.2 1524.04,621.195 "/>
<path clip-path="url(#clip592)" d="M1524.04 621.195 L1544.91 581.083 L1544.91 2490.67 L1524.04 2490.67  Z" fill="#ff0000" fill-rule="evenodd" fill-opacity="1"/>
<polyline clip-path="url(#clip592)" style="stroke:#ff0000; stroke-linecap:round; stroke-linejoin:round; stroke-width:4; stroke-opacity:1; fill:none" points="1524.04,621.195 1544.91,581.083 "/>
<path clip-path="url(#clip592)" d="M1544.91 581.083 L1565.36 542.823 L1565.36 2490.67 L1544.91 2490.67  Z" fill="#0000ff" fill-rule="evenodd" fill-opacity="1"/>
<polyline clip-path="url(#clip592)" style="stroke:#0000ff; stroke-linecap:round; stroke-linejoin:round; stroke-width:4; stroke-opacity:1; fill:none" points="1544.91,581.083 1565.36,542.823 "/>
<path clip-path="url(#clip592)" d="M1565.36 542.823 L1585.42 506.378 L1585.42 2490.67 L1565.36 2490.67  Z" fill="#ff0000" fill-rule="evenodd" fill-opacity="1"/>
<polyline clip-path="url(#clip592)" style="stroke:#ff0000; stroke-linecap:round; stroke-linejoin:round; stroke-width:4; stroke-opacity:1; fill:none" points="1565.36,542.823 1585.42,506.378 "/>
<path clip-path="url(#clip592)" d="M1585.42 506.378 L1605.13 471.716 L1605.13 2490.67 L1585.42 2490.67  Z" fill="#0000ff" fill-rule="evenodd" fill-opacity="1"/>
<polyline clip-path="url(#clip592)" style="stroke:#0000ff; stroke-linecap:round; stroke-linejoin:round; stroke-width:4; stroke-opacity:1; fill:none" points="1585.42,506.378 1605.13,471.716 "/>
<path clip-path="url(#clip592)" d="M1605.13 471.716 L1624.5 438.806 L1624.5 2490.67 L1605.13 2490.67  Z" fill="#ff0000" fill-rule="evenodd" fill-opacity="1"/>
<polyline clip-path="url(#clip592)" style="stroke:#ff0000; stroke-linecap:round; stroke-linejoin:round; stroke-width:4; stroke-opacity:1; fill:none" points="1605.13,471.716 1624.5,438.806 "/>
<path clip-path="url(#clip592)" d="M1624.5 438.806 L1643.58 407.62 L1643.58 2490.67 L1624.5 2490.67  Z" fill="#0000ff" fill-rule="evenodd" fill-opacity="1"/>
<polyline clip-path="url(#clip592)" style="stroke:#0000ff; stroke-linecap:round; stroke-linejoin:round; stroke-width:4; stroke-opacity:1; fill:none" points="1624.5,438.806 1643.58,407.62 "/>
<path clip-path="url(#clip592)" d="M1643.58 407.62 L1662.38 378.131 L1662.38 2490.67 L1643.58 2490.67  Z" fill="#ff0000" fill-rule="evenodd" fill-opacity="1"/>
<polyline clip-path="url(#clip592)" style="stroke:#ff0000; stroke-linecap:round; stroke-linejoin:round; stroke-width:4; stroke-opacity:1; fill:none" points="1643.58,407.62 1662.38,378.131 "/>
<path clip-path="url(#clip592)" d="M1662.38 378.131 L1680.93 350.317 L1680.93 2490.67 L1662.38 2490.67  Z" fill="#0000ff" fill-rule="evenodd" fill-opacity="1"/>
<polyline clip-path="url(#clip592)" style="stroke:#0000ff; stroke-linecap:round; stroke-linejoin:round; stroke-width:4; stroke-opacity:1; fill:none" points="1662.38,378.131 1680.93,350.317 "/>
<path clip-path="url(#clip592)" d="M1680.93 350.317 L1699.24 324.155 L1699.24 2490.67 L1680.93 2490.67  Z" fill="#ff0000" fill-rule="evenodd" fill-opacity="1"/>
<polyline clip-path="url(#clip592)" style="stroke:#ff0000; stroke-linecap:round; stroke-linejoin:round; stroke-width:4; stroke-opacity:1; fill:none" points="1680.93,350.317 1699.24,324.155 "/>
<path clip-path="url(#clip592)" d="M1699.24 324.155 L1717.34 299.626 L1717.34 2490.67 L1699.24 2490.67  Z" fill="#0000ff" fill-rule="evenodd" fill-opacity="1"/>
<polyline clip-path="url(#clip592)" style="stroke:#0000ff; stroke-linecap:round; stroke-linejoin:round; stroke-width:4; stroke-opacity:1; fill:none" points="1699.24,324.155 1717.34,299.626 "/>
<path clip-path="url(#clip592)" d="M1717.34 299.626 L1735.25 276.711 L1735.25 2490.67 L1717.34 2490.67  Z" fill="#ff0000" fill-rule="evenodd" fill-opacity="1"/>
<polyline clip-path="url(#clip592)" style="stroke:#ff0000; stroke-linecap:round; stroke-linejoin:round; stroke-width:4; stroke-opacity:1; fill:none" points="1717.34,299.626 1735.25,276.711 "/>
<path clip-path="url(#clip592)" d="M1735.25 276.711 L1752.98 255.393 L1752.98 2490.67 L1735.25 2490.67  Z" fill="#0000ff" fill-rule="evenodd" fill-opacity="1"/>
<polyline clip-path="url(#clip592)" style="stroke:#0000ff; stroke-linecap:round; stroke-linejoin:round; stroke-width:4; stroke-opacity:1; fill:none" points="1735.25,276.711 1752.98,255.393 "/>
<path clip-path="url(#clip592)" d="M1752.98 255.393 L1770.54 235.658 L1770.54 2490.67 L1752.98 2490.67  Z" fill="#ff0000" fill-rule="evenodd" fill-opacity="1"/>
<polyline clip-path="url(#clip592)" style="stroke:#ff0000; stroke-linecap:round; stroke-linejoin:round; stroke-width:4; stroke-opacity:1; fill:none" points="1752.98,255.393 1770.54,235.658 "/>
<path clip-path="url(#clip592)" d="M1770.54 235.658 L1787.96 217.491 L1787.96 2490.67 L1770.54 2490.67  Z" fill="#0000ff" fill-rule="evenodd" fill-opacity="1"/>
<polyline clip-path="url(#clip592)" style="stroke:#0000ff; stroke-linecap:round; stroke-linejoin:round; stroke-width:4; stroke-opacity:1; fill:none" points="1770.54,235.658 1787.96,217.491 "/>
<path clip-path="url(#clip592)" d="M1787.96 217.491 L1805.25 200.88 L1805.25 2490.67 L1787.96 2490.67  Z" fill="#ff0000" fill-rule="evenodd" fill-opacity="1"/>
<polyline clip-path="url(#clip592)" style="stroke:#ff0000; stroke-linecap:round; stroke-linejoin:round; stroke-width:4; stroke-opacity:1; fill:none" points="1787.96,217.491 1805.25,200.88 "/>
<path clip-path="url(#clip592)" d="M1805.25 200.88 L1822.42 185.813 L1822.42 2490.67 L1805.25 2490.67  Z" fill="#0000ff" fill-rule="evenodd" fill-opacity="1"/>
<polyline clip-path="url(#clip592)" style="stroke:#0000ff; stroke-linecap:round; stroke-linejoin:round; stroke-width:4; stroke-opacity:1; fill:none" points="1805.25,200.88 1822.42,185.813 "/>
<path clip-path="url(#clip592)" d="M1822.42 185.813 L1839.48 172.281 L1839.48 2490.67 L1822.42 2490.67  Z" fill="#ff0000" fill-rule="evenodd" fill-opacity="1"/>
<polyline clip-path="url(#clip592)" style="stroke:#ff0000; stroke-linecap:round; stroke-linejoin:round; stroke-width:4; stroke-opacity:1; fill:none" points="1822.42,185.813 1839.48,172.281 "/>
<path clip-path="url(#clip592)" d="M1839.48 172.281 L1856.45 160.275 L1856.45 2490.67 L1839.48 2490.67  Z" fill="#0000ff" fill-rule="evenodd" fill-opacity="1"/>
<polyline clip-path="url(#clip592)" style="stroke:#0000ff; stroke-linecap:round; stroke-linejoin:round; stroke-width:4; stroke-opacity:1; fill:none" points="1839.48,172.281 1856.45,160.275 "/>
<path clip-path="url(#clip592)" d="M1856.45 160.275 L1873.33 149.786 L1873.33 2490.67 L1856.45 2490.67  Z" fill="#ff0000" fill-rule="evenodd" fill-opacity="1"/>
<polyline clip-path="url(#clip592)" style="stroke:#ff0000; stroke-linecap:round; stroke-linejoin:round; stroke-width:4; stroke-opacity:1; fill:none" points="1856.45,160.275 1873.33,149.786 "/>
<path clip-path="url(#clip592)" d="M1873.33 149.786 L1890.15 140.808 L1890.15 2490.67 L1873.33 2490.67  Z" fill="#0000ff" fill-rule="evenodd" fill-opacity="1"/>
<polyline clip-path="url(#clip592)" style="stroke:#0000ff; stroke-linecap:round; stroke-linejoin:round; stroke-width:4; stroke-opacity:1; fill:none" points="1873.33,149.786 1890.15,140.808 "/>
<path clip-path="url(#clip592)" d="M1890.15 140.808 L1906.91 133.334 L1906.91 2490.67 L1890.15 2490.67  Z" fill="#ff0000" fill-rule="evenodd" fill-opacity="1"/>
<polyline clip-path="url(#clip592)" style="stroke:#ff0000; stroke-linecap:round; stroke-linejoin:round; stroke-width:4; stroke-opacity:1; fill:none" points="1890.15,140.808 1906.91,133.334 "/>
<path clip-path="url(#clip592)" d="M1906.91 133.334 L1923.62 127.362 L1923.62 2490.67 L1906.91 2490.67  Z" fill="#0000ff" fill-rule="evenodd" fill-opacity="1"/>
<polyline clip-path="url(#clip592)" style="stroke:#0000ff; stroke-linecap:round; stroke-linejoin:round; stroke-width:4; stroke-opacity:1; fill:none" points="1906.91,133.334 1923.62,127.362 "/>
<path clip-path="url(#clip592)" d="M1923.62 127.362 L1940.29 122.885 L1940.29 2490.67 L1923.62 2490.67  Z" fill="#ff0000" fill-rule="evenodd" fill-opacity="1"/>
<polyline clip-path="url(#clip592)" style="stroke:#ff0000; stroke-linecap:round; stroke-linejoin:round; stroke-width:4; stroke-opacity:1; fill:none" points="1923.62,127.362 1940.29,122.885 "/>
<path clip-path="url(#clip592)" d="M1940.29 122.885 L1956.93 119.903 L1956.93 2490.67 L1940.29 2490.67  Z" fill="#0000ff" fill-rule="evenodd" fill-opacity="1"/>
<polyline clip-path="url(#clip592)" style="stroke:#0000ff; stroke-linecap:round; stroke-linejoin:round; stroke-width:4; stroke-opacity:1; fill:none" points="1940.29,122.885 1956.93,119.903 "/>
<path clip-path="url(#clip592)" d="M1956.93 119.903 L1973.56 118.412 L1973.56 2490.67 L1956.93 2490.67  Z" fill="#ff0000" fill-rule="evenodd" fill-opacity="1"/>
<polyline clip-path="url(#clip592)" style="stroke:#ff0000; stroke-linecap:round; stroke-linejoin:round; stroke-width:4; stroke-opacity:1; fill:none" points="1956.93,119.903 1973.56,118.412 "/>
<path clip-path="url(#clip592)" d="M1973.56 118.412 L1990.19 118.412 L1990.19 2490.67 L1973.56 2490.67  Z" fill="#0000ff" fill-rule="evenodd" fill-opacity="1"/>
<polyline clip-path="url(#clip592)" style="stroke:#0000ff; stroke-linecap:round; stroke-linejoin:round; stroke-width:4; stroke-opacity:1; fill:none" points="1973.56,118.412 1990.19,118.412 "/>
<path clip-path="url(#clip592)" d="M1990.19 118.412 L2006.82 119.903 L2006.82 2490.67 L1990.19 2490.67  Z" fill="#ff0000" fill-rule="evenodd" fill-opacity="1"/>
<polyline clip-path="url(#clip592)" style="stroke:#ff0000; stroke-linecap:round; stroke-linejoin:round; stroke-width:4; stroke-opacity:1; fill:none" points="1990.19,118.412 2006.82,119.903 "/>
<path clip-path="url(#clip592)" d="M2006.82 119.903 L2023.47 122.885 L2023.47 2490.67 L2006.82 2490.67  Z" fill="#0000ff" fill-rule="evenodd" fill-opacity="1"/>
<polyline clip-path="url(#clip592)" style="stroke:#0000ff; stroke-linecap:round; stroke-linejoin:round; stroke-width:4; stroke-opacity:1; fill:none" points="2006.82,119.903 2023.47,122.885 "/>
<path clip-path="url(#clip592)" d="M2023.47 122.885 L2040.14 127.362 L2040.14 2490.67 L2023.47 2490.67  Z" fill="#ff0000" fill-rule="evenodd" fill-opacity="1"/>
<polyline clip-path="url(#clip592)" style="stroke:#ff0000; stroke-linecap:round; stroke-linejoin:round; stroke-width:4; stroke-opacity:1; fill:none" points="2023.47,122.885 2040.14,127.362 "/>
<path clip-path="url(#clip592)" d="M2040.14 127.362 L2056.85 133.334 L2056.85 2490.67 L2040.14 2490.67  Z" fill="#0000ff" fill-rule="evenodd" fill-opacity="1"/>
<polyline clip-path="url(#clip592)" style="stroke:#0000ff; stroke-linecap:round; stroke-linejoin:round; stroke-width:4; stroke-opacity:1; fill:none" points="2040.14,127.362 2056.85,133.334 "/>
<path clip-path="url(#clip592)" d="M2056.85 133.334 L2073.61 140.808 L2073.61 2490.67 L2056.85 2490.67  Z" fill="#ff0000" fill-rule="evenodd" fill-opacity="1"/>
<polyline clip-path="url(#clip592)" style="stroke:#ff0000; stroke-linecap:round; stroke-linejoin:round; stroke-width:4; stroke-opacity:1; fill:none" points="2056.85,133.334 2073.61,140.808 "/>
<path clip-path="url(#clip592)" d="M2073.61 140.808 L2090.42 149.786 L2090.42 2490.67 L2073.61 2490.67  Z" fill="#0000ff" fill-rule="evenodd" fill-opacity="1"/>
<polyline clip-path="url(#clip592)" style="stroke:#0000ff; stroke-linecap:round; stroke-linejoin:round; stroke-width:4; stroke-opacity:1; fill:none" points="2073.61,140.808 2090.42,149.786 "/>
<path clip-path="url(#clip592)" d="M2090.42 149.786 L2107.31 160.275 L2107.31 2490.67 L2090.42 2490.67  Z" fill="#ff0000" fill-rule="evenodd" fill-opacity="1"/>
<polyline clip-path="url(#clip592)" style="stroke:#ff0000; stroke-linecap:round; stroke-linejoin:round; stroke-width:4; stroke-opacity:1; fill:none" points="2090.42,149.786 2107.31,160.275 "/>
<path clip-path="url(#clip592)" d="M2107.31 160.275 L2124.27 172.281 L2124.27 2490.67 L2107.31 2490.67  Z" fill="#0000ff" fill-rule="evenodd" fill-opacity="1"/>
<polyline clip-path="url(#clip592)" style="stroke:#0000ff; stroke-linecap:round; stroke-linejoin:round; stroke-width:4; stroke-opacity:1; fill:none" points="2107.31,160.275 2124.27,172.281 "/>
<path clip-path="url(#clip592)" d="M2124.27 172.281 L2141.34 185.813 L2141.34 2490.67 L2124.27 2490.67  Z" fill="#ff0000" fill-rule="evenodd" fill-opacity="1"/>
<polyline clip-path="url(#clip592)" style="stroke:#ff0000; stroke-linecap:round; stroke-linejoin:round; stroke-width:4; stroke-opacity:1; fill:none" points="2124.27,172.281 2141.34,185.813 "/>
<path clip-path="url(#clip592)" d="M2141.34 185.813 L2158.5 200.88 L2158.5 2490.67 L2141.34 2490.67  Z" fill="#0000ff" fill-rule="evenodd" fill-opacity="1"/>
<polyline clip-path="url(#clip592)" style="stroke:#0000ff; stroke-linecap:round; stroke-linejoin:round; stroke-width:4; stroke-opacity:1; fill:none" points="2141.34,185.813 2158.5,200.88 "/>
<path clip-path="url(#clip592)" d="M2158.5 200.88 L2175.79 217.491 L2175.79 2490.67 L2158.5 2490.67  Z" fill="#ff0000" fill-rule="evenodd" fill-opacity="1"/>
<polyline clip-path="url(#clip592)" style="stroke:#ff0000; stroke-linecap:round; stroke-linejoin:round; stroke-width:4; stroke-opacity:1; fill:none" points="2158.5,200.88 2175.79,217.491 "/>
<path clip-path="url(#clip592)" d="M2175.79 217.491 L2193.21 235.658 L2193.21 2490.67 L2175.79 2490.67  Z" fill="#0000ff" fill-rule="evenodd" fill-opacity="1"/>
<polyline clip-path="url(#clip592)" style="stroke:#0000ff; stroke-linecap:round; stroke-linejoin:round; stroke-width:4; stroke-opacity:1; fill:none" points="2175.79,217.491 2193.21,235.658 "/>
<path clip-path="url(#clip592)" d="M2193.21 235.658 L2210.78 255.393 L2210.78 2490.67 L2193.21 2490.67  Z" fill="#ff0000" fill-rule="evenodd" fill-opacity="1"/>
<polyline clip-path="url(#clip592)" style="stroke:#ff0000; stroke-linecap:round; stroke-linejoin:round; stroke-width:4; stroke-opacity:1; fill:none" points="2193.21,235.658 2210.78,255.393 "/>
<path clip-path="url(#clip592)" d="M2210.78 255.393 L2228.5 276.711 L2228.5 2490.67 L2210.78 2490.67  Z" fill="#0000ff" fill-rule="evenodd" fill-opacity="1"/>
<polyline clip-path="url(#clip592)" style="stroke:#0000ff; stroke-linecap:round; stroke-linejoin:round; stroke-width:4; stroke-opacity:1; fill:none" points="2210.78,255.393 2228.5,276.711 "/>
<path clip-path="url(#clip592)" d="M2228.5 276.711 L2246.41 299.626 L2246.41 2490.67 L2228.5 2490.67  Z" fill="#ff0000" fill-rule="evenodd" fill-opacity="1"/>
<polyline clip-path="url(#clip592)" style="stroke:#ff0000; stroke-linecap:round; stroke-linejoin:round; stroke-width:4; stroke-opacity:1; fill:none" points="2228.5,276.711 2246.41,299.626 "/>
<path clip-path="url(#clip592)" d="M2246.41 299.626 L2264.51 324.155 L2264.51 2490.67 L2246.41 2490.67  Z" fill="#0000ff" fill-rule="evenodd" fill-opacity="1"/>
<polyline clip-path="url(#clip592)" style="stroke:#0000ff; stroke-linecap:round; stroke-linejoin:round; stroke-width:4; stroke-opacity:1; fill:none" points="2246.41,299.626 2264.51,324.155 "/>
<path clip-path="url(#clip592)" d="M2264.51 324.155 L2282.83 350.317 L2282.83 2490.67 L2264.51 2490.67  Z" fill="#ff0000" fill-rule="evenodd" fill-opacity="1"/>
<polyline clip-path="url(#clip592)" style="stroke:#ff0000; stroke-linecap:round; stroke-linejoin:round; stroke-width:4; stroke-opacity:1; fill:none" points="2264.51,324.155 2282.83,350.317 "/>
<path clip-path="url(#clip592)" d="M2282.83 350.317 L2301.37 378.131 L2301.37 2490.67 L2282.83 2490.67  Z" fill="#0000ff" fill-rule="evenodd" fill-opacity="1"/>
<polyline clip-path="url(#clip592)" style="stroke:#0000ff; stroke-linecap:round; stroke-linejoin:round; stroke-width:4; stroke-opacity:1; fill:none" points="2282.83,350.317 2301.37,378.131 "/>
<path clip-path="url(#clip592)" d="M2301.37 378.131 L2320.17 407.62 L2320.17 2490.67 L2301.37 2490.67  Z" fill="#ff0000" fill-rule="evenodd" fill-opacity="1"/>
<polyline clip-path="url(#clip592)" style="stroke:#ff0000; stroke-linecap:round; stroke-linejoin:round; stroke-width:4; stroke-opacity:1; fill:none" points="2301.37,378.131 2320.17,407.62 "/>
<path clip-path="url(#clip592)" d="M2320.17 407.62 L2339.25 438.806 L2339.25 2490.67 L2320.17 2490.67  Z" fill="#0000ff" fill-rule="evenodd" fill-opacity="1"/>
<polyline clip-path="url(#clip592)" style="stroke:#0000ff; stroke-linecap:round; stroke-linejoin:round; stroke-width:4; stroke-opacity:1; fill:none" points="2320.17,407.62 2339.25,438.806 "/>
<path clip-path="url(#clip592)" d="M2339.25 438.806 L2358.63 471.716 L2358.63 2490.67 L2339.25 2490.67  Z" fill="#ff0000" fill-rule="evenodd" fill-opacity="1"/>
<polyline clip-path="url(#clip592)" style="stroke:#ff0000; stroke-linecap:round; stroke-linejoin:round; stroke-width:4; stroke-opacity:1; fill:none" points="2339.25,438.806 2358.63,471.716 "/>
<path clip-path="url(#clip592)" d="M2358.63 471.716 L2378.33 506.378 L2378.33 2490.67 L2358.63 2490.67  Z" fill="#0000ff" fill-rule="evenodd" fill-opacity="1"/>
<polyline clip-path="url(#clip592)" style="stroke:#0000ff; stroke-linecap:round; stroke-linejoin:round; stroke-width:4; stroke-opacity:1; fill:none" points="2358.63,471.716 2378.33,506.378 "/>
<path clip-path="url(#clip592)" d="M2378.33 506.378 L2398.39 542.823 L2398.39 2490.67 L2378.33 2490.67  Z" fill="#ff0000" fill-rule="evenodd" fill-opacity="1"/>
<polyline clip-path="url(#clip592)" style="stroke:#ff0000; stroke-linecap:round; stroke-linejoin:round; stroke-width:4; stroke-opacity:1; fill:none" points="2378.33,506.378 2398.39,542.823 "/>
<path clip-path="url(#clip592)" d="M2398.39 542.823 L2418.84 581.083 L2418.84 2490.67 L2398.39 2490.67  Z" fill="#0000ff" fill-rule="evenodd" fill-opacity="1"/>
<polyline clip-path="url(#clip592)" style="stroke:#0000ff; stroke-linecap:round; stroke-linejoin:round; stroke-width:4; stroke-opacity:1; fill:none" points="2398.39,542.823 2418.84,581.083 "/>
<path clip-path="url(#clip592)" d="M2418.84 581.083 L2439.71 621.195 L2439.71 2490.67 L2418.84 2490.67  Z" fill="#ff0000" fill-rule="evenodd" fill-opacity="1"/>
<polyline clip-path="url(#clip592)" style="stroke:#ff0000; stroke-linecap:round; stroke-linejoin:round; stroke-width:4; stroke-opacity:1; fill:none" points="2418.84,581.083 2439.71,621.195 "/>
<path clip-path="url(#clip592)" d="M2439.71 621.195 L2461.05 663.2 L2461.05 2490.67 L2439.71 2490.67  Z" fill="#0000ff" fill-rule="evenodd" fill-opacity="1"/>
<polyline clip-path="url(#clip592)" style="stroke:#0000ff; stroke-linecap:round; stroke-linejoin:round; stroke-width:4; stroke-opacity:1; fill:none" points="2439.71,621.195 2461.05,663.2 "/>
<path clip-path="url(#clip592)" d="M2461.05 663.2 L2482.89 707.14 L2482.89 2490.67 L2461.05 2490.67  Z" fill="#ff0000" fill-rule="evenodd" fill-opacity="1"/>
<polyline clip-path="url(#clip592)" style="stroke:#ff0000; stroke-linecap:round; stroke-linejoin:round; stroke-width:4; stroke-opacity:1; fill:none" points="2461.05,663.2 2482.89,707.14 "/>
<path clip-path="url(#clip592)" d="M2482.89 707.14 L2505.3 753.063 L2505.3 2490.67 L2482.89 2490.67  Z" fill="#0000ff" fill-rule="evenodd" fill-opacity="1"/>
<polyline clip-path="url(#clip592)" style="stroke:#0000ff; stroke-linecap:round; stroke-linejoin:round; stroke-width:4; stroke-opacity:1; fill:none" points="2482.89,707.14 2505.3,753.063 "/>
<path clip-path="url(#clip592)" d="M2505.3 753.063 L2528.31 801.022 L2528.31 2490.67 L2505.3 2490.67  Z" fill="#ff0000" fill-rule="evenodd" fill-opacity="1"/>
<polyline clip-path="url(#clip592)" style="stroke:#ff0000; stroke-linecap:round; stroke-linejoin:round; stroke-width:4; stroke-opacity:1; fill:none" points="2505.3,753.063 2528.31,801.022 "/>
<path clip-path="url(#clip592)" d="M2528.31 801.022 L2552 851.075 L2552 2490.67 L2528.31 2490.67  Z" fill="#0000ff" fill-rule="evenodd" fill-opacity="1"/>
<polyline clip-path="url(#clip592)" style="stroke:#0000ff; stroke-linecap:round; stroke-linejoin:round; stroke-width:4; stroke-opacity:1; fill:none" points="2528.31,801.022 2552,851.075 "/>
<path clip-path="url(#clip592)" d="M2552 851.075 L2576.45 903.285 L2576.45 2490.67 L2552 2490.67  Z" fill="#ff0000" fill-rule="evenodd" fill-opacity="1"/>
<polyline clip-path="url(#clip592)" style="stroke:#ff0000; stroke-linecap:round; stroke-linejoin:round; stroke-width:4; stroke-opacity:1; fill:none" points="2552,851.075 2576.45,903.285 "/>
<path clip-path="url(#clip592)" d="M2576.45 903.285 L2601.73 957.723 L2601.73 2490.67 L2576.45 2490.67  Z" fill="#0000ff" fill-rule="evenodd" fill-opacity="1"/>
<polyline clip-path="url(#clip592)" style="stroke:#0000ff; stroke-linecap:round; stroke-linejoin:round; stroke-width:4; stroke-opacity:1; fill:none" points="2576.45,903.285 2601.73,957.723 "/>
<path clip-path="url(#clip592)" d="M2601.73 957.723 L2627.94 1014.47 L2627.94 2490.67 L2601.73 2490.67  Z" fill="#ff0000" fill-rule="evenodd" fill-opacity="1"/>
<polyline clip-path="url(#clip592)" style="stroke:#ff0000; stroke-linecap:round; stroke-linejoin:round; stroke-width:4; stroke-opacity:1; fill:none" points="2601.73,957.723 2627.94,1014.47 "/>
<path clip-path="url(#clip592)" d="M2627.94 1014.47 L2655.21 1073.61 L2655.21 2490.67 L2627.94 2490.67  Z" fill="#0000ff" fill-rule="evenodd" fill-opacity="1"/>
<polyline clip-path="url(#clip592)" style="stroke:#0000ff; stroke-linecap:round; stroke-linejoin:round; stroke-width:4; stroke-opacity:1; fill:none" points="2627.94,1014.47 2655.21,1073.61 "/>
<path clip-path="url(#clip592)" d="M2655.21 1073.61 L2683.66 1135.25 L2683.66 2490.67 L2655.21 2490.67  Z" fill="#ff0000" fill-rule="evenodd" fill-opacity="1"/>
<polyline clip-path="url(#clip592)" style="stroke:#ff0000; stroke-linecap:round; stroke-linejoin:round; stroke-width:4; stroke-opacity:1; fill:none" points="2655.21,1073.61 2683.66,1135.25 "/>
<path clip-path="url(#clip592)" d="M2683.66 1135.25 L2713.47 1199.5 L2713.47 2490.67 L2683.66 2490.67  Z" fill="#0000ff" fill-rule="evenodd" fill-opacity="1"/>
<polyline clip-path="url(#clip592)" style="stroke:#0000ff; stroke-linecap:round; stroke-linejoin:round; stroke-width:4; stroke-opacity:1; fill:none" points="2683.66,1135.25 2713.47,1199.5 "/>
<path clip-path="url(#clip592)" d="M2713.47 1199.5 L2744.83 1266.49 L2744.83 2490.67 L2713.47 2490.67  Z" fill="#ff0000" fill-rule="evenodd" fill-opacity="1"/>
<polyline clip-path="url(#clip592)" style="stroke:#ff0000; stroke-linecap:round; stroke-linejoin:round; stroke-width:4; stroke-opacity:1; fill:none" points="2713.47,1199.5 2744.83,1266.49 "/>
<path clip-path="url(#clip592)" d="M2744.83 1266.49 L2778 1336.38 L2778 2490.67 L2744.83 2490.67  Z" fill="#0000ff" fill-rule="evenodd" fill-opacity="1"/>
<polyline clip-path="url(#clip592)" style="stroke:#0000ff; stroke-linecap:round; stroke-linejoin:round; stroke-width:4; stroke-opacity:1; fill:none" points="2744.83,1266.49 2778,1336.38 "/>
<path clip-path="url(#clip592)" d="M2778 1336.38 L2813.28 1409.32 L2813.28 2490.67 L2778 2490.67  Z" fill="#ff0000" fill-rule="evenodd" fill-opacity="1"/>
<polyline clip-path="url(#clip592)" style="stroke:#ff0000; stroke-linecap:round; stroke-linejoin:round; stroke-width:4; stroke-opacity:1; fill:none" points="2778,1336.38 2813.28,1409.32 "/>
<path clip-path="url(#clip592)" d="M2813.28 1409.32 L2851.1 1485.55 L2851.1 2490.67 L2813.28 2490.67  Z" fill="#0000ff" fill-rule="evenodd" fill-opacity="1"/>
<polyline clip-path="url(#clip592)" style="stroke:#0000ff; stroke-linecap:round; stroke-linejoin:round; stroke-width:4; stroke-opacity:1; fill:none" points="2813.28,1409.32 2851.1,1485.55 "/>
<path clip-path="url(#clip592)" d="M2851.1 1485.55 L2891.97 1565.29 L2891.97 2490.67 L2851.1 2490.67  Z" fill="#ff0000" fill-rule="evenodd" fill-opacity="1"/>
<polyline clip-path="url(#clip592)" style="stroke:#ff0000; stroke-linecap:round; stroke-linejoin:round; stroke-width:4; stroke-opacity:1; fill:none" points="2851.1,1485.55 2891.97,1565.29 "/>
<path clip-path="url(#clip592)" d="M2891.97 1565.29 L2936.62 1648.86 L2936.62 2490.67 L2891.97 2490.67  Z" fill="#0000ff" fill-rule="evenodd" fill-opacity="1"/>
<polyline clip-path="url(#clip592)" style="stroke:#0000ff; stroke-linecap:round; stroke-linejoin:round; stroke-width:4; stroke-opacity:1; fill:none" points="2891.97,1565.29 2936.62,1648.86 "/>
<path clip-path="url(#clip592)" d="M2936.62 1648.86 L2986.08 1736.65 L2986.08 2490.67 L2936.62 2490.67  Z" fill="#ff0000" fill-rule="evenodd" fill-opacity="1"/>
<polyline clip-path="url(#clip592)" style="stroke:#ff0000; stroke-linecap:round; stroke-linejoin:round; stroke-width:4; stroke-opacity:1; fill:none" points="2936.62,1648.86 2986.08,1736.65 "/>
<path clip-path="url(#clip592)" d="M2986.08 1736.65 L3041.85 1829.13 L3041.85 2490.67 L2986.08 2490.67  Z" fill="#0000ff" fill-rule="evenodd" fill-opacity="1"/>
<polyline clip-path="url(#clip592)" style="stroke:#0000ff; stroke-linecap:round; stroke-linejoin:round; stroke-width:4; stroke-opacity:1; fill:none" points="2986.08,1736.65 3041.85,1829.13 "/>
<path clip-path="url(#clip592)" d="M3041.85 1829.13 L3106.32 1926.99 L3106.32 2490.67 L3041.85 2490.67  Z" fill="#ff0000" fill-rule="evenodd" fill-opacity="1"/>
<polyline clip-path="url(#clip592)" style="stroke:#ff0000; stroke-linecap:round; stroke-linejoin:round; stroke-width:4; stroke-opacity:1; fill:none" points="3041.85,1829.13 3106.32,1926.99 "/>
<path clip-path="url(#clip592)" d="M3106.32 1926.99 L3183.6 2031.16 L3183.6 2490.67 L3106.32 2490.67  Z" fill="#0000ff" fill-rule="evenodd" fill-opacity="1"/>
<polyline clip-path="url(#clip592)" style="stroke:#0000ff; stroke-linecap:round; stroke-linejoin:round; stroke-width:4; stroke-opacity:1; fill:none" points="3106.32,1926.99 3183.6,2031.16 "/>
<path clip-path="url(#clip592)" d="M3183.6 2031.16 L3281.79 2143.11 L3281.79 2490.67 L3183.6 2490.67  Z" fill="#ff0000" fill-rule="evenodd" fill-opacity="1"/>
<polyline clip-path="url(#clip592)" style="stroke:#ff0000; stroke-linecap:round; stroke-linejoin:round; stroke-width:4; stroke-opacity:1; fill:none" points="3183.6,2031.16 3281.79,2143.11 "/>
<path clip-path="url(#clip592)" d="M3281.79 2143.11 L3421.15 2265.46 L3421.15 2490.67 L3281.79 2490.67  Z" fill="#0000ff" fill-rule="evenodd" fill-opacity="1"/>
<polyline clip-path="url(#clip592)" style="stroke:#0000ff; stroke-linecap:round; stroke-linejoin:round; stroke-width:4; stroke-opacity:1; fill:none" points="3281.79,2143.11 3421.15,2265.46 "/>
<path clip-path="url(#clip592)" d="M3421.15 2265.46 L3690.25 2404.68 L3690.25 2490.67 L3421.15 2490.67  Z" fill="#ff0000" fill-rule="evenodd" fill-opacity="1"/>
<polyline clip-path="url(#clip592)" style="stroke:#ff0000; stroke-linecap:round; stroke-linejoin:round; stroke-width:4; stroke-opacity:1; fill:none" points="3421.15,2265.46 3690.25,2404.68 "/>
<polyline clip-path="url(#clip592)" style="stroke:#000000; stroke-linecap:round; stroke-linejoin:round; stroke-width:4; stroke-opacity:1; fill:none" points="273.501,2404.68 542.6,2265.46 681.963,2143.11 780.157,2031.16 857.433,1926.99 921.902,1829.13 977.674,1736.65 1027.13,1648.86 1071.79,1565.29 1112.66,1485.55 1150.47,1409.32 1185.76,1336.38 1218.93,1266.49 1250.29,1199.5 1280.1,1135.25 1308.55,1073.61 1335.81,1014.47 1362.03,957.723 1387.31,903.285 1411.75,851.075 1435.44,801.022 1458.46,753.063 1480.86,707.14 1502.7,663.2 1524.04,621.195 1544.91,581.083 1565.36,542.823 1585.42,506.378 1605.13,471.716 1624.5,438.806 1643.58,407.62 1662.38,378.131 1680.93,350.317 1699.24,324.155 1717.34,299.626 1735.25,276.711 1752.98,255.393 1770.54,235.658 1787.96,217.491 1805.25,200.88 1822.42,185.813 1839.48,172.281 1856.45,160.275 1873.33,149.786 1890.15,140.808 1906.91,133.334 1923.62,127.362 1940.29,122.885 1956.93,119.903 1973.56,118.412 1990.19,118.412 2006.82,119.903 2023.47,122.885 2040.14,127.362 2056.85,133.334 2073.61,140.808 2090.42,149.786 2107.31,160.275 2124.27,172.281 2141.34,185.813 2158.5,200.88 2175.79,217.491 2193.21,235.658 2210.78,255.393 2228.5,276.711 2246.41,299.626 2264.51,324.155 2282.83,350.317 2301.37,378.131 2320.17,407.62 2339.25,438.806 2358.63,471.716 2378.33,506.378 2398.39,542.823 2418.84,581.083 2439.71,621.195 2461.05,663.2 2482.89,707.14 2505.3,753.063 2528.31,801.022 2552,851.075 2576.45,903.285 2601.73,957.723 2627.94,1014.47 2655.21,1073.61 2683.66,1135.25 2713.47,1199.5 2744.83,1266.49 2778,1336.38 2813.28,1409.32 2851.1,1485.55 2891.97,1565.29 2936.62,1648.86 2986.08,1736.65 3041.85,1829.13 3106.32,1926.99 3183.6,2031.16 3281.79,2143.11 3421.15,2265.46 3690.25,2404.68 "/>
</svg>
