<?xml version="1.0" encoding="utf-8"?>
<svg xmlns="http://www.w3.org/2000/svg" xmlns:xlink="http://www.w3.org/1999/xlink" width="960" height="672" viewBox="0 0 3840 2688">
<defs>
  <clipPath id="clip770">
    <rect x="0" y="0" width="3840" height="2688"/>
  </clipPath>
</defs>
<path clip-path="url(#clip770)" d="M0 2688 L3840 2688 L3840 -1.47793e-13 L0 -1.47793e-13  Z" fill="#ffffff" fill-rule="evenodd" fill-opacity="1"/>
<defs>
  <clipPath id="clip771">
    <rect x="768" y="0" width="2689" height="2688"/>
  </clipPath>
</defs>
<path clip-path="url(#clip770)" d="M170.512 2561.84 L3792.76 2561.84 L3792.76 47.2441 L170.512 47.2441  Z" fill="#ffffff" fill-rule="evenodd" fill-opacity="1"/>
<defs>
  <clipPath id="clip772">
    <rect x="170" y="47" width="3623" height="2516"/>
  </clipPath>
</defs>
<polyline clip-path="url(#clip772)" style="stroke:#000000; stroke-linecap:round; stroke-linejoin:round; stroke-width:2; stroke-opacity:0.1; fill:none" points="273.028,2561.84 273.028,47.2441 "/>
<polyline clip-path="url(#clip772)" style="stroke:#000000; stroke-linecap:round; stroke-linejoin:round; stroke-width:2; stroke-opacity:0.1; fill:none" points="853.143,2561.84 853.143,47.2441 "/>
<polyline clip-path="url(#clip772)" style="stroke:#000000; stroke-linecap:round; stroke-linejoin:round; stroke-width:2; stroke-opacity:0.1; fill:none" points="1433.26,2561.84 1433.26,47.2441 "/>
<polyline clip-path="url(#clip772)" style="stroke:#000000; stroke-linecap:round; stroke-linejoin:round; stroke-width:2; stroke-opacity:0.1; fill:none" points="2013.37,2561.84 2013.37,47.2441 "/>
<polyline clip-path="url(#clip772)" style="stroke:#000000; stroke-linecap:round; stroke-linejoin:round; stroke-width:2; stroke-opacity:0.1; fill:none" points="2593.49,2561.84 2593.49,47.2441 "/>
<polyline clip-path="url(#clip772)" style="stroke:#000000; stroke-linecap:round; stroke-linejoin:round; stroke-width:2; stroke-opacity:0.1; fill:none" points="3173.6,2561.84 3173.6,47.2441 "/>
<polyline clip-path="url(#clip772)" style="stroke:#000000; stroke-linecap:round; stroke-linejoin:round; stroke-width:2; stroke-opacity:0.1; fill:none" points="3753.72,2561.84 3753.72,47.2441 "/>
<polyline clip-path="url(#clip772)" style="stroke:#000000; stroke-linecap:round; stroke-linejoin:round; stroke-width:2; stroke-opacity:0.1; fill:none" points="170.512,2490.67 3792.76,2490.67 "/>
<polyline clip-path="url(#clip772)" style="stroke:#000000; stroke-linecap:round; stroke-linejoin:round; stroke-width:2; stroke-opacity:0.1; fill:none" points="170.512,1846.19 3792.76,1846.19 "/>
<polyline clip-path="url(#clip772)" style="stroke:#000000; stroke-linecap:round; stroke-linejoin:round; stroke-width:2; stroke-opacity:0.1; fill:none" points="170.512,1201.7 3792.76,1201.7 "/>
<polyline clip-path="url(#clip772)" style="stroke:#000000; stroke-linecap:round; stroke-linejoin:round; stroke-width:2; stroke-opacity:0.1; fill:none" points="170.512,557.215 3792.76,557.215 "/>
<polyline clip-path="url(#clip770)" style="stroke:#000000; stroke-linecap:round; stroke-linejoin:round; stroke-width:4; stroke-opacity:1; fill:none" points="170.512,2561.84 3792.76,2561.84 "/>
<polyline clip-path="url(#clip770)" style="stroke:#000000; stroke-linecap:round; stroke-linejoin:round; stroke-width:4; stroke-opacity:1; fill:none" points="273.028,2561.84 273.028,2542.94 "/>
<polyline clip-path="url(#clip770)" style="stroke:#000000; stroke-linecap:round; stroke-linejoin:round; stroke-width:4; stroke-opacity:1; fill:none" points="853.143,2561.84 853.143,2542.94 "/>
<polyline clip-path="url(#clip770)" style="stroke:#000000; stroke-linecap:round; stroke-linejoin:round; stroke-width:4; stroke-opacity:1; fill:none" points="1433.26,2561.84 1433.26,2542.94 "/>
<polyline clip-path="url(#clip770)" style="stroke:#000000; stroke-linecap:round; stroke-linejoin:round; stroke-width:4; stroke-opacity:1; fill:none" points="2013.37,2561.84 2013.37,2542.94 "/>
<polyline clip-path="url(#clip770)" style="stroke:#000000; stroke-linecap:round; stroke-linejoin:round; stroke-width:4; stroke-opacity:1; fill:none" points="2593.49,2561.84 2593.49,2542.94 "/>
<polyline clip-path="url(#clip770)" style="stroke:#000000; stroke-linecap:round; stroke-linejoin:round; stroke-width:4; stroke-opacity:1; fill:none" points="3173.6,2561.84 3173.6,2542.94 "/>
<polyline clip-path="url(#clip770)" style="stroke:#000000; stroke-linecap:round; stroke-linejoin:round; stroke-width:4; stroke-opacity:1; fill:none" points="3753.72,2561.84 3753.72,2542.94 "/>
<path clip-path="url(#clip770)" d="M273.028 2604.28 Q269.417 2604.28 267.589 2607.84 Q265.783 2611.39 265.783 2618.51 Q265.783 2625.62 267.589 2629.19 Q269.417 2632.73 273.028 2632.73 Q276.663 2632.73 278.468 2629.19 Q280.297 2625.62 280.297 2618.51 Q280.297 2611.39 278.468 2607.84 Q276.663 2604.28 273.028 2604.28 M273.028 2600.57 Q278.839 2600.57 281.894 2605.18 Q284.973 2609.76 284.973 2618.51 Q284.973 2627.24 281.894 2631.85 Q278.839 2636.43 273.028 2636.43 Q267.218 2636.43 264.14 2631.85 Q261.084 2627.24 261.084 2618.51 Q261.084 2609.76 264.14 2605.18 Q267.218 2600.57 273.028 2600.57 Z" fill="#000000" fill-rule="nonzero" fill-opacity="1" /><path clip-path="url(#clip770)" d="M812.75 2631.82 L820.389 2631.82 L820.389 2605.46 L812.078 2607.13 L812.078 2602.87 L820.342 2601.2 L825.018 2601.2 L825.018 2631.82 L832.657 2631.82 L832.657 2635.76 L812.75 2635.76 L812.75 2631.82 Z" fill="#000000" fill-rule="nonzero" fill-opacity="1" /><path clip-path="url(#clip770)" d="M852.101 2604.28 Q848.49 2604.28 846.662 2607.84 Q844.856 2611.39 844.856 2618.51 Q844.856 2625.62 846.662 2629.19 Q848.49 2632.73 852.101 2632.73 Q855.736 2632.73 857.541 2629.19 Q859.37 2625.62 859.37 2618.51 Q859.37 2611.39 857.541 2607.84 Q855.736 2604.28 852.101 2604.28 M852.101 2600.57 Q857.911 2600.57 860.967 2605.18 Q864.046 2609.76 864.046 2618.51 Q864.046 2627.24 860.967 2631.85 Q857.911 2636.43 852.101 2636.43 Q846.291 2636.43 843.212 2631.85 Q840.157 2627.24 840.157 2618.51 Q840.157 2609.76 843.212 2605.18 Q846.291 2600.57 852.101 2600.57 Z" fill="#000000" fill-rule="nonzero" fill-opacity="1" /><path clip-path="url(#clip770)" d="M882.263 2604.28 Q878.652 2604.28 876.823 2607.84 Q875.018 2611.39 875.018 2618.51 Q875.018 2625.62 876.823 2629.19 Q878.652 2632.73 882.263 2632.73 Q885.897 2632.73 887.703 2629.19 Q889.532 2625.62 889.532 2618.51 Q889.532 2611.39 887.703 2607.84 Q885.897 2604.28 882.263 2604.28 M882.263 2600.57 Q888.073 2600.57 891.129 2605.18 Q894.208 2609.76 894.208 2618.51 Q894.208 2627.24 891.129 2631.85 Q888.073 2636.43 882.263 2636.43 Q876.453 2636.43 873.374 2631.85 Q870.319 2627.24 870.319 2618.51 Q870.319 2609.76 873.374 2605.18 Q876.453 2600.57 882.263 2600.57 Z" fill="#000000" fill-rule="nonzero" fill-opacity="1" /><path clip-path="url(#clip770)" d="M1396.95 2631.82 L1413.27 2631.82 L1413.27 2635.76 L1391.32 2635.76 L1391.32 2631.82 Q1393.99 2629.07 1398.57 2624.44 Q1403.18 2619.79 1404.36 2618.45 Q1406.6 2615.92 1407.48 2614.19 Q1408.38 2612.43 1408.38 2610.74 Q1408.38 2607.98 1406.44 2606.25 Q1404.52 2604.51 1401.42 2604.51 Q1399.22 2604.51 1396.76 2605.27 Q1394.33 2606.04 1391.56 2607.59 L1391.56 2602.87 Q1394.38 2601.73 1396.83 2601.15 Q1399.29 2600.57 1401.32 2600.57 Q1406.7 2600.57 1409.89 2603.26 Q1413.08 2605.95 1413.08 2610.44 Q1413.08 2612.57 1412.27 2614.49 Q1411.49 2616.38 1409.38 2618.98 Q1408.8 2619.65 1405.7 2622.87 Q1402.6 2626.06 1396.95 2631.82 Z" fill="#000000" fill-rule="nonzero" fill-opacity="1" /><path clip-path="url(#clip770)" d="M1433.08 2604.28 Q1429.47 2604.28 1427.64 2607.84 Q1425.84 2611.39 1425.84 2618.51 Q1425.84 2625.62 1427.64 2629.19 Q1429.47 2632.73 1433.08 2632.73 Q1436.72 2632.73 1438.52 2629.19 Q1440.35 2625.62 1440.35 2618.51 Q1440.35 2611.39 1438.52 2607.84 Q1436.72 2604.28 1433.08 2604.28 M1433.08 2600.57 Q1438.89 2600.57 1441.95 2605.18 Q1445.03 2609.76 1445.03 2618.51 Q1445.03 2627.24 1441.95 2631.85 Q1438.89 2636.43 1433.08 2636.43 Q1427.27 2636.43 1424.2 2631.85 Q1421.14 2627.24 1421.14 2618.51 Q1421.14 2609.76 1424.2 2605.18 Q1427.27 2600.57 1433.08 2600.57 Z" fill="#000000" fill-rule="nonzero" fill-opacity="1" /><path clip-path="url(#clip770)" d="M1463.25 2604.28 Q1459.63 2604.28 1457.81 2607.84 Q1456 2611.39 1456 2618.51 Q1456 2625.62 1457.81 2629.19 Q1459.63 2632.73 1463.25 2632.73 Q1466.88 2632.73 1468.69 2629.19 Q1470.51 2625.62 1470.51 2618.51 Q1470.51 2611.39 1468.69 2607.84 Q1466.88 2604.28 1463.25 2604.28 M1463.25 2600.57 Q1469.06 2600.57 1472.11 2605.18 Q1475.19 2609.76 1475.19 2618.51 Q1475.19 2627.24 1472.11 2631.85 Q1469.06 2636.43 1463.25 2636.43 Q1457.44 2636.43 1454.36 2631.85 Q1451.3 2627.24 1451.3 2618.51 Q1451.3 2609.76 1454.36 2605.18 Q1457.44 2600.57 1463.25 2600.57 Z" fill="#000000" fill-rule="nonzero" fill-opacity="1" /><path clip-path="url(#clip770)" d="M1987.13 2617.13 Q1990.49 2617.84 1992.37 2620.11 Q1994.26 2622.38 1994.26 2625.71 Q1994.26 2630.83 1990.74 2633.63 Q1987.23 2636.43 1980.74 2636.43 Q1978.57 2636.43 1976.25 2635.99 Q1973.96 2635.57 1971.51 2634.72 L1971.51 2630.2 Q1973.45 2631.34 1975.77 2631.92 Q1978.08 2632.5 1980.61 2632.5 Q1985 2632.5 1987.3 2630.76 Q1989.61 2629.02 1989.61 2625.71 Q1989.61 2622.66 1987.46 2620.95 Q1985.33 2619.21 1981.51 2619.21 L1977.48 2619.21 L1977.48 2615.37 L1981.69 2615.37 Q1985.14 2615.37 1986.97 2614 Q1988.8 2612.61 1988.8 2610.02 Q1988.8 2607.36 1986.9 2605.95 Q1985.03 2604.51 1981.51 2604.51 Q1979.59 2604.51 1977.39 2604.93 Q1975.19 2605.34 1972.55 2606.22 L1972.55 2602.06 Q1975.21 2601.32 1977.53 2600.95 Q1979.87 2600.57 1981.93 2600.57 Q1987.25 2600.57 1990.35 2603.01 Q1993.45 2605.41 1993.45 2609.53 Q1993.45 2612.4 1991.81 2614.39 Q1990.17 2616.36 1987.13 2617.13 Z" fill="#000000" fill-rule="nonzero" fill-opacity="1" /><path clip-path="url(#clip770)" d="M2013.13 2604.28 Q2009.52 2604.28 2007.69 2607.84 Q2005.88 2611.39 2005.88 2618.51 Q2005.88 2625.62 2007.69 2629.19 Q2009.52 2632.73 2013.13 2632.73 Q2016.76 2632.73 2018.57 2629.19 Q2020.4 2625.62 2020.4 2618.51 Q2020.4 2611.39 2018.57 2607.84 Q2016.76 2604.28 2013.13 2604.28 M2013.13 2600.57 Q2018.94 2600.57 2021.99 2605.18 Q2025.07 2609.76 2025.07 2618.51 Q2025.07 2627.24 2021.99 2631.85 Q2018.94 2636.43 2013.13 2636.43 Q2007.32 2636.43 2004.24 2631.85 Q2001.18 2627.24 2001.18 2618.51 Q2001.18 2609.76 2004.24 2605.18 Q2007.32 2600.57 2013.13 2600.57 Z" fill="#000000" fill-rule="nonzero" fill-opacity="1" /><path clip-path="url(#clip770)" d="M2043.29 2604.28 Q2039.68 2604.28 2037.85 2607.84 Q2036.05 2611.39 2036.05 2618.51 Q2036.05 2625.62 2037.85 2629.19 Q2039.68 2632.73 2043.29 2632.73 Q2046.93 2632.73 2048.73 2629.19 Q2050.56 2625.62 2050.56 2618.51 Q2050.56 2611.39 2048.73 2607.84 Q2046.93 2604.28 2043.29 2604.28 M2043.29 2600.57 Q2049.1 2600.57 2052.16 2605.18 Q2055.24 2609.76 2055.24 2618.51 Q2055.24 2627.24 2052.16 2631.85 Q2049.1 2636.43 2043.29 2636.43 Q2037.48 2636.43 2034.4 2631.85 Q2031.35 2627.24 2031.35 2618.51 Q2031.35 2609.76 2034.4 2605.18 Q2037.48 2600.57 2043.29 2600.57 Z" fill="#000000" fill-rule="nonzero" fill-opacity="1" /><path clip-path="url(#clip770)" d="M2566.58 2605.27 L2554.77 2623.72 L2566.58 2623.72 L2566.58 2605.27 M2565.35 2601.2 L2571.23 2601.2 L2571.23 2623.72 L2576.16 2623.72 L2576.16 2627.61 L2571.23 2627.61 L2571.23 2635.76 L2566.58 2635.76 L2566.58 2627.61 L2550.98 2627.61 L2550.98 2623.1 L2565.35 2601.2 Z" fill="#000000" fill-rule="nonzero" fill-opacity="1" /><path clip-path="url(#clip770)" d="M2593.89 2604.28 Q2590.28 2604.28 2588.45 2607.84 Q2586.65 2611.39 2586.65 2618.51 Q2586.65 2625.62 2588.45 2629.19 Q2590.28 2632.73 2593.89 2632.73 Q2597.53 2632.73 2599.33 2629.19 Q2601.16 2625.62 2601.16 2618.51 Q2601.16 2611.39 2599.33 2607.84 Q2597.53 2604.28 2593.89 2604.28 M2593.89 2600.57 Q2599.7 2600.57 2602.76 2605.18 Q2605.84 2609.76 2605.84 2618.51 Q2605.84 2627.24 2602.76 2631.85 Q2599.7 2636.43 2593.89 2636.43 Q2588.08 2636.43 2585 2631.85 Q2581.95 2627.24 2581.95 2618.51 Q2581.95 2609.76 2585 2605.18 Q2588.08 2600.57 2593.89 2600.57 Z" fill="#000000" fill-rule="nonzero" fill-opacity="1" /><path clip-path="url(#clip770)" d="M2624.05 2604.28 Q2620.44 2604.28 2618.61 2607.84 Q2616.81 2611.39 2616.81 2618.51 Q2616.81 2625.62 2618.61 2629.19 Q2620.44 2632.73 2624.05 2632.73 Q2627.69 2632.73 2629.49 2629.19 Q2631.32 2625.62 2631.32 2618.51 Q2631.32 2611.39 2629.49 2607.84 Q2627.69 2604.28 2624.05 2604.28 M2624.05 2600.57 Q2629.86 2600.57 2632.92 2605.18 Q2636 2609.76 2636 2618.51 Q2636 2627.24 2632.92 2631.85 Q2629.86 2636.43 2624.05 2636.43 Q2618.24 2636.43 2615.16 2631.85 Q2612.11 2627.24 2612.11 2618.51 Q2612.11 2609.76 2615.16 2605.18 Q2618.24 2600.57 2624.05 2600.57 Z" fill="#000000" fill-rule="nonzero" fill-opacity="1" /><path clip-path="url(#clip770)" d="M3133.22 2601.2 L3151.58 2601.2 L3151.58 2605.14 L3137.5 2605.14 L3137.5 2613.61 Q3138.52 2613.26 3139.54 2613.1 Q3140.56 2612.91 3141.58 2612.91 Q3147.36 2612.91 3150.74 2616.08 Q3154.12 2619.26 3154.12 2624.67 Q3154.12 2630.25 3150.65 2633.35 Q3147.18 2636.43 3140.86 2636.43 Q3138.68 2636.43 3136.41 2636.06 Q3134.17 2635.69 3131.76 2634.95 L3131.76 2630.25 Q3133.84 2631.38 3136.07 2631.94 Q3138.29 2632.5 3140.77 2632.5 Q3144.77 2632.5 3147.11 2630.39 Q3149.45 2628.28 3149.45 2624.67 Q3149.45 2621.06 3147.11 2618.95 Q3144.77 2616.85 3140.77 2616.85 Q3138.89 2616.85 3137.02 2617.26 Q3135.16 2617.68 3133.22 2618.56 L3133.22 2601.2 Z" fill="#000000" fill-rule="nonzero" fill-opacity="1" /><path clip-path="url(#clip770)" d="M3173.33 2604.28 Q3169.72 2604.28 3167.89 2607.84 Q3166.09 2611.39 3166.09 2618.51 Q3166.09 2625.62 3167.89 2629.19 Q3169.72 2632.73 3173.33 2632.73 Q3176.97 2632.73 3178.77 2629.19 Q3180.6 2625.62 3180.6 2618.51 Q3180.6 2611.39 3178.77 2607.84 Q3176.97 2604.28 3173.33 2604.28 M3173.33 2600.57 Q3179.14 2600.57 3182.2 2605.18 Q3185.28 2609.76 3185.28 2618.51 Q3185.28 2627.24 3182.2 2631.85 Q3179.14 2636.43 3173.33 2636.43 Q3167.52 2636.43 3164.45 2631.85 Q3161.39 2627.24 3161.39 2618.51 Q3161.39 2609.76 3164.45 2605.18 Q3167.52 2600.57 3173.33 2600.57 Z" fill="#000000" fill-rule="nonzero" fill-opacity="1" /><path clip-path="url(#clip770)" d="M3203.5 2604.28 Q3199.89 2604.28 3198.06 2607.84 Q3196.25 2611.39 3196.25 2618.51 Q3196.25 2625.62 3198.06 2629.19 Q3199.89 2632.73 3203.5 2632.73 Q3207.13 2632.73 3208.94 2629.19 Q3210.77 2625.62 3210.77 2618.51 Q3210.77 2611.39 3208.94 2607.84 Q3207.13 2604.28 3203.5 2604.28 M3203.5 2600.57 Q3209.31 2600.57 3212.36 2605.18 Q3215.44 2609.76 3215.44 2618.51 Q3215.44 2627.24 3212.36 2631.85 Q3209.31 2636.43 3203.5 2636.43 Q3197.69 2636.43 3194.61 2631.85 Q3191.55 2627.24 3191.55 2618.51 Q3191.55 2609.76 3194.61 2605.18 Q3197.69 2600.57 3203.5 2600.57 Z" fill="#000000" fill-rule="nonzero" fill-opacity="1" /><path clip-path="url(#clip770)" d="M3724.04 2616.62 Q3720.89 2616.62 3719.04 2618.77 Q3717.21 2620.92 3717.21 2624.67 Q3717.21 2628.4 3719.04 2630.57 Q3720.89 2632.73 3724.04 2632.73 Q3727.19 2632.73 3729.02 2630.57 Q3730.87 2628.4 3730.87 2624.67 Q3730.87 2620.92 3729.02 2618.77 Q3727.19 2616.62 3724.04 2616.62 M3733.32 2601.96 L3733.32 2606.22 Q3731.56 2605.39 3729.76 2604.95 Q3727.97 2604.51 3726.22 2604.51 Q3721.59 2604.51 3719.13 2607.64 Q3716.7 2610.76 3716.35 2617.08 Q3717.72 2615.07 3719.78 2614 Q3721.84 2612.91 3724.32 2612.91 Q3729.53 2612.91 3732.53 2616.08 Q3735.57 2619.23 3735.57 2624.67 Q3735.57 2630 3732.42 2633.21 Q3729.27 2636.43 3724.04 2636.43 Q3718.04 2636.43 3714.87 2631.85 Q3711.7 2627.24 3711.7 2618.51 Q3711.7 2610.32 3715.59 2605.46 Q3719.48 2600.57 3726.03 2600.57 Q3727.79 2600.57 3729.57 2600.92 Q3731.38 2601.27 3733.32 2601.96 Z" fill="#000000" fill-rule="nonzero" fill-opacity="1" /><path clip-path="url(#clip770)" d="M3753.62 2604.28 Q3750.01 2604.28 3748.18 2607.84 Q3746.38 2611.39 3746.38 2618.51 Q3746.38 2625.62 3748.18 2629.19 Q3750.01 2632.73 3753.62 2632.73 Q3757.26 2632.73 3759.06 2629.19 Q3760.89 2625.62 3760.89 2618.51 Q3760.89 2611.39 3759.06 2607.84 Q3757.26 2604.28 3753.62 2604.28 M3753.62 2600.57 Q3759.43 2600.57 3762.49 2605.18 Q3765.57 2609.76 3765.57 2618.51 Q3765.57 2627.24 3762.49 2631.85 Q3759.43 2636.43 3753.62 2636.43 Q3747.81 2636.43 3744.73 2631.85 Q3741.68 2627.24 3741.68 2618.51 Q3741.68 2609.76 3744.73 2605.18 Q3747.81 2600.57 3753.62 2600.57 Z" fill="#000000" fill-rule="nonzero" fill-opacity="1" /><path clip-path="url(#clip770)" d="M3783.78 2604.28 Q3780.17 2604.28 3778.34 2607.84 Q3776.54 2611.39 3776.54 2618.51 Q3776.54 2625.62 3778.34 2629.19 Q3780.17 2632.73 3783.78 2632.73 Q3787.42 2632.73 3789.22 2629.19 Q3791.05 2625.62 3791.05 2618.51 Q3791.05 2611.39 3789.22 2607.84 Q3787.42 2604.28 3783.78 2604.28 M3783.78 2600.57 Q3789.59 2600.57 3792.65 2605.18 Q3795.73 2609.76 3795.73 2618.51 Q3795.73 2627.24 3792.65 2631.85 Q3789.59 2636.43 3783.78 2636.43 Q3777.97 2636.43 3774.9 2631.85 Q3771.84 2627.24 3771.84 2618.51 Q3771.84 2609.76 3774.9 2605.18 Q3777.97 2600.57 3783.78 2600.57 Z" fill="#000000" fill-rule="nonzero" fill-opacity="1" /><polyline clip-path="url(#clip770)" style="stroke:#000000; stroke-linecap:round; stroke-linejoin:round; stroke-width:4; stroke-opacity:1; fill:none" points="170.512,2561.84 170.512,47.2441 "/>
<polyline clip-path="url(#clip770)" style="stroke:#000000; stroke-linecap:round; stroke-linejoin:round; stroke-width:4; stroke-opacity:1; fill:none" points="170.512,2490.67 189.41,2490.67 "/>
<polyline clip-path="url(#clip770)" style="stroke:#000000; stroke-linecap:round; stroke-linejoin:round; stroke-width:4; stroke-opacity:1; fill:none" points="170.512,1846.19 189.41,1846.19 "/>
<polyline clip-path="url(#clip770)" style="stroke:#000000; stroke-linecap:round; stroke-linejoin:round; stroke-width:4; stroke-opacity:1; fill:none" points="170.512,1201.7 189.41,1201.7 "/>
<polyline clip-path="url(#clip770)" style="stroke:#000000; stroke-linecap:round; stroke-linejoin:round; stroke-width:4; stroke-opacity:1; fill:none" points="170.512,557.215 189.41,557.215 "/>
<path clip-path="url(#clip770)" d="M55.7365 2476.47 Q52.1254 2476.47 50.2967 2480.04 Q48.4912 2483.58 48.4912 2490.71 Q48.4912 2497.81 50.2967 2501.38 Q52.1254 2504.92 55.7365 2504.92 Q59.3707 2504.92 61.1763 2501.38 Q63.005 2497.81 63.005 2490.71 Q63.005 2483.58 61.1763 2480.04 Q59.3707 2476.47 55.7365 2476.47 M55.7365 2472.77 Q61.5467 2472.77 64.6022 2477.37 Q67.6809 2481.96 67.6809 2490.71 Q67.6809 2499.43 64.6022 2504.04 Q61.5467 2508.62 55.7365 2508.62 Q49.9264 2508.62 46.8477 2504.04 Q43.7921 2499.43 43.7921 2490.71 Q43.7921 2481.96 46.8477 2477.37 Q49.9264 2472.77 55.7365 2472.77 Z" fill="#000000" fill-rule="nonzero" fill-opacity="1" /><path clip-path="url(#clip770)" d="M75.8984 2502.07 L80.7827 2502.07 L80.7827 2507.95 L75.8984 2507.95 L75.8984 2502.07 Z" fill="#000000" fill-rule="nonzero" fill-opacity="1" /><path clip-path="url(#clip770)" d="M100.968 2476.47 Q97.3567 2476.47 95.528 2480.04 Q93.7224 2483.58 93.7224 2490.71 Q93.7224 2497.81 95.528 2501.38 Q97.3567 2504.92 100.968 2504.92 Q104.602 2504.92 106.408 2501.38 Q108.236 2497.81 108.236 2490.71 Q108.236 2483.58 106.408 2480.04 Q104.602 2476.47 100.968 2476.47 M100.968 2472.77 Q106.778 2472.77 109.833 2477.37 Q112.912 2481.96 112.912 2490.71 Q112.912 2499.43 109.833 2504.04 Q106.778 2508.62 100.968 2508.62 Q95.1576 2508.62 92.0789 2504.04 Q89.0234 2499.43 89.0234 2490.71 Q89.0234 2481.96 92.0789 2477.37 Q95.1576 2472.77 100.968 2472.77 Z" fill="#000000" fill-rule="nonzero" fill-opacity="1" /><path clip-path="url(#clip770)" d="M56.9634 1831.99 Q53.3523 1831.99 51.5236 1835.55 Q49.718 1839.09 49.718 1846.22 Q49.718 1853.33 51.5236 1856.89 Q53.3523 1860.43 56.9634 1860.43 Q60.5976 1860.43 62.4031 1856.89 Q64.2318 1853.33 64.2318 1846.22 Q64.2318 1839.09 62.4031 1835.55 Q60.5976 1831.99 56.9634 1831.99 M56.9634 1828.28 Q62.7735 1828.28 65.829 1832.89 Q68.9077 1837.47 68.9077 1846.22 Q68.9077 1854.95 65.829 1859.55 Q62.7735 1864.14 56.9634 1864.14 Q51.1532 1864.14 48.0745 1859.55 Q45.019 1854.95 45.019 1846.22 Q45.019 1837.47 48.0745 1832.89 Q51.1532 1828.28 56.9634 1828.28 Z" fill="#000000" fill-rule="nonzero" fill-opacity="1" /><path clip-path="url(#clip770)" d="M77.1253 1857.59 L82.0095 1857.59 L82.0095 1863.47 L77.1253 1863.47 L77.1253 1857.59 Z" fill="#000000" fill-rule="nonzero" fill-opacity="1" /><path clip-path="url(#clip770)" d="M93.0048 1859.53 L100.644 1859.53 L100.644 1833.17 L92.3335 1834.83 L92.3335 1830.57 L100.597 1828.91 L105.273 1828.91 L105.273 1859.53 L112.912 1859.53 L112.912 1863.47 L93.0048 1863.47 L93.0048 1859.53 Z" fill="#000000" fill-rule="nonzero" fill-opacity="1" /><path clip-path="url(#clip770)" d="M57.3337 1187.5 Q53.7226 1187.5 51.8939 1191.06 Q50.0884 1194.61 50.0884 1201.74 Q50.0884 1208.84 51.8939 1212.41 Q53.7226 1215.95 57.3337 1215.95 Q60.968 1215.95 62.7735 1212.41 Q64.6022 1208.84 64.6022 1201.74 Q64.6022 1194.61 62.7735 1191.06 Q60.968 1187.5 57.3337 1187.5 M57.3337 1183.8 Q63.1439 1183.8 66.1994 1188.4 Q69.2781 1192.99 69.2781 1201.74 Q69.2781 1210.46 66.1994 1215.07 Q63.1439 1219.65 57.3337 1219.65 Q51.5236 1219.65 48.4449 1215.07 Q45.3893 1210.46 45.3893 1201.74 Q45.3893 1192.99 48.4449 1188.4 Q51.5236 1183.8 57.3337 1183.8 Z" fill="#000000" fill-rule="nonzero" fill-opacity="1" /><path clip-path="url(#clip770)" d="M77.4956 1213.1 L82.3799 1213.1 L82.3799 1218.98 L77.4956 1218.98 L77.4956 1213.1 Z" fill="#000000" fill-rule="nonzero" fill-opacity="1" /><path clip-path="url(#clip770)" d="M96.5928 1215.05 L112.912 1215.05 L112.912 1218.98 L90.9678 1218.98 L90.9678 1215.05 Q93.6298 1212.29 98.2131 1207.66 Q102.82 1203.01 104 1201.67 Q106.245 1199.14 107.125 1197.41 Q108.028 1195.65 108.028 1193.96 Q108.028 1191.2 106.083 1189.47 Q104.162 1187.73 101.06 1187.73 Q98.8613 1187.73 96.4076 1188.5 Q93.977 1189.26 91.1993 1190.81 L91.1993 1186.09 Q94.0233 1184.95 96.477 1184.37 Q98.9307 1183.8 100.968 1183.8 Q106.338 1183.8 109.533 1186.48 Q112.727 1189.17 112.727 1193.66 Q112.727 1195.79 111.917 1197.71 Q111.13 1199.61 109.023 1202.2 Q108.445 1202.87 105.343 1206.09 Q102.241 1209.28 96.5928 1215.05 Z" fill="#000000" fill-rule="nonzero" fill-opacity="1" /><path clip-path="url(#clip770)" d="M56.3847 543.014 Q52.7736 543.014 50.9449 546.579 Q49.1393 550.121 49.1393 557.25 Q49.1393 564.357 50.9449 567.921 Q52.7736 571.463 56.3847 571.463 Q60.0189 571.463 61.8244 567.921 Q63.6531 564.357 63.6531 557.25 Q63.6531 550.121 61.8244 546.579 Q60.0189 543.014 56.3847 543.014 M56.3847 539.31 Q62.1948 539.31 65.2503 543.917 Q68.329 548.5 68.329 557.25 Q68.329 565.977 65.2503 570.583 Q62.1948 575.167 56.3847 575.167 Q50.5745 575.167 47.4958 570.583 Q44.4403 565.977 44.4403 557.25 Q44.4403 548.5 47.4958 543.917 Q50.5745 539.31 56.3847 539.31 Z" fill="#000000" fill-rule="nonzero" fill-opacity="1" /><path clip-path="url(#clip770)" d="M76.5466 568.616 L81.4308 568.616 L81.4308 574.495 L76.5466 574.495 L76.5466 568.616 Z" fill="#000000" fill-rule="nonzero" fill-opacity="1" /><path clip-path="url(#clip770)" d="M105.783 555.861 Q109.139 556.579 111.014 558.847 Q112.912 561.116 112.912 564.449 Q112.912 569.565 109.394 572.366 Q105.875 575.167 99.3937 575.167 Q97.2178 575.167 94.903 574.727 Q92.6113 574.31 90.1576 573.454 L90.1576 568.94 Q92.1021 570.074 94.4169 570.653 Q96.7317 571.232 99.2548 571.232 Q103.653 571.232 105.945 569.495 Q108.259 567.759 108.259 564.449 Q108.259 561.394 106.107 559.681 Q103.977 557.945 100.158 557.945 L96.1298 557.945 L96.1298 554.102 L100.343 554.102 Q103.792 554.102 105.62 552.736 Q107.449 551.347 107.449 548.755 Q107.449 546.093 105.551 544.681 Q103.676 543.246 100.158 543.246 Q98.2363 543.246 96.0372 543.662 Q93.8382 544.079 91.1993 544.959 L91.1993 540.792 Q93.8613 540.051 96.1761 539.681 Q98.5141 539.31 100.574 539.31 Q105.898 539.31 109 541.741 Q112.102 544.148 112.102 548.269 Q112.102 551.139 110.458 553.13 Q108.815 555.097 105.783 555.861 Z" fill="#000000" fill-rule="nonzero" fill-opacity="1" /><circle clip-path="url(#clip772)" cx="273.028" cy="2490.67" r="14.4" fill="#009af9" fill-rule="evenodd" fill-opacity="1" stroke="#000000" stroke-opacity="1" stroke-width="5.376"/>
<circle clip-path="url(#clip772)" cx="273.304" cy="1144.52" r="14.4" fill="#009af9" fill-rule="evenodd" fill-opacity="1" stroke="#000000" stroke-opacity="1" stroke-width="5.376"/>
<circle clip-path="url(#clip772)" cx="273.58" cy="512.037" r="14.4" fill="#009af9" fill-rule="evenodd" fill-opacity="1" stroke="#000000" stroke-opacity="1" stroke-width="5.376"/>
<circle clip-path="url(#clip772)" cx="273.855" cy="245.637" r="14.4" fill="#009af9" fill-rule="evenodd" fill-opacity="1" stroke="#000000" stroke-opacity="1" stroke-width="5.376"/>
<circle clip-path="url(#clip772)" cx="274.131" cy="141.578" r="14.4" fill="#009af9" fill-rule="evenodd" fill-opacity="1" stroke="#000000" stroke-opacity="1" stroke-width="5.376"/>
<circle clip-path="url(#clip772)" cx="274.407" cy="118.412" r="14.4" fill="#009af9" fill-rule="evenodd" fill-opacity="1" stroke="#000000" stroke-opacity="1" stroke-width="5.376"/>
<circle clip-path="url(#clip772)" cx="274.682" cy="138.278" r="14.4" fill="#009af9" fill-rule="evenodd" fill-opacity="1" stroke="#000000" stroke-opacity="1" stroke-width="5.376"/>
<circle clip-path="url(#clip772)" cx="274.958" cy="181.712" r="14.4" fill="#009af9" fill-rule="evenodd" fill-opacity="1" stroke="#000000" stroke-opacity="1" stroke-width="5.376"/>
<circle clip-path="url(#clip772)" cx="275.233" cy="237.999" r="14.4" fill="#009af9" fill-rule="evenodd" fill-opacity="1" stroke="#000000" stroke-opacity="1" stroke-width="5.376"/>
<circle clip-path="url(#clip772)" cx="275.509" cy="300.96" r="14.4" fill="#009af9" fill-rule="evenodd" fill-opacity="1" stroke="#000000" stroke-opacity="1" stroke-width="5.376"/>
<circle clip-path="url(#clip772)" cx="275.785" cy="366.912" r="14.4" fill="#009af9" fill-rule="evenodd" fill-opacity="1" stroke="#000000" stroke-opacity="1" stroke-width="5.376"/>
<circle clip-path="url(#clip772)" cx="276.06" cy="433.622" r="14.4" fill="#009af9" fill-rule="evenodd" fill-opacity="1" stroke="#000000" stroke-opacity="1" stroke-width="5.376"/>
<circle clip-path="url(#clip772)" cx="276.336" cy="499.723" r="14.4" fill="#009af9" fill-rule="evenodd" fill-opacity="1" stroke="#000000" stroke-opacity="1" stroke-width="5.376"/>
<circle clip-path="url(#clip772)" cx="276.611" cy="564.385" r="14.4" fill="#009af9" fill-rule="evenodd" fill-opacity="1" stroke="#000000" stroke-opacity="1" stroke-width="5.376"/>
<circle clip-path="url(#clip772)" cx="276.887" cy="627.115" r="14.4" fill="#009af9" fill-rule="evenodd" fill-opacity="1" stroke="#000000" stroke-opacity="1" stroke-width="5.376"/>
<circle clip-path="url(#clip772)" cx="277.163" cy="687.639" r="14.4" fill="#009af9" fill-rule="evenodd" fill-opacity="1" stroke="#000000" stroke-opacity="1" stroke-width="5.376"/>
<circle clip-path="url(#clip772)" cx="277.438" cy="745.819" r="14.4" fill="#009af9" fill-rule="evenodd" fill-opacity="1" stroke="#000000" stroke-opacity="1" stroke-width="5.376"/>
<circle clip-path="url(#clip772)" cx="277.714" cy="801.61" r="14.4" fill="#009af9" fill-rule="evenodd" fill-opacity="1" stroke="#000000" stroke-opacity="1" stroke-width="5.376"/>
<circle clip-path="url(#clip772)" cx="277.989" cy="855.025" r="14.4" fill="#009af9" fill-rule="evenodd" fill-opacity="1" stroke="#000000" stroke-opacity="1" stroke-width="5.376"/>
<circle clip-path="url(#clip772)" cx="278.265" cy="906.115" r="14.4" fill="#009af9" fill-rule="evenodd" fill-opacity="1" stroke="#000000" stroke-opacity="1" stroke-width="5.376"/>
<circle clip-path="url(#clip772)" cx="278.541" cy="954.954" r="14.4" fill="#009af9" fill-rule="evenodd" fill-opacity="1" stroke="#000000" stroke-opacity="1" stroke-width="5.376"/>
<circle clip-path="url(#clip772)" cx="278.816" cy="1001.63" r="14.4" fill="#009af9" fill-rule="evenodd" fill-opacity="1" stroke="#000000" stroke-opacity="1" stroke-width="5.376"/>
<circle clip-path="url(#clip772)" cx="279.092" cy="1046.23" r="14.4" fill="#009af9" fill-rule="evenodd" fill-opacity="1" stroke="#000000" stroke-opacity="1" stroke-width="5.376"/>
<circle clip-path="url(#clip772)" cx="279.368" cy="1088.87" r="14.4" fill="#009af9" fill-rule="evenodd" fill-opacity="1" stroke="#000000" stroke-opacity="1" stroke-width="5.376"/>
<circle clip-path="url(#clip772)" cx="279.643" cy="1129.62" r="14.4" fill="#009af9" fill-rule="evenodd" fill-opacity="1" stroke="#000000" stroke-opacity="1" stroke-width="5.376"/>
<circle clip-path="url(#clip772)" cx="279.919" cy="1168.61" r="14.4" fill="#009af9" fill-rule="evenodd" fill-opacity="1" stroke="#000000" stroke-opacity="1" stroke-width="5.376"/>
<circle clip-path="url(#clip772)" cx="280.194" cy="1205.9" r="14.4" fill="#009af9" fill-rule="evenodd" fill-opacity="1" stroke="#000000" stroke-opacity="1" stroke-width="5.376"/>
<circle clip-path="url(#clip772)" cx="280.47" cy="1241.6" r="14.4" fill="#009af9" fill-rule="evenodd" fill-opacity="1" stroke="#000000" stroke-opacity="1" stroke-width="5.376"/>
<circle clip-path="url(#clip772)" cx="280.746" cy="1275.8" r="14.4" fill="#009af9" fill-rule="evenodd" fill-opacity="1" stroke="#000000" stroke-opacity="1" stroke-width="5.376"/>
<circle clip-path="url(#clip772)" cx="281.297" cy="1339.97" r="14.4" fill="#009af9" fill-rule="evenodd" fill-opacity="1" stroke="#000000" stroke-opacity="1" stroke-width="5.376"/>
<circle clip-path="url(#clip772)" cx="281.848" cy="1399.02" r="14.4" fill="#009af9" fill-rule="evenodd" fill-opacity="1" stroke="#000000" stroke-opacity="1" stroke-width="5.376"/>
<circle clip-path="url(#clip772)" cx="282.399" cy="1453.48" r="14.4" fill="#009af9" fill-rule="evenodd" fill-opacity="1" stroke="#000000" stroke-opacity="1" stroke-width="5.376"/>
<circle clip-path="url(#clip772)" cx="282.95" cy="1503.81" r="14.4" fill="#009af9" fill-rule="evenodd" fill-opacity="1" stroke="#000000" stroke-opacity="1" stroke-width="5.376"/>
<circle clip-path="url(#clip772)" cx="283.502" cy="1550.43" r="14.4" fill="#009af9" fill-rule="evenodd" fill-opacity="1" stroke="#000000" stroke-opacity="1" stroke-width="5.376"/>
<circle clip-path="url(#clip772)" cx="284.053" cy="1593.7" r="14.4" fill="#009af9" fill-rule="evenodd" fill-opacity="1" stroke="#000000" stroke-opacity="1" stroke-width="5.376"/>
<circle clip-path="url(#clip772)" cx="284.604" cy="1633.93" r="14.4" fill="#009af9" fill-rule="evenodd" fill-opacity="1" stroke="#000000" stroke-opacity="1" stroke-width="5.376"/>
<circle clip-path="url(#clip772)" cx="285.155" cy="1671.42" r="14.4" fill="#009af9" fill-rule="evenodd" fill-opacity="1" stroke="#000000" stroke-opacity="1" stroke-width="5.376"/>
<circle clip-path="url(#clip772)" cx="285.707" cy="1706.41" r="14.4" fill="#009af9" fill-rule="evenodd" fill-opacity="1" stroke="#000000" stroke-opacity="1" stroke-width="5.376"/>
<circle clip-path="url(#clip772)" cx="286.258" cy="1739.14" r="14.4" fill="#009af9" fill-rule="evenodd" fill-opacity="1" stroke="#000000" stroke-opacity="1" stroke-width="5.376"/>
<circle clip-path="url(#clip772)" cx="286.809" cy="1769.78" r="14.4" fill="#009af9" fill-rule="evenodd" fill-opacity="1" stroke="#000000" stroke-opacity="1" stroke-width="5.376"/>
<circle clip-path="url(#clip772)" cx="287.36" cy="1798.53" r="14.4" fill="#009af9" fill-rule="evenodd" fill-opacity="1" stroke="#000000" stroke-opacity="1" stroke-width="5.376"/>
<circle clip-path="url(#clip772)" cx="287.911" cy="1825.55" r="14.4" fill="#009af9" fill-rule="evenodd" fill-opacity="1" stroke="#000000" stroke-opacity="1" stroke-width="5.376"/>
<circle clip-path="url(#clip772)" cx="288.463" cy="1850.96" r="14.4" fill="#009af9" fill-rule="evenodd" fill-opacity="1" stroke="#000000" stroke-opacity="1" stroke-width="5.376"/>
<circle clip-path="url(#clip772)" cx="289.565" cy="1897.5" r="14.4" fill="#009af9" fill-rule="evenodd" fill-opacity="1" stroke="#000000" stroke-opacity="1" stroke-width="5.376"/>
<circle clip-path="url(#clip772)" cx="290.668" cy="1939.01" r="14.4" fill="#009af9" fill-rule="evenodd" fill-opacity="1" stroke="#000000" stroke-opacity="1" stroke-width="5.376"/>
<circle clip-path="url(#clip772)" cx="291.77" cy="1976.23" r="14.4" fill="#009af9" fill-rule="evenodd" fill-opacity="1" stroke="#000000" stroke-opacity="1" stroke-width="5.376"/>
<circle clip-path="url(#clip772)" cx="292.872" cy="2009.74" r="14.4" fill="#009af9" fill-rule="evenodd" fill-opacity="1" stroke="#000000" stroke-opacity="1" stroke-width="5.376"/>
<circle clip-path="url(#clip772)" cx="293.975" cy="2040.03" r="14.4" fill="#009af9" fill-rule="evenodd" fill-opacity="1" stroke="#000000" stroke-opacity="1" stroke-width="5.376"/>
<circle clip-path="url(#clip772)" cx="295.077" cy="2067.5" r="14.4" fill="#009af9" fill-rule="evenodd" fill-opacity="1" stroke="#000000" stroke-opacity="1" stroke-width="5.376"/>
<circle clip-path="url(#clip772)" cx="296.18" cy="2092.52" r="14.4" fill="#009af9" fill-rule="evenodd" fill-opacity="1" stroke="#000000" stroke-opacity="1" stroke-width="5.376"/>
<circle clip-path="url(#clip772)" cx="297.282" cy="2115.36" r="14.4" fill="#009af9" fill-rule="evenodd" fill-opacity="1" stroke="#000000" stroke-opacity="1" stroke-width="5.376"/>
<circle clip-path="url(#clip772)" cx="298.385" cy="2136.27" r="14.4" fill="#009af9" fill-rule="evenodd" fill-opacity="1" stroke="#000000" stroke-opacity="1" stroke-width="5.376"/>
<circle clip-path="url(#clip772)" cx="299.487" cy="2155.48" r="14.4" fill="#009af9" fill-rule="evenodd" fill-opacity="1" stroke="#000000" stroke-opacity="1" stroke-width="5.376"/>
<circle clip-path="url(#clip772)" cx="301.692" cy="2189.49" r="14.4" fill="#009af9" fill-rule="evenodd" fill-opacity="1" stroke="#000000" stroke-opacity="1" stroke-width="5.376"/>
<circle clip-path="url(#clip772)" cx="303.897" cy="2218.59" r="14.4" fill="#009af9" fill-rule="evenodd" fill-opacity="1" stroke="#000000" stroke-opacity="1" stroke-width="5.376"/>
<circle clip-path="url(#clip772)" cx="304.999" cy="2231.59" r="14.4" fill="#009af9" fill-rule="evenodd" fill-opacity="1" stroke="#000000" stroke-opacity="1" stroke-width="5.376"/>
<circle clip-path="url(#clip772)" cx="306.102" cy="2243.69" r="14.4" fill="#009af9" fill-rule="evenodd" fill-opacity="1" stroke="#000000" stroke-opacity="1" stroke-width="5.376"/>
<circle clip-path="url(#clip772)" cx="307.204" cy="2254.97" r="14.4" fill="#009af9" fill-rule="evenodd" fill-opacity="1" stroke="#000000" stroke-opacity="1" stroke-width="5.376"/>
<circle clip-path="url(#clip772)" cx="308.307" cy="2265.5" r="14.4" fill="#009af9" fill-rule="evenodd" fill-opacity="1" stroke="#000000" stroke-opacity="1" stroke-width="5.376"/>
<circle clip-path="url(#clip772)" cx="311.535" cy="2292.63" r="14.4" fill="#009af9" fill-rule="evenodd" fill-opacity="1" stroke="#000000" stroke-opacity="1" stroke-width="5.376"/>
<circle clip-path="url(#clip772)" cx="314.764" cy="2315.21" r="14.4" fill="#009af9" fill-rule="evenodd" fill-opacity="1" stroke="#000000" stroke-opacity="1" stroke-width="5.376"/>
<circle clip-path="url(#clip772)" cx="317.992" cy="2334.21" r="14.4" fill="#009af9" fill-rule="evenodd" fill-opacity="1" stroke="#000000" stroke-opacity="1" stroke-width="5.376"/>
<circle clip-path="url(#clip772)" cx="321.221" cy="2350.35" r="14.4" fill="#009af9" fill-rule="evenodd" fill-opacity="1" stroke="#000000" stroke-opacity="1" stroke-width="5.376"/>
<circle clip-path="url(#clip772)" cx="324.449" cy="2364.17" r="14.4" fill="#009af9" fill-rule="evenodd" fill-opacity="1" stroke="#000000" stroke-opacity="1" stroke-width="5.376"/>
<circle clip-path="url(#clip772)" cx="327.678" cy="2376.11" r="14.4" fill="#009af9" fill-rule="evenodd" fill-opacity="1" stroke="#000000" stroke-opacity="1" stroke-width="5.376"/>
<circle clip-path="url(#clip772)" cx="330.906" cy="2386.49" r="14.4" fill="#009af9" fill-rule="evenodd" fill-opacity="1" stroke="#000000" stroke-opacity="1" stroke-width="5.376"/>
<circle clip-path="url(#clip772)" cx="334.134" cy="2395.56" r="14.4" fill="#009af9" fill-rule="evenodd" fill-opacity="1" stroke="#000000" stroke-opacity="1" stroke-width="5.376"/>
<circle clip-path="url(#clip772)" cx="340.591" cy="2410.6" r="14.4" fill="#009af9" fill-rule="evenodd" fill-opacity="1" stroke="#000000" stroke-opacity="1" stroke-width="5.376"/>
<circle clip-path="url(#clip772)" cx="347.048" cy="2422.46" r="14.4" fill="#009af9" fill-rule="evenodd" fill-opacity="1" stroke="#000000" stroke-opacity="1" stroke-width="5.376"/>
<circle clip-path="url(#clip772)" cx="353.505" cy="2431.96" r="14.4" fill="#009af9" fill-rule="evenodd" fill-opacity="1" stroke="#000000" stroke-opacity="1" stroke-width="5.376"/>
<circle clip-path="url(#clip772)" cx="359.962" cy="2439.7" r="14.4" fill="#009af9" fill-rule="evenodd" fill-opacity="1" stroke="#000000" stroke-opacity="1" stroke-width="5.376"/>
<circle clip-path="url(#clip772)" cx="372.876" cy="2451.37" r="14.4" fill="#009af9" fill-rule="evenodd" fill-opacity="1" stroke="#000000" stroke-opacity="1" stroke-width="5.376"/>
<circle clip-path="url(#clip772)" cx="385.79" cy="2459.62" r="14.4" fill="#009af9" fill-rule="evenodd" fill-opacity="1" stroke="#000000" stroke-opacity="1" stroke-width="5.376"/>
<circle clip-path="url(#clip772)" cx="398.704" cy="2465.64" r="14.4" fill="#009af9" fill-rule="evenodd" fill-opacity="1" stroke="#000000" stroke-opacity="1" stroke-width="5.376"/>
<circle clip-path="url(#clip772)" cx="411.618" cy="2470.15" r="14.4" fill="#009af9" fill-rule="evenodd" fill-opacity="1" stroke="#000000" stroke-opacity="1" stroke-width="5.376"/>
<circle clip-path="url(#clip772)" cx="437.445" cy="2476.32" r="14.4" fill="#009af9" fill-rule="evenodd" fill-opacity="1" stroke="#000000" stroke-opacity="1" stroke-width="5.376"/>
<circle clip-path="url(#clip772)" cx="463.273" cy="2480.21" r="14.4" fill="#009af9" fill-rule="evenodd" fill-opacity="1" stroke="#000000" stroke-opacity="1" stroke-width="5.376"/>
<circle clip-path="url(#clip772)" cx="489.101" cy="2482.79" r="14.4" fill="#009af9" fill-rule="evenodd" fill-opacity="1" stroke="#000000" stroke-opacity="1" stroke-width="5.376"/>
<circle clip-path="url(#clip772)" cx="514.928" cy="2484.58" r="14.4" fill="#009af9" fill-rule="evenodd" fill-opacity="1" stroke="#000000" stroke-opacity="1" stroke-width="5.376"/>
<circle clip-path="url(#clip772)" cx="538.959" cy="2485.78" r="14.4" fill="#009af9" fill-rule="evenodd" fill-opacity="1" stroke="#000000" stroke-opacity="1" stroke-width="5.376"/>
<circle clip-path="url(#clip772)" cx="562.989" cy="2486.68" r="14.4" fill="#009af9" fill-rule="evenodd" fill-opacity="1" stroke="#000000" stroke-opacity="1" stroke-width="5.376"/>
<circle clip-path="url(#clip772)" cx="587.019" cy="2487.38" r="14.4" fill="#009af9" fill-rule="evenodd" fill-opacity="1" stroke="#000000" stroke-opacity="1" stroke-width="5.376"/>
<circle clip-path="url(#clip772)" cx="611.049" cy="2487.92" r="14.4" fill="#009af9" fill-rule="evenodd" fill-opacity="1" stroke="#000000" stroke-opacity="1" stroke-width="5.376"/>
<circle clip-path="url(#clip772)" cx="675.467" cy="2488.89" r="14.4" fill="#009af9" fill-rule="evenodd" fill-opacity="1" stroke="#000000" stroke-opacity="1" stroke-width="5.376"/>
<circle clip-path="url(#clip772)" cx="739.886" cy="2489.45" r="14.4" fill="#009af9" fill-rule="evenodd" fill-opacity="1" stroke="#000000" stroke-opacity="1" stroke-width="5.376"/>
<circle clip-path="url(#clip772)" cx="846.345" cy="2489.96" r="14.4" fill="#009af9" fill-rule="evenodd" fill-opacity="1" stroke="#000000" stroke-opacity="1" stroke-width="5.376"/>
<circle clip-path="url(#clip772)" cx="945.342" cy="2490.21" r="14.4" fill="#009af9" fill-rule="evenodd" fill-opacity="1" stroke="#000000" stroke-opacity="1" stroke-width="5.376"/>
<circle clip-path="url(#clip772)" cx="1069.62" cy="2490.39" r="14.4" fill="#009af9" fill-rule="evenodd" fill-opacity="1" stroke="#000000" stroke-opacity="1" stroke-width="5.376"/>
<circle clip-path="url(#clip772)" cx="1181.09" cy="2490.48" r="14.4" fill="#009af9" fill-rule="evenodd" fill-opacity="1" stroke="#000000" stroke-opacity="1" stroke-width="5.376"/>
<circle clip-path="url(#clip772)" cx="1308.69" cy="2490.54" r="14.4" fill="#009af9" fill-rule="evenodd" fill-opacity="1" stroke="#000000" stroke-opacity="1" stroke-width="5.376"/>
<circle clip-path="url(#clip772)" cx="1404.07" cy="2490.57" r="14.4" fill="#009af9" fill-rule="evenodd" fill-opacity="1" stroke="#000000" stroke-opacity="1" stroke-width="5.376"/>
<circle clip-path="url(#clip772)" cx="1526.06" cy="2490.6" r="14.4" fill="#009af9" fill-rule="evenodd" fill-opacity="1" stroke="#000000" stroke-opacity="1" stroke-width="5.376"/>
<circle clip-path="url(#clip772)" cx="1637.4" cy="2490.61" r="14.4" fill="#009af9" fill-rule="evenodd" fill-opacity="1" stroke="#000000" stroke-opacity="1" stroke-width="5.376"/>
<circle clip-path="url(#clip772)" cx="1764.13" cy="2490.63" r="14.4" fill="#009af9" fill-rule="evenodd" fill-opacity="1" stroke="#000000" stroke-opacity="1" stroke-width="5.376"/>
<circle clip-path="url(#clip772)" cx="1864.58" cy="2490.64" r="14.4" fill="#009af9" fill-rule="evenodd" fill-opacity="1" stroke="#000000" stroke-opacity="1" stroke-width="5.376"/>
<circle clip-path="url(#clip772)" cx="1989.39" cy="2490.64" r="14.4" fill="#009af9" fill-rule="evenodd" fill-opacity="1" stroke="#000000" stroke-opacity="1" stroke-width="5.376"/>
<circle clip-path="url(#clip772)" cx="2084.96" cy="2490.65" r="14.4" fill="#009af9" fill-rule="evenodd" fill-opacity="1" stroke="#000000" stroke-opacity="1" stroke-width="5.376"/>
<circle clip-path="url(#clip772)" cx="2219.72" cy="2490.65" r="14.4" fill="#009af9" fill-rule="evenodd" fill-opacity="1" stroke="#000000" stroke-opacity="1" stroke-width="5.376"/>
<circle clip-path="url(#clip772)" cx="2320.41" cy="2490.66" r="14.4" fill="#009af9" fill-rule="evenodd" fill-opacity="1" stroke="#000000" stroke-opacity="1" stroke-width="5.376"/>
<circle clip-path="url(#clip772)" cx="2434.93" cy="2490.66" r="14.4" fill="#009af9" fill-rule="evenodd" fill-opacity="1" stroke="#000000" stroke-opacity="1" stroke-width="5.376"/>
<circle clip-path="url(#clip772)" cx="2548.34" cy="2490.66" r="14.4" fill="#009af9" fill-rule="evenodd" fill-opacity="1" stroke="#000000" stroke-opacity="1" stroke-width="5.376"/>
<circle clip-path="url(#clip772)" cx="2673.11" cy="2490.66" r="14.4" fill="#009af9" fill-rule="evenodd" fill-opacity="1" stroke="#000000" stroke-opacity="1" stroke-width="5.376"/>
<circle clip-path="url(#clip772)" cx="2768.42" cy="2490.66" r="14.4" fill="#009af9" fill-rule="evenodd" fill-opacity="1" stroke="#000000" stroke-opacity="1" stroke-width="5.376"/>
<circle clip-path="url(#clip772)" cx="2888.68" cy="2490.66" r="14.4" fill="#009af9" fill-rule="evenodd" fill-opacity="1" stroke="#000000" stroke-opacity="1" stroke-width="5.376"/>
<circle clip-path="url(#clip772)" cx="2999.92" cy="2490.67" r="14.4" fill="#009af9" fill-rule="evenodd" fill-opacity="1" stroke="#000000" stroke-opacity="1" stroke-width="5.376"/>
<circle clip-path="url(#clip772)" cx="3114.64" cy="2490.67" r="14.4" fill="#009af9" fill-rule="evenodd" fill-opacity="1" stroke="#000000" stroke-opacity="1" stroke-width="5.376"/>
<circle clip-path="url(#clip772)" cx="3230.92" cy="2490.67" r="14.4" fill="#009af9" fill-rule="evenodd" fill-opacity="1" stroke="#000000" stroke-opacity="1" stroke-width="5.376"/>
<circle clip-path="url(#clip772)" cx="3352.34" cy="2490.67" r="14.4" fill="#009af9" fill-rule="evenodd" fill-opacity="1" stroke="#000000" stroke-opacity="1" stroke-width="5.376"/>
<circle clip-path="url(#clip772)" cx="3447.98" cy="2490.67" r="14.4" fill="#009af9" fill-rule="evenodd" fill-opacity="1" stroke="#000000" stroke-opacity="1" stroke-width="5.376"/>
<circle clip-path="url(#clip772)" cx="3665.8" cy="2490.67" r="14.4" fill="#009af9" fill-rule="evenodd" fill-opacity="1" stroke="#000000" stroke-opacity="1" stroke-width="5.376"/>
<circle clip-path="url(#clip772)" cx="3690.24" cy="2490.67" r="14.4" fill="#009af9" fill-rule="evenodd" fill-opacity="1" stroke="#000000" stroke-opacity="1" stroke-width="5.376"/>
<path clip-path="url(#clip770)" d="M3257.36 234.744 L3672.01 234.744 L3672.01 131.064 L3257.36 131.064  Z" fill="#ffffff" fill-rule="evenodd" fill-opacity="1"/>
<polyline clip-path="url(#clip770)" style="stroke:#000000; stroke-linecap:round; stroke-linejoin:round; stroke-width:4; stroke-opacity:1; fill:none" points="3257.36,234.744 3672.01,234.744 3672.01,131.064 3257.36,131.064 3257.36,234.744 "/>
<circle clip-path="url(#clip770)" cx="3418.35" cy="182.904" r="20.48" fill="#009af9" fill-rule="evenodd" fill-opacity="1" stroke="#000000" stroke-opacity="1" stroke-width="7.64587"/>
<path clip-path="url(#clip770)" d="M3593.18 202.591 Q3591.37 207.221 3589.66 208.633 Q3587.95 210.045 3585.08 210.045 L3581.67 210.045 L3581.67 206.48 L3584.17 206.48 Q3585.93 206.48 3586.91 205.647 Q3587.88 204.814 3589.06 201.712 L3589.82 199.767 L3579.34 174.258 L3583.85 174.258 L3591.95 194.536 L3600.05 174.258 L3604.57 174.258 L3593.18 202.591 Z" fill="#000000" fill-rule="nonzero" fill-opacity="1" /><path clip-path="url(#clip770)" d="M3611.86 196.249 L3619.5 196.249 L3619.5 169.883 L3611.19 171.55 L3611.19 167.291 L3619.45 165.624 L3624.13 165.624 L3624.13 196.249 L3631.77 196.249 L3631.77 200.184 L3611.86 200.184 L3611.86 196.249 Z" fill="#000000" fill-rule="nonzero" fill-opacity="1" /></svg>
