<?xml version="1.0" encoding="utf-8"?>
<svg xmlns="http://www.w3.org/2000/svg" xmlns:xlink="http://www.w3.org/1999/xlink" width="960" height="672" viewBox="0 0 3840 2688">
<defs>
  <clipPath id="clip010">
    <rect x="0" y="0" width="3840" height="2688"/>
  </clipPath>
</defs>
<path clip-path="url(#clip010)" d="M0 2688 L3840 2688 L3840 -1.47793e-13 L0 -1.47793e-13  Z" fill="#ffffff" fill-rule="evenodd" fill-opacity="1"/>
<defs>
  <clipPath id="clip011">
    <rect x="768" y="0" width="2689" height="2688"/>
  </clipPath>
</defs>
<path clip-path="url(#clip010)" d="M202.504 2548.94 L3792.76 2548.94 L3792.76 47.2441 L202.504 47.2441  Z" fill="#ffffff" fill-rule="evenodd" fill-opacity="1"/>
<defs>
  <clipPath id="clip012">
    <rect x="202" y="47" width="3591" height="2503"/>
  </clipPath>
</defs>
<polyline clip-path="url(#clip012)" style="stroke:#000000; stroke-linecap:round; stroke-linejoin:round; stroke-width:2; stroke-opacity:0.1; fill:none" points="304.115,2548.94 304.115,47.2441 "/>
<polyline clip-path="url(#clip012)" style="stroke:#000000; stroke-linecap:round; stroke-linejoin:round; stroke-width:2; stroke-opacity:0.1; fill:none" points="1997.63,2548.94 1997.63,47.2441 "/>
<polyline clip-path="url(#clip012)" style="stroke:#000000; stroke-linecap:round; stroke-linejoin:round; stroke-width:2; stroke-opacity:0.1; fill:none" points="3691.15,2548.94 3691.15,47.2441 "/>
<polyline clip-path="url(#clip012)" style="stroke:#000000; stroke-linecap:round; stroke-linejoin:round; stroke-width:2; stroke-opacity:0.1; fill:none" points="202.504,2478.14 3792.76,2478.14 "/>
<polyline clip-path="url(#clip012)" style="stroke:#000000; stroke-linecap:round; stroke-linejoin:round; stroke-width:2; stroke-opacity:0.1; fill:none" points="202.504,1888.12 3792.76,1888.12 "/>
<polyline clip-path="url(#clip012)" style="stroke:#000000; stroke-linecap:round; stroke-linejoin:round; stroke-width:2; stroke-opacity:0.1; fill:none" points="202.504,1298.09 3792.76,1298.09 "/>
<polyline clip-path="url(#clip012)" style="stroke:#000000; stroke-linecap:round; stroke-linejoin:round; stroke-width:2; stroke-opacity:0.1; fill:none" points="202.504,708.07 3792.76,708.07 "/>
<polyline clip-path="url(#clip012)" style="stroke:#000000; stroke-linecap:round; stroke-linejoin:round; stroke-width:2; stroke-opacity:0.1; fill:none" points="202.504,118.047 3792.76,118.047 "/>
<polyline clip-path="url(#clip010)" style="stroke:#000000; stroke-linecap:round; stroke-linejoin:round; stroke-width:4; stroke-opacity:1; fill:none" points="202.504,2548.94 3792.76,2548.94 "/>
<polyline clip-path="url(#clip010)" style="stroke:#000000; stroke-linecap:round; stroke-linejoin:round; stroke-width:4; stroke-opacity:1; fill:none" points="304.115,2548.94 304.115,2530.04 "/>
<polyline clip-path="url(#clip010)" style="stroke:#000000; stroke-linecap:round; stroke-linejoin:round; stroke-width:4; stroke-opacity:1; fill:none" points="1997.63,2548.94 1997.63,2530.04 "/>
<polyline clip-path="url(#clip010)" style="stroke:#000000; stroke-linecap:round; stroke-linejoin:round; stroke-width:4; stroke-opacity:1; fill:none" points="3691.15,2548.94 3691.15,2530.04 "/>
<path clip-path="url(#clip010)" d="M269.098 2634.59 L276.737 2634.59 L276.737 2608.22 L268.427 2609.89 L268.427 2605.63 L276.69 2603.96 L281.366 2603.96 L281.366 2634.59 L289.005 2634.59 L289.005 2638.52 L269.098 2638.52 L269.098 2634.59 Z" fill="#000000" fill-rule="nonzero" fill-opacity="1" /><path clip-path="url(#clip010)" d="M308.45 2607.04 Q304.838 2607.04 303.01 2610.61 Q301.204 2614.15 301.204 2621.28 Q301.204 2628.38 303.01 2631.95 Q304.838 2635.49 308.45 2635.49 Q312.084 2635.49 313.889 2631.95 Q315.718 2628.38 315.718 2621.28 Q315.718 2614.15 313.889 2610.61 Q312.084 2607.04 308.45 2607.04 M308.45 2603.34 Q314.26 2603.34 317.315 2607.94 Q320.394 2612.53 320.394 2621.28 Q320.394 2630 317.315 2634.61 Q314.26 2639.19 308.45 2639.19 Q302.639 2639.19 299.561 2634.61 Q296.505 2630 296.505 2621.28 Q296.505 2612.53 299.561 2607.94 Q302.639 2603.34 308.45 2603.34 Z" fill="#000000" fill-rule="nonzero" fill-opacity="1" /><path clip-path="url(#clip010)" d="M330.099 2585.53 Q327.165 2585.53 325.679 2588.43 Q324.212 2591.31 324.212 2597.1 Q324.212 2602.87 325.679 2605.77 Q327.165 2608.65 330.099 2608.65 Q333.052 2608.65 334.519 2605.77 Q336.004 2602.87 336.004 2597.1 Q336.004 2591.31 334.519 2588.43 Q333.052 2585.53 330.099 2585.53 M330.099 2582.52 Q334.819 2582.52 337.302 2586.27 Q339.804 2589.99 339.804 2597.1 Q339.804 2604.19 337.302 2607.93 Q334.819 2611.66 330.099 2611.66 Q325.378 2611.66 322.877 2607.93 Q320.394 2604.19 320.394 2597.1 Q320.394 2589.99 322.877 2586.27 Q325.378 2582.52 330.099 2582.52 Z" fill="#000000" fill-rule="nonzero" fill-opacity="1" /><path clip-path="url(#clip010)" d="M1963.96 2634.59 L1971.6 2634.59 L1971.6 2608.22 L1963.29 2609.89 L1963.29 2605.63 L1971.55 2603.96 L1976.23 2603.96 L1976.23 2634.59 L1983.86 2634.59 L1983.86 2638.52 L1963.96 2638.52 L1963.96 2634.59 Z" fill="#000000" fill-rule="nonzero" fill-opacity="1" /><path clip-path="url(#clip010)" d="M2003.31 2607.04 Q1999.7 2607.04 1997.87 2610.61 Q1996.06 2614.15 1996.06 2621.28 Q1996.06 2628.38 1997.87 2631.95 Q1999.7 2635.49 2003.31 2635.49 Q2006.94 2635.49 2008.75 2631.95 Q2010.58 2628.38 2010.58 2621.28 Q2010.58 2614.15 2008.75 2610.61 Q2006.94 2607.04 2003.31 2607.04 M2003.31 2603.34 Q2009.12 2603.34 2012.17 2607.94 Q2015.25 2612.53 2015.25 2621.28 Q2015.25 2630 2012.17 2634.61 Q2009.12 2639.19 2003.31 2639.19 Q1997.5 2639.19 1994.42 2634.61 Q1991.36 2630 1991.36 2621.28 Q1991.36 2612.53 1994.42 2607.94 Q1997.5 2603.34 2003.31 2603.34 Z" fill="#000000" fill-rule="nonzero" fill-opacity="1" /><path clip-path="url(#clip010)" d="M2015.8 2607.91 L2022.01 2607.91 L2022.01 2586.49 L2015.25 2587.85 L2015.25 2584.39 L2021.97 2583.03 L2025.77 2583.03 L2025.77 2607.91 L2031.97 2607.91 L2031.97 2611.11 L2015.8 2611.11 L2015.8 2607.91 Z" fill="#000000" fill-rule="nonzero" fill-opacity="1" /><path clip-path="url(#clip010)" d="M3656.92 2634.59 L3664.56 2634.59 L3664.56 2608.22 L3656.25 2609.89 L3656.25 2605.63 L3664.51 2603.96 L3669.19 2603.96 L3669.19 2634.59 L3676.83 2634.59 L3676.83 2638.52 L3656.92 2638.52 L3656.92 2634.59 Z" fill="#000000" fill-rule="nonzero" fill-opacity="1" /><path clip-path="url(#clip010)" d="M3696.27 2607.04 Q3692.66 2607.04 3690.83 2610.61 Q3689.02 2614.15 3689.02 2621.28 Q3689.02 2628.38 3690.83 2631.95 Q3692.66 2635.49 3696.27 2635.49 Q3699.9 2635.49 3701.71 2631.95 Q3703.54 2628.38 3703.54 2621.28 Q3703.54 2614.15 3701.71 2610.61 Q3699.9 2607.04 3696.27 2607.04 M3696.27 2603.34 Q3702.08 2603.34 3705.14 2607.94 Q3708.21 2612.53 3708.21 2621.28 Q3708.21 2630 3705.14 2634.61 Q3702.08 2639.19 3696.27 2639.19 Q3690.46 2639.19 3687.38 2634.61 Q3684.33 2630 3684.33 2621.28 Q3684.33 2612.53 3687.38 2607.94 Q3690.46 2603.34 3696.27 2603.34 Z" fill="#000000" fill-rule="nonzero" fill-opacity="1" /><path clip-path="url(#clip010)" d="M3712.78 2607.91 L3726.04 2607.91 L3726.04 2611.11 L3708.21 2611.11 L3708.21 2607.91 Q3710.38 2605.68 3714.1 2601.92 Q3717.84 2598.13 3718.8 2597.04 Q3720.63 2594.99 3721.34 2593.58 Q3722.08 2592.15 3722.08 2590.78 Q3722.08 2588.54 3720.5 2587.13 Q3718.93 2585.72 3716.41 2585.72 Q3714.63 2585.72 3712.63 2586.34 Q3710.66 2586.96 3708.4 2588.22 L3708.4 2584.39 Q3710.7 2583.46 3712.69 2582.99 Q3714.68 2582.52 3716.34 2582.52 Q3720.7 2582.52 3723.3 2584.71 Q3725.89 2586.89 3725.89 2590.54 Q3725.89 2592.27 3725.23 2593.83 Q3724.6 2595.37 3722.88 2597.48 Q3722.41 2598.02 3719.89 2600.64 Q3717.37 2603.23 3712.78 2607.91 Z" fill="#000000" fill-rule="nonzero" fill-opacity="1" /><polyline clip-path="url(#clip010)" style="stroke:#000000; stroke-linecap:round; stroke-linejoin:round; stroke-width:4; stroke-opacity:1; fill:none" points="202.504,2548.94 202.504,47.2441 "/>
<polyline clip-path="url(#clip010)" style="stroke:#000000; stroke-linecap:round; stroke-linejoin:round; stroke-width:4; stroke-opacity:1; fill:none" points="202.504,2478.14 221.402,2478.14 "/>
<polyline clip-path="url(#clip010)" style="stroke:#000000; stroke-linecap:round; stroke-linejoin:round; stroke-width:4; stroke-opacity:1; fill:none" points="202.504,1888.12 221.402,1888.12 "/>
<polyline clip-path="url(#clip010)" style="stroke:#000000; stroke-linecap:round; stroke-linejoin:round; stroke-width:4; stroke-opacity:1; fill:none" points="202.504,1298.09 221.402,1298.09 "/>
<polyline clip-path="url(#clip010)" style="stroke:#000000; stroke-linecap:round; stroke-linejoin:round; stroke-width:4; stroke-opacity:1; fill:none" points="202.504,708.07 221.402,708.07 "/>
<polyline clip-path="url(#clip010)" style="stroke:#000000; stroke-linecap:round; stroke-linejoin:round; stroke-width:4; stroke-opacity:1; fill:none" points="202.504,118.047 221.402,118.047 "/>
<path clip-path="url(#clip010)" d="M44.7643 2497.93 L52.4032 2497.93 L52.4032 2471.57 L44.0931 2473.23 L44.0931 2468.97 L52.3569 2467.31 L57.0328 2467.31 L57.0328 2497.93 L64.6716 2497.93 L64.6716 2501.87 L44.7643 2501.87 L44.7643 2497.93 Z" fill="#000000" fill-rule="nonzero" fill-opacity="1" /><path clip-path="url(#clip010)" d="M84.116 2470.39 Q80.5049 2470.39 78.6762 2473.95 Q76.8707 2477.49 76.8707 2484.62 Q76.8707 2491.73 78.6762 2495.29 Q80.5049 2498.83 84.116 2498.83 Q87.7502 2498.83 89.5558 2495.29 Q91.3845 2491.73 91.3845 2484.62 Q91.3845 2477.49 89.5558 2473.95 Q87.7502 2470.39 84.116 2470.39 M84.116 2466.68 Q89.9261 2466.68 92.9817 2471.29 Q96.0604 2475.87 96.0604 2484.62 Q96.0604 2493.35 92.9817 2497.96 Q89.9261 2502.54 84.116 2502.54 Q78.3058 2502.54 75.2271 2497.96 Q72.1716 2493.35 72.1716 2484.62 Q72.1716 2475.87 75.2271 2471.29 Q78.3058 2466.68 84.116 2466.68 Z" fill="#000000" fill-rule="nonzero" fill-opacity="1" /><path clip-path="url(#clip010)" d="M96.0604 2460.78 L120.172 2460.78 L120.172 2463.98 L96.0604 2463.98 L96.0604 2460.78 Z" fill="#000000" fill-rule="nonzero" fill-opacity="1" /><path clip-path="url(#clip010)" d="M131.645 2471.26 L144.904 2471.26 L144.904 2474.46 L127.074 2474.46 L127.074 2471.26 Q129.237 2469.02 132.961 2465.26 Q136.704 2461.48 137.663 2460.39 Q139.488 2458.34 140.202 2456.93 Q140.936 2455.5 140.936 2454.13 Q140.936 2451.89 139.356 2450.48 Q137.795 2449.07 135.275 2449.07 Q133.488 2449.07 131.494 2449.69 Q129.519 2450.31 127.262 2451.57 L127.262 2447.73 Q129.557 2446.81 131.551 2446.34 Q133.544 2445.87 135.199 2445.87 Q139.563 2445.87 142.158 2448.05 Q144.754 2450.23 144.754 2453.88 Q144.754 2455.61 144.095 2457.17 Q143.456 2458.71 141.744 2460.82 Q141.274 2461.37 138.754 2463.98 Q136.234 2466.58 131.645 2471.26 Z" fill="#000000" fill-rule="nonzero" fill-opacity="1" /><path clip-path="url(#clip010)" d="M44.4634 1907.91 L52.1023 1907.91 L52.1023 1881.54 L43.7921 1883.21 L43.7921 1878.95 L52.056 1877.28 L56.7319 1877.28 L56.7319 1907.91 L64.3707 1907.91 L64.3707 1911.84 L44.4634 1911.84 L44.4634 1907.91 Z" fill="#000000" fill-rule="nonzero" fill-opacity="1" /><path clip-path="url(#clip010)" d="M83.8151 1880.36 Q80.204 1880.36 78.3753 1883.93 Q76.5697 1887.47 76.5697 1894.6 Q76.5697 1901.71 78.3753 1905.27 Q80.204 1908.81 83.8151 1908.81 Q87.4493 1908.81 89.2548 1905.27 Q91.0835 1901.71 91.0835 1894.6 Q91.0835 1887.47 89.2548 1883.93 Q87.4493 1880.36 83.8151 1880.36 M83.8151 1876.66 Q89.6252 1876.66 92.6808 1881.27 Q95.7594 1885.85 95.7594 1894.6 Q95.7594 1903.33 92.6808 1907.93 Q89.6252 1912.52 83.8151 1912.52 Q78.0049 1912.52 74.9262 1907.93 Q71.8707 1903.33 71.8707 1894.6 Q71.8707 1885.85 74.9262 1881.27 Q78.0049 1876.66 83.8151 1876.66 Z" fill="#000000" fill-rule="nonzero" fill-opacity="1" /><path clip-path="url(#clip010)" d="M95.7594 1870.76 L119.871 1870.76 L119.871 1873.96 L95.7594 1873.96 L95.7594 1870.76 Z" fill="#000000" fill-rule="nonzero" fill-opacity="1" /><path clip-path="url(#clip010)" d="M128.729 1881.24 L134.936 1881.24 L134.936 1859.81 L128.184 1861.17 L128.184 1857.71 L134.898 1856.35 L138.698 1856.35 L138.698 1881.24 L144.904 1881.24 L144.904 1884.43 L128.729 1884.43 L128.729 1881.24 Z" fill="#000000" fill-rule="nonzero" fill-opacity="1" /><path clip-path="url(#clip010)" d="M74.1985 1317.89 L81.8374 1317.89 L81.8374 1291.52 L73.5272 1293.19 L73.5272 1288.93 L81.7911 1287.26 L86.467 1287.26 L86.467 1317.89 L94.1058 1317.89 L94.1058 1321.82 L74.1985 1321.82 L74.1985 1317.89 Z" fill="#000000" fill-rule="nonzero" fill-opacity="1" /><path clip-path="url(#clip010)" d="M113.55 1290.34 Q109.939 1290.34 108.11 1293.9 Q106.305 1297.45 106.305 1304.58 Q106.305 1311.68 108.11 1315.25 Q109.939 1318.79 113.55 1318.79 Q117.184 1318.79 118.99 1315.25 Q120.819 1311.68 120.819 1304.58 Q120.819 1297.45 118.99 1293.9 Q117.184 1290.34 113.55 1290.34 M113.55 1286.64 Q119.36 1286.64 122.416 1291.24 Q125.495 1295.83 125.495 1304.58 Q125.495 1313.3 122.416 1317.91 Q119.36 1322.49 113.55 1322.49 Q107.74 1322.49 104.661 1317.91 Q101.606 1313.3 101.606 1304.58 Q101.606 1295.83 104.661 1291.24 Q107.74 1286.64 113.55 1286.64 Z" fill="#000000" fill-rule="nonzero" fill-opacity="1" /><path clip-path="url(#clip010)" d="M135.199 1268.83 Q132.265 1268.83 130.78 1271.73 Q129.313 1274.61 129.313 1280.4 Q129.313 1286.17 130.78 1289.07 Q132.265 1291.95 135.199 1291.95 Q138.152 1291.95 139.619 1289.07 Q141.105 1286.17 141.105 1280.4 Q141.105 1274.61 139.619 1271.73 Q138.152 1268.83 135.199 1268.83 M135.199 1265.82 Q139.92 1265.82 142.403 1269.57 Q144.904 1273.29 144.904 1280.4 Q144.904 1287.49 142.403 1291.23 Q139.92 1294.96 135.199 1294.96 Q130.479 1294.96 127.977 1291.23 Q125.495 1287.49 125.495 1280.4 Q125.495 1273.29 127.977 1269.57 Q130.479 1265.82 135.199 1265.82 Z" fill="#000000" fill-rule="nonzero" fill-opacity="1" /><path clip-path="url(#clip010)" d="M76.888 727.863 L84.5269 727.863 L84.5269 701.497 L76.2167 703.164 L76.2167 698.904 L84.4806 697.238 L89.1565 697.238 L89.1565 727.863 L96.7953 727.863 L96.7953 731.798 L76.888 731.798 L76.888 727.863 Z" fill="#000000" fill-rule="nonzero" fill-opacity="1" /><path clip-path="url(#clip010)" d="M116.24 700.316 Q112.629 700.316 110.8 703.881 Q108.994 707.423 108.994 714.552 Q108.994 721.659 110.8 725.224 Q112.629 728.765 116.24 728.765 Q119.874 728.765 121.679 725.224 Q123.508 721.659 123.508 714.552 Q123.508 707.423 121.679 703.881 Q119.874 700.316 116.24 700.316 M116.24 696.613 Q122.05 696.613 125.105 701.219 Q128.184 705.802 128.184 714.552 Q128.184 723.279 125.105 727.886 Q122.05 732.469 116.24 732.469 Q110.43 732.469 107.351 727.886 Q104.295 723.279 104.295 714.552 Q104.295 705.802 107.351 701.219 Q110.43 696.613 116.24 696.613 Z" fill="#000000" fill-rule="nonzero" fill-opacity="1" /><path clip-path="url(#clip010)" d="M128.729 701.19 L134.936 701.19 L134.936 679.768 L128.184 681.122 L128.184 677.661 L134.898 676.307 L138.698 676.307 L138.698 701.19 L144.904 701.19 L144.904 704.387 L128.729 704.387 L128.729 701.19 Z" fill="#000000" fill-rule="nonzero" fill-opacity="1" /><path clip-path="url(#clip010)" d="M75.7784 137.839 L83.4172 137.839 L83.4172 111.474 L75.1071 113.14 L75.1071 108.881 L83.3709 107.214 L88.0468 107.214 L88.0468 137.839 L95.6857 137.839 L95.6857 141.774 L75.7784 141.774 L75.7784 137.839 Z" fill="#000000" fill-rule="nonzero" fill-opacity="1" /><path clip-path="url(#clip010)" d="M115.13 110.293 Q111.519 110.293 109.69 113.858 Q107.885 117.4 107.885 124.529 Q107.885 131.636 109.69 135.2 Q111.519 138.742 115.13 138.742 Q118.764 138.742 120.57 135.2 Q122.398 131.636 122.398 124.529 Q122.398 117.4 120.57 113.858 Q118.764 110.293 115.13 110.293 M115.13 106.589 Q120.94 106.589 123.996 111.196 Q127.074 115.779 127.074 124.529 Q127.074 133.256 123.996 137.862 Q120.94 142.446 115.13 142.446 Q109.32 142.446 106.241 137.862 Q103.186 133.256 103.186 124.529 Q103.186 115.779 106.241 111.196 Q109.32 106.589 115.13 106.589 Z" fill="#000000" fill-rule="nonzero" fill-opacity="1" /><path clip-path="url(#clip010)" d="M131.645 111.167 L144.904 111.167 L144.904 114.364 L127.074 114.364 L127.074 111.167 Q129.237 108.929 132.961 105.167 Q136.704 101.387 137.663 100.296 Q139.488 98.2458 140.202 96.8352 Q140.936 95.4058 140.936 94.0329 Q140.936 91.7948 139.356 90.3842 Q137.795 88.9736 135.275 88.9736 Q133.488 88.9736 131.494 89.5942 Q129.519 90.2149 127.262 91.475 L127.262 87.6382 Q129.557 86.7167 131.551 86.2465 Q133.544 85.7763 135.199 85.7763 Q139.563 85.7763 142.158 87.958 Q144.754 90.1397 144.754 93.7884 Q144.754 95.5187 144.095 97.0797 Q143.456 98.622 141.744 100.728 Q141.274 101.274 138.754 103.888 Q136.234 106.484 131.645 111.167 Z" fill="#000000" fill-rule="nonzero" fill-opacity="1" /><polyline clip-path="url(#clip012)" style="stroke:#009af9; stroke-linecap:round; stroke-linejoin:round; stroke-width:4; stroke-opacity:1; fill:none" points="304.115,2478.14 813.914,2122.91 1112.13,1915.11 1323.71,1767.68 1487.83,1653.32 1621.93,1559.89 1735.3,1480.88 1833.51,1412.45 1920.14,1352.09 1997.63,1298.09 2067.73,1249.25 2131.72,1204.66 2190.59,1163.63 2245.1,1125.66 2295.84,1090.3 2343.31,1057.22 2387.9,1026.15 2429.94,996.86 2469.7,969.151 2507.43,942.864 2543.31,917.86 2577.53,894.019 2610.22,871.238 2641.52,849.426 2671.55,828.506 2700.39,808.405 2728.15,789.064 2754.9,770.426 2780.71,752.442 2805.64,735.068 2829.76,718.264 2853.11,701.993 2875.74,686.223 2897.7,670.924 2919.02,656.068 2939.74,641.631 2959.89,627.589 2979.5,613.922 2998.61,600.61 3017.23,587.635 3035.39,574.98 3053.11,562.63 3070.42,550.571 3087.33,538.789 3103.86,527.272 3120.02,516.008 3135.84,504.987 3151.32,494.197 3166.49,483.63 3181.35,473.276 3195.91,463.128 3210.19,453.176 3224.2,443.414 3237.95,433.835 3251.45,424.431 3264.7,415.197 3277.72,406.126 3290.51,397.213 3303.08,388.452 3315.44,379.839 3327.6,371.368 3339.56,363.034 3351.33,354.834 3362.91,346.764 3374.31,338.818 3385.54,330.993 3396.6,323.287 3407.5,315.694 3418.23,308.212 3428.82,300.838 3439.25,293.569 3449.54,286.401 3459.68,279.332 3469.69,272.36 3479.56,265.48 3489.3,258.692 3498.92,251.993 3508.41,245.38 3517.77,238.852 3527.03,232.405 3536.16,226.039 3545.19,219.751 3554.1,213.538 3562.91,207.401 3571.61,201.336 3580.22,195.342 3588.72,189.417 3597.13,183.56 3605.44,177.769 3613.65,172.043 3621.78,166.38 3629.82,160.779 3637.77,155.238 3645.64,149.757 3653.42,144.334 3661.12,138.968 3668.74,133.657 3676.29,128.401 3683.75,123.198 3691.15,118.047 "/>
<path clip-path="url(#clip010)" d="M322.179 234.314 L733.635 234.314 L733.635 130.634 L322.179 130.634  Z" fill="#ffffff" fill-rule="evenodd" fill-opacity="1"/>
<polyline clip-path="url(#clip010)" style="stroke:#000000; stroke-linecap:round; stroke-linejoin:round; stroke-width:4; stroke-opacity:1; fill:none" points="322.179,234.314 733.635,234.314 733.635,130.634 322.179,130.634 322.179,234.314 "/>
<polyline clip-path="url(#clip010)" style="stroke:#009af9; stroke-linecap:round; stroke-linejoin:round; stroke-width:4; stroke-opacity:1; fill:none" points="362.071,182.474 601.421,182.474 "/>
<path clip-path="url(#clip010)" d="M655.155 202.161 Q653.35 206.791 651.637 208.203 Q649.924 209.615 647.053 209.615 L643.651 209.615 L643.651 206.05 L646.151 206.05 Q647.91 206.05 648.882 205.217 Q649.854 204.384 651.035 201.282 L651.799 199.337 L641.313 173.828 L645.827 173.828 L653.928 194.106 L662.03 173.828 L666.544 173.828 L655.155 202.161 Z" fill="#000000" fill-rule="nonzero" fill-opacity="1" /><path clip-path="url(#clip010)" d="M673.836 195.819 L681.475 195.819 L681.475 169.453 L673.164 171.12 L673.164 166.861 L681.428 165.194 L686.104 165.194 L686.104 195.819 L693.743 195.819 L693.743 199.754 L673.836 199.754 L673.836 195.819 Z" fill="#000000" fill-rule="nonzero" fill-opacity="1" /></svg>
