<?xml version="1.0" encoding="utf-8"?>
<svg xmlns="http://www.w3.org/2000/svg" xmlns:xlink="http://www.w3.org/1999/xlink" width="960" height="672" viewBox="0 0 3840 2688">
<defs>
  <clipPath id="clip990">
    <rect x="0" y="0" width="3840" height="2688"/>
  </clipPath>
</defs>
<path clip-path="url(#clip990)" d="M0 2688 L3840 2688 L3840 -1.47793e-13 L0 -1.47793e-13  Z" fill="#ffffff" fill-rule="evenodd" fill-opacity="1"/>
<defs>
  <clipPath id="clip991">
    <rect x="768" y="0" width="2689" height="2688"/>
  </clipPath>
</defs>
<path clip-path="url(#clip990)" d="M170.998 2561.84 L3792.76 2561.84 L3792.76 47.2441 L170.998 47.2441  Z" fill="#ffffff" fill-rule="evenodd" fill-opacity="1"/>
<defs>
  <clipPath id="clip992">
    <rect x="170" y="47" width="3623" height="2516"/>
  </clipPath>
</defs>
<polyline clip-path="url(#clip992)" style="stroke:#000000; stroke-linecap:round; stroke-linejoin:round; stroke-width:2; stroke-opacity:0.1; fill:none" points="273.501,2561.84 273.501,47.2441 "/>
<polyline clip-path="url(#clip992)" style="stroke:#000000; stroke-linecap:round; stroke-linejoin:round; stroke-width:2; stroke-opacity:0.1; fill:none" points="1127.69,2561.84 1127.69,47.2441 "/>
<polyline clip-path="url(#clip992)" style="stroke:#000000; stroke-linecap:round; stroke-linejoin:round; stroke-width:2; stroke-opacity:0.1; fill:none" points="1981.88,2561.84 1981.88,47.2441 "/>
<polyline clip-path="url(#clip992)" style="stroke:#000000; stroke-linecap:round; stroke-linejoin:round; stroke-width:2; stroke-opacity:0.1; fill:none" points="2836.07,2561.84 2836.07,47.2441 "/>
<polyline clip-path="url(#clip992)" style="stroke:#000000; stroke-linecap:round; stroke-linejoin:round; stroke-width:2; stroke-opacity:0.1; fill:none" points="3690.25,2561.84 3690.25,47.2441 "/>
<polyline clip-path="url(#clip992)" style="stroke:#000000; stroke-linecap:round; stroke-linejoin:round; stroke-width:2; stroke-opacity:0.1; fill:none" points="170.998,2494.18 3792.76,2494.18 "/>
<polyline clip-path="url(#clip992)" style="stroke:#000000; stroke-linecap:round; stroke-linejoin:round; stroke-width:2; stroke-opacity:0.1; fill:none" points="170.998,1974.84 3792.76,1974.84 "/>
<polyline clip-path="url(#clip992)" style="stroke:#000000; stroke-linecap:round; stroke-linejoin:round; stroke-width:2; stroke-opacity:0.1; fill:none" points="170.998,1455.51 3792.76,1455.51 "/>
<polyline clip-path="url(#clip992)" style="stroke:#000000; stroke-linecap:round; stroke-linejoin:round; stroke-width:2; stroke-opacity:0.1; fill:none" points="170.998,936.178 3792.76,936.178 "/>
<polyline clip-path="url(#clip992)" style="stroke:#000000; stroke-linecap:round; stroke-linejoin:round; stroke-width:2; stroke-opacity:0.1; fill:none" points="170.998,416.844 3792.76,416.844 "/>
<polyline clip-path="url(#clip990)" style="stroke:#000000; stroke-linecap:round; stroke-linejoin:round; stroke-width:4; stroke-opacity:1; fill:none" points="170.998,2561.84 3792.76,2561.84 "/>
<polyline clip-path="url(#clip990)" style="stroke:#000000; stroke-linecap:round; stroke-linejoin:round; stroke-width:4; stroke-opacity:1; fill:none" points="273.501,2561.84 273.501,2542.94 "/>
<polyline clip-path="url(#clip990)" style="stroke:#000000; stroke-linecap:round; stroke-linejoin:round; stroke-width:4; stroke-opacity:1; fill:none" points="1127.69,2561.84 1127.69,2542.94 "/>
<polyline clip-path="url(#clip990)" style="stroke:#000000; stroke-linecap:round; stroke-linejoin:round; stroke-width:4; stroke-opacity:1; fill:none" points="1981.88,2561.84 1981.88,2542.94 "/>
<polyline clip-path="url(#clip990)" style="stroke:#000000; stroke-linecap:round; stroke-linejoin:round; stroke-width:4; stroke-opacity:1; fill:none" points="2836.07,2561.84 2836.07,2542.94 "/>
<polyline clip-path="url(#clip990)" style="stroke:#000000; stroke-linecap:round; stroke-linejoin:round; stroke-width:4; stroke-opacity:1; fill:none" points="3690.25,2561.84 3690.25,2542.94 "/>
<path clip-path="url(#clip990)" d="M263.883 2631.82 L271.522 2631.82 L271.522 2605.46 L263.212 2607.13 L263.212 2602.87 L271.475 2601.2 L276.151 2601.2 L276.151 2631.82 L283.79 2631.82 L283.79 2635.76 L263.883 2635.76 L263.883 2631.82 Z" fill="#000000" fill-rule="nonzero" fill-opacity="1" /><path clip-path="url(#clip990)" d="M1122.34 2631.82 L1138.66 2631.82 L1138.66 2635.76 L1116.72 2635.76 L1116.72 2631.82 Q1119.38 2629.07 1123.96 2624.44 Q1128.57 2619.79 1129.75 2618.45 Q1131.99 2615.92 1132.87 2614.19 Q1133.78 2612.43 1133.78 2610.74 Q1133.78 2607.98 1131.83 2606.25 Q1129.91 2604.51 1126.81 2604.51 Q1124.61 2604.51 1122.16 2605.27 Q1119.73 2606.04 1116.95 2607.59 L1116.95 2602.87 Q1119.77 2601.73 1122.23 2601.15 Q1124.68 2600.57 1126.72 2600.57 Q1132.09 2600.57 1135.28 2603.26 Q1138.48 2605.95 1138.48 2610.44 Q1138.48 2612.57 1137.67 2614.49 Q1136.88 2616.38 1134.77 2618.98 Q1134.19 2619.65 1131.09 2622.87 Q1127.99 2626.06 1122.34 2631.82 Z" fill="#000000" fill-rule="nonzero" fill-opacity="1" /><path clip-path="url(#clip990)" d="M1986.12 2617.13 Q1989.48 2617.84 1991.36 2620.11 Q1993.25 2622.38 1993.25 2625.71 Q1993.25 2630.83 1989.74 2633.63 Q1986.22 2636.43 1979.74 2636.43 Q1977.56 2636.43 1975.25 2635.99 Q1972.95 2635.57 1970.5 2634.72 L1970.5 2630.2 Q1972.44 2631.34 1974.76 2631.92 Q1977.07 2632.5 1979.6 2632.5 Q1984 2632.5 1986.29 2630.76 Q1988.6 2629.02 1988.6 2625.71 Q1988.6 2622.66 1986.45 2620.95 Q1984.32 2619.21 1980.5 2619.21 L1976.47 2619.21 L1976.47 2615.37 L1980.68 2615.37 Q1984.13 2615.37 1985.96 2614 Q1987.79 2612.61 1987.79 2610.02 Q1987.79 2607.36 1985.89 2605.95 Q1984.02 2604.51 1980.5 2604.51 Q1978.58 2604.51 1976.38 2604.93 Q1974.18 2605.34 1971.54 2606.22 L1971.54 2602.06 Q1974.2 2601.32 1976.52 2600.95 Q1978.86 2600.57 1980.92 2600.57 Q1986.24 2600.57 1989.34 2603.01 Q1992.44 2605.41 1992.44 2609.53 Q1992.44 2612.4 1990.8 2614.39 Q1989.16 2616.36 1986.12 2617.13 Z" fill="#000000" fill-rule="nonzero" fill-opacity="1" /><path clip-path="url(#clip990)" d="M2839.07 2605.27 L2827.27 2623.72 L2839.07 2623.72 L2839.07 2605.27 M2837.85 2601.2 L2843.73 2601.2 L2843.73 2623.72 L2848.66 2623.72 L2848.66 2627.61 L2843.73 2627.61 L2843.73 2635.76 L2839.07 2635.76 L2839.07 2627.61 L2823.47 2627.61 L2823.47 2623.1 L2837.85 2601.2 Z" fill="#000000" fill-rule="nonzero" fill-opacity="1" /><path clip-path="url(#clip990)" d="M3680.53 2601.2 L3698.89 2601.2 L3698.89 2605.14 L3684.81 2605.14 L3684.81 2613.61 Q3685.83 2613.26 3686.85 2613.1 Q3687.87 2612.91 3688.89 2612.91 Q3694.67 2612.91 3698.05 2616.08 Q3701.43 2619.26 3701.43 2624.67 Q3701.43 2630.25 3697.96 2633.35 Q3694.49 2636.43 3688.17 2636.43 Q3685.99 2636.43 3683.73 2636.06 Q3681.48 2635.69 3679.07 2634.95 L3679.07 2630.25 Q3681.16 2631.38 3683.38 2631.94 Q3685.6 2632.5 3688.08 2632.5 Q3692.08 2632.5 3694.42 2630.39 Q3696.76 2628.28 3696.76 2624.67 Q3696.76 2621.06 3694.42 2618.95 Q3692.08 2616.85 3688.08 2616.85 Q3686.2 2616.85 3684.33 2617.26 Q3682.48 2617.68 3680.53 2618.56 L3680.53 2601.2 Z" fill="#000000" fill-rule="nonzero" fill-opacity="1" /><polyline clip-path="url(#clip990)" style="stroke:#000000; stroke-linecap:round; stroke-linejoin:round; stroke-width:4; stroke-opacity:1; fill:none" points="170.998,2561.84 170.998,47.2441 "/>
<polyline clip-path="url(#clip990)" style="stroke:#000000; stroke-linecap:round; stroke-linejoin:round; stroke-width:4; stroke-opacity:1; fill:none" points="170.998,2494.18 189.896,2494.18 "/>
<polyline clip-path="url(#clip990)" style="stroke:#000000; stroke-linecap:round; stroke-linejoin:round; stroke-width:4; stroke-opacity:1; fill:none" points="170.998,1974.84 189.896,1974.84 "/>
<polyline clip-path="url(#clip990)" style="stroke:#000000; stroke-linecap:round; stroke-linejoin:round; stroke-width:4; stroke-opacity:1; fill:none" points="170.998,1455.51 189.896,1455.51 "/>
<polyline clip-path="url(#clip990)" style="stroke:#000000; stroke-linecap:round; stroke-linejoin:round; stroke-width:4; stroke-opacity:1; fill:none" points="170.998,936.178 189.896,936.178 "/>
<polyline clip-path="url(#clip990)" style="stroke:#000000; stroke-linecap:round; stroke-linejoin:round; stroke-width:4; stroke-opacity:1; fill:none" points="170.998,416.844 189.896,416.844 "/>
<path clip-path="url(#clip990)" d="M56.2226 2479.98 Q52.6115 2479.98 50.7828 2483.54 Q48.9773 2487.08 48.9773 2494.21 Q48.9773 2501.32 50.7828 2504.88 Q52.6115 2508.43 56.2226 2508.43 Q59.8569 2508.43 61.6624 2504.88 Q63.4911 2501.32 63.4911 2494.21 Q63.4911 2487.08 61.6624 2483.54 Q59.8569 2479.98 56.2226 2479.98 M56.2226 2476.27 Q62.0328 2476.27 65.0883 2480.88 Q68.167 2485.46 68.167 2494.21 Q68.167 2502.94 65.0883 2507.55 Q62.0328 2512.13 56.2226 2512.13 Q50.4125 2512.13 47.3338 2507.55 Q44.2782 2502.94 44.2782 2494.21 Q44.2782 2485.46 47.3338 2480.88 Q50.4125 2476.27 56.2226 2476.27 Z" fill="#000000" fill-rule="nonzero" fill-opacity="1" /><path clip-path="url(#clip990)" d="M76.3845 2505.58 L81.2688 2505.58 L81.2688 2511.46 L76.3845 2511.46 L76.3845 2505.58 Z" fill="#000000" fill-rule="nonzero" fill-opacity="1" /><path clip-path="url(#clip990)" d="M101.454 2479.98 Q97.8428 2479.98 96.0141 2483.54 Q94.2085 2487.08 94.2085 2494.21 Q94.2085 2501.32 96.0141 2504.88 Q97.8428 2508.43 101.454 2508.43 Q105.088 2508.43 106.894 2504.88 Q108.722 2501.32 108.722 2494.21 Q108.722 2487.08 106.894 2483.54 Q105.088 2479.98 101.454 2479.98 M101.454 2476.27 Q107.264 2476.27 110.32 2480.88 Q113.398 2485.46 113.398 2494.21 Q113.398 2502.94 110.32 2507.55 Q107.264 2512.13 101.454 2512.13 Q95.6437 2512.13 92.565 2507.55 Q89.5095 2502.94 89.5095 2494.21 Q89.5095 2485.46 92.565 2480.88 Q95.6437 2476.27 101.454 2476.27 Z" fill="#000000" fill-rule="nonzero" fill-opacity="1" /><path clip-path="url(#clip990)" d="M57.8198 1960.64 Q54.2087 1960.64 52.38 1964.21 Q50.5745 1967.75 50.5745 1974.88 Q50.5745 1981.99 52.38 1985.55 Q54.2087 1989.09 57.8198 1989.09 Q61.4541 1989.09 63.2596 1985.55 Q65.0883 1981.99 65.0883 1974.88 Q65.0883 1967.75 63.2596 1964.21 Q61.4541 1960.64 57.8198 1960.64 M57.8198 1956.94 Q63.63 1956.94 66.6855 1961.55 Q69.7642 1966.13 69.7642 1974.88 Q69.7642 1983.61 66.6855 1988.21 Q63.63 1992.8 57.8198 1992.8 Q52.0097 1992.8 48.931 1988.21 Q45.8754 1983.61 45.8754 1974.88 Q45.8754 1966.13 48.931 1961.55 Q52.0097 1956.94 57.8198 1956.94 Z" fill="#000000" fill-rule="nonzero" fill-opacity="1" /><path clip-path="url(#clip990)" d="M77.9818 1986.25 L82.866 1986.25 L82.866 1992.12 L77.9818 1992.12 L77.9818 1986.25 Z" fill="#000000" fill-rule="nonzero" fill-opacity="1" /><path clip-path="url(#clip990)" d="M97.0789 1988.19 L113.398 1988.19 L113.398 1992.12 L91.4539 1992.12 L91.4539 1988.19 Q94.1159 1985.44 98.6992 1980.81 Q103.306 1976.15 104.486 1974.81 Q106.732 1972.29 107.611 1970.55 Q108.514 1968.79 108.514 1967.1 Q108.514 1964.35 106.57 1962.61 Q104.648 1960.87 101.546 1960.87 Q99.3474 1960.87 96.8937 1961.64 Q94.4632 1962.4 91.6854 1963.95 L91.6854 1959.23 Q94.5094 1958.1 96.9631 1957.52 Q99.4168 1956.94 101.454 1956.94 Q106.824 1956.94 110.019 1959.62 Q113.213 1962.31 113.213 1966.8 Q113.213 1968.93 112.403 1970.85 Q111.616 1972.75 109.509 1975.34 Q108.931 1976.01 105.829 1979.23 Q102.727 1982.43 97.0789 1988.19 Z" fill="#000000" fill-rule="nonzero" fill-opacity="1" /><path clip-path="url(#clip990)" d="M55.7365 1441.31 Q52.1254 1441.31 50.2967 1444.87 Q48.4912 1448.42 48.4912 1455.55 Q48.4912 1462.65 50.2967 1466.22 Q52.1254 1469.76 55.7365 1469.76 Q59.3707 1469.76 61.1763 1466.22 Q63.005 1462.65 63.005 1455.55 Q63.005 1448.42 61.1763 1444.87 Q59.3707 1441.31 55.7365 1441.31 M55.7365 1437.61 Q61.5467 1437.61 64.6022 1442.21 Q67.6809 1446.8 67.6809 1455.55 Q67.6809 1464.27 64.6022 1468.88 Q61.5467 1473.46 55.7365 1473.46 Q49.9264 1473.46 46.8477 1468.88 Q43.7921 1464.27 43.7921 1455.55 Q43.7921 1446.8 46.8477 1442.21 Q49.9264 1437.61 55.7365 1437.61 Z" fill="#000000" fill-rule="nonzero" fill-opacity="1" /><path clip-path="url(#clip990)" d="M75.8984 1466.91 L80.7827 1466.91 L80.7827 1472.79 L75.8984 1472.79 L75.8984 1466.91 Z" fill="#000000" fill-rule="nonzero" fill-opacity="1" /><path clip-path="url(#clip990)" d="M103.815 1442.31 L92.0095 1460.75 L103.815 1460.75 L103.815 1442.31 M102.588 1438.23 L108.468 1438.23 L108.468 1460.75 L113.398 1460.75 L113.398 1464.64 L108.468 1464.64 L108.468 1472.79 L103.815 1472.79 L103.815 1464.64 L88.2132 1464.64 L88.2132 1460.13 L102.588 1438.23 Z" fill="#000000" fill-rule="nonzero" fill-opacity="1" /><path clip-path="url(#clip990)" d="M56.0606 921.976 Q52.4495 921.976 50.6208 925.541 Q48.8152 929.083 48.8152 936.213 Q48.8152 943.319 50.6208 946.884 Q52.4495 950.425 56.0606 950.425 Q59.6948 950.425 61.5004 946.884 Q63.3291 943.319 63.3291 936.213 Q63.3291 929.083 61.5004 925.541 Q59.6948 921.976 56.0606 921.976 M56.0606 918.273 Q61.8707 918.273 64.9263 922.879 Q68.005 927.463 68.005 936.213 Q68.005 944.939 64.9263 949.546 Q61.8707 954.129 56.0606 954.129 Q50.2504 954.129 47.1717 949.546 Q44.1162 944.939 44.1162 936.213 Q44.1162 927.463 47.1717 922.879 Q50.2504 918.273 56.0606 918.273 Z" fill="#000000" fill-rule="nonzero" fill-opacity="1" /><path clip-path="url(#clip990)" d="M76.2225 947.578 L81.1067 947.578 L81.1067 953.458 L76.2225 953.458 L76.2225 947.578 Z" fill="#000000" fill-rule="nonzero" fill-opacity="1" /><path clip-path="url(#clip990)" d="M101.871 934.314 Q98.7224 934.314 96.8705 936.467 Q95.0419 938.62 95.0419 942.37 Q95.0419 946.097 96.8705 948.273 Q98.7224 950.425 101.871 950.425 Q105.019 950.425 106.847 948.273 Q108.699 946.097 108.699 942.37 Q108.699 938.62 106.847 936.467 Q105.019 934.314 101.871 934.314 M111.153 919.662 L111.153 923.921 Q109.394 923.088 107.588 922.648 Q105.806 922.208 104.046 922.208 Q99.4168 922.208 96.9631 925.333 Q94.5326 928.458 94.1854 934.777 Q95.5511 932.763 97.6113 931.699 Q99.6715 930.611 102.148 930.611 Q107.357 930.611 110.366 933.782 Q113.398 936.93 113.398 942.37 Q113.398 947.694 110.25 950.912 Q107.102 954.129 101.871 954.129 Q95.8752 954.129 92.7039 949.546 Q89.5326 944.939 89.5326 936.213 Q89.5326 928.018 93.4215 923.157 Q97.3104 918.273 103.861 918.273 Q105.62 918.273 107.403 918.62 Q109.208 918.967 111.153 919.662 Z" fill="#000000" fill-rule="nonzero" fill-opacity="1" /><path clip-path="url(#clip990)" d="M56.3152 402.643 Q52.7041 402.643 50.8754 406.208 Q49.0699 409.749 49.0699 416.879 Q49.0699 423.985 50.8754 427.55 Q52.7041 431.092 56.3152 431.092 Q59.9494 431.092 61.755 427.55 Q63.5837 423.985 63.5837 416.879 Q63.5837 409.749 61.755 406.208 Q59.9494 402.643 56.3152 402.643 M56.3152 398.939 Q62.1254 398.939 65.1809 403.546 Q68.2596 408.129 68.2596 416.879 Q68.2596 425.606 65.1809 430.212 Q62.1254 434.796 56.3152 434.796 Q50.5051 434.796 47.4264 430.212 Q44.3708 425.606 44.3708 416.879 Q44.3708 408.129 47.4264 403.546 Q50.5051 398.939 56.3152 398.939 Z" fill="#000000" fill-rule="nonzero" fill-opacity="1" /><path clip-path="url(#clip990)" d="M76.4771 428.245 L81.3614 428.245 L81.3614 434.124 L76.4771 434.124 L76.4771 428.245 Z" fill="#000000" fill-rule="nonzero" fill-opacity="1" /><path clip-path="url(#clip990)" d="M101.546 417.712 Q98.2131 417.712 96.2918 419.495 Q94.3937 421.277 94.3937 424.402 Q94.3937 427.527 96.2918 429.31 Q98.2131 431.092 101.546 431.092 Q104.88 431.092 106.801 429.31 Q108.722 427.504 108.722 424.402 Q108.722 421.277 106.801 419.495 Q104.903 417.712 101.546 417.712 M96.8705 415.722 Q93.8613 414.981 92.1715 412.921 Q90.5048 410.861 90.5048 407.898 Q90.5048 403.754 93.4446 401.347 Q96.4076 398.939 101.546 398.939 Q106.708 398.939 109.648 401.347 Q112.588 403.754 112.588 407.898 Q112.588 410.861 110.898 412.921 Q109.232 414.981 106.245 415.722 Q109.625 416.509 111.5 418.8 Q113.398 421.092 113.398 424.402 Q113.398 429.425 110.32 432.11 Q107.264 434.796 101.546 434.796 Q95.8289 434.796 92.7502 432.11 Q89.6947 429.425 89.6947 424.402 Q89.6947 421.092 91.5928 418.8 Q93.4909 416.509 96.8705 415.722 M95.1576 408.337 Q95.1576 411.023 96.8242 412.527 Q98.5141 414.032 101.546 414.032 Q104.556 414.032 106.245 412.527 Q107.958 411.023 107.958 408.337 Q107.958 405.652 106.245 404.148 Q104.556 402.643 101.546 402.643 Q98.5141 402.643 96.8242 404.148 Q95.1576 405.652 95.1576 408.337 Z" fill="#000000" fill-rule="nonzero" fill-opacity="1" /><polyline clip-path="url(#clip992)" style="stroke:#009af9; stroke-linecap:round; stroke-linejoin:round; stroke-width:4; stroke-opacity:1; fill:none" points="273.501,2303.67 1127.69,1587.31 1981.88,679.558 2836.07,862.784 3690.25,118.412 "/>
<polyline clip-path="url(#clip992)" style="stroke:#e26f46; stroke-linecap:round; stroke-linejoin:round; stroke-width:4; stroke-opacity:1; fill:none" points="273.501,1993.52 1127.69,494.276 1981.88,467.429 2836.07,753.726 3690.25,2058.69 "/>
<circle clip-path="url(#clip992)" cx="273.501" cy="1011.25" r="14.4" fill="#3da44d" fill-rule="evenodd" fill-opacity="1" stroke="#000000" stroke-opacity="1" stroke-width="5.376"/>
<circle clip-path="url(#clip992)" cx="1127.69" cy="1318.38" r="14.4" fill="#3da44d" fill-rule="evenodd" fill-opacity="1" stroke="#000000" stroke-opacity="1" stroke-width="5.376"/>
<circle clip-path="url(#clip992)" cx="1981.88" cy="1709.14" r="14.4" fill="#3da44d" fill-rule="evenodd" fill-opacity="1" stroke="#000000" stroke-opacity="1" stroke-width="5.376"/>
<circle clip-path="url(#clip992)" cx="2836.07" cy="2490.67" r="14.4" fill="#3da44d" fill-rule="evenodd" fill-opacity="1" stroke="#000000" stroke-opacity="1" stroke-width="5.376"/>
<circle clip-path="url(#clip992)" cx="3690.25" cy="1021.81" r="14.4" fill="#3da44d" fill-rule="evenodd" fill-opacity="1" stroke="#000000" stroke-opacity="1" stroke-width="5.376"/>
<path clip-path="url(#clip990)" d="M2940.62 338.424 L3672.03 338.424 L3672.03 131.064 L2940.62 131.064  Z" fill="#ffffff" fill-rule="evenodd" fill-opacity="1"/>
<polyline clip-path="url(#clip990)" style="stroke:#000000; stroke-linecap:round; stroke-linejoin:round; stroke-width:4; stroke-opacity:1; fill:none" points="2940.62,338.424 3672.03,338.424 3672.03,131.064 2940.62,131.064 2940.62,338.424 "/>
<polyline clip-path="url(#clip990)" style="stroke:#009af9; stroke-linecap:round; stroke-linejoin:round; stroke-width:4; stroke-opacity:1; fill:none" points="2980.86,182.904 3222.31,182.904 "/>
<path clip-path="url(#clip990)" d="M3274.45 177.244 Q3271.03 177.244 3269.04 179.929 Q3267.05 182.591 3267.05 187.244 Q3267.05 191.897 3269.01 194.582 Q3271 197.244 3274.45 197.244 Q3277.86 197.244 3279.85 194.559 Q3281.84 191.874 3281.84 187.244 Q3281.84 182.638 3279.85 179.953 Q3277.86 177.244 3274.45 177.244 M3274.45 173.633 Q3280.01 173.633 3283.18 177.244 Q3286.35 180.855 3286.35 187.244 Q3286.35 193.61 3283.18 197.244 Q3280.01 200.855 3274.45 200.855 Q3268.87 200.855 3265.7 197.244 Q3262.55 193.61 3262.55 187.244 Q3262.55 180.855 3265.7 177.244 Q3268.87 173.633 3274.45 173.633 Z" fill="#000000" fill-rule="nonzero" fill-opacity="1" /><path clip-path="url(#clip990)" d="M3308.43 178.24 Q3307.72 177.823 3306.86 177.638 Q3306.03 177.429 3305.01 177.429 Q3301.4 177.429 3299.45 179.791 Q3297.53 182.128 3297.53 186.527 L3297.53 200.184 L3293.25 200.184 L3293.25 174.258 L3297.53 174.258 L3297.53 178.286 Q3298.87 175.925 3301.03 174.791 Q3303.18 173.633 3306.26 173.633 Q3306.7 173.633 3307.23 173.703 Q3307.76 173.749 3308.41 173.865 L3308.43 178.24 Z" fill="#000000" fill-rule="nonzero" fill-opacity="1" /><path clip-path="url(#clip990)" d="M3312.9 174.258 L3317.16 174.258 L3317.16 200.184 L3312.9 200.184 L3312.9 174.258 M3312.9 164.166 L3317.16 164.166 L3317.16 169.559 L3312.9 169.559 L3312.9 164.166 Z" fill="#000000" fill-rule="nonzero" fill-opacity="1" /><path clip-path="url(#clip990)" d="M3343.13 186.92 Q3343.13 182.291 3341.21 179.744 Q3339.31 177.198 3335.86 177.198 Q3332.44 177.198 3330.52 179.744 Q3328.62 182.291 3328.62 186.92 Q3328.62 191.527 3330.52 194.073 Q3332.44 196.619 3335.86 196.619 Q3339.31 196.619 3341.21 194.073 Q3343.13 191.527 3343.13 186.92 M3347.39 196.966 Q3347.39 203.587 3344.45 206.804 Q3341.51 210.045 3335.45 210.045 Q3333.2 210.045 3331.21 209.698 Q3329.22 209.374 3327.35 208.679 L3327.35 204.536 Q3329.22 205.554 3331.05 206.04 Q3332.88 206.527 3334.78 206.527 Q3338.97 206.527 3341.05 204.327 Q3343.13 202.152 3343.13 197.73 L3343.13 195.624 Q3341.81 197.915 3339.75 199.05 Q3337.69 200.184 3334.82 200.184 Q3330.05 200.184 3327.14 196.55 Q3324.22 192.915 3324.22 186.92 Q3324.22 180.902 3327.14 177.267 Q3330.05 173.633 3334.82 173.633 Q3337.69 173.633 3339.75 174.767 Q3341.81 175.902 3343.13 178.193 L3343.13 174.258 L3347.39 174.258 L3347.39 196.966 Z" fill="#000000" fill-rule="nonzero" fill-opacity="1" /><path clip-path="url(#clip990)" d="M3356.17 174.258 L3360.42 174.258 L3360.42 200.184 L3356.17 200.184 L3356.17 174.258 M3356.17 164.166 L3360.42 164.166 L3360.42 169.559 L3356.17 169.559 L3356.17 164.166 Z" fill="#000000" fill-rule="nonzero" fill-opacity="1" /><path clip-path="url(#clip990)" d="M3390.89 184.536 L3390.89 200.184 L3386.63 200.184 L3386.63 184.675 Q3386.63 180.994 3385.19 179.166 Q3383.76 177.337 3380.89 177.337 Q3377.44 177.337 3375.45 179.536 Q3373.46 181.735 3373.46 185.531 L3373.46 200.184 L3369.17 200.184 L3369.17 174.258 L3373.46 174.258 L3373.46 178.286 Q3374.98 175.948 3377.04 174.791 Q3379.13 173.633 3381.84 173.633 Q3386.3 173.633 3388.6 176.411 Q3390.89 179.166 3390.89 184.536 Z" fill="#000000" fill-rule="nonzero" fill-opacity="1" /><path clip-path="url(#clip990)" d="M3411.17 187.152 Q3406 187.152 3404.01 188.332 Q3402.02 189.513 3402.02 192.36 Q3402.02 194.628 3403.5 195.971 Q3405.01 197.29 3407.58 197.29 Q3411.12 197.29 3413.25 194.79 Q3415.4 192.267 3415.4 188.101 L3415.4 187.152 L3411.17 187.152 M3419.66 185.392 L3419.66 200.184 L3415.4 200.184 L3415.4 196.249 Q3413.94 198.61 3411.77 199.744 Q3409.59 200.855 3406.44 200.855 Q3402.46 200.855 3400.1 198.633 Q3397.76 196.388 3397.76 192.638 Q3397.76 188.263 3400.68 186.041 Q3403.62 183.818 3409.43 183.818 L3415.4 183.818 L3415.4 183.402 Q3415.4 180.462 3413.46 178.865 Q3411.54 177.244 3408.04 177.244 Q3405.82 177.244 3403.71 177.777 Q3401.6 178.309 3399.66 179.374 L3399.66 175.439 Q3402 174.536 3404.2 174.096 Q3406.4 173.633 3408.48 173.633 Q3414.1 173.633 3416.88 176.55 Q3419.66 179.466 3419.66 185.392 Z" fill="#000000" fill-rule="nonzero" fill-opacity="1" /><path clip-path="url(#clip990)" d="M3428.43 164.166 L3432.69 164.166 L3432.69 200.184 L3428.43 200.184 L3428.43 164.166 Z" fill="#000000" fill-rule="nonzero" fill-opacity="1" /><path clip-path="url(#clip990)" d="M3473.73 178.193 L3473.73 164.166 L3477.99 164.166 L3477.99 200.184 L3473.73 200.184 L3473.73 196.295 Q3472.39 198.61 3470.33 199.744 Q3468.29 200.855 3465.42 200.855 Q3460.72 200.855 3457.76 197.105 Q3454.82 193.355 3454.82 187.244 Q3454.82 181.133 3457.76 177.383 Q3460.72 173.633 3465.42 173.633 Q3468.29 173.633 3470.33 174.767 Q3472.39 175.879 3473.73 178.193 M3459.22 187.244 Q3459.22 191.943 3461.14 194.628 Q3463.09 197.29 3466.47 197.29 Q3469.85 197.29 3471.79 194.628 Q3473.73 191.943 3473.73 187.244 Q3473.73 182.545 3471.79 179.883 Q3469.85 177.198 3466.47 177.198 Q3463.09 177.198 3461.14 179.883 Q3459.22 182.545 3459.22 187.244 Z" fill="#000000" fill-rule="nonzero" fill-opacity="1" /><path clip-path="url(#clip990)" d="M3498.55 187.152 Q3493.39 187.152 3491.4 188.332 Q3489.41 189.513 3489.41 192.36 Q3489.41 194.628 3490.89 195.971 Q3492.39 197.29 3494.96 197.29 Q3498.5 197.29 3500.63 194.79 Q3502.78 192.267 3502.78 188.101 L3502.78 187.152 L3498.55 187.152 M3507.04 185.392 L3507.04 200.184 L3502.78 200.184 L3502.78 196.249 Q3501.33 198.61 3499.15 199.744 Q3496.97 200.855 3493.83 200.855 Q3489.85 200.855 3487.48 198.633 Q3485.15 196.388 3485.15 192.638 Q3485.15 188.263 3488.06 186.041 Q3491 183.818 3496.81 183.818 L3502.78 183.818 L3502.78 183.402 Q3502.78 180.462 3500.84 178.865 Q3498.92 177.244 3495.42 177.244 Q3493.2 177.244 3491.1 177.777 Q3488.99 178.309 3487.04 179.374 L3487.04 175.439 Q3489.38 174.536 3491.58 174.096 Q3493.78 173.633 3495.86 173.633 Q3501.49 173.633 3504.27 176.55 Q3507.04 179.466 3507.04 185.392 Z" fill="#000000" fill-rule="nonzero" fill-opacity="1" /><path clip-path="url(#clip990)" d="M3520.03 166.897 L3520.03 174.258 L3528.8 174.258 L3528.8 177.568 L3520.03 177.568 L3520.03 191.642 Q3520.03 194.814 3520.89 195.716 Q3521.77 196.619 3524.43 196.619 L3528.8 196.619 L3528.8 200.184 L3524.43 200.184 Q3519.5 200.184 3517.62 198.355 Q3515.75 196.503 3515.75 191.642 L3515.75 177.568 L3512.62 177.568 L3512.62 174.258 L3515.75 174.258 L3515.75 166.897 L3520.03 166.897 Z" fill="#000000" fill-rule="nonzero" fill-opacity="1" /><path clip-path="url(#clip990)" d="M3546.19 187.152 Q3541.03 187.152 3539.03 188.332 Q3537.04 189.513 3537.04 192.36 Q3537.04 194.628 3538.53 195.971 Q3540.03 197.29 3542.6 197.29 Q3546.14 197.29 3548.27 194.79 Q3550.42 192.267 3550.42 188.101 L3550.42 187.152 L3546.19 187.152 M3554.68 185.392 L3554.68 200.184 L3550.42 200.184 L3550.42 196.249 Q3548.97 198.61 3546.79 199.744 Q3544.61 200.855 3541.47 200.855 Q3537.48 200.855 3535.12 198.633 Q3532.78 196.388 3532.78 192.638 Q3532.78 188.263 3535.7 186.041 Q3538.64 183.818 3544.45 183.818 L3550.42 183.818 L3550.42 183.402 Q3550.42 180.462 3548.48 178.865 Q3546.56 177.244 3543.06 177.244 Q3540.84 177.244 3538.73 177.777 Q3536.63 178.309 3534.68 179.374 L3534.68 175.439 Q3537.02 174.536 3539.22 174.096 Q3541.42 173.633 3543.5 173.633 Q3549.13 173.633 3551.91 176.55 Q3554.68 179.466 3554.68 185.392 Z" fill="#000000" fill-rule="nonzero" fill-opacity="1" /><polyline clip-path="url(#clip990)" style="stroke:#e26f46; stroke-linecap:round; stroke-linejoin:round; stroke-width:4; stroke-opacity:1; fill:none" points="2980.86,234.744 3222.31,234.744 "/>
<path clip-path="url(#clip990)" d="M3284.27 236.376 L3284.27 252.024 L3280.01 252.024 L3280.01 236.515 Q3280.01 232.834 3278.57 231.006 Q3277.14 229.177 3274.27 229.177 Q3270.82 229.177 3268.83 231.376 Q3266.84 233.575 3266.84 237.371 L3266.84 252.024 L3262.55 252.024 L3262.55 226.098 L3266.84 226.098 L3266.84 230.126 Q3268.36 227.788 3270.43 226.631 Q3272.51 225.473 3275.22 225.473 Q3279.68 225.473 3281.98 228.251 Q3284.27 231.006 3284.27 236.376 Z" fill="#000000" fill-rule="nonzero" fill-opacity="1" /><path clip-path="url(#clip990)" d="M3314.94 237.996 L3314.94 240.08 L3295.36 240.08 Q3295.63 244.478 3297.99 246.793 Q3300.38 249.084 3304.61 249.084 Q3307.07 249.084 3309.36 248.482 Q3311.67 247.88 3313.94 246.677 L3313.94 250.705 Q3311.65 251.677 3309.24 252.186 Q3306.84 252.695 3304.36 252.695 Q3298.16 252.695 3294.52 249.084 Q3290.91 245.473 3290.91 239.316 Q3290.91 232.95 3294.34 229.223 Q3297.79 225.473 3303.62 225.473 Q3308.85 225.473 3311.88 228.853 Q3314.94 232.209 3314.94 237.996 M3310.68 236.746 Q3310.63 233.251 3308.71 231.168 Q3306.81 229.084 3303.67 229.084 Q3300.1 229.084 3297.95 231.098 Q3295.82 233.112 3295.49 236.769 L3310.68 236.746 Z" fill="#000000" fill-rule="nonzero" fill-opacity="1" /><path clip-path="url(#clip990)" d="M3319.45 226.098 L3323.71 226.098 L3329.04 246.33 L3334.34 226.098 L3339.36 226.098 L3344.68 246.33 L3349.98 226.098 L3354.24 226.098 L3347.46 252.024 L3342.44 252.024 L3336.86 230.774 L3331.26 252.024 L3326.23 252.024 L3319.45 226.098 Z" fill="#000000" fill-rule="nonzero" fill-opacity="1" /><path clip-path="url(#clip990)" d="M3392.83 230.033 L3392.83 216.006 L3397.09 216.006 L3397.09 252.024 L3392.83 252.024 L3392.83 248.135 Q3391.49 250.45 3389.43 251.584 Q3387.39 252.695 3384.52 252.695 Q3379.82 252.695 3376.86 248.945 Q3373.92 245.195 3373.92 239.084 Q3373.92 232.973 3376.86 229.223 Q3379.82 225.473 3384.52 225.473 Q3387.39 225.473 3389.43 226.607 Q3391.49 227.719 3392.83 230.033 M3378.32 239.084 Q3378.32 243.783 3380.24 246.468 Q3382.18 249.13 3385.56 249.13 Q3388.94 249.13 3390.89 246.468 Q3392.83 243.783 3392.83 239.084 Q3392.83 234.385 3390.89 231.723 Q3388.94 229.038 3385.56 229.038 Q3382.18 229.038 3380.24 231.723 Q3378.32 234.385 3378.32 239.084 Z" fill="#000000" fill-rule="nonzero" fill-opacity="1" /><path clip-path="url(#clip990)" d="M3417.65 238.992 Q3412.48 238.992 3410.49 240.172 Q3408.5 241.353 3408.5 244.2 Q3408.5 246.468 3409.98 247.811 Q3411.49 249.13 3414.06 249.13 Q3417.6 249.13 3419.73 246.63 Q3421.88 244.107 3421.88 239.941 L3421.88 238.992 L3417.65 238.992 M3426.14 237.232 L3426.14 252.024 L3421.88 252.024 L3421.88 248.089 Q3420.42 250.45 3418.25 251.584 Q3416.07 252.695 3412.92 252.695 Q3408.94 252.695 3406.58 250.473 Q3404.24 248.228 3404.24 244.478 Q3404.24 240.103 3407.16 237.881 Q3410.1 235.658 3415.91 235.658 L3421.88 235.658 L3421.88 235.242 Q3421.88 232.302 3419.94 230.705 Q3418.02 229.084 3414.52 229.084 Q3412.3 229.084 3410.19 229.617 Q3408.09 230.149 3406.14 231.214 L3406.14 227.279 Q3408.48 226.376 3410.68 225.936 Q3412.88 225.473 3414.96 225.473 Q3420.59 225.473 3423.36 228.39 Q3426.14 231.306 3426.14 237.232 Z" fill="#000000" fill-rule="nonzero" fill-opacity="1" /><path clip-path="url(#clip990)" d="M3439.13 218.737 L3439.13 226.098 L3447.9 226.098 L3447.9 229.408 L3439.13 229.408 L3439.13 243.482 Q3439.13 246.654 3439.98 247.556 Q3440.86 248.459 3443.53 248.459 L3447.9 248.459 L3447.9 252.024 L3443.53 252.024 Q3438.6 252.024 3436.72 250.195 Q3434.85 248.343 3434.85 243.482 L3434.85 229.408 L3431.72 229.408 L3431.72 226.098 L3434.85 226.098 L3434.85 218.737 L3439.13 218.737 Z" fill="#000000" fill-rule="nonzero" fill-opacity="1" /><path clip-path="url(#clip990)" d="M3465.29 238.992 Q3460.12 238.992 3458.13 240.172 Q3456.14 241.353 3456.14 244.2 Q3456.14 246.468 3457.62 247.811 Q3459.13 249.13 3461.7 249.13 Q3465.24 249.13 3467.37 246.63 Q3469.52 244.107 3469.52 239.941 L3469.52 238.992 L3465.29 238.992 M3473.78 237.232 L3473.78 252.024 L3469.52 252.024 L3469.52 248.089 Q3468.06 250.45 3465.89 251.584 Q3463.71 252.695 3460.56 252.695 Q3456.58 252.695 3454.22 250.473 Q3451.88 248.228 3451.88 244.478 Q3451.88 240.103 3454.8 237.881 Q3457.74 235.658 3463.55 235.658 L3469.52 235.658 L3469.52 235.242 Q3469.52 232.302 3467.58 230.705 Q3465.66 229.084 3462.16 229.084 Q3459.94 229.084 3457.83 229.617 Q3455.73 230.149 3453.78 231.214 L3453.78 227.279 Q3456.12 226.376 3458.32 225.936 Q3460.52 225.473 3462.6 225.473 Q3468.22 225.473 3471 228.39 Q3473.78 231.306 3473.78 237.232 Z" fill="#000000" fill-rule="nonzero" fill-opacity="1" /><circle clip-path="url(#clip990)" cx="3101.59" cy="286.584" r="20.48" fill="#3da44d" fill-rule="evenodd" fill-opacity="1" stroke="#000000" stroke-opacity="1" stroke-width="7.64587"/>
<path clip-path="url(#clip990)" d="M3286.58 289.836 L3286.58 291.92 L3267 291.92 Q3267.28 296.318 3269.64 298.633 Q3272.02 300.924 3276.26 300.924 Q3278.71 300.924 3281 300.322 Q3283.32 299.72 3285.59 298.517 L3285.59 302.545 Q3283.3 303.517 3280.89 304.026 Q3278.48 304.535 3276 304.535 Q3269.8 304.535 3266.17 300.924 Q3262.55 297.313 3262.55 291.156 Q3262.55 284.79 3265.98 281.063 Q3269.43 277.313 3275.26 277.313 Q3280.49 277.313 3283.53 280.693 Q3286.58 284.049 3286.58 289.836 M3282.32 288.586 Q3282.28 285.091 3280.36 283.008 Q3278.46 280.924 3275.31 280.924 Q3271.74 280.924 3269.59 282.938 Q3267.46 284.952 3267.14 288.609 L3282.32 288.586 Z" fill="#000000" fill-rule="nonzero" fill-opacity="1" /><path clip-path="url(#clip990)" d="M3290.52 277.938 L3295.03 277.938 L3303.13 299.697 L3311.24 277.938 L3315.75 277.938 L3306.03 303.864 L3300.24 303.864 L3290.52 277.938 Z" fill="#000000" fill-rule="nonzero" fill-opacity="1" /><path clip-path="url(#clip990)" d="M3343.8 289.836 L3343.8 291.92 L3324.22 291.92 Q3324.5 296.318 3326.86 298.633 Q3329.24 300.924 3333.48 300.924 Q3335.93 300.924 3338.23 300.322 Q3340.54 299.72 3342.81 298.517 L3342.81 302.545 Q3340.52 303.517 3338.11 304.026 Q3335.7 304.535 3333.23 304.535 Q3327.02 304.535 3323.39 300.924 Q3319.78 297.313 3319.78 291.156 Q3319.78 284.79 3323.2 281.063 Q3326.65 277.313 3332.48 277.313 Q3337.72 277.313 3340.75 280.693 Q3343.8 284.049 3343.8 289.836 M3339.55 288.586 Q3339.5 285.091 3337.58 283.008 Q3335.68 280.924 3332.53 280.924 Q3328.97 280.924 3326.81 282.938 Q3324.68 284.952 3324.36 288.609 L3339.55 288.586 Z" fill="#000000" fill-rule="nonzero" fill-opacity="1" /><path clip-path="url(#clip990)" d="M3372.35 288.216 L3372.35 303.864 L3368.09 303.864 L3368.09 288.355 Q3368.09 284.674 3366.65 282.846 Q3365.22 281.017 3362.35 281.017 Q3358.9 281.017 3356.91 283.216 Q3354.92 285.415 3354.92 289.211 L3354.92 303.864 L3350.63 303.864 L3350.63 277.938 L3354.92 277.938 L3354.92 281.966 Q3356.44 279.628 3358.5 278.471 Q3360.59 277.313 3363.29 277.313 Q3367.76 277.313 3370.05 280.091 Q3372.35 282.846 3372.35 288.216 Z" fill="#000000" fill-rule="nonzero" fill-opacity="1" /><path clip-path="url(#clip990)" d="M3416.1 282.915 Q3417.69 280.045 3419.92 278.679 Q3422.14 277.313 3425.15 277.313 Q3429.2 277.313 3431.4 280.16 Q3433.6 282.984 3433.6 288.216 L3433.6 303.864 L3429.31 303.864 L3429.31 288.355 Q3429.31 284.628 3427.99 282.822 Q3426.67 281.017 3423.97 281.017 Q3420.66 281.017 3418.73 283.216 Q3416.81 285.415 3416.81 289.211 L3416.81 303.864 L3412.53 303.864 L3412.53 288.355 Q3412.53 284.605 3411.21 282.822 Q3409.89 281.017 3407.14 281.017 Q3403.87 281.017 3401.95 283.239 Q3400.03 285.438 3400.03 289.211 L3400.03 303.864 L3395.75 303.864 L3395.75 277.938 L3400.03 277.938 L3400.03 281.966 Q3401.49 279.582 3403.53 278.447 Q3405.56 277.313 3408.36 277.313 Q3411.19 277.313 3413.16 278.748 Q3415.15 280.184 3416.1 282.915 Z" fill="#000000" fill-rule="nonzero" fill-opacity="1" /><path clip-path="url(#clip990)" d="M3452.14 280.924 Q3448.71 280.924 3446.72 283.609 Q3444.73 286.271 3444.73 290.924 Q3444.73 295.577 3446.7 298.262 Q3448.69 300.924 3452.14 300.924 Q3455.54 300.924 3457.53 298.239 Q3459.52 295.554 3459.52 290.924 Q3459.52 286.318 3457.53 283.633 Q3455.54 280.924 3452.14 280.924 M3452.14 277.313 Q3457.69 277.313 3460.86 280.924 Q3464.04 284.535 3464.04 290.924 Q3464.04 297.29 3460.86 300.924 Q3457.69 304.535 3452.14 304.535 Q3446.56 304.535 3443.39 300.924 Q3440.24 297.29 3440.24 290.924 Q3440.24 284.535 3443.39 280.924 Q3446.56 277.313 3452.14 277.313 Z" fill="#000000" fill-rule="nonzero" fill-opacity="1" /><path clip-path="url(#clip990)" d="M3486.12 281.92 Q3485.4 281.503 3484.54 281.318 Q3483.71 281.109 3482.69 281.109 Q3479.08 281.109 3477.14 283.471 Q3475.22 285.808 3475.22 290.207 L3475.22 303.864 L3470.93 303.864 L3470.93 277.938 L3475.22 277.938 L3475.22 281.966 Q3476.56 279.605 3478.71 278.471 Q3480.86 277.313 3483.94 277.313 Q3484.38 277.313 3484.91 277.383 Q3485.45 277.429 3486.1 277.545 L3486.12 281.92 Z" fill="#000000" fill-rule="nonzero" fill-opacity="1" /><path clip-path="url(#clip990)" d="M3511.72 289.836 L3511.72 291.92 L3492.14 291.92 Q3492.41 296.318 3494.78 298.633 Q3497.16 300.924 3501.4 300.924 Q3503.85 300.924 3506.14 300.322 Q3508.46 299.72 3510.72 298.517 L3510.72 302.545 Q3508.43 303.517 3506.03 304.026 Q3503.62 304.535 3501.14 304.535 Q3494.94 304.535 3491.3 300.924 Q3487.69 297.313 3487.69 291.156 Q3487.69 284.79 3491.12 281.063 Q3494.57 277.313 3500.4 277.313 Q3505.63 277.313 3508.66 280.693 Q3511.72 284.049 3511.72 289.836 M3507.46 288.586 Q3507.41 285.091 3505.49 283.008 Q3503.6 280.924 3500.45 280.924 Q3496.88 280.924 3494.73 282.938 Q3492.6 284.952 3492.28 288.609 L3507.46 288.586 Z" fill="#000000" fill-rule="nonzero" fill-opacity="1" /><path clip-path="url(#clip990)" d="M3550.84 281.873 L3550.84 267.846 L3555.1 267.846 L3555.1 303.864 L3550.84 303.864 L3550.84 299.975 Q3549.5 302.29 3547.44 303.424 Q3545.4 304.535 3542.53 304.535 Q3537.83 304.535 3534.87 300.785 Q3531.93 297.035 3531.93 290.924 Q3531.93 284.813 3534.87 281.063 Q3537.83 277.313 3542.53 277.313 Q3545.4 277.313 3547.44 278.447 Q3549.5 279.559 3550.84 281.873 M3536.33 290.924 Q3536.33 295.623 3538.25 298.308 Q3540.19 300.97 3543.57 300.97 Q3546.95 300.97 3548.9 298.308 Q3550.84 295.623 3550.84 290.924 Q3550.84 286.225 3548.9 283.563 Q3546.95 280.878 3543.57 280.878 Q3540.19 280.878 3538.25 283.563 Q3536.33 286.225 3536.33 290.924 Z" fill="#000000" fill-rule="nonzero" fill-opacity="1" /><path clip-path="url(#clip990)" d="M3575.65 290.832 Q3570.49 290.832 3568.5 292.012 Q3566.51 293.193 3566.51 296.04 Q3566.51 298.308 3567.99 299.651 Q3569.5 300.97 3572.07 300.97 Q3575.61 300.97 3577.74 298.47 Q3579.89 295.947 3579.89 291.781 L3579.89 290.832 L3575.65 290.832 M3584.15 289.072 L3584.15 303.864 L3579.89 303.864 L3579.89 299.929 Q3578.43 302.29 3576.26 303.424 Q3574.08 304.535 3570.93 304.535 Q3566.95 304.535 3564.59 302.313 Q3562.25 300.068 3562.25 296.318 Q3562.25 291.943 3565.17 289.721 Q3568.11 287.498 3573.92 287.498 L3579.89 287.498 L3579.89 287.082 Q3579.89 284.142 3577.95 282.545 Q3576.03 280.924 3572.53 280.924 Q3570.31 280.924 3568.2 281.457 Q3566.09 281.989 3564.15 283.054 L3564.15 279.119 Q3566.49 278.216 3568.69 277.776 Q3570.89 277.313 3572.97 277.313 Q3578.59 277.313 3581.37 280.23 Q3584.15 283.146 3584.15 289.072 Z" fill="#000000" fill-rule="nonzero" fill-opacity="1" /><path clip-path="url(#clip990)" d="M3597.14 270.577 L3597.14 277.938 L3605.91 277.938 L3605.91 281.248 L3597.14 281.248 L3597.14 295.322 Q3597.14 298.494 3597.99 299.396 Q3598.87 300.299 3601.53 300.299 L3605.91 300.299 L3605.91 303.864 L3601.53 303.864 Q3596.6 303.864 3594.73 302.035 Q3592.85 300.183 3592.85 295.322 L3592.85 281.248 L3589.73 281.248 L3589.73 277.938 L3592.85 277.938 L3592.85 270.577 L3597.14 270.577 Z" fill="#000000" fill-rule="nonzero" fill-opacity="1" /><path clip-path="url(#clip990)" d="M3623.29 290.832 Q3618.13 290.832 3616.14 292.012 Q3614.15 293.193 3614.15 296.04 Q3614.15 298.308 3615.63 299.651 Q3617.14 300.97 3619.71 300.97 Q3623.25 300.97 3625.38 298.47 Q3627.53 295.947 3627.53 291.781 L3627.53 290.832 L3623.29 290.832 M3631.79 289.072 L3631.79 303.864 L3627.53 303.864 L3627.53 299.929 Q3626.07 302.29 3623.9 303.424 Q3621.72 304.535 3618.57 304.535 Q3614.59 304.535 3612.23 302.313 Q3609.89 300.068 3609.89 296.318 Q3609.89 291.943 3612.81 289.721 Q3615.75 287.498 3621.56 287.498 L3627.53 287.498 L3627.53 287.082 Q3627.53 284.142 3625.59 282.545 Q3623.66 280.924 3620.17 280.924 Q3617.95 280.924 3615.84 281.457 Q3613.73 281.989 3611.79 283.054 L3611.79 279.119 Q3614.13 278.216 3616.33 277.776 Q3618.53 277.313 3620.61 277.313 Q3626.23 277.313 3629.01 280.23 Q3631.79 283.146 3631.79 289.072 Z" fill="#000000" fill-rule="nonzero" fill-opacity="1" /></svg>
