<?xml version="1.0" encoding="utf-8"?>
<svg xmlns="http://www.w3.org/2000/svg" xmlns:xlink="http://www.w3.org/1999/xlink" width="960" height="672" viewBox="0 0 3840 2688">
<defs>
  <clipPath id="clip930">
    <rect x="0" y="0" width="3840" height="2688"/>
  </clipPath>
</defs>
<path clip-path="url(#clip930)" d="M0 2688 L3840 2688 L3840 -1.47793e-13 L0 -1.47793e-13  Z" fill="#ffffff" fill-rule="evenodd" fill-opacity="1"/>
<defs>
  <clipPath id="clip931">
    <rect x="768" y="0" width="2689" height="2688"/>
  </clipPath>
</defs>
<path clip-path="url(#clip930)" d="M170.998 2561.84 L3792.76 2561.84 L3792.76 47.2441 L170.998 47.2441  Z" fill="#ffffff" fill-rule="evenodd" fill-opacity="1"/>
<defs>
  <clipPath id="clip932">
    <rect x="170" y="47" width="3623" height="2516"/>
  </clipPath>
</defs>
<polyline clip-path="url(#clip932)" style="stroke:#000000; stroke-linecap:round; stroke-linejoin:round; stroke-width:2; stroke-opacity:0.1; fill:none" points="273.501,2561.84 273.501,47.2441 "/>
<polyline clip-path="url(#clip932)" style="stroke:#000000; stroke-linecap:round; stroke-linejoin:round; stroke-width:2; stroke-opacity:0.1; fill:none" points="1127.69,2561.84 1127.69,47.2441 "/>
<polyline clip-path="url(#clip932)" style="stroke:#000000; stroke-linecap:round; stroke-linejoin:round; stroke-width:2; stroke-opacity:0.1; fill:none" points="1981.88,2561.84 1981.88,47.2441 "/>
<polyline clip-path="url(#clip932)" style="stroke:#000000; stroke-linecap:round; stroke-linejoin:round; stroke-width:2; stroke-opacity:0.1; fill:none" points="2836.07,2561.84 2836.07,47.2441 "/>
<polyline clip-path="url(#clip932)" style="stroke:#000000; stroke-linecap:round; stroke-linejoin:round; stroke-width:2; stroke-opacity:0.1; fill:none" points="3690.25,2561.84 3690.25,47.2441 "/>
<polyline clip-path="url(#clip932)" style="stroke:#000000; stroke-linecap:round; stroke-linejoin:round; stroke-width:2; stroke-opacity:0.1; fill:none" points="170.998,2133.71 3792.76,2133.71 "/>
<polyline clip-path="url(#clip932)" style="stroke:#000000; stroke-linecap:round; stroke-linejoin:round; stroke-width:2; stroke-opacity:0.1; fill:none" points="170.998,1569.93 3792.76,1569.93 "/>
<polyline clip-path="url(#clip932)" style="stroke:#000000; stroke-linecap:round; stroke-linejoin:round; stroke-width:2; stroke-opacity:0.1; fill:none" points="170.998,1006.16 3792.76,1006.16 "/>
<polyline clip-path="url(#clip932)" style="stroke:#000000; stroke-linecap:round; stroke-linejoin:round; stroke-width:2; stroke-opacity:0.1; fill:none" points="170.998,442.382 3792.76,442.382 "/>
<polyline clip-path="url(#clip930)" style="stroke:#000000; stroke-linecap:round; stroke-linejoin:round; stroke-width:4; stroke-opacity:1; fill:none" points="170.998,2561.84 3792.76,2561.84 "/>
<polyline clip-path="url(#clip930)" style="stroke:#000000; stroke-linecap:round; stroke-linejoin:round; stroke-width:4; stroke-opacity:1; fill:none" points="273.501,2561.84 273.501,2542.94 "/>
<polyline clip-path="url(#clip930)" style="stroke:#000000; stroke-linecap:round; stroke-linejoin:round; stroke-width:4; stroke-opacity:1; fill:none" points="1127.69,2561.84 1127.69,2542.94 "/>
<polyline clip-path="url(#clip930)" style="stroke:#000000; stroke-linecap:round; stroke-linejoin:round; stroke-width:4; stroke-opacity:1; fill:none" points="1981.88,2561.84 1981.88,2542.94 "/>
<polyline clip-path="url(#clip930)" style="stroke:#000000; stroke-linecap:round; stroke-linejoin:round; stroke-width:4; stroke-opacity:1; fill:none" points="2836.07,2561.84 2836.07,2542.94 "/>
<polyline clip-path="url(#clip930)" style="stroke:#000000; stroke-linecap:round; stroke-linejoin:round; stroke-width:4; stroke-opacity:1; fill:none" points="3690.25,2561.84 3690.25,2542.94 "/>
<path clip-path="url(#clip930)" d="M263.883 2631.82 L271.522 2631.82 L271.522 2605.46 L263.212 2607.13 L263.212 2602.87 L271.475 2601.2 L276.151 2601.2 L276.151 2631.82 L283.79 2631.82 L283.79 2635.76 L263.883 2635.76 L263.883 2631.82 Z" fill="#000000" fill-rule="nonzero" fill-opacity="1" /><path clip-path="url(#clip930)" d="M1122.34 2631.82 L1138.66 2631.82 L1138.66 2635.76 L1116.72 2635.76 L1116.72 2631.82 Q1119.38 2629.07 1123.96 2624.44 Q1128.57 2619.79 1129.75 2618.45 Q1131.99 2615.92 1132.87 2614.19 Q1133.78 2612.43 1133.78 2610.74 Q1133.78 2607.98 1131.83 2606.25 Q1129.91 2604.51 1126.81 2604.51 Q1124.61 2604.51 1122.16 2605.27 Q1119.73 2606.04 1116.95 2607.59 L1116.95 2602.87 Q1119.77 2601.73 1122.23 2601.15 Q1124.68 2600.57 1126.72 2600.57 Q1132.09 2600.57 1135.28 2603.26 Q1138.48 2605.95 1138.48 2610.44 Q1138.48 2612.57 1137.67 2614.49 Q1136.88 2616.38 1134.77 2618.98 Q1134.19 2619.65 1131.09 2622.87 Q1127.99 2626.06 1122.34 2631.82 Z" fill="#000000" fill-rule="nonzero" fill-opacity="1" /><path clip-path="url(#clip930)" d="M1986.12 2617.13 Q1989.48 2617.84 1991.36 2620.11 Q1993.25 2622.38 1993.25 2625.71 Q1993.25 2630.83 1989.74 2633.63 Q1986.22 2636.43 1979.74 2636.43 Q1977.56 2636.43 1975.25 2635.99 Q1972.95 2635.57 1970.5 2634.72 L1970.5 2630.2 Q1972.44 2631.34 1974.76 2631.92 Q1977.07 2632.5 1979.6 2632.5 Q1984 2632.5 1986.29 2630.76 Q1988.6 2629.02 1988.6 2625.71 Q1988.6 2622.66 1986.45 2620.95 Q1984.32 2619.21 1980.5 2619.21 L1976.47 2619.21 L1976.47 2615.37 L1980.68 2615.37 Q1984.13 2615.37 1985.96 2614 Q1987.79 2612.61 1987.79 2610.02 Q1987.79 2607.36 1985.89 2605.95 Q1984.02 2604.51 1980.5 2604.51 Q1978.58 2604.51 1976.38 2604.93 Q1974.18 2605.34 1971.54 2606.22 L1971.54 2602.06 Q1974.2 2601.32 1976.52 2600.95 Q1978.86 2600.57 1980.92 2600.57 Q1986.24 2600.57 1989.34 2603.01 Q1992.44 2605.41 1992.44 2609.53 Q1992.44 2612.4 1990.8 2614.39 Q1989.16 2616.36 1986.12 2617.13 Z" fill="#000000" fill-rule="nonzero" fill-opacity="1" /><path clip-path="url(#clip930)" d="M2839.07 2605.27 L2827.27 2623.72 L2839.07 2623.72 L2839.07 2605.27 M2837.85 2601.2 L2843.73 2601.2 L2843.73 2623.72 L2848.66 2623.72 L2848.66 2627.61 L2843.73 2627.61 L2843.73 2635.76 L2839.07 2635.76 L2839.07 2627.61 L2823.47 2627.61 L2823.47 2623.1 L2837.85 2601.2 Z" fill="#000000" fill-rule="nonzero" fill-opacity="1" /><path clip-path="url(#clip930)" d="M3680.53 2601.2 L3698.89 2601.2 L3698.89 2605.14 L3684.81 2605.14 L3684.81 2613.61 Q3685.83 2613.26 3686.85 2613.1 Q3687.87 2612.91 3688.89 2612.91 Q3694.67 2612.91 3698.05 2616.08 Q3701.43 2619.26 3701.43 2624.67 Q3701.43 2630.25 3697.96 2633.35 Q3694.49 2636.43 3688.17 2636.43 Q3685.99 2636.43 3683.73 2636.06 Q3681.48 2635.69 3679.07 2634.95 L3679.07 2630.25 Q3681.16 2631.38 3683.38 2631.94 Q3685.6 2632.5 3688.08 2632.5 Q3692.08 2632.5 3694.42 2630.39 Q3696.76 2628.28 3696.76 2624.67 Q3696.76 2621.06 3694.42 2618.95 Q3692.08 2616.85 3688.08 2616.85 Q3686.2 2616.85 3684.33 2617.26 Q3682.48 2617.68 3680.53 2618.56 L3680.53 2601.2 Z" fill="#000000" fill-rule="nonzero" fill-opacity="1" /><polyline clip-path="url(#clip930)" style="stroke:#000000; stroke-linecap:round; stroke-linejoin:round; stroke-width:4; stroke-opacity:1; fill:none" points="170.998,2561.84 170.998,47.2441 "/>
<polyline clip-path="url(#clip930)" style="stroke:#000000; stroke-linecap:round; stroke-linejoin:round; stroke-width:4; stroke-opacity:1; fill:none" points="170.998,2133.71 189.896,2133.71 "/>
<polyline clip-path="url(#clip930)" style="stroke:#000000; stroke-linecap:round; stroke-linejoin:round; stroke-width:4; stroke-opacity:1; fill:none" points="170.998,1569.93 189.896,1569.93 "/>
<polyline clip-path="url(#clip930)" style="stroke:#000000; stroke-linecap:round; stroke-linejoin:round; stroke-width:4; stroke-opacity:1; fill:none" points="170.998,1006.16 189.896,1006.16 "/>
<polyline clip-path="url(#clip930)" style="stroke:#000000; stroke-linecap:round; stroke-linejoin:round; stroke-width:4; stroke-opacity:1; fill:none" points="170.998,442.382 189.896,442.382 "/>
<path clip-path="url(#clip930)" d="M57.8198 2119.51 Q54.2087 2119.51 52.38 2123.07 Q50.5745 2126.61 50.5745 2133.74 Q50.5745 2140.85 52.38 2144.41 Q54.2087 2147.96 57.8198 2147.96 Q61.4541 2147.96 63.2596 2144.41 Q65.0883 2140.85 65.0883 2133.74 Q65.0883 2126.61 63.2596 2123.07 Q61.4541 2119.51 57.8198 2119.51 M57.8198 2115.8 Q63.63 2115.8 66.6855 2120.41 Q69.7642 2124.99 69.7642 2133.74 Q69.7642 2142.47 66.6855 2147.08 Q63.63 2151.66 57.8198 2151.66 Q52.0097 2151.66 48.931 2147.08 Q45.8754 2142.47 45.8754 2133.74 Q45.8754 2124.99 48.931 2120.41 Q52.0097 2115.8 57.8198 2115.8 Z" fill="#000000" fill-rule="nonzero" fill-opacity="1" /><path clip-path="url(#clip930)" d="M77.9818 2145.11 L82.866 2145.11 L82.866 2150.99 L77.9818 2150.99 L77.9818 2145.11 Z" fill="#000000" fill-rule="nonzero" fill-opacity="1" /><path clip-path="url(#clip930)" d="M97.0789 2147.05 L113.398 2147.05 L113.398 2150.99 L91.4539 2150.99 L91.4539 2147.05 Q94.1159 2144.3 98.6992 2139.67 Q103.306 2135.02 104.486 2133.67 Q106.732 2131.15 107.611 2129.41 Q108.514 2127.65 108.514 2125.96 Q108.514 2123.21 106.57 2121.47 Q104.648 2119.74 101.546 2119.74 Q99.3474 2119.74 96.8937 2120.5 Q94.4632 2121.27 91.6854 2122.82 L91.6854 2118.09 Q94.5094 2116.96 96.9631 2116.38 Q99.4168 2115.8 101.454 2115.8 Q106.824 2115.8 110.019 2118.49 Q113.213 2121.17 113.213 2125.66 Q113.213 2127.79 112.403 2129.71 Q111.616 2131.61 109.509 2134.21 Q108.931 2134.88 105.829 2138.09 Q102.727 2141.29 97.0789 2147.05 Z" fill="#000000" fill-rule="nonzero" fill-opacity="1" /><path clip-path="url(#clip930)" d="M55.7365 1555.73 Q52.1254 1555.73 50.2967 1559.3 Q48.4912 1562.84 48.4912 1569.97 Q48.4912 1577.07 50.2967 1580.64 Q52.1254 1584.18 55.7365 1584.18 Q59.3707 1584.18 61.1763 1580.64 Q63.005 1577.07 63.005 1569.97 Q63.005 1562.84 61.1763 1559.3 Q59.3707 1555.73 55.7365 1555.73 M55.7365 1552.03 Q61.5467 1552.03 64.6022 1556.63 Q67.6809 1561.22 67.6809 1569.97 Q67.6809 1578.69 64.6022 1583.3 Q61.5467 1587.88 55.7365 1587.88 Q49.9264 1587.88 46.8477 1583.3 Q43.7921 1578.69 43.7921 1569.97 Q43.7921 1561.22 46.8477 1556.63 Q49.9264 1552.03 55.7365 1552.03 Z" fill="#000000" fill-rule="nonzero" fill-opacity="1" /><path clip-path="url(#clip930)" d="M75.8984 1581.33 L80.7827 1581.33 L80.7827 1587.21 L75.8984 1587.21 L75.8984 1581.33 Z" fill="#000000" fill-rule="nonzero" fill-opacity="1" /><path clip-path="url(#clip930)" d="M103.815 1556.73 L92.0095 1575.18 L103.815 1575.18 L103.815 1556.73 M102.588 1552.65 L108.468 1552.65 L108.468 1575.18 L113.398 1575.18 L113.398 1579.06 L108.468 1579.06 L108.468 1587.21 L103.815 1587.21 L103.815 1579.06 L88.2132 1579.06 L88.2132 1574.55 L102.588 1552.65 Z" fill="#000000" fill-rule="nonzero" fill-opacity="1" /><path clip-path="url(#clip930)" d="M56.0606 991.956 Q52.4495 991.956 50.6208 995.521 Q48.8152 999.063 48.8152 1006.19 Q48.8152 1013.3 50.6208 1016.86 Q52.4495 1020.41 56.0606 1020.41 Q59.6948 1020.41 61.5004 1016.86 Q63.3291 1013.3 63.3291 1006.19 Q63.3291 999.063 61.5004 995.521 Q59.6948 991.956 56.0606 991.956 M56.0606 988.252 Q61.8707 988.252 64.9263 992.859 Q68.005 997.442 68.005 1006.19 Q68.005 1014.92 64.9263 1019.53 Q61.8707 1024.11 56.0606 1024.11 Q50.2504 1024.11 47.1717 1019.53 Q44.1162 1014.92 44.1162 1006.19 Q44.1162 997.442 47.1717 992.859 Q50.2504 988.252 56.0606 988.252 Z" fill="#000000" fill-rule="nonzero" fill-opacity="1" /><path clip-path="url(#clip930)" d="M76.2225 1017.56 L81.1067 1017.56 L81.1067 1023.44 L76.2225 1023.44 L76.2225 1017.56 Z" fill="#000000" fill-rule="nonzero" fill-opacity="1" /><path clip-path="url(#clip930)" d="M101.871 1004.29 Q98.7224 1004.29 96.8705 1006.45 Q95.0419 1008.6 95.0419 1012.35 Q95.0419 1016.08 96.8705 1018.25 Q98.7224 1020.41 101.871 1020.41 Q105.019 1020.41 106.847 1018.25 Q108.699 1016.08 108.699 1012.35 Q108.699 1008.6 106.847 1006.45 Q105.019 1004.29 101.871 1004.29 M111.153 989.641 L111.153 993.901 Q109.394 993.067 107.588 992.627 Q105.806 992.188 104.046 992.188 Q99.4168 992.188 96.9631 995.313 Q94.5326 998.438 94.1854 1004.76 Q95.5511 1002.74 97.6113 1001.68 Q99.6715 1000.59 102.148 1000.59 Q107.357 1000.59 110.366 1003.76 Q113.398 1006.91 113.398 1012.35 Q113.398 1017.67 110.25 1020.89 Q107.102 1024.11 101.871 1024.11 Q95.8752 1024.11 92.7039 1019.53 Q89.5326 1014.92 89.5326 1006.19 Q89.5326 997.998 93.4215 993.137 Q97.3104 988.252 103.861 988.252 Q105.62 988.252 107.403 988.6 Q109.208 988.947 111.153 989.641 Z" fill="#000000" fill-rule="nonzero" fill-opacity="1" /><path clip-path="url(#clip930)" d="M56.3152 428.181 Q52.7041 428.181 50.8754 431.746 Q49.0699 435.288 49.0699 442.417 Q49.0699 449.524 50.8754 453.088 Q52.7041 456.63 56.3152 456.63 Q59.9494 456.63 61.755 453.088 Q63.5837 449.524 63.5837 442.417 Q63.5837 435.288 61.755 431.746 Q59.9494 428.181 56.3152 428.181 M56.3152 424.477 Q62.1254 424.477 65.1809 429.084 Q68.2596 433.667 68.2596 442.417 Q68.2596 451.144 65.1809 455.75 Q62.1254 460.334 56.3152 460.334 Q50.5051 460.334 47.4264 455.75 Q44.3708 451.144 44.3708 442.417 Q44.3708 433.667 47.4264 429.084 Q50.5051 424.477 56.3152 424.477 Z" fill="#000000" fill-rule="nonzero" fill-opacity="1" /><path clip-path="url(#clip930)" d="M76.4771 453.783 L81.3614 453.783 L81.3614 459.662 L76.4771 459.662 L76.4771 453.783 Z" fill="#000000" fill-rule="nonzero" fill-opacity="1" /><path clip-path="url(#clip930)" d="M101.546 443.25 Q98.2131 443.25 96.2918 445.033 Q94.3937 446.815 94.3937 449.94 Q94.3937 453.065 96.2918 454.848 Q98.2131 456.63 101.546 456.63 Q104.88 456.63 106.801 454.848 Q108.722 453.042 108.722 449.94 Q108.722 446.815 106.801 445.033 Q104.903 443.25 101.546 443.25 M96.8705 441.26 Q93.8613 440.519 92.1715 438.459 Q90.5048 436.399 90.5048 433.436 Q90.5048 429.292 93.4446 426.885 Q96.4076 424.477 101.546 424.477 Q106.708 424.477 109.648 426.885 Q112.588 429.292 112.588 433.436 Q112.588 436.399 110.898 438.459 Q109.232 440.519 106.245 441.26 Q109.625 442.047 111.5 444.338 Q113.398 446.63 113.398 449.94 Q113.398 454.963 110.32 457.649 Q107.264 460.334 101.546 460.334 Q95.8289 460.334 92.7502 457.649 Q89.6947 454.963 89.6947 449.94 Q89.6947 446.63 91.5928 444.338 Q93.4909 442.047 96.8705 441.26 M95.1576 433.876 Q95.1576 436.561 96.8242 438.065 Q98.5141 439.57 101.546 439.57 Q104.556 439.57 106.245 438.065 Q107.958 436.561 107.958 433.876 Q107.958 431.19 106.245 429.686 Q104.556 428.181 101.546 428.181 Q98.5141 428.181 96.8242 429.686 Q95.1576 431.19 95.1576 433.876 Z" fill="#000000" fill-rule="nonzero" fill-opacity="1" /><polyline clip-path="url(#clip932)" style="stroke:#009af9; stroke-linecap:round; stroke-linejoin:round; stroke-width:4; stroke-opacity:1; fill:none" points="273.501,2490.67 1127.69,1713.01 1981.88,727.577 2836.07,926.483 3690.25,118.412 "/>
<path clip-path="url(#clip930)" d="M3017.73 234.744 L3672.03 234.744 L3672.03 131.064 L3017.73 131.064  Z" fill="#ffffff" fill-rule="evenodd" fill-opacity="1"/>
<polyline clip-path="url(#clip930)" style="stroke:#000000; stroke-linecap:round; stroke-linejoin:round; stroke-width:4; stroke-opacity:1; fill:none" points="3017.73,234.744 3672.03,234.744 3672.03,131.064 3017.73,131.064 3017.73,234.744 "/>
<polyline clip-path="url(#clip930)" style="stroke:#009af9; stroke-linecap:round; stroke-linejoin:round; stroke-width:4; stroke-opacity:1; fill:none" points="3057.97,182.904 3299.42,182.904 "/>
<path clip-path="url(#clip930)" d="M3351.56 177.244 Q3348.13 177.244 3346.14 179.929 Q3344.15 182.591 3344.15 187.244 Q3344.15 191.897 3346.12 194.582 Q3348.11 197.244 3351.56 197.244 Q3354.96 197.244 3356.95 194.559 Q3358.94 191.874 3358.94 187.244 Q3358.94 182.638 3356.95 179.953 Q3354.96 177.244 3351.56 177.244 M3351.56 173.633 Q3357.11 173.633 3360.29 177.244 Q3363.46 180.855 3363.46 187.244 Q3363.46 193.61 3360.29 197.244 Q3357.11 200.855 3351.56 200.855 Q3345.98 200.855 3342.81 197.244 Q3339.66 193.61 3339.66 187.244 Q3339.66 180.855 3342.81 177.244 Q3345.98 173.633 3351.56 173.633 Z" fill="#000000" fill-rule="nonzero" fill-opacity="1" /><path clip-path="url(#clip930)" d="M3385.54 178.24 Q3384.82 177.823 3383.97 177.638 Q3383.13 177.429 3382.11 177.429 Q3378.5 177.429 3376.56 179.791 Q3374.64 182.128 3374.64 186.527 L3374.64 200.184 L3370.36 200.184 L3370.36 174.258 L3374.64 174.258 L3374.64 178.286 Q3375.98 175.925 3378.13 174.791 Q3380.29 173.633 3383.36 173.633 Q3383.8 173.633 3384.34 173.703 Q3384.87 173.749 3385.52 173.865 L3385.54 178.24 Z" fill="#000000" fill-rule="nonzero" fill-opacity="1" /><path clip-path="url(#clip930)" d="M3390.01 174.258 L3394.27 174.258 L3394.27 200.184 L3390.01 200.184 L3390.01 174.258 M3390.01 164.166 L3394.27 164.166 L3394.27 169.559 L3390.01 169.559 L3390.01 164.166 Z" fill="#000000" fill-rule="nonzero" fill-opacity="1" /><path clip-path="url(#clip930)" d="M3420.24 186.92 Q3420.24 182.291 3418.32 179.744 Q3416.42 177.198 3412.97 177.198 Q3409.54 177.198 3407.62 179.744 Q3405.73 182.291 3405.73 186.92 Q3405.73 191.527 3407.62 194.073 Q3409.54 196.619 3412.97 196.619 Q3416.42 196.619 3418.32 194.073 Q3420.24 191.527 3420.24 186.92 M3424.5 196.966 Q3424.5 203.587 3421.56 206.804 Q3418.62 210.045 3412.55 210.045 Q3410.31 210.045 3408.32 209.698 Q3406.33 209.374 3404.45 208.679 L3404.45 204.536 Q3406.33 205.554 3408.16 206.04 Q3409.98 206.527 3411.88 206.527 Q3416.07 206.527 3418.16 204.327 Q3420.24 202.152 3420.24 197.73 L3420.24 195.624 Q3418.92 197.915 3416.86 199.05 Q3414.8 200.184 3411.93 200.184 Q3407.16 200.184 3404.24 196.55 Q3401.33 192.915 3401.33 186.92 Q3401.33 180.902 3404.24 177.267 Q3407.16 173.633 3411.93 173.633 Q3414.8 173.633 3416.86 174.767 Q3418.92 175.902 3420.24 178.193 L3420.24 174.258 L3424.5 174.258 L3424.5 196.966 Z" fill="#000000" fill-rule="nonzero" fill-opacity="1" /><path clip-path="url(#clip930)" d="M3433.27 174.258 L3437.53 174.258 L3437.53 200.184 L3433.27 200.184 L3433.27 174.258 M3433.27 164.166 L3437.53 164.166 L3437.53 169.559 L3433.27 169.559 L3433.27 164.166 Z" fill="#000000" fill-rule="nonzero" fill-opacity="1" /><path clip-path="url(#clip930)" d="M3467.99 184.536 L3467.99 200.184 L3463.73 200.184 L3463.73 184.675 Q3463.73 180.994 3462.3 179.166 Q3460.86 177.337 3457.99 177.337 Q3454.54 177.337 3452.55 179.536 Q3450.56 181.735 3450.56 185.531 L3450.56 200.184 L3446.28 200.184 L3446.28 174.258 L3450.56 174.258 L3450.56 178.286 Q3452.09 175.948 3454.15 174.791 Q3456.23 173.633 3458.94 173.633 Q3463.41 173.633 3465.7 176.411 Q3467.99 179.166 3467.99 184.536 Z" fill="#000000" fill-rule="nonzero" fill-opacity="1" /><path clip-path="url(#clip930)" d="M3488.27 187.152 Q3483.11 187.152 3481.12 188.332 Q3479.13 189.513 3479.13 192.36 Q3479.13 194.628 3480.61 195.971 Q3482.11 197.29 3484.68 197.29 Q3488.22 197.29 3490.35 194.79 Q3492.51 192.267 3492.51 188.101 L3492.51 187.152 L3488.27 187.152 M3496.77 185.392 L3496.77 200.184 L3492.51 200.184 L3492.51 196.249 Q3491.05 198.61 3488.87 199.744 Q3486.7 200.855 3483.55 200.855 Q3479.57 200.855 3477.21 198.633 Q3474.87 196.388 3474.87 192.638 Q3474.87 188.263 3477.79 186.041 Q3480.72 183.818 3486.54 183.818 L3492.51 183.818 L3492.51 183.402 Q3492.51 180.462 3490.56 178.865 Q3488.64 177.244 3485.15 177.244 Q3482.92 177.244 3480.82 177.777 Q3478.71 178.309 3476.77 179.374 L3476.77 175.439 Q3479.1 174.536 3481.3 174.096 Q3483.5 173.633 3485.59 173.633 Q3491.21 173.633 3493.99 176.55 Q3496.77 179.466 3496.77 185.392 Z" fill="#000000" fill-rule="nonzero" fill-opacity="1" /><path clip-path="url(#clip930)" d="M3505.54 164.166 L3509.8 164.166 L3509.8 200.184 L3505.54 200.184 L3505.54 164.166 Z" fill="#000000" fill-rule="nonzero" fill-opacity="1" /><path clip-path="url(#clip930)" d="M3550.84 178.193 L3550.84 164.166 L3555.1 164.166 L3555.1 200.184 L3550.84 200.184 L3550.84 196.295 Q3549.5 198.61 3547.44 199.744 Q3545.4 200.855 3542.53 200.855 Q3537.83 200.855 3534.87 197.105 Q3531.93 193.355 3531.93 187.244 Q3531.93 181.133 3534.87 177.383 Q3537.83 173.633 3542.53 173.633 Q3545.4 173.633 3547.44 174.767 Q3549.5 175.879 3550.84 178.193 M3536.33 187.244 Q3536.33 191.943 3538.25 194.628 Q3540.19 197.29 3543.57 197.29 Q3546.95 197.29 3548.9 194.628 Q3550.84 191.943 3550.84 187.244 Q3550.84 182.545 3548.9 179.883 Q3546.95 177.198 3543.57 177.198 Q3540.19 177.198 3538.25 179.883 Q3536.33 182.545 3536.33 187.244 Z" fill="#000000" fill-rule="nonzero" fill-opacity="1" /><path clip-path="url(#clip930)" d="M3575.65 187.152 Q3570.49 187.152 3568.5 188.332 Q3566.51 189.513 3566.51 192.36 Q3566.51 194.628 3567.99 195.971 Q3569.5 197.29 3572.07 197.29 Q3575.61 197.29 3577.74 194.79 Q3579.89 192.267 3579.89 188.101 L3579.89 187.152 L3575.65 187.152 M3584.15 185.392 L3584.15 200.184 L3579.89 200.184 L3579.89 196.249 Q3578.43 198.61 3576.26 199.744 Q3574.08 200.855 3570.93 200.855 Q3566.95 200.855 3564.59 198.633 Q3562.25 196.388 3562.25 192.638 Q3562.25 188.263 3565.17 186.041 Q3568.11 183.818 3573.92 183.818 L3579.89 183.818 L3579.89 183.402 Q3579.89 180.462 3577.95 178.865 Q3576.03 177.244 3572.53 177.244 Q3570.31 177.244 3568.2 177.777 Q3566.09 178.309 3564.15 179.374 L3564.15 175.439 Q3566.49 174.536 3568.69 174.096 Q3570.89 173.633 3572.97 173.633 Q3578.59 173.633 3581.37 176.55 Q3584.15 179.466 3584.15 185.392 Z" fill="#000000" fill-rule="nonzero" fill-opacity="1" /><path clip-path="url(#clip930)" d="M3597.14 166.897 L3597.14 174.258 L3605.91 174.258 L3605.91 177.568 L3597.14 177.568 L3597.14 191.642 Q3597.14 194.814 3597.99 195.716 Q3598.87 196.619 3601.53 196.619 L3605.91 196.619 L3605.91 200.184 L3601.53 200.184 Q3596.6 200.184 3594.73 198.355 Q3592.85 196.503 3592.85 191.642 L3592.85 177.568 L3589.73 177.568 L3589.73 174.258 L3592.85 174.258 L3592.85 166.897 L3597.14 166.897 Z" fill="#000000" fill-rule="nonzero" fill-opacity="1" /><path clip-path="url(#clip930)" d="M3623.29 187.152 Q3618.13 187.152 3616.14 188.332 Q3614.15 189.513 3614.15 192.36 Q3614.15 194.628 3615.63 195.971 Q3617.14 197.29 3619.71 197.29 Q3623.25 197.29 3625.38 194.79 Q3627.53 192.267 3627.53 188.101 L3627.53 187.152 L3623.29 187.152 M3631.79 185.392 L3631.79 200.184 L3627.53 200.184 L3627.53 196.249 Q3626.07 198.61 3623.9 199.744 Q3621.72 200.855 3618.57 200.855 Q3614.59 200.855 3612.23 198.633 Q3609.89 196.388 3609.89 192.638 Q3609.89 188.263 3612.81 186.041 Q3615.75 183.818 3621.56 183.818 L3627.53 183.818 L3627.53 183.402 Q3627.53 180.462 3625.59 178.865 Q3623.66 177.244 3620.17 177.244 Q3617.95 177.244 3615.84 177.777 Q3613.73 178.309 3611.79 179.374 L3611.79 175.439 Q3614.13 174.536 3616.33 174.096 Q3618.53 173.633 3620.61 173.633 Q3626.23 173.633 3629.01 176.55 Q3631.79 179.466 3631.79 185.392 Z" fill="#000000" fill-rule="nonzero" fill-opacity="1" /></svg>
