<?xml version="1.0" encoding="utf-8"?>
<svg xmlns="http://www.w3.org/2000/svg" xmlns:xlink="http://www.w3.org/1999/xlink" width="960" height="672" viewBox="0 0 3840 2688">
<defs>
  <clipPath id="clip470">
    <rect x="0" y="0" width="3840" height="2688"/>
  </clipPath>
</defs>
<path clip-path="url(#clip470)" d="M0 2688 L3840 2688 L3840 -1.47793e-13 L0 -1.47793e-13  Z" fill="#ffffff" fill-rule="evenodd" fill-opacity="1"/>
<defs>
  <clipPath id="clip471">
    <rect x="768" y="0" width="2689" height="2688"/>
  </clipPath>
</defs>
<path clip-path="url(#clip470)" d="M170.998 2561.84 L3792.76 2561.84 L3792.76 47.2441 L170.998 47.2441  Z" fill="#ffffff" fill-rule="evenodd" fill-opacity="1"/>
<defs>
  <clipPath id="clip472">
    <rect x="170" y="47" width="3623" height="2516"/>
  </clipPath>
</defs>
<polyline clip-path="url(#clip472)" style="stroke:#000000; stroke-linecap:round; stroke-linejoin:round; stroke-width:2; stroke-opacity:0.1; fill:none" points="273.501,2561.84 273.501,47.2441 "/>
<polyline clip-path="url(#clip472)" style="stroke:#000000; stroke-linecap:round; stroke-linejoin:round; stroke-width:2; stroke-opacity:0.1; fill:none" points="842.96,2561.84 842.96,47.2441 "/>
<polyline clip-path="url(#clip472)" style="stroke:#000000; stroke-linecap:round; stroke-linejoin:round; stroke-width:2; stroke-opacity:0.1; fill:none" points="1412.42,2561.84 1412.42,47.2441 "/>
<polyline clip-path="url(#clip472)" style="stroke:#000000; stroke-linecap:round; stroke-linejoin:round; stroke-width:2; stroke-opacity:0.1; fill:none" points="1981.88,2561.84 1981.88,47.2441 "/>
<polyline clip-path="url(#clip472)" style="stroke:#000000; stroke-linecap:round; stroke-linejoin:round; stroke-width:2; stroke-opacity:0.1; fill:none" points="2551.34,2561.84 2551.34,47.2441 "/>
<polyline clip-path="url(#clip472)" style="stroke:#000000; stroke-linecap:round; stroke-linejoin:round; stroke-width:2; stroke-opacity:0.1; fill:none" points="3120.79,2561.84 3120.79,47.2441 "/>
<polyline clip-path="url(#clip472)" style="stroke:#000000; stroke-linecap:round; stroke-linejoin:round; stroke-width:2; stroke-opacity:0.1; fill:none" points="3690.25,2561.84 3690.25,47.2441 "/>
<polyline clip-path="url(#clip472)" style="stroke:#000000; stroke-linecap:round; stroke-linejoin:round; stroke-width:2; stroke-opacity:0.1; fill:none" points="170.998,2490.67 3792.76,2490.67 "/>
<polyline clip-path="url(#clip472)" style="stroke:#000000; stroke-linecap:round; stroke-linejoin:round; stroke-width:2; stroke-opacity:0.1; fill:none" points="170.998,1896.03 3792.76,1896.03 "/>
<polyline clip-path="url(#clip472)" style="stroke:#000000; stroke-linecap:round; stroke-linejoin:round; stroke-width:2; stroke-opacity:0.1; fill:none" points="170.998,1301.4 3792.76,1301.4 "/>
<polyline clip-path="url(#clip472)" style="stroke:#000000; stroke-linecap:round; stroke-linejoin:round; stroke-width:2; stroke-opacity:0.1; fill:none" points="170.998,706.76 3792.76,706.76 "/>
<polyline clip-path="url(#clip472)" style="stroke:#000000; stroke-linecap:round; stroke-linejoin:round; stroke-width:2; stroke-opacity:0.1; fill:none" points="170.998,112.122 3792.76,112.122 "/>
<polyline clip-path="url(#clip470)" style="stroke:#000000; stroke-linecap:round; stroke-linejoin:round; stroke-width:4; stroke-opacity:1; fill:none" points="170.998,2561.84 3792.76,2561.84 "/>
<polyline clip-path="url(#clip470)" style="stroke:#000000; stroke-linecap:round; stroke-linejoin:round; stroke-width:4; stroke-opacity:1; fill:none" points="273.501,2561.84 273.501,2542.94 "/>
<polyline clip-path="url(#clip470)" style="stroke:#000000; stroke-linecap:round; stroke-linejoin:round; stroke-width:4; stroke-opacity:1; fill:none" points="842.96,2561.84 842.96,2542.94 "/>
<polyline clip-path="url(#clip470)" style="stroke:#000000; stroke-linecap:round; stroke-linejoin:round; stroke-width:4; stroke-opacity:1; fill:none" points="1412.42,2561.84 1412.42,2542.94 "/>
<polyline clip-path="url(#clip470)" style="stroke:#000000; stroke-linecap:round; stroke-linejoin:round; stroke-width:4; stroke-opacity:1; fill:none" points="1981.88,2561.84 1981.88,2542.94 "/>
<polyline clip-path="url(#clip470)" style="stroke:#000000; stroke-linecap:round; stroke-linejoin:round; stroke-width:4; stroke-opacity:1; fill:none" points="2551.34,2561.84 2551.34,2542.94 "/>
<polyline clip-path="url(#clip470)" style="stroke:#000000; stroke-linecap:round; stroke-linejoin:round; stroke-width:4; stroke-opacity:1; fill:none" points="3120.79,2561.84 3120.79,2542.94 "/>
<polyline clip-path="url(#clip470)" style="stroke:#000000; stroke-linecap:round; stroke-linejoin:round; stroke-width:4; stroke-opacity:1; fill:none" points="3690.25,2561.84 3690.25,2542.94 "/>
<path clip-path="url(#clip470)" d="M242.969 2618.93 L272.644 2618.93 L272.644 2622.87 L242.969 2622.87 L242.969 2618.93 Z" fill="#000000" fill-rule="nonzero" fill-opacity="1" /><path clip-path="url(#clip470)" d="M296.903 2617.13 Q300.26 2617.84 302.135 2620.11 Q304.033 2622.38 304.033 2625.71 Q304.033 2630.83 300.515 2633.63 Q296.996 2636.43 290.515 2636.43 Q288.339 2636.43 286.024 2635.99 Q283.732 2635.57 281.279 2634.72 L281.279 2630.2 Q283.223 2631.34 285.538 2631.92 Q287.853 2632.5 290.376 2632.5 Q294.774 2632.5 297.065 2630.76 Q299.38 2629.02 299.38 2625.71 Q299.38 2622.66 297.228 2620.95 Q295.098 2619.21 291.278 2619.21 L287.251 2619.21 L287.251 2615.37 L291.464 2615.37 Q294.913 2615.37 296.741 2614 Q298.57 2612.61 298.57 2610.02 Q298.57 2607.36 296.672 2605.95 Q294.797 2604.51 291.278 2604.51 Q289.357 2604.51 287.158 2604.93 Q284.959 2605.34 282.32 2606.22 L282.32 2602.06 Q284.982 2601.32 287.297 2600.95 Q289.635 2600.57 291.695 2600.57 Q297.019 2600.57 300.121 2603.01 Q303.223 2605.41 303.223 2609.53 Q303.223 2612.4 301.579 2614.39 Q299.936 2616.36 296.903 2617.13 Z" fill="#000000" fill-rule="nonzero" fill-opacity="1" /><path clip-path="url(#clip470)" d="M812.902 2618.93 L842.578 2618.93 L842.578 2622.87 L812.902 2622.87 L812.902 2618.93 Z" fill="#000000" fill-rule="nonzero" fill-opacity="1" /><path clip-path="url(#clip470)" d="M856.698 2631.82 L873.017 2631.82 L873.017 2635.76 L851.073 2635.76 L851.073 2631.82 Q853.735 2629.07 858.318 2624.44 Q862.925 2619.79 864.105 2618.45 Q866.351 2615.92 867.23 2614.19 Q868.133 2612.43 868.133 2610.74 Q868.133 2607.98 866.189 2606.25 Q864.267 2604.51 861.165 2604.51 Q858.966 2604.51 856.513 2605.27 Q854.082 2606.04 851.304 2607.59 L851.304 2602.87 Q854.128 2601.73 856.582 2601.15 Q859.036 2600.57 861.073 2600.57 Q866.443 2600.57 869.638 2603.26 Q872.832 2605.95 872.832 2610.44 Q872.832 2612.57 872.022 2614.49 Q871.235 2616.38 869.128 2618.98 Q868.55 2619.65 865.448 2622.87 Q862.346 2626.06 856.698 2631.82 Z" fill="#000000" fill-rule="nonzero" fill-opacity="1" /><path clip-path="url(#clip470)" d="M1382.18 2618.93 L1411.85 2618.93 L1411.85 2622.87 L1382.18 2622.87 L1382.18 2618.93 Z" fill="#000000" fill-rule="nonzero" fill-opacity="1" /><path clip-path="url(#clip470)" d="M1422.75 2631.82 L1430.39 2631.82 L1430.39 2605.46 L1422.08 2607.13 L1422.08 2602.87 L1430.35 2601.2 L1435.02 2601.2 L1435.02 2631.82 L1442.66 2631.82 L1442.66 2635.76 L1422.75 2635.76 L1422.75 2631.82 Z" fill="#000000" fill-rule="nonzero" fill-opacity="1" /><path clip-path="url(#clip470)" d="M1981.88 2604.28 Q1978.27 2604.28 1976.44 2607.84 Q1974.63 2611.39 1974.63 2618.51 Q1974.63 2625.62 1976.44 2629.19 Q1978.27 2632.73 1981.88 2632.73 Q1985.51 2632.73 1987.32 2629.19 Q1989.15 2625.62 1989.15 2618.51 Q1989.15 2611.39 1987.32 2607.84 Q1985.51 2604.28 1981.88 2604.28 M1981.88 2600.57 Q1987.69 2600.57 1990.74 2605.18 Q1993.82 2609.76 1993.82 2618.51 Q1993.82 2627.24 1990.74 2631.85 Q1987.69 2636.43 1981.88 2636.43 Q1976.07 2636.43 1972.99 2631.85 Q1969.93 2627.24 1969.93 2618.51 Q1969.93 2609.76 1972.99 2605.18 Q1976.07 2600.57 1981.88 2600.57 Z" fill="#000000" fill-rule="nonzero" fill-opacity="1" /><path clip-path="url(#clip470)" d="M2541.72 2631.82 L2549.36 2631.82 L2549.36 2605.46 L2541.05 2607.13 L2541.05 2602.87 L2549.31 2601.2 L2553.99 2601.2 L2553.99 2631.82 L2561.63 2631.82 L2561.63 2635.76 L2541.72 2635.76 L2541.72 2631.82 Z" fill="#000000" fill-rule="nonzero" fill-opacity="1" /><path clip-path="url(#clip470)" d="M3115.45 2631.82 L3131.77 2631.82 L3131.77 2635.76 L3109.82 2635.76 L3109.82 2631.82 Q3112.48 2629.07 3117.07 2624.44 Q3121.67 2619.79 3122.85 2618.45 Q3125.1 2615.92 3125.98 2614.19 Q3126.88 2612.43 3126.88 2610.74 Q3126.88 2607.98 3124.94 2606.25 Q3123.02 2604.51 3119.91 2604.51 Q3117.72 2604.51 3115.26 2605.27 Q3112.83 2606.04 3110.05 2607.59 L3110.05 2602.87 Q3112.88 2601.73 3115.33 2601.15 Q3117.79 2600.57 3119.82 2600.57 Q3125.19 2600.57 3128.39 2603.26 Q3131.58 2605.95 3131.58 2610.44 Q3131.58 2612.57 3130.77 2614.49 Q3129.98 2616.38 3127.88 2618.98 Q3127.3 2619.65 3124.2 2622.87 Q3121.1 2626.06 3115.45 2631.82 Z" fill="#000000" fill-rule="nonzero" fill-opacity="1" /><path clip-path="url(#clip470)" d="M3694.5 2617.13 Q3697.86 2617.84 3699.73 2620.11 Q3701.63 2622.38 3701.63 2625.71 Q3701.63 2630.83 3698.11 2633.63 Q3694.59 2636.43 3688.11 2636.43 Q3685.94 2636.43 3683.62 2635.99 Q3681.33 2635.57 3678.88 2634.72 L3678.88 2630.2 Q3680.82 2631.34 3683.14 2631.92 Q3685.45 2632.5 3687.97 2632.5 Q3692.37 2632.5 3694.66 2630.76 Q3696.98 2629.02 3696.98 2625.71 Q3696.98 2622.66 3694.83 2620.95 Q3692.7 2619.21 3688.88 2619.21 L3684.85 2619.21 L3684.85 2615.37 L3689.06 2615.37 Q3692.51 2615.37 3694.34 2614 Q3696.17 2612.61 3696.17 2610.02 Q3696.17 2607.36 3694.27 2605.95 Q3692.39 2604.51 3688.88 2604.51 Q3686.95 2604.51 3684.76 2604.93 Q3682.56 2605.34 3679.92 2606.22 L3679.92 2602.06 Q3682.58 2601.32 3684.89 2600.95 Q3687.23 2600.57 3689.29 2600.57 Q3694.62 2600.57 3697.72 2603.01 Q3700.82 2605.41 3700.82 2609.53 Q3700.82 2612.4 3699.18 2614.39 Q3697.53 2616.36 3694.5 2617.13 Z" fill="#000000" fill-rule="nonzero" fill-opacity="1" /><polyline clip-path="url(#clip470)" style="stroke:#000000; stroke-linecap:round; stroke-linejoin:round; stroke-width:4; stroke-opacity:1; fill:none" points="170.998,2561.84 170.998,47.2441 "/>
<polyline clip-path="url(#clip470)" style="stroke:#000000; stroke-linecap:round; stroke-linejoin:round; stroke-width:4; stroke-opacity:1; fill:none" points="170.998,2490.67 189.896,2490.67 "/>
<polyline clip-path="url(#clip470)" style="stroke:#000000; stroke-linecap:round; stroke-linejoin:round; stroke-width:4; stroke-opacity:1; fill:none" points="170.998,1896.03 189.896,1896.03 "/>
<polyline clip-path="url(#clip470)" style="stroke:#000000; stroke-linecap:round; stroke-linejoin:round; stroke-width:4; stroke-opacity:1; fill:none" points="170.998,1301.4 189.896,1301.4 "/>
<polyline clip-path="url(#clip470)" style="stroke:#000000; stroke-linecap:round; stroke-linejoin:round; stroke-width:4; stroke-opacity:1; fill:none" points="170.998,706.76 189.896,706.76 "/>
<polyline clip-path="url(#clip470)" style="stroke:#000000; stroke-linecap:round; stroke-linejoin:round; stroke-width:4; stroke-opacity:1; fill:none" points="170.998,112.122 189.896,112.122 "/>
<path clip-path="url(#clip470)" d="M56.2226 2476.47 Q52.6115 2476.47 50.7828 2480.04 Q48.9773 2483.58 48.9773 2490.71 Q48.9773 2497.81 50.7828 2501.38 Q52.6115 2504.92 56.2226 2504.92 Q59.8569 2504.92 61.6624 2501.38 Q63.4911 2497.81 63.4911 2490.71 Q63.4911 2483.58 61.6624 2480.04 Q59.8569 2476.47 56.2226 2476.47 M56.2226 2472.77 Q62.0328 2472.77 65.0883 2477.37 Q68.167 2481.96 68.167 2490.71 Q68.167 2499.43 65.0883 2504.04 Q62.0328 2508.62 56.2226 2508.62 Q50.4125 2508.62 47.3338 2504.04 Q44.2782 2499.43 44.2782 2490.71 Q44.2782 2481.96 47.3338 2477.37 Q50.4125 2472.77 56.2226 2472.77 Z" fill="#000000" fill-rule="nonzero" fill-opacity="1" /><path clip-path="url(#clip470)" d="M76.3845 2502.07 L81.2688 2502.07 L81.2688 2507.95 L76.3845 2507.95 L76.3845 2502.07 Z" fill="#000000" fill-rule="nonzero" fill-opacity="1" /><path clip-path="url(#clip470)" d="M101.454 2476.47 Q97.8428 2476.47 96.0141 2480.04 Q94.2085 2483.58 94.2085 2490.71 Q94.2085 2497.81 96.0141 2501.38 Q97.8428 2504.92 101.454 2504.92 Q105.088 2504.92 106.894 2501.38 Q108.722 2497.81 108.722 2490.71 Q108.722 2483.58 106.894 2480.04 Q105.088 2476.47 101.454 2476.47 M101.454 2472.77 Q107.264 2472.77 110.32 2477.37 Q113.398 2481.96 113.398 2490.71 Q113.398 2499.43 110.32 2504.04 Q107.264 2508.62 101.454 2508.62 Q95.6437 2508.62 92.565 2504.04 Q89.5095 2499.43 89.5095 2490.71 Q89.5095 2481.96 92.565 2477.37 Q95.6437 2472.77 101.454 2472.77 Z" fill="#000000" fill-rule="nonzero" fill-opacity="1" /><path clip-path="url(#clip470)" d="M57.4495 1881.83 Q53.8384 1881.83 52.0097 1885.4 Q50.2041 1888.94 50.2041 1896.07 Q50.2041 1903.18 52.0097 1906.74 Q53.8384 1910.28 57.4495 1910.28 Q61.0837 1910.28 62.8892 1906.74 Q64.7179 1903.18 64.7179 1896.07 Q64.7179 1888.94 62.8892 1885.4 Q61.0837 1881.83 57.4495 1881.83 M57.4495 1878.13 Q63.2596 1878.13 66.3152 1882.74 Q69.3938 1887.32 69.3938 1896.07 Q69.3938 1904.8 66.3152 1909.4 Q63.2596 1913.99 57.4495 1913.99 Q51.6393 1913.99 48.5606 1909.4 Q45.5051 1904.8 45.5051 1896.07 Q45.5051 1887.32 48.5606 1882.74 Q51.6393 1878.13 57.4495 1878.13 Z" fill="#000000" fill-rule="nonzero" fill-opacity="1" /><path clip-path="url(#clip470)" d="M77.6114 1907.44 L82.4956 1907.44 L82.4956 1913.31 L77.6114 1913.31 L77.6114 1907.44 Z" fill="#000000" fill-rule="nonzero" fill-opacity="1" /><path clip-path="url(#clip470)" d="M93.4909 1909.38 L101.13 1909.38 L101.13 1883.01 L92.8196 1884.68 L92.8196 1880.42 L101.083 1878.75 L105.759 1878.75 L105.759 1909.38 L113.398 1909.38 L113.398 1913.31 L93.4909 1913.31 L93.4909 1909.38 Z" fill="#000000" fill-rule="nonzero" fill-opacity="1" /><path clip-path="url(#clip470)" d="M57.8198 1287.2 Q54.2087 1287.2 52.38 1290.76 Q50.5745 1294.3 50.5745 1301.43 Q50.5745 1308.54 52.38 1312.1 Q54.2087 1315.64 57.8198 1315.64 Q61.4541 1315.64 63.2596 1312.1 Q65.0883 1308.54 65.0883 1301.43 Q65.0883 1294.3 63.2596 1290.76 Q61.4541 1287.2 57.8198 1287.2 M57.8198 1283.49 Q63.63 1283.49 66.6855 1288.1 Q69.7642 1292.68 69.7642 1301.43 Q69.7642 1310.16 66.6855 1314.77 Q63.63 1319.35 57.8198 1319.35 Q52.0097 1319.35 48.931 1314.77 Q45.8754 1310.16 45.8754 1301.43 Q45.8754 1292.68 48.931 1288.1 Q52.0097 1283.49 57.8198 1283.49 Z" fill="#000000" fill-rule="nonzero" fill-opacity="1" /><path clip-path="url(#clip470)" d="M77.9818 1312.8 L82.866 1312.8 L82.866 1318.68 L77.9818 1318.68 L77.9818 1312.8 Z" fill="#000000" fill-rule="nonzero" fill-opacity="1" /><path clip-path="url(#clip470)" d="M97.0789 1314.74 L113.398 1314.74 L113.398 1318.68 L91.4539 1318.68 L91.4539 1314.74 Q94.1159 1311.99 98.6992 1307.36 Q103.306 1302.71 104.486 1301.36 Q106.732 1298.84 107.611 1297.1 Q108.514 1295.34 108.514 1293.65 Q108.514 1290.9 106.57 1289.16 Q104.648 1287.43 101.546 1287.43 Q99.3474 1287.43 96.8937 1288.19 Q94.4632 1288.96 91.6854 1290.51 L91.6854 1285.78 Q94.5094 1284.65 96.9631 1284.07 Q99.4168 1283.49 101.454 1283.49 Q106.824 1283.49 110.019 1286.18 Q113.213 1288.86 113.213 1293.35 Q113.213 1295.48 112.403 1297.4 Q111.616 1299.3 109.509 1301.89 Q108.931 1302.57 105.829 1305.78 Q102.727 1308.98 97.0789 1314.74 Z" fill="#000000" fill-rule="nonzero" fill-opacity="1" /><path clip-path="url(#clip470)" d="M56.8708 692.558 Q53.2597 692.558 51.431 696.123 Q49.6254 699.665 49.6254 706.794 Q49.6254 713.901 51.431 717.466 Q53.2597 721.007 56.8708 721.007 Q60.505 721.007 62.3105 717.466 Q64.1392 713.901 64.1392 706.794 Q64.1392 699.665 62.3105 696.123 Q60.505 692.558 56.8708 692.558 M56.8708 688.855 Q62.6809 688.855 65.7365 693.461 Q68.8151 698.045 68.8151 706.794 Q68.8151 715.521 65.7365 720.128 Q62.6809 724.711 56.8708 724.711 Q51.0606 724.711 47.9819 720.128 Q44.9264 715.521 44.9264 706.794 Q44.9264 698.045 47.9819 693.461 Q51.0606 688.855 56.8708 688.855 Z" fill="#000000" fill-rule="nonzero" fill-opacity="1" /><path clip-path="url(#clip470)" d="M77.0327 718.16 L81.9169 718.16 L81.9169 724.04 L77.0327 724.04 L77.0327 718.16 Z" fill="#000000" fill-rule="nonzero" fill-opacity="1" /><path clip-path="url(#clip470)" d="M106.269 705.406 Q109.625 706.123 111.5 708.392 Q113.398 710.66 113.398 713.994 Q113.398 719.109 109.88 721.91 Q106.361 724.711 99.8798 724.711 Q97.7039 724.711 95.3891 724.271 Q93.0974 723.855 90.6437 722.998 L90.6437 718.484 Q92.5882 719.618 94.903 720.197 Q97.2178 720.776 99.7409 720.776 Q104.139 720.776 106.431 719.04 Q108.745 717.304 108.745 713.994 Q108.745 710.938 106.593 709.225 Q104.463 707.489 100.644 707.489 L96.6159 707.489 L96.6159 703.646 L100.829 703.646 Q104.278 703.646 106.107 702.281 Q107.935 700.892 107.935 698.299 Q107.935 695.637 106.037 694.225 Q104.162 692.79 100.644 692.79 Q98.7224 692.79 96.5233 693.207 Q94.3243 693.623 91.6854 694.503 L91.6854 690.336 Q94.3474 689.595 96.6622 689.225 Q99.0002 688.855 101.06 688.855 Q106.384 688.855 109.486 691.285 Q112.588 693.693 112.588 697.813 Q112.588 700.683 110.945 702.674 Q109.301 704.642 106.269 705.406 Z" fill="#000000" fill-rule="nonzero" fill-opacity="1" /><path clip-path="url(#clip470)" d="M55.7365 97.921 Q52.1254 97.921 50.2967 101.486 Q48.4912 105.027 48.4912 112.157 Q48.4912 119.263 50.2967 122.828 Q52.1254 126.37 55.7365 126.37 Q59.3707 126.37 61.1763 122.828 Q63.005 119.263 63.005 112.157 Q63.005 105.027 61.1763 101.486 Q59.3707 97.921 55.7365 97.921 M55.7365 94.2173 Q61.5467 94.2173 64.6022 98.8238 Q67.6809 103.407 67.6809 112.157 Q67.6809 120.884 64.6022 125.49 Q61.5467 130.074 55.7365 130.074 Q49.9264 130.074 46.8477 125.49 Q43.7921 120.884 43.7921 112.157 Q43.7921 103.407 46.8477 98.8238 Q49.9264 94.2173 55.7365 94.2173 Z" fill="#000000" fill-rule="nonzero" fill-opacity="1" /><path clip-path="url(#clip470)" d="M75.8984 123.523 L80.7827 123.523 L80.7827 129.402 L75.8984 129.402 L75.8984 123.523 Z" fill="#000000" fill-rule="nonzero" fill-opacity="1" /><path clip-path="url(#clip470)" d="M103.815 98.9164 L92.0095 117.365 L103.815 117.365 L103.815 98.9164 M102.588 94.8423 L108.468 94.8423 L108.468 117.365 L113.398 117.365 L113.398 121.254 L108.468 121.254 L108.468 129.402 L103.815 129.402 L103.815 121.254 L88.2132 121.254 L88.2132 116.74 L102.588 94.8423 Z" fill="#000000" fill-rule="nonzero" fill-opacity="1" /><path clip-path="url(#clip472)" d="M273.501 2464.32 L279.195 2463.52 L284.89 2462.69 L290.585 2461.85 L296.279 2460.98 L301.974 2460.09 L307.668 2459.18 L313.363 2458.24 L319.058 2457.28 L324.752 2456.29 L330.447 2455.28 L336.141 2454.24 L341.836 2453.17 L347.53 2452.08 L353.225 2450.95 L358.92 2449.8 L364.614 2448.62 L370.309 2447.42 L376.003 2446.18 L381.698 2444.91 L387.393 2443.6 L393.087 2442.27 L398.782 2440.9 L404.476 2439.5 L410.171 2438.07 L415.865 2436.6 L421.56 2435.09 L427.255 2433.55 L432.949 2431.97 L438.644 2430.36 L444.338 2428.71 L450.033 2427.01 L455.728 2425.28 L461.422 2423.51 L467.117 2421.69 L472.811 2419.84 L478.506 2417.94 L484.201 2416 L489.895 2414.01 L495.59 2411.98 L501.284 2409.9 L506.979 2407.78 L512.673 2405.61 L518.368 2403.39 L524.063 2401.12 L529.757 2398.8 L535.452 2396.44 L541.146 2394.02 L546.841 2391.55 L552.536 2389.02 L558.23 2386.44 L563.925 2383.81 L569.619 2381.12 L575.314 2378.37 L581.009 2375.57 L586.703 2372.71 L592.398 2369.79 L598.092 2366.81 L603.787 2363.77 L609.481 2360.67 L615.176 2357.51 L620.871 2354.28 L626.565 2350.99 L632.26 2347.63 L637.954 2344.21 L643.649 2340.72 L649.344 2337.16 L655.038 2333.53 L660.733 2329.83 L666.427 2326.07 L672.122 2322.23 L677.817 2318.32 L683.511 2314.33 L689.206 2310.28 L694.9 2306.14 L700.595 2301.94 L706.289 2297.65 L711.984 2293.29 L717.679 2288.85 L723.373 2284.33 L729.068 2279.73 L734.762 2275.05 L740.457 2270.28 L746.152 2265.44 L751.846 2260.51 L757.541 2255.49 L763.235 2250.39 L768.93 2245.21 L774.625 2239.94 L780.319 2234.58 L786.014 2229.13 L791.708 2223.59 L797.403 2217.96 L803.097 2212.25 L808.792 2206.44 L814.487 2200.54 L820.181 2194.54 L825.876 2188.45 L831.57 2182.27 L837.265 2175.99 L842.96 2169.62 L848.654 2163.15 L854.349 2156.59 L860.043 2149.92 L865.738 2143.16 L871.433 2136.3 L877.127 2129.34 L882.822 2122.28 L888.516 2115.12 L894.211 2107.86 L899.905 2100.5 L905.6 2093.03 L911.295 2085.46 L916.989 2077.8 L922.684 2070.02 L928.378 2062.15 L934.073 2054.17 L939.768 2046.08 L945.462 2037.9 L951.157 2029.6 L956.851 2021.2 L962.546 2012.7 L968.24 2004.09 L973.935 1995.38 L979.63 1986.56 L985.324 1977.63 L991.019 1968.6 L996.713 1959.47 L1002.41 1950.22 L1008.1 1940.88 L1013.8 1931.42 L1019.49 1921.86 L1025.19 1912.2 L1030.88 1902.42 L1036.58 1892.55 L1042.27 1882.57 L1047.96 1872.48 L1053.66 1862.29 L1059.35 1852 L1065.05 1841.6 L1070.74 1831.1 L1076.44 1820.49 L1082.13 1809.78 L1087.83 1798.97 L1093.52 1788.06 L1099.22 1777.05 L1104.91 1765.94 L1110.61 1754.73 L1116.3 1743.42 L1121.99 1732.02 L1127.69 1720.51 L1133.38 1708.91 L1139.08 1697.22 L1144.77 1685.43 L1150.47 1673.54 L1156.16 1661.57 L1161.86 1649.5 L1167.55 1637.34 L1173.25 1625.09 L1178.94 1612.76 L1184.63 1600.34 L1190.33 1587.83 L1196.02 1575.24 L1201.72 1562.56 L1207.41 1549.81 L1213.11 1536.97 L1218.8 1524.06 L1224.5 1511.07 L1230.19 1498 L1235.89 1484.86 L1241.58 1471.65 L1247.28 1458.37 L1252.97 1445.02 L1258.66 1431.6 L1264.36 1418.12 L1270.05 1404.57 L1275.75 1390.97 L1281.44 1377.3 L1287.14 1363.58 L1292.83 1349.8 L1298.53 1335.97 L1304.22 1322.09 L1309.92 1308.16 L1315.61 1294.18 L1321.3 1280.16 L1327 1266.1 L1332.69 1252 L1338.39 1237.86 L1344.08 1223.68 L1349.78 1209.48 L1355.47 1195.24 L1361.17 1180.98 L1366.86 1166.69 L1372.56 1152.38 L1378.25 1138.05 L1383.95 1123.71 L1389.64 1109.35 L1395.33 1094.98 L1401.03 1080.6 L1406.72 1066.21 L1412.42 1051.82 L1418.11 1037.44 L1423.81 1023.05 L1429.5 1008.67 L1435.2 994.301 L1440.89 979.942 L1446.59 965.598 L1452.28 951.271 L1457.98 936.966 L1463.67 922.684 L1469.36 908.43 L1475.06 894.205 L1480.75 880.013 L1486.45 865.858 L1492.14 851.743 L1497.84 837.67 L1503.53 823.643 L1509.23 809.665 L1514.92 795.739 L1520.62 781.869 L1526.31 768.058 L1532 754.308 L1537.7 740.624 L1543.39 727.009 L1549.09 713.465 L1554.78 699.996 L1560.48 686.606 L1566.17 673.297 L1571.87 660.073 L1577.56 646.938 L1583.26 633.893 L1588.95 620.944 L1594.65 608.092 L1600.34 595.342 L1606.03 582.696 L1611.73 570.157 L1617.42 557.73 L1623.12 545.417 L1628.81 533.221 L1634.51 521.146 L1640.2 509.194 L1645.9 497.369 L1651.59 485.674 L1657.29 474.112 L1662.98 462.686 L1668.67 451.4 L1674.37 440.255 L1680.06 429.256 L1685.76 418.405 L1691.45 407.705 L1697.15 397.16 L1702.84 386.771 L1708.54 376.543 L1714.23 366.477 L1719.93 356.576 L1725.62 346.844 L1731.32 337.282 L1737.01 327.895 L1742.7 318.683 L1748.4 309.651 L1754.09 300.8 L1759.79 292.133 L1765.48 283.652 L1771.18 275.36 L1776.87 267.26 L1782.57 259.352 L1788.26 251.641 L1793.96 244.128 L1799.65 236.815 L1805.34 229.704 L1811.04 222.797 L1816.73 216.097 L1822.43 209.605 L1828.12 203.324 L1833.82 197.254 L1839.51 191.399 L1845.21 185.759 L1850.9 180.336 L1856.6 175.132 L1862.29 170.148 L1867.99 165.386 L1873.68 160.847 L1879.37 156.533 L1885.07 152.445 L1890.76 148.583 L1896.46 144.95 L1902.15 141.547 L1907.85 138.373 L1913.54 135.431 L1919.24 132.721 L1924.93 130.244 L1930.63 128 L1936.32 125.991 L1942.01 124.217 L1947.71 122.678 L1953.4 121.375 L1959.1 120.309 L1964.79 119.479 L1970.49 118.886 L1976.18 118.531 L1981.88 118.412 L1987.57 118.531 L1993.27 118.886 L1998.96 119.479 L2004.66 120.309 L2010.35 121.375 L2016.04 122.678 L2021.74 124.217 L2027.43 125.991 L2033.13 128 L2038.82 130.244 L2044.52 132.721 L2050.21 135.431 L2055.91 138.373 L2061.6 141.547 L2067.3 144.95 L2072.99 148.583 L2078.69 152.445 L2084.38 156.533 L2090.07 160.847 L2095.77 165.386 L2101.46 170.148 L2107.16 175.132 L2112.85 180.336 L2118.55 185.759 L2124.24 191.399 L2129.94 197.254 L2135.63 203.324 L2141.33 209.605 L2147.02 216.097 L2152.71 222.797 L2158.41 229.704 L2164.1 236.815 L2169.8 244.128 L2175.49 251.641 L2181.19 259.352 L2186.88 267.26 L2192.58 275.36 L2198.27 283.652 L2203.97 292.133 L2209.66 300.8 L2215.36 309.651 L2221.05 318.683 L2226.74 327.895 L2232.44 337.282 L2238.13 346.844 L2243.83 356.576 L2249.52 366.477 L2255.22 376.543 L2260.91 386.771 L2266.61 397.16 L2272.3 407.705 L2278 418.405 L2283.69 429.256 L2289.38 440.255 L2295.08 451.4 L2300.77 462.686 L2306.47 474.112 L2312.16 485.674 L2317.86 497.369 L2323.55 509.194 L2329.25 521.146 L2334.94 533.221 L2340.64 545.417 L2346.33 557.73 L2352.03 570.157 L2357.72 582.696 L2363.41 595.342 L2369.11 608.092 L2374.8 620.944 L2380.5 633.893 L2386.19 646.938 L2391.89 660.073 L2397.58 673.297 L2403.28 686.606 L2408.97 699.996 L2414.67 713.465 L2420.36 727.009 L2426.05 740.624 L2431.75 754.308 L2437.44 768.058 L2443.14 781.869 L2448.83 795.739 L2454.53 809.665 L2460.22 823.643 L2465.92 837.67 L2471.61 851.743 L2477.31 865.858 L2483 880.013 L2488.7 894.205 L2494.39 908.43 L2500.08 922.684 L2505.78 936.966 L2511.47 951.271 L2517.17 965.598 L2522.86 979.942 L2528.56 994.301 L2534.25 1008.67 L2539.95 1023.05 L2545.64 1037.44 L2551.34 1051.82 L2557.03 1066.21 L2562.72 1080.6 L2568.42 1094.98 L2574.11 1109.35 L2579.81 1123.71 L2585.5 1138.05 L2591.2 1152.38 L2596.89 1166.69 L2602.59 1180.98 L2608.28 1195.24 L2613.98 1209.48 L2619.67 1223.68 L2625.37 1237.86 L2631.06 1252 L2636.75 1266.1 L2642.45 1280.16 L2648.14 1294.18 L2653.84 1308.16 L2659.53 1322.09 L2665.23 1335.97 L2670.92 1349.8 L2676.62 1363.58 L2682.31 1377.3 L2688.01 1390.97 L2693.7 1404.57 L2699.4 1418.12 L2705.09 1431.6 L2710.78 1445.02 L2716.48 1458.37 L2722.17 1471.65 L2727.87 1484.86 L2733.56 1498 L2739.26 1511.07 L2744.95 1524.06 L2750.65 1536.97 L2756.34 1549.81 L2762.04 1562.56 L2767.73 1575.24 L2773.42 1587.83 L2779.12 1600.34 L2784.81 1612.76 L2790.51 1625.09 L2796.2 1637.34 L2801.9 1649.5 L2807.59 1661.57 L2813.29 1673.54 L2818.98 1685.43 L2824.68 1697.22 L2830.37 1708.91 L2836.07 1720.51 L2841.76 1732.02 L2847.45 1743.42 L2853.15 1754.73 L2858.84 1765.94 L2864.54 1777.05 L2870.23 1788.06 L2875.93 1798.97 L2881.62 1809.78 L2887.32 1820.49 L2893.01 1831.1 L2898.71 1841.6 L2904.4 1852 L2910.09 1862.29 L2915.79 1872.48 L2921.48 1882.57 L2927.18 1892.55 L2932.87 1902.42 L2938.57 1912.2 L2944.26 1921.86 L2949.96 1931.42 L2955.65 1940.88 L2961.35 1950.22 L2967.04 1959.47 L2972.74 1968.6 L2978.43 1977.63 L2984.12 1986.56 L2989.82 1995.38 L2995.51 2004.09 L3001.21 2012.7 L3006.9 2021.2 L3012.6 2029.6 L3018.29 2037.9 L3023.99 2046.08 L3029.68 2054.17 L3035.38 2062.15 L3041.07 2070.02 L3046.76 2077.8 L3052.46 2085.46 L3058.15 2093.03 L3063.85 2100.5 L3069.54 2107.86 L3075.24 2115.12 L3080.93 2122.28 L3086.63 2129.34 L3092.32 2136.3 L3098.02 2143.16 L3103.71 2149.92 L3109.41 2156.59 L3115.1 2163.15 L3120.79 2169.62 L3126.49 2175.99 L3132.18 2182.27 L3137.88 2188.45 L3143.57 2194.54 L3149.27 2200.54 L3154.96 2206.44 L3160.66 2212.25 L3166.35 2217.96 L3172.05 2223.59 L3177.74 2229.13 L3183.44 2234.58 L3189.13 2239.94 L3194.82 2245.21 L3200.52 2250.39 L3206.21 2255.49 L3211.91 2260.51 L3217.6 2265.44 L3223.3 2270.28 L3228.99 2275.05 L3234.69 2279.73 L3240.38 2284.33 L3246.08 2288.85 L3251.77 2293.29 L3257.46 2297.65 L3263.16 2301.94 L3268.85 2306.14 L3274.55 2310.28 L3280.24 2314.33 L3285.94 2318.32 L3291.63 2322.23 L3297.33 2326.07 L3303.02 2329.83 L3308.72 2333.53 L3314.41 2337.16 L3320.11 2340.72 L3325.8 2344.21 L3331.49 2347.63 L3337.19 2350.99 L3342.88 2354.28 L3348.58 2357.51 L3354.27 2360.67 L3359.97 2363.77 L3365.66 2366.81 L3371.36 2369.79 L3377.05 2372.71 L3382.75 2375.57 L3388.44 2378.37 L3394.13 2381.12 L3399.83 2383.81 L3405.52 2386.44 L3411.22 2389.02 L3416.91 2391.55 L3422.61 2394.02 L3428.3 2396.44 L3434 2398.8 L3439.69 2401.12 L3445.39 2403.39 L3451.08 2405.61 L3456.78 2407.78 L3462.47 2409.9 L3468.16 2411.98 L3473.86 2414.01 L3479.55 2416 L3485.25 2417.94 L3490.94 2419.84 L3496.64 2421.69 L3502.33 2423.51 L3508.03 2425.28 L3513.72 2427.01 L3519.42 2428.71 L3525.11 2430.36 L3530.8 2431.97 L3536.5 2433.55 L3542.19 2435.09 L3547.89 2436.6 L3553.58 2438.07 L3559.28 2439.5 L3564.97 2440.9 L3570.67 2442.27 L3576.36 2443.6 L3582.06 2444.91 L3587.75 2446.18 L3593.45 2447.42 L3599.14 2448.62 L3604.83 2449.8 L3610.53 2450.95 L3616.22 2452.08 L3621.92 2453.17 L3627.61 2454.24 L3633.31 2455.28 L3639 2456.29 L3644.7 2457.28 L3650.39 2458.24 L3656.09 2459.18 L3661.78 2460.09 L3667.47 2460.98 L3673.17 2461.85 L3678.86 2462.69 L3684.56 2463.52 L3690.25 2464.32 L3690.25 2490.67 L3684.56 2490.67 L3678.86 2490.67 L3673.17 2490.67 L3667.47 2490.67 L3661.78 2490.67 L3656.09 2490.67 L3650.39 2490.67 L3644.7 2490.67 L3639 2490.67 L3633.31 2490.67 L3627.61 2490.67 L3621.92 2490.67 L3616.22 2490.67 L3610.53 2490.67 L3604.83 2490.67 L3599.14 2490.67 L3593.45 2490.67 L3587.75 2490.67 L3582.06 2490.67 L3576.36 2490.67 L3570.67 2490.67 L3564.97 2490.67 L3559.28 2490.67 L3553.58 2490.67 L3547.89 2490.67 L3542.19 2490.67 L3536.5 2490.67 L3530.8 2490.67 L3525.11 2490.67 L3519.42 2490.67 L3513.72 2490.67 L3508.03 2490.67 L3502.33 2490.67 L3496.64 2490.67 L3490.94 2490.67 L3485.25 2490.67 L3479.55 2490.67 L3473.86 2490.67 L3468.16 2490.67 L3462.47 2490.67 L3456.78 2490.67 L3451.08 2490.67 L3445.39 2490.67 L3439.69 2490.67 L3434 2490.67 L3428.3 2490.67 L3422.61 2490.67 L3416.91 2490.67 L3411.22 2490.67 L3405.52 2490.67 L3399.83 2490.67 L3394.13 2490.67 L3388.44 2490.67 L3382.75 2490.67 L3377.05 2490.67 L3371.36 2490.67 L3365.66 2490.67 L3359.97 2490.67 L3354.27 2490.67 L3348.58 2490.67 L3342.88 2490.67 L3337.19 2490.67 L3331.49 2490.67 L3325.8 2490.67 L3320.11 2490.67 L3314.41 2490.67 L3308.72 2490.67 L3303.02 2490.67 L3297.33 2490.67 L3291.63 2490.67 L3285.94 2490.67 L3280.24 2490.67 L3274.55 2490.67 L3268.85 2490.67 L3263.16 2490.67 L3257.46 2490.67 L3251.77 2490.67 L3246.08 2490.67 L3240.38 2490.67 L3234.69 2490.67 L3228.99 2490.67 L3223.3 2490.67 L3217.6 2490.67 L3211.91 2490.67 L3206.21 2490.67 L3200.52 2490.67 L3194.82 2490.67 L3189.13 2490.67 L3183.44 2490.67 L3177.74 2490.67 L3172.05 2490.67 L3166.35 2490.67 L3160.66 2490.67 L3154.96 2490.67 L3149.27 2490.67 L3143.57 2490.67 L3137.88 2490.67 L3132.18 2490.67 L3126.49 2490.67 L3120.79 2490.67 L3115.1 2490.67 L3109.41 2490.67 L3103.71 2490.67 L3098.02 2490.67 L3092.32 2490.67 L3086.63 2490.67 L3080.93 2490.67 L3075.24 2490.67 L3069.54 2490.67 L3063.85 2490.67 L3058.15 2490.67 L3052.46 2490.67 L3046.76 2490.67 L3041.07 2490.67 L3035.38 2490.67 L3029.68 2490.67 L3023.99 2490.67 L3018.29 2490.67 L3012.6 2490.67 L3006.9 2490.67 L3001.21 2490.67 L2995.51 2490.67 L2989.82 2490.67 L2984.12 2490.67 L2978.43 2490.67 L2972.74 2490.67 L2967.04 2490.67 L2961.35 2490.67 L2955.65 2490.67 L2949.96 2490.67 L2944.26 2490.67 L2938.57 2490.67 L2932.87 2490.67 L2927.18 2490.67 L2921.48 2490.67 L2915.79 2490.67 L2910.09 2490.67 L2904.4 2490.67 L2898.71 2490.67 L2893.01 2490.67 L2887.32 2490.67 L2881.62 2490.67 L2875.93 2490.67 L2870.23 2490.67 L2864.54 2490.67 L2858.84 2490.67 L2853.15 2490.67 L2847.45 2490.67 L2841.76 2490.67 L2836.07 2490.67 L2830.37 2490.67 L2824.68 2490.67 L2818.98 2490.67 L2813.29 2490.67 L2807.59 2490.67 L2801.9 2490.67 L2796.2 2490.67 L2790.51 2490.67 L2784.81 2490.67 L2779.12 2490.67 L2773.42 2490.67 L2767.73 2490.67 L2762.04 2490.67 L2756.34 2490.67 L2750.65 2490.67 L2744.95 2490.67 L2739.26 2490.67 L2733.56 2490.67 L2727.87 2490.67 L2722.17 2490.67 L2716.48 2490.67 L2710.78 2490.67 L2705.09 2490.67 L2699.4 2490.67 L2693.7 2490.67 L2688.01 2490.67 L2682.31 2490.67 L2676.62 2490.67 L2670.92 2490.67 L2665.23 2490.67 L2659.53 2490.67 L2653.84 2490.67 L2648.14 2490.67 L2642.45 2490.67 L2636.75 2490.67 L2631.06 2490.67 L2625.37 2490.67 L2619.67 2490.67 L2613.98 2490.67 L2608.28 2490.67 L2602.59 2490.67 L2596.89 2490.67 L2591.2 2490.67 L2585.5 2490.67 L2579.81 2490.67 L2574.11 2490.67 L2568.42 2490.67 L2562.72 2490.67 L2557.03 2490.67 L2551.34 2490.67 L2545.64 2490.67 L2539.95 2490.67 L2534.25 2490.67 L2528.56 2490.67 L2522.86 2490.67 L2517.17 2490.67 L2511.47 2490.67 L2505.78 2490.67 L2500.08 2490.67 L2494.39 2490.67 L2488.7 2490.67 L2483 2490.67 L2477.31 2490.67 L2471.61 2490.67 L2465.92 2490.67 L2460.22 2490.67 L2454.53 2490.67 L2448.83 2490.67 L2443.14 2490.67 L2437.44 2490.67 L2431.75 2490.67 L2426.05 2490.67 L2420.36 2490.67 L2414.67 2490.67 L2408.97 2490.67 L2403.28 2490.67 L2397.58 2490.67 L2391.89 2490.67 L2386.19 2490.67 L2380.5 2490.67 L2374.8 2490.67 L2369.11 2490.67 L2363.41 2490.67 L2357.72 2490.67 L2352.03 2490.67 L2346.33 2490.67 L2340.64 2490.67 L2334.94 2490.67 L2329.25 2490.67 L2323.55 2490.67 L2317.86 2490.67 L2312.16 2490.67 L2306.47 2490.67 L2300.77 2490.67 L2295.08 2490.67 L2289.38 2490.67 L2283.69 2490.67 L2278 2490.67 L2272.3 2490.67 L2266.61 2490.67 L2260.91 2490.67 L2255.22 2490.67 L2249.52 2490.67 L2243.83 2490.67 L2238.13 2490.67 L2232.44 2490.67 L2226.74 2490.67 L2221.05 2490.67 L2215.36 2490.67 L2209.66 2490.67 L2203.97 2490.67 L2198.27 2490.67 L2192.58 2490.67 L2186.88 2490.67 L2181.19 2490.67 L2175.49 2490.67 L2169.8 2490.67 L2164.1 2490.67 L2158.41 2490.67 L2152.71 2490.67 L2147.02 2490.67 L2141.33 2490.67 L2135.63 2490.67 L2129.94 2490.67 L2124.24 2490.67 L2118.55 2490.67 L2112.85 2490.67 L2107.16 2490.67 L2101.46 2490.67 L2095.77 2490.67 L2090.07 2490.67 L2084.38 2490.67 L2078.69 2490.67 L2072.99 2490.67 L2067.3 2490.67 L2061.6 2490.67 L2055.91 2490.67 L2050.21 2490.67 L2044.52 2490.67 L2038.82 2490.67 L2033.13 2490.67 L2027.43 2490.67 L2021.74 2490.67 L2016.04 2490.67 L2010.35 2490.67 L2004.66 2490.67 L1998.96 2490.67 L1993.27 2490.67 L1987.57 2490.67 L1981.88 2490.67 L1976.18 2490.67 L1970.49 2490.67 L1964.79 2490.67 L1959.1 2490.67 L1953.4 2490.67 L1947.71 2490.67 L1942.01 2490.67 L1936.32 2490.67 L1930.63 2490.67 L1924.93 2490.67 L1919.24 2490.67 L1913.54 2490.67 L1907.85 2490.67 L1902.15 2490.67 L1896.46 2490.67 L1890.76 2490.67 L1885.07 2490.67 L1879.37 2490.67 L1873.68 2490.67 L1867.99 2490.67 L1862.29 2490.67 L1856.6 2490.67 L1850.9 2490.67 L1845.21 2490.67 L1839.51 2490.67 L1833.82 2490.67 L1828.12 2490.67 L1822.43 2490.67 L1816.73 2490.67 L1811.04 2490.67 L1805.34 2490.67 L1799.65 2490.67 L1793.96 2490.67 L1788.26 2490.67 L1782.57 2490.67 L1776.87 2490.67 L1771.18 2490.67 L1765.48 2490.67 L1759.79 2490.67 L1754.09 2490.67 L1748.4 2490.67 L1742.7 2490.67 L1737.01 2490.67 L1731.32 2490.67 L1725.62 2490.67 L1719.93 2490.67 L1714.23 2490.67 L1708.54 2490.67 L1702.84 2490.67 L1697.15 2490.67 L1691.45 2490.67 L1685.76 2490.67 L1680.06 2490.67 L1674.37 2490.67 L1668.67 2490.67 L1662.98 2490.67 L1657.29 2490.67 L1651.59 2490.67 L1645.9 2490.67 L1640.2 2490.67 L1634.51 2490.67 L1628.81 2490.67 L1623.12 2490.67 L1617.42 2490.67 L1611.73 2490.67 L1606.03 2490.67 L1600.34 2490.67 L1594.65 2490.67 L1588.95 2490.67 L1583.26 2490.67 L1577.56 2490.67 L1571.87 2490.67 L1566.17 2490.67 L1560.48 2490.67 L1554.78 2490.67 L1549.09 2490.67 L1543.39 2490.67 L1537.7 2490.67 L1532 2490.67 L1526.31 2490.67 L1520.62 2490.67 L1514.92 2490.67 L1509.23 2490.67 L1503.53 2490.67 L1497.84 2490.67 L1492.14 2490.67 L1486.45 2490.67 L1480.75 2490.67 L1475.06 2490.67 L1469.36 2490.67 L1463.67 2490.67 L1457.98 2490.67 L1452.28 2490.67 L1446.59 2490.67 L1440.89 2490.67 L1435.2 2490.67 L1429.5 2490.67 L1423.81 2490.67 L1418.11 2490.67 L1412.42 2490.67 L1406.72 2490.67 L1401.03 2490.67 L1395.33 2490.67 L1389.64 2490.67 L1383.95 2490.67 L1378.25 2490.67 L1372.56 2490.67 L1366.86 2490.67 L1361.17 2490.67 L1355.47 2490.67 L1349.78 2490.67 L1344.08 2490.67 L1338.39 2490.67 L1332.69 2490.67 L1327 2490.67 L1321.3 2490.67 L1315.61 2490.67 L1309.92 2490.67 L1304.22 2490.67 L1298.53 2490.67 L1292.83 2490.67 L1287.14 2490.67 L1281.44 2490.67 L1275.75 2490.67 L1270.05 2490.67 L1264.36 2490.67 L1258.66 2490.67 L1252.97 2490.67 L1247.28 2490.67 L1241.58 2490.67 L1235.89 2490.67 L1230.19 2490.67 L1224.5 2490.67 L1218.8 2490.67 L1213.11 2490.67 L1207.41 2490.67 L1201.72 2490.67 L1196.02 2490.67 L1190.33 2490.67 L1184.63 2490.67 L1178.94 2490.67 L1173.25 2490.67 L1167.55 2490.67 L1161.86 2490.67 L1156.16 2490.67 L1150.47 2490.67 L1144.77 2490.67 L1139.08 2490.67 L1133.38 2490.67 L1127.69 2490.67 L1121.99 2490.67 L1116.3 2490.67 L1110.61 2490.67 L1104.91 2490.67 L1099.22 2490.67 L1093.52 2490.67 L1087.83 2490.67 L1082.13 2490.67 L1076.44 2490.67 L1070.74 2490.67 L1065.05 2490.67 L1059.35 2490.67 L1053.66 2490.67 L1047.96 2490.67 L1042.27 2490.67 L1036.58 2490.67 L1030.88 2490.67 L1025.19 2490.67 L1019.49 2490.67 L1013.8 2490.67 L1008.1 2490.67 L1002.41 2490.67 L996.713 2490.67 L991.019 2490.67 L985.324 2490.67 L979.63 2490.67 L973.935 2490.67 L968.24 2490.67 L962.546 2490.67 L956.851 2490.67 L951.157 2490.67 L945.462 2490.67 L939.768 2490.67 L934.073 2490.67 L928.378 2490.67 L922.684 2490.67 L916.989 2490.67 L911.295 2490.67 L905.6 2490.67 L899.905 2490.67 L894.211 2490.67 L888.516 2490.67 L882.822 2490.67 L877.127 2490.67 L871.433 2490.67 L865.738 2490.67 L860.043 2490.67 L854.349 2490.67 L848.654 2490.67 L842.96 2490.67 L837.265 2490.67 L831.57 2490.67 L825.876 2490.67 L820.181 2490.67 L814.487 2490.67 L808.792 2490.67 L803.097 2490.67 L797.403 2490.67 L791.708 2490.67 L786.014 2490.67 L780.319 2490.67 L774.625 2490.67 L768.93 2490.67 L763.235 2490.67 L757.541 2490.67 L751.846 2490.67 L746.152 2490.67 L740.457 2490.67 L734.762 2490.67 L729.068 2490.67 L723.373 2490.67 L717.679 2490.67 L711.984 2490.67 L706.289 2490.67 L700.595 2490.67 L694.9 2490.67 L689.206 2490.67 L683.511 2490.67 L677.817 2490.67 L672.122 2490.67 L666.427 2490.67 L660.733 2490.67 L655.038 2490.67 L649.344 2490.67 L643.649 2490.67 L637.954 2490.67 L632.26 2490.67 L626.565 2490.67 L620.871 2490.67 L615.176 2490.67 L609.481 2490.67 L603.787 2490.67 L598.092 2490.67 L592.398 2490.67 L586.703 2490.67 L581.009 2490.67 L575.314 2490.67 L569.619 2490.67 L563.925 2490.67 L558.23 2490.67 L552.536 2490.67 L546.841 2490.67 L541.146 2490.67 L535.452 2490.67 L529.757 2490.67 L524.063 2490.67 L518.368 2490.67 L512.673 2490.67 L506.979 2490.67 L501.284 2490.67 L495.59 2490.67 L489.895 2490.67 L484.201 2490.67 L478.506 2490.67 L472.811 2490.67 L467.117 2490.67 L461.422 2490.67 L455.728 2490.67 L450.033 2490.67 L444.338 2490.67 L438.644 2490.67 L432.949 2490.67 L427.255 2490.67 L421.56 2490.67 L415.865 2490.67 L410.171 2490.67 L404.476 2490.67 L398.782 2490.67 L393.087 2490.67 L387.393 2490.67 L381.698 2490.67 L376.003 2490.67 L370.309 2490.67 L364.614 2490.67 L358.92 2490.67 L353.225 2490.67 L347.53 2490.67 L341.836 2490.67 L336.141 2490.67 L330.447 2490.67 L324.752 2490.67 L319.058 2490.67 L313.363 2490.67 L307.668 2490.67 L301.974 2490.67 L296.279 2490.67 L290.585 2490.67 L284.89 2490.67 L279.195 2490.67 L273.501 2490.67  Z" fill="#009af9" fill-rule="evenodd" fill-opacity="0.25"/>
<polyline clip-path="url(#clip472)" style="stroke:#009af9; stroke-linecap:round; stroke-linejoin:round; stroke-width:4; stroke-opacity:0.25; fill:none" points="273.501,2464.32 279.195,2463.52 284.89,2462.69 290.585,2461.85 296.279,2460.98 301.974,2460.09 307.668,2459.18 313.363,2458.24 319.058,2457.28 324.752,2456.29 330.447,2455.28 336.141,2454.24 341.836,2453.17 347.53,2452.08 353.225,2450.95 358.92,2449.8 364.614,2448.62 370.309,2447.42 376.003,2446.18 381.698,2444.91 387.393,2443.6 393.087,2442.27 398.782,2440.9 404.476,2439.5 410.171,2438.07 415.865,2436.6 421.56,2435.09 427.255,2433.55 432.949,2431.97 438.644,2430.36 444.338,2428.71 450.033,2427.01 455.728,2425.28 461.422,2423.51 467.117,2421.69 472.811,2419.84 478.506,2417.94 484.201,2416 489.895,2414.01 495.59,2411.98 501.284,2409.9 506.979,2407.78 512.673,2405.61 518.368,2403.39 524.063,2401.12 529.757,2398.8 535.452,2396.44 541.146,2394.02 546.841,2391.55 552.536,2389.02 558.23,2386.44 563.925,2383.81 569.619,2381.12 575.314,2378.37 581.009,2375.57 586.703,2372.71 592.398,2369.79 598.092,2366.81 603.787,2363.77 609.481,2360.67 615.176,2357.51 620.871,2354.28 626.565,2350.99 632.26,2347.63 637.954,2344.21 643.649,2340.72 649.344,2337.16 655.038,2333.53 660.733,2329.83 666.427,2326.07 672.122,2322.23 677.817,2318.32 683.511,2314.33 689.206,2310.28 694.9,2306.14 700.595,2301.94 706.289,2297.65 711.984,2293.29 717.679,2288.85 723.373,2284.33 729.068,2279.73 734.762,2275.05 740.457,2270.28 746.152,2265.44 751.846,2260.51 757.541,2255.49 763.235,2250.39 768.93,2245.21 774.625,2239.94 780.319,2234.58 786.014,2229.13 791.708,2223.59 797.403,2217.96 803.097,2212.25 808.792,2206.44 814.487,2200.54 820.181,2194.54 825.876,2188.45 831.57,2182.27 837.265,2175.99 842.96,2169.62 848.654,2163.15 854.349,2156.59 860.043,2149.92 865.738,2143.16 871.433,2136.3 877.127,2129.34 882.822,2122.28 888.516,2115.12 894.211,2107.86 899.905,2100.5 905.6,2093.03 911.295,2085.46 916.989,2077.8 922.684,2070.02 928.378,2062.15 934.073,2054.17 939.768,2046.08 945.462,2037.9 951.157,2029.6 956.851,2021.2 962.546,2012.7 968.24,2004.09 973.935,1995.38 979.63,1986.56 985.324,1977.63 991.019,1968.6 996.713,1959.47 1002.41,1950.22 1008.1,1940.88 1013.8,1931.42 1019.49,1921.86 1025.19,1912.2 1030.88,1902.42 1036.58,1892.55 1042.27,1882.57 1047.96,1872.48 1053.66,1862.29 1059.35,1852 1065.05,1841.6 1070.74,1831.1 1076.44,1820.49 1082.13,1809.78 1087.83,1798.97 1093.52,1788.06 1099.22,1777.05 1104.91,1765.94 1110.61,1754.73 1116.3,1743.42 1121.99,1732.02 1127.69,1720.51 1133.38,1708.91 1139.08,1697.22 1144.77,1685.43 1150.47,1673.54 1156.16,1661.57 1161.86,1649.5 1167.55,1637.34 1173.25,1625.09 1178.94,1612.76 1184.63,1600.34 1190.33,1587.83 1196.02,1575.24 1201.72,1562.56 1207.41,1549.81 1213.11,1536.97 1218.8,1524.06 1224.5,1511.07 1230.19,1498 1235.89,1484.86 1241.58,1471.65 1247.28,1458.37 1252.97,1445.02 1258.66,1431.6 1264.36,1418.12 1270.05,1404.57 1275.75,1390.97 1281.44,1377.3 1287.14,1363.58 1292.83,1349.8 1298.53,1335.97 1304.22,1322.09 1309.92,1308.16 1315.61,1294.18 1321.3,1280.16 1327,1266.1 1332.69,1252 1338.39,1237.86 1344.08,1223.68 1349.78,1209.48 1355.47,1195.24 1361.17,1180.98 1366.86,1166.69 1372.56,1152.38 1378.25,1138.05 1383.95,1123.71 1389.64,1109.35 1395.33,1094.98 1401.03,1080.6 1406.72,1066.21 1412.42,1051.82 1418.11,1037.44 1423.81,1023.05 1429.5,1008.67 1435.2,994.301 1440.89,979.942 1446.59,965.598 1452.28,951.271 1457.98,936.966 1463.67,922.684 1469.36,908.43 1475.06,894.205 1480.75,880.013 1486.45,865.858 1492.14,851.743 1497.84,837.67 1503.53,823.643 1509.23,809.665 1514.92,795.739 1520.62,781.869 1526.31,768.058 1532,754.308 1537.7,740.624 1543.39,727.009 1549.09,713.465 1554.78,699.996 1560.48,686.606 1566.17,673.297 1571.87,660.073 1577.56,646.938 1583.26,633.893 1588.95,620.944 1594.65,608.092 1600.34,595.342 1606.03,582.696 1611.73,570.157 1617.42,557.73 1623.12,545.417 1628.81,533.221 1634.51,521.146 1640.2,509.194 1645.9,497.369 1651.59,485.674 1657.29,474.112 1662.98,462.686 1668.67,451.4 1674.37,440.255 1680.06,429.256 1685.76,418.405 1691.45,407.705 1697.15,397.16 1702.84,386.771 1708.54,376.543 1714.23,366.477 1719.93,356.576 1725.62,346.844 1731.32,337.282 1737.01,327.895 1742.7,318.683 1748.4,309.651 1754.09,300.8 1759.79,292.133 1765.48,283.652 1771.18,275.36 1776.87,267.26 1782.57,259.352 1788.26,251.641 1793.96,244.128 1799.65,236.815 1805.34,229.704 1811.04,222.797 1816.73,216.097 1822.43,209.605 1828.12,203.324 1833.82,197.254 1839.51,191.399 1845.21,185.759 1850.9,180.336 1856.6,175.132 1862.29,170.148 1867.99,165.386 1873.68,160.847 1879.37,156.533 1885.07,152.445 1890.76,148.583 1896.46,144.95 1902.15,141.547 1907.85,138.373 1913.54,135.431 1919.24,132.721 1924.93,130.244 1930.63,128 1936.32,125.991 1942.01,124.217 1947.71,122.678 1953.4,121.375 1959.1,120.309 1964.79,119.479 1970.49,118.886 1976.18,118.531 1981.88,118.412 1987.57,118.531 1993.27,118.886 1998.96,119.479 2004.66,120.309 2010.35,121.375 2016.04,122.678 2021.74,124.217 2027.43,125.991 2033.13,128 2038.82,130.244 2044.52,132.721 2050.21,135.431 2055.91,138.373 2061.6,141.547 2067.3,144.95 2072.99,148.583 2078.69,152.445 2084.38,156.533 2090.07,160.847 2095.77,165.386 2101.46,170.148 2107.16,175.132 2112.85,180.336 2118.55,185.759 2124.24,191.399 2129.94,197.254 2135.63,203.324 2141.33,209.605 2147.02,216.097 2152.71,222.797 2158.41,229.704 2164.1,236.815 2169.8,244.128 2175.49,251.641 2181.19,259.352 2186.88,267.26 2192.58,275.36 2198.27,283.652 2203.97,292.133 2209.66,300.8 2215.36,309.651 2221.05,318.683 2226.74,327.895 2232.44,337.282 2238.13,346.844 2243.83,356.576 2249.52,366.477 2255.22,376.543 2260.91,386.771 2266.61,397.16 2272.3,407.705 2278,418.405 2283.69,429.256 2289.38,440.255 2295.08,451.4 2300.77,462.686 2306.47,474.112 2312.16,485.674 2317.86,497.369 2323.55,509.194 2329.25,521.146 2334.94,533.221 2340.64,545.417 2346.33,557.73 2352.03,570.157 2357.72,582.696 2363.41,595.342 2369.11,608.092 2374.8,620.944 2380.5,633.893 2386.19,646.938 2391.89,660.073 2397.58,673.297 2403.28,686.606 2408.97,699.996 2414.67,713.465 2420.36,727.009 2426.05,740.624 2431.75,754.308 2437.44,768.058 2443.14,781.869 2448.83,795.739 2454.53,809.665 2460.22,823.643 2465.92,837.67 2471.61,851.743 2477.31,865.858 2483,880.013 2488.7,894.205 2494.39,908.43 2500.08,922.684 2505.78,936.966 2511.47,951.271 2517.17,965.598 2522.86,979.942 2528.56,994.301 2534.25,1008.67 2539.95,1023.05 2545.64,1037.44 2551.34,1051.82 2557.03,1066.21 2562.72,1080.6 2568.42,1094.98 2574.11,1109.35 2579.81,1123.71 2585.5,1138.05 2591.2,1152.38 2596.89,1166.69 2602.59,1180.98 2608.28,1195.24 2613.98,1209.48 2619.67,1223.68 2625.37,1237.86 2631.06,1252 2636.75,1266.1 2642.45,1280.16 2648.14,1294.18 2653.84,1308.16 2659.53,1322.09 2665.23,1335.97 2670.92,1349.8 2676.62,1363.58 2682.31,1377.3 2688.01,1390.97 2693.7,1404.57 2699.4,1418.12 2705.09,1431.6 2710.78,1445.02 2716.48,1458.37 2722.17,1471.65 2727.87,1484.86 2733.56,1498 2739.26,1511.07 2744.95,1524.06 2750.65,1536.97 2756.34,1549.81 2762.04,1562.56 2767.73,1575.24 2773.42,1587.83 2779.12,1600.34 2784.81,1612.76 2790.51,1625.09 2796.2,1637.34 2801.9,1649.5 2807.59,1661.57 2813.29,1673.54 2818.98,1685.43 2824.68,1697.22 2830.37,1708.91 2836.07,1720.51 2841.76,1732.02 2847.45,1743.42 2853.15,1754.73 2858.84,1765.94 2864.54,1777.05 2870.23,1788.06 2875.93,1798.97 2881.62,1809.78 2887.32,1820.49 2893.01,1831.1 2898.71,1841.6 2904.4,1852 2910.09,1862.29 2915.79,1872.48 2921.48,1882.57 2927.18,1892.55 2932.87,1902.42 2938.57,1912.2 2944.26,1921.86 2949.96,1931.42 2955.65,1940.88 2961.35,1950.22 2967.04,1959.47 2972.74,1968.6 2978.43,1977.63 2984.12,1986.56 2989.82,1995.38 2995.51,2004.09 3001.21,2012.7 3006.9,2021.2 3012.6,2029.6 3018.29,2037.9 3023.99,2046.08 3029.68,2054.17 3035.38,2062.15 3041.07,2070.02 3046.76,2077.8 3052.46,2085.46 3058.15,2093.03 3063.85,2100.5 3069.54,2107.86 3075.24,2115.12 3080.93,2122.28 3086.63,2129.34 3092.32,2136.3 3098.02,2143.16 3103.71,2149.92 3109.41,2156.59 3115.1,2163.15 3120.79,2169.62 3126.49,2175.99 3132.18,2182.27 3137.88,2188.45 3143.57,2194.54 3149.27,2200.54 3154.96,2206.44 3160.66,2212.25 3166.35,2217.96 3172.05,2223.59 3177.74,2229.13 3183.44,2234.58 3189.13,2239.94 3194.82,2245.21 3200.52,2250.39 3206.21,2255.49 3211.91,2260.51 3217.6,2265.44 3223.3,2270.28 3228.99,2275.05 3234.69,2279.73 3240.38,2284.33 3246.08,2288.85 3251.77,2293.29 3257.46,2297.65 3263.16,2301.94 3268.85,2306.14 3274.55,2310.28 3280.24,2314.33 3285.94,2318.32 3291.63,2322.23 3297.33,2326.07 3303.02,2329.83 3308.72,2333.53 3314.41,2337.16 3320.11,2340.72 3325.8,2344.21 3331.49,2347.63 3337.19,2350.99 3342.88,2354.28 3348.58,2357.51 3354.27,2360.67 3359.97,2363.77 3365.66,2366.81 3371.36,2369.79 3377.05,2372.71 3382.75,2375.57 3388.44,2378.37 3394.13,2381.12 3399.83,2383.81 3405.52,2386.44 3411.22,2389.02 3416.91,2391.55 3422.61,2394.02 3428.3,2396.44 3434,2398.8 3439.69,2401.12 3445.39,2403.39 3451.08,2405.61 3456.78,2407.78 3462.47,2409.9 3468.16,2411.98 3473.86,2414.01 3479.55,2416 3485.25,2417.94 3490.94,2419.84 3496.64,2421.69 3502.33,2423.51 3508.03,2425.28 3513.72,2427.01 3519.42,2428.71 3525.11,2430.36 3530.8,2431.97 3536.5,2433.55 3542.19,2435.09 3547.89,2436.6 3553.58,2438.07 3559.28,2439.5 3564.97,2440.9 3570.67,2442.27 3576.36,2443.6 3582.06,2444.91 3587.75,2446.18 3593.45,2447.42 3599.14,2448.62 3604.83,2449.8 3610.53,2450.95 3616.22,2452.08 3621.92,2453.17 3627.61,2454.24 3633.31,2455.28 3639,2456.29 3644.7,2457.28 3650.39,2458.24 3656.09,2459.18 3661.78,2460.09 3667.47,2460.98 3673.17,2461.85 3678.86,2462.69 3684.56,2463.52 3690.25,2464.32 "/>
</svg>
