<?xml version="1.0" encoding="utf-8"?>
<svg xmlns="http://www.w3.org/2000/svg" xmlns:xlink="http://www.w3.org/1999/xlink" width="960" height="672" viewBox="0 0 3840 2688">
<defs>
  <clipPath id="clip110">
    <rect x="0" y="0" width="3840" height="2688"/>
  </clipPath>
</defs>
<path clip-path="url(#clip110)" d="M0 2688 L3840 2688 L3840 -1.47793e-13 L0 -1.47793e-13  Z" fill="#ffffff" fill-rule="evenodd" fill-opacity="1"/>
<defs>
  <clipPath id="clip111">
    <rect x="768" y="0" width="2689" height="2688"/>
  </clipPath>
</defs>
<path clip-path="url(#clip110)" d="M208.336 2561.84 L3792.76 2561.84 L3792.76 47.2441 L208.336 47.2441  Z" fill="#ffffff" fill-rule="evenodd" fill-opacity="1"/>
<defs>
  <clipPath id="clip112">
    <rect x="208" y="47" width="3585" height="2516"/>
  </clipPath>
</defs>
<polyline clip-path="url(#clip112)" style="stroke:#000000; stroke-linecap:round; stroke-linejoin:round; stroke-width:2; stroke-opacity:0.1; fill:none" points="309.782,2561.84 309.782,47.2441 "/>
<polyline clip-path="url(#clip112)" style="stroke:#000000; stroke-linecap:round; stroke-linejoin:round; stroke-width:2; stroke-opacity:0.1; fill:none" points="1155.16,2561.84 1155.16,47.2441 "/>
<polyline clip-path="url(#clip112)" style="stroke:#000000; stroke-linecap:round; stroke-linejoin:round; stroke-width:2; stroke-opacity:0.1; fill:none" points="2000.55,2561.84 2000.55,47.2441 "/>
<polyline clip-path="url(#clip112)" style="stroke:#000000; stroke-linecap:round; stroke-linejoin:round; stroke-width:2; stroke-opacity:0.1; fill:none" points="2845.93,2561.84 2845.93,47.2441 "/>
<polyline clip-path="url(#clip112)" style="stroke:#000000; stroke-linecap:round; stroke-linejoin:round; stroke-width:2; stroke-opacity:0.1; fill:none" points="3691.31,2561.84 3691.31,47.2441 "/>
<polyline clip-path="url(#clip112)" style="stroke:#000000; stroke-linecap:round; stroke-linejoin:round; stroke-width:2; stroke-opacity:0.1; fill:none" points="208.336,2415.54 3792.76,2415.54 "/>
<polyline clip-path="url(#clip112)" style="stroke:#000000; stroke-linecap:round; stroke-linejoin:round; stroke-width:2; stroke-opacity:0.1; fill:none" points="208.336,1992.85 3792.76,1992.85 "/>
<polyline clip-path="url(#clip112)" style="stroke:#000000; stroke-linecap:round; stroke-linejoin:round; stroke-width:2; stroke-opacity:0.1; fill:none" points="208.336,1570.16 3792.76,1570.16 "/>
<polyline clip-path="url(#clip112)" style="stroke:#000000; stroke-linecap:round; stroke-linejoin:round; stroke-width:2; stroke-opacity:0.1; fill:none" points="208.336,1147.47 3792.76,1147.47 "/>
<polyline clip-path="url(#clip112)" style="stroke:#000000; stroke-linecap:round; stroke-linejoin:round; stroke-width:2; stroke-opacity:0.1; fill:none" points="208.336,724.779 3792.76,724.779 "/>
<polyline clip-path="url(#clip112)" style="stroke:#000000; stroke-linecap:round; stroke-linejoin:round; stroke-width:2; stroke-opacity:0.1; fill:none" points="208.336,302.088 3792.76,302.088 "/>
<polyline clip-path="url(#clip110)" style="stroke:#000000; stroke-linecap:round; stroke-linejoin:round; stroke-width:4; stroke-opacity:1; fill:none" points="208.336,2561.84 3792.76,2561.84 "/>
<polyline clip-path="url(#clip110)" style="stroke:#000000; stroke-linecap:round; stroke-linejoin:round; stroke-width:4; stroke-opacity:1; fill:none" points="309.782,2561.84 309.782,2542.94 "/>
<polyline clip-path="url(#clip110)" style="stroke:#000000; stroke-linecap:round; stroke-linejoin:round; stroke-width:4; stroke-opacity:1; fill:none" points="1155.16,2561.84 1155.16,2542.94 "/>
<polyline clip-path="url(#clip110)" style="stroke:#000000; stroke-linecap:round; stroke-linejoin:round; stroke-width:4; stroke-opacity:1; fill:none" points="2000.55,2561.84 2000.55,2542.94 "/>
<polyline clip-path="url(#clip110)" style="stroke:#000000; stroke-linecap:round; stroke-linejoin:round; stroke-width:4; stroke-opacity:1; fill:none" points="2845.93,2561.84 2845.93,2542.94 "/>
<polyline clip-path="url(#clip110)" style="stroke:#000000; stroke-linecap:round; stroke-linejoin:round; stroke-width:4; stroke-opacity:1; fill:none" points="3691.31,2561.84 3691.31,2542.94 "/>
<path clip-path="url(#clip110)" d="M300.164 2631.82 L307.803 2631.82 L307.803 2605.46 L299.493 2607.13 L299.493 2602.87 L307.756 2601.2 L312.432 2601.2 L312.432 2631.82 L320.071 2631.82 L320.071 2635.76 L300.164 2635.76 L300.164 2631.82 Z" fill="#000000" fill-rule="nonzero" fill-opacity="1" /><path clip-path="url(#clip110)" d="M1149.82 2631.82 L1166.14 2631.82 L1166.14 2635.76 L1144.19 2635.76 L1144.19 2631.82 Q1146.85 2629.07 1151.44 2624.44 Q1156.04 2619.79 1157.22 2618.45 Q1159.47 2615.92 1160.35 2614.19 Q1161.25 2612.43 1161.25 2610.74 Q1161.25 2607.98 1159.31 2606.25 Q1157.39 2604.51 1154.28 2604.51 Q1152.09 2604.51 1149.63 2605.27 Q1147.2 2606.04 1144.42 2607.59 L1144.42 2602.87 Q1147.25 2601.73 1149.7 2601.15 Q1152.15 2600.57 1154.19 2600.57 Q1159.56 2600.57 1162.76 2603.26 Q1165.95 2605.95 1165.95 2610.44 Q1165.95 2612.57 1165.14 2614.49 Q1164.35 2616.38 1162.25 2618.98 Q1161.67 2619.65 1158.57 2622.87 Q1155.46 2626.06 1149.82 2631.82 Z" fill="#000000" fill-rule="nonzero" fill-opacity="1" /><path clip-path="url(#clip110)" d="M2004.79 2617.13 Q2008.15 2617.84 2010.03 2620.11 Q2011.92 2622.38 2011.92 2625.71 Q2011.92 2630.83 2008.4 2633.63 Q2004.89 2636.43 1998.4 2636.43 Q1996.23 2636.43 1993.91 2635.99 Q1991.62 2635.57 1989.17 2634.72 L1989.17 2630.2 Q1991.11 2631.34 1993.43 2631.92 Q1995.74 2632.5 1998.27 2632.5 Q2002.66 2632.5 2004.96 2630.76 Q2007.27 2629.02 2007.27 2625.71 Q2007.27 2622.66 2005.12 2620.95 Q2002.99 2619.21 1999.17 2619.21 L1995.14 2619.21 L1995.14 2615.37 L1999.35 2615.37 Q2002.8 2615.37 2004.63 2614 Q2006.46 2612.61 2006.46 2610.02 Q2006.46 2607.36 2004.56 2605.95 Q2002.69 2604.51 1999.17 2604.51 Q1997.25 2604.51 1995.05 2604.93 Q1992.85 2605.34 1990.21 2606.22 L1990.21 2602.06 Q1992.87 2601.32 1995.19 2600.95 Q1997.53 2600.57 1999.59 2600.57 Q2004.91 2600.57 2008.01 2603.01 Q2011.11 2605.41 2011.11 2609.53 Q2011.11 2612.4 2009.47 2614.39 Q2007.83 2616.36 2004.79 2617.13 Z" fill="#000000" fill-rule="nonzero" fill-opacity="1" /><path clip-path="url(#clip110)" d="M2848.94 2605.27 L2837.13 2623.72 L2848.94 2623.72 L2848.94 2605.27 M2847.71 2601.2 L2853.59 2601.2 L2853.59 2623.72 L2858.52 2623.72 L2858.52 2627.61 L2853.59 2627.61 L2853.59 2635.76 L2848.94 2635.76 L2848.94 2627.61 L2833.34 2627.61 L2833.34 2623.1 L2847.71 2601.2 Z" fill="#000000" fill-rule="nonzero" fill-opacity="1" /><path clip-path="url(#clip110)" d="M3681.59 2601.2 L3699.94 2601.2 L3699.94 2605.14 L3685.87 2605.14 L3685.87 2613.61 Q3686.89 2613.26 3687.91 2613.1 Q3688.93 2612.91 3689.94 2612.91 Q3695.73 2612.91 3699.11 2616.08 Q3702.49 2619.26 3702.49 2624.67 Q3702.49 2630.25 3699.02 2633.35 Q3695.55 2636.43 3689.23 2636.43 Q3687.05 2636.43 3684.78 2636.06 Q3682.54 2635.69 3680.13 2634.95 L3680.13 2630.25 Q3682.21 2631.38 3684.44 2631.94 Q3686.66 2632.5 3689.13 2632.5 Q3693.14 2632.5 3695.48 2630.39 Q3697.81 2628.28 3697.81 2624.67 Q3697.81 2621.06 3695.48 2618.95 Q3693.14 2616.85 3689.13 2616.85 Q3687.26 2616.85 3685.38 2617.26 Q3683.53 2617.68 3681.59 2618.56 L3681.59 2601.2 Z" fill="#000000" fill-rule="nonzero" fill-opacity="1" /><polyline clip-path="url(#clip110)" style="stroke:#000000; stroke-linecap:round; stroke-linejoin:round; stroke-width:4; stroke-opacity:1; fill:none" points="208.336,2561.84 208.336,47.2441 "/>
<polyline clip-path="url(#clip110)" style="stroke:#000000; stroke-linecap:round; stroke-linejoin:round; stroke-width:4; stroke-opacity:1; fill:none" points="208.336,2415.54 227.234,2415.54 "/>
<polyline clip-path="url(#clip110)" style="stroke:#000000; stroke-linecap:round; stroke-linejoin:round; stroke-width:4; stroke-opacity:1; fill:none" points="208.336,1992.85 227.234,1992.85 "/>
<polyline clip-path="url(#clip110)" style="stroke:#000000; stroke-linecap:round; stroke-linejoin:round; stroke-width:4; stroke-opacity:1; fill:none" points="208.336,1570.16 227.234,1570.16 "/>
<polyline clip-path="url(#clip110)" style="stroke:#000000; stroke-linecap:round; stroke-linejoin:round; stroke-width:4; stroke-opacity:1; fill:none" points="208.336,1147.47 227.234,1147.47 "/>
<polyline clip-path="url(#clip110)" style="stroke:#000000; stroke-linecap:round; stroke-linejoin:round; stroke-width:4; stroke-opacity:1; fill:none" points="208.336,724.779 227.234,724.779 "/>
<polyline clip-path="url(#clip110)" style="stroke:#000000; stroke-linecap:round; stroke-linejoin:round; stroke-width:4; stroke-opacity:1; fill:none" points="208.336,302.088 227.234,302.088 "/>
<path clip-path="url(#clip110)" d="M43.7921 2415.99 L73.4679 2415.99 L73.4679 2419.93 L43.7921 2419.93 L43.7921 2415.99 Z" fill="#000000" fill-rule="nonzero" fill-opacity="1" /><path clip-path="url(#clip110)" d="M84.3706 2428.89 L92.0095 2428.89 L92.0095 2402.52 L83.6993 2404.19 L83.6993 2399.93 L91.9632 2398.26 L96.6391 2398.26 L96.6391 2428.89 L104.278 2428.89 L104.278 2432.82 L84.3706 2432.82 L84.3706 2428.89 Z" fill="#000000" fill-rule="nonzero" fill-opacity="1" /><path clip-path="url(#clip110)" d="M113.722 2426.94 L118.607 2426.94 L118.607 2432.82 L113.722 2432.82 L113.722 2426.94 Z" fill="#000000" fill-rule="nonzero" fill-opacity="1" /><path clip-path="url(#clip110)" d="M138.792 2401.34 Q135.181 2401.34 133.352 2404.91 Q131.546 2408.45 131.546 2415.58 Q131.546 2422.68 133.352 2426.25 Q135.181 2429.79 138.792 2429.79 Q142.426 2429.79 144.231 2426.25 Q146.06 2422.68 146.06 2415.58 Q146.06 2408.45 144.231 2404.91 Q142.426 2401.34 138.792 2401.34 M138.792 2397.64 Q144.602 2397.64 147.657 2402.24 Q150.736 2406.83 150.736 2415.58 Q150.736 2424.3 147.657 2428.91 Q144.602 2433.49 138.792 2433.49 Q132.981 2433.49 129.903 2428.91 Q126.847 2424.3 126.847 2415.58 Q126.847 2406.83 129.903 2402.24 Q132.981 2397.64 138.792 2397.64 Z" fill="#000000" fill-rule="nonzero" fill-opacity="1" /><path clip-path="url(#clip110)" d="M44.7875 1993.3 L74.4633 1993.3 L74.4633 1997.24 L44.7875 1997.24 L44.7875 1993.3 Z" fill="#000000" fill-rule="nonzero" fill-opacity="1" /><path clip-path="url(#clip110)" d="M94.5557 1978.65 Q90.9447 1978.65 89.116 1982.22 Q87.3104 1985.76 87.3104 1992.89 Q87.3104 1999.99 89.116 2003.56 Q90.9447 2007.1 94.5557 2007.1 Q98.19 2007.1 99.9955 2003.56 Q101.824 1999.99 101.824 1992.89 Q101.824 1985.76 99.9955 1982.22 Q98.19 1978.65 94.5557 1978.65 M94.5557 1974.95 Q100.366 1974.95 103.421 1979.55 Q106.5 1984.14 106.5 1992.89 Q106.5 2001.61 103.421 2006.22 Q100.366 2010.8 94.5557 2010.8 Q88.7456 2010.8 85.6669 2006.22 Q82.6114 2001.61 82.6114 1992.89 Q82.6114 1984.14 85.6669 1979.55 Q88.7456 1974.95 94.5557 1974.95 Z" fill="#000000" fill-rule="nonzero" fill-opacity="1" /><path clip-path="url(#clip110)" d="M114.718 2004.25 L119.602 2004.25 L119.602 2010.13 L114.718 2010.13 L114.718 2004.25 Z" fill="#000000" fill-rule="nonzero" fill-opacity="1" /><path clip-path="url(#clip110)" d="M129.833 1975.57 L148.19 1975.57 L148.19 1979.51 L134.116 1979.51 L134.116 1987.98 Q135.134 1987.63 136.153 1987.47 Q137.171 1987.28 138.19 1987.28 Q143.977 1987.28 147.356 1990.46 Q150.736 1993.63 150.736 1999.04 Q150.736 2004.62 147.264 2007.72 Q143.792 2010.8 137.472 2010.8 Q135.296 2010.8 133.028 2010.43 Q130.782 2010.06 128.375 2009.32 L128.375 2004.62 Q130.458 2005.76 132.681 2006.31 Q134.903 2006.87 137.38 2006.87 Q141.384 2006.87 143.722 2004.76 Q146.06 2002.66 146.06 1999.04 Q146.06 1995.43 143.722 1993.33 Q141.384 1991.22 137.38 1991.22 Q135.505 1991.22 133.63 1991.64 Q131.778 1992.05 129.833 1992.93 L129.833 1975.57 Z" fill="#000000" fill-rule="nonzero" fill-opacity="1" /><path clip-path="url(#clip110)" d="M93.5604 1555.96 Q89.9493 1555.96 88.1206 1559.52 Q86.315 1563.07 86.315 1570.2 Q86.315 1577.3 88.1206 1580.87 Q89.9493 1584.41 93.5604 1584.41 Q97.1946 1584.41 99.0002 1580.87 Q100.829 1577.3 100.829 1570.2 Q100.829 1563.07 99.0002 1559.52 Q97.1946 1555.96 93.5604 1555.96 M93.5604 1552.26 Q99.3705 1552.26 102.426 1556.86 Q105.505 1561.45 105.505 1570.2 Q105.505 1578.92 102.426 1583.53 Q99.3705 1588.11 93.5604 1588.11 Q87.7502 1588.11 84.6715 1583.53 Q81.616 1578.92 81.616 1570.2 Q81.616 1561.45 84.6715 1556.86 Q87.7502 1552.26 93.5604 1552.26 Z" fill="#000000" fill-rule="nonzero" fill-opacity="1" /><path clip-path="url(#clip110)" d="M113.722 1581.56 L118.607 1581.56 L118.607 1587.44 L113.722 1587.44 L113.722 1581.56 Z" fill="#000000" fill-rule="nonzero" fill-opacity="1" /><path clip-path="url(#clip110)" d="M138.792 1555.96 Q135.181 1555.96 133.352 1559.52 Q131.546 1563.07 131.546 1570.2 Q131.546 1577.3 133.352 1580.87 Q135.181 1584.41 138.792 1584.41 Q142.426 1584.41 144.231 1580.87 Q146.06 1577.3 146.06 1570.2 Q146.06 1563.07 144.231 1559.52 Q142.426 1555.96 138.792 1555.96 M138.792 1552.26 Q144.602 1552.26 147.657 1556.86 Q150.736 1561.45 150.736 1570.2 Q150.736 1578.92 147.657 1583.53 Q144.602 1588.11 138.792 1588.11 Q132.981 1588.11 129.903 1583.53 Q126.847 1578.92 126.847 1570.2 Q126.847 1561.45 129.903 1556.86 Q132.981 1552.26 138.792 1552.26 Z" fill="#000000" fill-rule="nonzero" fill-opacity="1" /><path clip-path="url(#clip110)" d="M94.5557 1133.27 Q90.9447 1133.27 89.116 1136.83 Q87.3104 1140.38 87.3104 1147.5 Q87.3104 1154.61 89.116 1158.18 Q90.9447 1161.72 94.5557 1161.72 Q98.19 1161.72 99.9955 1158.18 Q101.824 1154.61 101.824 1147.5 Q101.824 1140.38 99.9955 1136.83 Q98.19 1133.27 94.5557 1133.27 M94.5557 1129.56 Q100.366 1129.56 103.421 1134.17 Q106.5 1138.75 106.5 1147.5 Q106.5 1156.23 103.421 1160.84 Q100.366 1165.42 94.5557 1165.42 Q88.7456 1165.42 85.6669 1160.84 Q82.6114 1156.23 82.6114 1147.5 Q82.6114 1138.75 85.6669 1134.17 Q88.7456 1129.56 94.5557 1129.56 Z" fill="#000000" fill-rule="nonzero" fill-opacity="1" /><path clip-path="url(#clip110)" d="M114.718 1158.87 L119.602 1158.87 L119.602 1164.75 L114.718 1164.75 L114.718 1158.87 Z" fill="#000000" fill-rule="nonzero" fill-opacity="1" /><path clip-path="url(#clip110)" d="M129.833 1130.19 L148.19 1130.19 L148.19 1134.13 L134.116 1134.13 L134.116 1142.6 Q135.134 1142.25 136.153 1142.09 Q137.171 1141.9 138.19 1141.9 Q143.977 1141.9 147.356 1145.07 Q150.736 1148.25 150.736 1153.66 Q150.736 1159.24 147.264 1162.34 Q143.792 1165.42 137.472 1165.42 Q135.296 1165.42 133.028 1165.05 Q130.782 1164.68 128.375 1163.94 L128.375 1159.24 Q130.458 1160.37 132.681 1160.93 Q134.903 1161.49 137.38 1161.49 Q141.384 1161.49 143.722 1159.38 Q146.06 1157.27 146.06 1153.66 Q146.06 1150.05 143.722 1147.94 Q141.384 1145.84 137.38 1145.84 Q135.505 1145.84 133.63 1146.25 Q131.778 1146.67 129.833 1147.55 L129.833 1130.19 Z" fill="#000000" fill-rule="nonzero" fill-opacity="1" /><path clip-path="url(#clip110)" d="M84.3706 738.124 L92.0095 738.124 L92.0095 711.758 L83.6993 713.425 L83.6993 709.166 L91.9632 707.499 L96.6391 707.499 L96.6391 738.124 L104.278 738.124 L104.278 742.059 L84.3706 742.059 L84.3706 738.124 Z" fill="#000000" fill-rule="nonzero" fill-opacity="1" /><path clip-path="url(#clip110)" d="M113.722 736.179 L118.607 736.179 L118.607 742.059 L113.722 742.059 L113.722 736.179 Z" fill="#000000" fill-rule="nonzero" fill-opacity="1" /><path clip-path="url(#clip110)" d="M138.792 710.578 Q135.181 710.578 133.352 714.142 Q131.546 717.684 131.546 724.814 Q131.546 731.92 133.352 735.485 Q135.181 739.027 138.792 739.027 Q142.426 739.027 144.231 735.485 Q146.06 731.92 146.06 724.814 Q146.06 717.684 144.231 714.142 Q142.426 710.578 138.792 710.578 M138.792 706.874 Q144.602 706.874 147.657 711.48 Q150.736 716.064 150.736 724.814 Q150.736 733.54 147.657 738.147 Q144.602 742.73 138.792 742.73 Q132.981 742.73 129.903 738.147 Q126.847 733.54 126.847 724.814 Q126.847 716.064 129.903 711.48 Q132.981 706.874 138.792 706.874 Z" fill="#000000" fill-rule="nonzero" fill-opacity="1" /><path clip-path="url(#clip110)" d="M85.366 315.433 L93.0048 315.433 L93.0048 289.067 L84.6947 290.734 L84.6947 286.475 L92.9585 284.808 L97.6344 284.808 L97.6344 315.433 L105.273 315.433 L105.273 319.368 L85.366 319.368 L85.366 315.433 Z" fill="#000000" fill-rule="nonzero" fill-opacity="1" /><path clip-path="url(#clip110)" d="M114.718 313.488 L119.602 313.488 L119.602 319.368 L114.718 319.368 L114.718 313.488 Z" fill="#000000" fill-rule="nonzero" fill-opacity="1" /><path clip-path="url(#clip110)" d="M129.833 284.808 L148.19 284.808 L148.19 288.743 L134.116 288.743 L134.116 297.215 Q135.134 296.868 136.153 296.706 Q137.171 296.521 138.19 296.521 Q143.977 296.521 147.356 299.692 Q150.736 302.863 150.736 308.28 Q150.736 313.859 147.264 316.96 Q143.792 320.039 137.472 320.039 Q135.296 320.039 133.028 319.669 Q130.782 319.298 128.375 318.558 L128.375 313.859 Q130.458 314.993 132.681 315.548 Q134.903 316.104 137.38 316.104 Q141.384 316.104 143.722 313.998 Q146.06 311.891 146.06 308.28 Q146.06 304.669 143.722 302.562 Q141.384 300.456 137.38 300.456 Q135.505 300.456 133.63 300.873 Q131.778 301.289 129.833 302.169 L129.833 284.808 Z" fill="#000000" fill-rule="nonzero" fill-opacity="1" /><polyline clip-path="url(#clip112)" style="stroke:#009af9; stroke-linecap:round; stroke-linejoin:round; stroke-width:4; stroke-opacity:1; fill:none" points="309.782,1049.46 1155.16,1404.69 2000.55,1559.63 2845.93,1306.41 3691.31,1473.11 "/>
<circle clip-path="url(#clip112)" cx="309.782" cy="1049.46" r="14.4" fill="#e26f46" fill-rule="evenodd" fill-opacity="1" stroke="#000000" stroke-opacity="1" stroke-width="5.376"/>
<circle clip-path="url(#clip112)" cx="1155.16" cy="1404.69" r="14.4" fill="#e26f46" fill-rule="evenodd" fill-opacity="1" stroke="#000000" stroke-opacity="1" stroke-width="5.376"/>
<circle clip-path="url(#clip112)" cx="2000.55" cy="1559.63" r="14.4" fill="#e26f46" fill-rule="evenodd" fill-opacity="1" stroke="#000000" stroke-opacity="1" stroke-width="5.376"/>
<circle clip-path="url(#clip112)" cx="2845.93" cy="1306.41" r="14.4" fill="#e26f46" fill-rule="evenodd" fill-opacity="1" stroke="#000000" stroke-opacity="1" stroke-width="5.376"/>
<circle clip-path="url(#clip112)" cx="3691.31" cy="1473.11" r="14.4" fill="#e26f46" fill-rule="evenodd" fill-opacity="1" stroke="#000000" stroke-opacity="1" stroke-width="5.376"/>
</svg>
