<?xml version="1.0" encoding="utf-8"?>
<svg xmlns="http://www.w3.org/2000/svg" xmlns:xlink="http://www.w3.org/1999/xlink" width="528" height="336" viewBox="0 0 2112 1344">
<defs>
  <clipPath id="clip330">
    <rect x="0" y="0" width="2112" height="1344"/>
  </clipPath>
</defs>
<path clip-path="url(#clip330)" d="M0 1344 L2112 1344 L2112 2.13163e-14 L0 2.13163e-14  Z" fill="#ffffff" fill-rule="evenodd" fill-opacity="1"/>
<defs>
  <clipPath id="clip331">
    <rect x="227" y="47" width="1838" height="1127"/>
  </clipPath>
</defs>
<path clip-path="url(#clip330)" d="M227.349 1173.47 L2064.76 1173.47 L2064.76 47.2441 L227.349 47.2441  Z" fill="#ffffff" fill-rule="evenodd" fill-opacity="1"/>
<polyline clip-path="url(#clip331)" style="stroke:#000000; stroke-linecap:round; stroke-linejoin:round; stroke-width:2; stroke-opacity:0.1; fill:none" points="461.815,1173.47 461.815,47.2441 "/>
<polyline clip-path="url(#clip331)" style="stroke:#000000; stroke-linecap:round; stroke-linejoin:round; stroke-width:2; stroke-opacity:0.1; fill:none" points="917.973,1173.47 917.973,47.2441 "/>
<polyline clip-path="url(#clip331)" style="stroke:#000000; stroke-linecap:round; stroke-linejoin:round; stroke-width:2; stroke-opacity:0.1; fill:none" points="1374.13,1173.47 1374.13,47.2441 "/>
<polyline clip-path="url(#clip331)" style="stroke:#000000; stroke-linecap:round; stroke-linejoin:round; stroke-width:2; stroke-opacity:0.1; fill:none" points="1830.29,1173.47 1830.29,47.2441 "/>
<polyline clip-path="url(#clip331)" style="stroke:#000000; stroke-linecap:round; stroke-linejoin:round; stroke-width:2; stroke-opacity:0.1; fill:none" points="227.349,1141.6 2064.76,1141.6 "/>
<polyline clip-path="url(#clip331)" style="stroke:#000000; stroke-linecap:round; stroke-linejoin:round; stroke-width:2; stroke-opacity:0.1; fill:none" points="227.349,785.06 2064.76,785.06 "/>
<polyline clip-path="url(#clip331)" style="stroke:#000000; stroke-linecap:round; stroke-linejoin:round; stroke-width:2; stroke-opacity:0.1; fill:none" points="227.349,428.524 2064.76,428.524 "/>
<polyline clip-path="url(#clip331)" style="stroke:#000000; stroke-linecap:round; stroke-linejoin:round; stroke-width:2; stroke-opacity:0.1; fill:none" points="227.349,71.9877 2064.76,71.9877 "/>
<polyline clip-path="url(#clip330)" style="stroke:#000000; stroke-linecap:round; stroke-linejoin:round; stroke-width:4; stroke-opacity:1; fill:none" points="227.349,1173.47 2064.76,1173.47 "/>
<polyline clip-path="url(#clip330)" style="stroke:#000000; stroke-linecap:round; stroke-linejoin:round; stroke-width:4; stroke-opacity:1; fill:none" points="461.815,1173.47 461.815,1154.57 "/>
<polyline clip-path="url(#clip330)" style="stroke:#000000; stroke-linecap:round; stroke-linejoin:round; stroke-width:4; stroke-opacity:1; fill:none" points="917.973,1173.47 917.973,1154.57 "/>
<polyline clip-path="url(#clip330)" style="stroke:#000000; stroke-linecap:round; stroke-linejoin:round; stroke-width:4; stroke-opacity:1; fill:none" points="1374.13,1173.47 1374.13,1154.57 "/>
<polyline clip-path="url(#clip330)" style="stroke:#000000; stroke-linecap:round; stroke-linejoin:round; stroke-width:4; stroke-opacity:1; fill:none" points="1830.29,1173.47 1830.29,1154.57 "/>
<path clip-path="url(#clip330)" d="M452.197 1229.63 L459.836 1229.63 L459.836 1203.27 L451.526 1204.93 L451.526 1200.67 L459.789 1199.01 L464.465 1199.01 L464.465 1229.63 L472.104 1229.63 L472.104 1233.57 L452.197 1233.57 L452.197 1229.63 Z" fill="#000000" fill-rule="nonzero" fill-opacity="1" /><path clip-path="url(#clip330)" d="M912.626 1229.63 L928.946 1229.63 L928.946 1233.57 L907.001 1233.57 L907.001 1229.63 Q909.663 1226.88 914.247 1222.25 Q918.853 1217.59 920.034 1216.25 Q922.279 1213.73 923.159 1211.99 Q924.061 1210.23 924.061 1208.54 Q924.061 1205.79 922.117 1204.05 Q920.196 1202.32 917.094 1202.32 Q914.895 1202.32 912.441 1203.08 Q910.01 1203.84 907.233 1205.4 L907.233 1200.67 Q910.057 1199.54 912.51 1198.96 Q914.964 1198.38 917.001 1198.38 Q922.371 1198.38 925.566 1201.07 Q928.76 1203.75 928.76 1208.24 Q928.76 1210.37 927.95 1212.29 Q927.163 1214.19 925.057 1216.78 Q924.478 1217.46 921.376 1220.67 Q918.274 1223.87 912.626 1229.63 Z" fill="#000000" fill-rule="nonzero" fill-opacity="1" /><path clip-path="url(#clip330)" d="M1378.38 1214.93 Q1381.74 1215.65 1383.61 1217.92 Q1385.51 1220.19 1385.51 1223.52 Q1385.51 1228.64 1381.99 1231.44 Q1378.47 1234.24 1371.99 1234.24 Q1369.81 1234.24 1367.5 1233.8 Q1365.21 1233.38 1362.75 1232.53 L1362.75 1228.01 Q1364.7 1229.15 1367.01 1229.72 Q1369.33 1230.3 1371.85 1230.3 Q1376.25 1230.3 1378.54 1228.57 Q1380.86 1226.83 1380.86 1223.52 Q1380.86 1220.46 1378.7 1218.75 Q1376.57 1217.02 1372.75 1217.02 L1368.73 1217.02 L1368.73 1213.17 L1372.94 1213.17 Q1376.39 1213.17 1378.22 1211.81 Q1380.05 1210.42 1380.05 1207.83 Q1380.05 1205.16 1378.15 1203.75 Q1376.27 1202.32 1372.75 1202.32 Q1370.83 1202.32 1368.63 1202.73 Q1366.44 1203.15 1363.8 1204.03 L1363.8 1199.86 Q1366.46 1199.12 1368.77 1198.75 Q1371.11 1198.38 1373.17 1198.38 Q1378.5 1198.38 1381.6 1200.81 Q1384.7 1203.22 1384.7 1207.34 Q1384.7 1210.21 1383.06 1212.2 Q1381.41 1214.17 1378.38 1214.93 Z" fill="#000000" fill-rule="nonzero" fill-opacity="1" /><path clip-path="url(#clip330)" d="M1833.3 1203.08 L1821.49 1221.53 L1833.3 1221.53 L1833.3 1203.08 M1832.07 1199.01 L1837.95 1199.01 L1837.95 1221.53 L1842.88 1221.53 L1842.88 1225.42 L1837.95 1225.42 L1837.95 1233.57 L1833.3 1233.57 L1833.3 1225.42 L1817.7 1225.42 L1817.7 1220.9 L1832.07 1199.01 Z" fill="#000000" fill-rule="nonzero" fill-opacity="1" /><path clip-path="url(#clip330)" d="M841.279 1266.49 L849.936 1266.49 L871.006 1306.25 L871.006 1266.49 L877.245 1266.49 L877.245 1314.01 L868.587 1314.01 L847.517 1274.26 L847.517 1314.01 L841.279 1314.01 L841.279 1266.49 Z" fill="#000000" fill-rule="nonzero" fill-opacity="1" /><path clip-path="url(#clip330)" d="M889.18 1299.95 L889.18 1278.37 L895.037 1278.37 L895.037 1299.72 Q895.037 1304.78 897.01 1307.33 Q898.984 1309.85 902.93 1309.85 Q907.673 1309.85 910.41 1306.82 Q913.179 1303.8 913.179 1298.58 L913.179 1278.37 L919.036 1278.37 L919.036 1314.01 L913.179 1314.01 L913.179 1308.54 Q911.047 1311.79 908.214 1313.38 Q905.413 1314.94 901.689 1314.94 Q895.546 1314.94 892.363 1311.12 Q889.18 1307.3 889.18 1299.95 M903.917 1277.51 L903.917 1277.51 Z" fill="#000000" fill-rule="nonzero" fill-opacity="1" /><path clip-path="url(#clip330)" d="M958.853 1285.21 Q961.049 1281.26 964.105 1279.39 Q967.16 1277.51 971.298 1277.51 Q976.868 1277.51 979.892 1281.42 Q982.915 1285.31 982.915 1292.5 L982.915 1314.01 L977.027 1314.01 L977.027 1292.69 Q977.027 1287.57 975.213 1285.08 Q973.399 1282.6 969.675 1282.6 Q965.123 1282.6 962.482 1285.62 Q959.84 1288.65 959.84 1293.87 L959.84 1314.01 L953.952 1314.01 L953.952 1292.69 Q953.952 1287.53 952.137 1285.08 Q950.323 1282.6 946.535 1282.6 Q942.048 1282.6 939.406 1285.66 Q936.764 1288.68 936.764 1293.87 L936.764 1314.01 L930.876 1314.01 L930.876 1278.37 L936.764 1278.37 L936.764 1283.9 Q938.769 1280.63 941.57 1279.07 Q944.371 1277.51 948.222 1277.51 Q952.105 1277.51 954.811 1279.48 Q957.548 1281.45 958.853 1285.21 Z" fill="#000000" fill-rule="nonzero" fill-opacity="1" /><path clip-path="url(#clip330)" d="M1020.19 1296.22 Q1020.19 1289.76 1017.51 1286.1 Q1014.87 1282.41 1010.22 1282.41 Q1005.58 1282.41 1002.9 1286.1 Q1000.26 1289.76 1000.26 1296.22 Q1000.26 1302.68 1002.9 1306.38 Q1005.58 1310.04 1010.22 1310.04 Q1014.87 1310.04 1017.51 1306.38 Q1020.19 1302.68 1020.19 1296.22 M1000.26 1283.78 Q1002.11 1280.59 1004.91 1279.07 Q1007.74 1277.51 1011.66 1277.51 Q1018.15 1277.51 1022.19 1282.66 Q1026.27 1287.82 1026.27 1296.22 Q1026.27 1304.63 1022.19 1309.78 Q1018.15 1314.94 1011.66 1314.94 Q1007.74 1314.94 1004.91 1313.41 Q1002.11 1311.85 1000.26 1308.67 L1000.26 1314.01 L994.374 1314.01 L994.374 1264.49 L1000.26 1264.49 L1000.26 1283.78 Z" fill="#000000" fill-rule="nonzero" fill-opacity="1" /><path clip-path="url(#clip330)" d="M1066.47 1294.73 L1066.47 1297.59 L1039.54 1297.59 Q1039.92 1303.64 1043.17 1306.82 Q1046.45 1309.97 1052.27 1309.97 Q1055.64 1309.97 1058.79 1309.14 Q1061.98 1308.32 1065.1 1306.66 L1065.1 1312.2 Q1061.95 1313.54 1058.64 1314.24 Q1055.33 1314.94 1051.92 1314.94 Q1043.39 1314.94 1038.39 1309.97 Q1033.43 1305.01 1033.43 1296.54 Q1033.43 1287.79 1038.14 1282.66 Q1042.88 1277.51 1050.9 1277.51 Q1058.09 1277.51 1062.26 1282.15 Q1066.47 1286.77 1066.47 1294.73 M1060.61 1293.01 Q1060.55 1288.2 1057.9 1285.34 Q1055.29 1282.47 1050.96 1282.47 Q1046.06 1282.47 1043.1 1285.24 Q1040.18 1288.01 1039.73 1293.04 L1060.61 1293.01 Z" fill="#000000" fill-rule="nonzero" fill-opacity="1" /><path clip-path="url(#clip330)" d="M1096.73 1283.84 Q1095.75 1283.27 1094.57 1283.01 Q1093.42 1282.73 1092.02 1282.73 Q1087.06 1282.73 1084.38 1285.97 Q1081.74 1289.19 1081.74 1295.24 L1081.74 1314.01 L1075.85 1314.01 L1075.85 1278.37 L1081.74 1278.37 L1081.74 1283.9 Q1083.59 1280.66 1086.55 1279.1 Q1089.51 1277.51 1093.74 1277.51 Q1094.35 1277.51 1095.08 1277.6 Q1095.81 1277.67 1096.7 1277.83 L1096.73 1283.84 Z" fill="#000000" fill-rule="nonzero" fill-opacity="1" /><path clip-path="url(#clip330)" d="M1137.41 1282.47 Q1132.7 1282.47 1129.96 1286.16 Q1127.23 1289.83 1127.23 1296.22 Q1127.23 1302.62 1129.93 1306.31 Q1132.67 1309.97 1137.41 1309.97 Q1142.09 1309.97 1144.83 1306.28 Q1147.56 1302.59 1147.56 1296.22 Q1147.56 1289.89 1144.83 1286.2 Q1142.09 1282.47 1137.41 1282.47 M1137.41 1277.51 Q1145.05 1277.51 1149.41 1282.47 Q1153.77 1287.44 1153.77 1296.22 Q1153.77 1304.98 1149.41 1309.97 Q1145.05 1314.94 1137.41 1314.94 Q1129.74 1314.94 1125.38 1309.97 Q1121.05 1304.98 1121.05 1296.22 Q1121.05 1287.44 1125.38 1282.47 Q1129.74 1277.51 1137.41 1277.51 Z" fill="#000000" fill-rule="nonzero" fill-opacity="1" /><path clip-path="url(#clip330)" d="M1181.53 1264.49 L1181.53 1269.36 L1175.92 1269.36 Q1172.77 1269.36 1171.53 1270.63 Q1170.32 1271.91 1170.32 1275.22 L1170.32 1278.37 L1179.97 1278.37 L1179.97 1282.92 L1170.32 1282.92 L1170.32 1314.01 L1164.43 1314.01 L1164.43 1282.92 L1158.83 1282.92 L1158.83 1278.37 L1164.43 1278.37 L1164.43 1275.88 Q1164.43 1269.93 1167.2 1267.23 Q1169.97 1264.49 1175.99 1264.49 L1181.53 1264.49 Z" fill="#000000" fill-rule="nonzero" fill-opacity="1" /><path clip-path="url(#clip330)" d="M1213.83 1271.78 L1213.83 1289.63 L1221.92 1289.63 Q1226.4 1289.63 1228.85 1287.31 Q1231.31 1284.99 1231.31 1280.69 Q1231.31 1276.43 1228.85 1274.1 Q1226.4 1271.78 1221.92 1271.78 L1213.83 1271.78 M1207.4 1266.49 L1221.92 1266.49 Q1229.9 1266.49 1233.98 1270.12 Q1238.08 1273.72 1238.08 1280.69 Q1238.08 1287.72 1233.98 1291.32 Q1229.9 1294.92 1221.92 1294.92 L1213.83 1294.92 L1213.83 1314.01 L1207.4 1314.01 L1207.4 1266.49 Z" fill="#000000" fill-rule="nonzero" fill-opacity="1" /><path clip-path="url(#clip330)" d="M1274.62 1294.73 L1274.62 1297.59 L1247.7 1297.59 Q1248.08 1303.64 1251.33 1306.82 Q1254.6 1309.97 1260.43 1309.97 Q1263.8 1309.97 1266.95 1309.14 Q1270.14 1308.32 1273.26 1306.66 L1273.26 1312.2 Q1270.1 1313.54 1266.79 1314.24 Q1263.48 1314.94 1260.08 1314.94 Q1251.55 1314.94 1246.55 1309.97 Q1241.59 1305.01 1241.59 1296.54 Q1241.59 1287.79 1246.3 1282.66 Q1251.04 1277.51 1259.06 1277.51 Q1266.25 1277.51 1270.42 1282.15 Q1274.62 1286.77 1274.62 1294.73 M1268.77 1293.01 Q1268.7 1288.2 1266.06 1285.34 Q1263.45 1282.47 1259.12 1282.47 Q1254.22 1282.47 1251.26 1285.24 Q1248.33 1288.01 1247.89 1293.04 L1268.77 1293.01 Z" fill="#000000" fill-rule="nonzero" fill-opacity="1" /><path clip-path="url(#clip330)" d="M1304.89 1283.84 Q1303.91 1283.27 1302.73 1283.01 Q1301.58 1282.73 1300.18 1282.73 Q1295.22 1282.73 1292.54 1285.97 Q1289.9 1289.19 1289.9 1295.24 L1289.9 1314.01 L1284.01 1314.01 L1284.01 1278.37 L1289.9 1278.37 L1289.9 1283.9 Q1291.75 1280.66 1294.71 1279.1 Q1297.67 1277.51 1301.9 1277.51 Q1302.51 1277.51 1303.24 1277.6 Q1303.97 1277.67 1304.86 1277.83 L1304.89 1283.84 Z" fill="#000000" fill-rule="nonzero" fill-opacity="1" /><path clip-path="url(#clip330)" d="M1333.76 1279.42 L1333.76 1284.96 Q1331.28 1283.68 1328.61 1283.05 Q1325.93 1282.41 1323.07 1282.41 Q1318.71 1282.41 1316.51 1283.75 Q1314.35 1285.08 1314.35 1287.76 Q1314.35 1289.79 1315.91 1290.97 Q1317.47 1292.12 1322.18 1293.17 L1324.18 1293.61 Q1330.42 1294.95 1333.03 1297.4 Q1335.67 1299.82 1335.67 1304.18 Q1335.67 1309.14 1331.72 1312.04 Q1327.81 1314.94 1320.93 1314.94 Q1318.07 1314.94 1314.95 1314.36 Q1311.86 1313.82 1308.43 1312.71 L1308.43 1306.66 Q1311.67 1308.35 1314.82 1309.21 Q1317.97 1310.04 1321.06 1310.04 Q1325.2 1310.04 1327.43 1308.64 Q1329.66 1307.2 1329.66 1304.63 Q1329.66 1302.24 1328.03 1300.97 Q1326.44 1299.69 1321 1298.51 L1318.96 1298.04 Q1313.52 1296.89 1311.1 1294.54 Q1308.68 1292.15 1308.68 1288.01 Q1308.68 1282.98 1312.25 1280.24 Q1315.81 1277.51 1322.37 1277.51 Q1325.61 1277.51 1328.48 1277.98 Q1331.34 1278.46 1333.76 1279.42 Z" fill="#000000" fill-rule="nonzero" fill-opacity="1" /><path clip-path="url(#clip330)" d="M1358.81 1282.47 Q1354.1 1282.47 1351.36 1286.16 Q1348.63 1289.83 1348.63 1296.22 Q1348.63 1302.62 1351.33 1306.31 Q1354.07 1309.97 1358.81 1309.97 Q1363.49 1309.97 1366.23 1306.28 Q1368.96 1302.59 1368.96 1296.22 Q1368.96 1289.89 1366.23 1286.2 Q1363.49 1282.47 1358.81 1282.47 M1358.81 1277.51 Q1366.45 1277.51 1370.81 1282.47 Q1375.17 1287.44 1375.17 1296.22 Q1375.17 1304.98 1370.81 1309.97 Q1366.45 1314.94 1358.81 1314.94 Q1351.14 1314.94 1346.78 1309.97 Q1342.45 1304.98 1342.45 1296.22 Q1342.45 1287.44 1346.78 1282.47 Q1351.14 1277.51 1358.81 1277.51 Z" fill="#000000" fill-rule="nonzero" fill-opacity="1" /><path clip-path="url(#clip330)" d="M1414.51 1292.5 L1414.51 1314.01 L1408.65 1314.01 L1408.65 1292.69 Q1408.65 1287.63 1406.68 1285.11 Q1404.71 1282.6 1400.76 1282.6 Q1396.02 1282.6 1393.28 1285.62 Q1390.54 1288.65 1390.54 1293.87 L1390.54 1314.01 L1384.66 1314.01 L1384.66 1278.37 L1390.54 1278.37 L1390.54 1283.9 Q1392.64 1280.69 1395.48 1279.1 Q1398.34 1277.51 1402.07 1277.51 Q1408.21 1277.51 1411.36 1281.33 Q1414.51 1285.11 1414.51 1292.5 Z" fill="#000000" fill-rule="nonzero" fill-opacity="1" /><path clip-path="url(#clip330)" d="M1448.92 1279.42 L1448.92 1284.96 Q1446.43 1283.68 1443.76 1283.05 Q1441.09 1282.41 1438.22 1282.41 Q1433.86 1282.41 1431.67 1283.75 Q1429.5 1285.08 1429.5 1287.76 Q1429.5 1289.79 1431.06 1290.97 Q1432.62 1292.12 1437.33 1293.17 L1439.34 1293.61 Q1445.58 1294.95 1448.18 1297.4 Q1450.83 1299.82 1450.83 1304.18 Q1450.83 1309.14 1446.88 1312.04 Q1442.97 1314.94 1436.09 1314.94 Q1433.23 1314.94 1430.11 1314.36 Q1427.02 1313.82 1423.58 1312.71 L1423.58 1306.66 Q1426.83 1308.35 1429.98 1309.21 Q1433.13 1310.04 1436.22 1310.04 Q1440.36 1310.04 1442.58 1308.64 Q1444.81 1307.2 1444.81 1304.63 Q1444.81 1302.24 1443.19 1300.97 Q1441.6 1299.69 1436.15 1298.51 L1434.12 1298.04 Q1428.67 1296.89 1426.26 1294.54 Q1423.84 1292.15 1423.84 1288.01 Q1423.84 1282.98 1427.4 1280.24 Q1430.97 1277.51 1437.52 1277.51 Q1440.77 1277.51 1443.63 1277.98 Q1446.5 1278.46 1448.92 1279.42 Z" fill="#000000" fill-rule="nonzero" fill-opacity="1" /><polyline clip-path="url(#clip330)" style="stroke:#000000; stroke-linecap:round; stroke-linejoin:round; stroke-width:4; stroke-opacity:1; fill:none" points="227.349,1173.47 227.349,47.2441 "/>
<polyline clip-path="url(#clip330)" style="stroke:#000000; stroke-linecap:round; stroke-linejoin:round; stroke-width:4; stroke-opacity:1; fill:none" points="227.349,1141.6 246.247,1141.6 "/>
<polyline clip-path="url(#clip330)" style="stroke:#000000; stroke-linecap:round; stroke-linejoin:round; stroke-width:4; stroke-opacity:1; fill:none" points="227.349,785.06 246.247,785.06 "/>
<polyline clip-path="url(#clip330)" style="stroke:#000000; stroke-linecap:round; stroke-linejoin:round; stroke-width:4; stroke-opacity:1; fill:none" points="227.349,428.524 246.247,428.524 "/>
<polyline clip-path="url(#clip330)" style="stroke:#000000; stroke-linecap:round; stroke-linejoin:round; stroke-width:4; stroke-opacity:1; fill:none" points="227.349,71.9877 246.247,71.9877 "/>
<path clip-path="url(#clip330)" d="M183.725 1127.4 Q180.114 1127.4 178.285 1130.96 Q176.48 1134.5 176.48 1141.63 Q176.48 1148.74 178.285 1152.3 Q180.114 1155.84 183.725 1155.84 Q187.359 1155.84 189.165 1152.3 Q190.993 1148.74 190.993 1141.63 Q190.993 1134.5 189.165 1130.96 Q187.359 1127.4 183.725 1127.4 M183.725 1123.69 Q189.535 1123.69 192.591 1128.3 Q195.669 1132.88 195.669 1141.63 Q195.669 1150.36 192.591 1154.96 Q189.535 1159.55 183.725 1159.55 Q177.915 1159.55 174.836 1154.96 Q171.781 1150.36 171.781 1141.63 Q171.781 1132.88 174.836 1128.3 Q177.915 1123.69 183.725 1123.69 Z" fill="#000000" fill-rule="nonzero" fill-opacity="1" /><path clip-path="url(#clip330)" d="M143.609 767.78 L161.966 767.78 L161.966 771.715 L147.892 771.715 L147.892 780.188 Q148.91 779.84 149.929 779.678 Q150.947 779.493 151.966 779.493 Q157.753 779.493 161.132 782.664 Q164.512 785.836 164.512 791.252 Q164.512 796.831 161.04 799.933 Q157.568 803.011 151.248 803.011 Q149.072 803.011 146.804 802.641 Q144.559 802.271 142.151 801.53 L142.151 796.831 Q144.234 797.965 146.457 798.521 Q148.679 799.076 151.156 799.076 Q155.16 799.076 157.498 796.97 Q159.836 794.863 159.836 791.252 Q159.836 787.641 157.498 785.535 Q155.16 783.428 151.156 783.428 Q149.281 783.428 147.406 783.845 Q145.554 784.262 143.609 785.141 L143.609 767.78 Z" fill="#000000" fill-rule="nonzero" fill-opacity="1" /><path clip-path="url(#clip330)" d="M183.725 770.859 Q180.114 770.859 178.285 774.424 Q176.48 777.965 176.48 785.095 Q176.48 792.201 178.285 795.766 Q180.114 799.308 183.725 799.308 Q187.359 799.308 189.165 795.766 Q190.993 792.201 190.993 785.095 Q190.993 777.965 189.165 774.424 Q187.359 770.859 183.725 770.859 M183.725 767.155 Q189.535 767.155 192.591 771.762 Q195.669 776.345 195.669 785.095 Q195.669 793.822 192.591 798.428 Q189.535 803.011 183.725 803.011 Q177.915 803.011 174.836 798.428 Q171.781 793.822 171.781 785.095 Q171.781 776.345 174.836 771.762 Q177.915 767.155 183.725 767.155 Z" fill="#000000" fill-rule="nonzero" fill-opacity="1" /><path clip-path="url(#clip330)" d="M114.211 441.869 L121.85 441.869 L121.85 415.503 L113.54 417.17 L113.54 412.911 L121.804 411.244 L126.48 411.244 L126.48 441.869 L134.119 441.869 L134.119 445.804 L114.211 445.804 L114.211 441.869 Z" fill="#000000" fill-rule="nonzero" fill-opacity="1" /><path clip-path="url(#clip330)" d="M153.563 414.323 Q149.952 414.323 148.123 417.887 Q146.318 421.429 146.318 428.559 Q146.318 435.665 148.123 439.23 Q149.952 442.772 153.563 442.772 Q157.197 442.772 159.003 439.23 Q160.832 435.665 160.832 428.559 Q160.832 421.429 159.003 417.887 Q157.197 414.323 153.563 414.323 M153.563 410.619 Q159.373 410.619 162.429 415.225 Q165.507 419.809 165.507 428.559 Q165.507 437.285 162.429 441.892 Q159.373 446.475 153.563 446.475 Q147.753 446.475 144.674 441.892 Q141.619 437.285 141.619 428.559 Q141.619 419.809 144.674 415.225 Q147.753 410.619 153.563 410.619 Z" fill="#000000" fill-rule="nonzero" fill-opacity="1" /><path clip-path="url(#clip330)" d="M183.725 414.323 Q180.114 414.323 178.285 417.887 Q176.48 421.429 176.48 428.559 Q176.48 435.665 178.285 439.23 Q180.114 442.772 183.725 442.772 Q187.359 442.772 189.165 439.23 Q190.993 435.665 190.993 428.559 Q190.993 421.429 189.165 417.887 Q187.359 414.323 183.725 414.323 M183.725 410.619 Q189.535 410.619 192.591 415.225 Q195.669 419.809 195.669 428.559 Q195.669 437.285 192.591 441.892 Q189.535 446.475 183.725 446.475 Q177.915 446.475 174.836 441.892 Q171.781 437.285 171.781 428.559 Q171.781 419.809 174.836 415.225 Q177.915 410.619 183.725 410.619 Z" fill="#000000" fill-rule="nonzero" fill-opacity="1" /><path clip-path="url(#clip330)" d="M114.211 85.3325 L121.85 85.3325 L121.85 58.9669 L113.54 60.6336 L113.54 56.3744 L121.804 54.7077 L126.48 54.7077 L126.48 85.3325 L134.119 85.3325 L134.119 89.2677 L114.211 89.2677 L114.211 85.3325 Z" fill="#000000" fill-rule="nonzero" fill-opacity="1" /><path clip-path="url(#clip330)" d="M143.609 54.7077 L161.966 54.7077 L161.966 58.6429 L147.892 58.6429 L147.892 67.1151 Q148.91 66.7678 149.929 66.6058 Q150.947 66.4206 151.966 66.4206 Q157.753 66.4206 161.132 69.5919 Q164.512 72.7632 164.512 78.1798 Q164.512 83.7585 161.04 86.8603 Q157.568 89.939 151.248 89.939 Q149.072 89.939 146.804 89.5686 Q144.559 89.1983 142.151 88.4575 L142.151 83.7585 Q144.234 84.8927 146.457 85.4483 Q148.679 86.0038 151.156 86.0038 Q155.16 86.0038 157.498 83.8974 Q159.836 81.7909 159.836 78.1798 Q159.836 74.5687 157.498 72.4622 Q155.16 70.3558 151.156 70.3558 Q149.281 70.3558 147.406 70.7724 Q145.554 71.1891 143.609 72.0687 L143.609 54.7077 Z" fill="#000000" fill-rule="nonzero" fill-opacity="1" /><path clip-path="url(#clip330)" d="M183.725 57.7864 Q180.114 57.7864 178.285 61.3512 Q176.48 64.8928 176.48 72.0224 Q176.48 79.1289 178.285 82.6937 Q180.114 86.2353 183.725 86.2353 Q187.359 86.2353 189.165 82.6937 Q190.993 79.1289 190.993 72.0224 Q190.993 64.8928 189.165 61.3512 Q187.359 57.7864 183.725 57.7864 M183.725 54.0827 Q189.535 54.0827 192.591 58.6892 Q195.669 63.2725 195.669 72.0224 Q195.669 80.7492 192.591 85.3557 Q189.535 89.939 183.725 89.939 Q177.915 89.939 174.836 85.3557 Q171.781 80.7492 171.781 72.0224 Q171.781 63.2725 174.836 58.6892 Q177.915 54.0827 183.725 54.0827 Z" fill="#000000" fill-rule="nonzero" fill-opacity="1" /><path clip-path="url(#clip330)" d="M20.0842 797.318 L20.0842 770.009 L25.495 770.009 L25.495 790.889 L39.4996 790.889 L39.4996 772.046 L44.9104 772.046 L44.9104 790.889 L67.6042 790.889 L67.6042 797.318 L20.0842 797.318 Z" fill="#000000" fill-rule="nonzero" fill-opacity="1" /><path clip-path="url(#clip330)" d="M31.9562 764.821 L31.9562 758.965 L67.6042 758.965 L67.6042 764.821 L31.9562 764.821 M18.079 764.821 L18.079 758.965 L25.495 758.965 L25.495 764.821 L18.079 764.821 Z" fill="#000000" fill-rule="nonzero" fill-opacity="1" /><path clip-path="url(#clip330)" d="M33.0065 723.985 L38.5447 723.985 Q37.2716 726.468 36.635 729.142 Q35.9984 731.815 35.9984 734.68 Q35.9984 739.04 37.3352 741.236 Q38.672 743.401 41.3456 743.401 Q43.3826 743.401 44.5603 741.841 Q45.7061 740.281 46.7565 735.571 L47.2021 733.566 Q48.5389 727.327 50.9897 724.717 Q53.4086 722.076 57.7691 722.076 Q62.7344 722.076 65.6308 726.022 Q68.5272 729.937 68.5272 736.812 Q68.5272 739.677 67.9543 742.796 Q67.4132 745.883 66.2992 749.321 L60.2518 749.321 Q61.9387 746.074 62.798 742.923 Q63.6256 739.772 63.6256 736.685 Q63.6256 732.547 62.2251 730.319 Q60.7929 728.091 58.2147 728.091 Q55.8276 728.091 54.5545 729.714 Q53.2813 731.306 52.1037 736.749 L51.6262 738.786 Q50.4804 744.228 48.1251 746.647 Q45.738 749.066 41.6002 749.066 Q36.5713 749.066 33.8341 745.501 Q31.0968 741.937 31.0968 735.38 Q31.0968 732.133 31.5743 729.269 Q32.0517 726.404 33.0065 723.985 Z" fill="#000000" fill-rule="nonzero" fill-opacity="1" /><path clip-path="url(#clip330)" d="M46.0881 683.117 L67.6042 683.117 L67.6042 688.974 L46.279 688.974 Q41.2183 688.974 38.7038 690.947 Q36.1894 692.921 36.1894 696.867 Q36.1894 701.61 39.2131 704.347 Q42.2368 707.084 47.4567 707.084 L67.6042 707.084 L67.6042 712.973 L18.079 712.973 L18.079 707.084 L37.4944 707.084 Q34.2797 704.984 32.6883 702.151 Q31.0968 699.286 31.0968 695.562 Q31.0968 689.419 34.9163 686.268 Q38.7038 683.117 46.0881 683.117 Z" fill="#000000" fill-rule="nonzero" fill-opacity="1" /><path clip-path="url(#clip330)" d="M23.7444 614.877 L30.5239 614.877 Q27.5002 618.124 26.0043 621.816 Q24.5083 625.476 24.5083 629.614 Q24.5083 637.762 29.5054 642.09 Q34.4707 646.419 43.8919 646.419 Q53.2813 646.419 58.2784 642.09 Q63.2436 637.762 63.2436 629.614 Q63.2436 625.476 61.7477 621.816 Q60.2518 618.124 57.2281 614.877 L63.9439 614.877 Q66.2355 618.251 67.3814 622.038 Q68.5272 625.794 68.5272 629.996 Q68.5272 640.786 61.9387 646.992 Q55.3183 653.199 43.8919 653.199 Q32.4336 653.199 25.8451 646.992 Q19.2248 640.786 19.2248 629.996 Q19.2248 625.731 20.3706 621.975 Q21.4846 618.187 23.7444 614.877 Z" fill="#000000" fill-rule="nonzero" fill-opacity="1" /><path clip-path="url(#clip330)" d="M49.6847 589 Q49.6847 596.098 51.3079 598.835 Q52.9312 601.573 56.8461 601.573 Q59.9653 601.573 61.8114 599.536 Q63.6256 597.467 63.6256 593.934 Q63.6256 589.064 60.1881 586.136 Q56.7188 583.176 50.9897 583.176 L49.6847 583.176 L49.6847 589 M47.2657 577.319 L67.6042 577.319 L67.6042 583.176 L62.1933 583.176 Q65.4398 585.181 66.9994 588.173 Q68.5272 591.165 68.5272 595.493 Q68.5272 600.968 65.4716 604.215 Q62.3843 607.429 57.2281 607.429 Q51.2125 607.429 48.1569 603.419 Q45.1014 599.377 45.1014 591.388 L45.1014 583.176 L44.5285 583.176 Q40.4862 583.176 38.2901 585.849 Q36.0621 588.491 36.0621 593.297 Q36.0621 596.353 36.7941 599.249 Q37.5262 602.146 38.9903 604.819 L33.5795 604.819 Q32.3381 601.605 31.7334 598.581 Q31.0968 595.557 31.0968 592.693 Q31.0968 584.958 35.1072 581.139 Q39.1176 577.319 47.2657 577.319 Z" fill="#000000" fill-rule="nonzero" fill-opacity="1" /><path clip-path="url(#clip330)" d="M53.5359 565.861 L31.9562 565.861 L31.9562 560.005 L53.3131 560.005 Q58.3739 560.005 60.9202 558.031 Q63.4346 556.058 63.4346 552.111 Q63.4346 547.369 60.4109 544.632 Q57.3872 541.862 52.1673 541.862 L31.9562 541.862 L31.9562 536.006 L67.6042 536.006 L67.6042 541.862 L62.1296 541.862 Q65.3762 543.995 66.9676 546.828 Q68.5272 549.629 68.5272 553.353 Q68.5272 559.495 64.7078 562.678 Q60.8883 565.861 53.5359 565.861 M31.0968 551.125 L31.0968 551.125 Z" fill="#000000" fill-rule="nonzero" fill-opacity="1" /><path clip-path="url(#clip330)" d="M49.3664 500.485 Q43.0007 500.485 39.4996 503.127 Q35.9984 505.737 35.9984 510.479 Q35.9984 515.19 39.4996 517.832 Q43.0007 520.442 49.3664 520.442 Q55.7003 520.442 59.2014 517.832 Q62.7026 515.19 62.7026 510.479 Q62.7026 505.737 59.2014 503.127 Q55.7003 500.485 49.3664 500.485 M63.18 494.629 Q72.283 494.629 76.7071 498.671 Q81.1631 502.713 81.1631 511.052 Q81.1631 514.14 80.6857 516.877 Q80.2401 519.614 79.2852 522.192 L73.5879 522.192 Q74.9884 519.614 75.6568 517.1 Q76.3252 514.585 76.3252 511.975 Q76.3252 506.214 73.3015 503.35 Q70.3096 500.485 64.2303 500.485 L61.3339 500.485 Q64.485 502.3 66.0446 505.132 Q67.6042 507.965 67.6042 511.912 Q67.6042 518.468 62.6071 522.479 Q57.61 526.489 49.3664 526.489 Q41.091 526.489 36.0939 522.479 Q31.0968 518.468 31.0968 511.912 Q31.0968 507.965 32.6564 505.132 Q34.216 502.3 37.3671 500.485 L31.9562 500.485 L31.9562 494.629 L63.18 494.629 Z" fill="#000000" fill-rule="nonzero" fill-opacity="1" /><path clip-path="url(#clip330)" d="M46.0881 452.933 L67.6042 452.933 L67.6042 458.79 L46.279 458.79 Q41.2183 458.79 38.7038 460.763 Q36.1894 462.737 36.1894 466.683 Q36.1894 471.426 39.2131 474.163 Q42.2368 476.9 47.4567 476.9 L67.6042 476.9 L67.6042 482.789 L18.079 482.789 L18.079 476.9 L37.4944 476.9 Q34.2797 474.8 32.6883 471.967 Q31.0968 469.102 31.0968 465.378 Q31.0968 459.236 34.9163 456.085 Q38.7038 452.933 46.0881 452.933 Z" fill="#000000" fill-rule="nonzero" fill-opacity="1" /><path clip-path="url(#clip330)" d="M21.8347 435.46 L31.9562 435.46 L31.9562 423.397 L36.5077 423.397 L36.5077 435.46 L55.8594 435.46 Q60.2199 435.46 61.4613 434.282 Q62.7026 433.072 62.7026 429.412 L62.7026 423.397 L67.6042 423.397 L67.6042 429.412 Q67.6042 436.192 65.0897 438.77 Q62.5434 441.348 55.8594 441.348 L36.5077 441.348 L36.5077 445.645 L31.9562 445.645 L31.9562 441.348 L21.8347 441.348 L21.8347 435.46 Z" fill="#000000" fill-rule="nonzero" fill-opacity="1" /><path clip-path="url(#clip331)" d="M461.815 1141.6 L370.583 1141.6 L553.047 1141.6 L461.815 1141.6 L461.815 1141.6 L461.815 1141.6  Z" fill="#009af9" fill-rule="evenodd" fill-opacity="1"/>
<polyline clip-path="url(#clip331)" style="stroke:#000000; stroke-linecap:round; stroke-linejoin:round; stroke-width:4; stroke-opacity:1; fill:none" points="461.815,1141.6 370.583,1141.6 553.047,1141.6 461.815,1141.6 "/>
<path clip-path="url(#clip331)" d="M644.278 1141.6 L644.278 1141.6 L279.351 1141.6 L279.351 1141.6 L644.278 1141.6 L644.278 1141.6 L644.278 1141.6  Z" fill="#009af9" fill-rule="evenodd" fill-opacity="1"/>
<polyline clip-path="url(#clip331)" style="stroke:#000000; stroke-linecap:round; stroke-linejoin:round; stroke-width:4; stroke-opacity:1; fill:none" points="644.278,1141.6 644.278,1141.6 279.351,1141.6 644.278,1141.6 "/>
<path clip-path="url(#clip331)" d="M644.278 1134.47 L279.351 1134.47 L279.351 1141.6 L644.278 1141.6 L644.278 1134.47 L461.815 1134.47 L644.278 1134.47  Z" fill="#009af9" fill-rule="evenodd" fill-opacity="1"/>
<polyline clip-path="url(#clip331)" style="stroke:#000000; stroke-linecap:round; stroke-linejoin:round; stroke-width:4; stroke-opacity:1; fill:none" points="644.278,1134.47 279.351,1134.47 279.351,1141.6 644.278,1141.6 644.278,1134.47 461.815,1134.47 644.278,1134.47 "/>
<path clip-path="url(#clip331)" d="M461.815 1127.33 L370.583 1127.33 L553.047 1127.33 L461.815 1127.33 L461.815 1134.47 L461.815 1127.33  Z" fill="#009af9" fill-rule="evenodd" fill-opacity="1"/>
<polyline clip-path="url(#clip331)" style="stroke:#000000; stroke-linecap:round; stroke-linejoin:round; stroke-width:4; stroke-opacity:1; fill:none" points="461.815,1127.33 370.583,1127.33 553.047,1127.33 461.815,1127.33 461.815,1134.47 461.815,1127.33 "/>
<path clip-path="url(#clip331)" d="M917.973 1141.6 L826.742 1141.6 L1009.21 1141.6 L917.973 1141.6 L917.973 1141.6 L917.973 1141.6  Z" fill="#009af9" fill-rule="evenodd" fill-opacity="1"/>
<polyline clip-path="url(#clip331)" style="stroke:#000000; stroke-linecap:round; stroke-linejoin:round; stroke-width:4; stroke-opacity:1; fill:none" points="917.973,1141.6 826.742,1141.6 1009.21,1141.6 917.973,1141.6 "/>
<path clip-path="url(#clip331)" d="M1100.44 1141.6 L1100.44 1141.6 L735.51 1141.6 L735.51 1141.6 L1100.44 1141.6 L1100.44 1141.6 L1100.44 1141.6  Z" fill="#009af9" fill-rule="evenodd" fill-opacity="1"/>
<polyline clip-path="url(#clip331)" style="stroke:#000000; stroke-linecap:round; stroke-linejoin:round; stroke-width:4; stroke-opacity:1; fill:none" points="1100.44,1141.6 1100.44,1141.6 735.51,1141.6 1100.44,1141.6 "/>
<path clip-path="url(#clip331)" d="M1100.44 1127.33 L735.51 1127.33 L735.51 1141.6 L1100.44 1141.6 L1100.44 1127.33 L917.973 1127.33 L1100.44 1127.33  Z" fill="#009af9" fill-rule="evenodd" fill-opacity="1"/>
<polyline clip-path="url(#clip331)" style="stroke:#000000; stroke-linecap:round; stroke-linejoin:round; stroke-width:4; stroke-opacity:1; fill:none" points="1100.44,1127.33 735.51,1127.33 735.51,1141.6 1100.44,1141.6 1100.44,1127.33 917.973,1127.33 1100.44,1127.33 "/>
<path clip-path="url(#clip331)" d="M917.973 1105.94 L826.742 1105.94 L1009.21 1105.94 L917.973 1105.94 L917.973 1127.33 L917.973 1105.94  Z" fill="#009af9" fill-rule="evenodd" fill-opacity="1"/>
<polyline clip-path="url(#clip331)" style="stroke:#000000; stroke-linecap:round; stroke-linejoin:round; stroke-width:4; stroke-opacity:1; fill:none" points="917.973,1105.94 826.742,1105.94 1009.21,1105.94 917.973,1105.94 917.973,1127.33 917.973,1105.94 "/>
<path clip-path="url(#clip331)" d="M1374.13 1141.6 L1282.9 1141.6 L1465.36 1141.6 L1374.13 1141.6 L1374.13 1141.6 L1374.13 1141.6  Z" fill="#009af9" fill-rule="evenodd" fill-opacity="1"/>
<polyline clip-path="url(#clip331)" style="stroke:#000000; stroke-linecap:round; stroke-linejoin:round; stroke-width:4; stroke-opacity:1; fill:none" points="1374.13,1141.6 1282.9,1141.6 1465.36,1141.6 1374.13,1141.6 "/>
<path clip-path="url(#clip331)" d="M1556.6 1141.6 L1556.6 1141.6 L1191.67 1141.6 L1191.67 1141.6 L1556.6 1141.6 L1556.6 1141.6 L1556.6 1141.6  Z" fill="#009af9" fill-rule="evenodd" fill-opacity="1"/>
<polyline clip-path="url(#clip331)" style="stroke:#000000; stroke-linecap:round; stroke-linejoin:round; stroke-width:4; stroke-opacity:1; fill:none" points="1556.6,1141.6 1556.6,1141.6 1191.67,1141.6 1556.6,1141.6 "/>
<path clip-path="url(#clip331)" d="M1556.6 1120.2 L1191.67 1120.2 L1191.67 1141.6 L1556.6 1141.6 L1556.6 1120.2 L1374.13 1120.2 L1556.6 1120.2  Z" fill="#009af9" fill-rule="evenodd" fill-opacity="1"/>
<polyline clip-path="url(#clip331)" style="stroke:#000000; stroke-linecap:round; stroke-linejoin:round; stroke-width:4; stroke-opacity:1; fill:none" points="1556.6,1120.2 1191.67,1120.2 1191.67,1141.6 1556.6,1141.6 1556.6,1120.2 1374.13,1120.2 1556.6,1120.2 "/>
<path clip-path="url(#clip331)" d="M1374.13 1091.68 L1282.9 1091.68 L1465.36 1091.68 L1374.13 1091.68 L1374.13 1120.2 L1374.13 1091.68  Z" fill="#009af9" fill-rule="evenodd" fill-opacity="1"/>
<polyline clip-path="url(#clip331)" style="stroke:#000000; stroke-linecap:round; stroke-linejoin:round; stroke-width:4; stroke-opacity:1; fill:none" points="1374.13,1091.68 1282.9,1091.68 1465.36,1091.68 1374.13,1091.68 1374.13,1120.2 1374.13,1091.68 "/>
<path clip-path="url(#clip331)" d="M1830.29 1141.6 L1739.06 1141.6 L1921.52 1141.6 L1830.29 1141.6 L1830.29 1141.6 L1830.29 1141.6  Z" fill="#009af9" fill-rule="evenodd" fill-opacity="1"/>
<polyline clip-path="url(#clip331)" style="stroke:#000000; stroke-linecap:round; stroke-linejoin:round; stroke-width:4; stroke-opacity:1; fill:none" points="1830.29,1141.6 1739.06,1141.6 1921.52,1141.6 1830.29,1141.6 "/>
<path clip-path="url(#clip331)" d="M2012.75 1141.6 L2012.75 1134.47 L1647.83 1134.47 L1647.83 1141.6 L2012.75 1141.6 L2012.75 1134.47 L2012.75 1141.6  Z" fill="#009af9" fill-rule="evenodd" fill-opacity="1"/>
<polyline clip-path="url(#clip331)" style="stroke:#000000; stroke-linecap:round; stroke-linejoin:round; stroke-width:4; stroke-opacity:1; fill:none" points="2012.75,1141.6 2012.75,1134.47 1647.83,1134.47 1647.83,1141.6 2012.75,1141.6 2012.75,1134.47 2012.75,1141.6 "/>
<path clip-path="url(#clip331)" d="M2012.75 1105.94 L1647.83 1105.94 L1647.83 1134.47 L2012.75 1134.47 L2012.75 1105.94 L1830.29 1105.94 L2012.75 1105.94  Z" fill="#009af9" fill-rule="evenodd" fill-opacity="1"/>
<polyline clip-path="url(#clip331)" style="stroke:#000000; stroke-linecap:round; stroke-linejoin:round; stroke-width:4; stroke-opacity:1; fill:none" points="2012.75,1105.94 1647.83,1105.94 1647.83,1134.47 2012.75,1134.47 2012.75,1105.94 1830.29,1105.94 2012.75,1105.94 "/>
<path clip-path="url(#clip331)" d="M1830.29 1063.16 L1739.06 1063.16 L1921.52 1063.16 L1830.29 1063.16 L1830.29 1105.94 L1830.29 1063.16  Z" fill="#009af9" fill-rule="evenodd" fill-opacity="1"/>
<polyline clip-path="url(#clip331)" style="stroke:#000000; stroke-linecap:round; stroke-linejoin:round; stroke-width:4; stroke-opacity:1; fill:none" points="1830.29,1063.16 1739.06,1063.16 1921.52,1063.16 1830.29,1063.16 1830.29,1105.94 1830.29,1063.16 "/>
<circle clip-path="url(#clip331)" cx="461.815" cy="1113.07" r="14.4" fill="#009af9" fill-rule="evenodd" fill-opacity="1" stroke="#000000" stroke-opacity="1" stroke-width="2.688"/>
<circle clip-path="url(#clip331)" cx="461.815" cy="1120.2" r="14.4" fill="#009af9" fill-rule="evenodd" fill-opacity="1" stroke="#000000" stroke-opacity="1" stroke-width="2.688"/>
<circle clip-path="url(#clip331)" cx="461.815" cy="1091.68" r="14.4" fill="#009af9" fill-rule="evenodd" fill-opacity="1" stroke="#000000" stroke-opacity="1" stroke-width="2.688"/>
<circle clip-path="url(#clip331)" cx="461.815" cy="1113.07" r="14.4" fill="#009af9" fill-rule="evenodd" fill-opacity="1" stroke="#000000" stroke-opacity="1" stroke-width="2.688"/>
<circle clip-path="url(#clip331)" cx="461.815" cy="1120.2" r="14.4" fill="#009af9" fill-rule="evenodd" fill-opacity="1" stroke="#000000" stroke-opacity="1" stroke-width="2.688"/>
<circle clip-path="url(#clip331)" cx="461.815" cy="1120.2" r="14.4" fill="#009af9" fill-rule="evenodd" fill-opacity="1" stroke="#000000" stroke-opacity="1" stroke-width="2.688"/>
<circle clip-path="url(#clip331)" cx="461.815" cy="1120.2" r="14.4" fill="#009af9" fill-rule="evenodd" fill-opacity="1" stroke="#000000" stroke-opacity="1" stroke-width="2.688"/>
<circle clip-path="url(#clip331)" cx="917.973" cy="1077.42" r="14.4" fill="#009af9" fill-rule="evenodd" fill-opacity="1" stroke="#000000" stroke-opacity="1" stroke-width="2.688"/>
<circle clip-path="url(#clip331)" cx="917.973" cy="991.851" r="14.4" fill="#009af9" fill-rule="evenodd" fill-opacity="1" stroke="#000000" stroke-opacity="1" stroke-width="2.688"/>
<circle clip-path="url(#clip331)" cx="917.973" cy="991.851" r="14.4" fill="#009af9" fill-rule="evenodd" fill-opacity="1" stroke="#000000" stroke-opacity="1" stroke-width="2.688"/>
<circle clip-path="url(#clip331)" cx="1374.13" cy="927.675" r="14.4" fill="#009af9" fill-rule="evenodd" fill-opacity="1" stroke="#000000" stroke-opacity="1" stroke-width="2.688"/>
<circle clip-path="url(#clip331)" cx="1374.13" cy="1034.64" r="14.4" fill="#009af9" fill-rule="evenodd" fill-opacity="1" stroke="#000000" stroke-opacity="1" stroke-width="2.688"/>
<circle clip-path="url(#clip331)" cx="1374.13" cy="920.544" r="14.4" fill="#009af9" fill-rule="evenodd" fill-opacity="1" stroke="#000000" stroke-opacity="1" stroke-width="2.688"/>
<circle clip-path="url(#clip331)" cx="1374.13" cy="1077.42" r="14.4" fill="#009af9" fill-rule="evenodd" fill-opacity="1" stroke="#000000" stroke-opacity="1" stroke-width="2.688"/>
<circle clip-path="url(#clip331)" cx="1374.13" cy="1034.64" r="14.4" fill="#009af9" fill-rule="evenodd" fill-opacity="1" stroke="#000000" stroke-opacity="1" stroke-width="2.688"/>
<circle clip-path="url(#clip331)" cx="1374.13" cy="1070.29" r="14.4" fill="#009af9" fill-rule="evenodd" fill-opacity="1" stroke="#000000" stroke-opacity="1" stroke-width="2.688"/>
<circle clip-path="url(#clip331)" cx="1830.29" cy="1048.9" r="14.4" fill="#009af9" fill-rule="evenodd" fill-opacity="1" stroke="#000000" stroke-opacity="1" stroke-width="2.688"/>
<circle clip-path="url(#clip331)" cx="1830.29" cy="1041.77" r="14.4" fill="#009af9" fill-rule="evenodd" fill-opacity="1" stroke="#000000" stroke-opacity="1" stroke-width="2.688"/>
<circle clip-path="url(#clip331)" cx="1830.29" cy="913.413" r="14.4" fill="#009af9" fill-rule="evenodd" fill-opacity="1" stroke="#000000" stroke-opacity="1" stroke-width="2.688"/>
<circle clip-path="url(#clip331)" cx="1830.29" cy="984.72" r="14.4" fill="#009af9" fill-rule="evenodd" fill-opacity="1" stroke="#000000" stroke-opacity="1" stroke-width="2.688"/>
<circle clip-path="url(#clip331)" cx="1830.29" cy="913.413" r="14.4" fill="#009af9" fill-rule="evenodd" fill-opacity="1" stroke="#000000" stroke-opacity="1" stroke-width="2.688"/>
<circle clip-path="url(#clip331)" cx="1830.29" cy="79.1184" r="14.4" fill="#009af9" fill-rule="evenodd" fill-opacity="1" stroke="#000000" stroke-opacity="1" stroke-width="2.688"/>
<circle clip-path="url(#clip331)" cx="1830.29" cy="934.805" r="14.4" fill="#009af9" fill-rule="evenodd" fill-opacity="1" stroke="#000000" stroke-opacity="1" stroke-width="2.688"/>
<circle clip-path="url(#clip331)" cx="1830.29" cy="678.099" r="14.4" fill="#009af9" fill-rule="evenodd" fill-opacity="1" stroke="#000000" stroke-opacity="1" stroke-width="2.688"/>
<circle clip-path="url(#clip331)" cx="1830.29" cy="1027.5" r="14.4" fill="#009af9" fill-rule="evenodd" fill-opacity="1" stroke="#000000" stroke-opacity="1" stroke-width="2.688"/>
<circle clip-path="url(#clip331)" cx="1830.29" cy="870.629" r="14.4" fill="#009af9" fill-rule="evenodd" fill-opacity="1" stroke="#000000" stroke-opacity="1" stroke-width="2.688"/>
<polyline clip-path="url(#clip331)" style="stroke:#009af9; stroke-linecap:round; stroke-linejoin:round; stroke-width:0; stroke-opacity:1; fill:none" points="461.815,1141.6 370.583,1141.6 553.047,1141.6 461.815,1141.6 "/>
<polyline clip-path="url(#clip331)" style="stroke:#009af9; stroke-linecap:round; stroke-linejoin:round; stroke-width:0; stroke-opacity:1; fill:none" points="644.278,1141.6 644.278,1141.6 279.351,1141.6 644.278,1141.6 "/>
<polyline clip-path="url(#clip331)" style="stroke:#009af9; stroke-linecap:round; stroke-linejoin:round; stroke-width:0; stroke-opacity:1; fill:none" points="644.278,1134.47 279.351,1134.47 279.351,1141.6 644.278,1141.6 644.278,1134.47 461.815,1134.47 "/>
<polyline clip-path="url(#clip331)" style="stroke:#009af9; stroke-linecap:round; stroke-linejoin:round; stroke-width:0; stroke-opacity:1; fill:none" points="461.815,1127.33 370.583,1127.33 553.047,1127.33 461.815,1127.33 461.815,1134.47 "/>
<polyline clip-path="url(#clip331)" style="stroke:#009af9; stroke-linecap:round; stroke-linejoin:round; stroke-width:0; stroke-opacity:1; fill:none" points="917.973,1141.6 826.742,1141.6 1009.21,1141.6 917.973,1141.6 "/>
<polyline clip-path="url(#clip331)" style="stroke:#009af9; stroke-linecap:round; stroke-linejoin:round; stroke-width:0; stroke-opacity:1; fill:none" points="1100.44,1141.6 1100.44,1141.6 735.51,1141.6 1100.44,1141.6 "/>
<polyline clip-path="url(#clip331)" style="stroke:#009af9; stroke-linecap:round; stroke-linejoin:round; stroke-width:0; stroke-opacity:1; fill:none" points="1100.44,1127.33 735.51,1127.33 735.51,1141.6 1100.44,1141.6 1100.44,1127.33 917.973,1127.33 "/>
<polyline clip-path="url(#clip331)" style="stroke:#009af9; stroke-linecap:round; stroke-linejoin:round; stroke-width:0; stroke-opacity:1; fill:none" points="917.973,1105.94 826.742,1105.94 1009.21,1105.94 917.973,1105.94 917.973,1127.33 "/>
<polyline clip-path="url(#clip331)" style="stroke:#009af9; stroke-linecap:round; stroke-linejoin:round; stroke-width:0; stroke-opacity:1; fill:none" points="1374.13,1141.6 1282.9,1141.6 1465.36,1141.6 1374.13,1141.6 "/>
<polyline clip-path="url(#clip331)" style="stroke:#009af9; stroke-linecap:round; stroke-linejoin:round; stroke-width:0; stroke-opacity:1; fill:none" points="1556.6,1141.6 1556.6,1141.6 1191.67,1141.6 1556.6,1141.6 "/>
<polyline clip-path="url(#clip331)" style="stroke:#009af9; stroke-linecap:round; stroke-linejoin:round; stroke-width:0; stroke-opacity:1; fill:none" points="1556.6,1120.2 1191.67,1120.2 1191.67,1141.6 1556.6,1141.6 1556.6,1120.2 1374.13,1120.2 "/>
<polyline clip-path="url(#clip331)" style="stroke:#009af9; stroke-linecap:round; stroke-linejoin:round; stroke-width:0; stroke-opacity:1; fill:none" points="1374.13,1091.68 1282.9,1091.68 1465.36,1091.68 1374.13,1091.68 1374.13,1120.2 "/>
<polyline clip-path="url(#clip331)" style="stroke:#009af9; stroke-linecap:round; stroke-linejoin:round; stroke-width:0; stroke-opacity:1; fill:none" points="1830.29,1141.6 1739.06,1141.6 1921.52,1141.6 1830.29,1141.6 "/>
<polyline clip-path="url(#clip331)" style="stroke:#009af9; stroke-linecap:round; stroke-linejoin:round; stroke-width:0; stroke-opacity:1; fill:none" points="2012.75,1141.6 2012.75,1134.47 1647.83,1134.47 1647.83,1141.6 2012.75,1141.6 2012.75,1134.47 "/>
<polyline clip-path="url(#clip331)" style="stroke:#009af9; stroke-linecap:round; stroke-linejoin:round; stroke-width:0; stroke-opacity:1; fill:none" points="2012.75,1105.94 1647.83,1105.94 1647.83,1134.47 2012.75,1134.47 2012.75,1105.94 1830.29,1105.94 "/>
<polyline clip-path="url(#clip331)" style="stroke:#009af9; stroke-linecap:round; stroke-linejoin:round; stroke-width:0; stroke-opacity:1; fill:none" points="1830.29,1063.16 1739.06,1063.16 1921.52,1063.16 1830.29,1063.16 1830.29,1105.94 "/>
</svg>
