<?xml version="1.0" encoding="utf-8"?>
<svg xmlns="http://www.w3.org/2000/svg" xmlns:xlink="http://www.w3.org/1999/xlink" width="528" height="336" viewBox="0 0 2112 1344">
<defs>
  <clipPath id="clip970">
    <rect x="0" y="0" width="2112" height="1344"/>
  </clipPath>
</defs>
<path clip-path="url(#clip970)" d="M0 1344 L2112 1344 L2112 2.13163e-14 L0 2.13163e-14  Z" fill="#ffffff" fill-rule="evenodd" fill-opacity="1"/>
<defs>
  <clipPath id="clip971">
    <rect x="198" y="47" width="1867" height="1127"/>
  </clipPath>
</defs>
<path clip-path="url(#clip970)" d="M198.924 1173.47 L2064.76 1173.47 L2064.76 47.2441 L198.924 47.2441  Z" fill="#ffffff" fill-rule="evenodd" fill-opacity="1"/>
<polyline clip-path="url(#clip971)" style="stroke:#000000; stroke-linecap:round; stroke-linejoin:round; stroke-width:2; stroke-opacity:0.1; fill:none" points="251.73,1173.47 251.73,47.2441 "/>
<polyline clip-path="url(#clip971)" style="stroke:#000000; stroke-linecap:round; stroke-linejoin:round; stroke-width:2; stroke-opacity:0.1; fill:none" points="691.785,1173.47 691.785,47.2441 "/>
<polyline clip-path="url(#clip971)" style="stroke:#000000; stroke-linecap:round; stroke-linejoin:round; stroke-width:2; stroke-opacity:0.1; fill:none" points="1131.84,1173.47 1131.84,47.2441 "/>
<polyline clip-path="url(#clip971)" style="stroke:#000000; stroke-linecap:round; stroke-linejoin:round; stroke-width:2; stroke-opacity:0.1; fill:none" points="1571.89,1173.47 1571.89,47.2441 "/>
<polyline clip-path="url(#clip971)" style="stroke:#000000; stroke-linecap:round; stroke-linejoin:round; stroke-width:2; stroke-opacity:0.1; fill:none" points="2011.95,1173.47 2011.95,47.2441 "/>
<polyline clip-path="url(#clip971)" style="stroke:#000000; stroke-linecap:round; stroke-linejoin:round; stroke-width:2; stroke-opacity:0.1; fill:none" points="198.924,1141.6 2064.76,1141.6 "/>
<polyline clip-path="url(#clip971)" style="stroke:#000000; stroke-linecap:round; stroke-linejoin:round; stroke-width:2; stroke-opacity:0.1; fill:none" points="198.924,910.623 2064.76,910.623 "/>
<polyline clip-path="url(#clip971)" style="stroke:#000000; stroke-linecap:round; stroke-linejoin:round; stroke-width:2; stroke-opacity:0.1; fill:none" points="198.924,679.649 2064.76,679.649 "/>
<polyline clip-path="url(#clip971)" style="stroke:#000000; stroke-linecap:round; stroke-linejoin:round; stroke-width:2; stroke-opacity:0.1; fill:none" points="198.924,448.676 2064.76,448.676 "/>
<polyline clip-path="url(#clip971)" style="stroke:#000000; stroke-linecap:round; stroke-linejoin:round; stroke-width:2; stroke-opacity:0.1; fill:none" points="198.924,217.703 2064.76,217.703 "/>
<polyline clip-path="url(#clip970)" style="stroke:#000000; stroke-linecap:round; stroke-linejoin:round; stroke-width:4; stroke-opacity:1; fill:none" points="198.924,1173.47 2064.76,1173.47 "/>
<polyline clip-path="url(#clip970)" style="stroke:#000000; stroke-linecap:round; stroke-linejoin:round; stroke-width:4; stroke-opacity:1; fill:none" points="251.73,1173.47 251.73,1154.57 "/>
<polyline clip-path="url(#clip970)" style="stroke:#000000; stroke-linecap:round; stroke-linejoin:round; stroke-width:4; stroke-opacity:1; fill:none" points="691.785,1173.47 691.785,1154.57 "/>
<polyline clip-path="url(#clip970)" style="stroke:#000000; stroke-linecap:round; stroke-linejoin:round; stroke-width:4; stroke-opacity:1; fill:none" points="1131.84,1173.47 1131.84,1154.57 "/>
<polyline clip-path="url(#clip970)" style="stroke:#000000; stroke-linecap:round; stroke-linejoin:round; stroke-width:4; stroke-opacity:1; fill:none" points="1571.89,1173.47 1571.89,1154.57 "/>
<polyline clip-path="url(#clip970)" style="stroke:#000000; stroke-linecap:round; stroke-linejoin:round; stroke-width:4; stroke-opacity:1; fill:none" points="2011.95,1173.47 2011.95,1154.57 "/>
<path clip-path="url(#clip970)" d="M221.672 1216.74 L251.348 1216.74 L251.348 1220.67 L221.672 1220.67 L221.672 1216.74 Z" fill="#000000" fill-rule="nonzero" fill-opacity="1" /><path clip-path="url(#clip970)" d="M265.469 1229.63 L281.788 1229.63 L281.788 1233.57 L259.844 1233.57 L259.844 1229.63 Q262.506 1226.88 267.089 1222.25 Q271.695 1217.59 272.876 1216.25 Q275.121 1213.73 276.001 1211.99 Q276.904 1210.23 276.904 1208.54 Q276.904 1205.79 274.959 1204.05 Q273.038 1202.32 269.936 1202.32 Q267.737 1202.32 265.283 1203.08 Q262.853 1203.84 260.075 1205.4 L260.075 1200.67 Q262.899 1199.54 265.353 1198.96 Q267.806 1198.38 269.843 1198.38 Q275.214 1198.38 278.408 1201.07 Q281.603 1203.75 281.603 1208.24 Q281.603 1210.37 280.792 1212.29 Q280.005 1214.19 277.899 1216.78 Q277.32 1217.46 274.218 1220.67 Q271.117 1223.87 265.469 1229.63 Z" fill="#000000" fill-rule="nonzero" fill-opacity="1" /><path clip-path="url(#clip970)" d="M661.542 1216.74 L691.218 1216.74 L691.218 1220.67 L661.542 1220.67 L661.542 1216.74 Z" fill="#000000" fill-rule="nonzero" fill-opacity="1" /><path clip-path="url(#clip970)" d="M702.121 1229.63 L709.759 1229.63 L709.759 1203.27 L701.449 1204.93 L701.449 1200.67 L709.713 1199.01 L714.389 1199.01 L714.389 1229.63 L722.028 1229.63 L722.028 1233.57 L702.121 1233.57 L702.121 1229.63 Z" fill="#000000" fill-rule="nonzero" fill-opacity="1" /><path clip-path="url(#clip970)" d="M1131.84 1202.09 Q1128.23 1202.09 1126.4 1205.65 Q1124.59 1209.19 1124.59 1216.32 Q1124.59 1223.43 1126.4 1226.99 Q1128.23 1230.53 1131.84 1230.53 Q1135.47 1230.53 1137.28 1226.99 Q1139.11 1223.43 1139.11 1216.32 Q1139.11 1209.19 1137.28 1205.65 Q1135.47 1202.09 1131.84 1202.09 M1131.84 1198.38 Q1137.65 1198.38 1140.71 1202.99 Q1143.78 1207.57 1143.78 1216.32 Q1143.78 1225.05 1140.71 1229.65 Q1137.65 1234.24 1131.84 1234.24 Q1126.03 1234.24 1122.95 1229.65 Q1119.9 1225.05 1119.9 1216.32 Q1119.9 1207.57 1122.95 1202.99 Q1126.03 1198.38 1131.84 1198.38 Z" fill="#000000" fill-rule="nonzero" fill-opacity="1" /><path clip-path="url(#clip970)" d="M1562.28 1229.63 L1569.92 1229.63 L1569.92 1203.27 L1561.61 1204.93 L1561.61 1200.67 L1569.87 1199.01 L1574.54 1199.01 L1574.54 1229.63 L1582.18 1229.63 L1582.18 1233.57 L1562.28 1233.57 L1562.28 1229.63 Z" fill="#000000" fill-rule="nonzero" fill-opacity="1" /><path clip-path="url(#clip970)" d="M2006.6 1229.63 L2022.92 1229.63 L2022.92 1233.57 L2000.98 1233.57 L2000.98 1229.63 Q2003.64 1226.88 2008.22 1222.25 Q2012.83 1217.59 2014.01 1216.25 Q2016.25 1213.73 2017.13 1211.99 Q2018.04 1210.23 2018.04 1208.54 Q2018.04 1205.79 2016.09 1204.05 Q2014.17 1202.32 2011.07 1202.32 Q2008.87 1202.32 2006.42 1203.08 Q2003.99 1203.84 2001.21 1205.4 L2001.21 1200.67 Q2004.03 1199.54 2006.49 1198.96 Q2008.94 1198.38 2010.98 1198.38 Q2016.35 1198.38 2019.54 1201.07 Q2022.74 1203.75 2022.74 1208.24 Q2022.74 1210.37 2021.93 1212.29 Q2021.14 1214.19 2019.03 1216.78 Q2018.45 1217.46 2015.35 1220.67 Q2012.25 1223.87 2006.6 1229.63 Z" fill="#000000" fill-rule="nonzero" fill-opacity="1" /><path clip-path="url(#clip970)" d="M580.363 1268.05 L580.363 1274.32 Q576.702 1272.57 573.456 1271.71 Q570.209 1270.86 567.186 1270.86 Q561.934 1270.86 559.069 1272.89 Q556.237 1274.93 556.237 1278.69 Q556.237 1281.84 558.115 1283.46 Q560.024 1285.05 565.308 1286.04 L569.191 1286.83 Q576.384 1288.2 579.79 1291.67 Q583.227 1295.11 583.227 1300.9 Q583.227 1307.81 578.58 1311.37 Q573.965 1314.94 565.021 1314.94 Q561.647 1314.94 557.828 1314.17 Q554.04 1313.41 549.966 1311.91 L549.966 1305.29 Q553.881 1307.49 557.637 1308.6 Q561.393 1309.72 565.021 1309.72 Q570.528 1309.72 573.52 1307.55 Q576.511 1305.39 576.511 1301.38 Q576.511 1297.88 574.347 1295.9 Q572.215 1293.93 567.313 1292.94 L563.398 1292.18 Q556.205 1290.75 552.99 1287.69 Q549.775 1284.64 549.775 1279.19 Q549.775 1272.89 554.2 1269.26 Q558.656 1265.64 566.454 1265.64 Q569.796 1265.64 573.265 1266.24 Q576.734 1266.84 580.363 1268.05 Z" fill="#000000" fill-rule="nonzero" fill-opacity="1" /><path clip-path="url(#clip970)" d="M598.791 1268.25 L598.791 1278.37 L610.854 1278.37 L610.854 1282.92 L598.791 1282.92 L598.791 1302.27 Q598.791 1306.63 599.969 1307.87 Q601.179 1309.11 604.839 1309.11 L610.854 1309.11 L610.854 1314.01 L604.839 1314.01 Q598.059 1314.01 595.481 1311.5 Q592.903 1308.95 592.903 1302.27 L592.903 1282.92 L588.606 1282.92 L588.606 1278.37 L592.903 1278.37 L592.903 1268.25 L598.791 1268.25 Z" fill="#000000" fill-rule="nonzero" fill-opacity="1" /><path clip-path="url(#clip970)" d="M634.758 1296.1 Q627.66 1296.1 624.923 1297.72 Q622.185 1299.34 622.185 1303.26 Q622.185 1306.38 624.222 1308.22 Q626.291 1310.04 629.824 1310.04 Q634.694 1310.04 637.622 1306.6 Q640.582 1303.13 640.582 1297.4 L640.582 1296.1 L634.758 1296.1 M646.439 1293.68 L646.439 1314.01 L640.582 1314.01 L640.582 1308.6 Q638.577 1311.85 635.585 1313.41 Q632.593 1314.94 628.265 1314.94 Q622.79 1314.94 619.544 1311.88 Q616.329 1308.79 616.329 1303.64 Q616.329 1297.62 620.339 1294.57 Q624.382 1291.51 632.37 1291.51 L640.582 1291.51 L640.582 1290.94 Q640.582 1286.9 637.909 1284.7 Q635.267 1282.47 630.461 1282.47 Q627.405 1282.47 624.509 1283.2 Q621.612 1283.94 618.939 1285.4 L618.939 1279.99 Q622.154 1278.75 625.177 1278.14 Q628.201 1277.51 631.066 1277.51 Q638.8 1277.51 642.619 1281.52 Q646.439 1285.53 646.439 1293.68 Z" fill="#000000" fill-rule="nonzero" fill-opacity="1" /><path clip-path="url(#clip970)" d="M688.134 1292.5 L688.134 1314.01 L682.278 1314.01 L682.278 1292.69 Q682.278 1287.63 680.304 1285.11 Q678.331 1282.6 674.384 1282.6 Q669.642 1282.6 666.904 1285.62 Q664.167 1288.65 664.167 1293.87 L664.167 1314.01 L658.279 1314.01 L658.279 1278.37 L664.167 1278.37 L664.167 1283.9 Q666.268 1280.69 669.101 1279.1 Q671.965 1277.51 675.689 1277.51 Q681.832 1277.51 684.983 1281.33 Q688.134 1285.11 688.134 1292.5 Z" fill="#000000" fill-rule="nonzero" fill-opacity="1" /><path clip-path="url(#clip970)" d="M723.273 1283.78 L723.273 1264.49 L729.129 1264.49 L729.129 1314.01 L723.273 1314.01 L723.273 1308.67 Q721.427 1311.85 718.594 1313.41 Q715.793 1314.94 711.846 1314.94 Q705.385 1314.94 701.311 1309.78 Q697.269 1304.63 697.269 1296.22 Q697.269 1287.82 701.311 1282.66 Q705.385 1277.51 711.846 1277.51 Q715.793 1277.51 718.594 1279.07 Q721.427 1280.59 723.273 1283.78 M703.316 1296.22 Q703.316 1302.68 705.958 1306.38 Q708.632 1310.04 713.279 1310.04 Q717.926 1310.04 720.599 1306.38 Q723.273 1302.68 723.273 1296.22 Q723.273 1289.76 720.599 1286.1 Q717.926 1282.41 713.279 1282.41 Q708.632 1282.41 705.958 1286.1 Q703.316 1289.76 703.316 1296.22 Z" fill="#000000" fill-rule="nonzero" fill-opacity="1" /><path clip-path="url(#clip970)" d="M757.393 1296.1 Q750.295 1296.1 747.558 1297.72 Q744.821 1299.34 744.821 1303.26 Q744.821 1306.38 746.858 1308.22 Q748.927 1310.04 752.46 1310.04 Q757.329 1310.04 760.258 1306.6 Q763.218 1303.13 763.218 1297.4 L763.218 1296.1 L757.393 1296.1 M769.074 1293.68 L769.074 1314.01 L763.218 1314.01 L763.218 1308.6 Q761.212 1311.85 758.221 1313.41 Q755.229 1314.94 750.9 1314.94 Q745.425 1314.94 742.179 1311.88 Q738.964 1308.79 738.964 1303.64 Q738.964 1297.62 742.975 1294.57 Q747.017 1291.51 755.006 1291.51 L763.218 1291.51 L763.218 1290.94 Q763.218 1286.9 760.544 1284.7 Q757.902 1282.47 753.096 1282.47 Q750.041 1282.47 747.144 1283.2 Q744.248 1283.94 741.574 1285.4 L741.574 1279.99 Q744.789 1278.75 747.813 1278.14 Q750.836 1277.51 753.701 1277.51 Q761.435 1277.51 765.255 1281.52 Q769.074 1285.53 769.074 1293.68 Z" fill="#000000" fill-rule="nonzero" fill-opacity="1" /><path clip-path="url(#clip970)" d="M801.794 1283.84 Q800.807 1283.27 799.629 1283.01 Q798.484 1282.73 797.083 1282.73 Q792.118 1282.73 789.444 1285.97 Q786.803 1289.19 786.803 1295.24 L786.803 1314.01 L780.914 1314.01 L780.914 1278.37 L786.803 1278.37 L786.803 1283.9 Q788.649 1280.66 791.609 1279.1 Q794.569 1277.51 798.802 1277.51 Q799.407 1277.51 800.139 1277.6 Q800.871 1277.67 801.762 1277.83 L801.794 1283.84 Z" fill="#000000" fill-rule="nonzero" fill-opacity="1" /><path clip-path="url(#clip970)" d="M830.248 1283.78 L830.248 1264.49 L836.105 1264.49 L836.105 1314.01 L830.248 1314.01 L830.248 1308.67 Q828.402 1311.85 825.57 1313.41 Q822.769 1314.94 818.822 1314.94 Q812.361 1314.94 808.287 1309.78 Q804.245 1304.63 804.245 1296.22 Q804.245 1287.82 808.287 1282.66 Q812.361 1277.51 818.822 1277.51 Q822.769 1277.51 825.57 1279.07 Q828.402 1280.59 830.248 1283.78 M810.292 1296.22 Q810.292 1302.68 812.934 1306.38 Q815.607 1310.04 820.254 1310.04 Q824.901 1310.04 827.575 1306.38 Q830.248 1302.68 830.248 1296.22 Q830.248 1289.76 827.575 1286.1 Q824.901 1282.41 820.254 1282.41 Q815.607 1282.41 812.934 1286.1 Q810.292 1289.76 810.292 1296.22 Z" fill="#000000" fill-rule="nonzero" fill-opacity="1" /><path clip-path="url(#clip970)" d="M848.168 1278.37 L854.024 1278.37 L854.024 1314.01 L848.168 1314.01 L848.168 1278.37 M848.168 1264.49 L854.024 1264.49 L854.024 1271.91 L848.168 1271.91 L848.168 1264.49 Z" fill="#000000" fill-rule="nonzero" fill-opacity="1" /><path clip-path="url(#clip970)" d="M863.732 1278.37 L891.55 1278.37 L891.55 1283.71 L869.525 1309.34 L891.55 1309.34 L891.55 1314.01 L862.936 1314.01 L862.936 1308.67 L884.962 1283.05 L863.732 1283.05 L863.732 1278.37 Z" fill="#000000" fill-rule="nonzero" fill-opacity="1" /><path clip-path="url(#clip970)" d="M930.986 1294.73 L930.986 1297.59 L904.059 1297.59 Q904.441 1303.64 907.687 1306.82 Q910.966 1309.97 916.79 1309.97 Q920.164 1309.97 923.315 1309.14 Q926.498 1308.32 929.617 1306.66 L929.617 1312.2 Q926.466 1313.54 923.156 1314.24 Q919.846 1314.94 916.44 1314.94 Q907.91 1314.94 902.913 1309.97 Q897.948 1305.01 897.948 1296.54 Q897.948 1287.79 902.658 1282.66 Q907.401 1277.51 915.422 1277.51 Q922.615 1277.51 926.784 1282.15 Q930.986 1286.77 930.986 1294.73 M925.129 1293.01 Q925.066 1288.2 922.424 1285.34 Q919.814 1282.47 915.485 1282.47 Q910.584 1282.47 907.624 1285.24 Q904.695 1288.01 904.25 1293.04 L925.129 1293.01 Z" fill="#000000" fill-rule="nonzero" fill-opacity="1" /><path clip-path="url(#clip970)" d="M964.056 1283.78 L964.056 1264.49 L969.912 1264.49 L969.912 1314.01 L964.056 1314.01 L964.056 1308.67 Q962.21 1311.85 959.377 1313.41 Q956.576 1314.94 952.629 1314.94 Q946.168 1314.94 942.094 1309.78 Q938.052 1304.63 938.052 1296.22 Q938.052 1287.82 942.094 1282.66 Q946.168 1277.51 952.629 1277.51 Q956.576 1277.51 959.377 1279.07 Q962.21 1280.59 964.056 1283.78 M944.099 1296.22 Q944.099 1302.68 946.741 1306.38 Q949.415 1310.04 954.061 1310.04 Q958.708 1310.04 961.382 1306.38 Q964.056 1302.68 964.056 1296.22 Q964.056 1289.76 961.382 1286.1 Q958.708 1282.41 954.061 1282.41 Q949.415 1282.41 946.741 1286.1 Q944.099 1289.76 944.099 1296.22 Z" fill="#000000" fill-rule="nonzero" fill-opacity="1" /><path clip-path="url(#clip970)" d="M1009.38 1271.78 L1009.38 1289.63 L1017.46 1289.63 Q1021.95 1289.63 1024.4 1287.31 Q1026.85 1284.99 1026.85 1280.69 Q1026.85 1276.43 1024.4 1274.1 Q1021.95 1271.78 1017.46 1271.78 L1009.38 1271.78 M1002.95 1266.49 L1017.46 1266.49 Q1025.45 1266.49 1029.53 1270.12 Q1033.63 1273.72 1033.63 1280.69 Q1033.63 1287.72 1029.53 1291.32 Q1025.45 1294.92 1017.46 1294.92 L1009.38 1294.92 L1009.38 1314.01 L1002.95 1314.01 L1002.95 1266.49 Z" fill="#000000" fill-rule="nonzero" fill-opacity="1" /><path clip-path="url(#clip970)" d="M1070.17 1294.73 L1070.17 1297.59 L1043.25 1297.59 Q1043.63 1303.64 1046.87 1306.82 Q1050.15 1309.97 1055.98 1309.97 Q1059.35 1309.97 1062.5 1309.14 Q1065.68 1308.32 1068.8 1306.66 L1068.8 1312.2 Q1065.65 1313.54 1062.34 1314.24 Q1059.03 1314.94 1055.63 1314.94 Q1047.1 1314.94 1042.1 1309.97 Q1037.13 1305.01 1037.13 1296.54 Q1037.13 1287.79 1041.84 1282.66 Q1046.59 1277.51 1054.61 1277.51 Q1061.8 1277.51 1065.97 1282.15 Q1070.17 1286.77 1070.17 1294.73 M1064.32 1293.01 Q1064.25 1288.2 1061.61 1285.34 Q1059 1282.47 1054.67 1282.47 Q1049.77 1282.47 1046.81 1285.24 Q1043.88 1288.01 1043.44 1293.04 L1064.32 1293.01 Z" fill="#000000" fill-rule="nonzero" fill-opacity="1" /><path clip-path="url(#clip970)" d="M1100.44 1283.84 Q1099.45 1283.27 1098.28 1283.01 Q1097.13 1282.73 1095.73 1282.73 Q1090.77 1282.73 1088.09 1285.97 Q1085.45 1289.19 1085.45 1295.24 L1085.45 1314.01 L1079.56 1314.01 L1079.56 1278.37 L1085.45 1278.37 L1085.45 1283.9 Q1087.3 1280.66 1090.26 1279.1 Q1093.22 1277.51 1097.45 1277.51 Q1098.05 1277.51 1098.79 1277.6 Q1099.52 1277.67 1100.41 1277.83 L1100.44 1283.84 Z" fill="#000000" fill-rule="nonzero" fill-opacity="1" /><path clip-path="url(#clip970)" d="M1130.81 1279.74 L1130.81 1285.21 Q1128.32 1283.84 1125.81 1283.17 Q1123.33 1282.47 1120.78 1282.47 Q1115.08 1282.47 1111.93 1286.1 Q1108.78 1289.7 1108.78 1296.22 Q1108.78 1302.75 1111.93 1306.38 Q1115.08 1309.97 1120.78 1309.97 Q1123.33 1309.97 1125.81 1309.3 Q1128.32 1308.6 1130.81 1307.24 L1130.81 1312.65 Q1128.35 1313.79 1125.71 1314.36 Q1123.1 1314.94 1120.14 1314.94 Q1112.09 1314.94 1107.35 1309.88 Q1102.61 1304.82 1102.61 1296.22 Q1102.61 1287.5 1107.38 1282.5 Q1112.19 1277.51 1120.52 1277.51 Q1123.23 1277.51 1125.81 1278.08 Q1128.39 1278.62 1130.81 1279.74 Z" fill="#000000" fill-rule="nonzero" fill-opacity="1" /><path clip-path="url(#clip970)" d="M1171.48 1294.73 L1171.48 1297.59 L1144.56 1297.59 Q1144.94 1303.64 1148.18 1306.82 Q1151.46 1309.97 1157.29 1309.97 Q1160.66 1309.97 1163.81 1309.14 Q1166.99 1308.32 1170.11 1306.66 L1170.11 1312.2 Q1166.96 1313.54 1163.65 1314.24 Q1160.34 1314.94 1156.94 1314.94 Q1148.41 1314.94 1143.41 1309.97 Q1138.44 1305.01 1138.44 1296.54 Q1138.44 1287.79 1143.15 1282.66 Q1147.9 1277.51 1155.92 1277.51 Q1163.11 1277.51 1167.28 1282.15 Q1171.48 1286.77 1171.48 1294.73 M1165.63 1293.01 Q1165.56 1288.2 1162.92 1285.34 Q1160.31 1282.47 1155.98 1282.47 Q1151.08 1282.47 1148.12 1285.24 Q1145.19 1288.01 1144.75 1293.04 L1165.63 1293.01 Z" fill="#000000" fill-rule="nonzero" fill-opacity="1" /><path clip-path="url(#clip970)" d="M1210.73 1292.5 L1210.73 1314.01 L1204.87 1314.01 L1204.87 1292.69 Q1204.87 1287.63 1202.9 1285.11 Q1200.92 1282.6 1196.98 1282.6 Q1192.23 1282.6 1189.5 1285.62 Q1186.76 1288.65 1186.76 1293.87 L1186.76 1314.01 L1180.87 1314.01 L1180.87 1278.37 L1186.76 1278.37 L1186.76 1283.9 Q1188.86 1280.69 1191.69 1279.1 Q1194.56 1277.51 1198.28 1277.51 Q1204.42 1277.51 1207.58 1281.33 Q1210.73 1285.11 1210.73 1292.5 Z" fill="#000000" fill-rule="nonzero" fill-opacity="1" /><path clip-path="url(#clip970)" d="M1228.2 1268.25 L1228.2 1278.37 L1240.26 1278.37 L1240.26 1282.92 L1228.2 1282.92 L1228.2 1302.27 Q1228.2 1306.63 1229.38 1307.87 Q1230.59 1309.11 1234.25 1309.11 L1240.26 1309.11 L1240.26 1314.01 L1234.25 1314.01 Q1227.47 1314.01 1224.89 1311.5 Q1222.31 1308.95 1222.31 1302.27 L1222.31 1282.92 L1218.02 1282.92 L1218.02 1278.37 L1222.31 1278.37 L1222.31 1268.25 L1228.2 1268.25 Z" fill="#000000" fill-rule="nonzero" fill-opacity="1" /><path clip-path="url(#clip970)" d="M1301.34 1307.24 L1301.34 1294.47 L1290.84 1294.47 L1290.84 1289.19 L1307.71 1289.19 L1307.71 1309.59 Q1303.98 1312.23 1299.5 1313.6 Q1295.01 1314.94 1289.92 1314.94 Q1278.78 1314.94 1272.47 1308.44 Q1266.2 1301.92 1266.2 1290.3 Q1266.2 1278.65 1272.47 1272.16 Q1278.78 1265.64 1289.92 1265.64 Q1294.56 1265.64 1298.73 1266.78 Q1302.93 1267.93 1306.47 1270.16 L1306.47 1277 Q1302.9 1273.97 1298.89 1272.45 Q1294.88 1270.92 1290.46 1270.92 Q1281.74 1270.92 1277.34 1275.79 Q1272.98 1280.66 1272.98 1290.3 Q1272.98 1299.91 1277.34 1304.78 Q1281.74 1309.65 1290.46 1309.65 Q1293.86 1309.65 1296.54 1309.08 Q1299.21 1308.48 1301.34 1307.24 Z" fill="#000000" fill-rule="nonzero" fill-opacity="1" /><path clip-path="url(#clip970)" d="M1339.86 1283.84 Q1338.87 1283.27 1337.69 1283.01 Q1336.54 1282.73 1335.14 1282.73 Q1330.18 1282.73 1327.51 1285.97 Q1324.86 1289.19 1324.86 1295.24 L1324.86 1314.01 L1318.98 1314.01 L1318.98 1278.37 L1324.86 1278.37 L1324.86 1283.9 Q1326.71 1280.66 1329.67 1279.1 Q1332.63 1277.51 1336.86 1277.51 Q1337.47 1277.51 1338.2 1277.6 Q1338.93 1277.67 1339.82 1277.83 L1339.86 1283.84 Z" fill="#000000" fill-rule="nonzero" fill-opacity="1" /><path clip-path="url(#clip970)" d="M1358.38 1282.47 Q1353.67 1282.47 1350.93 1286.16 Q1348.19 1289.83 1348.19 1296.22 Q1348.19 1302.62 1350.9 1306.31 Q1353.64 1309.97 1358.38 1309.97 Q1363.06 1309.97 1365.8 1306.28 Q1368.53 1302.59 1368.53 1296.22 Q1368.53 1289.89 1365.8 1286.2 Q1363.06 1282.47 1358.38 1282.47 M1358.38 1277.51 Q1366.02 1277.51 1370.38 1282.47 Q1374.74 1287.44 1374.74 1296.22 Q1374.74 1304.98 1370.38 1309.97 Q1366.02 1314.94 1358.38 1314.94 Q1350.71 1314.94 1346.35 1309.97 Q1342.02 1304.98 1342.02 1296.22 Q1342.02 1287.44 1346.35 1282.47 Q1350.71 1277.51 1358.38 1277.51 Z" fill="#000000" fill-rule="nonzero" fill-opacity="1" /><path clip-path="url(#clip970)" d="M1383.84 1299.95 L1383.84 1278.37 L1389.7 1278.37 L1389.7 1299.72 Q1389.7 1304.78 1391.67 1307.33 Q1393.65 1309.85 1397.59 1309.85 Q1402.33 1309.85 1405.07 1306.82 Q1407.84 1303.8 1407.84 1298.58 L1407.84 1278.37 L1413.7 1278.37 L1413.7 1314.01 L1407.84 1314.01 L1407.84 1308.54 Q1405.71 1311.79 1402.88 1313.38 Q1400.07 1314.94 1396.35 1314.94 Q1390.21 1314.94 1387.03 1311.12 Q1383.84 1307.3 1383.84 1299.95 M1398.58 1277.51 L1398.58 1277.51 Z" fill="#000000" fill-rule="nonzero" fill-opacity="1" /><path clip-path="url(#clip970)" d="M1455.39 1292.5 L1455.39 1314.01 L1449.54 1314.01 L1449.54 1292.69 Q1449.54 1287.63 1447.56 1285.11 Q1445.59 1282.6 1441.64 1282.6 Q1436.9 1282.6 1434.16 1285.62 Q1431.43 1288.65 1431.43 1293.87 L1431.43 1314.01 L1425.54 1314.01 L1425.54 1278.37 L1431.43 1278.37 L1431.43 1283.9 Q1433.53 1280.69 1436.36 1279.1 Q1439.22 1277.51 1442.95 1277.51 Q1449.09 1277.51 1452.24 1281.33 Q1455.39 1285.11 1455.39 1292.5 Z" fill="#000000" fill-rule="nonzero" fill-opacity="1" /><path clip-path="url(#clip970)" d="M1490.53 1283.78 L1490.53 1264.49 L1496.39 1264.49 L1496.39 1314.01 L1490.53 1314.01 L1490.53 1308.67 Q1488.69 1311.85 1485.85 1313.41 Q1483.05 1314.94 1479.1 1314.94 Q1472.64 1314.94 1468.57 1309.78 Q1464.53 1304.63 1464.53 1296.22 Q1464.53 1287.82 1468.57 1282.66 Q1472.64 1277.51 1479.1 1277.51 Q1483.05 1277.51 1485.85 1279.07 Q1488.69 1280.59 1490.53 1283.78 M1470.57 1296.22 Q1470.57 1302.68 1473.22 1306.38 Q1475.89 1310.04 1480.54 1310.04 Q1485.18 1310.04 1487.86 1306.38 Q1490.53 1302.68 1490.53 1296.22 Q1490.53 1289.76 1487.86 1286.1 Q1485.18 1282.41 1480.54 1282.41 Q1475.89 1282.41 1473.22 1286.1 Q1470.57 1289.76 1470.57 1296.22 Z" fill="#000000" fill-rule="nonzero" fill-opacity="1" /><path clip-path="url(#clip970)" d="M1565.01 1270.16 L1565.01 1276.93 Q1561.76 1273.91 1558.07 1272.41 Q1554.41 1270.92 1550.27 1270.92 Q1542.13 1270.92 1537.8 1275.92 Q1533.47 1280.88 1533.47 1290.3 Q1533.47 1299.69 1537.8 1304.69 Q1542.13 1309.65 1550.27 1309.65 Q1554.41 1309.65 1558.07 1308.16 Q1561.76 1306.66 1565.01 1303.64 L1565.01 1310.35 Q1561.64 1312.65 1557.85 1313.79 Q1554.09 1314.94 1549.89 1314.94 Q1539.1 1314.94 1532.9 1308.35 Q1526.69 1301.73 1526.69 1290.3 Q1526.69 1278.84 1532.9 1272.26 Q1539.1 1265.64 1549.89 1265.64 Q1554.16 1265.64 1557.91 1266.78 Q1561.7 1267.9 1565.01 1270.16 Z" fill="#000000" fill-rule="nonzero" fill-opacity="1" /><path clip-path="url(#clip970)" d="M1588.5 1282.47 Q1583.79 1282.47 1581.05 1286.16 Q1578.31 1289.83 1578.31 1296.22 Q1578.31 1302.62 1581.02 1306.31 Q1583.76 1309.97 1588.5 1309.97 Q1593.18 1309.97 1595.92 1306.28 Q1598.65 1302.59 1598.65 1296.22 Q1598.65 1289.89 1595.92 1286.2 Q1593.18 1282.47 1588.5 1282.47 M1588.5 1277.51 Q1596.14 1277.51 1600.5 1282.47 Q1604.86 1287.44 1604.86 1296.22 Q1604.86 1304.98 1600.5 1309.97 Q1596.14 1314.94 1588.5 1314.94 Q1580.83 1314.94 1576.47 1309.97 Q1572.14 1304.98 1572.14 1296.22 Q1572.14 1287.44 1576.47 1282.47 Q1580.83 1277.51 1588.5 1277.51 Z" fill="#000000" fill-rule="nonzero" fill-opacity="1" /><path clip-path="url(#clip970)" d="M1610.37 1278.37 L1616.57 1278.37 L1627.71 1308.29 L1638.85 1278.37 L1645.06 1278.37 L1631.69 1314.01 L1623.73 1314.01 L1610.37 1278.37 Z" fill="#000000" fill-rule="nonzero" fill-opacity="1" /><path clip-path="url(#clip970)" d="M1683.64 1294.73 L1683.64 1297.59 L1656.71 1297.59 Q1657.09 1303.64 1660.34 1306.82 Q1663.61 1309.97 1669.44 1309.97 Q1672.81 1309.97 1675.96 1309.14 Q1679.15 1308.32 1682.27 1306.66 L1682.27 1312.2 Q1679.12 1313.54 1675.81 1314.24 Q1672.5 1314.94 1669.09 1314.94 Q1660.56 1314.94 1655.56 1309.97 Q1650.6 1305.01 1650.6 1296.54 Q1650.6 1287.79 1655.31 1282.66 Q1660.05 1277.51 1668.07 1277.51 Q1675.26 1277.51 1679.43 1282.15 Q1683.64 1286.77 1683.64 1294.73 M1677.78 1293.01 Q1677.71 1288.2 1675.07 1285.34 Q1672.46 1282.47 1668.13 1282.47 Q1663.23 1282.47 1660.27 1285.24 Q1657.34 1288.01 1656.9 1293.04 L1677.78 1293.01 Z" fill="#000000" fill-rule="nonzero" fill-opacity="1" /><path clip-path="url(#clip970)" d="M1713.9 1283.84 Q1712.92 1283.27 1711.74 1283.01 Q1710.59 1282.73 1709.19 1282.73 Q1704.23 1282.73 1701.55 1285.97 Q1698.91 1289.19 1698.91 1295.24 L1698.91 1314.01 L1693.02 1314.01 L1693.02 1278.37 L1698.91 1278.37 L1698.91 1283.9 Q1700.76 1280.66 1703.72 1279.1 Q1706.68 1277.51 1710.91 1277.51 Q1711.52 1277.51 1712.25 1277.6 Q1712.98 1277.67 1713.87 1277.83 L1713.9 1283.84 Z" fill="#000000" fill-rule="nonzero" fill-opacity="1" /><polyline clip-path="url(#clip970)" style="stroke:#000000; stroke-linecap:round; stroke-linejoin:round; stroke-width:4; stroke-opacity:1; fill:none" points="198.924,1173.47 198.924,47.2441 "/>
<polyline clip-path="url(#clip970)" style="stroke:#000000; stroke-linecap:round; stroke-linejoin:round; stroke-width:4; stroke-opacity:1; fill:none" points="198.924,1141.6 217.821,1141.6 "/>
<polyline clip-path="url(#clip970)" style="stroke:#000000; stroke-linecap:round; stroke-linejoin:round; stroke-width:4; stroke-opacity:1; fill:none" points="198.924,910.623 217.821,910.623 "/>
<polyline clip-path="url(#clip970)" style="stroke:#000000; stroke-linecap:round; stroke-linejoin:round; stroke-width:4; stroke-opacity:1; fill:none" points="198.924,679.649 217.821,679.649 "/>
<polyline clip-path="url(#clip970)" style="stroke:#000000; stroke-linecap:round; stroke-linejoin:round; stroke-width:4; stroke-opacity:1; fill:none" points="198.924,448.676 217.821,448.676 "/>
<polyline clip-path="url(#clip970)" style="stroke:#000000; stroke-linecap:round; stroke-linejoin:round; stroke-width:4; stroke-opacity:1; fill:none" points="198.924,217.703 217.821,217.703 "/>
<path clip-path="url(#clip970)" d="M155.299 1127.4 Q151.688 1127.4 149.859 1130.96 Q148.054 1134.5 148.054 1141.63 Q148.054 1148.74 149.859 1152.3 Q151.688 1155.84 155.299 1155.84 Q158.933 1155.84 160.739 1152.3 Q162.568 1148.74 162.568 1141.63 Q162.568 1134.5 160.739 1130.96 Q158.933 1127.4 155.299 1127.4 M155.299 1123.69 Q161.109 1123.69 164.165 1128.3 Q167.244 1132.88 167.244 1141.63 Q167.244 1150.36 164.165 1154.96 Q161.109 1159.55 155.299 1159.55 Q149.489 1159.55 146.41 1154.96 Q143.355 1150.36 143.355 1141.63 Q143.355 1132.88 146.41 1128.3 Q149.489 1123.69 155.299 1123.69 Z" fill="#000000" fill-rule="nonzero" fill-opacity="1" /><path clip-path="url(#clip970)" d="M146.341 893.343 L164.697 893.343 L164.697 897.278 L150.623 897.278 L150.623 905.75 Q151.642 905.403 152.66 905.241 Q153.679 905.056 154.697 905.056 Q160.484 905.056 163.864 908.227 Q167.244 911.398 167.244 916.815 Q167.244 922.394 163.771 925.496 Q160.299 928.574 153.98 928.574 Q151.804 928.574 149.535 928.204 Q147.29 927.833 144.883 927.093 L144.883 922.394 Q146.966 923.528 149.188 924.084 Q151.41 924.639 153.887 924.639 Q157.892 924.639 160.23 922.533 Q162.568 920.426 162.568 916.815 Q162.568 913.204 160.23 911.097 Q157.892 908.991 153.887 908.991 Q152.012 908.991 150.137 909.408 Q148.285 909.824 146.341 910.704 L146.341 893.343 Z" fill="#000000" fill-rule="nonzero" fill-opacity="1" /><path clip-path="url(#clip970)" d="M115.948 692.994 L123.586 692.994 L123.586 666.629 L115.276 668.295 L115.276 664.036 L123.54 662.369 L128.216 662.369 L128.216 692.994 L135.855 692.994 L135.855 696.929 L115.948 696.929 L115.948 692.994 Z" fill="#000000" fill-rule="nonzero" fill-opacity="1" /><path clip-path="url(#clip970)" d="M155.299 665.448 Q151.688 665.448 149.859 669.013 Q148.054 672.555 148.054 679.684 Q148.054 686.791 149.859 690.355 Q151.688 693.897 155.299 693.897 Q158.933 693.897 160.739 690.355 Q162.568 686.791 162.568 679.684 Q162.568 672.555 160.739 669.013 Q158.933 665.448 155.299 665.448 M155.299 661.744 Q161.109 661.744 164.165 666.351 Q167.244 670.934 167.244 679.684 Q167.244 688.411 164.165 693.017 Q161.109 697.601 155.299 697.601 Q149.489 697.601 146.41 693.017 Q143.355 688.411 143.355 679.684 Q143.355 670.934 146.41 666.351 Q149.489 661.744 155.299 661.744 Z" fill="#000000" fill-rule="nonzero" fill-opacity="1" /><path clip-path="url(#clip970)" d="M116.943 462.021 L124.582 462.021 L124.582 435.655 L116.272 437.322 L116.272 433.063 L124.535 431.396 L129.211 431.396 L129.211 462.021 L136.85 462.021 L136.85 465.956 L116.943 465.956 L116.943 462.021 Z" fill="#000000" fill-rule="nonzero" fill-opacity="1" /><path clip-path="url(#clip970)" d="M146.341 431.396 L164.697 431.396 L164.697 435.331 L150.623 435.331 L150.623 443.803 Q151.642 443.456 152.66 443.294 Q153.679 443.109 154.697 443.109 Q160.484 443.109 163.864 446.28 Q167.244 449.451 167.244 454.868 Q167.244 460.447 163.771 463.549 Q160.299 466.627 153.98 466.627 Q151.804 466.627 149.535 466.257 Q147.29 465.887 144.883 465.146 L144.883 460.447 Q146.966 461.581 149.188 462.137 Q151.41 462.692 153.887 462.692 Q157.892 462.692 160.23 460.586 Q162.568 458.479 162.568 454.868 Q162.568 451.257 160.23 449.151 Q157.892 447.044 153.887 447.044 Q152.012 447.044 150.137 447.461 Q148.285 447.877 146.341 448.757 L146.341 431.396 Z" fill="#000000" fill-rule="nonzero" fill-opacity="1" /><path clip-path="url(#clip970)" d="M119.165 231.047 L135.484 231.047 L135.484 234.983 L113.54 234.983 L113.54 231.047 Q116.202 228.293 120.785 223.663 Q125.392 219.01 126.572 217.668 Q128.818 215.145 129.697 213.409 Q130.6 211.649 130.6 209.96 Q130.6 207.205 128.656 205.469 Q126.735 203.733 123.633 203.733 Q121.434 203.733 118.98 204.497 Q116.549 205.26 113.772 206.811 L113.772 202.089 Q116.596 200.955 119.049 200.376 Q121.503 199.798 123.54 199.798 Q128.91 199.798 132.105 202.483 Q135.299 205.168 135.299 209.659 Q135.299 211.788 134.489 213.709 Q133.702 215.608 131.596 218.2 Q131.017 218.871 127.915 222.089 Q124.813 225.283 119.165 231.047 Z" fill="#000000" fill-rule="nonzero" fill-opacity="1" /><path clip-path="url(#clip970)" d="M155.299 203.501 Q151.688 203.501 149.859 207.066 Q148.054 210.608 148.054 217.737 Q148.054 224.844 149.859 228.408 Q151.688 231.95 155.299 231.95 Q158.933 231.95 160.739 228.408 Q162.568 224.844 162.568 217.737 Q162.568 210.608 160.739 207.066 Q158.933 203.501 155.299 203.501 M155.299 199.798 Q161.109 199.798 164.165 204.404 Q167.244 208.987 167.244 217.737 Q167.244 226.464 164.165 231.071 Q161.109 235.654 155.299 235.654 Q149.489 235.654 146.41 231.071 Q143.355 226.464 143.355 217.737 Q143.355 208.987 146.41 204.404 Q149.489 199.798 155.299 199.798 Z" fill="#000000" fill-rule="nonzero" fill-opacity="1" /><path clip-path="url(#clip970)" d="M21.6438 880.2 L27.914 880.2 Q26.1634 883.86 25.304 887.107 Q24.4447 890.353 24.4447 893.377 Q24.4447 898.628 26.4817 901.493 Q28.5187 904.326 32.2745 904.326 Q35.4255 904.326 37.0488 902.448 Q38.6402 900.538 39.6269 895.255 L40.4226 891.372 Q41.7912 884.178 45.2605 880.773 Q48.698 877.335 54.4908 877.335 Q61.3976 877.335 64.9624 881.982 Q68.5272 886.597 68.5272 895.541 Q68.5272 898.915 67.7633 902.734 Q66.9994 906.522 65.5035 910.596 L58.8831 910.596 Q61.0793 906.681 62.1933 902.925 Q63.3073 899.17 63.3073 895.541 Q63.3073 890.035 61.143 887.043 Q58.9786 884.051 54.9682 884.051 Q51.4671 884.051 49.4937 886.215 Q47.5204 888.348 46.5337 893.249 L45.7698 897.164 Q44.3375 904.358 41.282 907.572 Q38.2264 910.787 32.7837 910.787 Q26.4817 910.787 22.8532 906.363 Q19.2248 901.907 19.2248 894.109 Q19.2248 890.767 19.8295 887.297 Q20.4343 883.828 21.6438 880.2 Z" fill="#000000" fill-rule="nonzero" fill-opacity="1" /><path clip-path="url(#clip970)" d="M49.6847 851.363 Q49.6847 858.461 51.3079 861.198 Q52.9312 863.935 56.8461 863.935 Q59.9653 863.935 61.8114 861.898 Q63.6256 859.829 63.6256 856.296 Q63.6256 851.427 60.1881 848.499 Q56.7188 845.538 50.9897 845.538 L49.6847 845.538 L49.6847 851.363 M47.2657 839.682 L67.6042 839.682 L67.6042 845.538 L62.1933 845.538 Q65.4398 847.544 66.9994 850.536 Q68.5272 853.527 68.5272 857.856 Q68.5272 863.331 65.4716 866.577 Q62.3843 869.792 57.2281 869.792 Q51.2125 869.792 48.1569 865.781 Q45.1014 861.739 45.1014 853.75 L45.1014 845.538 L44.5285 845.538 Q40.4862 845.538 38.2901 848.212 Q36.0621 850.854 36.0621 855.66 Q36.0621 858.715 36.7941 861.612 Q37.5262 864.508 38.9903 867.182 L33.5795 867.182 Q32.3381 863.967 31.7334 860.943 Q31.0968 857.92 31.0968 855.055 Q31.0968 847.321 35.1072 843.501 Q39.1176 839.682 47.2657 839.682 Z" fill="#000000" fill-rule="nonzero" fill-opacity="1" /><path clip-path="url(#clip970)" d="M18.079 827.619 L18.079 821.763 L67.6042 821.763 L67.6042 827.619 L18.079 827.619 Z" fill="#000000" fill-rule="nonzero" fill-opacity="1" /><path clip-path="url(#clip970)" d="M49.6847 793.308 Q49.6847 800.406 51.3079 803.143 Q52.9312 805.88 56.8461 805.88 Q59.9653 805.88 61.8114 803.843 Q63.6256 801.774 63.6256 798.241 Q63.6256 793.371 60.1881 790.443 Q56.7188 787.483 50.9897 787.483 L49.6847 787.483 L49.6847 793.308 M47.2657 781.627 L67.6042 781.627 L67.6042 787.483 L62.1933 787.483 Q65.4398 789.488 66.9994 792.48 Q68.5272 795.472 68.5272 799.801 Q68.5272 805.275 65.4716 808.522 Q62.3843 811.737 57.2281 811.737 Q51.2125 811.737 48.1569 807.726 Q45.1014 803.684 45.1014 795.695 L45.1014 787.483 L44.5285 787.483 Q40.4862 787.483 38.2901 790.157 Q36.0621 792.799 36.0621 797.605 Q36.0621 800.66 36.7941 803.557 Q37.5262 806.453 38.9903 809.127 L33.5795 809.127 Q32.3381 805.912 31.7334 802.888 Q31.0968 799.865 31.0968 797 Q31.0968 789.266 35.1072 785.446 Q39.1176 781.627 47.2657 781.627 Z" fill="#000000" fill-rule="nonzero" fill-opacity="1" /><path clip-path="url(#clip970)" d="M38.7993 741.809 Q34.8526 739.613 32.9747 736.558 Q31.0968 733.502 31.0968 729.364 Q31.0968 723.794 35.0117 720.771 Q38.8948 717.747 46.0881 717.747 L67.6042 717.747 L67.6042 723.635 L46.279 723.635 Q41.1546 723.635 38.672 725.449 Q36.1894 727.264 36.1894 730.988 Q36.1894 735.539 39.2131 738.181 Q42.2368 740.823 47.4567 740.823 L67.6042 740.823 L67.6042 746.711 L46.279 746.711 Q41.1228 746.711 38.672 748.525 Q36.1894 750.339 36.1894 754.127 Q36.1894 758.615 39.2449 761.256 Q42.2686 763.898 47.4567 763.898 L67.6042 763.898 L67.6042 769.787 L31.9562 769.787 L31.9562 763.898 L37.4944 763.898 Q34.216 761.893 32.6564 759.092 Q31.0968 756.291 31.0968 752.44 Q31.0968 748.557 33.0702 745.851 Q35.0436 743.114 38.7993 741.809 Z" fill="#000000" fill-rule="nonzero" fill-opacity="1" /><path clip-path="url(#clip970)" d="M49.6847 689.865 Q49.6847 696.963 51.3079 699.7 Q52.9312 702.437 56.8461 702.437 Q59.9653 702.437 61.8114 700.4 Q63.6256 698.331 63.6256 694.799 Q63.6256 689.929 60.1881 687.001 Q56.7188 684.04 50.9897 684.04 L49.6847 684.04 L49.6847 689.865 M47.2657 678.184 L67.6042 678.184 L67.6042 684.04 L62.1933 684.04 Q65.4398 686.046 66.9994 689.038 Q68.5272 692.029 68.5272 696.358 Q68.5272 701.833 65.4716 705.079 Q62.3843 708.294 57.2281 708.294 Q51.2125 708.294 48.1569 704.283 Q45.1014 700.241 45.1014 692.252 L45.1014 684.04 L44.5285 684.04 Q40.4862 684.04 38.2901 686.714 Q36.0621 689.356 36.0621 694.162 Q36.0621 697.217 36.7941 700.114 Q37.5262 703.01 38.9903 705.684 L33.5795 705.684 Q32.3381 702.469 31.7334 699.445 Q31.0968 696.422 31.0968 693.557 Q31.0968 685.823 35.1072 682.003 Q39.1176 678.184 47.2657 678.184 Z" fill="#000000" fill-rule="nonzero" fill-opacity="1" /><path clip-path="url(#clip970)" d="M46.0881 636.489 L67.6042 636.489 L67.6042 642.345 L46.279 642.345 Q41.2183 642.345 38.7038 644.318 Q36.1894 646.292 36.1894 650.239 Q36.1894 654.981 39.2131 657.718 Q42.2368 660.456 47.4567 660.456 L67.6042 660.456 L67.6042 666.344 L31.9562 666.344 L31.9562 660.456 L37.4944 660.456 Q34.2797 658.355 32.6883 655.522 Q31.0968 652.658 31.0968 648.934 Q31.0968 642.791 34.9163 639.64 Q38.7038 636.489 46.0881 636.489 Z" fill="#000000" fill-rule="nonzero" fill-opacity="1" /><path clip-path="url(#clip970)" d="M37.3671 601.35 L18.079 601.35 L18.079 595.493 L67.6042 595.493 L67.6042 601.35 L62.257 601.35 Q65.4398 603.196 66.9994 606.029 Q68.5272 608.83 68.5272 612.776 Q68.5272 619.238 63.371 623.312 Q58.2147 627.354 49.812 627.354 Q41.4093 627.354 36.2531 623.312 Q31.0968 619.238 31.0968 612.776 Q31.0968 608.83 32.6564 606.029 Q34.1842 603.196 37.3671 601.35 M49.812 621.306 Q56.2732 621.306 59.9653 618.665 Q63.6256 615.991 63.6256 611.344 Q63.6256 606.697 59.9653 604.024 Q56.2732 601.35 49.812 601.35 Q43.3508 601.35 39.6905 604.024 Q35.9984 606.697 35.9984 611.344 Q35.9984 615.991 39.6905 618.665 Q43.3508 621.306 49.812 621.306 Z" fill="#000000" fill-rule="nonzero" fill-opacity="1" /><path clip-path="url(#clip970)" d="M48.3161 552.939 L51.1806 552.939 L51.1806 579.866 Q57.2281 579.484 60.4109 576.237 Q63.5619 572.959 63.5619 567.134 Q63.5619 563.76 62.7344 560.609 Q61.9069 557.427 60.2518 554.307 L65.7899 554.307 Q67.1267 557.458 67.827 560.769 Q68.5272 564.079 68.5272 567.484 Q68.5272 576.014 63.5619 581.012 Q58.5967 585.977 50.1303 585.977 Q41.3774 585.977 36.2531 581.266 Q31.0968 576.524 31.0968 568.503 Q31.0968 561.31 35.7438 557.14 Q40.3589 552.939 48.3161 552.939 M46.5973 558.795 Q41.7912 558.859 38.9266 561.501 Q36.0621 564.111 36.0621 568.439 Q36.0621 573.341 38.8312 576.301 Q41.6002 579.229 46.6292 579.675 L46.5973 558.795 Z" fill="#000000" fill-rule="nonzero" fill-opacity="1" /><path clip-path="url(#clip970)" d="M37.4307 522.67 Q36.8578 523.656 36.6032 524.834 Q36.3167 525.98 36.3167 527.38 Q36.3167 532.346 39.5632 535.019 Q42.7779 537.661 48.8253 537.661 L67.6042 537.661 L67.6042 543.549 L31.9562 543.549 L31.9562 537.661 L37.4944 537.661 Q34.2479 535.815 32.6883 532.855 Q31.0968 529.895 31.0968 525.662 Q31.0968 525.057 31.1923 524.325 Q31.256 523.593 31.4151 522.702 L37.4307 522.67 Z" fill="#000000" fill-rule="nonzero" fill-opacity="1" /><path clip-path="url(#clip970)" d="M23.7444 459.968 L30.5239 459.968 Q27.5002 463.214 26.0043 466.906 Q24.5083 470.567 24.5083 474.704 Q24.5083 482.852 29.5054 487.181 Q34.4707 491.51 43.8919 491.51 Q53.2813 491.51 58.2784 487.181 Q63.2436 482.852 63.2436 474.704 Q63.2436 470.567 61.7477 466.906 Q60.2518 463.214 57.2281 459.968 L63.9439 459.968 Q66.2355 463.341 67.3814 467.129 Q68.5272 470.885 68.5272 475.086 Q68.5272 485.876 61.9387 492.083 Q55.3183 498.289 43.8919 498.289 Q32.4336 498.289 25.8451 492.083 Q19.2248 485.876 19.2248 475.086 Q19.2248 470.821 20.3706 467.065 Q21.4846 463.278 23.7444 459.968 Z" fill="#000000" fill-rule="nonzero" fill-opacity="1" /><path clip-path="url(#clip970)" d="M36.0621 436.478 Q36.0621 441.189 39.7542 443.926 Q43.4145 446.663 49.812 446.663 Q56.2095 446.663 59.9017 443.958 Q63.5619 441.221 63.5619 436.478 Q63.5619 431.799 59.8698 429.062 Q56.1777 426.325 49.812 426.325 Q43.4781 426.325 39.786 429.062 Q36.0621 431.799 36.0621 436.478 M31.0968 436.478 Q31.0968 428.839 36.0621 424.479 Q41.0273 420.118 49.812 420.118 Q58.5649 420.118 63.5619 424.479 Q68.5272 428.839 68.5272 436.478 Q68.5272 444.149 63.5619 448.509 Q58.5649 452.838 49.812 452.838 Q41.0273 452.838 36.0621 448.509 Q31.0968 444.149 31.0968 436.478 Z" fill="#000000" fill-rule="nonzero" fill-opacity="1" /><path clip-path="url(#clip970)" d="M53.5359 411.015 L31.9562 411.015 L31.9562 405.159 L53.3131 405.159 Q58.3739 405.159 60.9202 403.186 Q63.4346 401.212 63.4346 397.265 Q63.4346 392.523 60.4109 389.786 Q57.3872 387.017 52.1673 387.017 L31.9562 387.017 L31.9562 381.16 L67.6042 381.16 L67.6042 387.017 L62.1296 387.017 Q65.3762 389.149 66.9676 391.982 Q68.5272 394.783 68.5272 398.507 Q68.5272 404.65 64.7078 407.832 Q60.8883 411.015 53.5359 411.015 M31.0968 396.279 L31.0968 396.279 Z" fill="#000000" fill-rule="nonzero" fill-opacity="1" /><path clip-path="url(#clip970)" d="M46.0881 339.465 L67.6042 339.465 L67.6042 345.321 L46.279 345.321 Q41.2183 345.321 38.7038 347.295 Q36.1894 349.268 36.1894 353.215 Q36.1894 357.957 39.2131 360.694 Q42.2368 363.432 47.4567 363.432 L67.6042 363.432 L67.6042 369.32 L31.9562 369.32 L31.9562 363.432 L37.4944 363.432 Q34.2797 361.331 32.6883 358.498 Q31.0968 355.634 31.0968 351.91 Q31.0968 345.767 34.9163 342.616 Q38.7038 339.465 46.0881 339.465 Z" fill="#000000" fill-rule="nonzero" fill-opacity="1" /><path clip-path="url(#clip970)" d="M21.8347 321.991 L31.9562 321.991 L31.9562 309.928 L36.5077 309.928 L36.5077 321.991 L55.8594 321.991 Q60.2199 321.991 61.4613 320.813 Q62.7026 319.604 62.7026 315.943 L62.7026 309.928 L67.6042 309.928 L67.6042 315.943 Q67.6042 322.723 65.0897 325.301 Q62.5434 327.879 55.8594 327.879 L36.5077 327.879 L36.5077 332.176 L31.9562 332.176 L31.9562 327.879 L21.8347 327.879 L21.8347 321.991 Z" fill="#000000" fill-rule="nonzero" fill-opacity="1" /><path clip-path="url(#clip971)" d="M251.73 1141.6 L256.131 1141.6 L260.531 1141.6 L264.932 1141.6 L269.332 1141.6 L273.733 1141.6 L278.133 1141.6 L282.534 1141.6 L286.935 1141.6 L291.335 1141.6 L295.736 1141.6 L300.136 1141.6 L304.537 1141.6 L308.937 1141.6 L313.338 1141.6 L317.738 1141.6 L322.139 1141.6 L326.539 1141.6 L330.94 1141.6 L335.341 1141.6 L339.741 1141.6 L344.142 1141.6 L348.542 1141.6 L352.943 1141.6 L357.343 1141.6 L361.744 1141.6 L366.144 1141.6 L370.545 1141.6 L374.945 1141.6 L379.346 1141.6 L383.747 1141.6 L388.147 1141.6 L392.548 1141.6 L396.948 1141.6 L401.349 1141.6 L405.749 1141.6 L410.15 1141.6 L414.55 1141.6 L418.951 1141.6 L423.352 1141.6 L427.752 1141.6 L432.153 1141.6 L436.553 1141.6 L440.954 1141.6 L445.354 1141.6 L449.755 1141.6 L454.155 1141.6 L458.556 1141.6 L462.956 1141.6 L467.357 1141.6 L471.758 1141.6 L476.158 1141.6 L480.559 1141.6 L484.959 1141.6 L489.36 1141.6 L493.76 1141.6 L498.161 1141.6 L502.561 1141.6 L506.962 1141.6 L511.362 1141.6 L515.763 1141.6 L520.164 1141.6 L524.564 1141.6 L528.965 1141.6 L533.365 1141.6 L537.766 1141.6 L542.166 1141.6 L546.567 1141.6 L550.967 1141.6 L555.368 1141.6 L559.769 1141.6 L564.169 1141.6 L568.57 1141.6 L572.97 1141.6 L577.371 1141.6 L581.771 1141.6 L586.172 1141.6 L590.572 1141.6 L594.973 1141.6 L599.373 1141.6 L603.774 1141.6 L608.175 1141.6 L612.575 1141.6 L616.976 1141.6 L621.376 1141.6 L625.777 1141.6 L630.177 1141.6 L634.578 1141.6 L638.978 1141.6 L643.379 1141.6 L647.779 1141.6 L652.18 1141.6 L656.581 1141.6 L660.981 1141.6 L665.382 1141.6 L669.782 1141.6 L674.183 1141.6 L678.583 1141.6 L682.984 1141.6 L687.384 1141.6 L691.785 1141.6 L696.185 1141.6 L700.586 1141.6 L704.987 1141.6 L709.387 1141.6 L713.788 1141.6 L718.188 1141.6 L722.589 1141.6 L726.989 1141.6 L731.39 1141.6 L735.79 1141.6 L740.191 1141.6 L744.592 1141.6 L748.992 1141.6 L753.393 1141.6 L757.793 1141.6 L762.194 1141.6 L766.594 1141.6 L770.995 1141.6 L775.395 1141.6 L779.796 1141.6 L784.196 1141.6 L788.597 1141.6 L792.998 1141.6 L797.398 1141.6 L801.799 1141.6 L806.199 1141.6 L810.6 1141.6 L815 1141.6 L819.401 1141.6 L823.801 1141.6 L828.202 1141.6 L832.602 1141.6 L837.003 1141.6 L841.404 1141.6 L845.804 1141.6 L850.205 1141.6 L854.605 1141.6 L859.006 1141.6 L863.406 1141.6 L867.807 1141.6 L872.207 1141.6 L876.608 1141.6 L881.009 1141.6 L885.409 1141.6 L889.81 1141.6 L894.21 1141.6 L898.611 1141.6 L903.011 1141.6 L907.412 1141.6 L911.812 1141.6 L916.213 1141.6 L920.613 1141.6 L925.014 1141.6 L929.415 1141.6 L933.815 1141.6 L938.216 1141.6 L942.616 1141.6 L947.017 1141.6 L951.417 1141.6 L955.818 1141.6 L960.218 1141.6 L964.619 1141.6 L969.019 1141.6 L973.42 1141.6 L977.821 1141.6 L982.221 1141.6 L986.622 1141.6 L991.022 1141.6 L995.423 1141.6 L999.823 1141.6 L1004.22 1141.6 L1008.62 1141.6 L1013.02 1141.6 L1017.43 1141.6 L1021.83 1141.6 L1026.23 1141.6 L1030.63 1141.6 L1035.03 1141.6 L1039.43 1141.6 L1043.83 1141.6 L1048.23 1141.6 L1052.63 1141.6 L1057.03 1141.6 L1061.43 1141.6 L1065.83 1141.6 L1070.23 1141.6 L1074.63 1141.6 L1079.03 1141.6 L1083.43 1141.6 L1087.83 1141.6 L1092.23 1141.6 L1096.64 1141.6 L1101.04 1141.6 L1105.44 1141.6 L1109.84 1141.6 L1114.24 1141.6 L1118.64 1141.6 L1123.04 1141.6 L1127.44 1141.6 L1131.84 1141.6 L1136.24 1141.6 L1140.64 1141.6 L1145.04 1141.6 L1149.44 1141.6 L1153.84 1141.6 L1158.24 1141.6 L1162.64 1141.6 L1167.04 1141.6 L1171.44 1141.6 L1175.85 1141.6 L1180.25 1141.6 L1184.65 1141.6 L1189.05 1141.6 L1193.45 1141.6 L1197.85 1141.6 L1202.25 1141.6 L1206.65 1141.6 L1211.05 1141.6 L1215.45 1141.6 L1219.85 1141.6 L1224.25 1141.6 L1228.65 1141.6 L1233.05 1141.6 L1237.45 1141.6 L1241.85 1141.6 L1246.25 1141.6 L1250.65 1141.6 L1255.06 1141.6 L1259.46 1141.6 L1263.86 1141.6 L1268.26 1141.6 L1272.66 1141.6 L1277.06 1141.6 L1281.46 1141.6 L1285.86 1141.6 L1290.26 1141.6 L1294.66 1141.6 L1299.06 1141.6 L1303.46 1141.6 L1307.86 1141.6 L1312.26 1141.6 L1316.66 1141.6 L1321.06 1141.6 L1325.46 1141.6 L1329.86 1141.6 L1334.26 1141.6 L1338.67 1141.6 L1343.07 1141.6 L1347.47 1141.6 L1351.87 1141.6 L1356.27 1141.6 L1360.67 1141.6 L1365.07 1141.6 L1369.47 1141.6 L1373.87 1141.6 L1378.27 1141.6 L1382.67 1095.4 L1387.07 1095.4 L1391.47 1141.6 L1395.87 1095.4 L1400.27 1095.4 L1404.67 1095.4 L1409.07 1095.4 L1413.47 1095.4 L1417.88 1095.4 L1422.28 1095.4 L1426.68 1095.4 L1431.08 1095.4 L1435.48 1095.4 L1439.88 1095.4 L1444.28 1095.4 L1448.68 1095.4 L1453.08 1095.4 L1457.48 1095.4 L1461.88 1095.4 L1466.28 1095.4 L1470.68 1095.4 L1475.08 1095.4 L1479.48 1095.4 L1483.88 1095.4 L1488.28 1095.4 L1492.68 1095.4 L1497.09 1095.4 L1501.49 1095.4 L1505.89 1095.4 L1510.29 1095.4 L1514.69 1095.4 L1519.09 1095.4 L1523.49 1095.4 L1527.89 1095.4 L1532.29 1095.4 L1536.69 1095.4 L1541.09 1095.4 L1545.49 1095.4 L1549.89 1095.4 L1554.29 1049.21 L1558.69 1049.21 L1563.09 1049.21 L1567.49 1049.21 L1571.89 1049.21 L1576.3 1049.21 L1580.7 1049.21 L1585.1 1049.21 L1589.5 1049.21 L1593.9 1049.21 L1598.3 1049.21 L1602.7 1049.21 L1607.1 1049.21 L1611.5 1049.21 L1615.9 1049.21 L1620.3 1049.21 L1624.7 1049.21 L1629.1 1049.21 L1633.5 1049.21 L1637.9 1049.21 L1642.3 1049.21 L1646.7 1049.21 L1651.1 1049.21 L1655.5 1049.21 L1659.91 1049.21 L1664.31 1049.21 L1668.71 1003.01 L1673.11 1003.01 L1677.51 1003.01 L1681.91 1003.01 L1686.31 1003.01 L1690.71 1003.01 L1695.11 1003.01 L1699.51 1003.01 L1703.91 1003.01 L1708.31 1003.01 L1712.71 1003.01 L1717.11 1003.01 L1721.51 1003.01 L1725.91 1003.01 L1730.31 1003.01 L1734.71 1003.01 L1739.12 956.818 L1743.52 956.818 L1747.92 956.818 L1752.32 956.818 L1756.72 956.818 L1761.12 956.818 L1765.52 956.818 L1769.92 956.818 L1774.32 956.818 L1778.72 956.818 L1783.12 956.818 L1787.52 956.818 L1791.92 956.818 L1796.32 956.818 L1800.72 910.623 L1805.12 910.623 L1809.52 910.623 L1813.92 910.623 L1818.33 910.623 L1822.73 910.623 L1827.13 910.623 L1831.53 910.623 L1835.93 910.623 L1840.33 910.623 L1844.73 910.623 L1849.13 864.428 L1853.53 864.428 L1857.93 864.428 L1862.33 864.428 L1866.73 864.428 L1871.13 864.428 L1875.53 864.428 L1879.93 864.428 L1884.33 864.428 L1888.73 864.428 L1893.13 818.234 L1897.54 818.234 L1901.94 818.234 L1906.34 818.234 L1910.74 818.234 L1915.14 818.234 L1919.54 818.234 L1923.94 818.234 L1928.34 818.234 L1932.74 772.039 L1937.14 772.039 L1941.54 772.039 L1945.94 772.039 L1950.34 772.039 L1954.74 772.039 L1959.14 772.039 L1963.54 772.039 L1967.94 725.844 L1972.34 725.844 L1976.74 725.844 L1981.15 725.844 L1985.55 725.844 L1989.95 725.844 L1994.35 679.649 L1998.75 679.649 L2003.15 679.649 L2007.55 679.649 L2011.95 679.649 L2011.95 79.1184 L2007.55 79.1184 L2003.15 79.1184 L1998.75 79.1184 L1994.35 125.313 L1989.95 125.313 L1985.55 125.313 L1981.15 125.313 L1976.74 125.313 L1972.34 171.508 L1967.94 171.508 L1963.54 171.508 L1959.14 171.508 L1954.74 171.508 L1950.34 217.703 L1945.94 217.703 L1941.54 217.703 L1937.14 217.703 L1932.74 217.703 L1928.34 263.897 L1923.94 263.897 L1919.54 263.897 L1915.14 263.897 L1910.74 263.897 L1906.34 310.092 L1901.94 310.092 L1897.54 310.092 L1893.13 310.092 L1888.73 310.092 L1884.33 353.977 L1879.93 356.287 L1875.53 356.287 L1871.13 356.287 L1866.73 356.287 L1862.33 356.287 L1857.93 356.287 L1853.53 402.481 L1849.13 402.481 L1844.73 402.481 L1840.33 402.481 L1835.93 402.481 L1831.53 402.481 L1827.13 448.676 L1822.73 448.676 L1818.33 448.676 L1813.92 448.676 L1809.52 448.676 L1805.12 448.676 L1800.72 494.871 L1796.32 494.871 L1791.92 494.871 L1787.52 494.871 L1783.12 494.871 L1778.72 494.871 L1774.32 494.871 L1769.92 494.871 L1765.52 541.065 L1761.12 541.065 L1756.72 541.065 L1752.32 541.065 L1747.92 541.065 L1743.52 541.065 L1739.12 541.065 L1734.71 587.26 L1730.31 587.26 L1725.91 587.26 L1721.51 587.26 L1717.11 587.26 L1712.71 587.26 L1708.31 587.26 L1703.91 587.26 L1699.51 633.455 L1695.11 587.26 L1690.71 633.455 L1686.31 633.455 L1681.91 633.455 L1677.51 633.455 L1673.11 633.455 L1668.71 633.455 L1664.31 633.455 L1659.91 633.455 L1655.5 633.455 L1651.1 633.455 L1646.7 679.649 L1642.3 679.649 L1637.9 679.649 L1633.5 679.649 L1629.1 679.649 L1624.7 679.649 L1620.3 679.649 L1615.9 679.649 L1611.5 679.649 L1607.1 679.649 L1602.7 725.844 L1598.3 725.844 L1593.9 725.844 L1589.5 725.844 L1585.1 725.844 L1580.7 725.844 L1576.3 725.844 L1571.89 725.844 L1567.49 725.844 L1563.09 725.844 L1558.69 725.844 L1554.29 725.844 L1549.89 772.039 L1545.49 772.039 L1541.09 772.039 L1536.69 772.039 L1532.29 772.039 L1527.89 772.039 L1523.49 772.039 L1519.09 772.039 L1514.69 772.039 L1510.29 772.039 L1505.89 772.039 L1501.49 772.039 L1497.09 772.039 L1492.68 818.234 L1488.28 818.234 L1483.88 818.234 L1479.48 818.234 L1475.08 818.234 L1470.68 818.234 L1466.28 818.234 L1461.88 818.234 L1457.48 818.234 L1453.08 818.234 L1448.68 818.234 L1444.28 818.234 L1439.88 818.234 L1435.48 818.234 L1431.08 818.234 L1426.68 864.428 L1422.28 864.428 L1417.88 864.428 L1413.47 864.428 L1409.07 864.428 L1404.67 864.428 L1400.27 864.428 L1395.87 864.428 L1391.47 864.428 L1387.07 864.428 L1382.67 864.428 L1378.27 864.428 L1373.87 864.428 L1369.47 864.428 L1365.07 864.428 L1360.67 864.428 L1356.27 864.428 L1351.87 864.428 L1347.47 864.428 L1343.07 864.428 L1338.67 864.428 L1334.26 910.623 L1329.86 910.623 L1325.46 910.623 L1321.06 910.623 L1316.66 910.623 L1312.26 910.623 L1307.86 910.623 L1303.46 910.623 L1299.06 910.623 L1294.66 910.623 L1290.26 910.623 L1285.86 910.623 L1281.46 910.623 L1277.06 910.623 L1272.66 910.623 L1268.26 910.623 L1263.86 910.623 L1259.46 910.623 L1255.06 910.623 L1250.65 910.623 L1246.25 910.623 L1241.85 910.623 L1237.45 956.818 L1233.05 956.818 L1228.65 956.818 L1224.25 956.818 L1219.85 956.818 L1215.45 956.818 L1211.05 956.818 L1206.65 956.818 L1202.25 956.818 L1197.85 956.818 L1193.45 956.818 L1189.05 956.818 L1184.65 956.818 L1180.25 956.818 L1175.85 956.818 L1171.44 956.818 L1167.04 956.818 L1162.64 956.818 L1158.24 956.818 L1153.84 956.818 L1149.44 956.818 L1145.04 956.818 L1140.64 956.818 L1136.24 956.818 L1131.84 956.818 L1127.44 956.818 L1123.04 956.818 L1118.64 956.818 L1114.24 956.818 L1109.84 956.818 L1105.44 956.818 L1101.04 1003.01 L1096.64 1003.01 L1092.23 1003.01 L1087.83 1003.01 L1083.43 1003.01 L1079.03 1003.01 L1074.63 1003.01 L1070.23 1003.01 L1065.83 1003.01 L1061.43 1003.01 L1057.03 1003.01 L1052.63 1003.01 L1048.23 1003.01 L1043.83 1003.01 L1039.43 1003.01 L1035.03 1003.01 L1030.63 1003.01 L1026.23 1003.01 L1021.83 1003.01 L1017.43 1003.01 L1013.02 1003.01 L1008.62 1003.01 L1004.22 1003.01 L999.823 1003.01 L995.423 1003.01 L991.022 1003.01 L986.622 1003.01 L982.221 1003.01 L977.821 1003.01 L973.42 1003.01 L969.019 1003.01 L964.619 1003.01 L960.218 1003.01 L955.818 1003.01 L951.417 1003.01 L947.017 1003.01 L942.616 1003.01 L938.216 1003.01 L933.815 1003.01 L929.415 1003.01 L925.014 1003.01 L920.613 1003.01 L916.213 1003.01 L911.812 1046.9 L907.412 1003.01 L903.011 1003.01 L898.611 1049.21 L894.21 1049.21 L889.81 1049.21 L885.409 1049.21 L881.009 1049.21 L876.608 1049.21 L872.207 1049.21 L867.807 1049.21 L863.406 1049.21 L859.006 1049.21 L854.605 1049.21 L850.205 1049.21 L845.804 1049.21 L841.404 1049.21 L837.003 1049.21 L832.602 1049.21 L828.202 1049.21 L823.801 1049.21 L819.401 1049.21 L815 1049.21 L810.6 1049.21 L806.199 1049.21 L801.799 1049.21 L797.398 1049.21 L792.998 1049.21 L788.597 1049.21 L784.196 1049.21 L779.796 1049.21 L775.395 1049.21 L770.995 1049.21 L766.594 1049.21 L762.194 1049.21 L757.793 1049.21 L753.393 1049.21 L748.992 1049.21 L744.592 1049.21 L740.191 1049.21 L735.79 1049.21 L731.39 1049.21 L726.989 1049.21 L722.589 1049.21 L718.188 1049.21 L713.788 1049.21 L709.387 1049.21 L704.987 1049.21 L700.586 1049.21 L696.185 1049.21 L691.785 1049.21 L687.384 1049.21 L682.984 1049.21 L678.583 1049.21 L674.183 1049.21 L669.782 1049.21 L665.382 1049.21 L660.981 1049.21 L656.581 1049.21 L652.18 1049.21 L647.779 1049.21 L643.379 1049.21 L638.978 1049.21 L634.578 1049.21 L630.177 1049.21 L625.777 1049.21 L621.376 1049.21 L616.976 1049.21 L612.575 1049.21 L608.175 1095.4 L603.774 1095.4 L599.373 1095.4 L594.973 1095.4 L590.572 1095.4 L586.172 1095.4 L581.771 1095.4 L577.371 1095.4 L572.97 1095.4 L568.57 1095.4 L564.169 1095.4 L559.769 1095.4 L555.368 1095.4 L550.967 1095.4 L546.567 1095.4 L542.166 1095.4 L537.766 1095.4 L533.365 1095.4 L528.965 1095.4 L524.564 1095.4 L520.164 1095.4 L515.763 1095.4 L511.362 1095.4 L506.962 1095.4 L502.561 1095.4 L498.161 1095.4 L493.76 1095.4 L489.36 1095.4 L484.959 1095.4 L480.559 1095.4 L476.158 1095.4 L471.758 1095.4 L467.357 1095.4 L462.956 1095.4 L458.556 1095.4 L454.155 1095.4 L449.755 1095.4 L445.354 1095.4 L440.954 1095.4 L436.553 1095.4 L432.153 1095.4 L427.752 1095.4 L423.352 1095.4 L418.951 1095.4 L414.55 1095.4 L410.15 1095.4 L405.749 1095.4 L401.349 1095.4 L396.948 1095.4 L392.548 1095.4 L388.147 1095.4 L383.747 1095.4 L379.346 1095.4 L374.945 1095.4 L370.545 1095.4 L366.144 1095.4 L361.744 1095.4 L357.343 1095.4 L352.943 1095.4 L348.542 1095.4 L344.142 1095.4 L339.741 1095.4 L335.341 1095.4 L330.94 1095.4 L326.539 1095.4 L322.139 1095.4 L317.738 1095.4 L313.338 1095.4 L308.937 1095.4 L304.537 1095.4 L300.136 1095.4 L295.736 1095.4 L291.335 1095.4 L286.935 1095.4 L282.534 1095.4 L278.133 1095.4 L273.733 1095.4 L269.332 1095.4 L264.932 1095.4 L260.531 1095.4 L256.131 1095.4 L251.73 1095.4  Z" fill="#009af9" fill-rule="evenodd" fill-opacity="0.5"/>
<polyline clip-path="url(#clip971)" style="stroke:#009af9; stroke-linecap:round; stroke-linejoin:round; stroke-width:12; stroke-opacity:1; fill:none" points="251.73,1141.6 256.131,1141.6 260.531,1141.6 264.932,1141.6 269.332,1141.6 273.733,1141.6 278.133,1141.6 282.534,1141.6 286.935,1141.6 291.335,1141.6 295.736,1141.6 300.136,1141.6 304.537,1141.6 308.937,1141.6 313.338,1141.6 317.738,1141.6 322.139,1141.6 326.539,1141.6 330.94,1141.6 335.341,1141.6 339.741,1141.6 344.142,1141.6 348.542,1141.6 352.943,1141.6 357.343,1141.6 361.744,1141.6 366.144,1141.6 370.545,1141.6 374.945,1141.6 379.346,1141.6 383.747,1141.6 388.147,1141.6 392.548,1141.6 396.948,1141.6 401.349,1141.6 405.749,1141.6 410.15,1141.6 414.55,1141.6 418.951,1141.6 423.352,1141.6 427.752,1141.6 432.153,1141.6 436.553,1141.6 440.954,1141.6 445.354,1141.6 449.755,1141.6 454.155,1141.6 458.556,1141.6 462.956,1141.6 467.357,1141.6 471.758,1141.6 476.158,1141.6 480.559,1141.6 484.959,1141.6 489.36,1141.6 493.76,1141.6 498.161,1141.6 502.561,1141.6 506.962,1141.6 511.362,1141.6 515.763,1141.6 520.164,1141.6 524.564,1141.6 528.965,1141.6 533.365,1141.6 537.766,1141.6 542.166,1141.6 546.567,1141.6 550.967,1141.6 555.368,1141.6 559.769,1141.6 564.169,1141.6 568.57,1141.6 572.97,1141.6 577.371,1141.6 581.771,1141.6 586.172,1141.6 590.572,1141.6 594.973,1141.6 599.373,1141.6 603.774,1141.6 608.175,1141.6 612.575,1141.6 616.976,1141.6 621.376,1141.6 625.777,1141.6 630.177,1141.6 634.578,1141.6 638.978,1141.6 643.379,1141.6 647.779,1141.6 652.18,1141.6 656.581,1141.6 660.981,1141.6 665.382,1141.6 669.782,1141.6 674.183,1141.6 678.583,1141.6 682.984,1141.6 687.384,1141.6 691.785,1141.6 696.185,1141.6 700.586,1141.6 704.987,1141.6 709.387,1141.6 713.788,1141.6 718.188,1141.6 722.589,1141.6 726.989,1141.6 731.39,1141.6 735.79,1141.6 740.191,1141.6 744.592,1141.6 748.992,1141.6 753.393,1141.6 757.793,1141.6 762.194,1141.6 766.594,1141.6 770.995,1141.6 775.395,1141.6 779.796,1141.6 784.196,1141.6 788.597,1141.6 792.998,1141.6 797.398,1141.6 801.799,1141.6 806.199,1141.6 810.6,1141.6 815,1141.6 819.401,1141.6 823.801,1141.6 828.202,1141.6 832.602,1141.6 837.003,1141.6 841.404,1141.6 845.804,1141.6 850.205,1141.6 854.605,1095.4 859.006,1095.4 863.406,1095.4 867.807,1095.4 872.207,1095.4 876.608,1095.4 881.009,1095.4 885.409,1095.4 889.81,1095.4 894.21,1095.4 898.611,1095.4 903.011,1095.4 907.412,1095.4 911.812,1095.4 916.213,1095.4 920.613,1095.4 925.014,1095.4 929.415,1095.4 933.815,1095.4 938.216,1095.4 942.616,1095.4 947.017,1095.4 951.417,1095.4 955.818,1095.4 960.218,1095.4 964.619,1095.4 969.019,1095.4 973.42,1095.4 977.821,1095.4 982.221,1095.4 986.622,1095.4 991.022,1095.4 995.423,1095.4 999.823,1095.4 1004.22,1095.4 1008.62,1095.4 1013.02,1095.4 1017.43,1095.4 1021.83,1095.4 1026.23,1095.4 1030.63,1095.4 1035.03,1095.4 1039.43,1095.4 1043.83,1095.4 1048.23,1095.4 1052.63,1095.4 1057.03,1095.4 1061.43,1095.4 1065.83,1095.4 1070.23,1095.4 1074.63,1095.4 1079.03,1095.4 1083.43,1095.4 1087.83,1095.4 1092.23,1095.4 1096.64,1095.4 1101.04,1095.4 1105.44,1095.4 1109.84,1095.4 1114.24,1095.4 1118.64,1095.4 1123.04,1095.4 1127.44,1095.4 1131.84,1095.4 1136.24,1095.4 1140.64,1095.4 1145.04,1095.4 1149.44,1095.4 1153.84,1095.4 1158.24,1095.4 1162.64,1095.4 1167.04,1095.4 1171.44,1095.4 1175.85,1095.4 1180.25,1049.21 1184.65,1049.21 1189.05,1049.21 1193.45,1049.21 1197.85,1049.21 1202.25,1049.21 1206.65,1049.21 1211.05,1049.21 1215.45,1049.21 1219.85,1049.21 1224.25,1049.21 1228.65,1049.21 1233.05,1049.21 1237.45,1049.21 1241.85,1049.21 1246.25,1049.21 1250.65,1049.21 1255.06,1049.21 1259.46,1049.21 1263.86,1049.21 1268.26,1049.21 1272.66,1049.21 1277.06,1049.21 1281.46,1049.21 1285.86,1049.21 1290.26,1049.21 1294.66,1049.21 1299.06,1049.21 1303.46,1049.21 1307.86,1049.21 1312.26,1049.21 1316.66,1049.21 1321.06,1049.21 1325.46,1049.21 1329.86,1049.21 1334.26,1049.21 1338.67,1049.21 1343.07,1049.21 1347.47,1049.21 1351.87,1003.01 1356.27,1003.01 1360.67,1003.01 1365.07,1003.01 1369.47,1003.01 1373.87,1003.01 1378.27,1003.01 1382.67,1003.01 1387.07,1003.01 1391.47,1003.01 1395.87,1003.01 1400.27,1003.01 1404.67,1003.01 1409.07,1003.01 1413.47,1003.01 1417.88,1003.01 1422.28,1003.01 1426.68,1003.01 1431.08,1003.01 1435.48,1003.01 1439.88,1003.01 1444.28,1003.01 1448.68,1003.01 1453.08,1003.01 1457.48,1003.01 1461.88,1003.01 1466.28,956.818 1470.68,956.818 1475.08,956.818 1479.48,956.818 1483.88,956.818 1488.28,956.818 1492.68,956.818 1497.09,956.818 1501.49,956.818 1505.89,956.818 1510.29,956.818 1514.69,956.818 1519.09,956.818 1523.49,956.818 1527.89,956.818 1532.29,956.818 1536.69,956.818 1541.09,956.818 1545.49,956.818 1549.89,910.623 1554.29,910.623 1558.69,910.623 1563.09,910.623 1567.49,910.623 1571.89,910.623 1576.3,910.623 1580.7,910.623 1585.1,910.623 1589.5,910.623 1593.9,910.623 1598.3,910.623 1602.7,910.623 1607.1,910.623 1611.5,910.623 1615.9,910.623 1620.3,910.623 1624.7,864.428 1629.1,864.428 1633.5,864.428 1637.9,864.428 1642.3,864.428 1646.7,864.428 1651.1,864.428 1655.5,864.428 1659.91,864.428 1664.31,864.428 1668.71,864.428 1673.11,864.428 1677.51,864.428 1681.91,818.234 1686.31,818.234 1690.71,818.234 1695.11,818.234 1699.51,818.234 1703.91,818.234 1708.31,818.234 1712.71,818.234 1717.11,818.234 1721.51,818.234 1725.91,818.234 1730.31,818.234 1734.71,772.039 1739.12,772.039 1743.52,772.039 1747.92,772.039 1752.32,772.039 1756.72,772.039 1761.12,772.039 1765.52,772.039 1769.92,772.039 1774.32,772.039 1778.72,725.844 1783.12,725.844 1787.52,725.844 1791.92,725.844 1796.32,725.844 1800.72,725.844 1805.12,725.844 1809.52,725.844 1813.92,725.844 1818.33,679.649 1822.73,679.649 1827.13,679.649 1831.53,679.649 1835.93,679.649 1840.33,679.649 1844.73,679.649 1849.13,679.649 1853.53,679.649 1857.93,633.455 1862.33,633.455 1866.73,633.455 1871.13,633.455 1875.53,633.455 1879.93,633.455 1884.33,633.455 1888.73,587.26 1893.13,587.26 1897.54,587.26 1901.94,587.26 1906.34,587.26 1910.74,587.26 1915.14,587.26 1919.54,541.065 1923.94,541.065 1928.34,541.065 1932.74,541.065 1937.14,541.065 1941.54,541.065 1945.94,541.065 1950.34,494.871 1954.74,494.871 1959.14,494.871 1963.54,494.871 1967.94,494.871 1972.34,448.676 1976.74,448.676 1981.15,448.676 1985.55,448.676 1989.95,448.676 1994.35,448.676 1998.75,402.481 2003.15,402.481 2007.55,402.481 2011.95,402.481 "/>
<circle clip-path="url(#clip971)" cx="1451.9" cy="541.065" r="14.4" fill="#e26f46" fill-rule="evenodd" fill-opacity="1" stroke="#000000" stroke-opacity="1" stroke-width="2.688"/>
<circle clip-path="url(#clip971)" cx="1464.2" cy="633.455" r="14.4" fill="#e26f46" fill-rule="evenodd" fill-opacity="1" stroke="#000000" stroke-opacity="1" stroke-width="2.688"/>
<circle clip-path="url(#clip971)" cx="1513.4" cy="633.455" r="14.4" fill="#e26f46" fill-rule="evenodd" fill-opacity="1" stroke="#000000" stroke-opacity="1" stroke-width="2.688"/>
<circle clip-path="url(#clip971)" cx="1488.8" cy="725.844" r="14.4" fill="#e26f46" fill-rule="evenodd" fill-opacity="1" stroke="#000000" stroke-opacity="1" stroke-width="2.688"/>
<circle clip-path="url(#clip971)" cx="1501.1" cy="772.039" r="14.4" fill="#e26f46" fill-rule="evenodd" fill-opacity="1" stroke="#000000" stroke-opacity="1" stroke-width="2.688"/>
<circle clip-path="url(#clip971)" cx="1427.3" cy="818.234" r="14.4" fill="#e26f46" fill-rule="evenodd" fill-opacity="1" stroke="#000000" stroke-opacity="1" stroke-width="2.688"/>
<circle clip-path="url(#clip971)" cx="1427.3" cy="864.428" r="14.4" fill="#e26f46" fill-rule="evenodd" fill-opacity="1" stroke="#000000" stroke-opacity="1" stroke-width="2.688"/>
<circle clip-path="url(#clip971)" cx="1525.7" cy="864.428" r="14.4" fill="#e26f46" fill-rule="evenodd" fill-opacity="1" stroke="#000000" stroke-opacity="1" stroke-width="2.688"/>
<circle clip-path="url(#clip971)" cx="1488.8" cy="910.623" r="14.4" fill="#e26f46" fill-rule="evenodd" fill-opacity="1" stroke="#000000" stroke-opacity="1" stroke-width="2.688"/>
<circle clip-path="url(#clip971)" cx="1513.4" cy="910.623" r="14.4" fill="#e26f46" fill-rule="evenodd" fill-opacity="1" stroke="#000000" stroke-opacity="1" stroke-width="2.688"/>
<circle clip-path="url(#clip971)" cx="1476.5" cy="956.818" r="14.4" fill="#e26f46" fill-rule="evenodd" fill-opacity="1" stroke="#000000" stroke-opacity="1" stroke-width="2.688"/>
<circle clip-path="url(#clip971)" cx="1427.3" cy="1003.01" r="14.4" fill="#e26f46" fill-rule="evenodd" fill-opacity="1" stroke="#000000" stroke-opacity="1" stroke-width="2.688"/>
<circle clip-path="url(#clip971)" cx="1476.5" cy="1003.01" r="14.4" fill="#e26f46" fill-rule="evenodd" fill-opacity="1" stroke="#000000" stroke-opacity="1" stroke-width="2.688"/>
<circle clip-path="url(#clip971)" cx="1501.1" cy="1003.01" r="14.4" fill="#e26f46" fill-rule="evenodd" fill-opacity="1" stroke="#000000" stroke-opacity="1" stroke-width="2.688"/>
<circle clip-path="url(#clip971)" cx="1538" cy="1003.01" r="14.4" fill="#e26f46" fill-rule="evenodd" fill-opacity="1" stroke="#000000" stroke-opacity="1" stroke-width="2.688"/>
<circle clip-path="url(#clip971)" cx="1550.3" cy="1003.01" r="14.4" fill="#e26f46" fill-rule="evenodd" fill-opacity="1" stroke="#000000" stroke-opacity="1" stroke-width="2.688"/>
<circle clip-path="url(#clip971)" cx="431.001" cy="1049.21" r="14.4" fill="#e26f46" fill-rule="evenodd" fill-opacity="1" stroke="#000000" stroke-opacity="1" stroke-width="2.688"/>
<circle clip-path="url(#clip971)" cx="1476.5" cy="1049.21" r="14.4" fill="#e26f46" fill-rule="evenodd" fill-opacity="1" stroke="#000000" stroke-opacity="1" stroke-width="2.688"/>
<circle clip-path="url(#clip971)" cx="1550.3" cy="1049.21" r="14.4" fill="#e26f46" fill-rule="evenodd" fill-opacity="1" stroke="#000000" stroke-opacity="1" stroke-width="2.688"/>
<circle clip-path="url(#clip971)" cx="492.501" cy="1095.4" r="14.4" fill="#e26f46" fill-rule="evenodd" fill-opacity="1" stroke="#000000" stroke-opacity="1" stroke-width="2.688"/>
<circle clip-path="url(#clip971)" cx="603.201" cy="1095.4" r="14.4" fill="#e26f46" fill-rule="evenodd" fill-opacity="1" stroke="#000000" stroke-opacity="1" stroke-width="2.688"/>
<circle clip-path="url(#clip971)" cx="640.101" cy="1095.4" r="14.4" fill="#e26f46" fill-rule="evenodd" fill-opacity="1" stroke="#000000" stroke-opacity="1" stroke-width="2.688"/>
<circle clip-path="url(#clip971)" cx="763.101" cy="1095.4" r="14.4" fill="#e26f46" fill-rule="evenodd" fill-opacity="1" stroke="#000000" stroke-opacity="1" stroke-width="2.688"/>
<circle clip-path="url(#clip971)" cx="824.601" cy="1095.4" r="14.4" fill="#e26f46" fill-rule="evenodd" fill-opacity="1" stroke="#000000" stroke-opacity="1" stroke-width="2.688"/>
<circle clip-path="url(#clip971)" cx="972.201" cy="1095.4" r="14.4" fill="#e26f46" fill-rule="evenodd" fill-opacity="1" stroke="#000000" stroke-opacity="1" stroke-width="2.688"/>
<circle clip-path="url(#clip971)" cx="1390.4" cy="1095.4" r="14.4" fill="#e26f46" fill-rule="evenodd" fill-opacity="1" stroke="#000000" stroke-opacity="1" stroke-width="2.688"/>
<circle clip-path="url(#clip971)" cx="1464.2" cy="1095.4" r="14.4" fill="#e26f46" fill-rule="evenodd" fill-opacity="1" stroke="#000000" stroke-opacity="1" stroke-width="2.688"/>
<circle clip-path="url(#clip971)" cx="1488.8" cy="1095.4" r="14.4" fill="#e26f46" fill-rule="evenodd" fill-opacity="1" stroke="#000000" stroke-opacity="1" stroke-width="2.688"/>
<circle clip-path="url(#clip971)" cx="1538" cy="1095.4" r="14.4" fill="#e26f46" fill-rule="evenodd" fill-opacity="1" stroke="#000000" stroke-opacity="1" stroke-width="2.688"/>
<circle clip-path="url(#clip971)" cx="406.401" cy="1141.6" r="14.4" fill="#e26f46" fill-rule="evenodd" fill-opacity="1" stroke="#000000" stroke-opacity="1" stroke-width="2.688"/>
<circle clip-path="url(#clip971)" cx="418.701" cy="1141.6" r="14.4" fill="#e26f46" fill-rule="evenodd" fill-opacity="1" stroke="#000000" stroke-opacity="1" stroke-width="2.688"/>
<circle clip-path="url(#clip971)" cx="443.301" cy="1141.6" r="14.4" fill="#e26f46" fill-rule="evenodd" fill-opacity="1" stroke="#000000" stroke-opacity="1" stroke-width="2.688"/>
<circle clip-path="url(#clip971)" cx="467.901" cy="1141.6" r="14.4" fill="#e26f46" fill-rule="evenodd" fill-opacity="1" stroke="#000000" stroke-opacity="1" stroke-width="2.688"/>
<circle clip-path="url(#clip971)" cx="504.801" cy="1141.6" r="14.4" fill="#e26f46" fill-rule="evenodd" fill-opacity="1" stroke="#000000" stroke-opacity="1" stroke-width="2.688"/>
<circle clip-path="url(#clip971)" cx="517.101" cy="1141.6" r="14.4" fill="#e26f46" fill-rule="evenodd" fill-opacity="1" stroke="#000000" stroke-opacity="1" stroke-width="2.688"/>
<circle clip-path="url(#clip971)" cx="541.701" cy="1141.6" r="14.4" fill="#e26f46" fill-rule="evenodd" fill-opacity="1" stroke="#000000" stroke-opacity="1" stroke-width="2.688"/>
<circle clip-path="url(#clip971)" cx="578.601" cy="1141.6" r="14.4" fill="#e26f46" fill-rule="evenodd" fill-opacity="1" stroke="#000000" stroke-opacity="1" stroke-width="2.688"/>
<circle clip-path="url(#clip971)" cx="615.501" cy="1141.6" r="14.4" fill="#e26f46" fill-rule="evenodd" fill-opacity="1" stroke="#000000" stroke-opacity="1" stroke-width="2.688"/>
<circle clip-path="url(#clip971)" cx="701.601" cy="1141.6" r="14.4" fill="#e26f46" fill-rule="evenodd" fill-opacity="1" stroke="#000000" stroke-opacity="1" stroke-width="2.688"/>
<circle clip-path="url(#clip971)" cx="947.601" cy="1141.6" r="14.4" fill="#e26f46" fill-rule="evenodd" fill-opacity="1" stroke="#000000" stroke-opacity="1" stroke-width="2.688"/>
<circle clip-path="url(#clip971)" cx="1046" cy="1141.6" r="14.4" fill="#e26f46" fill-rule="evenodd" fill-opacity="1" stroke="#000000" stroke-opacity="1" stroke-width="2.688"/>
<circle clip-path="url(#clip971)" cx="1353.5" cy="1141.6" r="14.4" fill="#e26f46" fill-rule="evenodd" fill-opacity="1" stroke="#000000" stroke-opacity="1" stroke-width="2.688"/>
<circle clip-path="url(#clip971)" cx="1365.8" cy="1141.6" r="14.4" fill="#e26f46" fill-rule="evenodd" fill-opacity="1" stroke="#000000" stroke-opacity="1" stroke-width="2.688"/>
<circle clip-path="url(#clip971)" cx="1390.4" cy="1141.6" r="14.4" fill="#e26f46" fill-rule="evenodd" fill-opacity="1" stroke="#000000" stroke-opacity="1" stroke-width="2.688"/>
<circle clip-path="url(#clip971)" cx="1464.2" cy="1141.6" r="14.4" fill="#e26f46" fill-rule="evenodd" fill-opacity="1" stroke="#000000" stroke-opacity="1" stroke-width="2.688"/>
<circle clip-path="url(#clip971)" cx="1501.1" cy="1141.6" r="14.4" fill="#e26f46" fill-rule="evenodd" fill-opacity="1" stroke="#000000" stroke-opacity="1" stroke-width="2.688"/>
<circle clip-path="url(#clip971)" cx="1525.7" cy="1141.6" r="14.4" fill="#e26f46" fill-rule="evenodd" fill-opacity="1" stroke="#000000" stroke-opacity="1" stroke-width="2.688"/>
<path clip-path="url(#clip970)" d="M1507.58 240.305 L2002.56 240.305 L2002.56 84.785 L1507.58 84.785  Z" fill="#ffffff" fill-rule="evenodd" fill-opacity="1"/>
<polyline clip-path="url(#clip970)" style="stroke:#000000; stroke-linecap:round; stroke-linejoin:round; stroke-width:4; stroke-opacity:1; fill:none" points="1507.58,240.305 2002.56,240.305 2002.56,84.785 1507.58,84.785 1507.58,240.305 "/>
<polyline clip-path="url(#clip970)" style="stroke:#009af9; stroke-linecap:round; stroke-linejoin:round; stroke-width:12; stroke-opacity:1; fill:none" points="1528.31,136.625 1652.7,136.625 "/>
<path clip-path="url(#clip970)" d="M1695.67 120.479 L1695.67 125.039 Q1693.01 123.766 1690.65 123.141 Q1688.29 122.516 1686.09 122.516 Q1682.27 122.516 1680.19 123.998 Q1678.13 125.479 1678.13 128.211 Q1678.13 130.502 1679.49 131.683 Q1680.88 132.84 1684.73 133.558 L1687.55 134.137 Q1692.78 135.132 1695.26 137.655 Q1697.76 140.155 1697.76 144.368 Q1697.76 149.391 1694.38 151.984 Q1691.02 154.576 1684.52 154.576 Q1682.06 154.576 1679.29 154.021 Q1676.53 153.465 1673.57 152.377 L1673.57 147.562 Q1676.41 149.16 1679.15 149.97 Q1681.88 150.78 1684.52 150.78 Q1688.52 150.78 1690.7 149.206 Q1692.87 147.632 1692.87 144.715 Q1692.87 142.169 1691.3 140.734 Q1689.75 139.299 1686.18 138.581 L1683.34 138.025 Q1678.1 136.984 1675.77 134.762 Q1673.43 132.539 1673.43 128.581 Q1673.43 123.998 1676.65 121.359 Q1679.89 118.72 1685.56 118.72 Q1687.99 118.72 1690.51 119.16 Q1693.04 119.6 1695.67 120.479 Z" fill="#000000" fill-rule="nonzero" fill-opacity="1" /><path clip-path="url(#clip970)" d="M1704.86 127.979 L1709.12 127.979 L1709.12 153.905 L1704.86 153.905 L1704.86 127.979 M1704.86 117.887 L1709.12 117.887 L1709.12 123.28 L1704.86 123.28 L1704.86 117.887 Z" fill="#000000" fill-rule="nonzero" fill-opacity="1" /><path clip-path="url(#clip970)" d="M1738.22 132.956 Q1739.82 130.086 1742.04 128.72 Q1744.26 127.354 1747.27 127.354 Q1751.32 127.354 1753.52 130.201 Q1755.72 133.025 1755.72 138.257 L1755.72 153.905 L1751.44 153.905 L1751.44 138.396 Q1751.44 134.669 1750.12 132.863 Q1748.8 131.058 1746.09 131.058 Q1742.78 131.058 1740.86 133.257 Q1738.94 135.456 1738.94 139.252 L1738.94 153.905 L1734.66 153.905 L1734.66 138.396 Q1734.66 134.646 1733.34 132.863 Q1732.02 131.058 1729.26 131.058 Q1726 131.058 1724.08 133.28 Q1722.16 135.479 1722.16 139.252 L1722.16 153.905 L1717.87 153.905 L1717.87 127.979 L1722.16 127.979 L1722.16 132.007 Q1723.61 129.623 1725.65 128.488 Q1727.69 127.354 1730.49 127.354 Q1733.31 127.354 1735.28 128.789 Q1737.27 130.225 1738.22 132.956 Z" fill="#000000" fill-rule="nonzero" fill-opacity="1" /><path clip-path="url(#clip970)" d="M1763.78 143.674 L1763.78 127.979 L1768.03 127.979 L1768.03 143.512 Q1768.03 147.192 1769.47 149.044 Q1770.91 150.873 1773.78 150.873 Q1777.22 150.873 1779.22 148.674 Q1781.23 146.474 1781.23 142.678 L1781.23 127.979 L1785.49 127.979 L1785.49 153.905 L1781.23 153.905 L1781.23 149.924 Q1779.68 152.285 1777.62 153.442 Q1775.58 154.576 1772.87 154.576 Q1768.41 154.576 1766.09 151.799 Q1763.78 149.021 1763.78 143.674 M1774.49 127.354 L1774.49 127.354 Z" fill="#000000" fill-rule="nonzero" fill-opacity="1" /><path clip-path="url(#clip970)" d="M1794.26 117.887 L1798.52 117.887 L1798.52 153.905 L1794.26 153.905 L1794.26 117.887 Z" fill="#000000" fill-rule="nonzero" fill-opacity="1" /><path clip-path="url(#clip970)" d="M1819.22 140.873 Q1814.05 140.873 1812.06 142.053 Q1810.07 143.234 1810.07 146.081 Q1810.07 148.349 1811.55 149.692 Q1813.06 151.011 1815.63 151.011 Q1819.17 151.011 1821.3 148.511 Q1823.45 145.988 1823.45 141.822 L1823.45 140.873 L1819.22 140.873 M1827.71 139.113 L1827.71 153.905 L1823.45 153.905 L1823.45 149.97 Q1821.99 152.331 1819.82 153.465 Q1817.64 154.576 1814.49 154.576 Q1810.51 154.576 1808.15 152.354 Q1805.81 150.109 1805.81 146.359 Q1805.81 141.984 1808.73 139.762 Q1811.67 137.539 1817.48 137.539 L1823.45 137.539 L1823.45 137.123 Q1823.45 134.183 1821.51 132.586 Q1819.59 130.965 1816.09 130.965 Q1813.87 130.965 1811.76 131.498 Q1809.66 132.03 1807.71 133.095 L1807.71 129.16 Q1810.05 128.257 1812.25 127.817 Q1814.45 127.354 1816.53 127.354 Q1822.15 127.354 1824.93 130.271 Q1827.71 133.188 1827.71 139.113 Z" fill="#000000" fill-rule="nonzero" fill-opacity="1" /><path clip-path="url(#clip970)" d="M1840.7 120.618 L1840.7 127.979 L1849.47 127.979 L1849.47 131.289 L1840.7 131.289 L1840.7 145.363 Q1840.7 148.535 1841.55 149.437 Q1842.43 150.34 1845.09 150.34 L1849.47 150.34 L1849.47 153.905 L1845.09 153.905 Q1840.16 153.905 1838.29 152.076 Q1836.41 150.224 1836.41 145.363 L1836.41 131.289 L1833.29 131.289 L1833.29 127.979 L1836.41 127.979 L1836.41 120.618 L1840.7 120.618 Z" fill="#000000" fill-rule="nonzero" fill-opacity="1" /><path clip-path="url(#clip970)" d="M1855.07 127.979 L1859.33 127.979 L1859.33 153.905 L1855.07 153.905 L1855.07 127.979 M1855.07 117.887 L1859.33 117.887 L1859.33 123.28 L1855.07 123.28 L1855.07 117.887 Z" fill="#000000" fill-rule="nonzero" fill-opacity="1" /><path clip-path="url(#clip970)" d="M1878.29 130.965 Q1874.86 130.965 1872.87 133.65 Q1870.88 136.312 1870.88 140.965 Q1870.88 145.618 1872.85 148.303 Q1874.84 150.965 1878.29 150.965 Q1881.69 150.965 1883.68 148.28 Q1885.67 145.595 1885.67 140.965 Q1885.67 136.359 1883.68 133.674 Q1881.69 130.965 1878.29 130.965 M1878.29 127.354 Q1883.84 127.354 1887.02 130.965 Q1890.19 134.576 1890.19 140.965 Q1890.19 147.331 1887.02 150.965 Q1883.84 154.576 1878.29 154.576 Q1872.71 154.576 1869.54 150.965 Q1866.39 147.331 1866.39 140.965 Q1866.39 134.576 1869.54 130.965 Q1872.71 127.354 1878.29 127.354 Z" fill="#000000" fill-rule="nonzero" fill-opacity="1" /><path clip-path="url(#clip970)" d="M1918.8 138.257 L1918.8 153.905 L1914.54 153.905 L1914.54 138.396 Q1914.54 134.715 1913.1 132.887 Q1911.67 131.058 1908.8 131.058 Q1905.35 131.058 1903.36 133.257 Q1901.37 135.456 1901.37 139.252 L1901.37 153.905 L1897.09 153.905 L1897.09 127.979 L1901.37 127.979 L1901.37 132.007 Q1902.9 129.669 1904.96 128.512 Q1907.04 127.354 1909.75 127.354 Q1914.21 127.354 1916.51 130.132 Q1918.8 132.887 1918.8 138.257 Z" fill="#000000" fill-rule="nonzero" fill-opacity="1" /><path clip-path="url(#clip970)" d="M1943.82 128.743 L1943.82 132.771 Q1942.02 131.845 1940.07 131.382 Q1938.13 130.919 1936.04 130.919 Q1932.87 130.919 1931.27 131.891 Q1929.7 132.863 1929.7 134.808 Q1929.7 136.289 1930.83 137.146 Q1931.97 137.979 1935.4 138.743 L1936.85 139.067 Q1941.39 140.039 1943.29 141.822 Q1945.21 143.581 1945.21 146.752 Q1945.21 150.363 1942.34 152.47 Q1939.49 154.576 1934.49 154.576 Q1932.41 154.576 1930.14 154.16 Q1927.9 153.766 1925.4 152.956 L1925.4 148.558 Q1927.76 149.785 1930.05 150.41 Q1932.34 151.011 1934.58 151.011 Q1937.59 151.011 1939.21 149.993 Q1940.83 148.951 1940.83 147.076 Q1940.83 145.34 1939.65 144.414 Q1938.5 143.488 1934.54 142.632 L1933.06 142.285 Q1929.1 141.451 1927.34 139.738 Q1925.58 138.002 1925.58 134.993 Q1925.58 131.336 1928.17 129.345 Q1930.77 127.354 1935.53 127.354 Q1937.9 127.354 1939.98 127.701 Q1942.06 128.049 1943.82 128.743 Z" fill="#000000" fill-rule="nonzero" fill-opacity="1" /><circle clip-path="url(#clip970)" cx="1590.5" cy="188.465" r="20.48" fill="#e26f46" fill-rule="evenodd" fill-opacity="1" stroke="#000000" stroke-opacity="1" stroke-width="3.82293"/>
<path clip-path="url(#clip970)" d="M1689.45 174.356 Q1684.35 174.356 1681.35 178.153 Q1678.36 181.949 1678.36 188.5 Q1678.36 195.027 1681.35 198.824 Q1684.35 202.62 1689.45 202.62 Q1694.54 202.62 1697.5 198.824 Q1700.49 195.027 1700.49 188.5 Q1700.49 181.949 1697.5 178.153 Q1694.54 174.356 1689.45 174.356 M1689.45 170.56 Q1696.72 170.56 1701.07 175.444 Q1705.42 180.305 1705.42 188.5 Q1705.42 196.671 1701.07 201.555 Q1696.72 206.416 1689.45 206.416 Q1682.16 206.416 1677.78 201.555 Q1673.43 196.694 1673.43 188.5 Q1673.43 180.305 1677.78 175.444 Q1682.16 170.56 1689.45 170.56 Z" fill="#000000" fill-rule="nonzero" fill-opacity="1" /><path clip-path="url(#clip970)" d="M1731.16 192.805 Q1731.16 188.106 1729.22 185.444 Q1727.29 182.759 1723.91 182.759 Q1720.54 182.759 1718.59 185.444 Q1716.67 188.106 1716.67 192.805 Q1716.67 197.504 1718.59 200.189 Q1720.54 202.851 1723.91 202.851 Q1727.29 202.851 1729.22 200.189 Q1731.16 197.504 1731.16 192.805 M1716.67 183.754 Q1718.01 181.44 1720.05 180.328 Q1722.11 179.194 1724.96 179.194 Q1729.68 179.194 1732.62 182.944 Q1735.58 186.694 1735.58 192.805 Q1735.58 198.916 1732.62 202.666 Q1729.68 206.416 1724.96 206.416 Q1722.11 206.416 1720.05 205.305 Q1718.01 204.171 1716.67 201.856 L1716.67 205.745 L1712.39 205.745 L1712.39 169.727 L1716.67 169.727 L1716.67 183.754 Z" fill="#000000" fill-rule="nonzero" fill-opacity="1" /><path clip-path="url(#clip970)" d="M1759.17 180.583 L1759.17 184.611 Q1757.36 183.685 1755.42 183.222 Q1753.47 182.759 1751.39 182.759 Q1748.22 182.759 1746.62 183.731 Q1745.05 184.703 1745.05 186.648 Q1745.05 188.129 1746.18 188.986 Q1747.32 189.819 1750.74 190.583 L1752.2 190.907 Q1756.74 191.879 1758.64 193.662 Q1760.56 195.421 1760.56 198.592 Q1760.56 202.203 1757.69 204.31 Q1754.84 206.416 1749.84 206.416 Q1747.76 206.416 1745.49 206 Q1743.24 205.606 1740.74 204.796 L1740.74 200.398 Q1743.1 201.625 1745.4 202.25 Q1747.69 202.851 1749.93 202.851 Q1752.94 202.851 1754.56 201.833 Q1756.18 200.791 1756.18 198.916 Q1756.18 197.18 1755 196.254 Q1753.85 195.328 1749.89 194.472 L1748.41 194.125 Q1744.45 193.291 1742.69 191.578 Q1740.93 189.842 1740.93 186.833 Q1740.93 183.176 1743.52 181.185 Q1746.11 179.194 1750.88 179.194 Q1753.24 179.194 1755.33 179.541 Q1757.41 179.889 1759.17 180.583 Z" fill="#000000" fill-rule="nonzero" fill-opacity="1" /><path clip-path="url(#clip970)" d="M1789.52 191.717 L1789.52 193.801 L1769.93 193.801 Q1770.21 198.199 1772.57 200.514 Q1774.96 202.805 1779.19 202.805 Q1781.65 202.805 1783.94 202.203 Q1786.25 201.601 1788.52 200.398 L1788.52 204.426 Q1786.23 205.398 1783.82 205.907 Q1781.41 206.416 1778.94 206.416 Q1772.73 206.416 1769.1 202.805 Q1765.49 199.194 1765.49 193.037 Q1765.49 186.671 1768.91 182.944 Q1772.36 179.194 1778.2 179.194 Q1783.43 179.194 1786.46 182.574 Q1789.52 185.93 1789.52 191.717 M1785.26 190.467 Q1785.21 186.972 1783.29 184.889 Q1781.39 182.805 1778.24 182.805 Q1774.68 182.805 1772.53 184.819 Q1770.4 186.833 1770.07 190.49 L1785.26 190.467 Z" fill="#000000" fill-rule="nonzero" fill-opacity="1" /><path clip-path="url(#clip970)" d="M1811.53 183.801 Q1810.81 183.384 1809.96 183.199 Q1809.12 182.99 1808.1 182.99 Q1804.49 182.99 1802.55 185.352 Q1800.63 187.69 1800.63 192.088 L1800.63 205.745 L1796.34 205.745 L1796.34 179.819 L1800.63 179.819 L1800.63 183.847 Q1801.97 181.486 1804.12 180.352 Q1806.28 179.194 1809.35 179.194 Q1809.79 179.194 1810.33 179.264 Q1810.86 179.31 1811.51 179.426 L1811.53 183.801 Z" fill="#000000" fill-rule="nonzero" fill-opacity="1" /><path clip-path="url(#clip970)" d="M1812.94 179.819 L1817.46 179.819 L1825.56 201.578 L1833.66 179.819 L1838.17 179.819 L1828.45 205.745 L1822.66 205.745 L1812.94 179.819 Z" fill="#000000" fill-rule="nonzero" fill-opacity="1" /><path clip-path="url(#clip970)" d="M1855.84 192.713 Q1850.67 192.713 1848.68 193.893 Q1846.69 195.074 1846.69 197.921 Q1846.69 200.189 1848.17 201.532 Q1849.68 202.851 1852.25 202.851 Q1855.79 202.851 1857.92 200.351 Q1860.07 197.828 1860.07 193.662 L1860.07 192.713 L1855.84 192.713 M1864.33 190.953 L1864.33 205.745 L1860.07 205.745 L1860.07 201.81 Q1858.61 204.171 1856.44 205.305 Q1854.26 206.416 1851.11 206.416 Q1847.13 206.416 1844.77 204.194 Q1842.43 201.949 1842.43 198.199 Q1842.43 193.824 1845.35 191.602 Q1848.29 189.379 1854.1 189.379 L1860.07 189.379 L1860.07 188.963 Q1860.07 186.023 1858.13 184.426 Q1856.21 182.805 1852.71 182.805 Q1850.49 182.805 1848.38 183.338 Q1846.28 183.87 1844.33 184.935 L1844.33 181 Q1846.67 180.097 1848.87 179.657 Q1851.07 179.194 1853.15 179.194 Q1858.78 179.194 1861.55 182.111 Q1864.33 185.028 1864.33 190.953 Z" fill="#000000" fill-rule="nonzero" fill-opacity="1" /><path clip-path="url(#clip970)" d="M1877.32 172.458 L1877.32 179.819 L1886.09 179.819 L1886.09 183.129 L1877.32 183.129 L1877.32 197.203 Q1877.32 200.375 1878.17 201.277 Q1879.05 202.18 1881.71 202.18 L1886.09 202.18 L1886.09 205.745 L1881.71 205.745 Q1876.78 205.745 1874.91 203.916 Q1873.03 202.064 1873.03 197.203 L1873.03 183.129 L1869.91 183.129 L1869.91 179.819 L1873.03 179.819 L1873.03 172.458 L1877.32 172.458 Z" fill="#000000" fill-rule="nonzero" fill-opacity="1" /><path clip-path="url(#clip970)" d="M1891.69 179.819 L1895.95 179.819 L1895.95 205.745 L1891.69 205.745 L1891.69 179.819 M1891.69 169.727 L1895.95 169.727 L1895.95 175.12 L1891.69 175.12 L1891.69 169.727 Z" fill="#000000" fill-rule="nonzero" fill-opacity="1" /><path clip-path="url(#clip970)" d="M1914.91 182.805 Q1911.48 182.805 1909.49 185.49 Q1907.5 188.152 1907.5 192.805 Q1907.5 197.458 1909.47 200.143 Q1911.46 202.805 1914.91 202.805 Q1918.31 202.805 1920.3 200.12 Q1922.29 197.435 1922.29 192.805 Q1922.29 188.199 1920.3 185.514 Q1918.31 182.805 1914.91 182.805 M1914.91 179.194 Q1920.46 179.194 1923.64 182.805 Q1926.81 186.416 1926.81 192.805 Q1926.81 199.171 1923.64 202.805 Q1920.46 206.416 1914.91 206.416 Q1909.33 206.416 1906.16 202.805 Q1903.01 199.171 1903.01 192.805 Q1903.01 186.416 1906.16 182.805 Q1909.33 179.194 1914.91 179.194 Z" fill="#000000" fill-rule="nonzero" fill-opacity="1" /><path clip-path="url(#clip970)" d="M1955.42 190.097 L1955.42 205.745 L1951.16 205.745 L1951.16 190.236 Q1951.16 186.555 1949.72 184.727 Q1948.29 182.898 1945.42 182.898 Q1941.97 182.898 1939.98 185.097 Q1937.99 187.296 1937.99 191.092 L1937.99 205.745 L1933.71 205.745 L1933.71 179.819 L1937.99 179.819 L1937.99 183.847 Q1939.52 181.509 1941.58 180.352 Q1943.66 179.194 1946.37 179.194 Q1950.83 179.194 1953.13 181.972 Q1955.42 184.727 1955.42 190.097 Z" fill="#000000" fill-rule="nonzero" fill-opacity="1" /><path clip-path="url(#clip970)" d="M1980.44 180.583 L1980.44 184.611 Q1978.64 183.685 1976.69 183.222 Q1974.75 182.759 1972.66 182.759 Q1969.49 182.759 1967.89 183.731 Q1966.32 184.703 1966.32 186.648 Q1966.32 188.129 1967.46 188.986 Q1968.59 189.819 1972.02 190.583 L1973.47 190.907 Q1978.01 191.879 1979.91 193.662 Q1981.83 195.421 1981.83 198.592 Q1981.83 202.203 1978.96 204.31 Q1976.11 206.416 1971.11 206.416 Q1969.03 206.416 1966.76 206 Q1964.52 205.606 1962.02 204.796 L1962.02 200.398 Q1964.38 201.625 1966.67 202.25 Q1968.96 202.851 1971.21 202.851 Q1974.21 202.851 1975.83 201.833 Q1977.46 200.791 1977.46 198.916 Q1977.46 197.18 1976.27 196.254 Q1975.12 195.328 1971.16 194.472 L1969.68 194.125 Q1965.72 193.291 1963.96 191.578 Q1962.2 189.842 1962.2 186.833 Q1962.2 183.176 1964.79 181.185 Q1967.39 179.194 1972.15 179.194 Q1974.52 179.194 1976.6 179.541 Q1978.68 179.889 1980.44 180.583 Z" fill="#000000" fill-rule="nonzero" fill-opacity="1" /></svg>
