<?xml version="1.0" encoding="utf-8"?>
<svg xmlns="http://www.w3.org/2000/svg" xmlns:xlink="http://www.w3.org/1999/xlink" width="528" height="336" viewBox="0 0 2112 1344">
<defs>
  <clipPath id="clip270">
    <rect x="0" y="0" width="2112" height="1344"/>
  </clipPath>
</defs>
<path clip-path="url(#clip270)" d="M0 1344 L2112 1344 L2112 2.13163e-14 L0 2.13163e-14  Z" fill="#ffffff" fill-rule="evenodd" fill-opacity="1"/>
<defs>
  <clipPath id="clip271">
    <rect x="227" y="47" width="1838" height="1127"/>
  </clipPath>
</defs>
<path clip-path="url(#clip270)" d="M227.349 1173.47 L2064.76 1173.47 L2064.76 47.2441 L227.349 47.2441  Z" fill="#ffffff" fill-rule="evenodd" fill-opacity="1"/>
<polyline clip-path="url(#clip271)" style="stroke:#000000; stroke-linecap:round; stroke-linejoin:round; stroke-width:2; stroke-opacity:0.1; fill:none" points="423.802,1173.47 423.802,47.2441 "/>
<polyline clip-path="url(#clip271)" style="stroke:#000000; stroke-linecap:round; stroke-linejoin:round; stroke-width:2; stroke-opacity:0.1; fill:none" points="664.552,1173.47 664.552,47.2441 "/>
<polyline clip-path="url(#clip271)" style="stroke:#000000; stroke-linecap:round; stroke-linejoin:round; stroke-width:2; stroke-opacity:0.1; fill:none" points="905.302,1173.47 905.302,47.2441 "/>
<polyline clip-path="url(#clip271)" style="stroke:#000000; stroke-linecap:round; stroke-linejoin:round; stroke-width:2; stroke-opacity:0.1; fill:none" points="1146.05,1173.47 1146.05,47.2441 "/>
<polyline clip-path="url(#clip271)" style="stroke:#000000; stroke-linecap:round; stroke-linejoin:round; stroke-width:2; stroke-opacity:0.1; fill:none" points="1386.8,1173.47 1386.8,47.2441 "/>
<polyline clip-path="url(#clip271)" style="stroke:#000000; stroke-linecap:round; stroke-linejoin:round; stroke-width:2; stroke-opacity:0.1; fill:none" points="1627.55,1173.47 1627.55,47.2441 "/>
<polyline clip-path="url(#clip271)" style="stroke:#000000; stroke-linecap:round; stroke-linejoin:round; stroke-width:2; stroke-opacity:0.1; fill:none" points="1868.3,1173.47 1868.3,47.2441 "/>
<polyline clip-path="url(#clip271)" style="stroke:#000000; stroke-linecap:round; stroke-linejoin:round; stroke-width:2; stroke-opacity:0.1; fill:none" points="227.349,1141.6 2064.76,1141.6 "/>
<polyline clip-path="url(#clip271)" style="stroke:#000000; stroke-linecap:round; stroke-linejoin:round; stroke-width:2; stroke-opacity:0.1; fill:none" points="227.349,785.06 2064.76,785.06 "/>
<polyline clip-path="url(#clip271)" style="stroke:#000000; stroke-linecap:round; stroke-linejoin:round; stroke-width:2; stroke-opacity:0.1; fill:none" points="227.349,428.524 2064.76,428.524 "/>
<polyline clip-path="url(#clip271)" style="stroke:#000000; stroke-linecap:round; stroke-linejoin:round; stroke-width:2; stroke-opacity:0.1; fill:none" points="227.349,71.9877 2064.76,71.9877 "/>
<polyline clip-path="url(#clip270)" style="stroke:#000000; stroke-linecap:round; stroke-linejoin:round; stroke-width:4; stroke-opacity:1; fill:none" points="227.349,1173.47 2064.76,1173.47 "/>
<polyline clip-path="url(#clip270)" style="stroke:#000000; stroke-linecap:round; stroke-linejoin:round; stroke-width:4; stroke-opacity:1; fill:none" points="423.802,1173.47 423.802,1154.57 "/>
<polyline clip-path="url(#clip270)" style="stroke:#000000; stroke-linecap:round; stroke-linejoin:round; stroke-width:4; stroke-opacity:1; fill:none" points="664.552,1173.47 664.552,1154.57 "/>
<polyline clip-path="url(#clip270)" style="stroke:#000000; stroke-linecap:round; stroke-linejoin:round; stroke-width:4; stroke-opacity:1; fill:none" points="905.302,1173.47 905.302,1154.57 "/>
<polyline clip-path="url(#clip270)" style="stroke:#000000; stroke-linecap:round; stroke-linejoin:round; stroke-width:4; stroke-opacity:1; fill:none" points="1146.05,1173.47 1146.05,1154.57 "/>
<polyline clip-path="url(#clip270)" style="stroke:#000000; stroke-linecap:round; stroke-linejoin:round; stroke-width:4; stroke-opacity:1; fill:none" points="1386.8,1173.47 1386.8,1154.57 "/>
<polyline clip-path="url(#clip270)" style="stroke:#000000; stroke-linecap:round; stroke-linejoin:round; stroke-width:4; stroke-opacity:1; fill:none" points="1627.55,1173.47 1627.55,1154.57 "/>
<polyline clip-path="url(#clip270)" style="stroke:#000000; stroke-linecap:round; stroke-linejoin:round; stroke-width:4; stroke-opacity:1; fill:none" points="1868.3,1173.47 1868.3,1154.57 "/>
<path clip-path="url(#clip270)" d="M355.746 1216.74 L385.422 1216.74 L385.422 1220.67 L355.746 1220.67 L355.746 1216.74 Z" fill="#000000" fill-rule="nonzero" fill-opacity="1" /><path clip-path="url(#clip270)" d="M405.515 1202.09 Q401.904 1202.09 400.075 1205.65 Q398.269 1209.19 398.269 1216.32 Q398.269 1223.43 400.075 1226.99 Q401.904 1230.53 405.515 1230.53 Q409.149 1230.53 410.954 1226.99 Q412.783 1223.43 412.783 1216.32 Q412.783 1209.19 410.954 1205.65 Q409.149 1202.09 405.515 1202.09 M405.515 1198.38 Q411.325 1198.38 414.38 1202.99 Q417.459 1207.57 417.459 1216.32 Q417.459 1225.05 414.38 1229.65 Q411.325 1234.24 405.515 1234.24 Q399.705 1234.24 396.626 1229.65 Q393.57 1225.05 393.57 1216.32 Q393.57 1207.57 396.626 1202.99 Q399.705 1198.38 405.515 1198.38 Z" fill="#000000" fill-rule="nonzero" fill-opacity="1" /><path clip-path="url(#clip270)" d="M425.677 1227.69 L430.561 1227.69 L430.561 1233.57 L425.677 1233.57 L425.677 1227.69 Z" fill="#000000" fill-rule="nonzero" fill-opacity="1" /><path clip-path="url(#clip270)" d="M444.774 1229.63 L461.093 1229.63 L461.093 1233.57 L439.149 1233.57 L439.149 1229.63 Q441.811 1226.88 446.394 1222.25 Q451.001 1217.59 452.181 1216.25 Q454.426 1213.73 455.306 1211.99 Q456.209 1210.23 456.209 1208.54 Q456.209 1205.79 454.264 1204.05 Q452.343 1202.32 449.241 1202.32 Q447.042 1202.32 444.589 1203.08 Q442.158 1203.84 439.38 1205.4 L439.38 1200.67 Q442.204 1199.54 444.658 1198.96 Q447.112 1198.38 449.149 1198.38 Q454.519 1198.38 457.713 1201.07 Q460.908 1203.75 460.908 1208.24 Q460.908 1210.37 460.098 1212.29 Q459.311 1214.19 457.204 1216.78 Q456.626 1217.46 453.524 1220.67 Q450.422 1223.87 444.774 1229.63 Z" fill="#000000" fill-rule="nonzero" fill-opacity="1" /><path clip-path="url(#clip270)" d="M470.954 1199.01 L489.311 1199.01 L489.311 1202.94 L475.237 1202.94 L475.237 1211.41 Q476.255 1211.07 477.274 1210.9 Q478.292 1210.72 479.311 1210.72 Q485.098 1210.72 488.477 1213.89 Q491.857 1217.06 491.857 1222.48 Q491.857 1228.06 488.385 1231.16 Q484.912 1234.24 478.593 1234.24 Q476.417 1234.24 474.149 1233.87 Q471.903 1233.5 469.496 1232.76 L469.496 1228.06 Q471.579 1229.19 473.801 1229.75 Q476.024 1230.3 478.5 1230.3 Q482.505 1230.3 484.843 1228.2 Q487.181 1226.09 487.181 1222.48 Q487.181 1218.87 484.843 1216.76 Q482.505 1214.65 478.5 1214.65 Q476.625 1214.65 474.75 1215.07 Q472.899 1215.49 470.954 1216.37 L470.954 1199.01 Z" fill="#000000" fill-rule="nonzero" fill-opacity="1" /><path clip-path="url(#clip270)" d="M626.855 1202.09 Q623.244 1202.09 621.416 1205.65 Q619.61 1209.19 619.61 1216.32 Q619.61 1223.43 621.416 1226.99 Q623.244 1230.53 626.855 1230.53 Q630.49 1230.53 632.295 1226.99 Q634.124 1223.43 634.124 1216.32 Q634.124 1209.19 632.295 1205.65 Q630.49 1202.09 626.855 1202.09 M626.855 1198.38 Q632.666 1198.38 635.721 1202.99 Q638.8 1207.57 638.8 1216.32 Q638.8 1225.05 635.721 1229.65 Q632.666 1234.24 626.855 1234.24 Q621.045 1234.24 617.967 1229.65 Q614.911 1225.05 614.911 1216.32 Q614.911 1207.57 617.967 1202.99 Q621.045 1198.38 626.855 1198.38 Z" fill="#000000" fill-rule="nonzero" fill-opacity="1" /><path clip-path="url(#clip270)" d="M647.017 1227.69 L651.902 1227.69 L651.902 1233.57 L647.017 1233.57 L647.017 1227.69 Z" fill="#000000" fill-rule="nonzero" fill-opacity="1" /><path clip-path="url(#clip270)" d="M672.087 1202.09 Q668.476 1202.09 666.647 1205.65 Q664.841 1209.19 664.841 1216.32 Q664.841 1223.43 666.647 1226.99 Q668.476 1230.53 672.087 1230.53 Q675.721 1230.53 677.526 1226.99 Q679.355 1223.43 679.355 1216.32 Q679.355 1209.19 677.526 1205.65 Q675.721 1202.09 672.087 1202.09 M672.087 1198.38 Q677.897 1198.38 680.952 1202.99 Q684.031 1207.57 684.031 1216.32 Q684.031 1225.05 680.952 1229.65 Q677.897 1234.24 672.087 1234.24 Q666.276 1234.24 663.198 1229.65 Q660.142 1225.05 660.142 1216.32 Q660.142 1207.57 663.198 1202.99 Q666.276 1198.38 672.087 1198.38 Z" fill="#000000" fill-rule="nonzero" fill-opacity="1" /><path clip-path="url(#clip270)" d="M702.249 1202.09 Q698.637 1202.09 696.809 1205.65 Q695.003 1209.19 695.003 1216.32 Q695.003 1223.43 696.809 1226.99 Q698.637 1230.53 702.249 1230.53 Q705.883 1230.53 707.688 1226.99 Q709.517 1223.43 709.517 1216.32 Q709.517 1209.19 707.688 1205.65 Q705.883 1202.09 702.249 1202.09 M702.249 1198.38 Q708.059 1198.38 711.114 1202.99 Q714.193 1207.57 714.193 1216.32 Q714.193 1225.05 711.114 1229.65 Q708.059 1234.24 702.249 1234.24 Q696.438 1234.24 693.36 1229.65 Q690.304 1225.05 690.304 1216.32 Q690.304 1207.57 693.36 1202.99 Q696.438 1198.38 702.249 1198.38 Z" fill="#000000" fill-rule="nonzero" fill-opacity="1" /><path clip-path="url(#clip270)" d="M868.103 1202.09 Q864.492 1202.09 862.664 1205.65 Q860.858 1209.19 860.858 1216.32 Q860.858 1223.43 862.664 1226.99 Q864.492 1230.53 868.103 1230.53 Q871.738 1230.53 873.543 1226.99 Q875.372 1223.43 875.372 1216.32 Q875.372 1209.19 873.543 1205.65 Q871.738 1202.09 868.103 1202.09 M868.103 1198.38 Q873.914 1198.38 876.969 1202.99 Q880.048 1207.57 880.048 1216.32 Q880.048 1225.05 876.969 1229.65 Q873.914 1234.24 868.103 1234.24 Q862.293 1234.24 859.215 1229.65 Q856.159 1225.05 856.159 1216.32 Q856.159 1207.57 859.215 1202.99 Q862.293 1198.38 868.103 1198.38 Z" fill="#000000" fill-rule="nonzero" fill-opacity="1" /><path clip-path="url(#clip270)" d="M888.265 1227.69 L893.15 1227.69 L893.15 1233.57 L888.265 1233.57 L888.265 1227.69 Z" fill="#000000" fill-rule="nonzero" fill-opacity="1" /><path clip-path="url(#clip270)" d="M907.362 1229.63 L923.682 1229.63 L923.682 1233.57 L901.737 1233.57 L901.737 1229.63 Q904.4 1226.88 908.983 1222.25 Q913.589 1217.59 914.77 1216.25 Q917.015 1213.73 917.895 1211.99 Q918.798 1210.23 918.798 1208.54 Q918.798 1205.79 916.853 1204.05 Q914.932 1202.32 911.83 1202.32 Q909.631 1202.32 907.177 1203.08 Q904.747 1203.84 901.969 1205.4 L901.969 1200.67 Q904.793 1199.54 907.247 1198.96 Q909.7 1198.38 911.737 1198.38 Q917.108 1198.38 920.302 1201.07 Q923.497 1203.75 923.497 1208.24 Q923.497 1210.37 922.686 1212.29 Q921.899 1214.19 919.793 1216.78 Q919.214 1217.46 916.112 1220.67 Q913.011 1223.87 907.362 1229.63 Z" fill="#000000" fill-rule="nonzero" fill-opacity="1" /><path clip-path="url(#clip270)" d="M933.543 1199.01 L951.899 1199.01 L951.899 1202.94 L937.825 1202.94 L937.825 1211.41 Q938.844 1211.07 939.862 1210.9 Q940.881 1210.72 941.899 1210.72 Q947.686 1210.72 951.066 1213.89 Q954.446 1217.06 954.446 1222.48 Q954.446 1228.06 950.973 1231.16 Q947.501 1234.24 941.182 1234.24 Q939.006 1234.24 936.737 1233.87 Q934.492 1233.5 932.085 1232.76 L932.085 1228.06 Q934.168 1229.19 936.39 1229.75 Q938.612 1230.3 941.089 1230.3 Q945.094 1230.3 947.432 1228.2 Q949.77 1226.09 949.77 1222.48 Q949.77 1218.87 947.432 1216.76 Q945.094 1214.65 941.089 1214.65 Q939.214 1214.65 937.339 1215.07 Q935.487 1215.49 933.543 1216.37 L933.543 1199.01 Z" fill="#000000" fill-rule="nonzero" fill-opacity="1" /><path clip-path="url(#clip270)" d="M1108.36 1202.09 Q1104.74 1202.09 1102.92 1205.65 Q1101.11 1209.19 1101.11 1216.32 Q1101.11 1223.43 1102.92 1226.99 Q1104.74 1230.53 1108.36 1230.53 Q1111.99 1230.53 1113.8 1226.99 Q1115.62 1223.43 1115.62 1216.32 Q1115.62 1209.19 1113.8 1205.65 Q1111.99 1202.09 1108.36 1202.09 M1108.36 1198.38 Q1114.17 1198.38 1117.22 1202.99 Q1120.3 1207.57 1120.3 1216.32 Q1120.3 1225.05 1117.22 1229.65 Q1114.17 1234.24 1108.36 1234.24 Q1102.55 1234.24 1099.47 1229.65 Q1096.41 1225.05 1096.41 1216.32 Q1096.41 1207.57 1099.47 1202.99 Q1102.55 1198.38 1108.36 1198.38 Z" fill="#000000" fill-rule="nonzero" fill-opacity="1" /><path clip-path="url(#clip270)" d="M1128.52 1227.69 L1133.4 1227.69 L1133.4 1233.57 L1128.52 1233.57 L1128.52 1227.69 Z" fill="#000000" fill-rule="nonzero" fill-opacity="1" /><path clip-path="url(#clip270)" d="M1143.63 1199.01 L1161.99 1199.01 L1161.99 1202.94 L1147.92 1202.94 L1147.92 1211.41 Q1148.93 1211.07 1149.95 1210.9 Q1150.97 1210.72 1151.99 1210.72 Q1157.78 1210.72 1161.16 1213.89 Q1164.54 1217.06 1164.54 1222.48 Q1164.54 1228.06 1161.06 1231.16 Q1157.59 1234.24 1151.27 1234.24 Q1149.1 1234.24 1146.83 1233.87 Q1144.58 1233.5 1142.18 1232.76 L1142.18 1228.06 Q1144.26 1229.19 1146.48 1229.75 Q1148.7 1230.3 1151.18 1230.3 Q1155.18 1230.3 1157.52 1228.2 Q1159.86 1226.09 1159.86 1222.48 Q1159.86 1218.87 1157.52 1216.76 Q1155.18 1214.65 1151.18 1214.65 Q1149.3 1214.65 1147.43 1215.07 Q1145.58 1215.49 1143.63 1216.37 L1143.63 1199.01 Z" fill="#000000" fill-rule="nonzero" fill-opacity="1" /><path clip-path="url(#clip270)" d="M1183.75 1202.09 Q1180.14 1202.09 1178.31 1205.65 Q1176.5 1209.19 1176.5 1216.32 Q1176.5 1223.43 1178.31 1226.99 Q1180.14 1230.53 1183.75 1230.53 Q1187.38 1230.53 1189.19 1226.99 Q1191.02 1223.43 1191.02 1216.32 Q1191.02 1209.19 1189.19 1205.65 Q1187.38 1202.09 1183.75 1202.09 M1183.75 1198.38 Q1189.56 1198.38 1192.61 1202.99 Q1195.69 1207.57 1195.69 1216.32 Q1195.69 1225.05 1192.61 1229.65 Q1189.56 1234.24 1183.75 1234.24 Q1177.94 1234.24 1174.86 1229.65 Q1171.8 1225.05 1171.8 1216.32 Q1171.8 1207.57 1174.86 1202.99 Q1177.94 1198.38 1183.75 1198.38 Z" fill="#000000" fill-rule="nonzero" fill-opacity="1" /><path clip-path="url(#clip270)" d="M1349.6 1202.09 Q1345.99 1202.09 1344.16 1205.65 Q1342.36 1209.19 1342.36 1216.32 Q1342.36 1223.43 1344.16 1226.99 Q1345.99 1230.53 1349.6 1230.53 Q1353.24 1230.53 1355.04 1226.99 Q1356.87 1223.43 1356.87 1216.32 Q1356.87 1209.19 1355.04 1205.65 Q1353.24 1202.09 1349.6 1202.09 M1349.6 1198.38 Q1355.41 1198.38 1358.47 1202.99 Q1361.55 1207.57 1361.55 1216.32 Q1361.55 1225.05 1358.47 1229.65 Q1355.41 1234.24 1349.6 1234.24 Q1343.79 1234.24 1340.72 1229.65 Q1337.66 1225.05 1337.66 1216.32 Q1337.66 1207.57 1340.72 1202.99 Q1343.79 1198.38 1349.6 1198.38 Z" fill="#000000" fill-rule="nonzero" fill-opacity="1" /><path clip-path="url(#clip270)" d="M1369.77 1227.69 L1374.65 1227.69 L1374.65 1233.57 L1369.77 1233.57 L1369.77 1227.69 Z" fill="#000000" fill-rule="nonzero" fill-opacity="1" /><path clip-path="url(#clip270)" d="M1383.65 1199.01 L1405.88 1199.01 L1405.88 1201 L1393.33 1233.57 L1388.45 1233.57 L1400.25 1202.94 L1383.65 1202.94 L1383.65 1199.01 Z" fill="#000000" fill-rule="nonzero" fill-opacity="1" /><path clip-path="url(#clip270)" d="M1415.04 1199.01 L1433.4 1199.01 L1433.4 1202.94 L1419.33 1202.94 L1419.33 1211.41 Q1420.34 1211.07 1421.36 1210.9 Q1422.38 1210.72 1423.4 1210.72 Q1429.19 1210.72 1432.57 1213.89 Q1435.95 1217.06 1435.95 1222.48 Q1435.95 1228.06 1432.47 1231.16 Q1429 1234.24 1422.68 1234.24 Q1420.51 1234.24 1418.24 1233.87 Q1415.99 1233.5 1413.59 1232.76 L1413.59 1228.06 Q1415.67 1229.19 1417.89 1229.75 Q1420.11 1230.3 1422.59 1230.3 Q1426.59 1230.3 1428.93 1228.2 Q1431.27 1226.09 1431.27 1222.48 Q1431.27 1218.87 1428.93 1216.76 Q1426.59 1214.65 1422.59 1214.65 Q1420.71 1214.65 1418.84 1215.07 Q1416.99 1215.49 1415.04 1216.37 L1415.04 1199.01 Z" fill="#000000" fill-rule="nonzero" fill-opacity="1" /><path clip-path="url(#clip270)" d="M1579.63 1229.63 L1587.26 1229.63 L1587.26 1203.27 L1578.95 1204.93 L1578.95 1200.67 L1587.22 1199.01 L1591.89 1199.01 L1591.89 1229.63 L1599.53 1229.63 L1599.53 1233.57 L1579.63 1233.57 L1579.63 1229.63 Z" fill="#000000" fill-rule="nonzero" fill-opacity="1" /><path clip-path="url(#clip270)" d="M1608.98 1227.69 L1613.86 1227.69 L1613.86 1233.57 L1608.98 1233.57 L1608.98 1227.69 Z" fill="#000000" fill-rule="nonzero" fill-opacity="1" /><path clip-path="url(#clip270)" d="M1634.05 1202.09 Q1630.44 1202.09 1628.61 1205.65 Q1626.8 1209.19 1626.8 1216.32 Q1626.8 1223.43 1628.61 1226.99 Q1630.44 1230.53 1634.05 1230.53 Q1637.68 1230.53 1639.49 1226.99 Q1641.31 1223.43 1641.31 1216.32 Q1641.31 1209.19 1639.49 1205.65 Q1637.68 1202.09 1634.05 1202.09 M1634.05 1198.38 Q1639.86 1198.38 1642.91 1202.99 Q1645.99 1207.57 1645.99 1216.32 Q1645.99 1225.05 1642.91 1229.65 Q1639.86 1234.24 1634.05 1234.24 Q1628.24 1234.24 1625.16 1229.65 Q1622.1 1225.05 1622.1 1216.32 Q1622.1 1207.57 1625.16 1202.99 Q1628.24 1198.38 1634.05 1198.38 Z" fill="#000000" fill-rule="nonzero" fill-opacity="1" /><path clip-path="url(#clip270)" d="M1664.21 1202.09 Q1660.6 1202.09 1658.77 1205.65 Q1656.96 1209.19 1656.96 1216.32 Q1656.96 1223.43 1658.77 1226.99 Q1660.6 1230.53 1664.21 1230.53 Q1667.84 1230.53 1669.65 1226.99 Q1671.48 1223.43 1671.48 1216.32 Q1671.48 1209.19 1669.65 1205.65 Q1667.84 1202.09 1664.21 1202.09 M1664.21 1198.38 Q1670.02 1198.38 1673.07 1202.99 Q1676.15 1207.57 1676.15 1216.32 Q1676.15 1225.05 1673.07 1229.65 Q1670.02 1234.24 1664.21 1234.24 Q1658.4 1234.24 1655.32 1229.65 Q1652.26 1225.05 1652.26 1216.32 Q1652.26 1207.57 1655.32 1202.99 Q1658.4 1198.38 1664.21 1198.38 Z" fill="#000000" fill-rule="nonzero" fill-opacity="1" /><path clip-path="url(#clip270)" d="M1820.87 1229.63 L1828.51 1229.63 L1828.51 1203.27 L1820.2 1204.93 L1820.2 1200.67 L1828.47 1199.01 L1833.14 1199.01 L1833.14 1229.63 L1840.78 1229.63 L1840.78 1233.57 L1820.87 1233.57 L1820.87 1229.63 Z" fill="#000000" fill-rule="nonzero" fill-opacity="1" /><path clip-path="url(#clip270)" d="M1850.23 1227.69 L1855.11 1227.69 L1855.11 1233.57 L1850.23 1233.57 L1850.23 1227.69 Z" fill="#000000" fill-rule="nonzero" fill-opacity="1" /><path clip-path="url(#clip270)" d="M1869.32 1229.63 L1885.64 1229.63 L1885.64 1233.57 L1863.7 1233.57 L1863.7 1229.63 Q1866.36 1226.88 1870.94 1222.25 Q1875.55 1217.59 1876.73 1216.25 Q1878.97 1213.73 1879.85 1211.99 Q1880.76 1210.23 1880.76 1208.54 Q1880.76 1205.79 1878.81 1204.05 Q1876.89 1202.32 1873.79 1202.32 Q1871.59 1202.32 1869.14 1203.08 Q1866.71 1203.84 1863.93 1205.4 L1863.93 1200.67 Q1866.75 1199.54 1869.21 1198.96 Q1871.66 1198.38 1873.7 1198.38 Q1879.07 1198.38 1882.26 1201.07 Q1885.46 1203.75 1885.46 1208.24 Q1885.46 1210.37 1884.65 1212.29 Q1883.86 1214.19 1881.75 1216.78 Q1881.17 1217.46 1878.07 1220.67 Q1874.97 1223.87 1869.32 1229.63 Z" fill="#000000" fill-rule="nonzero" fill-opacity="1" /><path clip-path="url(#clip270)" d="M1895.5 1199.01 L1913.86 1199.01 L1913.86 1202.94 L1899.78 1202.94 L1899.78 1211.41 Q1900.8 1211.07 1901.82 1210.9 Q1902.84 1210.72 1903.86 1210.72 Q1909.65 1210.72 1913.03 1213.89 Q1916.41 1217.06 1916.41 1222.48 Q1916.41 1228.06 1912.93 1231.16 Q1909.46 1234.24 1903.14 1234.24 Q1900.97 1234.24 1898.7 1233.87 Q1896.45 1233.5 1894.04 1232.76 L1894.04 1228.06 Q1896.13 1229.19 1898.35 1229.75 Q1900.57 1230.3 1903.05 1230.3 Q1907.05 1230.3 1909.39 1228.2 Q1911.73 1226.09 1911.73 1222.48 Q1911.73 1218.87 1909.39 1216.76 Q1907.05 1214.65 1903.05 1214.65 Q1901.17 1214.65 1899.3 1215.07 Q1897.45 1215.49 1895.5 1216.37 L1895.5 1199.01 Z" fill="#000000" fill-rule="nonzero" fill-opacity="1" /><path clip-path="url(#clip270)" d="M917.317 1270.16 L917.317 1276.93 Q914.07 1273.91 910.378 1272.41 Q906.718 1270.92 902.58 1270.92 Q894.432 1270.92 890.103 1275.92 Q885.775 1280.88 885.775 1290.3 Q885.775 1299.69 890.103 1304.69 Q894.432 1309.65 902.58 1309.65 Q906.718 1309.65 910.378 1308.16 Q914.07 1306.66 917.317 1303.64 L917.317 1310.35 Q913.943 1312.65 910.155 1313.79 Q906.4 1314.94 902.198 1314.94 Q891.408 1314.94 885.202 1308.35 Q878.995 1301.73 878.995 1290.3 Q878.995 1278.84 885.202 1272.26 Q891.408 1265.64 902.198 1265.64 Q906.463 1265.64 910.219 1266.78 Q914.007 1267.9 917.317 1270.16 Z" fill="#000000" fill-rule="nonzero" fill-opacity="1" /><path clip-path="url(#clip270)" d="M943.193 1296.1 Q936.096 1296.1 933.358 1297.72 Q930.621 1299.34 930.621 1303.26 Q930.621 1306.38 932.658 1308.22 Q934.727 1310.04 938.26 1310.04 Q943.13 1310.04 946.058 1306.6 Q949.018 1303.13 949.018 1297.4 L949.018 1296.1 L943.193 1296.1 M954.875 1293.68 L954.875 1314.01 L949.018 1314.01 L949.018 1308.6 Q947.013 1311.85 944.021 1313.41 Q941.029 1314.94 936.7 1314.94 Q931.226 1314.94 927.979 1311.88 Q924.765 1308.79 924.765 1303.64 Q924.765 1297.62 928.775 1294.57 Q932.817 1291.51 940.806 1291.51 L949.018 1291.51 L949.018 1290.94 Q949.018 1286.9 946.344 1284.7 Q943.703 1282.47 938.897 1282.47 Q935.841 1282.47 932.945 1283.2 Q930.048 1283.94 927.375 1285.4 L927.375 1279.99 Q930.589 1278.75 933.613 1278.14 Q936.637 1277.51 939.501 1277.51 Q947.236 1277.51 951.055 1281.52 Q954.875 1285.53 954.875 1293.68 Z" fill="#000000" fill-rule="nonzero" fill-opacity="1" /><path clip-path="url(#clip270)" d="M994.692 1285.21 Q996.888 1281.26 999.944 1279.39 Q1003 1277.51 1007.14 1277.51 Q1012.71 1277.51 1015.73 1281.42 Q1018.75 1285.31 1018.75 1292.5 L1018.75 1314.01 L1012.87 1314.01 L1012.87 1292.69 Q1012.87 1287.57 1011.05 1285.08 Q1009.24 1282.6 1005.51 1282.6 Q1000.96 1282.6 998.32 1285.62 Q995.679 1288.65 995.679 1293.87 L995.679 1314.01 L989.79 1314.01 L989.79 1292.69 Q989.79 1287.53 987.976 1285.08 Q986.162 1282.6 982.374 1282.6 Q977.887 1282.6 975.245 1285.66 Q972.603 1288.68 972.603 1293.87 L972.603 1314.01 L966.715 1314.01 L966.715 1278.37 L972.603 1278.37 L972.603 1283.9 Q974.608 1280.63 977.409 1279.07 Q980.21 1277.51 984.061 1277.51 Q987.944 1277.51 990.65 1279.48 Q993.387 1281.45 994.692 1285.21 Z" fill="#000000" fill-rule="nonzero" fill-opacity="1" /><path clip-path="url(#clip270)" d="M1036.1 1308.67 L1036.1 1327.57 L1030.21 1327.57 L1030.21 1278.37 L1036.1 1278.37 L1036.1 1283.78 Q1037.95 1280.59 1040.75 1279.07 Q1043.58 1277.51 1047.5 1277.51 Q1053.99 1277.51 1058.03 1282.66 Q1062.1 1287.82 1062.1 1296.22 Q1062.1 1304.63 1058.03 1309.78 Q1053.99 1314.94 1047.5 1314.94 Q1043.58 1314.94 1040.75 1313.41 Q1037.95 1311.85 1036.1 1308.67 M1056.03 1296.22 Q1056.03 1289.76 1053.35 1286.1 Q1050.71 1282.41 1046.06 1282.41 Q1041.42 1282.41 1038.74 1286.1 Q1036.1 1289.76 1036.1 1296.22 Q1036.1 1302.68 1038.74 1306.38 Q1041.42 1310.04 1046.06 1310.04 Q1050.71 1310.04 1053.35 1306.38 Q1056.03 1302.68 1056.03 1296.22 Z" fill="#000000" fill-rule="nonzero" fill-opacity="1" /><path clip-path="url(#clip270)" d="M1102.3 1294.73 L1102.3 1297.59 L1075.38 1297.59 Q1075.76 1303.64 1079.01 1306.82 Q1082.28 1309.97 1088.11 1309.97 Q1091.48 1309.97 1094.63 1309.14 Q1097.82 1308.32 1100.94 1306.66 L1100.94 1312.2 Q1097.78 1313.54 1094.47 1314.24 Q1091.16 1314.94 1087.76 1314.94 Q1079.23 1314.94 1074.23 1309.97 Q1069.27 1305.01 1069.27 1296.54 Q1069.27 1287.79 1073.98 1282.66 Q1078.72 1277.51 1086.74 1277.51 Q1093.93 1277.51 1098.1 1282.15 Q1102.3 1286.77 1102.3 1294.73 M1096.45 1293.01 Q1096.38 1288.2 1093.74 1285.34 Q1091.13 1282.47 1086.8 1282.47 Q1081.9 1282.47 1078.94 1285.24 Q1076.01 1288.01 1075.57 1293.04 L1096.45 1293.01 Z" fill="#000000" fill-rule="nonzero" fill-opacity="1" /><path clip-path="url(#clip270)" d="M1132.57 1283.84 Q1131.59 1283.27 1130.41 1283.01 Q1129.26 1282.73 1127.86 1282.73 Q1122.9 1282.73 1120.22 1285.97 Q1117.58 1289.19 1117.58 1295.24 L1117.58 1314.01 L1111.69 1314.01 L1111.69 1278.37 L1117.58 1278.37 L1117.58 1283.9 Q1119.43 1280.66 1122.39 1279.1 Q1125.35 1277.51 1129.58 1277.51 Q1130.19 1277.51 1130.92 1277.6 Q1131.65 1277.67 1132.54 1277.83 L1132.57 1283.84 Z" fill="#000000" fill-rule="nonzero" fill-opacity="1" /><path clip-path="url(#clip270)" d="M1171.95 1314.01 L1153.8 1266.49 L1160.52 1266.49 L1175.57 1306.5 L1190.66 1266.49 L1197.34 1266.49 L1179.23 1314.01 L1171.95 1314.01 Z" fill="#000000" fill-rule="nonzero" fill-opacity="1" /><path clip-path="url(#clip270)" d="M1215.17 1296.1 Q1208.07 1296.1 1205.33 1297.72 Q1202.6 1299.34 1202.6 1303.26 Q1202.6 1306.38 1204.63 1308.22 Q1206.7 1310.04 1210.23 1310.04 Q1215.1 1310.04 1218.03 1306.6 Q1220.99 1303.13 1220.99 1297.4 L1220.99 1296.1 L1215.17 1296.1 M1226.85 1293.68 L1226.85 1314.01 L1220.99 1314.01 L1220.99 1308.6 Q1218.99 1311.85 1216 1313.41 Q1213 1314.94 1208.68 1314.94 Q1203.2 1314.94 1199.95 1311.88 Q1196.74 1308.79 1196.74 1303.64 Q1196.74 1297.62 1200.75 1294.57 Q1204.79 1291.51 1212.78 1291.51 L1220.99 1291.51 L1220.99 1290.94 Q1220.99 1286.9 1218.32 1284.7 Q1215.68 1282.47 1210.87 1282.47 Q1207.82 1282.47 1204.92 1283.2 Q1202.02 1283.94 1199.35 1285.4 L1199.35 1279.99 Q1202.56 1278.75 1205.59 1278.14 Q1208.61 1277.51 1211.48 1277.51 Q1219.21 1277.51 1223.03 1281.52 Q1226.85 1285.53 1226.85 1293.68 Z" fill="#000000" fill-rule="nonzero" fill-opacity="1" /><path clip-path="url(#clip270)" d="M1268.54 1292.5 L1268.54 1314.01 L1262.69 1314.01 L1262.69 1292.69 Q1262.69 1287.63 1260.71 1285.11 Q1258.74 1282.6 1254.79 1282.6 Q1250.05 1282.6 1247.32 1285.62 Q1244.58 1288.65 1244.58 1293.87 L1244.58 1314.01 L1238.69 1314.01 L1238.69 1278.37 L1244.58 1278.37 L1244.58 1283.9 Q1246.68 1280.69 1249.51 1279.1 Q1252.38 1277.51 1256.1 1277.51 Q1262.24 1277.51 1265.39 1281.33 Q1268.54 1285.11 1268.54 1292.5 Z" fill="#000000" fill-rule="nonzero" fill-opacity="1" /><path clip-path="url(#clip270)" d="M1300.47 1266.49 L1306.93 1266.49 L1306.93 1295.36 Q1306.93 1303 1309.7 1306.38 Q1312.47 1309.72 1318.67 1309.72 Q1324.85 1309.72 1327.62 1306.38 Q1330.39 1303 1330.39 1295.36 L1330.39 1266.49 L1336.85 1266.49 L1336.85 1296.16 Q1336.85 1305.45 1332.23 1310.2 Q1327.65 1314.94 1318.67 1314.94 Q1309.67 1314.94 1305.05 1310.2 Q1300.47 1305.45 1300.47 1296.16 L1300.47 1266.49 Z" fill="#000000" fill-rule="nonzero" fill-opacity="1" /><path clip-path="url(#clip270)" d="M1371.38 1279.42 L1371.38 1284.96 Q1368.9 1283.68 1366.23 1283.05 Q1363.55 1282.41 1360.69 1282.41 Q1356.33 1282.41 1354.13 1283.75 Q1351.97 1285.08 1351.97 1287.76 Q1351.97 1289.79 1353.53 1290.97 Q1355.09 1292.12 1359.8 1293.17 L1361.8 1293.61 Q1368.04 1294.95 1370.65 1297.4 Q1373.29 1299.82 1373.29 1304.18 Q1373.29 1309.14 1369.35 1312.04 Q1365.43 1314.94 1358.56 1314.94 Q1355.69 1314.94 1352.57 1314.36 Q1349.48 1313.82 1346.05 1312.71 L1346.05 1306.66 Q1349.29 1308.35 1352.44 1309.21 Q1355.6 1310.04 1358.68 1310.04 Q1362.82 1310.04 1365.05 1308.64 Q1367.28 1307.2 1367.28 1304.63 Q1367.28 1302.24 1365.65 1300.97 Q1364.06 1299.69 1358.62 1298.51 L1356.58 1298.04 Q1351.14 1296.89 1348.72 1294.54 Q1346.3 1292.15 1346.3 1288.01 Q1346.3 1282.98 1349.87 1280.24 Q1353.43 1277.51 1359.99 1277.51 Q1363.23 1277.51 1366.1 1277.98 Q1368.96 1278.46 1371.38 1279.42 Z" fill="#000000" fill-rule="nonzero" fill-opacity="1" /><path clip-path="url(#clip270)" d="M1413.11 1294.73 L1413.11 1297.59 L1386.18 1297.59 Q1386.56 1303.64 1389.81 1306.82 Q1393.09 1309.97 1398.91 1309.97 Q1402.29 1309.97 1405.44 1309.14 Q1408.62 1308.32 1411.74 1306.66 L1411.74 1312.2 Q1408.59 1313.54 1405.28 1314.24 Q1401.97 1314.94 1398.56 1314.94 Q1390.03 1314.94 1385.04 1309.97 Q1380.07 1305.01 1380.07 1296.54 Q1380.07 1287.79 1384.78 1282.66 Q1389.52 1277.51 1397.55 1277.51 Q1404.74 1277.51 1408.91 1282.15 Q1413.11 1286.77 1413.11 1294.73 M1407.25 1293.01 Q1407.19 1288.2 1404.55 1285.34 Q1401.94 1282.47 1397.61 1282.47 Q1392.71 1282.47 1389.75 1285.24 Q1386.82 1288.01 1386.37 1293.04 L1407.25 1293.01 Z" fill="#000000" fill-rule="nonzero" fill-opacity="1" /><polyline clip-path="url(#clip270)" style="stroke:#000000; stroke-linecap:round; stroke-linejoin:round; stroke-width:4; stroke-opacity:1; fill:none" points="227.349,1173.47 227.349,47.2441 "/>
<polyline clip-path="url(#clip270)" style="stroke:#000000; stroke-linecap:round; stroke-linejoin:round; stroke-width:4; stroke-opacity:1; fill:none" points="227.349,1141.6 246.247,1141.6 "/>
<polyline clip-path="url(#clip270)" style="stroke:#000000; stroke-linecap:round; stroke-linejoin:round; stroke-width:4; stroke-opacity:1; fill:none" points="227.349,785.06 246.247,785.06 "/>
<polyline clip-path="url(#clip270)" style="stroke:#000000; stroke-linecap:round; stroke-linejoin:round; stroke-width:4; stroke-opacity:1; fill:none" points="227.349,428.524 246.247,428.524 "/>
<polyline clip-path="url(#clip270)" style="stroke:#000000; stroke-linecap:round; stroke-linejoin:round; stroke-width:4; stroke-opacity:1; fill:none" points="227.349,71.9877 246.247,71.9877 "/>
<path clip-path="url(#clip270)" d="M183.725 1127.4 Q180.114 1127.4 178.285 1130.96 Q176.48 1134.5 176.48 1141.63 Q176.48 1148.74 178.285 1152.3 Q180.114 1155.84 183.725 1155.84 Q187.359 1155.84 189.165 1152.3 Q190.993 1148.74 190.993 1141.63 Q190.993 1134.5 189.165 1130.96 Q187.359 1127.4 183.725 1127.4 M183.725 1123.69 Q189.535 1123.69 192.591 1128.3 Q195.669 1132.88 195.669 1141.63 Q195.669 1150.36 192.591 1154.96 Q189.535 1159.55 183.725 1159.55 Q177.915 1159.55 174.836 1154.96 Q171.781 1150.36 171.781 1141.63 Q171.781 1132.88 174.836 1128.3 Q177.915 1123.69 183.725 1123.69 Z" fill="#000000" fill-rule="nonzero" fill-opacity="1" /><path clip-path="url(#clip270)" d="M143.609 767.78 L161.966 767.78 L161.966 771.715 L147.892 771.715 L147.892 780.188 Q148.91 779.84 149.929 779.678 Q150.947 779.493 151.966 779.493 Q157.753 779.493 161.132 782.664 Q164.512 785.836 164.512 791.252 Q164.512 796.831 161.04 799.933 Q157.568 803.011 151.248 803.011 Q149.072 803.011 146.804 802.641 Q144.559 802.271 142.151 801.53 L142.151 796.831 Q144.234 797.965 146.457 798.521 Q148.679 799.076 151.156 799.076 Q155.16 799.076 157.498 796.97 Q159.836 794.863 159.836 791.252 Q159.836 787.641 157.498 785.535 Q155.16 783.428 151.156 783.428 Q149.281 783.428 147.406 783.845 Q145.554 784.262 143.609 785.141 L143.609 767.78 Z" fill="#000000" fill-rule="nonzero" fill-opacity="1" /><path clip-path="url(#clip270)" d="M183.725 770.859 Q180.114 770.859 178.285 774.424 Q176.48 777.965 176.48 785.095 Q176.48 792.201 178.285 795.766 Q180.114 799.308 183.725 799.308 Q187.359 799.308 189.165 795.766 Q190.993 792.201 190.993 785.095 Q190.993 777.965 189.165 774.424 Q187.359 770.859 183.725 770.859 M183.725 767.155 Q189.535 767.155 192.591 771.762 Q195.669 776.345 195.669 785.095 Q195.669 793.822 192.591 798.428 Q189.535 803.011 183.725 803.011 Q177.915 803.011 174.836 798.428 Q171.781 793.822 171.781 785.095 Q171.781 776.345 174.836 771.762 Q177.915 767.155 183.725 767.155 Z" fill="#000000" fill-rule="nonzero" fill-opacity="1" /><path clip-path="url(#clip270)" d="M114.211 441.869 L121.85 441.869 L121.85 415.503 L113.54 417.17 L113.54 412.911 L121.804 411.244 L126.48 411.244 L126.48 441.869 L134.119 441.869 L134.119 445.804 L114.211 445.804 L114.211 441.869 Z" fill="#000000" fill-rule="nonzero" fill-opacity="1" /><path clip-path="url(#clip270)" d="M153.563 414.323 Q149.952 414.323 148.123 417.887 Q146.318 421.429 146.318 428.559 Q146.318 435.665 148.123 439.23 Q149.952 442.772 153.563 442.772 Q157.197 442.772 159.003 439.23 Q160.832 435.665 160.832 428.559 Q160.832 421.429 159.003 417.887 Q157.197 414.323 153.563 414.323 M153.563 410.619 Q159.373 410.619 162.429 415.225 Q165.507 419.809 165.507 428.559 Q165.507 437.285 162.429 441.892 Q159.373 446.475 153.563 446.475 Q147.753 446.475 144.674 441.892 Q141.619 437.285 141.619 428.559 Q141.619 419.809 144.674 415.225 Q147.753 410.619 153.563 410.619 Z" fill="#000000" fill-rule="nonzero" fill-opacity="1" /><path clip-path="url(#clip270)" d="M183.725 414.323 Q180.114 414.323 178.285 417.887 Q176.48 421.429 176.48 428.559 Q176.48 435.665 178.285 439.23 Q180.114 442.772 183.725 442.772 Q187.359 442.772 189.165 439.23 Q190.993 435.665 190.993 428.559 Q190.993 421.429 189.165 417.887 Q187.359 414.323 183.725 414.323 M183.725 410.619 Q189.535 410.619 192.591 415.225 Q195.669 419.809 195.669 428.559 Q195.669 437.285 192.591 441.892 Q189.535 446.475 183.725 446.475 Q177.915 446.475 174.836 441.892 Q171.781 437.285 171.781 428.559 Q171.781 419.809 174.836 415.225 Q177.915 410.619 183.725 410.619 Z" fill="#000000" fill-rule="nonzero" fill-opacity="1" /><path clip-path="url(#clip270)" d="M114.211 85.3325 L121.85 85.3325 L121.85 58.9669 L113.54 60.6336 L113.54 56.3744 L121.804 54.7077 L126.48 54.7077 L126.48 85.3325 L134.119 85.3325 L134.119 89.2677 L114.211 89.2677 L114.211 85.3325 Z" fill="#000000" fill-rule="nonzero" fill-opacity="1" /><path clip-path="url(#clip270)" d="M143.609 54.7077 L161.966 54.7077 L161.966 58.6429 L147.892 58.6429 L147.892 67.1151 Q148.91 66.7678 149.929 66.6058 Q150.947 66.4206 151.966 66.4206 Q157.753 66.4206 161.132 69.5919 Q164.512 72.7632 164.512 78.1798 Q164.512 83.7585 161.04 86.8603 Q157.568 89.939 151.248 89.939 Q149.072 89.939 146.804 89.5686 Q144.559 89.1983 142.151 88.4575 L142.151 83.7585 Q144.234 84.8927 146.457 85.4483 Q148.679 86.0038 151.156 86.0038 Q155.16 86.0038 157.498 83.8974 Q159.836 81.7909 159.836 78.1798 Q159.836 74.5687 157.498 72.4622 Q155.16 70.3558 151.156 70.3558 Q149.281 70.3558 147.406 70.7724 Q145.554 71.1891 143.609 72.0687 L143.609 54.7077 Z" fill="#000000" fill-rule="nonzero" fill-opacity="1" /><path clip-path="url(#clip270)" d="M183.725 57.7864 Q180.114 57.7864 178.285 61.3512 Q176.48 64.8928 176.48 72.0224 Q176.48 79.1289 178.285 82.6937 Q180.114 86.2353 183.725 86.2353 Q187.359 86.2353 189.165 82.6937 Q190.993 79.1289 190.993 72.0224 Q190.993 64.8928 189.165 61.3512 Q187.359 57.7864 183.725 57.7864 M183.725 54.0827 Q189.535 54.0827 192.591 58.6892 Q195.669 63.2725 195.669 72.0224 Q195.669 80.7492 192.591 85.3557 Q189.535 89.939 183.725 89.939 Q177.915 89.939 174.836 85.3557 Q171.781 80.7492 171.781 72.0224 Q171.781 63.2725 174.836 58.6892 Q177.915 54.0827 183.725 54.0827 Z" fill="#000000" fill-rule="nonzero" fill-opacity="1" /><path clip-path="url(#clip270)" d="M20.0842 797.318 L20.0842 770.009 L25.495 770.009 L25.495 790.889 L39.4996 790.889 L39.4996 772.046 L44.9104 772.046 L44.9104 790.889 L67.6042 790.889 L67.6042 797.318 L20.0842 797.318 Z" fill="#000000" fill-rule="nonzero" fill-opacity="1" /><path clip-path="url(#clip270)" d="M31.9562 764.821 L31.9562 758.965 L67.6042 758.965 L67.6042 764.821 L31.9562 764.821 M18.079 764.821 L18.079 758.965 L25.495 758.965 L25.495 764.821 L18.079 764.821 Z" fill="#000000" fill-rule="nonzero" fill-opacity="1" /><path clip-path="url(#clip270)" d="M33.0065 723.985 L38.5447 723.985 Q37.2716 726.468 36.635 729.142 Q35.9984 731.815 35.9984 734.68 Q35.9984 739.04 37.3352 741.236 Q38.672 743.401 41.3456 743.401 Q43.3826 743.401 44.5603 741.841 Q45.7061 740.281 46.7565 735.571 L47.2021 733.566 Q48.5389 727.327 50.9897 724.717 Q53.4086 722.076 57.7691 722.076 Q62.7344 722.076 65.6308 726.022 Q68.5272 729.937 68.5272 736.812 Q68.5272 739.677 67.9543 742.796 Q67.4132 745.883 66.2992 749.321 L60.2518 749.321 Q61.9387 746.074 62.798 742.923 Q63.6256 739.772 63.6256 736.685 Q63.6256 732.547 62.2251 730.319 Q60.7929 728.091 58.2147 728.091 Q55.8276 728.091 54.5545 729.714 Q53.2813 731.306 52.1037 736.749 L51.6262 738.786 Q50.4804 744.228 48.1251 746.647 Q45.738 749.066 41.6002 749.066 Q36.5713 749.066 33.8341 745.501 Q31.0968 741.937 31.0968 735.38 Q31.0968 732.133 31.5743 729.269 Q32.0517 726.404 33.0065 723.985 Z" fill="#000000" fill-rule="nonzero" fill-opacity="1" /><path clip-path="url(#clip270)" d="M46.0881 683.117 L67.6042 683.117 L67.6042 688.974 L46.279 688.974 Q41.2183 688.974 38.7038 690.947 Q36.1894 692.921 36.1894 696.867 Q36.1894 701.61 39.2131 704.347 Q42.2368 707.084 47.4567 707.084 L67.6042 707.084 L67.6042 712.973 L18.079 712.973 L18.079 707.084 L37.4944 707.084 Q34.2797 704.984 32.6883 702.151 Q31.0968 699.286 31.0968 695.562 Q31.0968 689.419 34.9163 686.268 Q38.7038 683.117 46.0881 683.117 Z" fill="#000000" fill-rule="nonzero" fill-opacity="1" /><path clip-path="url(#clip270)" d="M23.7444 614.877 L30.5239 614.877 Q27.5002 618.124 26.0043 621.816 Q24.5083 625.476 24.5083 629.614 Q24.5083 637.762 29.5054 642.09 Q34.4707 646.419 43.8919 646.419 Q53.2813 646.419 58.2784 642.09 Q63.2436 637.762 63.2436 629.614 Q63.2436 625.476 61.7477 621.816 Q60.2518 618.124 57.2281 614.877 L63.9439 614.877 Q66.2355 618.251 67.3814 622.038 Q68.5272 625.794 68.5272 629.996 Q68.5272 640.786 61.9387 646.992 Q55.3183 653.199 43.8919 653.199 Q32.4336 653.199 25.8451 646.992 Q19.2248 640.786 19.2248 629.996 Q19.2248 625.731 20.3706 621.975 Q21.4846 618.187 23.7444 614.877 Z" fill="#000000" fill-rule="nonzero" fill-opacity="1" /><path clip-path="url(#clip270)" d="M49.6847 589 Q49.6847 596.098 51.3079 598.835 Q52.9312 601.573 56.8461 601.573 Q59.9653 601.573 61.8114 599.536 Q63.6256 597.467 63.6256 593.934 Q63.6256 589.064 60.1881 586.136 Q56.7188 583.176 50.9897 583.176 L49.6847 583.176 L49.6847 589 M47.2657 577.319 L67.6042 577.319 L67.6042 583.176 L62.1933 583.176 Q65.4398 585.181 66.9994 588.173 Q68.5272 591.165 68.5272 595.493 Q68.5272 600.968 65.4716 604.215 Q62.3843 607.429 57.2281 607.429 Q51.2125 607.429 48.1569 603.419 Q45.1014 599.377 45.1014 591.388 L45.1014 583.176 L44.5285 583.176 Q40.4862 583.176 38.2901 585.849 Q36.0621 588.491 36.0621 593.297 Q36.0621 596.353 36.7941 599.249 Q37.5262 602.146 38.9903 604.819 L33.5795 604.819 Q32.3381 601.605 31.7334 598.581 Q31.0968 595.557 31.0968 592.693 Q31.0968 584.958 35.1072 581.139 Q39.1176 577.319 47.2657 577.319 Z" fill="#000000" fill-rule="nonzero" fill-opacity="1" /><path clip-path="url(#clip270)" d="M53.5359 565.861 L31.9562 565.861 L31.9562 560.005 L53.3131 560.005 Q58.3739 560.005 60.9202 558.031 Q63.4346 556.058 63.4346 552.111 Q63.4346 547.369 60.4109 544.632 Q57.3872 541.862 52.1673 541.862 L31.9562 541.862 L31.9562 536.006 L67.6042 536.006 L67.6042 541.862 L62.1296 541.862 Q65.3762 543.995 66.9676 546.828 Q68.5272 549.629 68.5272 553.353 Q68.5272 559.495 64.7078 562.678 Q60.8883 565.861 53.5359 565.861 M31.0968 551.125 L31.0968 551.125 Z" fill="#000000" fill-rule="nonzero" fill-opacity="1" /><path clip-path="url(#clip270)" d="M49.3664 500.485 Q43.0007 500.485 39.4996 503.127 Q35.9984 505.737 35.9984 510.479 Q35.9984 515.19 39.4996 517.832 Q43.0007 520.442 49.3664 520.442 Q55.7003 520.442 59.2014 517.832 Q62.7026 515.19 62.7026 510.479 Q62.7026 505.737 59.2014 503.127 Q55.7003 500.485 49.3664 500.485 M63.18 494.629 Q72.283 494.629 76.7071 498.671 Q81.1631 502.713 81.1631 511.052 Q81.1631 514.14 80.6857 516.877 Q80.2401 519.614 79.2852 522.192 L73.5879 522.192 Q74.9884 519.614 75.6568 517.1 Q76.3252 514.585 76.3252 511.975 Q76.3252 506.214 73.3015 503.35 Q70.3096 500.485 64.2303 500.485 L61.3339 500.485 Q64.485 502.3 66.0446 505.132 Q67.6042 507.965 67.6042 511.912 Q67.6042 518.468 62.6071 522.479 Q57.61 526.489 49.3664 526.489 Q41.091 526.489 36.0939 522.479 Q31.0968 518.468 31.0968 511.912 Q31.0968 507.965 32.6564 505.132 Q34.216 502.3 37.3671 500.485 L31.9562 500.485 L31.9562 494.629 L63.18 494.629 Z" fill="#000000" fill-rule="nonzero" fill-opacity="1" /><path clip-path="url(#clip270)" d="M46.0881 452.933 L67.6042 452.933 L67.6042 458.79 L46.279 458.79 Q41.2183 458.79 38.7038 460.763 Q36.1894 462.737 36.1894 466.683 Q36.1894 471.426 39.2131 474.163 Q42.2368 476.9 47.4567 476.9 L67.6042 476.9 L67.6042 482.789 L18.079 482.789 L18.079 476.9 L37.4944 476.9 Q34.2797 474.8 32.6883 471.967 Q31.0968 469.102 31.0968 465.378 Q31.0968 459.236 34.9163 456.085 Q38.7038 452.933 46.0881 452.933 Z" fill="#000000" fill-rule="nonzero" fill-opacity="1" /><path clip-path="url(#clip270)" d="M21.8347 435.46 L31.9562 435.46 L31.9562 423.397 L36.5077 423.397 L36.5077 435.46 L55.8594 435.46 Q60.2199 435.46 61.4613 434.282 Q62.7026 433.072 62.7026 429.412 L62.7026 423.397 L67.6042 423.397 L67.6042 429.412 Q67.6042 436.192 65.0897 438.77 Q62.5434 441.348 55.8594 441.348 L36.5077 441.348 L36.5077 445.645 L31.9562 445.645 L31.9562 441.348 L21.8347 441.348 L21.8347 435.46 Z" fill="#000000" fill-rule="nonzero" fill-opacity="1" /><path clip-path="url(#clip271)" d="M664.552 1141.6 L471.952 1141.6 L857.152 1141.6 L664.552 1141.6 L664.552 1141.6 L664.552 1141.6  Z" fill="#009af9" fill-rule="evenodd" fill-opacity="1"/>
<polyline clip-path="url(#clip271)" style="stroke:#000000; stroke-linecap:round; stroke-linejoin:round; stroke-width:4; stroke-opacity:1; fill:none" points="664.552,1141.6 471.952,1141.6 857.152,1141.6 664.552,1141.6 "/>
<path clip-path="url(#clip271)" d="M1049.75 1141.6 L1049.75 1141.6 L279.351 1141.6 L279.351 1141.6 L1049.75 1141.6 L1049.75 1141.6 L1049.75 1141.6  Z" fill="#009af9" fill-rule="evenodd" fill-opacity="1"/>
<polyline clip-path="url(#clip271)" style="stroke:#000000; stroke-linecap:round; stroke-linejoin:round; stroke-width:4; stroke-opacity:1; fill:none" points="1049.75,1141.6 1049.75,1141.6 279.351,1141.6 1049.75,1141.6 "/>
<path clip-path="url(#clip271)" d="M1049.75 1134.47 L279.351 1134.47 L279.351 1141.6 L1049.75 1141.6 L1049.75 1134.47 L664.552 1134.47 L1049.75 1134.47  Z" fill="#009af9" fill-rule="evenodd" fill-opacity="1"/>
<polyline clip-path="url(#clip271)" style="stroke:#000000; stroke-linecap:round; stroke-linejoin:round; stroke-width:4; stroke-opacity:1; fill:none" points="1049.75,1134.47 279.351,1134.47 279.351,1141.6 1049.75,1141.6 1049.75,1134.47 664.552,1134.47 1049.75,1134.47 "/>
<path clip-path="url(#clip271)" d="M664.552 1127.33 L471.952 1127.33 L857.152 1127.33 L664.552 1127.33 L664.552 1134.47 L664.552 1127.33  Z" fill="#009af9" fill-rule="evenodd" fill-opacity="1"/>
<polyline clip-path="url(#clip271)" style="stroke:#000000; stroke-linecap:round; stroke-linejoin:round; stroke-width:4; stroke-opacity:1; fill:none" points="664.552,1127.33 471.952,1127.33 857.152,1127.33 664.552,1127.33 664.552,1134.47 664.552,1127.33 "/>
<path clip-path="url(#clip271)" d="M1627.55 1141.6 L1434.95 1141.6 L1820.15 1141.6 L1627.55 1141.6 L1627.55 1141.6 L1627.55 1141.6  Z" fill="#009af9" fill-rule="evenodd" fill-opacity="1"/>
<polyline clip-path="url(#clip271)" style="stroke:#000000; stroke-linecap:round; stroke-linejoin:round; stroke-width:4; stroke-opacity:1; fill:none" points="1627.55,1141.6 1434.95,1141.6 1820.15,1141.6 1627.55,1141.6 "/>
<path clip-path="url(#clip271)" d="M2012.75 1141.6 L2012.75 1134.47 L1242.35 1134.47 L1242.35 1141.6 L2012.75 1141.6 L2012.75 1134.47 L2012.75 1141.6  Z" fill="#009af9" fill-rule="evenodd" fill-opacity="1"/>
<polyline clip-path="url(#clip271)" style="stroke:#000000; stroke-linecap:round; stroke-linejoin:round; stroke-width:4; stroke-opacity:1; fill:none" points="2012.75,1141.6 2012.75,1134.47 1242.35,1134.47 1242.35,1141.6 2012.75,1141.6 2012.75,1134.47 2012.75,1141.6 "/>
<path clip-path="url(#clip271)" d="M2012.75 1120.2 L1242.35 1120.2 L1242.35 1134.47 L2012.75 1134.47 L2012.75 1120.2 L1627.55 1120.2 L2012.75 1120.2  Z" fill="#009af9" fill-rule="evenodd" fill-opacity="1"/>
<polyline clip-path="url(#clip271)" style="stroke:#000000; stroke-linecap:round; stroke-linejoin:round; stroke-width:4; stroke-opacity:1; fill:none" points="2012.75,1120.2 1242.35,1120.2 1242.35,1134.47 2012.75,1134.47 2012.75,1120.2 1627.55,1120.2 2012.75,1120.2 "/>
<path clip-path="url(#clip271)" d="M1627.55 1091.68 L1434.95 1091.68 L1820.15 1091.68 L1627.55 1091.68 L1627.55 1120.2 L1627.55 1091.68  Z" fill="#009af9" fill-rule="evenodd" fill-opacity="1"/>
<polyline clip-path="url(#clip271)" style="stroke:#000000; stroke-linecap:round; stroke-linejoin:round; stroke-width:4; stroke-opacity:1; fill:none" points="1627.55,1091.68 1434.95,1091.68 1820.15,1091.68 1627.55,1091.68 1627.55,1120.2 1627.55,1091.68 "/>
<circle clip-path="url(#clip271)" cx="664.552" cy="934.805" r="14.4" fill="#009af9" fill-rule="evenodd" fill-opacity="1" stroke="#000000" stroke-opacity="1" stroke-width="2.688"/>
<circle clip-path="url(#clip271)" cx="664.552" cy="1105.94" r="14.4" fill="#009af9" fill-rule="evenodd" fill-opacity="1" stroke="#000000" stroke-opacity="1" stroke-width="2.688"/>
<circle clip-path="url(#clip271)" cx="664.552" cy="1120.2" r="14.4" fill="#009af9" fill-rule="evenodd" fill-opacity="1" stroke="#000000" stroke-opacity="1" stroke-width="2.688"/>
<circle clip-path="url(#clip271)" cx="664.552" cy="1120.2" r="14.4" fill="#009af9" fill-rule="evenodd" fill-opacity="1" stroke="#000000" stroke-opacity="1" stroke-width="2.688"/>
<circle clip-path="url(#clip271)" cx="664.552" cy="1098.81" r="14.4" fill="#009af9" fill-rule="evenodd" fill-opacity="1" stroke="#000000" stroke-opacity="1" stroke-width="2.688"/>
<circle clip-path="url(#clip271)" cx="664.552" cy="1105.94" r="14.4" fill="#009af9" fill-rule="evenodd" fill-opacity="1" stroke="#000000" stroke-opacity="1" stroke-width="2.688"/>
<circle clip-path="url(#clip271)" cx="664.552" cy="920.544" r="14.4" fill="#009af9" fill-rule="evenodd" fill-opacity="1" stroke="#000000" stroke-opacity="1" stroke-width="2.688"/>
<circle clip-path="url(#clip271)" cx="664.552" cy="1077.42" r="14.4" fill="#009af9" fill-rule="evenodd" fill-opacity="1" stroke="#000000" stroke-opacity="1" stroke-width="2.688"/>
<circle clip-path="url(#clip271)" cx="664.552" cy="1034.64" r="14.4" fill="#009af9" fill-rule="evenodd" fill-opacity="1" stroke="#000000" stroke-opacity="1" stroke-width="2.688"/>
<circle clip-path="url(#clip271)" cx="664.552" cy="1105.94" r="14.4" fill="#009af9" fill-rule="evenodd" fill-opacity="1" stroke="#000000" stroke-opacity="1" stroke-width="2.688"/>
<circle clip-path="url(#clip271)" cx="664.552" cy="1077.42" r="14.4" fill="#009af9" fill-rule="evenodd" fill-opacity="1" stroke="#000000" stroke-opacity="1" stroke-width="2.688"/>
<circle clip-path="url(#clip271)" cx="664.552" cy="1120.2" r="14.4" fill="#009af9" fill-rule="evenodd" fill-opacity="1" stroke="#000000" stroke-opacity="1" stroke-width="2.688"/>
<circle clip-path="url(#clip271)" cx="664.552" cy="1120.2" r="14.4" fill="#009af9" fill-rule="evenodd" fill-opacity="1" stroke="#000000" stroke-opacity="1" stroke-width="2.688"/>
<circle clip-path="url(#clip271)" cx="1627.55" cy="927.675" r="14.4" fill="#009af9" fill-rule="evenodd" fill-opacity="1" stroke="#000000" stroke-opacity="1" stroke-width="2.688"/>
<circle clip-path="url(#clip271)" cx="1627.55" cy="1048.9" r="14.4" fill="#009af9" fill-rule="evenodd" fill-opacity="1" stroke="#000000" stroke-opacity="1" stroke-width="2.688"/>
<circle clip-path="url(#clip271)" cx="1627.55" cy="1063.16" r="14.4" fill="#009af9" fill-rule="evenodd" fill-opacity="1" stroke="#000000" stroke-opacity="1" stroke-width="2.688"/>
<circle clip-path="url(#clip271)" cx="1627.55" cy="1041.77" r="14.4" fill="#009af9" fill-rule="evenodd" fill-opacity="1" stroke="#000000" stroke-opacity="1" stroke-width="2.688"/>
<circle clip-path="url(#clip271)" cx="1627.55" cy="913.413" r="14.4" fill="#009af9" fill-rule="evenodd" fill-opacity="1" stroke="#000000" stroke-opacity="1" stroke-width="2.688"/>
<circle clip-path="url(#clip271)" cx="1627.55" cy="984.72" r="14.4" fill="#009af9" fill-rule="evenodd" fill-opacity="1" stroke="#000000" stroke-opacity="1" stroke-width="2.688"/>
<circle clip-path="url(#clip271)" cx="1627.55" cy="1034.64" r="14.4" fill="#009af9" fill-rule="evenodd" fill-opacity="1" stroke="#000000" stroke-opacity="1" stroke-width="2.688"/>
<circle clip-path="url(#clip271)" cx="1627.55" cy="913.413" r="14.4" fill="#009af9" fill-rule="evenodd" fill-opacity="1" stroke="#000000" stroke-opacity="1" stroke-width="2.688"/>
<circle clip-path="url(#clip271)" cx="1627.55" cy="79.1184" r="14.4" fill="#009af9" fill-rule="evenodd" fill-opacity="1" stroke="#000000" stroke-opacity="1" stroke-width="2.688"/>
<circle clip-path="url(#clip271)" cx="1627.55" cy="1084.55" r="14.4" fill="#009af9" fill-rule="evenodd" fill-opacity="1" stroke="#000000" stroke-opacity="1" stroke-width="2.688"/>
<circle clip-path="url(#clip271)" cx="1627.55" cy="678.099" r="14.4" fill="#009af9" fill-rule="evenodd" fill-opacity="1" stroke="#000000" stroke-opacity="1" stroke-width="2.688"/>
<circle clip-path="url(#clip271)" cx="1627.55" cy="1084.55" r="14.4" fill="#009af9" fill-rule="evenodd" fill-opacity="1" stroke="#000000" stroke-opacity="1" stroke-width="2.688"/>
<circle clip-path="url(#clip271)" cx="1627.55" cy="991.851" r="14.4" fill="#009af9" fill-rule="evenodd" fill-opacity="1" stroke="#000000" stroke-opacity="1" stroke-width="2.688"/>
<circle clip-path="url(#clip271)" cx="1627.55" cy="1027.5" r="14.4" fill="#009af9" fill-rule="evenodd" fill-opacity="1" stroke="#000000" stroke-opacity="1" stroke-width="2.688"/>
<circle clip-path="url(#clip271)" cx="1627.55" cy="1070.29" r="14.4" fill="#009af9" fill-rule="evenodd" fill-opacity="1" stroke="#000000" stroke-opacity="1" stroke-width="2.688"/>
<circle clip-path="url(#clip271)" cx="1627.55" cy="991.851" r="14.4" fill="#009af9" fill-rule="evenodd" fill-opacity="1" stroke="#000000" stroke-opacity="1" stroke-width="2.688"/>
<circle clip-path="url(#clip271)" cx="1627.55" cy="870.629" r="14.4" fill="#009af9" fill-rule="evenodd" fill-opacity="1" stroke="#000000" stroke-opacity="1" stroke-width="2.688"/>
<polyline clip-path="url(#clip271)" style="stroke:#009af9; stroke-linecap:round; stroke-linejoin:round; stroke-width:0; stroke-opacity:1; fill:none" points="664.552,1141.6 471.952,1141.6 857.152,1141.6 664.552,1141.6 "/>
<polyline clip-path="url(#clip271)" style="stroke:#009af9; stroke-linecap:round; stroke-linejoin:round; stroke-width:0; stroke-opacity:1; fill:none" points="1049.75,1141.6 1049.75,1141.6 279.351,1141.6 1049.75,1141.6 "/>
<polyline clip-path="url(#clip271)" style="stroke:#009af9; stroke-linecap:round; stroke-linejoin:round; stroke-width:0; stroke-opacity:1; fill:none" points="1049.75,1134.47 279.351,1134.47 279.351,1141.6 1049.75,1141.6 1049.75,1134.47 664.552,1134.47 "/>
<polyline clip-path="url(#clip271)" style="stroke:#009af9; stroke-linecap:round; stroke-linejoin:round; stroke-width:0; stroke-opacity:1; fill:none" points="664.552,1127.33 471.952,1127.33 857.152,1127.33 664.552,1127.33 664.552,1134.47 "/>
<polyline clip-path="url(#clip271)" style="stroke:#009af9; stroke-linecap:round; stroke-linejoin:round; stroke-width:0; stroke-opacity:1; fill:none" points="1627.55,1141.6 1434.95,1141.6 1820.15,1141.6 1627.55,1141.6 "/>
<polyline clip-path="url(#clip271)" style="stroke:#009af9; stroke-linecap:round; stroke-linejoin:round; stroke-width:0; stroke-opacity:1; fill:none" points="2012.75,1141.6 2012.75,1134.47 1242.35,1134.47 1242.35,1141.6 2012.75,1141.6 2012.75,1134.47 "/>
<polyline clip-path="url(#clip271)" style="stroke:#009af9; stroke-linecap:round; stroke-linejoin:round; stroke-width:0; stroke-opacity:1; fill:none" points="2012.75,1120.2 1242.35,1120.2 1242.35,1134.47 2012.75,1134.47 2012.75,1120.2 1627.55,1120.2 "/>
<polyline clip-path="url(#clip271)" style="stroke:#009af9; stroke-linecap:round; stroke-linejoin:round; stroke-width:0; stroke-opacity:1; fill:none" points="1627.55,1091.68 1434.95,1091.68 1820.15,1091.68 1627.55,1091.68 1627.55,1120.2 "/>
</svg>
