<?xml version="1.0" encoding="utf-8"?>
<svg xmlns="http://www.w3.org/2000/svg" xmlns:xlink="http://www.w3.org/1999/xlink" width="1200" height="500" viewBox="0 0 4800 2000">
<defs>
  <clipPath id="clip620">
    <rect x="0" y="0" width="4800" height="2000"/>
  </clipPath>
</defs>
<path clip-path="url(#clip620)" d="M0 2000 L4800 2000 L4800 -8.88178e-14 L0 -8.88178e-14  Z" fill="#ffffff" fill-rule="evenodd" fill-opacity="1"/>
<defs>
  <clipPath id="clip621">
    <rect x="331" y="116" width="4423" height="1552"/>
  </clipPath>
</defs>
<path clip-path="url(#clip620)" d="M331.217 1667.73 L4752.76 1667.73 L4752.76 116.992 L331.217 116.992  Z" fill="#ffffff" fill-rule="evenodd" fill-opacity="1"/>
<polyline clip-path="url(#clip620)" style="stroke:#000000; stroke-linecap:round; stroke-linejoin:round; stroke-width:4; stroke-opacity:1; fill:none" points="331.217,1667.73 4752.76,1667.73 "/>
<polyline clip-path="url(#clip620)" style="stroke:#000000; stroke-linecap:round; stroke-linejoin:round; stroke-width:4; stroke-opacity:1; fill:none" points="331.217,116.992 4752.76,116.992 "/>
<polyline clip-path="url(#clip620)" style="stroke:#000000; stroke-linecap:round; stroke-linejoin:round; stroke-width:4; stroke-opacity:1; fill:none" points="574.409,1667.73 574.409,1648.83 "/>
<polyline clip-path="url(#clip620)" style="stroke:#000000; stroke-linecap:round; stroke-linejoin:round; stroke-width:4; stroke-opacity:1; fill:none" points="1289.89,1667.73 1289.89,1648.83 "/>
<polyline clip-path="url(#clip620)" style="stroke:#000000; stroke-linecap:round; stroke-linejoin:round; stroke-width:4; stroke-opacity:1; fill:none" points="2005.37,1667.73 2005.37,1648.83 "/>
<polyline clip-path="url(#clip620)" style="stroke:#000000; stroke-linecap:round; stroke-linejoin:round; stroke-width:4; stroke-opacity:1; fill:none" points="2720.86,1667.73 2720.86,1648.83 "/>
<polyline clip-path="url(#clip620)" style="stroke:#000000; stroke-linecap:round; stroke-linejoin:round; stroke-width:4; stroke-opacity:1; fill:none" points="3436.34,1667.73 3436.34,1648.83 "/>
<polyline clip-path="url(#clip620)" style="stroke:#000000; stroke-linecap:round; stroke-linejoin:round; stroke-width:4; stroke-opacity:1; fill:none" points="4151.82,1667.73 4151.82,1648.83 "/>
<polyline clip-path="url(#clip620)" style="stroke:#000000; stroke-linecap:round; stroke-linejoin:round; stroke-width:4; stroke-opacity:1; fill:none" points="574.409,116.992 574.409,135.89 "/>
<polyline clip-path="url(#clip620)" style="stroke:#000000; stroke-linecap:round; stroke-linejoin:round; stroke-width:4; stroke-opacity:1; fill:none" points="1289.89,116.992 1289.89,135.89 "/>
<polyline clip-path="url(#clip620)" style="stroke:#000000; stroke-linecap:round; stroke-linejoin:round; stroke-width:4; stroke-opacity:1; fill:none" points="2005.37,116.992 2005.37,135.89 "/>
<polyline clip-path="url(#clip620)" style="stroke:#000000; stroke-linecap:round; stroke-linejoin:round; stroke-width:4; stroke-opacity:1; fill:none" points="2720.86,116.992 2720.86,135.89 "/>
<polyline clip-path="url(#clip620)" style="stroke:#000000; stroke-linecap:round; stroke-linejoin:round; stroke-width:4; stroke-opacity:1; fill:none" points="3436.34,116.992 3436.34,135.89 "/>
<polyline clip-path="url(#clip620)" style="stroke:#000000; stroke-linecap:round; stroke-linejoin:round; stroke-width:4; stroke-opacity:1; fill:none" points="4151.82,116.992 4151.82,135.89 "/>
<path clip-path="url(#clip620)" d="M530.833 1765.8 Q531.426 1766.39 531.426 1767.23 Q531.426 1768.07 530.833 1768.66 Q530.24 1769.26 529.4 1769.26 L466.06 1769.26 Q465.221 1769.26 464.628 1768.66 Q464.035 1768.07 464.035 1767.23 Q464.035 1766.39 464.628 1765.8 Q465.221 1765.21 466.06 1765.21 L529.4 1765.21 Q530.24 1765.21 530.833 1765.8 Z" fill="#000000" fill-rule="nonzero" fill-opacity="1" /><path clip-path="url(#clip620)" d="M539.874 1775.83 L539.874 1772.72 L570.951 1725.24 Q571.741 1724 572.977 1724.05 Q574.113 1724.05 574.36 1724.49 Q574.607 1724.94 574.607 1726.67 L574.607 1772.72 L584.735 1772.72 L584.735 1775.83 L574.607 1775.83 L574.607 1784.62 Q574.607 1787.54 575.793 1788.48 Q577.028 1789.41 582.265 1789.41 L584.39 1789.41 L584.39 1792.53 Q580.239 1792.23 570.655 1792.23 Q561.119 1792.23 556.969 1792.53 L556.969 1789.41 L559.093 1789.41 Q564.33 1789.41 565.566 1788.53 Q566.801 1787.59 566.801 1784.62 L566.801 1775.83 L539.874 1775.83 M542.74 1772.72 L567.394 1772.72 L567.394 1734.97 L542.74 1772.72 Z" fill="#000000" fill-rule="nonzero" fill-opacity="1" /><path clip-path="url(#clip620)" d="M591.603 1760.17 Q591.603 1745.29 595.358 1737.19 Q600.595 1725.14 612.947 1725.14 Q615.565 1725.14 618.283 1725.88 Q621.049 1726.57 624.508 1729.29 Q628.016 1732 630.14 1736.45 Q634.192 1745.05 634.192 1760.17 Q634.192 1774.94 630.437 1782.99 Q624.953 1794.75 612.848 1794.75 Q608.302 1794.75 603.658 1792.43 Q599.063 1790.11 596.148 1784.52 Q591.603 1776.17 591.603 1760.17 M600.002 1758.93 Q600.002 1774.2 601.089 1780.27 Q602.324 1786.85 605.684 1789.71 Q609.093 1792.53 612.848 1792.53 Q616.899 1792.53 620.259 1789.51 Q623.668 1786.45 624.705 1779.88 Q625.842 1773.41 625.792 1758.93 Q625.792 1744.85 624.804 1739.22 Q623.47 1732.65 619.913 1730.03 Q616.405 1727.36 612.848 1727.36 Q611.514 1727.36 610.081 1727.76 Q608.698 1728.15 606.672 1729.29 Q604.646 1730.42 603.065 1733.24 Q601.534 1736.06 600.793 1740.3 Q600.002 1745.79 600.002 1758.93 Z" fill="#000000" fill-rule="nonzero" fill-opacity="1" /><path clip-path="url(#clip620)" d="M642.195 1760.17 Q642.195 1745.29 645.95 1737.19 Q651.187 1725.14 663.539 1725.14 Q666.158 1725.14 668.875 1725.88 Q671.642 1726.57 675.1 1729.29 Q678.608 1732 680.733 1736.45 Q684.784 1745.05 684.784 1760.17 Q684.784 1774.94 681.029 1782.99 Q675.545 1794.75 663.44 1794.75 Q658.895 1794.75 654.251 1792.43 Q649.656 1790.11 646.741 1784.52 Q642.195 1776.17 642.195 1760.17 M650.595 1758.93 Q650.595 1774.2 651.682 1780.27 Q652.917 1786.85 656.276 1789.71 Q659.685 1792.53 663.44 1792.53 Q667.492 1792.53 670.851 1789.51 Q674.26 1786.45 675.298 1779.88 Q676.434 1773.41 676.385 1758.93 Q676.385 1744.85 675.397 1739.22 Q674.063 1732.65 670.505 1730.03 Q666.998 1727.36 663.44 1727.36 Q662.106 1727.36 660.674 1727.76 Q659.29 1728.15 657.264 1729.29 Q655.239 1730.42 653.658 1733.24 Q652.126 1736.06 651.385 1740.3 Q650.595 1745.79 650.595 1758.93 Z" fill="#000000" fill-rule="nonzero" fill-opacity="1" /><path clip-path="url(#clip620)" d="M1246.32 1765.8 Q1246.91 1766.39 1246.91 1767.23 Q1246.91 1768.07 1246.32 1768.66 Q1245.72 1769.26 1244.88 1769.26 L1181.54 1769.26 Q1180.7 1769.26 1180.11 1768.66 Q1179.52 1768.07 1179.52 1767.23 Q1179.52 1766.39 1180.11 1765.8 Q1180.7 1765.21 1181.54 1765.21 L1244.88 1765.21 Q1245.72 1765.21 1246.32 1765.8 Z" fill="#000000" fill-rule="nonzero" fill-opacity="1" /><path clip-path="url(#clip620)" d="M1256.79 1778.89 Q1256.79 1775.88 1258.52 1774.44 Q1260.25 1773.01 1262.47 1773.01 Q1264.79 1773.01 1266.42 1774.54 Q1268.1 1776.03 1268.1 1778.64 Q1268.1 1781.46 1266.13 1783.04 Q1264.2 1784.62 1261.43 1784.23 Q1263.85 1788.28 1268.3 1790.11 Q1272.8 1791.93 1276.95 1791.93 Q1281.3 1791.93 1284.8 1788.18 Q1288.36 1784.42 1288.36 1775.24 Q1288.36 1767.43 1285.3 1762.93 Q1282.28 1758.44 1276.31 1758.44 L1271.86 1758.44 Q1270.33 1758.44 1269.88 1758.29 Q1269.44 1758.14 1269.44 1757.3 Q1269.44 1756.31 1270.97 1756.11 Q1272.5 1756.11 1274.92 1755.82 Q1280.8 1755.62 1283.91 1750.53 Q1286.73 1745.79 1286.73 1739.02 Q1286.73 1732.84 1283.77 1730.28 Q1280.85 1727.66 1277.05 1727.66 Q1273.49 1727.66 1269.59 1729.14 Q1265.68 1730.62 1263.56 1733.93 Q1269.83 1733.93 1269.83 1739.02 Q1269.83 1741.24 1268.4 1742.73 Q1267.02 1744.16 1264.69 1744.16 Q1262.47 1744.16 1260.99 1742.77 Q1259.51 1741.34 1259.51 1738.92 Q1259.51 1733.14 1264.65 1729.14 Q1269.83 1725.14 1277.44 1725.14 Q1284.95 1725.14 1290.48 1729.09 Q1296.07 1733.04 1296.07 1739.12 Q1296.07 1745.1 1292.12 1749.99 Q1288.16 1754.88 1281.89 1756.91 Q1289.6 1758.44 1294.19 1763.67 Q1298.79 1768.86 1298.79 1775.24 Q1298.79 1783.14 1292.56 1788.97 Q1286.33 1794.75 1277.24 1794.75 Q1268.84 1794.75 1262.82 1790.21 Q1256.79 1785.66 1256.79 1778.89 Z" fill="#000000" fill-rule="nonzero" fill-opacity="1" /><path clip-path="url(#clip620)" d="M1307.09 1760.17 Q1307.09 1745.29 1310.84 1737.19 Q1316.08 1725.14 1328.43 1725.14 Q1331.05 1725.14 1333.77 1725.88 Q1336.53 1726.57 1339.99 1729.29 Q1343.5 1732 1345.62 1736.45 Q1349.67 1745.05 1349.67 1760.17 Q1349.67 1774.94 1345.92 1782.99 Q1340.44 1794.75 1328.33 1794.75 Q1323.78 1794.75 1319.14 1792.43 Q1314.55 1790.11 1311.63 1784.52 Q1307.09 1776.17 1307.09 1760.17 M1315.48 1758.93 Q1315.48 1774.2 1316.57 1780.27 Q1317.81 1786.85 1321.17 1789.71 Q1324.58 1792.53 1328.33 1792.53 Q1332.38 1792.53 1335.74 1789.51 Q1339.15 1786.45 1340.19 1779.88 Q1341.32 1773.41 1341.27 1758.93 Q1341.27 1744.85 1340.29 1739.22 Q1338.95 1732.65 1335.4 1730.03 Q1331.89 1727.36 1328.33 1727.36 Q1327 1727.36 1325.56 1727.76 Q1324.18 1728.15 1322.15 1729.29 Q1320.13 1730.42 1318.55 1733.24 Q1317.02 1736.06 1316.28 1740.3 Q1315.48 1745.79 1315.48 1758.93 Z" fill="#000000" fill-rule="nonzero" fill-opacity="1" /><path clip-path="url(#clip620)" d="M1357.68 1760.17 Q1357.68 1745.29 1361.43 1737.19 Q1366.67 1725.14 1379.02 1725.14 Q1381.64 1725.14 1384.36 1725.88 Q1387.12 1726.57 1390.58 1729.29 Q1394.09 1732 1396.22 1736.45 Q1400.27 1745.05 1400.27 1760.17 Q1400.27 1774.94 1396.51 1782.99 Q1391.03 1794.75 1378.92 1794.75 Q1374.38 1794.75 1369.73 1792.43 Q1365.14 1790.11 1362.22 1784.52 Q1357.68 1776.17 1357.68 1760.17 M1366.08 1758.93 Q1366.08 1774.2 1367.16 1780.27 Q1368.4 1786.85 1371.76 1789.71 Q1375.17 1792.53 1378.92 1792.53 Q1382.97 1792.53 1386.33 1789.51 Q1389.74 1786.45 1390.78 1779.88 Q1391.92 1773.41 1391.87 1758.93 Q1391.87 1744.85 1390.88 1739.22 Q1389.55 1732.65 1385.99 1730.03 Q1382.48 1727.36 1378.92 1727.36 Q1377.59 1727.36 1376.16 1727.76 Q1374.77 1728.15 1372.75 1729.29 Q1370.72 1730.42 1369.14 1733.24 Q1367.61 1736.06 1366.87 1740.3 Q1366.08 1745.79 1366.08 1758.93 Z" fill="#000000" fill-rule="nonzero" fill-opacity="1" /><path clip-path="url(#clip620)" d="M1961.8 1765.8 Q1962.39 1766.39 1962.39 1767.23 Q1962.39 1768.07 1961.8 1768.66 Q1961.2 1769.26 1960.36 1769.26 L1897.03 1769.26 Q1896.19 1769.26 1895.59 1768.66 Q1895 1768.07 1895 1767.23 Q1895 1766.39 1895.59 1765.8 Q1896.19 1765.21 1897.03 1765.21 L1960.36 1765.21 Q1961.2 1765.21 1961.8 1765.8 Z" fill="#000000" fill-rule="nonzero" fill-opacity="1" /><path clip-path="url(#clip620)" d="M1973.06 1792.53 Q1973.06 1790.7 1973.21 1790.16 Q1973.41 1789.61 1974.2 1788.77 L1993.62 1767.13 Q2004.24 1755.18 2004.24 1744.75 Q2004.24 1737.98 2000.68 1733.14 Q1997.17 1728.3 1990.7 1728.3 Q1986.25 1728.3 1982.5 1731.02 Q1978.74 1733.73 1977.02 1738.58 Q1977.31 1738.48 1978.35 1738.48 Q1980.87 1738.48 1982.25 1740.06 Q1983.68 1741.64 1983.68 1743.76 Q1983.68 1746.48 1981.91 1747.81 Q1980.18 1749.1 1978.45 1749.1 Q1977.76 1749.1 1976.82 1748.95 Q1975.93 1748.8 1974.5 1747.42 Q1973.06 1745.99 1973.06 1743.47 Q1973.06 1736.4 1978.4 1730.77 Q1983.78 1725.14 1991.99 1725.14 Q2001.27 1725.14 2007.35 1730.67 Q2013.48 1736.15 2013.48 1744.75 Q2013.48 1747.77 2012.54 1750.53 Q2011.65 1753.25 2010.41 1755.37 Q2009.23 1757.5 2005.97 1760.91 Q2002.71 1764.32 2000.09 1766.74 Q1997.47 1769.16 1991.59 1774.3 L1980.87 1784.72 L1999.1 1784.72 Q2007.99 1784.72 2008.68 1783.93 Q2009.67 1782.5 2010.91 1774.94 L2013.48 1774.94 L2010.61 1792.53 L1973.06 1792.53 Z" fill="#000000" fill-rule="nonzero" fill-opacity="1" /><path clip-path="url(#clip620)" d="M2022.57 1760.17 Q2022.57 1745.29 2026.32 1737.19 Q2031.56 1725.14 2043.91 1725.14 Q2046.53 1725.14 2049.25 1725.88 Q2052.01 1726.57 2055.47 1729.29 Q2058.98 1732 2061.11 1736.45 Q2065.16 1745.05 2065.16 1760.17 Q2065.16 1774.94 2061.4 1782.99 Q2055.92 1794.75 2043.81 1794.75 Q2039.27 1794.75 2034.62 1792.43 Q2030.03 1790.11 2027.11 1784.52 Q2022.57 1776.17 2022.57 1760.17 M2030.97 1758.93 Q2030.97 1774.2 2032.05 1780.27 Q2033.29 1786.85 2036.65 1789.71 Q2040.06 1792.53 2043.81 1792.53 Q2047.86 1792.53 2051.22 1789.51 Q2054.63 1786.45 2055.67 1779.88 Q2056.81 1773.41 2056.76 1758.93 Q2056.76 1744.85 2055.77 1739.22 Q2054.44 1732.65 2050.88 1730.03 Q2047.37 1727.36 2043.81 1727.36 Q2042.48 1727.36 2041.05 1727.76 Q2039.66 1728.15 2037.64 1729.29 Q2035.61 1730.42 2034.03 1733.24 Q2032.5 1736.06 2031.76 1740.3 Q2030.97 1745.79 2030.97 1758.93 Z" fill="#000000" fill-rule="nonzero" fill-opacity="1" /><path clip-path="url(#clip620)" d="M2073.16 1760.17 Q2073.16 1745.29 2076.92 1737.19 Q2082.15 1725.14 2094.5 1725.14 Q2097.12 1725.14 2099.84 1725.88 Q2102.61 1726.57 2106.07 1729.29 Q2109.57 1732 2111.7 1736.45 Q2115.75 1745.05 2115.75 1760.17 Q2115.75 1774.94 2111.99 1782.99 Q2106.51 1794.75 2094.41 1794.75 Q2089.86 1794.75 2085.22 1792.43 Q2080.62 1790.11 2077.71 1784.52 Q2073.16 1776.17 2073.16 1760.17 M2081.56 1758.93 Q2081.56 1774.2 2082.65 1780.27 Q2083.88 1786.85 2087.24 1789.71 Q2090.65 1792.53 2094.41 1792.53 Q2098.46 1792.53 2101.82 1789.51 Q2105.23 1786.45 2106.26 1779.88 Q2107.4 1773.41 2107.35 1758.93 Q2107.35 1744.85 2106.36 1739.22 Q2105.03 1732.65 2101.47 1730.03 Q2097.96 1727.36 2094.41 1727.36 Q2093.07 1727.36 2091.64 1727.76 Q2090.26 1728.15 2088.23 1729.29 Q2086.2 1730.42 2084.62 1733.24 Q2083.09 1736.06 2082.35 1740.3 Q2081.56 1745.79 2081.56 1758.93 Z" fill="#000000" fill-rule="nonzero" fill-opacity="1" /><path clip-path="url(#clip620)" d="M2677.28 1765.8 Q2677.87 1766.39 2677.87 1767.23 Q2677.87 1768.07 2677.28 1768.66 Q2676.69 1769.26 2675.85 1769.26 L2612.51 1769.26 Q2611.67 1769.26 2611.08 1768.66 Q2610.48 1768.07 2610.48 1767.23 Q2610.48 1766.39 2611.08 1765.8 Q2611.67 1765.21 2612.51 1765.21 L2675.85 1765.21 Q2676.69 1765.21 2677.28 1765.8 Z" fill="#000000" fill-rule="nonzero" fill-opacity="1" /><path clip-path="url(#clip620)" d="M2692.5 1734.77 L2692.5 1731.61 Q2704.65 1731.61 2710.93 1725.14 Q2712.66 1725.14 2712.95 1725.53 Q2713.25 1725.93 2713.25 1727.76 L2713.25 1784.52 Q2713.25 1787.54 2714.73 1788.48 Q2716.21 1789.41 2722.69 1789.41 L2725.9 1789.41 L2725.9 1792.53 Q2722.34 1792.23 2709.49 1792.23 Q2696.65 1792.23 2693.14 1792.53 L2693.14 1789.41 L2696.35 1789.41 Q2702.72 1789.41 2704.26 1788.53 Q2705.79 1787.59 2705.79 1784.52 L2705.79 1732.1 Q2700.5 1734.77 2692.5 1734.77 Z" fill="#000000" fill-rule="nonzero" fill-opacity="1" /><path clip-path="url(#clip620)" d="M2738.05 1760.17 Q2738.05 1745.29 2741.81 1737.19 Q2747.04 1725.14 2759.39 1725.14 Q2762.01 1725.14 2764.73 1725.88 Q2767.5 1726.57 2770.96 1729.29 Q2774.46 1732 2776.59 1736.45 Q2780.64 1745.05 2780.64 1760.17 Q2780.64 1774.94 2776.88 1782.99 Q2771.4 1794.75 2759.3 1794.75 Q2754.75 1794.75 2750.11 1792.43 Q2745.51 1790.11 2742.6 1784.52 Q2738.05 1776.17 2738.05 1760.17 M2746.45 1758.93 Q2746.45 1774.2 2747.54 1780.27 Q2748.77 1786.85 2752.13 1789.71 Q2755.54 1792.53 2759.3 1792.53 Q2763.35 1792.53 2766.71 1789.51 Q2770.12 1786.45 2771.15 1779.88 Q2772.29 1773.41 2772.24 1758.93 Q2772.24 1744.85 2771.25 1739.22 Q2769.92 1732.65 2766.36 1730.03 Q2762.85 1727.36 2759.3 1727.36 Q2757.96 1727.36 2756.53 1727.76 Q2755.15 1728.15 2753.12 1729.29 Q2751.09 1730.42 2749.51 1733.24 Q2747.98 1736.06 2747.24 1740.3 Q2746.45 1745.79 2746.45 1758.93 Z" fill="#000000" fill-rule="nonzero" fill-opacity="1" /><path clip-path="url(#clip620)" d="M2788.64 1760.17 Q2788.64 1745.29 2792.4 1737.19 Q2797.64 1725.14 2809.99 1725.14 Q2812.61 1725.14 2815.32 1725.88 Q2818.09 1726.57 2821.55 1729.29 Q2825.06 1732 2827.18 1736.45 Q2831.23 1745.05 2831.23 1760.17 Q2831.23 1774.94 2827.48 1782.99 Q2821.99 1794.75 2809.89 1794.75 Q2805.34 1794.75 2800.7 1792.43 Q2796.1 1790.11 2793.19 1784.52 Q2788.64 1776.17 2788.64 1760.17 M2797.04 1758.93 Q2797.04 1774.2 2798.13 1780.27 Q2799.36 1786.85 2802.72 1789.71 Q2806.13 1792.53 2809.89 1792.53 Q2813.94 1792.53 2817.3 1789.51 Q2820.71 1786.45 2821.75 1779.88 Q2822.88 1773.41 2822.83 1758.93 Q2822.83 1744.85 2821.84 1739.22 Q2820.51 1732.65 2816.95 1730.03 Q2813.45 1727.36 2809.89 1727.36 Q2808.55 1727.36 2807.12 1727.76 Q2805.74 1728.15 2803.71 1729.29 Q2801.69 1730.42 2800.11 1733.24 Q2798.57 1736.06 2797.83 1740.3 Q2797.04 1745.79 2797.04 1758.93 Z" fill="#000000" fill-rule="nonzero" fill-opacity="1" /><path clip-path="url(#clip620)" d="M3415.05 1760.17 Q3415.05 1745.29 3418.8 1737.19 Q3424.04 1725.14 3436.39 1725.14 Q3439.01 1725.14 3441.72 1725.88 Q3444.49 1726.57 3447.95 1729.29 Q3451.46 1732 3453.58 1736.45 Q3457.63 1745.05 3457.63 1760.17 Q3457.63 1774.94 3453.88 1782.99 Q3448.39 1794.75 3436.29 1794.75 Q3431.74 1794.75 3427.1 1792.43 Q3422.51 1790.11 3419.59 1784.52 Q3415.05 1776.17 3415.05 1760.17 M3423.44 1758.93 Q3423.44 1774.2 3424.53 1780.27 Q3425.77 1786.85 3429.13 1789.71 Q3432.54 1792.53 3436.29 1792.53 Q3440.34 1792.53 3443.7 1789.51 Q3447.11 1786.45 3448.15 1779.88 Q3449.28 1773.41 3449.23 1758.93 Q3449.23 1744.85 3448.25 1739.22 Q3446.91 1732.65 3443.36 1730.03 Q3439.85 1727.36 3436.29 1727.36 Q3434.96 1727.36 3433.52 1727.76 Q3432.14 1728.15 3430.11 1729.29 Q3428.09 1730.42 3426.51 1733.24 Q3424.98 1736.06 3424.23 1740.3 Q3423.44 1745.79 3423.44 1758.93 Z" fill="#000000" fill-rule="nonzero" fill-opacity="1" /><path clip-path="url(#clip620)" d="M4082.46 1734.77 L4082.46 1731.61 Q4094.61 1731.61 4100.88 1725.14 Q4102.61 1725.14 4102.91 1725.53 Q4103.21 1725.93 4103.21 1727.76 L4103.21 1784.52 Q4103.21 1787.54 4104.69 1788.48 Q4106.17 1789.41 4112.64 1789.41 L4115.85 1789.41 L4115.85 1792.53 Q4112.3 1792.23 4099.45 1792.23 Q4086.61 1792.23 4083.1 1792.53 L4083.1 1789.41 L4086.31 1789.41 Q4092.68 1789.41 4094.21 1788.53 Q4095.75 1787.59 4095.75 1784.52 L4095.75 1732.1 Q4090.46 1734.77 4082.46 1734.77 Z" fill="#000000" fill-rule="nonzero" fill-opacity="1" /><path clip-path="url(#clip620)" d="M4128.01 1760.17 Q4128.01 1745.29 4131.76 1737.19 Q4137 1725.14 4149.35 1725.14 Q4151.97 1725.14 4154.69 1725.88 Q4157.45 1726.57 4160.91 1729.29 Q4164.42 1732 4166.55 1736.45 Q4170.6 1745.05 4170.6 1760.17 Q4170.6 1774.94 4166.84 1782.99 Q4161.36 1794.75 4149.25 1794.75 Q4144.71 1794.75 4140.06 1792.43 Q4135.47 1790.11 4132.55 1784.52 Q4128.01 1776.17 4128.01 1760.17 M4136.41 1758.93 Q4136.41 1774.2 4137.49 1780.27 Q4138.73 1786.85 4142.09 1789.71 Q4145.5 1792.53 4149.25 1792.53 Q4153.3 1792.53 4156.66 1789.51 Q4160.07 1786.45 4161.11 1779.88 Q4162.25 1773.41 4162.2 1758.93 Q4162.2 1744.85 4161.21 1739.22 Q4159.88 1732.65 4156.32 1730.03 Q4152.81 1727.36 4149.25 1727.36 Q4147.92 1727.36 4146.49 1727.76 Q4145.1 1728.15 4143.08 1729.29 Q4141.05 1730.42 4139.47 1733.24 Q4137.94 1736.06 4137.2 1740.3 Q4136.41 1745.79 4136.41 1758.93 Z" fill="#000000" fill-rule="nonzero" fill-opacity="1" /><path clip-path="url(#clip620)" d="M4178.6 1760.17 Q4178.6 1745.29 4182.36 1737.19 Q4187.59 1725.14 4199.94 1725.14 Q4202.56 1725.14 4205.28 1725.88 Q4208.05 1726.57 4211.51 1729.29 Q4215.01 1732 4217.14 1736.45 Q4221.19 1745.05 4221.19 1760.17 Q4221.19 1774.94 4217.43 1782.99 Q4211.95 1794.75 4199.85 1794.75 Q4195.3 1794.75 4190.66 1792.43 Q4186.06 1790.11 4183.15 1784.52 Q4178.6 1776.17 4178.6 1760.17 M4187 1758.93 Q4187 1774.2 4188.09 1780.27 Q4189.32 1786.85 4192.68 1789.71 Q4196.09 1792.53 4199.85 1792.53 Q4203.9 1792.53 4207.26 1789.51 Q4210.67 1786.45 4211.7 1779.88 Q4212.84 1773.41 4212.79 1758.93 Q4212.79 1744.85 4211.8 1739.22 Q4210.47 1732.65 4206.91 1730.03 Q4203.4 1727.36 4199.85 1727.36 Q4198.51 1727.36 4197.08 1727.76 Q4195.7 1728.15 4193.67 1729.29 Q4191.64 1730.42 4190.06 1733.24 Q4188.53 1736.06 4187.79 1740.3 Q4187 1745.79 4187 1758.93 Z" fill="#000000" fill-rule="nonzero" fill-opacity="1" /><path clip-path="url(#clip620)" d="M1938.05 1936.72 L1938.05 1933.22 Q1942.17 1933.22 1944.78 1932.44 Q1947.39 1931.61 1948.34 1930.11 Q1949.34 1928.55 1949.56 1927.55 Q1949.78 1926.49 1949.78 1924.77 L1949.78 1867.85 Q1949.78 1864.57 1948.34 1863.57 Q1946.95 1862.52 1940.78 1862.52 L1938.05 1862.52 L1938.05 1858.96 L1957.29 1858.96 Q1959.34 1858.96 1959.9 1859.35 Q1960.45 1859.68 1961.29 1861.46 L1985.97 1925.21 L2010.87 1861.13 Q2011.42 1859.52 2011.92 1859.24 Q2012.48 1858.96 2014.65 1858.96 L2033.88 1858.96 L2033.88 1862.52 L2031.15 1862.52 Q2024.99 1862.52 2023.54 1863.57 Q2022.15 1864.57 2022.15 1867.85 L2022.15 1927.83 Q2022.15 1931.11 2023.54 1932.16 Q2024.99 1933.22 2031.15 1933.22 L2033.88 1933.22 L2033.88 1936.72 Q2029.65 1936.39 2017.59 1936.39 Q2005.42 1936.39 2001.2 1936.72 L2001.2 1933.22 L2003.98 1933.22 Q2010.14 1933.22 2011.53 1932.22 Q2012.92 1931.16 2012.92 1927.83 L2012.92 1862.52 L2012.81 1862.52 L1984.85 1934.55 Q1984.08 1936.72 1982.8 1936.72 Q1981.41 1936.72 1980.52 1934.22 L1953.06 1863.41 L1952.95 1863.41 L1952.95 1924.77 Q1952.95 1926.49 1953.17 1927.55 Q1953.39 1928.55 1954.34 1930.11 Q1955.34 1931.61 1957.95 1932.44 Q1960.57 1933.22 1964.68 1933.22 L1964.68 1936.72 Q1952.73 1936.39 1951.34 1936.39 Q1950 1936.39 1938.05 1936.72 Z" fill="#000000" fill-rule="nonzero" fill-opacity="1" /><path clip-path="url(#clip620)" d="M2048.72 1930.61 Q2041.22 1923.16 2041.22 1912.37 Q2041.22 1901.54 2048.55 1893.64 Q2055.94 1885.69 2066.51 1885.69 Q2076.84 1885.69 2084.24 1893.59 Q2091.68 1901.42 2091.68 1912.37 Q2091.68 1923.1 2084.18 1930.55 Q2076.73 1938 2066.39 1938 Q2056.28 1938 2048.72 1930.61 M2050.66 1911.43 Q2050.66 1922.49 2053.55 1927.49 Q2058 1935.11 2066.51 1935.11 Q2070.73 1935.11 2074.23 1932.83 Q2077.79 1930.55 2079.73 1926.71 Q2082.24 1921.71 2082.24 1911.43 Q2082.24 1900.48 2079.23 1895.64 Q2074.79 1888.25 2066.39 1888.25 Q2062.73 1888.25 2059.11 1890.2 Q2055.56 1892.09 2053.39 1895.87 Q2050.66 1900.87 2050.66 1911.43 Z" fill="#000000" fill-rule="nonzero" fill-opacity="1" /><path clip-path="url(#clip620)" d="M2102.02 1912.26 Q2102.02 1901.42 2109.58 1893.92 Q2117.14 1886.42 2127.37 1886.42 Q2136.04 1886.42 2141.71 1893.48 L2141.71 1868.85 Q2141.71 1864.63 2140.21 1863.57 Q2138.76 1862.52 2132.87 1862.52 L2132.87 1858.96 L2149.27 1857.74 L2149.27 1926.83 Q2149.27 1931.05 2150.71 1932.16 Q2152.21 1933.22 2158.11 1933.22 L2158.11 1936.72 L2141.38 1938 L2141.38 1930.44 Q2135.48 1937.94 2126.15 1938 Q2116.36 1938 2109.19 1930.49 Q2102.02 1922.99 2102.02 1912.26 M2111.47 1912.37 Q2111.47 1922.94 2114.75 1928.16 Q2119.31 1935.44 2126.7 1935.44 Q2135.15 1935.44 2140.15 1927.49 Q2141.43 1925.55 2141.38 1923.27 L2141.38 1899.92 Q2141.38 1897.65 2140.15 1895.76 Q2135.48 1888.92 2127.87 1888.92 Q2119.92 1888.92 2114.97 1896.2 Q2111.47 1901.65 2111.47 1912.37 Z" fill="#000000" fill-rule="nonzero" fill-opacity="1" /><path clip-path="url(#clip620)" d="M2164.44 1911.65 Q2164.44 1900.92 2171.33 1893.31 Q2178.23 1885.69 2188.12 1885.69 Q2198.12 1885.69 2203.29 1892.2 Q2208.52 1898.7 2208.52 1908.04 Q2208.52 1909.76 2208.07 1910.1 Q2207.63 1910.43 2205.68 1910.43 L2173.89 1910.43 Q2173.89 1922.05 2177.34 1927.49 Q2182.12 1935.11 2190.18 1935.11 Q2191.29 1935.11 2192.62 1934.89 Q2193.96 1934.66 2196.68 1933.72 Q2199.4 1932.72 2201.79 1930.11 Q2204.18 1927.49 2205.57 1923.38 Q2205.91 1921.77 2207.02 1921.82 Q2208.52 1921.82 2208.52 1923.16 Q2208.52 1924.16 2207.41 1926.44 Q2206.35 1928.66 2204.29 1931.33 Q2202.24 1934 2198.24 1936 Q2194.29 1938 2189.51 1938 Q2179.5 1938 2171.95 1930.44 Q2164.44 1922.82 2164.44 1911.65 M2174 1908.04 L2201.02 1908.04 Q2201.02 1905.65 2200.57 1902.98 Q2200.18 1900.31 2198.96 1896.64 Q2197.79 1892.92 2195.01 1890.59 Q2192.23 1888.25 2188.12 1888.25 Q2186.29 1888.25 2184.28 1889.03 Q2182.34 1889.81 2179.95 1891.7 Q2177.56 1893.59 2175.89 1897.87 Q2174.22 1902.15 2174 1908.04 Z" fill="#000000" fill-rule="nonzero" fill-opacity="1" /><path clip-path="url(#clip620)" d="M2215.58 1936.72 L2215.58 1933.22 Q2221.64 1933.22 2223.03 1932.5 Q2224.42 1931.72 2224.42 1928.05 L2224.42 1868.85 Q2224.42 1864.63 2222.91 1863.57 Q2221.47 1862.52 2215.58 1862.52 L2215.58 1858.96 L2231.92 1857.74 L2231.92 1928.05 Q2231.92 1931.72 2233.36 1932.5 Q2234.81 1933.22 2240.81 1933.22 L2240.81 1936.72 Q2239.42 1936.72 2236.53 1936.61 Q2233.64 1936.5 2231.53 1936.44 Q2229.42 1936.39 2228.2 1936.39 Q2226.86 1936.39 2215.58 1936.72 Z" fill="#000000" fill-rule="nonzero" fill-opacity="1" /><path clip-path="url(#clip620)" d="M2285.17 1936.72 L2285.17 1933.22 L2287.89 1933.22 Q2294.06 1933.22 2295.45 1932.22 Q2296.9 1931.16 2296.9 1927.83 L2296.9 1867.85 Q2296.9 1864.57 2295.45 1863.57 Q2294 1862.52 2287.89 1862.52 L2285.17 1862.52 L2285.17 1858.96 L2320.91 1858.96 Q2333.3 1858.96 2341.92 1865.07 Q2350.59 1871.13 2350.59 1879.47 Q2350.59 1885.86 2344.97 1890.86 Q2339.36 1895.87 2330.69 1898.03 Q2341.97 1901.92 2344.58 1911.21 L2346.03 1920.32 Q2346.47 1923.6 2346.75 1925.27 Q2347.09 1926.94 2347.59 1929.22 Q2348.09 1931.49 2348.59 1932.61 Q2349.14 1933.66 2349.92 1934.83 Q2350.7 1935.94 2351.7 1936.33 Q2352.76 1936.72 2354.15 1936.72 Q2356.76 1936.72 2358.98 1934.39 Q2361.2 1932.05 2361.65 1926.6 Q2361.87 1924.77 2363.04 1924.77 Q2364.48 1924.77 2364.48 1926.6 Q2364.48 1928.22 2364.04 1930.11 Q2363.59 1931.94 2362.48 1934.11 Q2361.43 1936.27 2359.09 1937.72 Q2356.76 1939.22 2353.7 1939.22 Q2344.81 1939.22 2339.36 1934.44 Q2337.08 1932.38 2336.03 1929.72 Q2335.02 1927.05 2334.86 1924.94 Q2334.69 1922.82 2334.69 1918.15 Q2334.69 1911.54 2333.97 1908.65 Q2333.3 1905.76 2330.36 1902.93 Q2326.35 1899.03 2319.74 1899.03 L2306.68 1899.03 L2306.68 1927.83 Q2306.68 1931.11 2308.07 1932.16 Q2309.51 1933.22 2315.68 1933.22 L2318.41 1933.22 L2318.41 1936.72 Q2314.29 1936.39 2301.79 1936.39 Q2289.28 1936.39 2285.17 1936.72 M2306.68 1896.53 L2319.29 1896.53 Q2325.35 1896.53 2329.41 1895.09 Q2333.52 1893.59 2335.47 1890.92 Q2337.41 1888.25 2338.14 1885.58 Q2338.86 1882.86 2338.86 1879.47 Q2338.86 1875.47 2337.97 1872.47 Q2337.08 1869.46 2335.14 1867.69 Q2333.19 1865.91 2331.25 1864.8 Q2329.3 1863.63 2326.3 1863.18 Q2323.3 1862.74 2321.24 1862.63 Q2319.18 1862.52 2315.9 1862.52 Q2310.35 1862.52 2309.18 1862.74 Q2307.9 1862.85 2307.4 1863.46 Q2306.9 1864.07 2306.79 1864.8 Q2306.68 1865.46 2306.68 1867.07 L2306.68 1896.53 Z" fill="#000000" fill-rule="nonzero" fill-opacity="1" /><path clip-path="url(#clip620)" d="M2368.1 1911.65 Q2368.1 1900.92 2374.99 1893.31 Q2381.88 1885.69 2391.77 1885.69 Q2401.78 1885.69 2406.95 1892.2 Q2412.17 1898.7 2412.17 1908.04 Q2412.17 1909.76 2411.73 1910.1 Q2411.28 1910.43 2409.34 1910.43 L2377.55 1910.43 Q2377.55 1922.05 2380.99 1927.49 Q2385.77 1935.11 2393.83 1935.11 Q2394.94 1935.11 2396.28 1934.89 Q2397.61 1934.66 2400.33 1933.72 Q2403.06 1932.72 2405.45 1930.11 Q2407.84 1927.49 2409.23 1923.38 Q2409.56 1921.77 2410.67 1921.82 Q2412.17 1921.82 2412.17 1923.16 Q2412.17 1924.16 2411.06 1926.44 Q2410.01 1928.66 2407.95 1931.33 Q2405.89 1934 2401.89 1936 Q2397.94 1938 2393.16 1938 Q2383.16 1938 2375.6 1930.44 Q2368.1 1922.82 2368.1 1911.65 M2377.66 1908.04 L2404.67 1908.04 Q2404.67 1905.65 2404.23 1902.98 Q2403.84 1900.31 2402.61 1896.64 Q2401.45 1892.92 2398.67 1890.59 Q2395.89 1888.25 2391.77 1888.25 Q2389.94 1888.25 2387.94 1889.03 Q2385.99 1889.81 2383.6 1891.7 Q2381.21 1893.59 2379.55 1897.87 Q2377.88 1902.15 2377.66 1908.04 Z" fill="#000000" fill-rule="nonzero" fill-opacity="1" /><path clip-path="url(#clip620)" d="M2419.23 1935.22 L2419.23 1920.21 Q2419.23 1918.93 2419.29 1918.49 Q2419.34 1918.04 2419.68 1917.71 Q2420.01 1917.38 2420.68 1917.38 Q2421.46 1917.38 2421.73 1917.71 Q2422.07 1918.04 2422.29 1919.32 Q2424.01 1927.16 2427.68 1931.33 Q2431.4 1935.44 2438.13 1935.44 Q2444.52 1935.44 2447.75 1932.61 Q2450.97 1929.77 2450.97 1925.1 Q2450.97 1916.77 2439.13 1914.65 Q2432.29 1913.26 2429.46 1912.37 Q2426.62 1911.43 2424.12 1909.37 Q2419.23 1905.37 2419.23 1899.7 Q2419.23 1894.03 2423.51 1889.86 Q2427.85 1885.69 2437.41 1885.69 Q2443.8 1885.69 2448.14 1888.92 Q2449.41 1887.92 2450.08 1887.08 Q2451.58 1885.69 2452.36 1885.69 Q2453.25 1885.69 2453.42 1886.31 Q2453.58 1886.86 2453.58 1888.47 L2453.58 1899.92 Q2453.58 1901.2 2453.53 1901.65 Q2453.47 1902.09 2453.14 1902.43 Q2452.8 1902.7 2452.08 1902.7 Q2450.8 1902.7 2450.75 1901.65 Q2449.86 1887.86 2437.41 1887.86 Q2430.68 1887.86 2427.68 1890.47 Q2424.68 1893.03 2424.68 1896.53 Q2424.68 1898.48 2425.57 1899.98 Q2426.51 1901.42 2427.68 1902.31 Q2428.9 1903.15 2431.13 1903.98 Q2433.35 1904.76 2434.68 1905.04 Q2436.07 1905.32 2438.69 1905.87 Q2447.8 1907.59 2451.64 1911.32 Q2456.42 1916.1 2456.42 1922.16 Q2456.42 1928.88 2451.86 1933.44 Q2447.3 1938 2438.13 1938 Q2430.74 1938 2425.57 1933.05 Q2424.9 1933.72 2424.4 1934.33 Q2423.9 1934.89 2423.68 1935.11 Q2423.51 1935.33 2423.46 1935.5 Q2423.4 1935.61 2423.29 1935.72 Q2421.01 1938 2420.46 1938 Q2419.57 1938 2419.4 1937.39 Q2419.23 1936.83 2419.23 1935.22 Z" fill="#000000" fill-rule="nonzero" fill-opacity="1" /><path clip-path="url(#clip620)" d="M2464.03 1936.72 L2464.03 1933.22 Q2470.09 1933.22 2471.48 1932.5 Q2472.87 1931.72 2472.87 1928.05 L2472.87 1897.42 Q2472.87 1893.2 2471.42 1892.2 Q2470.03 1891.2 2464.48 1891.2 L2464.48 1887.64 L2480.37 1886.42 L2480.37 1928.16 Q2480.37 1931.55 2481.6 1932.38 Q2482.82 1933.22 2488.38 1933.22 L2488.38 1936.72 Q2476.76 1936.39 2476.54 1936.39 Q2474.98 1936.39 2464.03 1936.72 M2468.81 1866.57 Q2468.81 1864.3 2470.54 1862.46 Q2472.31 1860.57 2474.81 1860.57 Q2477.32 1860.57 2479.09 1862.29 Q2480.87 1863.96 2480.87 1866.63 Q2480.87 1869.24 2479.09 1870.97 Q2477.32 1872.63 2474.81 1872.63 Q2472.2 1872.63 2470.48 1870.8 Q2468.81 1868.96 2468.81 1866.57 Z" fill="#000000" fill-rule="nonzero" fill-opacity="1" /><path clip-path="url(#clip620)" d="M2495.66 1912.26 Q2495.66 1901.42 2503.22 1893.92 Q2510.78 1886.42 2521 1886.42 Q2529.67 1886.42 2535.34 1893.48 L2535.34 1868.85 Q2535.34 1864.63 2533.84 1863.57 Q2532.4 1862.52 2526.51 1862.52 L2526.51 1858.96 L2542.9 1857.74 L2542.9 1926.83 Q2542.9 1931.05 2544.35 1932.16 Q2545.85 1933.22 2551.74 1933.22 L2551.74 1936.72 L2535.01 1938 L2535.01 1930.44 Q2529.12 1937.94 2519.78 1938 Q2510 1938 2502.83 1930.49 Q2495.66 1922.99 2495.66 1912.26 M2505.11 1912.37 Q2505.11 1922.94 2508.39 1928.16 Q2512.94 1935.44 2520.34 1935.44 Q2528.79 1935.44 2533.79 1927.49 Q2535.07 1925.55 2535.01 1923.27 L2535.01 1899.92 Q2535.01 1897.65 2533.79 1895.76 Q2529.12 1888.92 2521.5 1888.92 Q2513.56 1888.92 2508.61 1896.2 Q2505.11 1901.65 2505.11 1912.37 Z" fill="#000000" fill-rule="nonzero" fill-opacity="1" /><path clip-path="url(#clip620)" d="M2558.58 1891.2 L2558.58 1887.64 L2575.31 1886.42 L2575.31 1924.21 Q2575.31 1926.94 2575.53 1928.55 Q2575.75 1930.11 2576.64 1931.94 Q2577.59 1933.77 2579.7 1934.61 Q2581.87 1935.44 2585.31 1935.44 Q2591.48 1935.44 2595.26 1930.38 Q2599.1 1925.33 2599.1 1917.82 L2599.1 1897.53 Q2599.1 1893.31 2597.6 1892.25 Q2596.1 1891.2 2590.2 1891.2 L2590.2 1887.64 L2606.93 1886.42 L2606.93 1926.83 Q2606.93 1931.05 2608.38 1932.16 Q2609.88 1933.22 2615.83 1933.22 L2615.83 1936.72 L2599.43 1938 L2599.43 1927.72 Q2594.65 1937.94 2584.76 1938 Q2579.75 1938 2576.31 1936.72 Q2572.92 1935.44 2571.2 1933.88 Q2569.47 1932.27 2568.53 1929.22 Q2567.64 1926.16 2567.53 1924.27 Q2567.42 1922.38 2567.42 1918.71 L2567.42 1901.65 Q2567.42 1893.92 2566.3 1892.59 Q2565.19 1891.2 2558.58 1891.2 Z" fill="#000000" fill-rule="nonzero" fill-opacity="1" /><path clip-path="url(#clip620)" d="M2622.83 1925.88 Q2622.83 1916.21 2634.23 1911.1 Q2641.06 1907.82 2655.18 1906.98 L2655.18 1902.81 Q2655.18 1895.76 2651.46 1892.03 Q2647.79 1888.25 2643.12 1888.25 Q2634.78 1888.25 2630.78 1893.48 Q2634.17 1893.59 2635.39 1895.31 Q2636.62 1896.98 2636.62 1898.7 Q2636.62 1900.98 2635.17 1902.48 Q2633.78 1903.93 2631.39 1903.93 Q2629.11 1903.93 2627.61 1902.54 Q2626.11 1901.09 2626.11 1898.59 Q2626.11 1893.03 2631.11 1889.36 Q2636.17 1885.69 2643.34 1885.69 Q2652.68 1885.69 2658.9 1891.98 Q2660.85 1893.92 2661.79 1896.42 Q2662.8 1898.92 2662.91 1900.59 Q2663.02 1902.2 2663.02 1905.43 L2663.02 1928.16 Q2663.02 1928.83 2663.24 1929.94 Q2663.46 1931.05 2664.46 1932.5 Q2665.52 1933.88 2667.24 1933.88 Q2671.35 1933.88 2671.3 1926.6 L2671.3 1920.21 L2674.19 1920.21 L2674.19 1926.6 Q2674.19 1932.66 2670.97 1935.05 Q2667.8 1937.39 2664.85 1937.39 Q2661.07 1937.39 2658.68 1934.61 Q2656.29 1931.83 2655.96 1928.05 Q2654.24 1932.38 2650.29 1935.22 Q2646.4 1938 2641.06 1938 Q2636.95 1938 2633.06 1936.94 Q2629.22 1935.94 2626 1933.11 Q2622.83 1930.22 2622.83 1925.88 M2631.61 1925.77 Q2631.61 1929.99 2634.61 1932.72 Q2637.62 1935.44 2641.84 1935.44 Q2646.62 1935.44 2650.9 1931.77 Q2655.18 1928.05 2655.18 1920.77 L2655.18 1909.37 Q2642.56 1909.82 2637.06 1914.88 Q2631.61 1919.88 2631.61 1925.77 Z" fill="#000000" fill-rule="nonzero" fill-opacity="1" /><path clip-path="url(#clip620)" d="M2678.75 1936.72 L2678.75 1933.22 Q2684.81 1933.22 2686.2 1932.5 Q2687.58 1931.72 2687.58 1928.05 L2687.58 1868.85 Q2687.58 1864.63 2686.08 1863.57 Q2684.64 1862.52 2678.75 1862.52 L2678.75 1858.96 L2695.09 1857.74 L2695.09 1928.05 Q2695.09 1931.72 2696.53 1932.5 Q2697.98 1933.22 2703.98 1933.22 L2703.98 1936.72 Q2702.59 1936.72 2699.7 1936.61 Q2696.81 1936.5 2694.7 1936.44 Q2692.59 1936.39 2691.36 1936.39 Q2690.03 1936.39 2678.75 1936.72 Z" fill="#000000" fill-rule="nonzero" fill-opacity="1" /><path clip-path="url(#clip620)" d="M2710.26 1935.22 L2710.26 1920.21 Q2710.26 1918.93 2710.32 1918.49 Q2710.37 1918.04 2710.71 1917.71 Q2711.04 1917.38 2711.71 1917.38 Q2712.49 1917.38 2712.76 1917.71 Q2713.1 1918.04 2713.32 1919.32 Q2715.04 1927.16 2718.71 1931.33 Q2722.44 1935.44 2729.16 1935.44 Q2735.55 1935.44 2738.78 1932.61 Q2742 1929.77 2742 1925.1 Q2742 1916.77 2730.16 1914.65 Q2723.32 1913.26 2720.49 1912.37 Q2717.66 1911.43 2715.15 1909.37 Q2710.26 1905.37 2710.26 1899.7 Q2710.26 1894.03 2714.54 1889.86 Q2718.88 1885.69 2728.44 1885.69 Q2734.83 1885.69 2739.17 1888.92 Q2740.44 1887.92 2741.11 1887.08 Q2742.61 1885.69 2743.39 1885.69 Q2744.28 1885.69 2744.45 1886.31 Q2744.61 1886.86 2744.61 1888.47 L2744.61 1899.92 Q2744.61 1901.2 2744.56 1901.65 Q2744.5 1902.09 2744.17 1902.43 Q2743.83 1902.7 2743.11 1902.7 Q2741.83 1902.7 2741.78 1901.65 Q2740.89 1887.86 2728.44 1887.86 Q2721.71 1887.86 2718.71 1890.47 Q2715.71 1893.03 2715.71 1896.53 Q2715.71 1898.48 2716.6 1899.98 Q2717.54 1901.42 2718.71 1902.31 Q2719.93 1903.15 2722.16 1903.98 Q2724.38 1904.76 2725.71 1905.04 Q2727.1 1905.32 2729.72 1905.87 Q2738.83 1907.59 2742.67 1911.32 Q2747.45 1916.1 2747.45 1922.16 Q2747.45 1928.88 2742.89 1933.44 Q2738.33 1938 2729.16 1938 Q2721.77 1938 2716.6 1933.05 Q2715.93 1933.72 2715.43 1934.33 Q2714.93 1934.89 2714.71 1935.11 Q2714.54 1935.33 2714.49 1935.5 Q2714.43 1935.61 2714.32 1935.72 Q2712.04 1938 2711.49 1938 Q2710.6 1938 2710.43 1937.39 Q2710.26 1936.83 2710.26 1935.22 Z" fill="#000000" fill-rule="nonzero" fill-opacity="1" /><path clip-path="url(#clip620)" d="M2800.42 1908.26 Q2800.42 1889.03 2807.59 1873.52 Q2810.64 1867.02 2814.92 1861.57 Q2819.2 1856.12 2822.04 1853.73 Q2824.87 1851.34 2825.65 1851.34 Q2826.76 1851.34 2826.82 1852.46 Q2826.82 1853.01 2825.32 1854.4 Q2806.98 1873.08 2807.03 1908.26 Q2807.03 1943.56 2824.87 1961.51 Q2826.82 1963.45 2826.82 1964.07 Q2826.82 1965.18 2825.65 1965.18 Q2824.87 1965.18 2822.15 1962.9 Q2819.43 1960.62 2815.2 1955.4 Q2810.98 1950.17 2807.92 1943.78 Q2800.42 1928.27 2800.42 1908.26 Z" fill="#000000" fill-rule="nonzero" fill-opacity="1" /><path clip-path="url(#clip620)" d="M2836.94 1936.72 L2836.94 1933.22 Q2842.99 1933.22 2844.38 1932.5 Q2845.77 1931.72 2845.77 1928.05 L2845.77 1897.53 Q2845.77 1893.31 2844.27 1892.25 Q2842.83 1891.2 2836.94 1891.2 L2836.94 1887.64 L2852.94 1886.42 L2852.94 1898.37 Q2858.28 1886.42 2869.78 1886.42 Q2883.12 1886.42 2884.96 1897.53 Q2886.9 1893.2 2890.96 1889.81 Q2895.07 1886.42 2901.47 1886.42 Q2910.03 1886.42 2913.42 1890.64 Q2915.92 1893.48 2916.42 1896.64 Q2916.92 1899.81 2916.92 1908.04 L2916.92 1929.77 Q2917.03 1932.16 2918.86 1932.72 Q2920.7 1933.22 2925.81 1933.22 L2925.81 1936.72 Q2914.2 1936.39 2913.08 1936.39 Q2912.19 1936.39 2900.19 1936.72 L2900.19 1933.22 Q2906.25 1933.22 2907.64 1932.5 Q2909.08 1931.72 2909.08 1928.05 L2909.08 1901.54 Q2909.08 1895.76 2907.3 1892.36 Q2905.52 1888.92 2900.63 1888.92 Q2894.74 1888.92 2890.02 1893.87 Q2885.29 1898.81 2885.29 1907.15 L2885.29 1928.05 Q2885.29 1931.72 2886.68 1932.5 Q2888.13 1933.22 2894.19 1933.22 L2894.19 1936.72 Q2882.57 1936.39 2881.4 1936.39 Q2880.51 1936.39 2868.56 1936.72 L2868.56 1933.22 Q2874.62 1933.22 2876.01 1932.5 Q2877.45 1931.72 2877.45 1928.05 L2877.45 1901.54 Q2877.45 1895.76 2875.68 1892.36 Q2873.9 1888.92 2869.01 1888.92 Q2863.11 1888.92 2858.39 1893.87 Q2853.67 1898.81 2853.67 1907.15 L2853.67 1928.05 Q2853.67 1931.72 2855.06 1932.5 Q2856.5 1933.22 2862.5 1933.22 L2862.5 1936.72 Q2850.89 1936.39 2849.77 1936.39 Q2848.89 1936.39 2836.94 1936.72 Z" fill="#000000" fill-rule="nonzero" fill-opacity="1" /><path clip-path="url(#clip620)" d="M2931.2 1945.72 Q2931.2 1942.06 2933.98 1938.89 Q2936.82 1935.72 2941.71 1934.33 Q2936.71 1931.16 2936.71 1924.21 Q2936.71 1918.88 2940.21 1914.76 Q2934.87 1910.32 2934.87 1903.04 Q2934.87 1896.31 2940.21 1891.36 Q2945.54 1886.42 2953.33 1886.42 Q2960.16 1886.42 2965.39 1890.53 Q2970.83 1885.19 2977.45 1885.14 Q2980.39 1885.14 2981.78 1886.97 Q2983.23 1888.81 2983.23 1890.75 Q2983.23 1892.48 2982.12 1893.31 Q2981.06 1894.14 2979.95 1894.14 Q2978.56 1894.14 2977.56 1893.25 Q2976.61 1892.31 2976.61 1890.86 Q2976.61 1888.47 2978.45 1887.75 Q2978.11 1887.64 2977.34 1887.64 Q2971.78 1887.64 2967.05 1892.09 Q2971.72 1896.42 2971.72 1903.15 Q2971.72 1909.87 2966.39 1914.82 Q2961.05 1919.77 2953.33 1919.77 Q2946.93 1919.77 2942.04 1916.21 Q2940.1 1918.49 2940.1 1921.6 Q2940.1 1924.44 2941.82 1926.66 Q2943.54 1928.88 2946.15 1929.22 Q2946.93 1929.33 2954.66 1929.33 Q2959.22 1929.33 2961.72 1929.44 Q2964.22 1929.55 2967.78 1930.33 Q2971.39 1931.05 2974.22 1932.5 Q2981.62 1936.61 2981.67 1945.5 Q2981.67 1952 2974.17 1956.06 Q2966.72 1960.18 2956.38 1960.18 Q2945.93 1960.18 2938.54 1956.01 Q2931.2 1951.89 2931.2 1945.72 M2937.15 1945.72 Q2937.15 1950.39 2942.65 1953.95 Q2948.16 1957.56 2956.49 1957.56 Q2964.66 1957.56 2970.17 1954.01 Q2975.72 1950.5 2975.72 1945.72 Q2975.72 1942.33 2973.78 1940.17 Q2971.83 1938 2967.83 1937.11 Q2963.89 1936.27 2961.11 1936.11 Q2958.33 1935.94 2953.21 1935.94 L2946.49 1935.94 Q2942.6 1936.16 2939.87 1939 Q2937.15 1941.83 2937.15 1945.72 M2943.38 1903.15 Q2943.38 1917.15 2953.33 1917.15 Q2958.33 1917.15 2961.38 1912.6 Q2963.22 1909.54 2963.22 1903.04 Q2963.22 1889.03 2953.33 1889.03 Q2948.32 1889.03 2945.21 1893.59 Q2943.38 1896.64 2943.38 1903.15 Z" fill="#000000" fill-rule="nonzero" fill-opacity="1" /><path clip-path="url(#clip620)" d="M2991.45 1963.57 Q2991.45 1963.01 2991.9 1961.79 L3032.09 1854.4 Q3032.09 1854.29 3032.36 1853.68 Q3032.64 1853.07 3032.81 1852.68 Q3032.97 1852.23 3033.31 1851.9 Q3033.7 1851.57 3034.14 1851.57 Q3035.25 1851.57 3035.25 1852.96 Q3035.25 1853.07 3034.92 1854.4 L2994.62 1961.9 Q2993.96 1963.84 2993.51 1964.4 Q2993.12 1964.96 2992.46 1964.96 Q2991.45 1964.96 2991.45 1963.57 Z" fill="#000000" fill-rule="nonzero" fill-opacity="1" /><path clip-path="url(#clip620)" d="M3045.65 1936.72 L3045.65 1933.22 L3048.37 1933.22 Q3054.54 1933.22 3055.93 1932.22 Q3057.38 1931.16 3057.38 1927.83 L3057.38 1867.85 Q3057.38 1864.57 3055.93 1863.57 Q3054.49 1862.52 3048.37 1862.52 L3045.65 1862.52 L3045.65 1858.96 Q3049.65 1859.29 3062.93 1859.29 Q3077.94 1859.29 3082.05 1858.96 L3082.05 1862.52 L3078.27 1862.52 Q3073.05 1862.52 3070.66 1863.18 Q3068.27 1863.85 3067.88 1864.8 Q3067.49 1865.69 3067.49 1867.96 L3067.49 1928.66 Q3067.49 1931.61 3068.33 1932.44 Q3069.21 1933.22 3073.05 1933.22 L3082.39 1933.22 Q3088.17 1933.22 3092.34 1931.49 Q3096.51 1929.77 3098.73 1927.6 Q3100.95 1925.44 3102.4 1921.38 Q3103.9 1917.27 3104.34 1914.65 Q3104.84 1912.04 3105.29 1907.37 L3108.12 1907.37 L3104.95 1936.72 L3045.65 1936.72 Z" fill="#000000" fill-rule="nonzero" fill-opacity="1" /><path clip-path="url(#clip620)" d="M3119.52 1964.07 Q3119.52 1963.51 3120.96 1962.12 Q3139.3 1943.45 3139.3 1908.26 Q3139.3 1872.97 3121.68 1855.12 Q3119.52 1853.07 3119.52 1852.46 Q3119.52 1851.34 3120.63 1851.34 Q3121.41 1851.34 3124.13 1853.62 Q3126.91 1855.9 3131.08 1861.13 Q3135.3 1866.35 3138.42 1872.74 Q3145.92 1888.25 3145.92 1908.26 Q3145.92 1927.49 3138.75 1943 Q3135.69 1949.5 3131.41 1954.95 Q3127.13 1960.4 3124.3 1962.79 Q3121.46 1965.18 3120.63 1965.18 Q3119.52 1965.18 3119.52 1964.07 Z" fill="#000000" fill-rule="nonzero" fill-opacity="1" /><polyline clip-path="url(#clip620)" style="stroke:#000000; stroke-linecap:round; stroke-linejoin:round; stroke-width:4; stroke-opacity:1; fill:none" points="331.217,1667.73 331.217,116.992 "/>
<polyline clip-path="url(#clip620)" style="stroke:#000000; stroke-linecap:round; stroke-linejoin:round; stroke-width:4; stroke-opacity:1; fill:none" points="4752.76,1667.73 4752.76,116.992 "/>
<polyline clip-path="url(#clip620)" style="stroke:#000000; stroke-linecap:round; stroke-linejoin:round; stroke-width:4; stroke-opacity:1; fill:none" points="331.217,1667.73 350.115,1667.73 "/>
<polyline clip-path="url(#clip620)" style="stroke:#000000; stroke-linecap:round; stroke-linejoin:round; stroke-width:4; stroke-opacity:1; fill:none" points="331.217,1197.81 350.115,1197.81 "/>
<polyline clip-path="url(#clip620)" style="stroke:#000000; stroke-linecap:round; stroke-linejoin:round; stroke-width:4; stroke-opacity:1; fill:none" points="331.217,727.888 350.115,727.888 "/>
<polyline clip-path="url(#clip620)" style="stroke:#000000; stroke-linecap:round; stroke-linejoin:round; stroke-width:4; stroke-opacity:1; fill:none" points="331.217,257.968 350.115,257.968 "/>
<polyline clip-path="url(#clip620)" style="stroke:#000000; stroke-linecap:round; stroke-linejoin:round; stroke-width:4; stroke-opacity:1; fill:none" points="4752.76,1667.73 4733.86,1667.73 "/>
<polyline clip-path="url(#clip620)" style="stroke:#000000; stroke-linecap:round; stroke-linejoin:round; stroke-width:4; stroke-opacity:1; fill:none" points="4752.76,1197.81 4733.86,1197.81 "/>
<polyline clip-path="url(#clip620)" style="stroke:#000000; stroke-linecap:round; stroke-linejoin:round; stroke-width:4; stroke-opacity:1; fill:none" points="4752.76,727.888 4733.86,727.888 "/>
<polyline clip-path="url(#clip620)" style="stroke:#000000; stroke-linecap:round; stroke-linejoin:round; stroke-width:4; stroke-opacity:1; fill:none" points="4752.76,257.968 4733.86,257.968 "/>
<path clip-path="url(#clip620)" d="M216.628 1669.93 Q216.628 1655.05 220.383 1646.95 Q225.62 1634.9 237.972 1634.9 Q240.591 1634.9 243.308 1635.64 Q246.075 1636.33 249.533 1639.05 Q253.041 1641.76 255.166 1646.21 Q259.217 1654.81 259.217 1669.93 Q259.217 1684.7 255.462 1692.75 Q249.978 1704.51 237.873 1704.51 Q233.328 1704.51 228.684 1702.19 Q224.089 1699.87 221.174 1694.28 Q216.628 1685.93 216.628 1669.93 M225.027 1668.69 Q225.027 1683.96 226.114 1690.03 Q227.35 1696.61 230.709 1699.47 Q234.118 1702.29 237.873 1702.29 Q241.925 1702.29 245.284 1699.27 Q248.693 1696.21 249.731 1689.64 Q250.867 1683.17 250.818 1668.69 Q250.818 1654.61 249.83 1648.98 Q248.496 1642.41 244.938 1639.79 Q241.43 1637.12 237.873 1637.12 Q236.539 1637.12 235.106 1637.52 Q233.723 1637.91 231.697 1639.05 Q229.672 1640.18 228.091 1643 Q226.559 1645.82 225.818 1650.06 Q225.027 1655.55 225.027 1668.69 Z" fill="#000000" fill-rule="nonzero" fill-opacity="1" /><path clip-path="url(#clip620)" d="M171.075 1174.61 L171.075 1171.45 Q183.229 1171.45 189.504 1164.98 Q191.233 1164.98 191.53 1165.37 Q191.826 1165.77 191.826 1167.6 L191.826 1224.36 Q191.826 1227.38 193.308 1228.32 Q194.791 1229.26 201.263 1229.26 L204.474 1229.26 L204.474 1232.37 Q200.917 1232.07 188.071 1232.07 Q175.225 1232.07 171.718 1232.37 L171.718 1229.26 L174.929 1229.26 Q181.303 1229.26 182.834 1228.37 Q184.366 1227.43 184.366 1224.36 L184.366 1171.94 Q179.079 1174.61 171.075 1174.61 Z" fill="#000000" fill-rule="nonzero" fill-opacity="1" /><path clip-path="url(#clip620)" d="M216.628 1200.01 Q216.628 1185.13 220.383 1177.03 Q225.62 1164.98 237.972 1164.98 Q240.591 1164.98 243.308 1165.72 Q246.075 1166.41 249.533 1169.13 Q253.041 1171.84 255.166 1176.29 Q259.217 1184.89 259.217 1200.01 Q259.217 1214.78 255.462 1222.83 Q249.978 1234.59 237.873 1234.59 Q233.328 1234.59 228.684 1232.27 Q224.089 1229.95 221.174 1224.36 Q216.628 1216.01 216.628 1200.01 M225.027 1198.77 Q225.027 1214.04 226.114 1220.11 Q227.35 1226.69 230.709 1229.55 Q234.118 1232.37 237.873 1232.37 Q241.925 1232.37 245.284 1229.35 Q248.693 1226.29 249.731 1219.72 Q250.867 1213.25 250.818 1198.77 Q250.818 1184.69 249.83 1179.06 Q248.496 1172.49 244.938 1169.87 Q241.43 1167.2 237.873 1167.2 Q236.539 1167.2 235.106 1167.6 Q233.723 1167.99 231.697 1169.13 Q229.672 1170.26 228.091 1173.08 Q226.559 1175.9 225.818 1180.14 Q225.027 1185.63 225.027 1198.77 Z" fill="#000000" fill-rule="nonzero" fill-opacity="1" /><path clip-path="url(#clip620)" d="M167.123 762.448 Q167.123 760.62 167.271 760.076 Q167.469 759.533 168.259 758.693 L187.676 737.053 Q198.298 725.096 198.298 714.672 Q198.298 707.903 194.741 703.061 Q191.233 698.219 184.761 698.219 Q180.314 698.219 176.559 700.937 Q172.805 703.654 171.075 708.496 Q171.372 708.397 172.409 708.397 Q174.929 708.397 176.312 709.978 Q177.745 711.559 177.745 713.683 Q177.745 716.401 175.967 717.735 Q174.237 719.019 172.508 719.019 Q171.816 719.019 170.878 718.871 Q169.988 718.723 168.556 717.34 Q167.123 715.907 167.123 713.387 Q167.123 706.322 172.459 700.69 Q177.844 695.057 186.046 695.057 Q195.334 695.057 201.411 700.591 Q207.537 706.075 207.537 714.672 Q207.537 717.685 206.599 720.452 Q205.709 723.17 204.474 725.294 Q203.289 727.419 200.028 730.828 Q196.767 734.237 194.148 736.658 Q191.53 739.079 185.65 744.217 L174.929 754.642 L193.16 754.642 Q202.053 754.642 202.745 753.851 Q203.733 752.418 204.968 744.859 L207.537 744.859 L204.672 762.448 L167.123 762.448 Z" fill="#000000" fill-rule="nonzero" fill-opacity="1" /><path clip-path="url(#clip620)" d="M216.628 730.087 Q216.628 715.215 220.383 707.112 Q225.62 695.057 237.972 695.057 Q240.591 695.057 243.308 695.798 Q246.075 696.49 249.533 699.207 Q253.041 701.925 255.166 706.371 Q259.217 714.968 259.217 730.087 Q259.217 744.859 255.462 752.912 Q249.978 764.671 237.873 764.671 Q233.328 764.671 228.684 762.349 Q224.089 760.027 221.174 754.444 Q216.628 746.094 216.628 730.087 M225.027 728.851 Q225.027 744.118 226.114 750.195 Q227.35 756.766 230.709 759.632 Q234.118 762.448 237.873 762.448 Q241.925 762.448 245.284 759.434 Q248.693 756.371 249.731 749.8 Q250.867 743.328 250.818 728.851 Q250.818 714.77 249.83 709.138 Q248.496 702.567 244.938 699.948 Q241.43 697.28 237.873 697.28 Q236.539 697.28 235.106 697.676 Q233.723 698.071 231.697 699.207 Q229.672 700.344 228.091 703.16 Q226.559 705.976 225.818 710.225 Q225.027 715.709 225.027 728.851 Z" fill="#000000" fill-rule="nonzero" fill-opacity="1" /><path clip-path="url(#clip620)" d="M166.332 278.892 Q166.332 275.878 168.062 274.445 Q169.791 273.012 172.014 273.012 Q174.336 273.012 175.967 274.544 Q177.646 276.026 177.646 278.645 Q177.646 281.461 175.67 283.042 Q173.743 284.623 170.977 284.228 Q173.397 288.279 177.844 290.107 Q182.34 291.935 186.49 291.935 Q190.838 291.935 194.346 288.18 Q197.903 284.425 197.903 275.236 Q197.903 267.429 194.84 262.933 Q191.826 258.437 185.848 258.437 L181.401 258.437 Q179.87 258.437 179.425 258.289 Q178.98 258.141 178.98 257.301 Q178.98 256.313 180.512 256.115 Q182.044 256.115 184.465 255.819 Q190.344 255.621 193.457 250.532 Q196.273 245.789 196.273 239.021 Q196.273 232.845 193.308 230.276 Q190.393 227.657 186.589 227.657 Q183.032 227.657 179.129 229.139 Q175.225 230.621 173.101 233.932 Q179.376 233.932 179.376 239.021 Q179.376 241.244 177.943 242.726 Q176.559 244.159 174.237 244.159 Q172.014 244.159 170.532 242.776 Q169.05 241.343 169.05 238.922 Q169.05 233.141 174.188 229.139 Q179.376 225.137 186.984 225.137 Q194.494 225.137 200.028 229.09 Q205.611 233.042 205.611 239.119 Q205.611 245.098 201.658 249.989 Q197.706 254.88 191.431 256.906 Q199.138 258.437 203.733 263.675 Q208.328 268.862 208.328 275.236 Q208.328 283.141 202.103 288.971 Q195.878 294.751 186.787 294.751 Q178.388 294.751 172.36 290.206 Q166.332 285.661 166.332 278.892 Z" fill="#000000" fill-rule="nonzero" fill-opacity="1" /><path clip-path="url(#clip620)" d="M216.628 260.167 Q216.628 245.295 220.383 237.193 Q225.62 225.137 237.972 225.137 Q240.591 225.137 243.308 225.878 Q246.075 226.57 249.533 229.287 Q253.041 232.005 255.166 236.451 Q259.217 245.048 259.217 260.167 Q259.217 274.939 255.462 282.993 Q249.978 294.751 237.873 294.751 Q233.328 294.751 228.684 292.429 Q224.089 290.107 221.174 284.524 Q216.628 276.174 216.628 260.167 M225.027 258.932 Q225.027 274.198 226.114 280.275 Q227.35 286.846 230.709 289.712 Q234.118 292.528 237.873 292.528 Q241.925 292.528 245.284 289.514 Q248.693 286.451 249.731 279.88 Q250.867 273.408 250.818 258.932 Q250.818 244.851 249.83 239.218 Q248.496 232.647 244.938 230.029 Q241.43 227.361 237.873 227.361 Q236.539 227.361 235.106 227.756 Q233.723 228.151 231.697 229.287 Q229.672 230.424 228.091 233.24 Q226.559 236.056 225.818 240.305 Q225.027 245.789 225.027 258.932 Z" fill="#000000" fill-rule="nonzero" fill-opacity="1" /><path clip-path="url(#clip620)" d="M32.0965 1039.15 Q14.9215 1039.15 2.86007 1027.43 Q-9.25693 1015.7 -9.25693 999.579 Q-9.25693 994.576 -7.42271 990.13 Q-5.58848 985.683 -3.97659 983.626 Q-2.42028 981.57 0.525599 978.624 L-7.86737 972.899 Q-9.25693 972.01 -9.25693 971.12 Q-9.25693 970.175 -8.70111 970.009 Q-8.20086 969.842 -6.53339 969.842 L20.4797 969.842 Q22.314 969.842 22.7586 970.064 Q23.2033 970.287 23.2033 971.676 Q23.2033 972.788 22.8698 973.066 Q22.5363 973.288 21.2579 973.51 Q8.97415 975.233 1.63725 982.07 Q-5.69965 988.851 -5.69965 998.3 Q-5.69965 1001.02 -5.08824 1004.08 Q-4.47683 1007.08 -2.14236 1011.47 Q0.192103 1015.81 4.08288 1019.2 Q7.91808 1022.53 15.255 1024.98 Q22.5363 1027.43 32.2077 1027.43 Q41.7679 1027.43 49.1048 1024.98 Q56.4417 1022.53 60.2768 1019.2 Q64.0565 1015.81 66.3909 1011.47 Q68.7254 1007.08 69.3924 1004.03 Q70.0038 1000.91 70.0038 998.189 Q70.0038 988.407 63.056 980.903 Q56.1082 973.399 44.3802 972.677 Q43.8244 972.565 43.6021 972.565 Q43.3242 972.565 43.0463 972.454 Q42.7683 972.343 42.6572 972.065 Q42.546 971.787 42.546 971.343 Q42.546 969.842 44.4914 969.842 Q55.33 969.842 64.4455 978.179 Q73.5055 986.461 73.5055 999.579 Q73.5055 1015.75 61.4997 1027.48 Q49.4938 1039.15 32.0965 1039.15 Z" fill="#000000" fill-rule="nonzero" fill-opacity="1" /><path clip-path="url(#clip620)" d="M64.8902 952.723 Q57.4421 960.226 46.6591 960.226 Q35.8205 960.226 27.9278 952.889 Q19.9795 945.497 19.9795 934.936 Q19.9795 924.598 27.8722 917.205 Q35.7094 909.757 46.6591 909.757 Q57.3866 909.757 64.8346 917.261 Q72.2827 924.709 72.2827 935.047 Q72.2827 945.163 64.8902 952.723 M45.7142 950.777 Q56.7751 950.777 61.7776 947.887 Q69.3924 943.44 69.3924 934.936 Q69.3924 930.712 67.1135 927.21 Q64.8346 923.653 60.9994 921.707 Q55.997 919.206 45.7142 919.206 Q34.7645 919.206 29.9288 922.208 Q22.5363 926.654 22.5363 935.047 Q22.5363 938.716 24.4817 942.329 Q26.3715 945.886 30.1511 948.054 Q35.1535 950.777 45.7142 950.777 Z" fill="#000000" fill-rule="nonzero" fill-opacity="1" /><path clip-path="url(#clip620)" d="M25.4822 902.809 L21.9249 902.809 L20.7021 886.079 L58.4982 886.079 Q61.2218 886.079 62.8336 885.857 Q64.39 885.634 66.2242 884.745 Q68.0584 883.8 68.8921 881.688 Q69.7259 879.52 69.7259 876.074 Q69.7259 869.904 64.6679 866.125 Q59.6099 862.29 52.1062 862.29 L31.8186 862.29 Q27.5943 862.29 26.5382 863.79 Q25.4822 865.291 25.4822 871.183 L21.9249 871.183 L20.7021 854.453 L61.1106 854.453 Q65.3349 854.453 66.4465 853.007 Q67.5026 851.507 67.5026 845.559 L71.0043 845.559 L72.2827 861.956 L61.9999 861.956 Q72.2271 866.736 72.2827 876.63 Q72.2827 881.632 71.0043 885.079 Q69.7259 888.469 68.1696 890.192 Q66.5577 891.915 63.5006 892.86 Q60.4436 893.749 58.5538 893.861 Q56.664 893.972 52.9955 893.972 L35.9317 893.972 Q28.2057 893.972 26.8717 895.083 Q25.4822 896.195 25.4822 902.809 Z" fill="#000000" fill-rule="nonzero" fill-opacity="1" /><path clip-path="url(#clip620)" d="M71.0043 839.668 L67.5026 839.668 Q67.5026 833.609 66.78 832.22 Q66.0019 830.83 62.3334 830.83 L31.8186 830.83 Q27.5943 830.83 26.5382 832.331 Q25.4822 833.776 25.4822 839.668 L21.9249 839.668 L20.7021 823.66 L32.6523 823.66 Q20.7021 818.324 20.7021 806.818 Q20.7021 798.259 24.9263 794.868 Q27.7611 792.367 30.9293 791.867 Q34.0975 791.311 42.3237 791.311 L64.0565 791.311 Q66.4465 791.2 67.0023 789.365 Q67.5026 787.531 67.5026 782.418 L71.0043 782.418 Q70.6708 794.034 70.6708 795.202 Q70.6708 796.091 71.0043 808.041 L67.5026 808.041 Q67.5026 801.983 66.78 800.593 Q66.0019 799.148 62.3334 799.148 L35.8205 799.148 Q30.0399 799.148 26.6494 800.927 Q23.2033 802.705 23.2033 807.596 Q23.2033 813.488 28.1501 818.213 Q33.097 822.937 41.4344 822.937 L62.3334 822.937 Q66.0019 822.937 66.78 821.548 Q67.5026 820.103 67.5026 814.1 L71.0043 814.1 Q70.6708 825.716 70.6708 826.828 Q70.6708 827.717 71.0043 839.668 Z" fill="#000000" fill-rule="nonzero" fill-opacity="1" /><path clip-path="url(#clip620)" d="M25.4822 781.195 L22.981 781.195 Q22.7586 775.97 19.0902 772.524 Q15.3661 769.022 10.8084 767.855 Q6.2506 766.632 0.970259 766.521 L0.970259 763.686 L21.9249 763.686 L21.9249 747.401 L25.4822 747.401 L25.4822 763.686 L57.1086 763.686 Q69.3924 763.686 69.3924 756.016 Q69.3924 752.736 66.0574 750.569 Q62.6669 748.401 56.664 748.401 L50.3832 748.401 L50.3832 745.566 L56.8863 745.566 Q63.056 745.566 67.6693 748.401 Q72.2827 751.236 72.2827 756.85 Q72.2827 758.906 71.7269 760.963 Q71.2266 762.964 69.8926 765.632 Q68.5031 768.244 65.1681 769.911 Q61.7776 771.523 56.8863 771.523 L25.4822 771.523 L25.4822 781.195 Z" fill="#000000" fill-rule="nonzero" fill-opacity="1" /><path clip-path="url(#clip620)" d="M2001.57 103.68 L2001.57 99.7892 L2004.6 99.7892 Q2011.45 99.7892 2012.99 98.6776 Q2014.6 97.5042 2014.6 93.7987 L2014.6 27.1613 Q2014.6 23.5176 2012.99 22.4059 Q2011.39 21.2325 2004.6 21.2325 L2001.57 21.2325 L2001.57 17.28 L2041.28 17.28 Q2055.05 17.28 2064.62 24.0734 Q2074.26 30.8051 2074.26 40.0688 Q2074.26 47.1711 2068.02 52.7293 Q2061.78 58.2876 2052.15 60.6962 Q2064.69 65.0192 2067.59 75.3329 L2069.19 85.4613 Q2069.69 89.105 2070 90.9578 Q2070.37 92.8105 2070.92 95.3426 Q2071.48 97.8747 2072.04 99.1099 Q2072.65 100.283 2073.52 101.58 Q2074.38 102.815 2075.49 103.248 Q2076.67 103.68 2078.21 103.68 Q2081.11 103.68 2083.58 101.086 Q2086.06 98.4923 2086.55 92.44 Q2086.8 90.4019 2088.09 90.4019 Q2089.7 90.4019 2089.7 92.44 Q2089.7 94.231 2089.2 96.3308 Q2088.71 98.3688 2087.48 100.777 Q2086.3 103.186 2083.71 104.792 Q2081.11 106.459 2077.72 106.459 Q2067.84 106.459 2061.78 101.148 Q2059.25 98.8628 2058.08 95.8984 Q2056.97 92.934 2056.78 90.5872 Q2056.6 88.2404 2056.6 83.0527 Q2056.6 75.7034 2055.79 72.492 Q2055.05 69.2806 2051.78 66.1309 Q2047.33 61.8078 2039.98 61.8078 L2025.47 61.8078 L2025.47 93.7987 Q2025.47 97.4424 2027.01 98.6158 Q2028.62 99.7892 2035.47 99.7892 L2038.5 99.7892 L2038.5 103.68 Q2033.93 103.309 2020.04 103.309 Q2006.14 103.309 2001.57 103.68 M2025.47 59.0287 L2039.49 59.0287 Q2046.22 59.0287 2050.73 57.423 Q2055.3 55.7555 2057.46 52.7911 Q2059.62 49.8267 2060.43 46.8623 Q2061.23 43.8361 2061.23 40.0688 Q2061.23 35.6222 2060.24 32.2873 Q2059.25 28.9523 2057.09 26.9761 Q2054.93 24.9998 2052.77 23.7646 Q2050.61 22.4677 2047.27 21.9736 Q2043.94 21.4796 2041.65 21.3561 Q2039.37 21.2325 2035.72 21.2325 Q2029.55 21.2325 2028.25 21.4796 Q2026.83 21.6031 2026.27 22.2824 Q2025.72 22.9618 2025.59 23.7646 Q2025.47 24.5057 2025.47 26.2967 L2025.47 59.0287 Z" fill="#000000" fill-rule="nonzero" fill-opacity="1" /><path clip-path="url(#clip620)" d="M2093.71 75.827 Q2093.71 63.9076 2101.37 55.4467 Q2109.03 46.9858 2120.02 46.9858 Q2131.14 46.9858 2136.88 54.2115 Q2142.69 61.4373 2142.69 71.8127 Q2142.69 73.7272 2142.19 74.0977 Q2141.7 74.4683 2139.54 74.4683 L2104.21 74.4683 Q2104.21 87.3758 2108.04 93.4281 Q2113.35 101.889 2122.31 101.889 Q2123.54 101.889 2125.02 101.642 Q2126.51 101.395 2129.53 100.345 Q2132.56 99.2334 2135.21 96.3308 Q2137.87 93.4281 2139.41 88.858 Q2139.78 87.067 2141.02 87.1287 Q2142.69 87.1287 2142.69 88.611 Q2142.69 89.7226 2141.45 92.2547 Q2140.28 94.725 2137.99 97.6894 Q2135.71 100.654 2131.26 102.877 Q2126.88 105.1 2121.57 105.1 Q2110.45 105.1 2102.05 96.7013 Q2093.71 88.2404 2093.71 75.827 M2104.34 71.8127 L2134.35 71.8127 Q2134.35 69.1571 2133.86 66.1927 Q2133.42 63.2282 2132.07 59.1522 Q2130.77 55.0144 2127.68 52.4205 Q2124.59 49.8267 2120.02 49.8267 Q2117.98 49.8267 2115.76 50.6913 Q2113.6 51.5559 2110.94 53.6557 Q2108.29 55.7555 2106.44 60.5109 Q2104.58 65.2663 2104.34 71.8127 Z" fill="#000000" fill-rule="nonzero" fill-opacity="1" /><path clip-path="url(#clip620)" d="M2150.53 102.013 L2150.53 85.3378 Q2150.53 83.9173 2150.59 83.4232 Q2150.65 82.9292 2151.02 82.5586 Q2151.4 82.1881 2152.14 82.1881 Q2153 82.1881 2153.31 82.5586 Q2153.68 82.9292 2153.93 84.3496 Q2155.84 93.0576 2159.92 97.6894 Q2164.06 102.26 2171.53 102.26 Q2178.63 102.26 2182.21 99.1099 Q2185.79 95.9602 2185.79 90.7725 Q2185.79 81.5087 2172.64 79.1619 Q2165.04 77.618 2161.89 76.6298 Q2158.74 75.5799 2155.97 73.2949 Q2150.53 68.8483 2150.53 62.5489 Q2150.53 56.2495 2155.29 51.6177 Q2160.1 46.9858 2170.73 46.9858 Q2177.83 46.9858 2182.65 50.5678 Q2184.07 49.4561 2184.81 48.5297 Q2186.47 46.9858 2187.34 46.9858 Q2188.33 46.9858 2188.51 47.6651 Q2188.7 48.2827 2188.7 50.0737 L2188.7 62.7959 Q2188.7 64.2164 2188.64 64.7105 Q2188.57 65.2045 2188.2 65.5751 Q2187.83 65.8839 2187.03 65.8839 Q2185.61 65.8839 2185.55 64.7105 Q2184.56 49.3944 2170.73 49.3944 Q2163.25 49.3944 2159.92 52.297 Q2156.58 55.1379 2156.58 59.0287 Q2156.58 61.1902 2157.57 62.8577 Q2158.62 64.4634 2159.92 65.4516 Q2161.28 66.3779 2163.75 67.3043 Q2166.22 68.1689 2167.7 68.4777 Q2169.24 68.7865 2172.15 69.4041 Q2182.27 71.3186 2186.54 75.4564 Q2191.85 80.7676 2191.85 87.4993 Q2191.85 94.9721 2186.78 100.036 Q2181.72 105.1 2171.53 105.1 Q2163.31 105.1 2157.57 99.6039 Q2156.83 100.345 2156.27 101.024 Q2155.72 101.642 2155.47 101.889 Q2155.29 102.136 2155.22 102.321 Q2155.16 102.445 2155.04 102.568 Q2152.51 105.1 2151.89 105.1 Q2150.9 105.1 2150.72 104.421 Q2150.53 103.804 2150.53 102.013 Z" fill="#000000" fill-rule="nonzero" fill-opacity="1" /><path clip-path="url(#clip620)" d="M2200.31 103.68 L2200.31 99.7892 Q2207.04 99.7892 2208.58 98.9864 Q2210.13 98.1217 2210.13 94.0457 L2210.13 60.0168 Q2210.13 55.3232 2208.52 54.2115 Q2206.98 53.0999 2200.8 53.0999 L2200.8 49.1473 L2218.47 47.7886 L2218.47 94.1692 Q2218.47 97.9365 2219.82 98.8628 Q2221.18 99.7892 2227.36 99.7892 L2227.36 103.68 Q2214.45 103.309 2214.2 103.309 Q2212.47 103.309 2200.31 103.68 M2205.62 25.7409 Q2205.62 23.2088 2207.53 21.1708 Q2209.51 19.071 2212.29 19.071 Q2215.07 19.071 2217.04 20.9855 Q2219.02 22.8383 2219.02 25.8027 Q2219.02 28.7053 2217.04 30.6198 Q2215.07 32.4726 2212.29 32.4726 Q2209.39 32.4726 2207.47 30.4345 Q2205.62 28.3965 2205.62 25.7409 Z" fill="#000000" fill-rule="nonzero" fill-opacity="1" /><path clip-path="url(#clip620)" d="M2235.45 76.5063 Q2235.45 64.4634 2243.85 56.126 Q2252.25 47.7886 2263.61 47.7886 Q2273.24 47.7886 2279.54 55.632 L2279.54 28.273 Q2279.54 23.5794 2277.88 22.4059 Q2276.27 21.2325 2269.72 21.2325 L2269.72 17.28 L2287.94 15.9213 L2287.94 92.687 Q2287.94 97.3806 2289.55 98.6158 Q2291.22 99.7892 2297.76 99.7892 L2297.76 103.68 L2279.17 105.1 L2279.17 96.7013 Q2272.63 105.039 2262.25 105.1 Q2251.38 105.1 2243.42 96.7631 Q2235.45 88.4257 2235.45 76.5063 M2245.95 76.6298 Q2245.95 88.3639 2249.59 94.1692 Q2254.66 102.26 2262.87 102.26 Q2272.26 102.26 2277.81 93.4281 Q2279.24 91.2666 2279.17 88.7345 L2279.17 62.7959 Q2279.17 60.2638 2277.81 58.1641 Q2272.63 50.5678 2264.17 50.5678 Q2255.33 50.5678 2249.84 58.6581 Q2245.95 64.7105 2245.95 76.6298 Z" fill="#000000" fill-rule="nonzero" fill-opacity="1" /><path clip-path="url(#clip620)" d="M2305.36 53.0999 L2305.36 49.1473 L2323.95 47.7886 L2323.95 89.7844 Q2323.95 92.8105 2324.2 94.6015 Q2324.44 96.3308 2325.43 98.3688 Q2326.48 100.407 2328.83 101.333 Q2331.24 102.26 2335.06 102.26 Q2341.92 102.26 2346.12 96.6395 Q2350.38 91.0195 2350.38 82.6821 L2350.38 60.1403 Q2350.38 55.4467 2348.71 54.2733 Q2347.05 53.0999 2340.5 53.0999 L2340.5 49.1473 L2359.09 47.7886 L2359.09 92.687 Q2359.09 97.3806 2360.69 98.6158 Q2362.36 99.7892 2368.97 99.7892 L2368.97 103.68 L2350.75 105.1 L2350.75 93.6751 Q2345.44 105.039 2334.45 105.1 Q2328.89 105.1 2325.06 103.68 Q2321.29 102.26 2319.38 100.53 Q2317.46 98.7393 2316.41 95.3426 Q2315.43 91.9459 2315.3 89.8461 Q2315.18 87.7463 2315.18 83.6703 L2315.18 64.7105 Q2315.18 56.126 2313.94 54.6438 Q2312.71 53.0999 2305.36 53.0999 Z" fill="#000000" fill-rule="nonzero" fill-opacity="1" /><path clip-path="url(#clip620)" d="M2376.75 91.6371 Q2376.75 80.8912 2389.41 75.2094 Q2397.01 71.5656 2412.7 70.6393 L2412.7 66.0074 Q2412.7 58.1641 2408.56 54.0262 Q2404.48 49.8267 2399.29 49.8267 Q2390.03 49.8267 2385.58 55.632 Q2389.35 55.7555 2390.71 57.67 Q2392.07 59.5227 2392.07 61.4373 Q2392.07 63.9693 2390.46 65.6368 Q2388.92 67.2425 2386.26 67.2425 Q2383.73 67.2425 2382.06 65.6986 Q2380.4 64.0929 2380.4 61.3137 Q2380.4 55.1379 2385.95 51.0618 Q2391.57 46.9858 2399.54 46.9858 Q2409.92 46.9858 2416.83 53.9645 Q2418.99 56.126 2420.04 58.9052 Q2421.16 61.6843 2421.28 63.537 Q2421.4 65.328 2421.4 68.91 L2421.4 94.1692 Q2421.4 94.9103 2421.65 96.1455 Q2421.9 97.3806 2423.01 98.9864 Q2424.18 100.53 2426.1 100.53 Q2430.67 100.53 2430.61 92.44 L2430.61 85.3378 L2433.82 85.3378 L2433.82 92.44 Q2433.82 99.1716 2430.23 101.827 Q2426.71 104.421 2423.44 104.421 Q2419.24 104.421 2416.59 101.333 Q2413.93 98.2453 2413.56 94.0457 Q2411.65 98.8628 2407.26 102.013 Q2402.94 105.1 2397.01 105.1 Q2392.44 105.1 2388.12 103.927 Q2383.85 102.815 2380.27 99.6657 Q2376.75 96.4543 2376.75 91.6371 M2386.51 91.5136 Q2386.51 96.2072 2389.84 99.2334 Q2393.18 102.26 2397.87 102.26 Q2403.18 102.26 2407.94 98.1835 Q2412.7 94.0457 2412.7 85.9553 L2412.7 73.2949 Q2398.68 73.7889 2392.56 79.4089 Q2386.51 84.9672 2386.51 91.5136 Z" fill="#000000" fill-rule="nonzero" fill-opacity="1" /><path clip-path="url(#clip620)" d="M2438.88 103.68 L2438.88 99.7892 Q2445.61 99.7892 2447.16 98.9864 Q2448.7 98.1217 2448.7 94.0457 L2448.7 28.273 Q2448.7 23.5794 2447.03 22.4059 Q2445.43 21.2325 2438.88 21.2325 L2438.88 17.28 L2457.04 15.9213 L2457.04 94.0457 Q2457.04 98.1217 2458.64 98.9864 Q2460.25 99.7892 2466.92 99.7892 L2466.92 103.68 Q2465.38 103.68 2462.16 103.556 Q2458.95 103.433 2456.61 103.371 Q2454.26 103.309 2452.9 103.309 Q2451.42 103.309 2438.88 103.68 Z" fill="#000000" fill-rule="nonzero" fill-opacity="1" /><path clip-path="url(#clip620)" d="M2515.96 103.68 L2515.96 99.7892 L2518.98 99.7892 Q2525.84 99.7892 2527.38 98.6776 Q2528.99 97.5042 2528.99 93.7987 L2528.99 27.1613 Q2528.99 23.5176 2527.38 22.4059 Q2525.77 21.2325 2518.98 21.2325 L2515.96 21.2325 L2515.96 17.28 Q2520.4 17.6506 2534.67 17.6506 Q2548.81 17.6506 2553.26 17.28 L2553.26 21.2325 L2550.23 21.2325 Q2543.38 21.2325 2541.77 22.4059 Q2540.23 23.5176 2540.23 27.1613 L2540.23 56.7436 L2578.02 56.7436 L2578.02 27.1613 Q2578.02 23.5176 2576.42 22.4059 Q2574.87 21.2325 2568.02 21.2325 L2564.99 21.2325 L2564.99 17.28 Q2569.44 17.6506 2583.7 17.6506 Q2597.85 17.6506 2602.29 17.28 L2602.29 21.2325 L2599.27 21.2325 Q2592.41 21.2325 2590.81 22.4059 Q2589.26 23.5176 2589.26 27.1613 L2589.26 93.7987 Q2589.26 97.4424 2590.87 98.6158 Q2592.47 99.7892 2599.27 99.7892 L2602.29 99.7892 L2602.29 103.68 Q2597.85 103.309 2583.58 103.309 Q2569.44 103.309 2564.99 103.68 L2564.99 99.7892 L2568.02 99.7892 Q2574.87 99.7892 2576.42 98.6776 Q2578.02 97.5042 2578.02 93.7987 L2578.02 60.6962 L2540.23 60.6962 L2540.23 93.7987 Q2540.23 97.4424 2541.77 98.6158 Q2543.38 99.7892 2550.23 99.7892 L2553.26 99.7892 L2553.26 103.68 Q2548.81 103.309 2534.54 103.309 Q2520.4 103.309 2515.96 103.68 Z" fill="#000000" fill-rule="nonzero" fill-opacity="1" /><path clip-path="url(#clip620)" d="M2610.82 103.68 L2610.82 99.7892 Q2617.55 99.7892 2619.09 98.9864 Q2620.64 98.1217 2620.64 94.0457 L2620.64 60.0168 Q2620.64 55.3232 2619.03 54.2115 Q2617.49 53.0999 2611.31 53.0999 L2611.31 49.1473 L2628.97 47.7886 L2628.97 94.1692 Q2628.97 97.9365 2630.33 98.8628 Q2631.69 99.7892 2637.87 99.7892 L2637.87 103.68 Q2624.96 103.309 2624.71 103.309 Q2622.98 103.309 2610.82 103.68 M2616.13 25.7409 Q2616.13 23.2088 2618.04 21.1708 Q2620.02 19.071 2622.8 19.071 Q2625.58 19.071 2627.55 20.9855 Q2629.53 22.8383 2629.53 25.8027 Q2629.53 28.7053 2627.55 30.6198 Q2625.58 32.4726 2622.8 32.4726 Q2619.89 32.4726 2617.98 30.4345 Q2616.13 28.3965 2616.13 25.7409 Z" fill="#000000" fill-rule="nonzero" fill-opacity="1" /><path clip-path="url(#clip620)" d="M2645.83 102.013 L2645.83 85.3378 Q2645.83 83.9173 2645.89 83.4232 Q2645.96 82.9292 2646.33 82.5586 Q2646.7 82.1881 2647.44 82.1881 Q2648.3 82.1881 2648.61 82.5586 Q2648.98 82.9292 2649.23 84.3496 Q2651.14 93.0576 2655.22 97.6894 Q2659.36 102.26 2666.83 102.26 Q2673.93 102.26 2677.52 99.1099 Q2681.1 95.9602 2681.1 90.7725 Q2681.1 81.5087 2667.94 79.1619 Q2660.35 77.618 2657.2 76.6298 Q2654.05 75.5799 2651.27 73.2949 Q2645.83 68.8483 2645.83 62.5489 Q2645.83 56.2495 2650.59 51.6177 Q2655.41 46.9858 2666.03 46.9858 Q2673.13 46.9858 2677.95 50.5678 Q2679.37 49.4561 2680.11 48.5297 Q2681.78 46.9858 2682.64 46.9858 Q2683.63 46.9858 2683.81 47.6651 Q2684 48.2827 2684 50.0737 L2684 62.7959 Q2684 64.2164 2683.94 64.7105 Q2683.88 65.2045 2683.51 65.5751 Q2683.14 65.8839 2682.33 65.8839 Q2680.91 65.8839 2680.85 64.7105 Q2679.86 49.3944 2666.03 49.3944 Q2658.56 49.3944 2655.22 52.297 Q2651.89 55.1379 2651.89 59.0287 Q2651.89 61.1902 2652.87 62.8577 Q2653.92 64.4634 2655.22 65.4516 Q2656.58 66.3779 2659.05 67.3043 Q2661.52 68.1689 2663 68.4777 Q2664.55 68.7865 2667.45 69.4041 Q2677.58 71.3186 2681.84 75.4564 Q2687.15 80.7676 2687.15 87.4993 Q2687.15 94.9721 2682.09 100.036 Q2677.02 105.1 2666.83 105.1 Q2658.62 105.1 2652.87 99.6039 Q2652.13 100.345 2651.58 101.024 Q2651.02 101.642 2650.77 101.889 Q2650.59 102.136 2650.53 102.321 Q2650.47 102.445 2650.34 102.568 Q2647.81 105.1 2647.19 105.1 Q2646.2 105.1 2646.02 104.421 Q2645.83 103.804 2645.83 102.013 Z" fill="#000000" fill-rule="nonzero" fill-opacity="1" /><path clip-path="url(#clip620)" d="M2693.82 53.0999 L2693.82 50.3207 Q2699.62 50.0737 2703.45 45.9977 Q2707.34 41.8598 2708.64 36.7957 Q2710 31.7315 2710.12 25.8644 L2713.27 25.8644 L2713.27 49.1473 L2731.37 49.1473 L2731.37 53.0999 L2713.27 53.0999 L2713.27 88.2404 Q2713.27 101.889 2721.8 101.889 Q2725.44 101.889 2727.85 98.1835 Q2730.26 94.4162 2730.26 87.7463 L2730.26 80.7676 L2733.41 80.7676 L2733.41 87.9934 Q2733.41 94.8485 2730.26 99.9745 Q2727.11 105.1 2720.87 105.1 Q2718.58 105.1 2716.3 104.483 Q2714.08 103.927 2711.11 102.445 Q2708.21 100.901 2706.36 97.1954 Q2704.57 93.4281 2704.57 87.9934 L2704.57 53.0999 L2693.82 53.0999 Z" fill="#000000" fill-rule="nonzero" fill-opacity="1" /><path clip-path="url(#clip620)" d="M2752.3 96.8866 Q2743.97 88.611 2743.97 76.6298 Q2743.97 64.5869 2752.12 55.8172 Q2760.33 46.9858 2772.07 46.9858 Q2783.55 46.9858 2791.77 55.7555 Q2800.04 64.4634 2800.04 76.6298 Q2800.04 88.5492 2791.71 96.8248 Q2783.43 105.1 2771.94 105.1 Q2760.7 105.1 2752.3 96.8866 M2754.47 75.5799 Q2754.47 87.8698 2757.68 93.4281 Q2762.62 101.889 2772.07 101.889 Q2776.76 101.889 2780.65 99.3569 Q2784.6 96.8248 2786.77 92.5635 Q2789.54 87.0052 2789.54 75.5799 Q2789.54 63.4135 2786.21 58.0405 Q2781.27 49.8267 2771.94 49.8267 Q2767.87 49.8267 2763.85 51.9882 Q2759.9 54.088 2757.49 58.2876 Q2754.47 63.8458 2754.47 75.5799 Z" fill="#000000" fill-rule="nonzero" fill-opacity="1" /><path clip-path="url(#clip620)" d="M2807.21 113.685 Q2807.21 109.609 2810.3 106.089 Q2813.45 102.568 2818.88 101.024 Q2813.32 97.5042 2813.32 89.7844 Q2813.32 83.8556 2817.21 79.2854 Q2811.28 74.3448 2811.28 66.2544 Q2811.28 58.7816 2817.21 53.2851 Q2823.14 47.7886 2831.79 47.7886 Q2839.38 47.7886 2845.19 52.3588 Q2851.24 46.43 2858.59 46.3682 Q2861.86 46.3682 2863.41 48.4062 Q2865.01 50.4443 2865.01 52.6058 Q2865.01 54.5203 2863.78 55.4467 Q2862.61 56.3731 2861.37 56.3731 Q2859.83 56.3731 2858.71 55.3849 Q2857.66 54.335 2857.66 52.7293 Q2857.66 50.0737 2859.7 49.2709 Q2859.33 49.1473 2858.47 49.1473 Q2852.29 49.1473 2847.04 54.088 Q2852.23 58.9052 2852.23 66.3779 Q2852.23 73.8507 2846.3 79.3472 Q2840.37 84.8437 2831.79 84.8437 Q2824.69 84.8437 2819.25 80.8912 Q2817.09 83.4232 2817.09 86.8817 Q2817.09 90.0314 2819 92.5017 Q2820.92 94.9721 2823.82 95.3426 Q2824.69 95.4661 2833.27 95.4661 Q2838.33 95.4661 2841.11 95.5896 Q2843.89 95.7132 2847.84 96.5778 Q2851.86 97.3806 2855.01 98.9864 Q2863.22 103.556 2863.28 113.438 Q2863.28 120.664 2854.95 125.172 Q2846.67 129.742 2835.18 129.742 Q2823.57 129.742 2815.36 125.11 Q2807.21 120.54 2807.21 113.685 M2813.82 113.685 Q2813.82 118.873 2819.93 122.825 Q2826.04 126.839 2835.31 126.839 Q2844.39 126.839 2850.5 122.887 Q2856.68 118.996 2856.68 113.685 Q2856.68 109.918 2854.51 107.509 Q2852.35 105.1 2847.91 104.112 Q2843.52 103.186 2840.43 103.001 Q2837.35 102.815 2831.66 102.815 L2824.19 102.815 Q2819.87 103.062 2816.84 106.212 Q2813.82 109.362 2813.82 113.685 M2820.73 66.3779 Q2820.73 81.941 2831.79 81.941 Q2837.35 81.941 2840.74 76.8769 Q2842.78 73.4801 2842.78 66.2544 Q2842.78 50.6913 2831.79 50.6913 Q2826.23 50.6913 2822.77 55.7555 Q2820.73 59.1522 2820.73 66.3779 Z" fill="#000000" fill-rule="nonzero" fill-opacity="1" /><path clip-path="url(#clip620)" d="M2870.45 103.68 L2870.45 99.7892 Q2877.18 99.7892 2878.72 98.9864 Q2880.33 98.1217 2880.33 94.0457 L2880.33 60.1403 Q2880.33 55.4467 2878.66 54.2733 Q2877.06 53.0999 2870.45 53.0999 L2870.45 49.1473 L2888.05 47.7886 L2888.05 61.6843 Q2889.84 56.2495 2893.61 52.05 Q2897.44 47.7886 2903.61 47.7886 Q2907.69 47.7886 2910.28 50.0737 Q2912.94 52.3588 2912.94 55.5084 Q2912.94 58.2876 2911.21 59.708 Q2909.54 61.0667 2907.5 61.0667 Q2905.22 61.0667 2903.61 59.6463 Q2902.07 58.1641 2902.07 55.632 Q2902.07 54.088 2902.75 52.9146 Q2903.49 51.6794 2904.05 51.2471 Q2904.6 50.8148 2904.97 50.6913 Q2904.72 50.5678 2903.61 50.5678 Q2896.63 50.5678 2892.62 57.5465 Q2888.67 64.4634 2888.67 74.3448 L2888.67 93.7987 Q2888.67 97.4424 2890.15 98.6158 Q2891.69 99.7892 2898.3 99.7892 L2900.96 99.7892 L2900.96 103.68 Q2895.89 103.309 2884.9 103.309 Q2883.36 103.309 2880.95 103.371 Q2878.54 103.433 2875.39 103.556 Q2872.24 103.68 2870.45 103.68 Z" fill="#000000" fill-rule="nonzero" fill-opacity="1" /><path clip-path="url(#clip620)" d="M2921.65 91.6371 Q2921.65 80.8912 2934.31 75.2094 Q2941.9 71.5656 2957.59 70.6393 L2957.59 66.0074 Q2957.59 58.1641 2953.45 54.0262 Q2949.38 49.8267 2944.19 49.8267 Q2934.92 49.8267 2930.48 55.632 Q2934.24 55.7555 2935.6 57.67 Q2936.96 59.5227 2936.96 61.4373 Q2936.96 63.9693 2935.36 65.6368 Q2933.81 67.2425 2931.16 67.2425 Q2928.62 67.2425 2926.96 65.6986 Q2925.29 64.0929 2925.29 61.3137 Q2925.29 55.1379 2930.85 51.0618 Q2936.47 46.9858 2944.44 46.9858 Q2954.81 46.9858 2961.73 53.9645 Q2963.89 56.126 2964.94 58.9052 Q2966.05 61.6843 2966.17 63.537 Q2966.3 65.328 2966.3 68.91 L2966.3 94.1692 Q2966.3 94.9103 2966.54 96.1455 Q2966.79 97.3806 2967.9 98.9864 Q2969.08 100.53 2970.99 100.53 Q2975.56 100.53 2975.5 92.44 L2975.5 85.3378 L2978.71 85.3378 L2978.71 92.44 Q2978.71 99.1716 2975.13 101.827 Q2971.61 104.421 2968.34 104.421 Q2964.14 104.421 2961.48 101.333 Q2958.82 98.2453 2958.45 94.0457 Q2956.54 98.8628 2952.15 102.013 Q2947.83 105.1 2941.9 105.1 Q2937.33 105.1 2933.01 103.927 Q2928.75 102.815 2925.17 99.6657 Q2921.65 96.4543 2921.65 91.6371 M2931.4 91.5136 Q2931.4 96.2072 2934.74 99.2334 Q2938.07 102.26 2942.77 102.26 Q2948.08 102.26 2952.83 98.1835 Q2957.59 94.0457 2957.59 85.9553 L2957.59 73.2949 Q2943.57 73.7889 2937.46 79.4089 Q2931.4 84.9672 2931.4 91.5136 Z" fill="#000000" fill-rule="nonzero" fill-opacity="1" /><path clip-path="url(#clip620)" d="M2983.65 103.68 L2983.65 99.7892 Q2990.38 99.7892 2991.93 98.9864 Q2993.47 98.1217 2993.47 94.0457 L2993.47 60.1403 Q2993.47 55.4467 2991.8 54.2733 Q2990.2 53.0999 2983.65 53.0999 L2983.65 49.1473 L3001.44 47.7886 L3001.44 61.0667 Q3007.37 47.7886 3020.15 47.7886 Q3034.97 47.7886 3037.01 60.1403 Q3039.17 55.3232 3043.68 51.5559 Q3048.25 47.7886 3055.35 47.7886 Q3064.86 47.7886 3068.63 52.4823 Q3071.41 55.632 3071.97 59.1522 Q3072.52 62.6724 3072.52 71.8127 L3072.52 95.9602 Q3072.65 98.6158 3074.68 99.2334 Q3076.72 99.7892 3082.4 99.7892 L3082.4 103.68 Q3069.5 103.309 3068.26 103.309 Q3067.27 103.309 3053.93 103.68 L3053.93 99.7892 Q3060.66 99.7892 3062.21 98.9864 Q3063.81 98.1217 3063.81 94.0457 L3063.81 64.5869 Q3063.81 58.1641 3061.84 54.3968 Q3059.86 50.5678 3054.43 50.5678 Q3047.88 50.5678 3042.63 56.0643 Q3037.38 61.5608 3037.38 70.8245 L3037.38 94.0457 Q3037.38 98.1217 3038.93 98.9864 Q3040.53 99.7892 3047.26 99.7892 L3047.26 103.68 Q3034.36 103.309 3033.06 103.309 Q3032.07 103.309 3018.79 103.68 L3018.79 99.7892 Q3025.52 99.7892 3027.07 98.9864 Q3028.67 98.1217 3028.67 94.0457 L3028.67 64.5869 Q3028.67 58.1641 3026.7 54.3968 Q3024.72 50.5678 3019.29 50.5678 Q3012.74 50.5678 3007.49 56.0643 Q3002.24 61.5608 3002.24 70.8245 L3002.24 94.0457 Q3002.24 98.1217 3003.78 98.9864 Q3005.39 99.7892 3012.06 99.7892 L3012.06 103.68 Q2999.15 103.309 2997.92 103.309 Q2996.93 103.309 2983.65 103.68 Z" fill="#000000" fill-rule="nonzero" fill-opacity="1" /><path clip-path="url(#clip621)" d="M574.409 1620.74 L574.409 1667.73 L932.151 1667.73 L932.151 1620.74 L574.409 1620.74 L574.409 1620.74  Z" fill="#009af9" fill-rule="evenodd" fill-opacity="1"/>
<polyline clip-path="url(#clip621)" style="stroke:#000000; stroke-linecap:round; stroke-linejoin:round; stroke-width:12; stroke-opacity:1; fill:none" points="574.409,1620.74 574.409,1667.73 932.151,1667.73 932.151,1620.74 574.409,1620.74 "/>
<path clip-path="url(#clip621)" d="M932.151 1667.73 L932.151 1667.73 L1289.89 1667.73 L1289.89 1667.73 L932.151 1667.73 L932.151 1667.73  Z" fill="#009af9" fill-rule="evenodd" fill-opacity="1"/>
<polyline clip-path="url(#clip621)" style="stroke:#000000; stroke-linecap:round; stroke-linejoin:round; stroke-width:12; stroke-opacity:1; fill:none" points="932.151,1667.73 932.151,1667.73 1289.89,1667.73 932.151,1667.73 "/>
<path clip-path="url(#clip621)" d="M1289.89 1667.73 L1289.89 1667.73 L1647.63 1667.73 L1647.63 1667.73 L1289.89 1667.73 L1289.89 1667.73  Z" fill="#009af9" fill-rule="evenodd" fill-opacity="1"/>
<polyline clip-path="url(#clip621)" style="stroke:#000000; stroke-linecap:round; stroke-linejoin:round; stroke-width:12; stroke-opacity:1; fill:none" points="1289.89,1667.73 1289.89,1667.73 1647.63,1667.73 1289.89,1667.73 "/>
<path clip-path="url(#clip621)" d="M1647.63 1620.74 L1647.63 1667.73 L2005.37 1667.73 L2005.37 1620.74 L1647.63 1620.74 L1647.63 1620.74  Z" fill="#009af9" fill-rule="evenodd" fill-opacity="1"/>
<polyline clip-path="url(#clip621)" style="stroke:#000000; stroke-linecap:round; stroke-linejoin:round; stroke-width:12; stroke-opacity:1; fill:none" points="1647.63,1620.74 1647.63,1667.73 2005.37,1667.73 2005.37,1620.74 1647.63,1620.74 "/>
<path clip-path="url(#clip621)" d="M2005.37 1573.74 L2005.37 1667.73 L2363.12 1667.73 L2363.12 1573.74 L2005.37 1573.74 L2005.37 1573.74  Z" fill="#009af9" fill-rule="evenodd" fill-opacity="1"/>
<polyline clip-path="url(#clip621)" style="stroke:#000000; stroke-linecap:round; stroke-linejoin:round; stroke-width:12; stroke-opacity:1; fill:none" points="2005.37,1573.74 2005.37,1667.73 2363.12,1667.73 2363.12,1573.74 2005.37,1573.74 "/>
<path clip-path="url(#clip621)" d="M2363.12 1620.74 L2363.12 1667.73 L2720.86 1667.73 L2720.86 1620.74 L2363.12 1620.74 L2363.12 1620.74  Z" fill="#009af9" fill-rule="evenodd" fill-opacity="1"/>
<polyline clip-path="url(#clip621)" style="stroke:#000000; stroke-linecap:round; stroke-linejoin:round; stroke-width:12; stroke-opacity:1; fill:none" points="2363.12,1620.74 2363.12,1667.73 2720.86,1667.73 2720.86,1620.74 2363.12,1620.74 "/>
<path clip-path="url(#clip621)" d="M2720.86 1526.75 L2720.86 1667.73 L3078.6 1667.73 L3078.6 1526.75 L2720.86 1526.75 L2720.86 1526.75  Z" fill="#009af9" fill-rule="evenodd" fill-opacity="1"/>
<polyline clip-path="url(#clip621)" style="stroke:#000000; stroke-linecap:round; stroke-linejoin:round; stroke-width:12; stroke-opacity:1; fill:none" points="2720.86,1526.75 2720.86,1667.73 3078.6,1667.73 3078.6,1526.75 2720.86,1526.75 "/>
<path clip-path="url(#clip621)" d="M3078.6 915.856 L3078.6 1667.73 L3436.34 1667.73 L3436.34 915.856 L3078.6 915.856 L3078.6 915.856  Z" fill="#009af9" fill-rule="evenodd" fill-opacity="1"/>
<polyline clip-path="url(#clip621)" style="stroke:#000000; stroke-linecap:round; stroke-linejoin:round; stroke-width:12; stroke-opacity:1; fill:none" points="3078.6,915.856 3078.6,1667.73 3436.34,1667.73 3436.34,915.856 3078.6,915.856 "/>
<path clip-path="url(#clip621)" d="M3436.34 116.992 L3436.34 1667.73 L3794.08 1667.73 L3794.08 116.992 L3436.34 116.992 L3436.34 116.992  Z" fill="#009af9" fill-rule="evenodd" fill-opacity="1"/>
<polyline clip-path="url(#clip621)" style="stroke:#000000; stroke-linecap:round; stroke-linejoin:round; stroke-width:12; stroke-opacity:1; fill:none" points="3436.34,116.992 3436.34,1667.73 3794.08,1667.73 3794.08,116.992 3436.34,116.992 "/>
<path clip-path="url(#clip621)" d="M3794.08 1103.82 L3794.08 1667.73 L4151.82 1667.73 L4151.82 1103.82 L3794.08 1103.82 L3794.08 1103.82  Z" fill="#009af9" fill-rule="evenodd" fill-opacity="1"/>
<polyline clip-path="url(#clip621)" style="stroke:#000000; stroke-linecap:round; stroke-linejoin:round; stroke-width:12; stroke-opacity:1; fill:none" points="3794.08,1103.82 3794.08,1667.73 4151.82,1667.73 4151.82,1103.82 3794.08,1103.82 "/>
<path clip-path="url(#clip621)" d="M4151.82 1620.74 L4151.82 1667.73 L4509.56 1667.73 L4509.56 1620.74 L4151.82 1620.74 L4151.82 1620.74  Z" fill="#009af9" fill-rule="evenodd" fill-opacity="1"/>
<polyline clip-path="url(#clip621)" style="stroke:#000000; stroke-linecap:round; stroke-linejoin:round; stroke-width:12; stroke-opacity:1; fill:none" points="4151.82,1620.74 4151.82,1667.73 4509.56,1667.73 4509.56,1620.74 4151.82,1620.74 "/>
<circle clip-path="url(#clip621)" style="fill:#009af9; stroke:none; fill-opacity:0" cx="753.28" cy="1620.74" r="2"/>
<circle clip-path="url(#clip621)" style="fill:#009af9; stroke:none; fill-opacity:0" cx="1111.02" cy="1667.73" r="2"/>
<circle clip-path="url(#clip621)" style="fill:#009af9; stroke:none; fill-opacity:0" cx="1468.76" cy="1667.73" r="2"/>
<circle clip-path="url(#clip621)" style="fill:#009af9; stroke:none; fill-opacity:0" cx="1826.5" cy="1620.74" r="2"/>
<circle clip-path="url(#clip621)" style="fill:#009af9; stroke:none; fill-opacity:0" cx="2184.25" cy="1573.74" r="2"/>
<circle clip-path="url(#clip621)" style="fill:#009af9; stroke:none; fill-opacity:0" cx="2541.99" cy="1620.74" r="2"/>
<circle clip-path="url(#clip621)" style="fill:#009af9; stroke:none; fill-opacity:0" cx="2899.73" cy="1526.75" r="2"/>
<circle clip-path="url(#clip621)" style="fill:#009af9; stroke:none; fill-opacity:0" cx="3257.47" cy="915.856" r="2"/>
<circle clip-path="url(#clip621)" style="fill:#009af9; stroke:none; fill-opacity:0" cx="3615.21" cy="116.992" r="2"/>
<circle clip-path="url(#clip621)" style="fill:#009af9; stroke:none; fill-opacity:0" cx="3972.95" cy="1103.82" r="2"/>
<circle clip-path="url(#clip621)" style="fill:#009af9; stroke:none; fill-opacity:0" cx="4330.69" cy="1620.74" r="2"/>
</svg>
