<?xml version="1.0" encoding="utf-8"?>
<svg xmlns="http://www.w3.org/2000/svg" xmlns:xlink="http://www.w3.org/1999/xlink" width="600" height="500" viewBox="0 0 2400 2000">
<defs>
  <clipPath id="clip800">
    <rect x="0" y="0" width="2400" height="2000"/>
  </clipPath>
</defs>
<path clip-path="url(#clip800)" d="M0 2000 L2400 2000 L2400 -8.88178e-14 L0 -8.88178e-14  Z" fill="#ffffff" fill-rule="evenodd" fill-opacity="1"/>
<defs>
  <clipPath id="clip801">
    <rect x="483" y="170" width="1870" height="1396"/>
  </clipPath>
</defs>
<path clip-path="url(#clip800)" d="M483.682 1565.89 L2352.76 1565.89 L2352.76 170.992 L483.682 170.992  Z" fill="#ffffff" fill-rule="evenodd" fill-opacity="1"/>
<polyline clip-path="url(#clip800)" style="stroke:#000000; stroke-linecap:round; stroke-linejoin:round; stroke-width:4; stroke-opacity:1; fill:none" points="483.682,1565.89 2352.76,1565.89 "/>
<polyline clip-path="url(#clip800)" style="stroke:#000000; stroke-linecap:round; stroke-linejoin:round; stroke-width:4; stroke-opacity:1; fill:none" points="483.682,170.992 2352.76,170.992 "/>
<polyline clip-path="url(#clip800)" style="stroke:#000000; stroke-linecap:round; stroke-linejoin:round; stroke-width:4; stroke-opacity:1; fill:none" points="490.917,1565.89 490.917,1546.99 "/>
<polyline clip-path="url(#clip800)" style="stroke:#000000; stroke-linecap:round; stroke-linejoin:round; stroke-width:4; stroke-opacity:1; fill:none" points="801.025,1565.89 801.025,1546.99 "/>
<polyline clip-path="url(#clip800)" style="stroke:#000000; stroke-linecap:round; stroke-linejoin:round; stroke-width:4; stroke-opacity:1; fill:none" points="1111.13,1565.89 1111.13,1546.99 "/>
<polyline clip-path="url(#clip800)" style="stroke:#000000; stroke-linecap:round; stroke-linejoin:round; stroke-width:4; stroke-opacity:1; fill:none" points="1421.24,1565.89 1421.24,1546.99 "/>
<polyline clip-path="url(#clip800)" style="stroke:#000000; stroke-linecap:round; stroke-linejoin:round; stroke-width:4; stroke-opacity:1; fill:none" points="1731.35,1565.89 1731.35,1546.99 "/>
<polyline clip-path="url(#clip800)" style="stroke:#000000; stroke-linecap:round; stroke-linejoin:round; stroke-width:4; stroke-opacity:1; fill:none" points="2041.45,1565.89 2041.45,1546.99 "/>
<polyline clip-path="url(#clip800)" style="stroke:#000000; stroke-linecap:round; stroke-linejoin:round; stroke-width:4; stroke-opacity:1; fill:none" points="2351.56,1565.89 2351.56,1546.99 "/>
<polyline clip-path="url(#clip800)" style="stroke:#000000; stroke-linecap:round; stroke-linejoin:round; stroke-width:4; stroke-opacity:1; fill:none" points="490.917,170.992 490.917,189.89 "/>
<polyline clip-path="url(#clip800)" style="stroke:#000000; stroke-linecap:round; stroke-linejoin:round; stroke-width:4; stroke-opacity:1; fill:none" points="801.025,170.992 801.025,189.89 "/>
<polyline clip-path="url(#clip800)" style="stroke:#000000; stroke-linecap:round; stroke-linejoin:round; stroke-width:4; stroke-opacity:1; fill:none" points="1111.13,170.992 1111.13,189.89 "/>
<polyline clip-path="url(#clip800)" style="stroke:#000000; stroke-linecap:round; stroke-linejoin:round; stroke-width:4; stroke-opacity:1; fill:none" points="1421.24,170.992 1421.24,189.89 "/>
<polyline clip-path="url(#clip800)" style="stroke:#000000; stroke-linecap:round; stroke-linejoin:round; stroke-width:4; stroke-opacity:1; fill:none" points="1731.35,170.992 1731.35,189.89 "/>
<polyline clip-path="url(#clip800)" style="stroke:#000000; stroke-linecap:round; stroke-linejoin:round; stroke-width:4; stroke-opacity:1; fill:none" points="2041.45,170.992 2041.45,189.89 "/>
<polyline clip-path="url(#clip800)" style="stroke:#000000; stroke-linecap:round; stroke-linejoin:round; stroke-width:4; stroke-opacity:1; fill:none" points="2351.56,170.992 2351.56,189.89 "/>
<path clip-path="url(#clip800)" d="M469.623 1639.13 Q469.623 1624.26 473.378 1616.16 Q478.615 1604.1 490.967 1604.1 Q493.585 1604.1 496.303 1604.84 Q499.069 1605.53 502.528 1608.25 Q506.036 1610.97 508.16 1615.42 Q512.212 1624.01 512.212 1639.13 Q512.212 1653.9 508.457 1661.96 Q502.973 1673.72 490.868 1673.72 Q486.322 1673.72 481.678 1671.39 Q477.083 1669.07 474.168 1663.49 Q469.623 1655.14 469.623 1639.13 M478.022 1637.9 Q478.022 1653.16 479.109 1659.24 Q480.344 1665.81 483.704 1668.68 Q487.113 1671.49 490.868 1671.49 Q494.919 1671.49 498.279 1668.48 Q501.688 1665.42 502.725 1658.84 Q503.862 1652.37 503.812 1637.9 Q503.812 1623.81 502.824 1618.18 Q501.49 1611.61 497.933 1608.99 Q494.425 1606.32 490.868 1606.32 Q489.534 1606.32 488.101 1606.72 Q486.718 1607.12 484.692 1608.25 Q482.666 1609.39 481.085 1612.2 Q479.554 1615.02 478.813 1619.27 Q478.022 1624.75 478.022 1637.9 Z" fill="#000000" fill-rule="nonzero" fill-opacity="1" /><path clip-path="url(#clip800)" d="M756.954 1613.74 L756.954 1610.57 Q769.108 1610.57 775.383 1604.1 Q777.112 1604.1 777.408 1604.5 Q777.705 1604.89 777.705 1606.72 L777.705 1663.49 Q777.705 1666.5 779.187 1667.44 Q780.669 1668.38 787.141 1668.38 L790.353 1668.38 L790.353 1671.49 Q786.796 1671.2 773.95 1671.2 Q761.104 1671.2 757.596 1671.49 L757.596 1668.38 L760.808 1668.38 Q767.181 1668.38 768.713 1667.49 Q770.244 1666.55 770.244 1663.49 L770.244 1611.07 Q764.958 1613.74 756.954 1613.74 Z" fill="#000000" fill-rule="nonzero" fill-opacity="1" /><path clip-path="url(#clip800)" d="M802.507 1639.13 Q802.507 1624.26 806.262 1616.16 Q811.499 1604.1 823.851 1604.1 Q826.469 1604.1 829.186 1604.84 Q831.953 1605.53 835.412 1608.25 Q838.92 1610.97 841.044 1615.42 Q845.095 1624.01 845.095 1639.13 Q845.095 1653.9 841.341 1661.96 Q835.856 1673.72 823.752 1673.72 Q819.206 1673.72 814.562 1671.39 Q809.967 1669.07 807.052 1663.49 Q802.507 1655.14 802.507 1639.13 M810.906 1637.9 Q810.906 1653.16 811.993 1659.24 Q813.228 1665.81 816.588 1668.68 Q819.997 1671.49 823.752 1671.49 Q827.803 1671.49 831.163 1668.48 Q834.572 1665.42 835.609 1658.84 Q836.746 1652.37 836.696 1637.9 Q836.696 1623.81 835.708 1618.18 Q834.374 1611.61 830.817 1608.99 Q827.309 1606.32 823.752 1606.32 Q822.418 1606.32 820.985 1606.72 Q819.602 1607.12 817.576 1608.25 Q815.55 1609.39 813.969 1612.2 Q812.438 1615.02 811.697 1619.27 Q810.906 1624.75 810.906 1637.9 Z" fill="#000000" fill-rule="nonzero" fill-opacity="1" /><path clip-path="url(#clip800)" d="M1065.09 1671.49 Q1065.09 1669.66 1065.23 1669.12 Q1065.43 1668.58 1066.22 1667.74 L1085.64 1646.1 Q1096.26 1634.14 1096.26 1623.72 Q1096.26 1616.95 1092.7 1612.11 Q1089.2 1607.26 1082.72 1607.26 Q1078.28 1607.26 1074.52 1609.98 Q1070.77 1612.7 1069.04 1617.54 Q1069.33 1617.44 1070.37 1617.44 Q1072.89 1617.44 1074.27 1619.02 Q1075.71 1620.6 1075.71 1622.73 Q1075.71 1625.45 1073.93 1626.78 Q1072.2 1628.06 1070.47 1628.06 Q1069.78 1628.06 1068.84 1627.92 Q1067.95 1627.77 1066.52 1626.38 Q1065.09 1624.95 1065.09 1622.43 Q1065.09 1615.37 1070.42 1609.73 Q1075.81 1604.1 1084.01 1604.1 Q1093.3 1604.1 1099.37 1609.63 Q1105.5 1615.12 1105.5 1623.72 Q1105.5 1626.73 1104.56 1629.5 Q1103.67 1632.21 1102.44 1634.34 Q1101.25 1636.46 1097.99 1639.87 Q1094.73 1643.28 1092.11 1645.7 Q1089.49 1648.12 1083.61 1653.26 L1072.89 1663.69 L1091.12 1663.69 Q1100.02 1663.69 1100.71 1662.9 Q1101.7 1661.46 1102.93 1653.9 L1105.5 1653.9 L1102.63 1671.49 L1065.09 1671.49 Z" fill="#000000" fill-rule="nonzero" fill-opacity="1" /><path clip-path="url(#clip800)" d="M1114.59 1639.13 Q1114.59 1624.26 1118.35 1616.16 Q1123.58 1604.1 1135.93 1604.1 Q1138.55 1604.1 1141.27 1604.84 Q1144.04 1605.53 1147.5 1608.25 Q1151 1610.97 1153.13 1615.42 Q1157.18 1624.01 1157.18 1639.13 Q1157.18 1653.9 1153.42 1661.96 Q1147.94 1673.72 1135.84 1673.72 Q1131.29 1673.72 1126.65 1671.39 Q1122.05 1669.07 1119.14 1663.49 Q1114.59 1655.14 1114.59 1639.13 M1122.99 1637.9 Q1122.99 1653.16 1124.08 1659.24 Q1125.31 1665.81 1128.67 1668.68 Q1132.08 1671.49 1135.84 1671.49 Q1139.89 1671.49 1143.25 1668.48 Q1146.66 1665.42 1147.69 1658.84 Q1148.83 1652.37 1148.78 1637.9 Q1148.78 1623.81 1147.79 1618.18 Q1146.46 1611.61 1142.9 1608.99 Q1139.39 1606.32 1135.84 1606.32 Q1134.5 1606.32 1133.07 1606.72 Q1131.69 1607.12 1129.66 1608.25 Q1127.63 1609.39 1126.05 1612.2 Q1124.52 1615.02 1123.78 1619.27 Q1122.99 1624.75 1122.99 1637.9 Z" fill="#000000" fill-rule="nonzero" fill-opacity="1" /><path clip-path="url(#clip800)" d="M1374.8 1657.86 Q1374.8 1654.84 1376.53 1653.41 Q1378.26 1651.98 1380.48 1651.98 Q1382.8 1651.98 1384.43 1653.51 Q1386.11 1654.99 1386.11 1657.61 Q1386.11 1660.43 1384.14 1662.01 Q1382.21 1663.59 1379.44 1663.19 Q1381.86 1667.24 1386.31 1669.07 Q1390.8 1670.9 1394.96 1670.9 Q1399.3 1670.9 1402.81 1667.14 Q1406.37 1663.39 1406.37 1654.2 Q1406.37 1646.39 1403.3 1641.9 Q1400.29 1637.4 1394.31 1637.4 L1389.87 1637.4 Q1388.33 1637.4 1387.89 1637.25 Q1387.45 1637.11 1387.45 1636.27 Q1387.45 1635.28 1388.98 1635.08 Q1390.51 1635.08 1392.93 1634.78 Q1398.81 1634.59 1401.92 1629.5 Q1404.74 1624.75 1404.74 1617.98 Q1404.74 1611.81 1401.77 1609.24 Q1398.86 1606.62 1395.05 1606.62 Q1391.5 1606.62 1387.59 1608.1 Q1383.69 1609.59 1381.57 1612.9 Q1387.84 1612.9 1387.84 1617.98 Q1387.84 1620.21 1386.41 1621.69 Q1385.02 1623.12 1382.7 1623.12 Q1380.48 1623.12 1379 1621.74 Q1377.51 1620.31 1377.51 1617.89 Q1377.51 1612.11 1382.65 1608.1 Q1387.84 1604.1 1395.45 1604.1 Q1402.96 1604.1 1408.49 1608.05 Q1414.08 1612.01 1414.08 1618.08 Q1414.08 1624.06 1410.12 1628.95 Q1406.17 1633.84 1399.9 1635.87 Q1407.6 1637.4 1412.2 1642.64 Q1416.79 1647.83 1416.79 1654.2 Q1416.79 1662.1 1410.57 1667.93 Q1404.34 1673.72 1395.25 1673.72 Q1386.85 1673.72 1380.82 1669.17 Q1374.8 1664.62 1374.8 1657.86 Z" fill="#000000" fill-rule="nonzero" fill-opacity="1" /><path clip-path="url(#clip800)" d="M1425.09 1639.13 Q1425.09 1624.26 1428.85 1616.16 Q1434.09 1604.1 1446.44 1604.1 Q1449.06 1604.1 1451.77 1604.84 Q1454.54 1605.53 1458 1608.25 Q1461.51 1610.97 1463.63 1615.42 Q1467.68 1624.01 1467.68 1639.13 Q1467.68 1653.9 1463.93 1661.96 Q1458.44 1673.72 1446.34 1673.72 Q1441.79 1673.72 1437.15 1671.39 Q1432.55 1669.07 1429.64 1663.49 Q1425.09 1655.14 1425.09 1639.13 M1433.49 1637.9 Q1433.49 1653.16 1434.58 1659.24 Q1435.81 1665.81 1439.17 1668.68 Q1442.58 1671.49 1446.34 1671.49 Q1450.39 1671.49 1453.75 1668.48 Q1457.16 1665.42 1458.2 1658.84 Q1459.33 1652.37 1459.28 1637.9 Q1459.28 1623.81 1458.29 1618.18 Q1456.96 1611.61 1453.4 1608.99 Q1449.9 1606.32 1446.34 1606.32 Q1445 1606.32 1443.57 1606.72 Q1442.19 1607.12 1440.16 1608.25 Q1438.14 1609.39 1436.56 1612.2 Q1435.02 1615.02 1434.28 1619.27 Q1433.49 1624.75 1433.49 1637.9 Z" fill="#000000" fill-rule="nonzero" fill-opacity="1" /><path clip-path="url(#clip800)" d="M1684.19 1654.79 L1684.19 1651.68 L1715.26 1604.2 Q1716.06 1602.97 1717.29 1603.01 Q1718.43 1603.01 1718.67 1603.46 Q1718.92 1603.9 1718.92 1605.63 L1718.92 1651.68 L1729.05 1651.68 L1729.05 1654.79 L1718.92 1654.79 L1718.92 1663.59 Q1718.92 1666.5 1720.11 1667.44 Q1721.34 1668.38 1726.58 1668.38 L1728.7 1668.38 L1728.7 1671.49 Q1724.55 1671.2 1714.97 1671.2 Q1705.43 1671.2 1701.28 1671.49 L1701.28 1668.38 L1703.41 1668.38 Q1708.64 1668.38 1709.88 1667.49 Q1711.11 1666.55 1711.11 1663.59 L1711.11 1654.79 L1684.19 1654.79 M1687.05 1651.68 L1711.71 1651.68 L1711.71 1613.93 L1687.05 1651.68 Z" fill="#000000" fill-rule="nonzero" fill-opacity="1" /><path clip-path="url(#clip800)" d="M1735.92 1639.13 Q1735.92 1624.26 1739.67 1616.16 Q1744.91 1604.1 1757.26 1604.1 Q1759.88 1604.1 1762.6 1604.84 Q1765.36 1605.53 1768.82 1608.25 Q1772.33 1610.97 1774.45 1615.42 Q1778.51 1624.01 1778.51 1639.13 Q1778.51 1653.9 1774.75 1661.96 Q1769.27 1673.72 1757.16 1673.72 Q1752.62 1673.72 1747.97 1671.39 Q1743.38 1669.07 1740.46 1663.49 Q1735.92 1655.14 1735.92 1639.13 M1744.32 1637.9 Q1744.32 1653.16 1745.4 1659.24 Q1746.64 1665.81 1750 1668.68 Q1753.41 1671.49 1757.16 1671.49 Q1761.21 1671.49 1764.57 1668.48 Q1767.98 1665.42 1769.02 1658.84 Q1770.16 1652.37 1770.11 1637.9 Q1770.11 1623.81 1769.12 1618.18 Q1767.78 1611.61 1764.23 1608.99 Q1760.72 1606.32 1757.16 1606.32 Q1755.83 1606.32 1754.4 1606.72 Q1753.01 1607.12 1750.99 1608.25 Q1748.96 1609.39 1747.38 1612.2 Q1745.85 1615.02 1745.11 1619.27 Q1744.32 1624.75 1744.32 1637.9 Z" fill="#000000" fill-rule="nonzero" fill-opacity="1" /><path clip-path="url(#clip800)" d="M1995.41 1655.19 Q1995.41 1652.17 1997.04 1651.04 Q1998.67 1649.85 2000.4 1649.85 Q2002.72 1649.85 2004.05 1651.33 Q2005.44 1652.77 2005.44 1654.79 Q2005.44 1656.82 2004.05 1658.3 Q2002.72 1659.73 2000.4 1659.73 Q1999.26 1659.73 1998.67 1659.54 Q2000 1664.18 2004.05 1667.54 Q2008.15 1670.9 2013.54 1670.9 Q2020.31 1670.9 2024.36 1664.33 Q2026.78 1660.08 2026.78 1650.44 Q2026.78 1641.95 2024.95 1637.7 Q2022.14 1631.23 2016.36 1631.23 Q2008.15 1631.23 2003.31 1638.29 Q2002.72 1639.18 2002.03 1639.23 Q2001.04 1639.23 2000.79 1638.69 Q2000.59 1638.09 2000.59 1636.56 L2000.59 1606.62 Q2000.59 1604.2 2001.58 1604.2 Q2001.98 1604.2 2002.82 1604.5 Q2009.19 1607.31 2016.26 1607.36 Q2023.52 1607.36 2030.04 1604.4 Q2030.54 1604.1 2030.83 1604.1 Q2031.82 1604.1 2031.87 1605.24 Q2031.87 1605.63 2031.03 1606.82 Q2030.24 1607.96 2028.51 1609.49 Q2026.78 1610.97 2024.56 1612.4 Q2022.33 1613.83 2019.07 1614.82 Q2015.86 1615.76 2012.3 1615.76 Q2008.06 1615.76 2003.71 1614.43 L2003.71 1634.14 Q2008.94 1629 2016.55 1629 Q2024.66 1629 2030.24 1635.52 Q2035.82 1642.05 2035.82 1651.14 Q2035.82 1660.67 2029.2 1667.19 Q2022.63 1673.72 2013.74 1673.72 Q2005.63 1673.72 2000.5 1667.93 Q1995.41 1662.15 1995.41 1655.19 Z" fill="#000000" fill-rule="nonzero" fill-opacity="1" /><path clip-path="url(#clip800)" d="M2044.91 1639.13 Q2044.91 1624.26 2048.67 1616.16 Q2053.9 1604.1 2066.26 1604.1 Q2068.87 1604.1 2071.59 1604.84 Q2074.36 1605.53 2077.82 1608.25 Q2081.33 1610.97 2083.45 1615.42 Q2087.5 1624.01 2087.5 1639.13 Q2087.5 1653.9 2083.75 1661.96 Q2078.26 1673.72 2066.16 1673.72 Q2061.61 1673.72 2056.97 1671.39 Q2052.37 1669.07 2049.46 1663.49 Q2044.91 1655.14 2044.91 1639.13 M2053.31 1637.9 Q2053.31 1653.16 2054.4 1659.24 Q2055.63 1665.81 2058.99 1668.68 Q2062.4 1671.49 2066.16 1671.49 Q2070.21 1671.49 2073.57 1668.48 Q2076.98 1665.42 2078.02 1658.84 Q2079.15 1652.37 2079.1 1637.9 Q2079.1 1623.81 2078.11 1618.18 Q2076.78 1611.61 2073.22 1608.99 Q2069.71 1606.32 2066.16 1606.32 Q2064.82 1606.32 2063.39 1606.72 Q2062.01 1607.12 2059.98 1608.25 Q2057.96 1609.39 2056.38 1612.2 Q2054.84 1615.02 2054.1 1619.27 Q2053.31 1624.75 2053.31 1637.9 Z" fill="#000000" fill-rule="nonzero" fill-opacity="1" /><path clip-path="url(#clip800)" d="M2305.12 1639.53 Q2305.12 1623.62 2313.22 1613.88 Q2321.32 1604.1 2331.75 1604.1 Q2337.83 1604.1 2341.19 1607.21 Q2344.6 1610.28 2344.6 1615.02 Q2344.6 1617.64 2343.06 1618.78 Q2341.53 1619.91 2339.95 1619.91 Q2338.12 1619.91 2336.69 1618.68 Q2335.26 1617.44 2335.26 1615.22 Q2335.26 1610.67 2340.84 1610.67 Q2338.22 1606.62 2331.95 1606.62 Q2330.02 1606.62 2328.04 1607.21 Q2326.07 1607.76 2323.5 1609.63 Q2320.93 1611.51 2318.95 1614.48 Q2316.98 1617.44 2315.59 1623.02 Q2314.21 1628.61 2314.21 1635.87 L2314.21 1638.29 Q2318.36 1628.26 2326.86 1628.31 Q2335.36 1628.31 2341.24 1634.78 Q2347.12 1641.26 2347.12 1650.84 Q2347.12 1660.67 2340.99 1667.19 Q2334.86 1673.72 2326.27 1673.72 Q2322.41 1673.72 2318.9 1672.09 Q2315.45 1670.5 2312.18 1666.85 Q2308.97 1663.19 2307.05 1656.18 Q2305.12 1649.16 2305.12 1639.53 M2314.41 1648.62 Q2314.41 1658.55 2316.24 1663.29 Q2316.53 1664.08 2317.17 1665.17 Q2317.87 1666.26 2319 1667.69 Q2320.19 1669.07 2322.12 1670.01 Q2324.04 1670.9 2326.27 1670.9 Q2333.03 1670.9 2336.29 1664.33 Q2338.02 1660.67 2338.02 1650.74 Q2338.02 1640.61 2336.2 1636.91 Q2333.08 1630.63 2326.76 1630.63 Q2322.51 1630.63 2319.55 1633.55 Q2316.63 1636.46 2315.49 1640.37 Q2314.41 1644.27 2314.41 1648.62 Z" fill="#000000" fill-rule="nonzero" fill-opacity="1" /><path clip-path="url(#clip800)" d="M2355.42 1639.13 Q2355.42 1624.26 2359.17 1616.16 Q2364.41 1604.1 2376.76 1604.1 Q2379.38 1604.1 2382.1 1604.84 Q2384.86 1605.53 2388.32 1608.25 Q2391.83 1610.97 2393.95 1615.42 Q2398 1624.01 2398 1639.13 Q2398 1653.9 2394.25 1661.96 Q2388.76 1673.72 2376.66 1673.72 Q2372.11 1673.72 2367.47 1671.39 Q2362.88 1669.07 2359.96 1663.49 Q2355.42 1655.14 2355.42 1639.13 M2363.81 1637.9 Q2363.81 1653.16 2364.9 1659.24 Q2366.14 1665.81 2369.5 1668.68 Q2372.91 1671.49 2376.66 1671.49 Q2380.71 1671.49 2384.07 1668.48 Q2387.48 1665.42 2388.52 1658.84 Q2389.65 1652.37 2389.6 1637.9 Q2389.6 1623.81 2388.62 1618.18 Q2387.28 1611.61 2383.73 1608.99 Q2380.22 1606.32 2376.66 1606.32 Q2375.33 1606.32 2373.89 1606.72 Q2372.51 1607.12 2370.48 1608.25 Q2368.46 1609.39 2366.88 1612.2 Q2365.35 1615.02 2364.61 1619.27 Q2363.81 1624.75 2363.81 1637.9 Z" fill="#000000" fill-rule="nonzero" fill-opacity="1" /><path clip-path="url(#clip800)" d="M1000.62 1821.39 L1000.62 1817.88 L1003.35 1817.88 Q1009.52 1817.88 1010.9 1816.88 Q1012.35 1815.83 1012.35 1812.49 L1012.35 1752.52 Q1012.35 1749.24 1010.9 1748.24 Q1009.46 1747.18 1003.35 1747.18 L1000.62 1747.18 L1000.62 1743.63 L1042.25 1743.63 Q1056.82 1743.63 1066.93 1755.24 Q1077.1 1766.86 1077.1 1783.15 Q1077.1 1799.1 1066.88 1810.27 Q1056.7 1821.39 1042.25 1821.39 L1000.62 1821.39 M1022.13 1813.33 Q1022.13 1816.27 1022.97 1817.11 Q1023.8 1817.88 1027.69 1817.88 L1039.2 1817.88 Q1046.7 1817.88 1051.76 1814.83 Q1056.82 1811.72 1059.43 1808.16 Q1065.71 1799.6 1065.71 1783.15 Q1065.71 1765.86 1059.82 1757.74 Q1052.2 1747.18 1039.09 1747.18 L1027.69 1747.18 Q1023.8 1747.18 1022.97 1747.96 Q1022.13 1748.74 1022.13 1751.74 L1022.13 1813.33 Z" fill="#000000" fill-rule="nonzero" fill-opacity="1" /><path clip-path="url(#clip800)" d="M1087.22 1821.39 L1087.22 1817.88 Q1093.28 1817.88 1094.67 1817.16 Q1096.06 1816.38 1096.06 1812.72 L1096.06 1782.09 Q1096.06 1777.87 1094.61 1776.86 Q1093.22 1775.86 1087.66 1775.86 L1087.66 1772.31 L1103.56 1771.08 L1103.56 1812.83 Q1103.56 1816.22 1104.78 1817.05 Q1106.01 1817.88 1111.56 1817.88 L1111.56 1821.39 Q1099.95 1821.05 1099.73 1821.05 Q1098.17 1821.05 1087.22 1821.39 M1092 1751.24 Q1092 1748.96 1093.72 1747.13 Q1095.5 1745.24 1098 1745.24 Q1100.5 1745.24 1102.28 1746.96 Q1104.06 1748.63 1104.06 1751.3 Q1104.06 1753.91 1102.28 1755.63 Q1100.5 1757.3 1098 1757.3 Q1095.39 1757.3 1093.67 1755.47 Q1092 1753.63 1092 1751.24 Z" fill="#000000" fill-rule="nonzero" fill-opacity="1" /><path clip-path="url(#clip800)" d="M1118.74 1819.89 L1118.74 1804.88 Q1118.74 1803.6 1118.79 1803.16 Q1118.85 1802.71 1119.18 1802.38 Q1119.51 1802.04 1120.18 1802.04 Q1120.96 1802.04 1121.24 1802.38 Q1121.57 1802.71 1121.79 1803.99 Q1123.52 1811.83 1127.18 1815.99 Q1130.91 1820.11 1137.63 1820.11 Q1144.03 1820.11 1147.25 1817.27 Q1150.47 1814.44 1150.47 1809.77 Q1150.47 1801.43 1138.63 1799.32 Q1131.8 1797.93 1128.96 1797.04 Q1126.13 1796.1 1123.63 1794.04 Q1118.74 1790.04 1118.74 1784.37 Q1118.74 1778.7 1123.01 1774.53 Q1127.35 1770.36 1136.91 1770.36 Q1143.3 1770.36 1147.64 1773.59 Q1148.92 1772.58 1149.58 1771.75 Q1151.08 1770.36 1151.86 1770.36 Q1152.75 1770.36 1152.92 1770.97 Q1153.09 1771.53 1153.09 1773.14 L1153.09 1784.59 Q1153.09 1785.87 1153.03 1786.31 Q1152.97 1786.76 1152.64 1787.09 Q1152.31 1787.37 1151.58 1787.37 Q1150.31 1787.37 1150.25 1786.31 Q1149.36 1772.53 1136.91 1772.53 Q1130.19 1772.53 1127.18 1775.14 Q1124.18 1777.7 1124.18 1781.2 Q1124.18 1783.15 1125.07 1784.65 Q1126.02 1786.09 1127.18 1786.98 Q1128.41 1787.81 1130.63 1788.65 Q1132.85 1789.43 1134.19 1789.7 Q1135.58 1789.98 1138.19 1790.54 Q1147.3 1792.26 1151.14 1795.99 Q1155.92 1800.77 1155.92 1806.82 Q1155.92 1813.55 1151.36 1818.11 Q1146.8 1822.66 1137.63 1822.66 Q1130.24 1822.66 1125.07 1817.72 Q1124.4 1818.38 1123.9 1819 Q1123.4 1819.55 1123.18 1819.77 Q1123.01 1820 1122.96 1820.16 Q1122.9 1820.27 1122.79 1820.39 Q1120.51 1822.66 1119.96 1822.66 Q1119.07 1822.66 1118.9 1822.05 Q1118.74 1821.5 1118.74 1819.89 Z" fill="#000000" fill-rule="nonzero" fill-opacity="1" /><path clip-path="url(#clip800)" d="M1170.87 1815.16 Q1163.65 1807.6 1163.65 1796.82 Q1163.65 1785.98 1170.76 1778.2 Q1177.87 1770.36 1188.32 1770.36 Q1195.27 1770.36 1200.5 1773.7 Q1205.72 1776.98 1205.72 1782.59 Q1205.72 1785.09 1204.22 1786.54 Q1202.78 1787.93 1200.5 1787.93 Q1198.11 1787.93 1196.66 1786.48 Q1195.27 1784.98 1195.27 1782.7 Q1195.27 1781.7 1195.61 1780.7 Q1195.94 1779.7 1197.16 1778.64 Q1198.44 1777.59 1200.61 1777.42 Q1196.55 1773.25 1188.66 1773.25 Q1188.55 1773.25 1188.44 1773.25 Q1182.65 1773.25 1177.87 1778.7 Q1173.09 1784.15 1173.09 1796.6 Q1173.09 1803.1 1174.65 1807.88 Q1176.26 1812.6 1178.88 1815.05 Q1181.49 1817.5 1184.04 1818.66 Q1186.6 1819.77 1189.1 1819.77 Q1200.27 1819.77 1204.05 1807.82 Q1204.39 1806.71 1205.5 1806.71 Q1207 1806.71 1207 1807.82 Q1207 1808.38 1206.56 1809.83 Q1206.11 1811.27 1204.72 1813.55 Q1203.33 1815.83 1201.33 1817.83 Q1199.39 1819.77 1195.88 1821.22 Q1192.44 1822.66 1188.1 1822.66 Q1178.1 1822.66 1170.87 1815.16 Z" fill="#000000" fill-rule="nonzero" fill-opacity="1" /><path clip-path="url(#clip800)" d="M1210.78 1821.39 L1210.78 1817.88 Q1216.84 1817.88 1218.23 1817.16 Q1219.62 1816.38 1219.62 1812.72 L1219.62 1753.52 Q1219.62 1749.3 1218.12 1748.24 Q1216.67 1747.18 1210.78 1747.18 L1210.78 1743.63 L1227.12 1742.4 L1227.12 1781.98 L1227.23 1781.98 Q1229.07 1777.87 1233.18 1774.47 Q1237.29 1771.08 1243.63 1771.08 Q1252.19 1771.08 1255.58 1775.31 Q1258.08 1778.14 1258.58 1781.31 Q1259.14 1784.48 1259.14 1792.71 L1259.14 1814.44 Q1259.25 1816.83 1261.08 1817.38 Q1262.92 1817.88 1268.03 1817.88 L1268.03 1821.39 Q1256.41 1821.05 1255.25 1821.05 Q1254.36 1821.05 1242.41 1821.39 L1242.41 1817.88 Q1248.46 1817.88 1249.85 1817.16 Q1251.3 1816.38 1251.3 1812.72 L1251.3 1786.2 Q1251.3 1780.42 1249.52 1777.03 Q1247.74 1773.59 1242.85 1773.59 Q1236.96 1773.59 1232.23 1778.53 Q1227.51 1783.48 1227.51 1791.82 L1227.51 1812.72 Q1227.51 1816.38 1228.9 1817.16 Q1230.34 1817.88 1236.35 1817.88 L1236.35 1821.39 Q1224.73 1821.05 1223.62 1821.05 Q1222.73 1821.05 1210.78 1821.39 Z" fill="#000000" fill-rule="nonzero" fill-opacity="1" /><path clip-path="url(#clip800)" d="M1275.03 1810.55 Q1275.03 1800.88 1286.43 1795.76 Q1293.26 1792.48 1307.38 1791.65 L1307.38 1787.48 Q1307.38 1780.42 1303.66 1776.7 Q1299.99 1772.92 1295.32 1772.92 Q1286.98 1772.92 1282.98 1778.14 Q1286.37 1778.25 1287.59 1779.98 Q1288.82 1781.64 1288.82 1783.37 Q1288.82 1785.65 1287.37 1787.15 Q1285.98 1788.59 1283.59 1788.59 Q1281.31 1788.59 1279.81 1787.2 Q1278.31 1785.76 1278.31 1783.26 Q1278.31 1777.7 1283.31 1774.03 Q1288.37 1770.36 1295.54 1770.36 Q1304.88 1770.36 1311.11 1776.64 Q1313.05 1778.59 1314 1781.09 Q1315 1783.59 1315.11 1785.26 Q1315.22 1786.87 1315.22 1790.09 L1315.22 1812.83 Q1315.22 1813.49 1315.44 1814.61 Q1315.66 1815.72 1316.66 1817.16 Q1317.72 1818.55 1319.44 1818.55 Q1323.56 1818.55 1323.5 1811.27 L1323.5 1804.88 L1326.39 1804.88 L1326.39 1811.27 Q1326.39 1817.33 1323.17 1819.72 Q1320 1822.05 1317.05 1822.05 Q1313.27 1822.05 1310.88 1819.27 Q1308.49 1816.5 1308.16 1812.72 Q1306.44 1817.05 1302.49 1819.89 Q1298.6 1822.66 1293.26 1822.66 Q1289.15 1822.66 1285.26 1821.61 Q1281.43 1820.61 1278.2 1817.77 Q1275.03 1814.88 1275.03 1810.55 M1283.82 1810.44 Q1283.82 1814.66 1286.82 1817.38 Q1289.82 1820.11 1294.04 1820.11 Q1298.82 1820.11 1303.1 1816.44 Q1307.38 1812.72 1307.38 1805.43 L1307.38 1794.04 Q1294.76 1794.48 1289.26 1799.54 Q1283.82 1804.54 1283.82 1810.44 Z" fill="#000000" fill-rule="nonzero" fill-opacity="1" /><path clip-path="url(#clip800)" d="M1330.34 1821.39 L1330.34 1817.88 Q1336.4 1817.88 1337.79 1817.16 Q1339.23 1816.38 1339.23 1812.72 L1339.23 1782.2 Q1339.23 1777.98 1337.73 1776.92 Q1336.29 1775.86 1330.34 1775.86 L1330.34 1772.31 L1346.18 1771.08 L1346.18 1783.59 Q1347.79 1778.7 1351.18 1774.92 Q1354.63 1771.08 1360.19 1771.08 Q1363.85 1771.08 1366.19 1773.14 Q1368.58 1775.2 1368.58 1778.03 Q1368.58 1780.53 1367.02 1781.81 Q1365.52 1783.03 1363.69 1783.03 Q1361.63 1783.03 1360.19 1781.76 Q1358.8 1780.42 1358.8 1778.14 Q1358.8 1776.75 1359.41 1775.7 Q1360.07 1774.59 1360.57 1774.2 Q1361.07 1773.81 1361.41 1773.7 Q1361.19 1773.59 1360.19 1773.59 Q1353.9 1773.59 1350.29 1779.87 Q1346.73 1786.09 1346.73 1794.98 L1346.73 1812.49 Q1346.73 1815.77 1348.07 1816.83 Q1349.46 1817.88 1355.41 1817.88 L1357.8 1817.88 L1357.8 1821.39 Q1353.24 1821.05 1343.34 1821.05 Q1341.95 1821.05 1339.79 1821.11 Q1337.62 1821.16 1334.78 1821.28 Q1331.95 1821.39 1330.34 1821.39 Z" fill="#000000" fill-rule="nonzero" fill-opacity="1" /><path clip-path="url(#clip800)" d="M1374.8 1830.39 Q1374.8 1826.72 1377.58 1823.55 Q1380.42 1820.39 1385.31 1819 Q1380.31 1815.83 1380.31 1808.88 Q1380.31 1803.54 1383.81 1799.43 Q1378.47 1794.98 1378.47 1787.7 Q1378.47 1780.98 1383.81 1776.03 Q1389.14 1771.08 1396.93 1771.08 Q1403.76 1771.08 1408.99 1775.2 Q1414.43 1769.86 1421.05 1769.81 Q1423.99 1769.81 1425.38 1771.64 Q1426.83 1773.47 1426.83 1775.42 Q1426.83 1777.14 1425.72 1777.98 Q1424.66 1778.81 1423.55 1778.81 Q1422.16 1778.81 1421.16 1777.92 Q1420.21 1776.98 1420.21 1775.53 Q1420.21 1773.14 1422.05 1772.42 Q1421.72 1772.31 1420.94 1772.31 Q1415.38 1772.31 1410.65 1776.75 Q1415.32 1781.09 1415.32 1787.81 Q1415.32 1794.54 1409.99 1799.49 Q1404.65 1804.43 1396.93 1804.43 Q1390.53 1804.43 1385.64 1800.88 Q1383.7 1803.16 1383.7 1806.27 Q1383.7 1809.1 1385.42 1811.33 Q1387.14 1813.55 1389.76 1813.88 Q1390.53 1813.99 1398.26 1813.99 Q1402.82 1813.99 1405.32 1814.11 Q1407.82 1814.22 1411.38 1814.99 Q1414.99 1815.72 1417.82 1817.16 Q1425.22 1821.28 1425.27 1830.17 Q1425.27 1836.67 1417.77 1840.73 Q1410.32 1844.84 1399.98 1844.84 Q1389.53 1844.84 1382.14 1840.67 Q1374.8 1836.56 1374.8 1830.39 M1380.75 1830.39 Q1380.75 1835.06 1386.25 1838.62 Q1391.76 1842.23 1400.09 1842.23 Q1408.26 1842.23 1413.77 1838.67 Q1419.33 1835.17 1419.33 1830.39 Q1419.33 1827 1417.38 1824.83 Q1415.43 1822.66 1411.43 1821.78 Q1407.49 1820.94 1404.71 1820.77 Q1401.93 1820.61 1396.81 1820.61 L1390.09 1820.61 Q1386.2 1820.83 1383.47 1823.67 Q1380.75 1826.5 1380.75 1830.39 M1386.98 1787.81 Q1386.98 1801.82 1396.93 1801.82 Q1401.93 1801.82 1404.99 1797.26 Q1406.82 1794.21 1406.82 1787.7 Q1406.82 1773.7 1396.93 1773.7 Q1391.92 1773.7 1388.81 1778.25 Q1386.98 1781.31 1386.98 1787.81 Z" fill="#000000" fill-rule="nonzero" fill-opacity="1" /><path clip-path="url(#clip800)" d="M1431.72 1796.32 Q1431.72 1785.59 1438.61 1777.98 Q1445.5 1770.36 1455.4 1770.36 Q1465.4 1770.36 1470.57 1776.86 Q1475.8 1783.37 1475.8 1792.71 Q1475.8 1794.43 1475.35 1794.76 Q1474.91 1795.1 1472.96 1795.1 L1441.17 1795.1 Q1441.17 1806.71 1444.62 1812.16 Q1449.4 1819.77 1457.46 1819.77 Q1458.57 1819.77 1459.9 1819.55 Q1461.23 1819.33 1463.96 1818.38 Q1466.68 1817.38 1469.07 1814.77 Q1471.46 1812.16 1472.85 1808.05 Q1473.18 1806.43 1474.3 1806.49 Q1475.8 1806.49 1475.8 1807.82 Q1475.8 1808.82 1474.69 1811.1 Q1473.63 1813.33 1471.57 1815.99 Q1469.52 1818.66 1465.51 1820.66 Q1461.57 1822.66 1456.79 1822.66 Q1446.78 1822.66 1439.22 1815.11 Q1431.72 1807.49 1431.72 1796.32 M1441.28 1792.71 L1468.29 1792.71 Q1468.29 1790.32 1467.85 1787.65 Q1467.46 1784.98 1466.24 1781.31 Q1465.07 1777.59 1462.29 1775.25 Q1459.51 1772.92 1455.4 1772.92 Q1453.56 1772.92 1451.56 1773.7 Q1449.62 1774.47 1447.23 1776.36 Q1444.84 1778.25 1443.17 1782.53 Q1441.5 1786.81 1441.28 1792.71 Z" fill="#000000" fill-rule="nonzero" fill-opacity="1" /><path clip-path="url(#clip800)" d="M1528.21 1792.93 Q1528.21 1773.7 1535.38 1758.19 Q1538.44 1751.69 1542.72 1746.24 Q1547 1740.79 1549.83 1738.4 Q1552.67 1736.01 1553.45 1736.01 Q1554.56 1736.01 1554.61 1737.12 Q1554.61 1737.68 1553.11 1739.07 Q1534.77 1757.74 1534.83 1792.93 Q1534.83 1828.22 1552.67 1846.18 Q1554.61 1848.12 1554.61 1848.73 Q1554.61 1849.84 1553.45 1849.84 Q1552.67 1849.84 1549.94 1847.57 Q1547.22 1845.29 1543 1840.06 Q1538.77 1834.84 1535.72 1828.45 Q1528.21 1812.94 1528.21 1792.93 Z" fill="#000000" fill-rule="nonzero" fill-opacity="1" /><path clip-path="url(#clip800)" d="M1564.73 1821.39 L1564.73 1817.88 Q1570.79 1817.88 1572.18 1817.16 Q1573.57 1816.38 1573.57 1812.72 L1573.57 1782.2 Q1573.57 1777.98 1572.07 1776.92 Q1570.62 1775.86 1564.73 1775.86 L1564.73 1772.31 L1580.74 1771.08 L1580.74 1783.03 Q1586.07 1771.08 1597.58 1771.08 Q1610.92 1771.08 1612.75 1782.2 Q1614.7 1777.87 1618.76 1774.47 Q1622.87 1771.08 1629.26 1771.08 Q1637.82 1771.08 1641.21 1775.31 Q1643.71 1778.14 1644.21 1781.31 Q1644.71 1784.48 1644.71 1792.71 L1644.71 1814.44 Q1644.82 1816.83 1646.66 1817.38 Q1648.49 1817.88 1653.61 1817.88 L1653.61 1821.39 Q1641.99 1821.05 1640.88 1821.05 Q1639.99 1821.05 1627.98 1821.39 L1627.98 1817.88 Q1634.04 1817.88 1635.43 1817.16 Q1636.88 1816.38 1636.88 1812.72 L1636.88 1786.2 Q1636.88 1780.42 1635.1 1777.03 Q1633.32 1773.59 1628.43 1773.59 Q1622.54 1773.59 1617.81 1778.53 Q1613.09 1783.48 1613.09 1791.82 L1613.09 1812.72 Q1613.09 1816.38 1614.48 1817.16 Q1615.92 1817.88 1621.98 1817.88 L1621.98 1821.39 Q1610.36 1821.05 1609.2 1821.05 Q1608.31 1821.05 1596.36 1821.39 L1596.36 1817.88 Q1602.41 1817.88 1603.8 1817.16 Q1605.25 1816.38 1605.25 1812.72 L1605.25 1786.2 Q1605.25 1780.42 1603.47 1777.03 Q1601.69 1773.59 1596.8 1773.59 Q1590.91 1773.59 1586.18 1778.53 Q1581.46 1783.48 1581.46 1791.82 L1581.46 1812.72 Q1581.46 1816.38 1582.85 1817.16 Q1584.29 1817.88 1590.3 1817.88 L1590.3 1821.39 Q1578.68 1821.05 1577.57 1821.05 Q1576.68 1821.05 1564.73 1821.39 Z" fill="#000000" fill-rule="nonzero" fill-opacity="1" /><path clip-path="url(#clip800)" d="M1665.13 1732.35 Q1665.13 1730.1 1666.42 1729.03 Q1667.71 1727.96 1669.37 1727.96 Q1671.1 1727.96 1672.32 1729.11 Q1673.57 1730.21 1673.57 1732.17 Q1673.57 1734.27 1672.1 1735.45 Q1670.66 1736.63 1668.59 1736.34 Q1670.4 1739.36 1673.72 1740.73 Q1677.08 1742.09 1680.18 1742.09 Q1683.42 1742.09 1686.04 1739.29 Q1688.7 1736.49 1688.7 1729.62 Q1688.7 1723.79 1686.41 1720.44 Q1684.16 1717.08 1679.7 1717.08 L1676.38 1717.08 Q1675.23 1717.08 1674.9 1716.97 Q1674.57 1716.86 1674.57 1716.23 Q1674.57 1715.49 1675.71 1715.35 Q1676.86 1715.35 1678.66 1715.13 Q1683.05 1714.98 1685.38 1711.18 Q1687.48 1707.64 1687.48 1702.58 Q1687.48 1697.97 1685.27 1696.05 Q1683.09 1694.1 1680.25 1694.1 Q1677.59 1694.1 1674.68 1695.2 Q1671.77 1696.31 1670.18 1698.78 Q1674.87 1698.78 1674.87 1702.58 Q1674.87 1704.24 1673.8 1705.35 Q1672.76 1706.42 1671.03 1706.42 Q1669.37 1706.42 1668.26 1705.39 Q1667.15 1704.32 1667.15 1702.51 Q1667.15 1698.19 1670.99 1695.2 Q1674.87 1692.22 1680.55 1692.22 Q1686.15 1692.22 1690.29 1695.17 Q1694.45 1698.12 1694.45 1702.66 Q1694.45 1707.12 1691.5 1710.77 Q1688.55 1714.42 1683.87 1715.94 Q1689.62 1717.08 1693.05 1720.99 Q1696.48 1724.86 1696.48 1729.62 Q1696.48 1735.53 1691.83 1739.88 Q1687.19 1744.2 1680.4 1744.2 Q1674.13 1744.2 1669.63 1740.8 Q1665.13 1737.41 1665.13 1732.35 Z" fill="#000000" fill-rule="nonzero" fill-opacity="1" /><path clip-path="url(#clip800)" d="M1707.7 1848.23 Q1707.7 1847.68 1708.14 1846.45 L1748.33 1739.07 Q1748.33 1738.96 1748.61 1738.35 Q1748.88 1737.73 1749.05 1737.35 Q1749.22 1736.9 1749.55 1736.57 Q1749.94 1736.23 1750.38 1736.23 Q1751.5 1736.23 1751.5 1737.62 Q1751.5 1737.73 1751.16 1739.07 L1710.87 1846.57 Q1710.2 1848.51 1709.75 1849.07 Q1709.37 1849.62 1708.7 1849.62 Q1707.7 1849.62 1707.7 1848.23 Z" fill="#000000" fill-rule="nonzero" fill-opacity="1" /><path clip-path="url(#clip800)" d="M1761.89 1819.89 L1761.89 1804.88 Q1761.89 1803.6 1761.95 1803.16 Q1762 1802.71 1762.34 1802.38 Q1762.67 1802.04 1763.34 1802.04 Q1764.11 1802.04 1764.39 1802.38 Q1764.73 1802.71 1764.95 1803.99 Q1766.67 1811.83 1770.34 1815.99 Q1774.06 1820.11 1780.79 1820.11 Q1787.18 1820.11 1790.4 1817.27 Q1793.63 1814.44 1793.63 1809.77 Q1793.63 1801.43 1781.79 1799.32 Q1774.95 1797.93 1772.12 1797.04 Q1769.28 1796.1 1766.78 1794.04 Q1761.89 1790.04 1761.89 1784.37 Q1761.89 1778.7 1766.17 1774.53 Q1770.51 1770.36 1780.07 1770.36 Q1786.46 1770.36 1790.79 1773.59 Q1792.07 1772.58 1792.74 1771.75 Q1794.24 1770.36 1795.02 1770.36 Q1795.91 1770.36 1796.07 1770.97 Q1796.24 1771.53 1796.24 1773.14 L1796.24 1784.59 Q1796.24 1785.87 1796.18 1786.31 Q1796.13 1786.76 1795.8 1787.09 Q1795.46 1787.37 1794.74 1787.37 Q1793.46 1787.37 1793.41 1786.31 Q1792.52 1772.53 1780.07 1772.53 Q1773.34 1772.53 1770.34 1775.14 Q1767.34 1777.7 1767.34 1781.2 Q1767.34 1783.15 1768.23 1784.65 Q1769.17 1786.09 1770.34 1786.98 Q1771.56 1787.81 1773.79 1788.65 Q1776.01 1789.43 1777.34 1789.7 Q1778.73 1789.98 1781.34 1790.54 Q1790.46 1792.26 1794.3 1795.99 Q1799.08 1800.77 1799.08 1806.82 Q1799.08 1813.55 1794.52 1818.11 Q1789.96 1822.66 1780.79 1822.66 Q1773.4 1822.66 1768.23 1817.72 Q1767.56 1818.38 1767.06 1819 Q1766.56 1819.55 1766.34 1819.77 Q1766.17 1820 1766.11 1820.16 Q1766.06 1820.27 1765.95 1820.39 Q1763.67 1822.66 1763.11 1822.66 Q1762.22 1822.66 1762.06 1822.05 Q1761.89 1821.5 1761.89 1819.89 Z" fill="#000000" fill-rule="nonzero" fill-opacity="1" /><path clip-path="url(#clip800)" d="M1809.41 1848.73 Q1809.41 1848.18 1810.86 1846.79 Q1829.2 1828.11 1829.2 1792.93 Q1829.2 1757.63 1811.58 1739.79 Q1809.41 1737.73 1809.41 1737.12 Q1809.41 1736.01 1810.53 1736.01 Q1811.3 1736.01 1814.03 1738.29 Q1816.81 1740.57 1820.97 1745.79 Q1825.2 1751.02 1828.31 1757.41 Q1835.82 1772.92 1835.82 1792.93 Q1835.82 1812.16 1828.65 1827.67 Q1825.59 1834.17 1821.31 1839.62 Q1817.03 1845.06 1814.19 1847.45 Q1811.36 1849.84 1810.53 1849.84 Q1809.41 1849.84 1809.41 1848.73 Z" fill="#000000" fill-rule="nonzero" fill-opacity="1" /><polyline clip-path="url(#clip800)" style="stroke:#000000; stroke-linecap:round; stroke-linejoin:round; stroke-width:4; stroke-opacity:1; fill:none" points="483.682,1565.89 483.682,170.992 "/>
<polyline clip-path="url(#clip800)" style="stroke:#000000; stroke-linecap:round; stroke-linejoin:round; stroke-width:4; stroke-opacity:1; fill:none" points="2352.76,1565.89 2352.76,170.992 "/>
<polyline clip-path="url(#clip800)" style="stroke:#000000; stroke-linecap:round; stroke-linejoin:round; stroke-width:4; stroke-opacity:1; fill:none" points="483.682,1365.09 502.579,1365.09 "/>
<polyline clip-path="url(#clip800)" style="stroke:#000000; stroke-linecap:round; stroke-linejoin:round; stroke-width:4; stroke-opacity:1; fill:none" points="483.682,1083.3 502.579,1083.3 "/>
<polyline clip-path="url(#clip800)" style="stroke:#000000; stroke-linecap:round; stroke-linejoin:round; stroke-width:4; stroke-opacity:1; fill:none" points="483.682,801.503 502.579,801.503 "/>
<polyline clip-path="url(#clip800)" style="stroke:#000000; stroke-linecap:round; stroke-linejoin:round; stroke-width:4; stroke-opacity:1; fill:none" points="483.682,519.709 502.579,519.709 "/>
<polyline clip-path="url(#clip800)" style="stroke:#000000; stroke-linecap:round; stroke-linejoin:round; stroke-width:4; stroke-opacity:1; fill:none" points="483.682,237.914 502.579,237.914 "/>
<polyline clip-path="url(#clip800)" style="stroke:#000000; stroke-linecap:round; stroke-linejoin:round; stroke-width:4; stroke-opacity:1; fill:none" points="2352.76,1365.09 2333.86,1365.09 "/>
<polyline clip-path="url(#clip800)" style="stroke:#000000; stroke-linecap:round; stroke-linejoin:round; stroke-width:4; stroke-opacity:1; fill:none" points="2352.76,1083.3 2333.86,1083.3 "/>
<polyline clip-path="url(#clip800)" style="stroke:#000000; stroke-linecap:round; stroke-linejoin:round; stroke-width:4; stroke-opacity:1; fill:none" points="2352.76,801.503 2333.86,801.503 "/>
<polyline clip-path="url(#clip800)" style="stroke:#000000; stroke-linecap:round; stroke-linejoin:round; stroke-width:4; stroke-opacity:1; fill:none" points="2352.76,519.709 2333.86,519.709 "/>
<polyline clip-path="url(#clip800)" style="stroke:#000000; stroke-linecap:round; stroke-linejoin:round; stroke-width:4; stroke-opacity:1; fill:none" points="2352.76,237.914 2333.86,237.914 "/>
<path clip-path="url(#clip800)" d="M293.73 1372.92 Q294.323 1373.52 294.323 1374.36 Q294.323 1375.2 293.73 1375.79 Q293.137 1376.38 292.297 1376.38 L228.958 1376.38 Q228.118 1376.38 227.525 1375.79 Q226.932 1375.2 226.932 1374.36 Q226.932 1373.52 227.525 1372.92 Q228.118 1372.33 228.958 1372.33 L292.297 1372.33 Q293.137 1372.33 293.73 1372.92 Z" fill="#000000" fill-rule="nonzero" fill-opacity="1" /><path clip-path="url(#clip800)" d="M304.204 1386.02 Q304.204 1383 305.934 1381.57 Q307.663 1380.14 309.886 1380.14 Q312.208 1380.14 313.839 1381.67 Q315.519 1383.15 315.519 1385.77 Q315.519 1388.58 313.542 1390.17 Q311.615 1391.75 308.849 1391.35 Q311.27 1395.4 315.716 1397.23 Q320.212 1399.06 324.362 1399.06 Q328.71 1399.06 332.218 1395.3 Q335.775 1391.55 335.775 1382.36 Q335.775 1374.55 332.712 1370.06 Q329.698 1365.56 323.72 1365.56 L319.273 1365.56 Q317.742 1365.56 317.297 1365.41 Q316.853 1365.26 316.853 1364.42 Q316.853 1363.44 318.384 1363.24 Q319.916 1363.24 322.337 1362.94 Q328.216 1362.74 331.329 1357.66 Q334.145 1352.91 334.145 1346.14 Q334.145 1339.97 331.18 1337.4 Q328.265 1334.78 324.461 1334.78 Q320.904 1334.78 317.001 1336.26 Q313.098 1337.74 310.973 1341.06 Q317.248 1341.06 317.248 1346.14 Q317.248 1348.37 315.815 1349.85 Q314.432 1351.28 312.109 1351.28 Q309.886 1351.28 308.404 1349.9 Q306.922 1348.47 306.922 1346.05 Q306.922 1340.26 312.06 1336.26 Q317.248 1332.26 324.856 1332.26 Q332.366 1332.26 337.9 1336.21 Q343.483 1340.17 343.483 1346.24 Q343.483 1352.22 339.53 1357.11 Q335.578 1362 329.303 1364.03 Q337.01 1365.56 341.605 1370.8 Q346.2 1375.99 346.2 1382.36 Q346.2 1390.26 339.975 1396.09 Q333.75 1401.87 324.659 1401.87 Q316.26 1401.87 310.232 1397.33 Q304.204 1392.78 304.204 1386.02 Z" fill="#000000" fill-rule="nonzero" fill-opacity="1" /><path clip-path="url(#clip800)" d="M354.5 1367.29 Q354.5 1352.42 358.255 1344.32 Q363.492 1332.26 375.844 1332.26 Q378.463 1332.26 381.18 1333 Q383.947 1333.69 387.405 1336.41 Q390.913 1339.13 393.038 1343.57 Q397.089 1352.17 397.089 1367.29 Q397.089 1382.06 393.334 1390.12 Q387.85 1401.87 375.745 1401.87 Q371.2 1401.87 366.556 1399.55 Q361.961 1397.23 359.046 1391.65 Q354.5 1383.3 354.5 1367.29 M362.9 1366.05 Q362.9 1381.32 363.987 1387.4 Q365.222 1393.97 368.581 1396.84 Q371.99 1399.65 375.745 1399.65 Q379.797 1399.65 383.156 1396.64 Q386.565 1393.57 387.603 1387 Q388.739 1380.53 388.69 1366.05 Q388.69 1351.97 387.702 1346.34 Q386.368 1339.77 382.81 1337.15 Q379.303 1334.48 375.745 1334.48 Q374.411 1334.48 372.979 1334.88 Q371.595 1335.27 369.569 1336.41 Q367.544 1337.55 365.963 1340.36 Q364.431 1343.18 363.69 1347.43 Q362.9 1352.91 362.9 1366.05 Z" fill="#000000" fill-rule="nonzero" fill-opacity="1" /><path clip-path="url(#clip800)" d="M405.093 1367.29 Q405.093 1352.42 408.848 1344.32 Q414.085 1332.26 426.437 1332.26 Q429.055 1332.26 431.773 1333 Q434.539 1333.69 437.998 1336.41 Q441.506 1339.13 443.63 1343.57 Q447.682 1352.17 447.682 1367.29 Q447.682 1382.06 443.927 1390.12 Q438.442 1401.87 426.338 1401.87 Q421.792 1401.87 417.148 1399.55 Q412.553 1397.23 409.638 1391.65 Q405.093 1383.3 405.093 1367.29 M413.492 1366.05 Q413.492 1381.32 414.579 1387.4 Q415.814 1393.97 419.174 1396.84 Q422.583 1399.65 426.338 1399.65 Q430.389 1399.65 433.749 1396.64 Q437.158 1393.57 438.195 1387 Q439.332 1380.53 439.282 1366.05 Q439.282 1351.97 438.294 1346.34 Q436.96 1339.77 433.403 1337.15 Q429.895 1334.48 426.338 1334.48 Q425.004 1334.48 423.571 1334.88 Q422.188 1335.27 420.162 1336.41 Q418.136 1337.55 416.555 1340.36 Q415.024 1343.18 414.283 1347.43 Q413.492 1352.91 413.492 1366.05 Z" fill="#000000" fill-rule="nonzero" fill-opacity="1" /><path clip-path="url(#clip800)" d="M293.73 1091.13 Q294.323 1091.72 294.323 1092.56 Q294.323 1093.4 293.73 1093.99 Q293.137 1094.59 292.297 1094.59 L228.958 1094.59 Q228.118 1094.59 227.525 1093.99 Q226.932 1093.4 226.932 1092.56 Q226.932 1091.72 227.525 1091.13 Q228.118 1090.54 228.958 1090.54 L292.297 1090.54 Q293.137 1090.54 293.73 1091.13 Z" fill="#000000" fill-rule="nonzero" fill-opacity="1" /><path clip-path="url(#clip800)" d="M304.995 1117.86 Q304.995 1116.03 305.143 1115.49 Q305.341 1114.94 306.131 1114.1 L325.548 1092.46 Q336.171 1080.51 336.171 1070.08 Q336.171 1063.31 332.613 1058.47 Q329.105 1053.63 322.633 1053.63 Q318.186 1053.63 314.432 1056.35 Q310.677 1059.06 308.947 1063.91 Q309.244 1063.81 310.281 1063.81 Q312.801 1063.81 314.185 1065.39 Q315.617 1066.97 315.617 1069.09 Q315.617 1071.81 313.839 1073.14 Q312.109 1074.43 310.38 1074.43 Q309.689 1074.43 308.75 1074.28 Q307.86 1074.13 306.428 1072.75 Q304.995 1071.32 304.995 1068.8 Q304.995 1061.73 310.331 1056.1 Q315.716 1050.47 323.918 1050.47 Q333.206 1050.47 339.283 1056 Q345.41 1061.48 345.41 1070.08 Q345.41 1073.09 344.471 1075.86 Q343.582 1078.58 342.346 1080.7 Q341.161 1082.83 337.9 1086.24 Q334.639 1089.65 332.02 1092.07 Q329.402 1094.49 323.522 1099.63 L312.801 1110.05 L331.032 1110.05 Q339.925 1110.05 340.617 1109.26 Q341.605 1107.83 342.84 1100.27 L345.41 1100.27 L342.544 1117.86 L304.995 1117.86 Z" fill="#000000" fill-rule="nonzero" fill-opacity="1" /><path clip-path="url(#clip800)" d="M354.5 1085.5 Q354.5 1070.62 358.255 1062.52 Q363.492 1050.47 375.844 1050.47 Q378.463 1050.47 381.18 1051.21 Q383.947 1051.9 387.405 1054.62 Q390.913 1057.33 393.038 1061.78 Q397.089 1070.38 397.089 1085.5 Q397.089 1100.27 393.334 1108.32 Q387.85 1120.08 375.745 1120.08 Q371.2 1120.08 366.556 1117.76 Q361.961 1115.44 359.046 1109.85 Q354.5 1101.5 354.5 1085.5 M362.9 1084.26 Q362.9 1099.53 363.987 1105.6 Q365.222 1112.18 368.581 1115.04 Q371.99 1117.86 375.745 1117.86 Q379.797 1117.86 383.156 1114.84 Q386.565 1111.78 387.603 1105.21 Q388.739 1098.74 388.69 1084.26 Q388.69 1070.18 387.702 1064.55 Q386.368 1057.98 382.81 1055.36 Q379.303 1052.69 375.745 1052.69 Q374.411 1052.69 372.979 1053.08 Q371.595 1053.48 369.569 1054.62 Q367.544 1055.75 365.963 1058.57 Q364.431 1061.39 363.69 1065.63 Q362.9 1071.12 362.9 1084.26 Z" fill="#000000" fill-rule="nonzero" fill-opacity="1" /><path clip-path="url(#clip800)" d="M405.093 1085.5 Q405.093 1070.62 408.848 1062.52 Q414.085 1050.47 426.437 1050.47 Q429.055 1050.47 431.773 1051.21 Q434.539 1051.9 437.998 1054.62 Q441.506 1057.33 443.63 1061.78 Q447.682 1070.38 447.682 1085.5 Q447.682 1100.27 443.927 1108.32 Q438.442 1120.08 426.338 1120.08 Q421.792 1120.08 417.148 1117.76 Q412.553 1115.44 409.638 1109.85 Q405.093 1101.5 405.093 1085.5 M413.492 1084.26 Q413.492 1099.53 414.579 1105.6 Q415.814 1112.18 419.174 1115.04 Q422.583 1117.86 426.338 1117.86 Q430.389 1117.86 433.749 1114.84 Q437.158 1111.78 438.195 1105.21 Q439.332 1098.74 439.282 1084.26 Q439.282 1070.18 438.294 1064.55 Q436.96 1057.98 433.403 1055.36 Q429.895 1052.69 426.338 1052.69 Q425.004 1052.69 423.571 1053.08 Q422.188 1053.48 420.162 1054.62 Q418.136 1055.75 416.555 1058.57 Q415.024 1061.39 414.283 1065.63 Q413.492 1071.12 413.492 1084.26 Z" fill="#000000" fill-rule="nonzero" fill-opacity="1" /><path clip-path="url(#clip800)" d="M293.73 809.334 Q294.323 809.927 294.323 810.767 Q294.323 811.607 293.73 812.199 Q293.137 812.792 292.297 812.792 L228.958 812.792 Q228.118 812.792 227.525 812.199 Q226.932 811.607 226.932 810.767 Q226.932 809.927 227.525 809.334 Q228.118 808.741 228.958 808.741 L292.297 808.741 Q293.137 808.741 293.73 809.334 Z" fill="#000000" fill-rule="nonzero" fill-opacity="1" /><path clip-path="url(#clip800)" d="M308.947 778.306 L308.947 775.144 Q321.101 775.144 327.376 768.672 Q329.105 768.672 329.402 769.067 Q329.698 769.463 329.698 771.291 L329.698 828.059 Q329.698 831.073 331.18 832.012 Q332.663 832.95 339.135 832.95 L342.346 832.95 L342.346 836.063 Q338.789 835.766 325.943 835.766 Q313.098 835.766 309.59 836.063 L309.59 832.95 L312.801 832.95 Q319.175 832.95 320.706 832.061 Q322.238 831.122 322.238 828.059 L322.238 775.638 Q316.951 778.306 308.947 778.306 Z" fill="#000000" fill-rule="nonzero" fill-opacity="1" /><path clip-path="url(#clip800)" d="M354.5 803.701 Q354.5 788.83 358.255 780.727 Q363.492 768.672 375.844 768.672 Q378.463 768.672 381.18 769.413 Q383.947 770.105 387.405 772.822 Q390.913 775.54 393.038 779.986 Q397.089 788.583 397.089 803.701 Q397.089 818.474 393.334 826.527 Q387.85 838.286 375.745 838.286 Q371.2 838.286 366.556 835.964 Q361.961 833.642 359.046 828.059 Q354.5 819.709 354.5 803.701 M362.9 802.466 Q362.9 817.733 363.987 823.81 Q365.222 830.381 368.581 833.247 Q371.99 836.063 375.745 836.063 Q379.797 836.063 383.156 833.049 Q386.565 829.986 387.603 823.415 Q388.739 816.942 388.69 802.466 Q388.69 788.385 387.702 782.753 Q386.368 776.182 382.81 773.563 Q379.303 770.895 375.745 770.895 Q374.411 770.895 372.979 771.291 Q371.595 771.686 369.569 772.822 Q367.544 773.959 365.963 776.775 Q364.431 779.591 363.69 783.84 Q362.9 789.324 362.9 802.466 Z" fill="#000000" fill-rule="nonzero" fill-opacity="1" /><path clip-path="url(#clip800)" d="M405.093 803.701 Q405.093 788.83 408.848 780.727 Q414.085 768.672 426.437 768.672 Q429.055 768.672 431.773 769.413 Q434.539 770.105 437.998 772.822 Q441.506 775.54 443.63 779.986 Q447.682 788.583 447.682 803.701 Q447.682 818.474 443.927 826.527 Q438.442 838.286 426.338 838.286 Q421.792 838.286 417.148 835.964 Q412.553 833.642 409.638 828.059 Q405.093 819.709 405.093 803.701 M413.492 802.466 Q413.492 817.733 414.579 823.81 Q415.814 830.381 419.174 833.247 Q422.583 836.063 426.338 836.063 Q430.389 836.063 433.749 833.049 Q437.158 829.986 438.195 823.415 Q439.332 816.942 439.282 802.466 Q439.282 788.385 438.294 782.753 Q436.96 776.182 433.403 773.563 Q429.895 770.895 426.338 770.895 Q425.004 770.895 423.571 771.291 Q422.188 771.686 420.162 772.822 Q418.136 773.959 416.555 776.775 Q415.024 779.591 414.283 783.84 Q413.492 789.324 413.492 802.466 Z" fill="#000000" fill-rule="nonzero" fill-opacity="1" /><path clip-path="url(#clip800)" d="M405.093 521.907 Q405.093 507.036 408.848 498.933 Q414.085 486.878 426.437 486.878 Q429.055 486.878 431.773 487.619 Q434.539 488.311 437.998 491.028 Q441.506 493.745 443.63 498.192 Q447.682 506.789 447.682 521.907 Q447.682 536.68 443.927 544.733 Q438.442 556.492 426.338 556.492 Q421.792 556.492 417.148 554.17 Q412.553 551.848 409.638 546.265 Q405.093 537.915 405.093 521.907 M413.492 520.672 Q413.492 535.939 414.579 542.016 Q415.814 548.587 419.174 551.452 Q422.583 554.269 426.338 554.269 Q430.389 554.269 433.749 551.255 Q437.158 548.192 438.195 541.62 Q439.332 535.148 439.282 520.672 Q439.282 506.591 438.294 500.959 Q436.96 494.388 433.403 491.769 Q429.895 489.101 426.338 489.101 Q425.004 489.101 423.571 489.496 Q422.188 489.892 420.162 491.028 Q418.136 492.164 416.555 494.981 Q415.024 497.797 414.283 502.046 Q413.492 507.53 413.492 520.672 Z" fill="#000000" fill-rule="nonzero" fill-opacity="1" /><path clip-path="url(#clip800)" d="M308.947 214.718 L308.947 211.556 Q321.101 211.556 327.376 205.084 Q329.105 205.084 329.402 205.479 Q329.698 205.874 329.698 207.702 L329.698 264.47 Q329.698 267.484 331.18 268.423 Q332.663 269.362 339.135 269.362 L342.346 269.362 L342.346 272.474 Q338.789 272.178 325.943 272.178 Q313.098 272.178 309.59 272.474 L309.59 269.362 L312.801 269.362 Q319.175 269.362 320.706 268.472 Q322.238 267.534 322.238 264.47 L322.238 212.05 Q316.951 214.718 308.947 214.718 Z" fill="#000000" fill-rule="nonzero" fill-opacity="1" /><path clip-path="url(#clip800)" d="M354.5 240.113 Q354.5 225.241 358.255 217.139 Q363.492 205.084 375.844 205.084 Q378.463 205.084 381.18 205.825 Q383.947 206.516 387.405 209.234 Q390.913 211.951 393.038 216.398 Q397.089 224.994 397.089 240.113 Q397.089 254.885 393.334 262.939 Q387.85 274.698 375.745 274.698 Q371.2 274.698 366.556 272.375 Q361.961 270.053 359.046 264.47 Q354.5 256.121 354.5 240.113 M362.9 238.878 Q362.9 254.144 363.987 260.221 Q365.222 266.793 368.581 269.658 Q371.99 272.474 375.745 272.474 Q379.797 272.474 383.156 269.46 Q386.565 266.397 387.603 259.826 Q388.739 253.354 388.69 238.878 Q388.69 224.797 387.702 219.164 Q386.368 212.593 382.81 209.975 Q379.303 207.307 375.745 207.307 Q374.411 207.307 372.979 207.702 Q371.595 208.097 369.569 209.234 Q367.544 210.37 365.963 213.186 Q364.431 216.002 363.69 220.251 Q362.9 225.736 362.9 238.878 Z" fill="#000000" fill-rule="nonzero" fill-opacity="1" /><path clip-path="url(#clip800)" d="M405.093 240.113 Q405.093 225.241 408.848 217.139 Q414.085 205.084 426.437 205.084 Q429.055 205.084 431.773 205.825 Q434.539 206.516 437.998 209.234 Q441.506 211.951 443.63 216.398 Q447.682 224.994 447.682 240.113 Q447.682 254.885 443.927 262.939 Q438.442 274.698 426.338 274.698 Q421.792 274.698 417.148 272.375 Q412.553 270.053 409.638 264.47 Q405.093 256.121 405.093 240.113 M413.492 238.878 Q413.492 254.144 414.579 260.221 Q415.814 266.793 419.174 269.658 Q422.583 272.474 426.338 272.474 Q430.389 272.474 433.749 269.46 Q437.158 266.397 438.195 259.826 Q439.332 253.354 439.282 238.878 Q439.282 224.797 438.294 219.164 Q436.96 212.593 433.403 209.975 Q429.895 207.307 426.338 207.307 Q425.004 207.307 423.571 207.702 Q422.188 208.097 420.162 209.234 Q418.136 210.37 416.555 213.186 Q415.024 216.002 414.283 220.251 Q413.492 225.736 413.492 238.878 Z" fill="#000000" fill-rule="nonzero" fill-opacity="1" /><path clip-path="url(#clip800)" d="M167.604 1298.82 L164.103 1298.82 L164.103 1296.09 Q164.103 1289.92 163.102 1288.54 Q162.046 1287.09 158.711 1287.09 L98.7375 1287.09 Q95.4581 1287.09 94.4576 1288.54 Q93.4016 1289.98 93.4016 1296.09 L93.4016 1298.82 L89.8443 1298.82 L89.8443 1263.08 Q89.8443 1250.68 95.9584 1242.07 Q102.017 1233.4 110.354 1233.4 Q116.746 1233.4 121.749 1239.01 Q126.751 1244.62 128.919 1253.3 Q132.81 1242.01 142.092 1239.4 L151.207 1237.95 Q154.487 1237.51 156.154 1237.23 Q157.822 1236.9 160.101 1236.4 Q162.38 1235.9 163.491 1235.4 Q164.547 1234.84 165.714 1234.06 Q166.826 1233.29 167.215 1232.29 Q167.604 1231.23 167.604 1229.84 Q167.604 1227.23 165.27 1225 Q162.935 1222.78 157.488 1222.34 Q155.654 1222.11 155.654 1220.95 Q155.654 1219.5 157.488 1219.5 Q159.1 1219.5 160.99 1219.95 Q162.824 1220.39 164.992 1221.5 Q167.16 1222.56 168.605 1224.89 Q170.105 1227.23 170.105 1230.28 Q170.105 1239.18 165.325 1244.62 Q163.269 1246.9 160.601 1247.96 Q157.933 1248.96 155.821 1249.13 Q153.709 1249.29 149.04 1249.29 Q142.425 1249.29 139.535 1250.02 Q136.645 1250.68 133.81 1253.63 Q129.919 1257.63 129.919 1264.25 L129.919 1277.31 L158.711 1277.31 Q161.99 1277.31 163.047 1275.92 Q164.103 1274.47 164.103 1268.3 L164.103 1265.58 L167.604 1265.58 Q167.271 1269.69 167.271 1282.2 Q167.271 1294.7 167.604 1298.82 M127.418 1277.31 L127.418 1264.69 Q127.418 1258.63 125.973 1254.57 Q124.472 1250.46 121.804 1248.52 Q119.136 1246.57 116.468 1245.85 Q113.745 1245.13 110.354 1245.13 Q106.352 1245.13 103.351 1246.01 Q100.349 1246.9 98.5707 1248.85 Q96.7921 1250.79 95.6805 1252.74 Q94.5132 1254.69 94.0686 1257.69 Q93.6239 1260.69 93.5127 1262.74 Q93.4016 1264.8 93.4016 1268.08 Q93.4016 1273.64 93.6239 1274.81 Q93.7351 1276.08 94.3465 1276.58 Q94.9579 1277.09 95.6805 1277.2 Q96.3474 1277.31 97.9593 1277.31 L127.418 1277.31 Z" fill="#000000" fill-rule="nonzero" fill-opacity="1" /><path clip-path="url(#clip800)" d="M142.537 1215.89 Q131.809 1215.89 124.194 1209 Q116.579 1202.1 116.579 1192.21 Q116.579 1182.21 123.083 1177.04 Q129.586 1171.81 138.924 1171.81 Q140.647 1171.81 140.98 1172.26 Q141.314 1172.7 141.314 1174.65 L141.314 1206.44 Q152.93 1206.44 158.378 1202.99 Q165.992 1198.21 165.992 1190.15 Q165.992 1189.04 165.77 1187.71 Q165.548 1186.37 164.603 1183.65 Q163.602 1180.93 160.99 1178.54 Q158.378 1176.15 154.264 1174.76 Q152.653 1174.42 152.708 1173.31 Q152.708 1171.81 154.042 1171.81 Q155.043 1171.81 157.322 1172.92 Q159.545 1173.98 162.213 1176.04 Q164.881 1178.09 166.882 1182.09 Q168.883 1186.04 168.883 1190.82 Q168.883 1200.83 161.323 1208.39 Q153.709 1215.89 142.537 1215.89 M138.924 1206.33 L138.924 1179.32 Q136.534 1179.32 133.866 1179.76 Q131.198 1180.15 127.529 1181.37 Q123.805 1182.54 121.471 1185.32 Q119.136 1188.1 119.136 1192.21 Q119.136 1194.04 119.914 1196.05 Q120.693 1197.99 122.582 1200.38 Q124.472 1202.77 128.752 1204.44 Q133.032 1206.11 138.924 1206.33 Z" fill="#000000" fill-rule="nonzero" fill-opacity="1" /><path clip-path="url(#clip800)" d="M166.104 1164.75 L151.096 1164.75 Q149.818 1164.75 149.373 1164.7 Q148.929 1164.64 148.595 1164.31 Q148.262 1163.97 148.262 1163.31 Q148.262 1162.53 148.595 1162.25 Q148.929 1161.92 150.207 1161.7 Q158.044 1159.97 162.213 1156.3 Q166.326 1152.58 166.326 1145.85 Q166.326 1139.46 163.491 1136.24 Q160.656 1133.02 155.988 1133.02 Q147.65 1133.02 145.538 1144.85 Q144.148 1151.69 143.259 1154.53 Q142.314 1157.36 140.258 1159.86 Q136.256 1164.75 130.586 1164.75 Q124.917 1164.75 120.748 1160.47 Q116.579 1156.14 116.579 1146.58 Q116.579 1140.19 119.803 1135.85 Q118.803 1134.57 117.969 1133.9 Q116.579 1132.4 116.579 1131.63 Q116.579 1130.74 117.191 1130.57 Q117.747 1130.4 119.359 1130.4 L130.809 1130.4 Q132.087 1130.4 132.532 1130.46 Q132.976 1130.51 133.31 1130.85 Q133.588 1131.18 133.588 1131.9 Q133.588 1133.18 132.532 1133.24 Q118.747 1134.13 118.747 1146.58 Q118.747 1153.3 121.36 1156.3 Q123.916 1159.31 127.418 1159.31 Q129.363 1159.31 130.864 1158.42 Q132.309 1157.47 133.199 1156.3 Q134.032 1155.08 134.866 1152.86 Q135.644 1150.63 135.922 1149.3 Q136.2 1147.91 136.756 1145.3 Q138.479 1136.18 142.203 1132.35 Q146.983 1127.57 153.042 1127.57 Q159.767 1127.57 164.325 1132.13 Q168.883 1136.68 168.883 1145.85 Q168.883 1153.25 163.936 1158.42 Q164.603 1159.08 165.214 1159.58 Q165.77 1160.08 165.992 1160.31 Q166.215 1160.47 166.381 1160.53 Q166.493 1160.58 166.604 1160.7 Q168.883 1162.97 168.883 1163.53 Q168.883 1164.42 168.271 1164.59 Q167.715 1164.75 166.104 1164.75 Z" fill="#000000" fill-rule="nonzero" fill-opacity="1" /><path clip-path="url(#clip800)" d="M167.604 1119.95 L164.103 1119.95 Q164.103 1113.89 163.38 1112.51 Q162.602 1111.12 158.933 1111.12 L128.307 1111.12 Q124.083 1111.12 123.083 1112.56 Q122.082 1113.95 122.082 1119.51 L118.525 1119.51 L117.302 1103.61 L159.045 1103.61 Q162.435 1103.61 163.269 1102.39 Q164.103 1101.17 164.103 1095.61 L167.604 1095.61 Q167.271 1107.22 167.271 1107.45 Q167.271 1109 167.604 1119.95 M97.4591 1115.17 Q95.1802 1115.17 93.346 1113.45 Q91.4562 1111.67 91.4562 1109.17 Q91.4562 1106.67 93.1792 1104.89 Q94.8467 1103.11 97.5147 1103.11 Q100.127 1103.11 101.85 1104.89 Q103.518 1106.67 103.518 1109.17 Q103.518 1111.78 101.683 1113.51 Q99.8491 1115.17 97.4591 1115.17 Z" fill="#000000" fill-rule="nonzero" fill-opacity="1" /><path clip-path="url(#clip800)" d="M143.148 1088.33 Q132.309 1088.33 124.806 1080.77 Q117.302 1073.21 117.302 1062.98 Q117.302 1054.31 124.361 1048.64 L99.738 1048.64 Q95.5137 1048.64 94.4576 1050.14 Q93.4016 1051.59 93.4016 1057.48 L89.8443 1057.48 L88.6215 1041.08 L157.711 1041.08 Q161.935 1041.08 163.047 1039.64 Q164.103 1038.14 164.103 1032.24 L167.604 1032.24 L168.883 1048.97 L161.323 1048.97 Q168.827 1054.87 168.883 1064.2 Q168.883 1073.99 161.379 1081.16 Q153.875 1088.33 143.148 1088.33 M143.259 1078.88 Q153.82 1078.88 159.045 1075.6 Q166.326 1071.04 166.326 1063.65 Q166.326 1055.2 158.378 1050.2 Q156.432 1048.92 154.153 1048.97 L130.809 1048.97 Q128.53 1048.97 126.64 1050.2 Q119.803 1054.87 119.803 1062.48 Q119.803 1070.43 127.085 1075.38 Q132.532 1078.88 143.259 1078.88 Z" fill="#000000" fill-rule="nonzero" fill-opacity="1" /><path clip-path="url(#clip800)" d="M122.082 1025.41 L118.525 1025.41 L117.302 1008.68 L155.098 1008.68 Q157.822 1008.68 159.434 1008.45 Q160.99 1008.23 162.824 1007.34 Q164.658 1006.4 165.492 1004.29 Q166.326 1002.12 166.326 998.672 Q166.326 992.502 161.268 988.723 Q156.21 984.888 148.706 984.888 L128.419 984.888 Q124.194 984.888 123.138 986.388 Q122.082 987.889 122.082 993.781 L118.525 993.781 L117.302 977.05 L157.711 977.05 Q161.935 977.05 163.047 975.605 Q164.103 974.105 164.103 968.157 L167.604 968.157 L168.883 984.554 L158.6 984.554 Q168.827 989.334 168.883 999.228 Q168.883 1004.23 167.604 1007.68 Q166.326 1011.07 164.77 1012.79 Q163.158 1014.51 160.101 1015.46 Q157.044 1016.35 155.154 1016.46 Q153.264 1016.57 149.596 1016.57 L132.532 1016.57 Q124.806 1016.57 123.472 1017.68 Q122.082 1018.79 122.082 1025.41 Z" fill="#000000" fill-rule="nonzero" fill-opacity="1" /><path clip-path="url(#clip800)" d="M156.766 961.154 Q147.094 961.154 141.981 949.759 Q138.701 942.923 137.868 928.805 L133.699 928.805 Q126.64 928.805 122.916 932.529 Q119.136 936.197 119.136 940.866 Q119.136 949.204 124.361 953.206 Q124.472 949.815 126.195 948.592 Q127.863 947.369 129.586 947.369 Q131.865 947.369 133.365 948.815 Q134.811 950.204 134.811 952.594 Q134.811 954.873 133.421 956.374 Q131.976 957.874 129.475 957.874 Q123.916 957.874 120.248 952.872 Q116.579 947.814 116.579 940.644 Q116.579 931.306 122.86 925.081 Q124.806 923.135 127.307 922.19 Q129.808 921.19 131.476 921.079 Q133.088 920.968 136.311 920.968 L159.045 920.968 Q159.712 920.968 160.823 920.745 Q161.935 920.523 163.38 919.523 Q164.77 918.466 164.77 916.743 Q164.77 912.63 157.488 912.686 L151.096 912.686 L151.096 909.796 L157.488 909.796 Q163.547 909.796 165.937 913.019 Q168.271 916.188 168.271 919.133 Q168.271 922.913 165.492 925.303 Q162.713 927.693 158.933 928.027 Q163.269 929.75 166.104 933.696 Q168.883 937.587 168.883 942.923 Q168.883 947.036 167.827 950.927 Q166.826 954.762 163.991 957.986 Q161.101 961.154 156.766 961.154 M156.655 952.372 Q160.879 952.372 163.602 949.37 Q166.326 946.369 166.326 942.145 Q166.326 937.365 162.657 933.085 Q158.933 928.805 151.652 928.805 L140.258 928.805 Q140.702 941.422 145.76 946.925 Q150.763 952.372 156.655 952.372 Z" fill="#000000" fill-rule="nonzero" fill-opacity="1" /><path clip-path="url(#clip800)" d="M167.604 905.238 L164.103 905.238 Q164.103 899.179 163.38 897.79 Q162.602 896.4 158.933 896.4 L99.738 896.4 Q95.5137 896.4 94.4576 897.901 Q93.4016 899.346 93.4016 905.238 L89.8443 905.238 L88.6215 888.897 L158.933 888.897 Q162.602 888.897 163.38 887.451 Q164.103 886.006 164.103 880.003 L167.604 880.003 Q167.604 881.393 167.493 884.283 Q167.382 887.173 167.326 889.286 Q167.271 891.398 167.271 892.621 Q167.271 893.955 167.604 905.238 Z" fill="#000000" fill-rule="nonzero" fill-opacity="1" /><path clip-path="url(#clip800)" d="M166.104 873.722 L151.096 873.722 Q149.818 873.722 149.373 873.667 Q148.929 873.611 148.595 873.278 Q148.262 872.944 148.262 872.277 Q148.262 871.499 148.595 871.221 Q148.929 870.888 150.207 870.665 Q158.044 868.942 162.213 865.274 Q166.326 861.55 166.326 854.824 Q166.326 848.432 163.491 845.209 Q160.656 841.985 155.988 841.985 Q147.65 841.985 145.538 853.824 Q144.148 860.661 143.259 863.495 Q142.314 866.33 140.258 868.831 Q136.256 873.722 130.586 873.722 Q124.917 873.722 120.748 869.443 Q116.579 865.107 116.579 855.547 Q116.579 849.155 119.803 844.82 Q118.803 843.541 117.969 842.874 Q116.579 841.373 116.579 840.595 Q116.579 839.706 117.191 839.539 Q117.747 839.372 119.359 839.372 L130.809 839.372 Q132.087 839.372 132.532 839.428 Q132.976 839.484 133.31 839.817 Q133.588 840.151 133.588 840.873 Q133.588 842.152 132.532 842.207 Q118.747 843.096 118.747 855.547 Q118.747 862.272 121.36 865.274 Q123.916 868.275 127.418 868.275 Q129.363 868.275 130.864 867.386 Q132.309 866.441 133.199 865.274 Q134.032 864.051 134.866 861.828 Q135.644 859.605 135.922 858.271 Q136.2 856.881 136.756 854.269 Q138.479 845.153 142.203 841.318 Q146.983 836.538 153.042 836.538 Q159.767 836.538 164.325 841.096 Q168.883 845.653 168.883 854.824 Q168.883 862.217 163.936 867.386 Q164.603 868.053 165.214 868.553 Q165.77 869.054 165.992 869.276 Q166.215 869.443 166.381 869.498 Q166.493 869.554 166.604 869.665 Q168.883 871.944 168.883 872.5 Q168.883 873.389 168.271 873.556 Q167.715 873.722 166.104 873.722 Z" fill="#000000" fill-rule="nonzero" fill-opacity="1" /><path clip-path="url(#clip800)" d="M139.146 783.568 Q119.914 783.568 104.407 776.397 Q97.9038 773.34 92.4567 769.061 Q87.0096 764.781 84.6195 761.946 Q82.2295 759.111 82.2295 758.333 Q82.2295 757.221 83.3411 757.166 Q83.8969 757.166 85.2865 758.667 Q103.962 777.009 139.146 776.953 Q174.441 776.953 192.394 759.111 Q194.339 757.166 194.951 757.166 Q196.063 757.166 196.063 758.333 Q196.063 759.111 193.784 761.835 Q191.505 764.558 186.28 768.783 Q181.055 773.007 174.663 776.064 Q159.156 783.568 139.146 783.568 Z" fill="#000000" fill-rule="nonzero" fill-opacity="1" /><path clip-path="url(#clip800)" d="M167.604 747.05 L164.103 747.05 Q164.103 740.991 163.38 739.602 Q162.602 738.212 158.933 738.212 L128.419 738.212 Q124.194 738.212 123.138 739.713 Q122.082 741.158 122.082 747.05 L118.525 747.05 L117.302 731.042 L129.252 731.042 Q117.302 725.706 117.302 714.201 Q117.302 700.861 128.419 699.026 Q124.083 697.081 120.693 693.024 Q117.302 688.91 117.302 682.518 Q117.302 673.959 121.526 670.568 Q124.361 668.067 127.529 667.567 Q130.697 667.067 138.924 667.067 L160.656 667.067 Q163.047 666.955 163.602 665.121 Q164.103 663.287 164.103 658.173 L167.604 658.173 Q167.271 669.79 167.271 670.902 Q167.271 671.791 167.604 683.797 L164.103 683.797 Q164.103 677.738 163.38 676.349 Q162.602 674.904 158.933 674.904 L132.421 674.904 Q126.64 674.904 123.249 676.682 Q119.803 678.461 119.803 683.352 Q119.803 689.244 124.75 693.968 Q129.697 698.693 138.034 698.693 L158.933 698.693 Q162.602 698.693 163.38 697.303 Q164.103 695.858 164.103 689.8 L167.604 689.8 Q167.271 701.417 167.271 702.584 Q167.271 703.473 167.604 715.423 L164.103 715.423 Q164.103 709.365 163.38 707.975 Q162.602 706.53 158.933 706.53 L132.421 706.53 Q126.64 706.53 123.249 708.309 Q119.803 710.087 119.803 714.979 Q119.803 720.87 124.75 725.595 Q129.697 730.319 138.034 730.319 L158.933 730.319 Q162.602 730.319 163.38 728.93 Q164.103 727.485 164.103 721.482 L167.604 721.482 Q167.271 733.099 167.271 734.21 Q167.271 735.1 167.604 747.05 Z" fill="#000000" fill-rule="nonzero" fill-opacity="1" /><path clip-path="url(#clip800)" d="M176.609 652.782 Q172.94 652.782 169.772 650.003 Q166.604 647.168 165.214 642.277 Q162.046 647.279 155.098 647.279 Q149.762 647.279 145.649 643.777 Q141.203 649.113 133.921 649.113 Q127.196 649.113 122.249 643.777 Q117.302 638.442 117.302 630.66 Q117.302 623.823 121.415 618.599 Q116.079 613.151 116.024 606.537 Q116.024 603.591 117.858 602.202 Q119.692 600.757 121.638 600.757 Q123.361 600.757 124.194 601.868 Q125.028 602.924 125.028 604.036 Q125.028 605.425 124.139 606.426 Q123.194 607.371 121.749 607.371 Q119.359 607.371 118.636 605.537 Q118.525 605.87 118.525 606.648 Q118.525 612.207 122.971 616.931 Q127.307 612.262 134.032 612.262 Q140.758 612.262 145.705 617.598 Q150.652 622.934 150.652 630.66 Q150.652 637.052 147.094 641.943 Q149.373 643.889 152.486 643.889 Q155.321 643.889 157.544 642.166 Q159.767 640.442 160.101 637.83 Q160.212 637.052 160.212 629.326 Q160.212 624.768 160.323 622.267 Q160.434 619.766 161.212 616.208 Q161.935 612.596 163.38 609.761 Q167.493 602.368 176.386 602.313 Q182.889 602.313 186.947 609.816 Q191.06 617.265 191.06 627.603 Q191.06 638.052 186.891 645.445 Q182.778 652.782 176.609 652.782 M176.609 646.834 Q181.278 646.834 184.835 641.332 Q188.448 635.829 188.448 627.492 Q188.448 619.321 184.89 613.818 Q181.389 608.26 176.609 608.26 Q173.218 608.26 171.05 610.206 Q168.883 612.151 167.993 616.153 Q167.16 620.099 166.993 622.878 Q166.826 625.658 166.826 630.771 L166.826 637.497 Q167.048 641.387 169.883 644.111 Q172.718 646.834 176.609 646.834 M134.032 640.609 Q148.039 640.609 148.039 630.66 Q148.039 625.658 143.481 622.6 Q140.424 620.766 133.921 620.766 Q119.914 620.766 119.914 630.66 Q119.914 635.662 124.472 638.775 Q127.529 640.609 134.032 640.609 Z" fill="#000000" fill-rule="nonzero" fill-opacity="1" /><path clip-path="url(#clip800)" d="M194.451 592.53 Q193.895 592.53 192.672 592.086 L85.2865 551.899 Q85.1753 551.899 84.5639 551.622 Q83.9525 551.344 83.5635 551.177 Q83.1188 551.01 82.7853 550.677 Q82.4518 550.288 82.4518 549.843 Q82.4518 548.731 83.8414 548.731 Q83.9525 548.731 85.2865 549.065 L192.783 589.362 Q194.729 590.029 195.284 590.474 Q195.84 590.863 195.84 591.53 Q195.84 592.53 194.451 592.53 Z" fill="#000000" fill-rule="nonzero" fill-opacity="1" /><path clip-path="url(#clip800)" d="M167.604 538.337 L164.103 538.337 L164.103 535.614 Q164.103 529.444 163.102 528.055 Q162.046 526.609 158.711 526.609 L98.7375 526.609 Q95.4581 526.609 94.4576 528.055 Q93.4016 529.5 93.4016 535.614 L93.4016 538.337 L89.8443 538.337 Q90.1778 534.335 90.1778 521.051 Q90.1778 506.044 89.8443 501.931 L93.4016 501.931 L93.4016 505.71 Q93.4016 510.935 94.0686 513.325 Q94.7355 515.715 95.6805 516.104 Q96.5698 516.493 98.8487 516.493 L159.545 516.493 Q162.491 516.493 163.324 515.66 Q164.103 514.77 164.103 510.935 L164.103 501.597 Q164.103 495.817 162.38 491.648 Q160.656 487.479 158.489 485.256 Q156.321 483.033 152.263 481.588 Q148.15 480.087 145.538 479.642 Q142.926 479.142 138.257 478.697 L138.257 475.863 L167.604 479.031 L167.604 538.337 Z" fill="#000000" fill-rule="nonzero" fill-opacity="1" /><path clip-path="url(#clip800)" d="M194.951 464.468 Q194.395 464.468 193.006 463.023 Q174.33 444.681 139.146 444.681 Q103.851 444.681 86.0091 462.3 Q83.9525 464.468 83.3411 464.468 Q82.2295 464.468 82.2295 463.356 Q82.2295 462.578 84.5084 459.855 Q86.7872 457.076 92.012 452.907 Q97.2368 448.683 103.629 445.57 Q119.136 438.066 139.146 438.066 Q158.378 438.066 173.885 445.237 Q180.388 448.294 185.835 452.573 Q191.282 456.853 193.673 459.688 Q196.063 462.523 196.063 463.356 Q196.063 464.468 194.951 464.468 Z" fill="#000000" fill-rule="nonzero" fill-opacity="1" /><path clip-path="url(#clip800)" d="M861.343 103.68 L861.343 99.7892 L864.369 99.7892 Q871.225 99.7892 872.769 98.6776 Q874.374 97.5042 874.374 93.7987 L874.374 27.1613 Q874.374 23.5176 872.769 22.4059 Q871.163 21.2325 864.369 21.2325 L861.343 21.2325 L861.343 17.28 L901.054 17.28 Q914.826 17.28 924.399 24.0734 Q934.033 30.8051 934.033 40.0688 Q934.033 47.1711 927.795 52.7293 Q921.558 58.2876 911.923 60.6962 Q924.46 65.0192 927.363 75.3329 L928.969 85.4613 Q929.463 89.105 929.772 90.9578 Q930.142 92.8105 930.698 95.3426 Q931.254 97.8747 931.81 99.1099 Q932.427 100.283 933.292 101.58 Q934.156 102.815 935.268 103.248 Q936.441 103.68 937.985 103.68 Q940.888 103.68 943.358 101.086 Q945.829 98.4923 946.323 92.44 Q946.57 90.4019 947.867 90.4019 Q949.472 90.4019 949.472 92.44 Q949.472 94.231 948.978 96.3308 Q948.484 98.3688 947.249 100.777 Q946.076 103.186 943.482 104.792 Q940.888 106.459 937.491 106.459 Q927.61 106.459 921.558 101.148 Q919.026 98.8628 917.852 95.8984 Q916.741 92.934 916.555 90.5872 Q916.37 88.2404 916.37 83.0527 Q916.37 75.7034 915.567 72.492 Q914.826 69.2806 911.553 66.1309 Q907.106 61.8078 899.757 61.8078 L885.244 61.8078 L885.244 93.7987 Q885.244 97.4424 886.788 98.6158 Q888.393 99.7892 895.249 99.7892 L898.275 99.7892 L898.275 103.68 Q893.705 103.309 879.809 103.309 Q865.913 103.309 861.343 103.68 M885.244 59.0287 L899.263 59.0287 Q905.995 59.0287 910.503 57.423 Q915.073 55.7555 917.235 52.7911 Q919.396 49.8267 920.199 46.8623 Q921.002 43.8361 921.002 40.0688 Q921.002 35.6222 920.014 32.2873 Q919.026 28.9523 916.864 26.9761 Q914.702 24.9998 912.541 23.7646 Q910.379 22.4677 907.044 21.9736 Q903.709 21.4796 901.424 21.3561 Q899.139 21.2325 895.496 21.2325 Q889.32 21.2325 888.023 21.4796 Q886.602 21.6031 886.047 22.2824 Q885.491 22.9618 885.367 23.7646 Q885.244 24.5057 885.244 26.2967 L885.244 59.0287 Z" fill="#000000" fill-rule="nonzero" fill-opacity="1" /><path clip-path="url(#clip800)" d="M953.487 75.827 Q953.487 63.9076 961.145 55.4467 Q968.803 46.9858 979.796 46.9858 Q990.912 46.9858 996.656 54.2115 Q1002.46 61.4373 1002.46 71.8127 Q1002.46 73.7272 1001.97 74.0977 Q1001.47 74.4683 999.311 74.4683 L963.986 74.4683 Q963.986 87.3758 967.815 93.4281 Q973.126 101.889 982.081 101.889 Q983.316 101.889 984.798 101.642 Q986.28 101.395 989.307 100.345 Q992.333 99.2334 994.988 96.3308 Q997.644 93.4281 999.188 88.858 Q999.559 87.067 1000.79 87.1287 Q1002.46 87.1287 1002.46 88.611 Q1002.46 89.7226 1001.23 92.2547 Q1000.05 94.725 997.768 97.6894 Q995.482 100.654 991.036 102.877 Q986.651 105.1 981.34 105.1 Q970.223 105.1 961.824 96.7013 Q953.487 88.2404 953.487 75.827 M964.109 71.8127 L994.124 71.8127 Q994.124 69.1571 993.63 66.1927 Q993.197 63.2282 991.839 59.1522 Q990.542 55.0144 987.454 52.4205 Q984.366 49.8267 979.796 49.8267 Q977.758 49.8267 975.535 50.6913 Q973.373 51.5559 970.717 53.6557 Q968.062 55.7555 966.209 60.5109 Q964.356 65.2663 964.109 71.8127 Z" fill="#000000" fill-rule="nonzero" fill-opacity="1" /><path clip-path="url(#clip800)" d="M1010.3 102.013 L1010.3 85.3378 Q1010.3 83.9173 1010.37 83.4232 Q1010.43 82.9292 1010.8 82.5586 Q1011.17 82.1881 1011.91 82.1881 Q1012.77 82.1881 1013.08 82.5586 Q1013.45 82.9292 1013.7 84.3496 Q1015.62 93.0576 1019.69 97.6894 Q1023.83 102.26 1031.3 102.26 Q1038.4 102.26 1041.99 99.1099 Q1045.57 95.9602 1045.57 90.7725 Q1045.57 81.5087 1032.41 79.1619 Q1024.82 77.618 1021.67 76.6298 Q1018.52 75.5799 1015.74 73.2949 Q1010.3 68.8483 1010.3 62.5489 Q1010.3 56.2495 1015.06 51.6177 Q1019.88 46.9858 1030.5 46.9858 Q1037.6 46.9858 1042.42 50.5678 Q1043.84 49.4561 1044.58 48.5297 Q1046.25 46.9858 1047.11 46.9858 Q1048.1 46.9858 1048.29 47.6651 Q1048.47 48.2827 1048.47 50.0737 L1048.47 62.7959 Q1048.47 64.2164 1048.41 64.7105 Q1048.35 65.2045 1047.98 65.5751 Q1047.61 65.8839 1046.8 65.8839 Q1045.38 65.8839 1045.32 64.7105 Q1044.33 49.3944 1030.5 49.3944 Q1023.03 49.3944 1019.69 52.297 Q1016.36 55.1379 1016.36 59.0287 Q1016.36 61.1902 1017.34 62.8577 Q1018.39 64.4634 1019.69 65.4516 Q1021.05 66.3779 1023.52 67.3043 Q1025.99 68.1689 1027.47 68.4777 Q1029.02 68.7865 1031.92 69.4041 Q1042.05 71.3186 1046.31 75.4564 Q1051.62 80.7676 1051.62 87.4993 Q1051.62 94.9721 1046.56 100.036 Q1041.49 105.1 1031.3 105.1 Q1023.09 105.1 1017.34 99.6039 Q1016.6 100.345 1016.05 101.024 Q1015.49 101.642 1015.25 101.889 Q1015.06 102.136 1015 102.321 Q1014.94 102.445 1014.81 102.568 Q1012.28 105.1 1011.66 105.1 Q1010.68 105.1 1010.49 104.421 Q1010.3 103.804 1010.3 102.013 Z" fill="#000000" fill-rule="nonzero" fill-opacity="1" /><path clip-path="url(#clip800)" d="M1060.08 103.68 L1060.08 99.7892 Q1066.81 99.7892 1068.36 98.9864 Q1069.9 98.1217 1069.9 94.0457 L1069.9 60.0168 Q1069.9 55.3232 1068.3 54.2115 Q1066.75 53.0999 1060.58 53.0999 L1060.58 49.1473 L1078.24 47.7886 L1078.24 94.1692 Q1078.24 97.9365 1079.6 98.8628 Q1080.96 99.7892 1087.13 99.7892 L1087.13 103.68 Q1074.22 103.309 1073.98 103.309 Q1072.25 103.309 1060.08 103.68 M1065.39 25.7409 Q1065.39 23.2088 1067.31 21.1708 Q1069.28 19.071 1072.06 19.071 Q1074.84 19.071 1076.82 20.9855 Q1078.79 22.8383 1078.79 25.8027 Q1078.79 28.7053 1076.82 30.6198 Q1074.84 32.4726 1072.06 32.4726 Q1069.16 32.4726 1067.25 30.4345 Q1065.39 28.3965 1065.39 25.7409 Z" fill="#000000" fill-rule="nonzero" fill-opacity="1" /><path clip-path="url(#clip800)" d="M1095.22 76.5063 Q1095.22 64.4634 1103.62 56.126 Q1112.02 47.7886 1123.38 47.7886 Q1133.02 47.7886 1139.32 55.632 L1139.32 28.273 Q1139.32 23.5794 1137.65 22.4059 Q1136.04 21.2325 1129.5 21.2325 L1129.5 17.28 L1147.72 15.9213 L1147.72 92.687 Q1147.72 97.3806 1149.32 98.6158 Q1150.99 99.7892 1157.54 99.7892 L1157.54 103.68 L1138.95 105.1 L1138.95 96.7013 Q1132.4 105.039 1122.03 105.1 Q1111.16 105.1 1103.19 96.7631 Q1095.22 88.4257 1095.22 76.5063 M1105.72 76.6298 Q1105.72 88.3639 1109.36 94.1692 Q1114.43 102.26 1122.64 102.26 Q1132.03 102.26 1137.59 93.4281 Q1139.01 91.2666 1138.95 88.7345 L1138.95 62.7959 Q1138.95 60.2638 1137.59 58.1641 Q1132.4 50.5678 1123.94 50.5678 Q1115.11 50.5678 1109.61 58.6581 Q1105.72 64.7105 1105.72 76.6298 Z" fill="#000000" fill-rule="nonzero" fill-opacity="1" /><path clip-path="url(#clip800)" d="M1165.13 53.0999 L1165.13 49.1473 L1183.72 47.7886 L1183.72 89.7844 Q1183.72 92.8105 1183.97 94.6015 Q1184.22 96.3308 1185.2 98.3688 Q1186.25 100.407 1188.6 101.333 Q1191.01 102.26 1194.84 102.26 Q1201.69 102.26 1205.89 96.6395 Q1210.15 91.0195 1210.15 82.6821 L1210.15 60.1403 Q1210.15 55.4467 1208.49 54.2733 Q1206.82 53.0999 1200.27 53.0999 L1200.27 49.1473 L1218.86 47.7886 L1218.86 92.687 Q1218.86 97.3806 1220.47 98.6158 Q1222.14 99.7892 1228.74 99.7892 L1228.74 103.68 L1210.53 105.1 L1210.53 93.6751 Q1205.21 105.039 1194.22 105.1 Q1188.66 105.1 1184.83 103.68 Q1181.07 102.26 1179.15 100.53 Q1177.24 98.7393 1176.19 95.3426 Q1175.2 91.9459 1175.08 89.8461 Q1174.95 87.7463 1174.95 83.6703 L1174.95 64.7105 Q1174.95 56.126 1173.72 54.6438 Q1172.48 53.0999 1165.13 53.0999 Z" fill="#000000" fill-rule="nonzero" fill-opacity="1" /><path clip-path="url(#clip800)" d="M1236.53 91.6371 Q1236.53 80.8912 1249.19 75.2094 Q1256.78 71.5656 1272.47 70.6393 L1272.47 66.0074 Q1272.47 58.1641 1268.33 54.0262 Q1264.26 49.8267 1259.07 49.8267 Q1249.8 49.8267 1245.36 55.632 Q1249.12 55.7555 1250.48 57.67 Q1251.84 59.5227 1251.84 61.4373 Q1251.84 63.9693 1250.24 65.6368 Q1248.69 67.2425 1246.04 67.2425 Q1243.5 67.2425 1241.84 65.6986 Q1240.17 64.0929 1240.17 61.3137 Q1240.17 55.1379 1245.73 51.0618 Q1251.35 46.9858 1259.31 46.9858 Q1269.69 46.9858 1276.61 53.9645 Q1278.77 56.126 1279.82 58.9052 Q1280.93 61.6843 1281.05 63.537 Q1281.18 65.328 1281.18 68.91 L1281.18 94.1692 Q1281.18 94.9103 1281.42 96.1455 Q1281.67 97.3806 1282.78 98.9864 Q1283.96 100.53 1285.87 100.53 Q1290.44 100.53 1290.38 92.44 L1290.38 85.3378 L1293.59 85.3378 L1293.59 92.44 Q1293.59 99.1716 1290.01 101.827 Q1286.49 104.421 1283.21 104.421 Q1279.02 104.421 1276.36 101.333 Q1273.7 98.2453 1273.33 94.0457 Q1271.42 98.8628 1267.03 102.013 Q1262.71 105.1 1256.78 105.1 Q1252.21 105.1 1247.89 103.927 Q1243.63 102.815 1240.05 99.6657 Q1236.53 96.4543 1236.53 91.6371 M1246.28 91.5136 Q1246.28 96.2072 1249.62 99.2334 Q1252.95 102.26 1257.65 102.26 Q1262.96 102.26 1267.71 98.1835 Q1272.47 94.0457 1272.47 85.9553 L1272.47 73.2949 Q1258.45 73.7889 1252.34 79.4089 Q1246.28 84.9672 1246.28 91.5136 Z" fill="#000000" fill-rule="nonzero" fill-opacity="1" /><path clip-path="url(#clip800)" d="M1298.65 103.68 L1298.65 99.7892 Q1305.39 99.7892 1306.93 98.9864 Q1308.47 98.1217 1308.47 94.0457 L1308.47 28.273 Q1308.47 23.5794 1306.81 22.4059 Q1305.2 21.2325 1298.65 21.2325 L1298.65 17.28 L1316.81 15.9213 L1316.81 94.0457 Q1316.81 98.1217 1318.42 98.9864 Q1320.02 99.7892 1326.69 99.7892 L1326.69 103.68 Q1325.15 103.68 1321.94 103.556 Q1318.73 103.433 1316.38 103.371 Q1314.03 103.309 1312.67 103.309 Q1311.19 103.309 1298.65 103.68 Z" fill="#000000" fill-rule="nonzero" fill-opacity="1" /><path clip-path="url(#clip800)" d="M1378.63 103.433 L1378.63 78.112 Q1378.63 76.6916 1378.69 76.1975 Q1378.76 75.7034 1379.13 75.3329 Q1379.5 74.9623 1380.24 74.9623 Q1381.66 74.9623 1381.78 76.2593 Q1382.15 88.7962 1389.62 95.7132 Q1396.97 102.568 1409.57 102.568 Q1417.17 102.568 1421.86 97.1336 Q1426.56 91.6371 1426.56 84.4731 Q1426.56 77.618 1422.6 72.8008 Q1420.94 70.6393 1418.84 69.2806 Q1416.8 67.8601 1415.5 67.4278 Q1414.27 66.9955 1411.86 66.3779 Q1396.17 62.6107 1395.18 62.1784 Q1387.71 59.6463 1383.14 53.2851 Q1378.63 46.8623 1378.63 39.019 Q1378.63 28.8906 1385.73 21.7266 Q1392.9 14.5009 1403.27 14.5009 Q1408.46 14.5009 1412.78 16.1683 Q1417.17 17.7741 1418.96 19.2563 Q1420.75 20.7385 1423.53 23.3941 L1427.91 16.1683 Q1428.9 14.5009 1429.83 14.5009 Q1430.82 14.5009 1431 15.1185 Q1431.25 15.6743 1431.25 17.527 L1431.25 42.9715 Q1431.25 44.3919 1431.19 44.886 Q1431.13 45.3801 1430.69 45.6889 Q1430.32 45.9977 1429.58 45.9977 Q1428.35 45.9977 1428.04 44.5155 Q1424.52 18.0829 1403.4 18.0829 Q1396.17 18.0829 1391.42 22.9618 Q1386.72 27.7789 1386.72 34.6341 Q1386.72 40.1924 1390.18 44.7625 Q1393.64 49.2709 1399.51 50.6913 L1415.69 54.5821 Q1423.78 56.4966 1429.21 63.6606 Q1434.65 70.8245 1434.65 80.1501 Q1434.65 90.896 1427.61 98.6776 Q1420.63 106.459 1409.7 106.459 Q1401.85 106.459 1395.8 103.865 Q1389.75 101.271 1386.47 97.6277 Q1383.94 101.827 1382.28 104.174 L1381.9 104.792 Q1380.92 106.459 1379.99 106.459 Q1379 106.459 1378.82 105.842 Q1378.63 105.224 1378.63 103.433 Z" fill="#000000" fill-rule="nonzero" fill-opacity="1" /><path clip-path="url(#clip800)" d="M1454.04 96.7631 Q1446.01 88.3639 1446.01 76.3828 Q1446.01 64.3399 1453.92 55.6937 Q1461.82 46.9858 1473.43 46.9858 Q1481.15 46.9858 1486.96 50.6913 Q1492.76 54.335 1492.76 60.5726 Q1492.76 63.3518 1491.09 64.9575 Q1489.49 66.5014 1486.96 66.5014 Q1484.3 66.5014 1482.69 64.8957 Q1481.15 63.2282 1481.15 60.6962 Q1481.15 59.5845 1481.52 58.4729 Q1481.89 57.3612 1483.25 56.1878 Q1484.67 55.0144 1487.08 54.8291 Q1482.57 50.1972 1473.8 50.1972 Q1473.68 50.1972 1473.55 50.1972 Q1467.13 50.1972 1461.82 56.2495 Q1456.51 62.3019 1456.51 76.1358 Q1456.51 83.3615 1458.24 88.6727 Q1460.03 93.9222 1462.93 96.6395 Q1465.83 99.3569 1468.68 100.654 Q1471.52 101.889 1474.3 101.889 Q1486.71 101.889 1490.91 88.611 Q1491.28 87.3758 1492.51 87.3758 Q1494.18 87.3758 1494.18 88.611 Q1494.18 89.2285 1493.69 90.8343 Q1493.19 92.44 1491.65 94.9721 Q1490.11 97.5042 1487.88 99.7275 Q1485.72 101.889 1481.83 103.495 Q1478 105.1 1473.18 105.1 Q1462.07 105.1 1454.04 96.7631 Z" fill="#000000" fill-rule="nonzero" fill-opacity="1" /><path clip-path="url(#clip800)" d="M1503.14 91.6371 Q1503.14 80.8912 1515.8 75.2094 Q1523.39 71.5656 1539.08 70.6393 L1539.08 66.0074 Q1539.08 58.1641 1534.94 54.0262 Q1530.87 49.8267 1525.68 49.8267 Q1516.41 49.8267 1511.97 55.632 Q1515.74 55.7555 1517.09 57.67 Q1518.45 59.5227 1518.45 61.4373 Q1518.45 63.9693 1516.85 65.6368 Q1515.3 67.2425 1512.65 67.2425 Q1510.12 67.2425 1508.45 65.6986 Q1506.78 64.0929 1506.78 61.3137 Q1506.78 55.1379 1512.34 51.0618 Q1517.96 46.9858 1525.93 46.9858 Q1536.3 46.9858 1543.22 53.9645 Q1545.38 56.126 1546.43 58.9052 Q1547.54 61.6843 1547.66 63.537 Q1547.79 65.328 1547.79 68.91 L1547.79 94.1692 Q1547.79 94.9103 1548.03 96.1455 Q1548.28 97.3806 1549.39 98.9864 Q1550.57 100.53 1552.48 100.53 Q1557.05 100.53 1556.99 92.44 L1556.99 85.3378 L1560.2 85.3378 L1560.2 92.44 Q1560.2 99.1716 1556.62 101.827 Q1553.1 104.421 1549.83 104.421 Q1545.63 104.421 1542.97 101.333 Q1540.32 98.2453 1539.94 94.0457 Q1538.03 98.8628 1533.65 102.013 Q1529.32 105.1 1523.39 105.1 Q1518.82 105.1 1514.5 103.927 Q1510.24 102.815 1506.66 99.6657 Q1503.14 96.4543 1503.14 91.6371 M1512.89 91.5136 Q1512.89 96.2072 1516.23 99.2334 Q1519.56 102.26 1524.26 102.26 Q1529.57 102.26 1534.32 98.1835 Q1539.08 94.0457 1539.08 85.9553 L1539.08 73.2949 Q1525.06 73.7889 1518.95 79.4089 Q1512.89 84.9672 1512.89 91.5136 Z" fill="#000000" fill-rule="nonzero" fill-opacity="1" /><path clip-path="url(#clip800)" d="M1563.47 53.0999 L1563.47 50.3207 Q1569.28 50.0737 1573.11 45.9977 Q1577 41.8598 1578.3 36.7957 Q1579.66 31.7315 1579.78 25.8644 L1582.93 25.8644 L1582.93 49.1473 L1601.02 49.1473 L1601.02 53.0999 L1582.93 53.0999 L1582.93 88.2404 Q1582.93 101.889 1591.45 101.889 Q1595.09 101.889 1597.5 98.1835 Q1599.91 94.4162 1599.91 87.7463 L1599.91 80.7676 L1603.06 80.7676 L1603.06 87.9934 Q1603.06 94.8485 1599.91 99.9745 Q1596.76 105.1 1590.52 105.1 Q1588.24 105.1 1585.95 104.483 Q1583.73 103.927 1580.77 102.445 Q1577.86 100.901 1576.01 97.1954 Q1574.22 93.4281 1574.22 87.9934 L1574.22 53.0999 L1563.47 53.0999 Z" fill="#000000" fill-rule="nonzero" fill-opacity="1" /><path clip-path="url(#clip800)" d="M1612.51 53.0999 L1612.51 50.3207 Q1618.32 50.0737 1622.14 45.9977 Q1626.04 41.8598 1627.33 36.7957 Q1628.69 31.7315 1628.81 25.8644 L1631.96 25.8644 L1631.96 49.1473 L1650.06 49.1473 L1650.06 53.0999 L1631.96 53.0999 L1631.96 88.2404 Q1631.96 101.889 1640.49 101.889 Q1644.13 101.889 1646.54 98.1835 Q1648.95 94.4162 1648.95 87.7463 L1648.95 80.7676 L1652.1 80.7676 L1652.1 87.9934 Q1652.1 94.8485 1648.95 99.9745 Q1645.8 105.1 1639.56 105.1 Q1637.28 105.1 1634.99 104.483 Q1632.77 103.927 1629.8 102.445 Q1626.9 100.901 1625.05 97.1954 Q1623.26 93.4281 1623.26 87.9934 L1623.26 53.0999 L1612.51 53.0999 Z" fill="#000000" fill-rule="nonzero" fill-opacity="1" /><path clip-path="url(#clip800)" d="M1662.66 75.827 Q1662.66 63.9076 1670.32 55.4467 Q1677.97 46.9858 1688.97 46.9858 Q1700.08 46.9858 1705.83 54.2115 Q1711.63 61.4373 1711.63 71.8127 Q1711.63 73.7272 1711.14 74.0977 Q1710.64 74.4683 1708.48 74.4683 L1673.16 74.4683 Q1673.16 87.3758 1676.99 93.4281 Q1682.3 101.889 1691.25 101.889 Q1692.49 101.889 1693.97 101.642 Q1695.45 101.395 1698.48 100.345 Q1701.5 99.2334 1704.16 96.3308 Q1706.82 93.4281 1708.36 88.858 Q1708.73 87.067 1709.97 87.1287 Q1711.63 87.1287 1711.63 88.611 Q1711.63 89.7226 1710.4 92.2547 Q1709.22 94.725 1706.94 97.6894 Q1704.65 100.654 1700.21 102.877 Q1695.82 105.1 1690.51 105.1 Q1679.39 105.1 1671 96.7013 Q1662.66 88.2404 1662.66 75.827 M1673.28 71.8127 L1703.3 71.8127 Q1703.3 69.1571 1702.8 66.1927 Q1702.37 63.2282 1701.01 59.1522 Q1699.71 55.0144 1696.63 52.4205 Q1693.54 49.8267 1688.97 49.8267 Q1686.93 49.8267 1684.71 50.6913 Q1682.54 51.5559 1679.89 53.6557 Q1677.23 55.7555 1675.38 60.5109 Q1673.53 65.2663 1673.28 71.8127 Z" fill="#000000" fill-rule="nonzero" fill-opacity="1" /><path clip-path="url(#clip800)" d="M1718.8 103.68 L1718.8 99.7892 Q1725.53 99.7892 1727.07 98.9864 Q1728.68 98.1217 1728.68 94.0457 L1728.68 60.1403 Q1728.68 55.4467 1727.01 54.2733 Q1725.4 53.0999 1718.8 53.0999 L1718.8 49.1473 L1736.4 47.7886 L1736.4 61.6843 Q1738.19 56.2495 1741.96 52.05 Q1745.79 47.7886 1751.96 47.7886 Q1756.04 47.7886 1758.63 50.0737 Q1761.29 52.3588 1761.29 55.5084 Q1761.29 58.2876 1759.56 59.708 Q1757.89 61.0667 1755.85 61.0667 Q1753.57 61.0667 1751.96 59.6463 Q1750.42 58.1641 1750.42 55.632 Q1750.42 54.088 1751.1 52.9146 Q1751.84 51.6794 1752.39 51.2471 Q1752.95 50.8148 1753.32 50.6913 Q1753.07 50.5678 1751.96 50.5678 Q1744.98 50.5678 1740.97 57.5465 Q1737.02 64.4634 1737.02 74.3448 L1737.02 93.7987 Q1737.02 97.4424 1738.5 98.6158 Q1740.04 99.7892 1746.65 99.7892 L1749.31 99.7892 L1749.31 103.68 Q1744.24 103.309 1733.25 103.309 Q1731.7 103.309 1729.3 103.371 Q1726.89 103.433 1723.74 103.556 Q1720.59 103.68 1718.8 103.68 Z" fill="#000000" fill-rule="nonzero" fill-opacity="1" /><path clip-path="url(#clip800)" d="M1768.2 124.307 Q1774.94 124.307 1776.48 123.443 Q1778.08 122.64 1778.08 118.626 L1778.08 59.3992 Q1778.08 55.1997 1776.48 54.1498 Q1774.94 53.0999 1768.2 53.0999 L1768.2 49.1473 L1786.42 47.7886 L1786.42 56.126 Q1794.02 47.7886 1804.15 47.7886 Q1814.89 47.7886 1822.74 56.126 Q1830.58 64.4634 1830.58 76.3828 Q1830.58 88.4257 1822.24 96.7631 Q1813.9 105.1 1802.36 105.1 Q1796.06 105.1 1791.8 101.889 Q1787.6 98.6158 1786.79 96.2072 L1786.79 97.3806 L1786.79 118.626 Q1786.79 122.702 1788.4 123.504 Q1790 124.307 1796.67 124.307 L1796.67 128.198 Q1783.4 127.828 1782.41 127.828 Q1781.17 127.828 1768.2 128.198 L1768.2 124.307 M1786.79 89.2903 Q1786.79 91.2048 1787.04 91.8841 Q1787.35 92.5635 1788.58 94.6015 Q1793.59 102.26 1801.74 102.26 Q1801.8 102.26 1801.86 102.26 Q1809.09 102.26 1814.58 94.9103 Q1820.08 87.4993 1820.08 76.3828 Q1820.08 65.7603 1815.08 58.3493 Q1810.08 50.9383 1803.16 50.9383 Q1798.22 50.9383 1793.9 53.5939 Q1789.57 56.2495 1786.79 61.0667 L1786.79 89.2903 Z" fill="#000000" fill-rule="nonzero" fill-opacity="1" /><path clip-path="url(#clip800)" d="M1839.04 103.68 L1839.04 99.7892 Q1845.77 99.7892 1847.32 98.9864 Q1848.86 98.1217 1848.86 94.0457 L1848.86 28.273 Q1848.86 23.5794 1847.19 22.4059 Q1845.59 21.2325 1839.04 21.2325 L1839.04 17.28 L1857.2 15.9213 L1857.2 94.0457 Q1857.2 98.1217 1858.8 98.9864 Q1860.41 99.7892 1867.08 99.7892 L1867.08 103.68 Q1865.53 103.68 1862.32 103.556 Q1859.11 103.433 1856.77 103.371 Q1854.42 103.309 1853.06 103.309 Q1851.58 103.309 1839.04 103.68 Z" fill="#000000" fill-rule="nonzero" fill-opacity="1" /><path clip-path="url(#clip800)" d="M1881.72 96.8866 Q1873.38 88.611 1873.38 76.6298 Q1873.38 64.5869 1881.53 55.8172 Q1889.74 46.9858 1901.48 46.9858 Q1912.97 46.9858 1921.18 55.7555 Q1929.45 64.4634 1929.45 76.6298 Q1929.45 88.5492 1921.12 96.8248 Q1912.84 105.1 1901.35 105.1 Q1890.11 105.1 1881.72 96.8866 M1883.88 75.5799 Q1883.88 87.8698 1887.09 93.4281 Q1892.03 101.889 1901.48 101.889 Q1906.17 101.889 1910.06 99.3569 Q1914.02 96.8248 1916.18 92.5635 Q1918.96 87.0052 1918.96 75.5799 Q1918.96 63.4135 1915.62 58.0405 Q1910.68 49.8267 1901.35 49.8267 Q1897.28 49.8267 1893.26 51.9882 Q1889.31 54.088 1886.9 58.2876 Q1883.88 63.8458 1883.88 75.5799 Z" fill="#000000" fill-rule="nonzero" fill-opacity="1" /><path clip-path="url(#clip800)" d="M1935.51 53.0999 L1935.51 50.3207 Q1941.31 50.0737 1945.14 45.9977 Q1949.03 41.8598 1950.33 36.7957 Q1951.69 31.7315 1951.81 25.8644 L1954.96 25.8644 L1954.96 49.1473 L1973.06 49.1473 L1973.06 53.0999 L1954.96 53.0999 L1954.96 88.2404 Q1954.96 101.889 1963.48 101.889 Q1967.13 101.889 1969.54 98.1835 Q1971.94 94.4162 1971.94 87.7463 L1971.94 80.7676 L1975.09 80.7676 L1975.09 87.9934 Q1975.09 94.8485 1971.94 99.9745 Q1968.79 105.1 1962.56 105.1 Q1960.27 105.1 1957.99 104.483 Q1955.76 103.927 1952.8 102.445 Q1949.9 100.901 1948.04 97.1954 Q1946.25 93.4281 1946.25 87.9934 L1946.25 53.0999 L1935.51 53.0999 Z" fill="#000000" fill-rule="nonzero" fill-opacity="1" /><circle clip-path="url(#clip801)" cx="795.627" cy="513.856" r="14.4" fill="#009af9" fill-rule="evenodd" fill-opacity="1" stroke="#000000" stroke-opacity="1" stroke-width="4"/>
<circle clip-path="url(#clip801)" cx="753.477" cy="1526.41" r="14.4" fill="#009af9" fill-rule="evenodd" fill-opacity="1" stroke="#000000" stroke-opacity="1" stroke-width="4"/>
<circle clip-path="url(#clip801)" cx="697.277" cy="638.829" r="14.4" fill="#009af9" fill-rule="evenodd" fill-opacity="1" stroke="#000000" stroke-opacity="1" stroke-width="4"/>
<circle clip-path="url(#clip801)" cx="771.918" cy="386.844" r="14.4" fill="#009af9" fill-rule="evenodd" fill-opacity="1" stroke="#000000" stroke-opacity="1" stroke-width="4"/>
<circle clip-path="url(#clip801)" cx="843.046" cy="508.781" r="14.4" fill="#009af9" fill-rule="evenodd" fill-opacity="1" stroke="#000000" stroke-opacity="1" stroke-width="4"/>
<circle clip-path="url(#clip801)" cx="951.055" cy="373.417" r="14.4" fill="#009af9" fill-rule="evenodd" fill-opacity="1" stroke="#000000" stroke-opacity="1" stroke-width="4"/>
<circle clip-path="url(#clip801)" cx="1233.81" cy="445.7" r="14.4" fill="#009af9" fill-rule="evenodd" fill-opacity="1" stroke="#000000" stroke-opacity="1" stroke-width="4"/>
<circle clip-path="url(#clip801)" cx="806.165" cy="417.504" r="14.4" fill="#009af9" fill-rule="evenodd" fill-opacity="1" stroke="#000000" stroke-opacity="1" stroke-width="4"/>
<circle clip-path="url(#clip801)" cx="798.261" cy="302.409" r="14.4" fill="#009af9" fill-rule="evenodd" fill-opacity="1" stroke="#000000" stroke-opacity="1" stroke-width="4"/>
<circle clip-path="url(#clip801)" cx="664.786" cy="917.277" r="14.4" fill="#009af9" fill-rule="evenodd" fill-opacity="1" stroke="#000000" stroke-opacity="1" stroke-width="4"/>
<circle clip-path="url(#clip801)" cx="622.636" cy="412.598" r="14.4" fill="#009af9" fill-rule="evenodd" fill-opacity="1" stroke="#000000" stroke-opacity="1" stroke-width="4"/>
<circle clip-path="url(#clip801)" cx="2299.86" cy="602.585" r="14.4" fill="#009af9" fill-rule="evenodd" fill-opacity="1" stroke="#000000" stroke-opacity="1" stroke-width="4"/>
<circle clip-path="url(#clip801)" cx="1931.04" cy="519.351" r="14.4" fill="#009af9" fill-rule="evenodd" fill-opacity="1" stroke="#000000" stroke-opacity="1" stroke-width="4"/>
<circle clip-path="url(#clip801)" cx="1347.09" cy="473.583" r="14.4" fill="#009af9" fill-rule="evenodd" fill-opacity="1" stroke="#000000" stroke-opacity="1" stroke-width="4"/>
<circle clip-path="url(#clip801)" cx="1032.72" cy="340.442" r="14.4" fill="#009af9" fill-rule="evenodd" fill-opacity="1" stroke="#000000" stroke-opacity="1" stroke-width="4"/>
<circle clip-path="url(#clip801)" cx="627.905" cy="385.525" r="14.4" fill="#009af9" fill-rule="evenodd" fill-opacity="1" stroke="#000000" stroke-opacity="1" stroke-width="4"/>
<circle clip-path="url(#clip801)" cx="630.539" cy="515.526" r="14.4" fill="#009af9" fill-rule="evenodd" fill-opacity="1" stroke="#000000" stroke-opacity="1" stroke-width="4"/>
<circle clip-path="url(#clip801)" cx="769.283" cy="395.143" r="14.4" fill="#009af9" fill-rule="evenodd" fill-opacity="1" stroke="#000000" stroke-opacity="1" stroke-width="4"/>
<circle clip-path="url(#clip801)" cx="664.786" cy="393.139" r="14.4" fill="#009af9" fill-rule="evenodd" fill-opacity="1" stroke="#000000" stroke-opacity="1" stroke-width="4"/>
<circle clip-path="url(#clip801)" cx="561.167" cy="484.725" r="14.4" fill="#009af9" fill-rule="evenodd" fill-opacity="1" stroke="#000000" stroke-opacity="1" stroke-width="4"/>
<circle clip-path="url(#clip801)" cx="617.367" cy="489.888" r="14.4" fill="#009af9" fill-rule="evenodd" fill-opacity="1" stroke="#000000" stroke-opacity="1" stroke-width="4"/>
<circle clip-path="url(#clip801)" cx="581.364" cy="705.378" r="14.4" fill="#009af9" fill-rule="evenodd" fill-opacity="1" stroke="#000000" stroke-opacity="1" stroke-width="4"/>
<circle clip-path="url(#clip801)" cx="540.97" cy="631.356" r="14.4" fill="#009af9" fill-rule="evenodd" fill-opacity="1" stroke="#000000" stroke-opacity="1" stroke-width="4"/>
<circle clip-path="url(#clip801)" cx="589.267" cy="495.109" r="14.4" fill="#009af9" fill-rule="evenodd" fill-opacity="1" stroke="#000000" stroke-opacity="1" stroke-width="4"/>
<circle clip-path="url(#clip801)" cx="536.58" cy="360.038" r="14.4" fill="#009af9" fill-rule="evenodd" fill-opacity="1" stroke="#000000" stroke-opacity="1" stroke-width="4"/>
<circle clip-path="url(#clip801)" cx="651.614" cy="210.47" r="14.4" fill="#009af9" fill-rule="evenodd" fill-opacity="1" stroke="#000000" stroke-opacity="1" stroke-width="4"/>
<circle clip-path="url(#clip801)" cx="614.733" cy="387.433" r="14.4" fill="#009af9" fill-rule="evenodd" fill-opacity="1" stroke="#000000" stroke-opacity="1" stroke-width="4"/>
<circle clip-path="url(#clip801)" cx="555.899" cy="533.387" r="14.4" fill="#009af9" fill-rule="evenodd" fill-opacity="1" stroke="#000000" stroke-opacity="1" stroke-width="4"/>
<circle clip-path="url(#clip801)" cx="576.096" cy="1097.86" r="14.4" fill="#009af9" fill-rule="evenodd" fill-opacity="1" stroke="#000000" stroke-opacity="1" stroke-width="4"/>
<circle clip-path="url(#clip801)" cx="670.055" cy="549.094" r="14.4" fill="#009af9" fill-rule="evenodd" fill-opacity="1" stroke="#000000" stroke-opacity="1" stroke-width="4"/>
<circle clip-path="url(#clip801)" cx="1340.94" cy="471.309" r="14.4" fill="#009af9" fill-rule="evenodd" fill-opacity="1" stroke="#000000" stroke-opacity="1" stroke-width="4"/>
<circle clip-path="url(#clip801)" cx="856.218" cy="943.063" r="14.4" fill="#009af9" fill-rule="evenodd" fill-opacity="1" stroke="#000000" stroke-opacity="1" stroke-width="4"/>
<circle clip-path="url(#clip801)" cx="1369.04" cy="475.938" r="14.4" fill="#009af9" fill-rule="evenodd" fill-opacity="1" stroke="#000000" stroke-opacity="1" stroke-width="4"/>
<circle clip-path="url(#clip801)" cx="723.621" cy="428.769" r="14.4" fill="#009af9" fill-rule="evenodd" fill-opacity="1" stroke="#000000" stroke-opacity="1" stroke-width="4"/>
<circle clip-path="url(#clip801)" cx="673.568" cy="295.972" r="14.4" fill="#009af9" fill-rule="evenodd" fill-opacity="1" stroke="#000000" stroke-opacity="1" stroke-width="4"/>
<circle clip-path="url(#clip801)" cx="821.971" cy="1024.71" r="14.4" fill="#009af9" fill-rule="evenodd" fill-opacity="1" stroke="#000000" stroke-opacity="1" stroke-width="4"/>
<circle clip-path="url(#clip801)" cx="1146" cy="755.423" r="14.4" fill="#009af9" fill-rule="evenodd" fill-opacity="1" stroke="#000000" stroke-opacity="1" stroke-width="4"/>
<circle clip-path="url(#clip801)" cx="1974.95" cy="607.732" r="14.4" fill="#009af9" fill-rule="evenodd" fill-opacity="1" stroke="#000000" stroke-opacity="1" stroke-width="4"/>
<circle clip-path="url(#clip801)" cx="1096.82" cy="668.8" r="14.4" fill="#009af9" fill-rule="evenodd" fill-opacity="1" stroke="#000000" stroke-opacity="1" stroke-width="4"/>
<circle clip-path="url(#clip801)" cx="1808.11" cy="558.82" r="14.4" fill="#009af9" fill-rule="evenodd" fill-opacity="1" stroke="#000000" stroke-opacity="1" stroke-width="4"/>
<circle clip-path="url(#clip801)" cx="1235.57" cy="570.435" r="14.4" fill="#009af9" fill-rule="evenodd" fill-opacity="1" stroke="#000000" stroke-opacity="1" stroke-width="4"/>
<circle clip-path="url(#clip801)" cx="591.902" cy="356.919" r="14.4" fill="#009af9" fill-rule="evenodd" fill-opacity="1" stroke="#000000" stroke-opacity="1" stroke-width="4"/>
<circle clip-path="url(#clip801)" cx="617.367" cy="489.888" r="14.4" fill="#009af9" fill-rule="evenodd" fill-opacity="1" stroke="#000000" stroke-opacity="1" stroke-width="4"/>
<circle clip-path="url(#clip801)" cx="827.24" cy="488.651" r="14.4" fill="#009af9" fill-rule="evenodd" fill-opacity="1" stroke="#000000" stroke-opacity="1" stroke-width="4"/>
<circle clip-path="url(#clip801)" cx="853.583" cy="270.108" r="14.4" fill="#009af9" fill-rule="evenodd" fill-opacity="1" stroke="#000000" stroke-opacity="1" stroke-width="4"/>
<circle clip-path="url(#clip801)" cx="627.027" cy="338.408" r="14.4" fill="#009af9" fill-rule="evenodd" fill-opacity="1" stroke="#000000" stroke-opacity="1" stroke-width="4"/>
<circle clip-path="url(#clip801)" cx="599.805" cy="352.52" r="14.4" fill="#009af9" fill-rule="evenodd" fill-opacity="1" stroke="#000000" stroke-opacity="1" stroke-width="4"/>
<circle clip-path="url(#clip801)" cx="569.949" cy="516.263" r="14.4" fill="#009af9" fill-rule="evenodd" fill-opacity="1" stroke="#000000" stroke-opacity="1" stroke-width="4"/>
<circle clip-path="url(#clip801)" cx="560.289" cy="593.473" r="14.4" fill="#009af9" fill-rule="evenodd" fill-opacity="1" stroke="#000000" stroke-opacity="1" stroke-width="4"/>
<circle clip-path="url(#clip801)" cx="893.099" cy="291.478" r="14.4" fill="#009af9" fill-rule="evenodd" fill-opacity="1" stroke="#000000" stroke-opacity="1" stroke-width="4"/>
<circle clip-path="url(#clip801)" cx="1676.39" cy="463.572" r="14.4" fill="#009af9" fill-rule="evenodd" fill-opacity="1" stroke="#000000" stroke-opacity="1" stroke-width="4"/>
<circle clip-path="url(#clip801)" cx="676.202" cy="531.563" r="14.4" fill="#009af9" fill-rule="evenodd" fill-opacity="1" stroke="#000000" stroke-opacity="1" stroke-width="4"/>
<circle clip-path="url(#clip801)" cx="798.261" cy="494.029" r="14.4" fill="#009af9" fill-rule="evenodd" fill-opacity="1" stroke="#000000" stroke-opacity="1" stroke-width="4"/>
<circle clip-path="url(#clip801)" cx="1500.76" cy="424.238" r="14.4" fill="#009af9" fill-rule="evenodd" fill-opacity="1" stroke="#000000" stroke-opacity="1" stroke-width="4"/>
<circle clip-path="url(#clip801)" cx="1186.39" cy="526.329" r="14.4" fill="#009af9" fill-rule="evenodd" fill-opacity="1" stroke="#000000" stroke-opacity="1" stroke-width="4"/>
<circle clip-path="url(#clip801)" cx="1330.41" cy="439.193" r="14.4" fill="#009af9" fill-rule="evenodd" fill-opacity="1" stroke="#000000" stroke-opacity="1" stroke-width="4"/>
<circle clip-path="url(#clip801)" cx="1291.77" cy="514.496" r="14.4" fill="#009af9" fill-rule="evenodd" fill-opacity="1" stroke="#000000" stroke-opacity="1" stroke-width="4"/>
<circle clip-path="url(#clip801)" cx="958.959" cy="559.14" r="14.4" fill="#009af9" fill-rule="evenodd" fill-opacity="1" stroke="#000000" stroke-opacity="1" stroke-width="4"/>
<circle clip-path="url(#clip801)" cx="1311.97" cy="550.536" r="14.4" fill="#009af9" fill-rule="evenodd" fill-opacity="1" stroke="#000000" stroke-opacity="1" stroke-width="4"/>
<circle clip-path="url(#clip801)" cx="784.211" cy="603.25" r="14.4" fill="#009af9" fill-rule="evenodd" fill-opacity="1" stroke="#000000" stroke-opacity="1" stroke-width="4"/>
<circle clip-path="url(#clip801)" cx="807.921" cy="655.964" r="14.4" fill="#009af9" fill-rule="evenodd" fill-opacity="1" stroke="#000000" stroke-opacity="1" stroke-width="4"/>
<circle clip-path="url(#clip801)" cx="2229.61" cy="640.807" r="14.4" fill="#009af9" fill-rule="evenodd" fill-opacity="1" stroke="#000000" stroke-opacity="1" stroke-width="4"/>
<circle clip-path="url(#clip801)" cx="1588.58" cy="478.734" r="14.4" fill="#009af9" fill-rule="evenodd" fill-opacity="1" stroke="#000000" stroke-opacity="1" stroke-width="4"/>
<circle clip-path="url(#clip801)" cx="870.268" cy="374.478" r="14.4" fill="#009af9" fill-rule="evenodd" fill-opacity="1" stroke="#000000" stroke-opacity="1" stroke-width="4"/>
<circle clip-path="url(#clip801)" cx="950.177" cy="502.439" r="14.4" fill="#009af9" fill-rule="evenodd" fill-opacity="1" stroke="#000000" stroke-opacity="1" stroke-width="4"/>
<circle clip-path="url(#clip801)" cx="1295.28" cy="498.97" r="14.4" fill="#009af9" fill-rule="evenodd" fill-opacity="1" stroke="#000000" stroke-opacity="1" stroke-width="4"/>
<circle clip-path="url(#clip801)" cx="1439.29" cy="342.423" r="14.4" fill="#009af9" fill-rule="evenodd" fill-opacity="1" stroke="#000000" stroke-opacity="1" stroke-width="4"/>
<circle clip-path="url(#clip801)" cx="713.961" cy="421.024" r="14.4" fill="#009af9" fill-rule="evenodd" fill-opacity="1" stroke="#000000" stroke-opacity="1" stroke-width="4"/>
<circle clip-path="url(#clip801)" cx="728.89" cy="480.922" r="14.4" fill="#009af9" fill-rule="evenodd" fill-opacity="1" stroke="#000000" stroke-opacity="1" stroke-width="4"/>
<circle clip-path="url(#clip801)" cx="578.73" cy="442.434" r="14.4" fill="#009af9" fill-rule="evenodd" fill-opacity="1" stroke="#000000" stroke-opacity="1" stroke-width="4"/>
</svg>
