<?xml version="1.0" encoding="utf-8"?>
<svg xmlns="http://www.w3.org/2000/svg" xmlns:xlink="http://www.w3.org/1999/xlink" width="528" height="336" viewBox="0 0 2112 1344">
<defs>
  <clipPath id="clip990">
    <rect x="0" y="0" width="2112" height="1344"/>
  </clipPath>
</defs>
<path clip-path="url(#clip990)" d="M0 1344 L2112 1344 L2112 2.13163e-14 L0 2.13163e-14  Z" fill="#ffffff" fill-rule="evenodd" fill-opacity="1"/>
<defs>
  <clipPath id="clip991">
    <rect x="422" y="0" width="1479" height="1344"/>
  </clipPath>
</defs>
<path clip-path="url(#clip990)" d="M153.232 1234.58 L2064.76 1234.58 L2064.76 47.2441 L153.232 47.2441  Z" fill="#ffffff" fill-rule="evenodd" fill-opacity="1"/>
<defs>
  <clipPath id="clip992">
    <rect x="153" y="47" width="1913" height="1188"/>
  </clipPath>
</defs>
<polyline clip-path="url(#clip992)" style="stroke:#000000; stroke-linecap:round; stroke-linejoin:round; stroke-width:2; stroke-opacity:0.1; fill:none" points="207.332,1234.58 207.332,47.2441 "/>
<polyline clip-path="url(#clip992)" style="stroke:#000000; stroke-linecap:round; stroke-linejoin:round; stroke-width:2; stroke-opacity:0.1; fill:none" points="513.469,1234.58 513.469,47.2441 "/>
<polyline clip-path="url(#clip992)" style="stroke:#000000; stroke-linecap:round; stroke-linejoin:round; stroke-width:2; stroke-opacity:0.1; fill:none" points="819.606,1234.58 819.606,47.2441 "/>
<polyline clip-path="url(#clip992)" style="stroke:#000000; stroke-linecap:round; stroke-linejoin:round; stroke-width:2; stroke-opacity:0.1; fill:none" points="1125.74,1234.58 1125.74,47.2441 "/>
<polyline clip-path="url(#clip992)" style="stroke:#000000; stroke-linecap:round; stroke-linejoin:round; stroke-width:2; stroke-opacity:0.1; fill:none" points="1431.88,1234.58 1431.88,47.2441 "/>
<polyline clip-path="url(#clip992)" style="stroke:#000000; stroke-linecap:round; stroke-linejoin:round; stroke-width:2; stroke-opacity:0.1; fill:none" points="1738.02,1234.58 1738.02,47.2441 "/>
<polyline clip-path="url(#clip992)" style="stroke:#000000; stroke-linecap:round; stroke-linejoin:round; stroke-width:2; stroke-opacity:0.1; fill:none" points="2044.15,1234.58 2044.15,47.2441 "/>
<polyline clip-path="url(#clip992)" style="stroke:#000000; stroke-linecap:round; stroke-linejoin:round; stroke-width:2; stroke-opacity:0.1; fill:none" points="153.232,1200.97 2064.76,1200.97 "/>
<polyline clip-path="url(#clip992)" style="stroke:#000000; stroke-linecap:round; stroke-linejoin:round; stroke-width:2; stroke-opacity:0.1; fill:none" points="153.232,896.664 2064.76,896.664 "/>
<polyline clip-path="url(#clip992)" style="stroke:#000000; stroke-linecap:round; stroke-linejoin:round; stroke-width:2; stroke-opacity:0.1; fill:none" points="153.232,592.352 2064.76,592.352 "/>
<polyline clip-path="url(#clip992)" style="stroke:#000000; stroke-linecap:round; stroke-linejoin:round; stroke-width:2; stroke-opacity:0.1; fill:none" points="153.232,288.041 2064.76,288.041 "/>
<polyline clip-path="url(#clip990)" style="stroke:#000000; stroke-linecap:round; stroke-linejoin:round; stroke-width:4; stroke-opacity:1; fill:none" points="153.232,1234.58 2064.76,1234.58 "/>
<polyline clip-path="url(#clip990)" style="stroke:#000000; stroke-linecap:round; stroke-linejoin:round; stroke-width:4; stroke-opacity:1; fill:none" points="207.332,1234.58 207.332,1215.68 "/>
<polyline clip-path="url(#clip990)" style="stroke:#000000; stroke-linecap:round; stroke-linejoin:round; stroke-width:4; stroke-opacity:1; fill:none" points="513.469,1234.58 513.469,1215.68 "/>
<polyline clip-path="url(#clip990)" style="stroke:#000000; stroke-linecap:round; stroke-linejoin:round; stroke-width:4; stroke-opacity:1; fill:none" points="819.606,1234.58 819.606,1215.68 "/>
<polyline clip-path="url(#clip990)" style="stroke:#000000; stroke-linecap:round; stroke-linejoin:round; stroke-width:4; stroke-opacity:1; fill:none" points="1125.74,1234.58 1125.74,1215.68 "/>
<polyline clip-path="url(#clip990)" style="stroke:#000000; stroke-linecap:round; stroke-linejoin:round; stroke-width:4; stroke-opacity:1; fill:none" points="1431.88,1234.58 1431.88,1215.68 "/>
<polyline clip-path="url(#clip990)" style="stroke:#000000; stroke-linecap:round; stroke-linejoin:round; stroke-width:4; stroke-opacity:1; fill:none" points="1738.02,1234.58 1738.02,1215.68 "/>
<polyline clip-path="url(#clip990)" style="stroke:#000000; stroke-linecap:round; stroke-linejoin:round; stroke-width:4; stroke-opacity:1; fill:none" points="2044.15,1234.58 2044.15,1215.68 "/>
<path clip-path="url(#clip990)" d="M207.332 1263.19 Q203.721 1263.19 201.892 1266.76 Q200.087 1270.3 200.087 1277.43 Q200.087 1284.54 201.892 1288.1 Q203.721 1291.64 207.332 1291.64 Q210.966 1291.64 212.772 1288.1 Q214.6 1284.54 214.6 1277.43 Q214.6 1270.3 212.772 1266.76 Q210.966 1263.19 207.332 1263.19 M207.332 1259.49 Q213.142 1259.49 216.198 1264.1 Q219.276 1268.68 219.276 1277.43 Q219.276 1286.16 216.198 1290.76 Q213.142 1295.35 207.332 1295.35 Q201.522 1295.35 198.443 1290.76 Q195.387 1286.16 195.387 1277.43 Q195.387 1268.68 198.443 1264.1 Q201.522 1259.49 207.332 1259.49 Z" fill="#000000" fill-rule="nonzero" fill-opacity="1" /><path clip-path="url(#clip990)" d="M473.076 1290.74 L480.714 1290.74 L480.714 1264.37 L472.404 1266.04 L472.404 1261.78 L480.668 1260.11 L485.344 1260.11 L485.344 1290.74 L492.983 1290.74 L492.983 1294.67 L473.076 1294.67 L473.076 1290.74 Z" fill="#000000" fill-rule="nonzero" fill-opacity="1" /><path clip-path="url(#clip990)" d="M512.427 1263.19 Q508.816 1263.19 506.987 1266.76 Q505.182 1270.3 505.182 1277.43 Q505.182 1284.54 506.987 1288.1 Q508.816 1291.64 512.427 1291.64 Q516.061 1291.64 517.867 1288.1 Q519.696 1284.54 519.696 1277.43 Q519.696 1270.3 517.867 1266.76 Q516.061 1263.19 512.427 1263.19 M512.427 1259.49 Q518.237 1259.49 521.293 1264.1 Q524.372 1268.68 524.372 1277.43 Q524.372 1286.16 521.293 1290.76 Q518.237 1295.35 512.427 1295.35 Q506.617 1295.35 503.538 1290.76 Q500.483 1286.16 500.483 1277.43 Q500.483 1268.68 503.538 1264.1 Q506.617 1259.49 512.427 1259.49 Z" fill="#000000" fill-rule="nonzero" fill-opacity="1" /><path clip-path="url(#clip990)" d="M542.589 1263.19 Q538.978 1263.19 537.149 1266.76 Q535.344 1270.3 535.344 1277.43 Q535.344 1284.54 537.149 1288.1 Q538.978 1291.64 542.589 1291.64 Q546.223 1291.64 548.029 1288.1 Q549.857 1284.54 549.857 1277.43 Q549.857 1270.3 548.029 1266.76 Q546.223 1263.19 542.589 1263.19 M542.589 1259.49 Q548.399 1259.49 551.455 1264.1 Q554.533 1268.68 554.533 1277.43 Q554.533 1286.16 551.455 1290.76 Q548.399 1295.35 542.589 1295.35 Q536.779 1295.35 533.7 1290.76 Q530.645 1286.16 530.645 1277.43 Q530.645 1268.68 533.7 1264.1 Q536.779 1259.49 542.589 1259.49 Z" fill="#000000" fill-rule="nonzero" fill-opacity="1" /><path clip-path="url(#clip990)" d="M783.298 1290.74 L799.617 1290.74 L799.617 1294.67 L777.673 1294.67 L777.673 1290.74 Q780.335 1287.99 784.918 1283.36 Q789.525 1278.7 790.705 1277.36 Q792.951 1274.84 793.83 1273.1 Q794.733 1271.34 794.733 1269.65 Q794.733 1266.9 792.789 1265.16 Q790.867 1263.42 787.766 1263.42 Q785.567 1263.42 783.113 1264.19 Q780.682 1264.95 777.905 1266.5 L777.905 1261.78 Q780.729 1260.65 783.182 1260.07 Q785.636 1259.49 787.673 1259.49 Q793.043 1259.49 796.238 1262.17 Q799.432 1264.86 799.432 1269.35 Q799.432 1271.48 798.622 1273.4 Q797.835 1275.3 795.729 1277.89 Q795.15 1278.56 792.048 1281.78 Q788.946 1284.98 783.298 1290.74 Z" fill="#000000" fill-rule="nonzero" fill-opacity="1" /><path clip-path="url(#clip990)" d="M819.432 1263.19 Q815.821 1263.19 813.992 1266.76 Q812.187 1270.3 812.187 1277.43 Q812.187 1284.54 813.992 1288.1 Q815.821 1291.64 819.432 1291.64 Q823.066 1291.64 824.872 1288.1 Q826.701 1284.54 826.701 1277.43 Q826.701 1270.3 824.872 1266.76 Q823.066 1263.19 819.432 1263.19 M819.432 1259.49 Q825.242 1259.49 828.298 1264.1 Q831.377 1268.68 831.377 1277.43 Q831.377 1286.16 828.298 1290.76 Q825.242 1295.35 819.432 1295.35 Q813.622 1295.35 810.543 1290.76 Q807.488 1286.16 807.488 1277.43 Q807.488 1268.68 810.543 1264.1 Q813.622 1259.49 819.432 1259.49 Z" fill="#000000" fill-rule="nonzero" fill-opacity="1" /><path clip-path="url(#clip990)" d="M849.594 1263.19 Q845.983 1263.19 844.154 1266.76 Q842.349 1270.3 842.349 1277.43 Q842.349 1284.54 844.154 1288.1 Q845.983 1291.64 849.594 1291.64 Q853.228 1291.64 855.034 1288.1 Q856.862 1284.54 856.862 1277.43 Q856.862 1270.3 855.034 1266.76 Q853.228 1263.19 849.594 1263.19 M849.594 1259.49 Q855.404 1259.49 858.46 1264.1 Q861.538 1268.68 861.538 1277.43 Q861.538 1286.16 858.46 1290.76 Q855.404 1295.35 849.594 1295.35 Q843.784 1295.35 840.705 1290.76 Q837.65 1286.16 837.65 1277.43 Q837.65 1268.68 840.705 1264.1 Q843.784 1259.49 849.594 1259.49 Z" fill="#000000" fill-rule="nonzero" fill-opacity="1" /><path clip-path="url(#clip990)" d="M1099.5 1276.04 Q1102.86 1276.76 1104.74 1279.03 Q1106.63 1281.3 1106.63 1284.63 Q1106.63 1289.74 1103.12 1292.55 Q1099.6 1295.35 1093.12 1295.35 Q1090.94 1295.35 1088.62 1294.91 Q1086.33 1294.49 1083.88 1293.63 L1083.88 1289.12 Q1085.82 1290.25 1088.14 1290.83 Q1090.45 1291.41 1092.98 1291.41 Q1097.37 1291.41 1099.67 1289.67 Q1101.98 1287.94 1101.98 1284.63 Q1101.98 1281.57 1099.83 1279.86 Q1097.7 1278.12 1093.88 1278.12 L1089.85 1278.12 L1089.85 1274.28 L1094.06 1274.28 Q1097.51 1274.28 1099.34 1272.92 Q1101.17 1271.53 1101.17 1268.93 Q1101.17 1266.27 1099.27 1264.86 Q1097.4 1263.42 1093.88 1263.42 Q1091.96 1263.42 1089.76 1263.84 Q1087.56 1264.26 1084.92 1265.14 L1084.92 1260.97 Q1087.58 1260.23 1089.9 1259.86 Q1092.24 1259.49 1094.3 1259.49 Q1099.62 1259.49 1102.72 1261.92 Q1105.82 1264.33 1105.82 1268.45 Q1105.82 1271.32 1104.18 1273.31 Q1102.54 1275.28 1099.5 1276.04 Z" fill="#000000" fill-rule="nonzero" fill-opacity="1" /><path clip-path="url(#clip990)" d="M1125.5 1263.19 Q1121.89 1263.19 1120.06 1266.76 Q1118.25 1270.3 1118.25 1277.43 Q1118.25 1284.54 1120.06 1288.1 Q1121.89 1291.64 1125.5 1291.64 Q1129.13 1291.64 1130.94 1288.1 Q1132.77 1284.54 1132.77 1277.43 Q1132.77 1270.3 1130.94 1266.76 Q1129.13 1263.19 1125.5 1263.19 M1125.5 1259.49 Q1131.31 1259.49 1134.37 1264.1 Q1137.44 1268.68 1137.44 1277.43 Q1137.44 1286.16 1134.37 1290.76 Q1131.31 1295.35 1125.5 1295.35 Q1119.69 1295.35 1116.61 1290.76 Q1113.56 1286.16 1113.56 1277.43 Q1113.56 1268.68 1116.61 1264.1 Q1119.69 1259.49 1125.5 1259.49 Z" fill="#000000" fill-rule="nonzero" fill-opacity="1" /><path clip-path="url(#clip990)" d="M1155.66 1263.19 Q1152.05 1263.19 1150.22 1266.76 Q1148.42 1270.3 1148.42 1277.43 Q1148.42 1284.54 1150.22 1288.1 Q1152.05 1291.64 1155.66 1291.64 Q1159.3 1291.64 1161.1 1288.1 Q1162.93 1284.54 1162.93 1277.43 Q1162.93 1270.3 1161.1 1266.76 Q1159.3 1263.19 1155.66 1263.19 M1155.66 1259.49 Q1161.47 1259.49 1164.53 1264.1 Q1167.61 1268.68 1167.61 1277.43 Q1167.61 1286.16 1164.53 1290.76 Q1161.47 1295.35 1155.66 1295.35 Q1149.85 1295.35 1146.77 1290.76 Q1143.72 1286.16 1143.72 1277.43 Q1143.72 1268.68 1146.77 1264.1 Q1149.85 1259.49 1155.66 1259.49 Z" fill="#000000" fill-rule="nonzero" fill-opacity="1" /><path clip-path="url(#clip990)" d="M1404.97 1264.19 L1393.16 1282.64 L1404.97 1282.64 L1404.97 1264.19 M1403.74 1260.11 L1409.62 1260.11 L1409.62 1282.64 L1414.55 1282.64 L1414.55 1286.53 L1409.62 1286.53 L1409.62 1294.67 L1404.97 1294.67 L1404.97 1286.53 L1389.37 1286.53 L1389.37 1282.01 L1403.74 1260.11 Z" fill="#000000" fill-rule="nonzero" fill-opacity="1" /><path clip-path="url(#clip990)" d="M1432.28 1263.19 Q1428.67 1263.19 1426.84 1266.76 Q1425.04 1270.3 1425.04 1277.43 Q1425.04 1284.54 1426.84 1288.1 Q1428.67 1291.64 1432.28 1291.64 Q1435.92 1291.64 1437.72 1288.1 Q1439.55 1284.54 1439.55 1277.43 Q1439.55 1270.3 1437.72 1266.76 Q1435.92 1263.19 1432.28 1263.19 M1432.28 1259.49 Q1438.09 1259.49 1441.15 1264.1 Q1444.23 1268.68 1444.23 1277.43 Q1444.23 1286.16 1441.15 1290.76 Q1438.09 1295.35 1432.28 1295.35 Q1426.47 1295.35 1423.4 1290.76 Q1420.34 1286.16 1420.34 1277.43 Q1420.34 1268.68 1423.4 1264.1 Q1426.47 1259.49 1432.28 1259.49 Z" fill="#000000" fill-rule="nonzero" fill-opacity="1" /><path clip-path="url(#clip990)" d="M1462.45 1263.19 Q1458.84 1263.19 1457.01 1266.76 Q1455.2 1270.3 1455.2 1277.43 Q1455.2 1284.54 1457.01 1288.1 Q1458.84 1291.64 1462.45 1291.64 Q1466.08 1291.64 1467.89 1288.1 Q1469.72 1284.54 1469.72 1277.43 Q1469.72 1270.3 1467.89 1266.76 Q1466.08 1263.19 1462.45 1263.19 M1462.45 1259.49 Q1468.26 1259.49 1471.31 1264.1 Q1474.39 1268.68 1474.39 1277.43 Q1474.39 1286.16 1471.31 1290.76 Q1468.26 1295.35 1462.45 1295.35 Q1456.64 1295.35 1453.56 1290.76 Q1450.5 1286.16 1450.5 1277.43 Q1450.5 1268.68 1453.56 1264.1 Q1456.64 1259.49 1462.45 1259.49 Z" fill="#000000" fill-rule="nonzero" fill-opacity="1" /><path clip-path="url(#clip990)" d="M1697.63 1260.11 L1715.99 1260.11 L1715.99 1264.05 L1701.92 1264.05 L1701.92 1272.52 Q1702.94 1272.17 1703.95 1272.01 Q1704.97 1271.83 1705.99 1271.83 Q1711.78 1271.83 1715.16 1275 Q1718.54 1278.17 1718.54 1283.59 Q1718.54 1289.17 1715.07 1292.27 Q1711.59 1295.35 1705.27 1295.35 Q1703.1 1295.35 1700.83 1294.98 Q1698.58 1294.61 1696.18 1293.86 L1696.18 1289.17 Q1698.26 1290.3 1700.48 1290.86 Q1702.7 1291.41 1705.18 1291.41 Q1709.19 1291.41 1711.52 1289.3 Q1713.86 1287.2 1713.86 1283.59 Q1713.86 1279.98 1711.52 1277.87 Q1709.19 1275.76 1705.18 1275.76 Q1703.31 1275.76 1701.43 1276.18 Q1699.58 1276.6 1697.63 1277.48 L1697.63 1260.11 Z" fill="#000000" fill-rule="nonzero" fill-opacity="1" /><path clip-path="url(#clip990)" d="M1737.75 1263.19 Q1734.14 1263.19 1732.31 1266.76 Q1730.51 1270.3 1730.51 1277.43 Q1730.51 1284.54 1732.31 1288.1 Q1734.14 1291.64 1737.75 1291.64 Q1741.38 1291.64 1743.19 1288.1 Q1745.02 1284.54 1745.02 1277.43 Q1745.02 1270.3 1743.19 1266.76 Q1741.38 1263.19 1737.75 1263.19 M1737.75 1259.49 Q1743.56 1259.49 1746.62 1264.1 Q1749.69 1268.68 1749.69 1277.43 Q1749.69 1286.16 1746.62 1290.76 Q1743.56 1295.35 1737.75 1295.35 Q1731.94 1295.35 1728.86 1290.76 Q1725.81 1286.16 1725.81 1277.43 Q1725.81 1268.68 1728.86 1264.1 Q1731.94 1259.49 1737.75 1259.49 Z" fill="#000000" fill-rule="nonzero" fill-opacity="1" /><path clip-path="url(#clip990)" d="M1767.91 1263.19 Q1764.3 1263.19 1762.47 1266.76 Q1760.67 1270.3 1760.67 1277.43 Q1760.67 1284.54 1762.47 1288.1 Q1764.3 1291.64 1767.91 1291.64 Q1771.55 1291.64 1773.35 1288.1 Q1775.18 1284.54 1775.18 1277.43 Q1775.18 1270.3 1773.35 1266.76 Q1771.55 1263.19 1767.91 1263.19 M1767.91 1259.49 Q1773.72 1259.49 1776.78 1264.1 Q1779.86 1268.68 1779.86 1277.43 Q1779.86 1286.16 1776.78 1290.76 Q1773.72 1295.35 1767.91 1295.35 Q1762.1 1295.35 1759.02 1290.76 Q1755.97 1286.16 1755.97 1277.43 Q1755.97 1268.68 1759.02 1264.1 Q1762.1 1259.49 1767.91 1259.49 Z" fill="#000000" fill-rule="nonzero" fill-opacity="1" /><path clip-path="url(#clip990)" d="M2014.48 1275.53 Q2011.33 1275.53 2009.48 1277.68 Q2007.65 1279.84 2007.65 1283.59 Q2007.65 1287.31 2009.48 1289.49 Q2011.33 1291.64 2014.48 1291.64 Q2017.63 1291.64 2019.45 1289.49 Q2021.31 1287.31 2021.31 1283.59 Q2021.31 1279.84 2019.45 1277.68 Q2017.63 1275.53 2014.48 1275.53 M2023.76 1260.88 L2023.76 1265.14 Q2022 1264.3 2020.2 1263.86 Q2018.41 1263.42 2016.65 1263.42 Q2012.02 1263.42 2009.57 1266.55 Q2007.14 1269.67 2006.79 1275.99 Q2008.16 1273.98 2010.22 1272.92 Q2012.28 1271.83 2014.76 1271.83 Q2019.96 1271.83 2022.97 1275 Q2026.01 1278.15 2026.01 1283.59 Q2026.01 1288.91 2022.86 1292.13 Q2019.71 1295.35 2014.48 1295.35 Q2008.48 1295.35 2005.31 1290.76 Q2002.14 1286.16 2002.14 1277.43 Q2002.14 1269.24 2006.03 1264.37 Q2009.92 1259.49 2016.47 1259.49 Q2018.23 1259.49 2020.01 1259.84 Q2021.82 1260.18 2023.76 1260.88 Z" fill="#000000" fill-rule="nonzero" fill-opacity="1" /><path clip-path="url(#clip990)" d="M2044.06 1263.19 Q2040.45 1263.19 2038.62 1266.76 Q2036.82 1270.3 2036.82 1277.43 Q2036.82 1284.54 2038.62 1288.1 Q2040.45 1291.64 2044.06 1291.64 Q2047.7 1291.64 2049.5 1288.1 Q2051.33 1284.54 2051.33 1277.43 Q2051.33 1270.3 2049.5 1266.76 Q2047.7 1263.19 2044.06 1263.19 M2044.06 1259.49 Q2049.87 1259.49 2052.93 1264.1 Q2056.01 1268.68 2056.01 1277.43 Q2056.01 1286.16 2052.93 1290.76 Q2049.87 1295.35 2044.06 1295.35 Q2038.25 1295.35 2035.17 1290.76 Q2032.12 1286.16 2032.12 1277.43 Q2032.12 1268.68 2035.17 1264.1 Q2038.25 1259.49 2044.06 1259.49 Z" fill="#000000" fill-rule="nonzero" fill-opacity="1" /><path clip-path="url(#clip990)" d="M2074.22 1263.19 Q2070.61 1263.19 2068.78 1266.76 Q2066.98 1270.3 2066.98 1277.43 Q2066.98 1284.54 2068.78 1288.1 Q2070.61 1291.64 2074.22 1291.64 Q2077.86 1291.64 2079.66 1288.1 Q2081.49 1284.54 2081.49 1277.43 Q2081.49 1270.3 2079.66 1266.76 Q2077.86 1263.19 2074.22 1263.19 M2074.22 1259.49 Q2080.03 1259.49 2083.09 1264.1 Q2086.17 1268.68 2086.17 1277.43 Q2086.17 1286.16 2083.09 1290.76 Q2080.03 1295.35 2074.22 1295.35 Q2068.41 1295.35 2065.33 1290.76 Q2062.28 1286.16 2062.28 1277.43 Q2062.28 1268.68 2065.33 1264.1 Q2068.41 1259.49 2074.22 1259.49 Z" fill="#000000" fill-rule="nonzero" fill-opacity="1" /><polyline clip-path="url(#clip990)" style="stroke:#000000; stroke-linecap:round; stroke-linejoin:round; stroke-width:4; stroke-opacity:1; fill:none" points="153.232,1234.58 153.232,47.2441 "/>
<polyline clip-path="url(#clip990)" style="stroke:#000000; stroke-linecap:round; stroke-linejoin:round; stroke-width:4; stroke-opacity:1; fill:none" points="153.232,1200.97 172.13,1200.97 "/>
<polyline clip-path="url(#clip990)" style="stroke:#000000; stroke-linecap:round; stroke-linejoin:round; stroke-width:4; stroke-opacity:1; fill:none" points="153.232,896.664 172.13,896.664 "/>
<polyline clip-path="url(#clip990)" style="stroke:#000000; stroke-linecap:round; stroke-linejoin:round; stroke-width:4; stroke-opacity:1; fill:none" points="153.232,592.352 172.13,592.352 "/>
<polyline clip-path="url(#clip990)" style="stroke:#000000; stroke-linecap:round; stroke-linejoin:round; stroke-width:4; stroke-opacity:1; fill:none" points="153.232,288.041 172.13,288.041 "/>
<path clip-path="url(#clip990)" d="M64.3765 1186.77 Q60.7654 1186.77 58.9367 1190.34 Q57.1312 1193.88 57.1312 1201.01 Q57.1312 1208.12 58.9367 1211.68 Q60.7654 1215.22 64.3765 1215.22 Q68.0107 1215.22 69.8163 1211.68 Q71.645 1208.12 71.645 1201.01 Q71.645 1193.88 69.8163 1190.34 Q68.0107 1186.77 64.3765 1186.77 M64.3765 1183.07 Q70.1867 1183.07 73.2422 1187.68 Q76.3209 1192.26 76.3209 1201.01 Q76.3209 1209.74 73.2422 1214.34 Q70.1867 1218.93 64.3765 1218.93 Q58.5664 1218.93 55.4877 1214.34 Q52.4321 1209.74 52.4321 1201.01 Q52.4321 1192.26 55.4877 1187.68 Q58.5664 1183.07 64.3765 1183.07 Z" fill="#000000" fill-rule="nonzero" fill-opacity="1" /><path clip-path="url(#clip990)" d="M84.5384 1212.38 L89.4227 1212.38 L89.4227 1218.25 L84.5384 1218.25 L84.5384 1212.38 Z" fill="#000000" fill-rule="nonzero" fill-opacity="1" /><path clip-path="url(#clip990)" d="M109.608 1186.77 Q105.997 1186.77 104.168 1190.34 Q102.362 1193.88 102.362 1201.01 Q102.362 1208.12 104.168 1211.68 Q105.997 1215.22 109.608 1215.22 Q113.242 1215.22 115.048 1211.68 Q116.876 1208.12 116.876 1201.01 Q116.876 1193.88 115.048 1190.34 Q113.242 1186.77 109.608 1186.77 M109.608 1183.07 Q115.418 1183.07 118.473 1187.68 Q121.552 1192.26 121.552 1201.01 Q121.552 1209.74 118.473 1214.34 Q115.418 1218.93 109.608 1218.93 Q103.798 1218.93 100.719 1214.34 Q97.6634 1209.74 97.6634 1201.01 Q97.6634 1192.26 100.719 1187.68 Q103.798 1183.07 109.608 1183.07 Z" fill="#000000" fill-rule="nonzero" fill-opacity="1" /><path clip-path="url(#clip990)" d="M65.6034 882.462 Q61.9923 882.462 60.1636 886.027 Q58.358 889.569 58.358 896.698 Q58.358 903.805 60.1636 907.37 Q61.9923 910.911 65.6034 910.911 Q69.2376 910.911 71.0431 907.37 Q72.8718 903.805 72.8718 896.698 Q72.8718 889.569 71.0431 886.027 Q69.2376 882.462 65.6034 882.462 M65.6034 878.759 Q71.4135 878.759 74.469 883.365 Q77.5477 887.948 77.5477 896.698 Q77.5477 905.425 74.469 910.032 Q71.4135 914.615 65.6034 914.615 Q59.7932 914.615 56.7145 910.032 Q53.659 905.425 53.659 896.698 Q53.659 887.948 56.7145 883.365 Q59.7932 878.759 65.6034 878.759 Z" fill="#000000" fill-rule="nonzero" fill-opacity="1" /><path clip-path="url(#clip990)" d="M85.7653 908.064 L90.6495 908.064 L90.6495 913.944 L85.7653 913.944 L85.7653 908.064 Z" fill="#000000" fill-rule="nonzero" fill-opacity="1" /><path clip-path="url(#clip990)" d="M101.645 910.008 L109.284 910.008 L109.284 883.643 L100.974 885.31 L100.974 881.05 L109.237 879.384 L113.913 879.384 L113.913 910.008 L121.552 910.008 L121.552 913.944 L101.645 913.944 L101.645 910.008 Z" fill="#000000" fill-rule="nonzero" fill-opacity="1" /><path clip-path="url(#clip990)" d="M65.9737 578.151 Q62.3626 578.151 60.5339 581.716 Q58.7284 585.257 58.7284 592.387 Q58.7284 599.493 60.5339 603.058 Q62.3626 606.6 65.9737 606.6 Q69.608 606.6 71.4135 603.058 Q73.2422 599.493 73.2422 592.387 Q73.2422 585.257 71.4135 581.716 Q69.608 578.151 65.9737 578.151 M65.9737 574.447 Q71.7839 574.447 74.8394 579.054 Q77.9181 583.637 77.9181 592.387 Q77.9181 601.114 74.8394 605.72 Q71.7839 610.304 65.9737 610.304 Q60.1636 610.304 57.0849 605.72 Q54.0293 601.114 54.0293 592.387 Q54.0293 583.637 57.0849 579.054 Q60.1636 574.447 65.9737 574.447 Z" fill="#000000" fill-rule="nonzero" fill-opacity="1" /><path clip-path="url(#clip990)" d="M86.1356 603.753 L91.0199 603.753 L91.0199 609.632 L86.1356 609.632 L86.1356 603.753 Z" fill="#000000" fill-rule="nonzero" fill-opacity="1" /><path clip-path="url(#clip990)" d="M105.233 605.697 L121.552 605.697 L121.552 609.632 L99.6078 609.632 L99.6078 605.697 Q102.27 602.942 106.853 598.313 Q111.46 593.66 112.64 592.318 Q114.885 589.794 115.765 588.058 Q116.668 586.299 116.668 584.609 Q116.668 581.855 114.723 580.119 Q112.802 578.382 109.7 578.382 Q107.501 578.382 105.048 579.146 Q102.617 579.91 99.8393 581.461 L99.8393 576.739 Q102.663 575.605 105.117 575.026 Q107.571 574.447 109.608 574.447 Q114.978 574.447 118.173 577.132 Q121.367 579.818 121.367 584.308 Q121.367 586.438 120.557 588.359 Q119.77 590.257 117.663 592.85 Q117.085 593.521 113.983 596.739 Q110.881 599.933 105.233 605.697 Z" fill="#000000" fill-rule="nonzero" fill-opacity="1" /><path clip-path="url(#clip990)" d="M65.0247 273.84 Q61.4136 273.84 59.5849 277.404 Q57.7793 280.946 57.7793 288.076 Q57.7793 295.182 59.5849 298.747 Q61.4136 302.289 65.0247 302.289 Q68.6589 302.289 70.4644 298.747 Q72.2931 295.182 72.2931 288.076 Q72.2931 280.946 70.4644 277.404 Q68.6589 273.84 65.0247 273.84 M65.0247 270.136 Q70.8348 270.136 73.8903 274.742 Q76.969 279.326 76.969 288.076 Q76.969 296.802 73.8903 301.409 Q70.8348 305.992 65.0247 305.992 Q59.2145 305.992 56.1358 301.409 Q53.0803 296.802 53.0803 288.076 Q53.0803 279.326 56.1358 274.742 Q59.2145 270.136 65.0247 270.136 Z" fill="#000000" fill-rule="nonzero" fill-opacity="1" /><path clip-path="url(#clip990)" d="M85.1866 299.441 L90.0708 299.441 L90.0708 305.321 L85.1866 305.321 L85.1866 299.441 Z" fill="#000000" fill-rule="nonzero" fill-opacity="1" /><path clip-path="url(#clip990)" d="M114.423 286.687 Q117.779 287.404 119.654 289.673 Q121.552 291.941 121.552 295.275 Q121.552 300.39 118.034 303.191 Q114.515 305.992 108.034 305.992 Q105.858 305.992 103.543 305.552 Q101.251 305.136 98.7976 304.279 L98.7976 299.765 Q100.742 300.9 103.057 301.478 Q105.372 302.057 107.895 302.057 Q112.293 302.057 114.585 300.321 Q116.899 298.585 116.899 295.275 Q116.899 292.219 114.747 290.506 Q112.617 288.77 108.798 288.77 L104.77 288.77 L104.77 284.928 L108.983 284.928 Q112.432 284.928 114.26 283.562 Q116.089 282.173 116.089 279.58 Q116.089 276.918 114.191 275.506 Q112.316 274.071 108.798 274.071 Q106.876 274.071 104.677 274.488 Q102.478 274.904 99.8393 275.784 L99.8393 271.617 Q102.501 270.877 104.816 270.506 Q107.154 270.136 109.214 270.136 Q114.538 270.136 117.64 272.566 Q120.742 274.974 120.742 279.094 Q120.742 281.965 119.098 283.955 Q117.455 285.923 114.423 286.687 Z" fill="#000000" fill-rule="nonzero" fill-opacity="1" /><circle clip-path="url(#clip992)" cx="207.332" cy="1200.97" r="14.4" fill="#009af9" fill-rule="evenodd" fill-opacity="1" stroke="#000000" stroke-opacity="1" stroke-width="2.688"/>
<circle clip-path="url(#clip992)" cx="207.477" cy="565.353" r="14.4" fill="#009af9" fill-rule="evenodd" fill-opacity="1" stroke="#000000" stroke-opacity="1" stroke-width="2.688"/>
<circle clip-path="url(#clip992)" cx="207.623" cy="266.709" r="14.4" fill="#009af9" fill-rule="evenodd" fill-opacity="1" stroke="#000000" stroke-opacity="1" stroke-width="2.688"/>
<circle clip-path="url(#clip992)" cx="207.768" cy="140.921" r="14.4" fill="#009af9" fill-rule="evenodd" fill-opacity="1" stroke="#000000" stroke-opacity="1" stroke-width="2.688"/>
<circle clip-path="url(#clip992)" cx="207.914" cy="91.7866" r="14.4" fill="#009af9" fill-rule="evenodd" fill-opacity="1" stroke="#000000" stroke-opacity="1" stroke-width="2.688"/>
<circle clip-path="url(#clip992)" cx="208.059" cy="80.8479" r="14.4" fill="#009af9" fill-rule="evenodd" fill-opacity="1" stroke="#000000" stroke-opacity="1" stroke-width="2.688"/>
<circle clip-path="url(#clip992)" cx="208.205" cy="90.2282" r="14.4" fill="#009af9" fill-rule="evenodd" fill-opacity="1" stroke="#000000" stroke-opacity="1" stroke-width="2.688"/>
<circle clip-path="url(#clip992)" cx="208.35" cy="110.737" r="14.4" fill="#009af9" fill-rule="evenodd" fill-opacity="1" stroke="#000000" stroke-opacity="1" stroke-width="2.688"/>
<circle clip-path="url(#clip992)" cx="208.495" cy="137.314" r="14.4" fill="#009af9" fill-rule="evenodd" fill-opacity="1" stroke="#000000" stroke-opacity="1" stroke-width="2.688"/>
<circle clip-path="url(#clip992)" cx="208.641" cy="167.043" r="14.4" fill="#009af9" fill-rule="evenodd" fill-opacity="1" stroke="#000000" stroke-opacity="1" stroke-width="2.688"/>
<circle clip-path="url(#clip992)" cx="208.786" cy="198.184" r="14.4" fill="#009af9" fill-rule="evenodd" fill-opacity="1" stroke="#000000" stroke-opacity="1" stroke-width="2.688"/>
<circle clip-path="url(#clip992)" cx="208.932" cy="229.683" r="14.4" fill="#009af9" fill-rule="evenodd" fill-opacity="1" stroke="#000000" stroke-opacity="1" stroke-width="2.688"/>
<circle clip-path="url(#clip992)" cx="209.077" cy="260.894" r="14.4" fill="#009af9" fill-rule="evenodd" fill-opacity="1" stroke="#000000" stroke-opacity="1" stroke-width="2.688"/>
<circle clip-path="url(#clip992)" cx="209.223" cy="291.426" r="14.4" fill="#009af9" fill-rule="evenodd" fill-opacity="1" stroke="#000000" stroke-opacity="1" stroke-width="2.688"/>
<circle clip-path="url(#clip992)" cx="209.368" cy="321.046" r="14.4" fill="#009af9" fill-rule="evenodd" fill-opacity="1" stroke="#000000" stroke-opacity="1" stroke-width="2.688"/>
<circle clip-path="url(#clip992)" cx="209.514" cy="349.624" r="14.4" fill="#009af9" fill-rule="evenodd" fill-opacity="1" stroke="#000000" stroke-opacity="1" stroke-width="2.688"/>
<circle clip-path="url(#clip992)" cx="209.659" cy="377.095" r="14.4" fill="#009af9" fill-rule="evenodd" fill-opacity="1" stroke="#000000" stroke-opacity="1" stroke-width="2.688"/>
<circle clip-path="url(#clip992)" cx="209.804" cy="403.438" r="14.4" fill="#009af9" fill-rule="evenodd" fill-opacity="1" stroke="#000000" stroke-opacity="1" stroke-width="2.688"/>
<circle clip-path="url(#clip992)" cx="209.95" cy="428.66" r="14.4" fill="#009af9" fill-rule="evenodd" fill-opacity="1" stroke="#000000" stroke-opacity="1" stroke-width="2.688"/>
<circle clip-path="url(#clip992)" cx="210.095" cy="452.783" r="14.4" fill="#009af9" fill-rule="evenodd" fill-opacity="1" stroke="#000000" stroke-opacity="1" stroke-width="2.688"/>
<circle clip-path="url(#clip992)" cx="210.241" cy="475.844" r="14.4" fill="#009af9" fill-rule="evenodd" fill-opacity="1" stroke="#000000" stroke-opacity="1" stroke-width="2.688"/>
<circle clip-path="url(#clip992)" cx="210.386" cy="497.882" r="14.4" fill="#009af9" fill-rule="evenodd" fill-opacity="1" stroke="#000000" stroke-opacity="1" stroke-width="2.688"/>
<circle clip-path="url(#clip992)" cx="210.532" cy="518.944" r="14.4" fill="#009af9" fill-rule="evenodd" fill-opacity="1" stroke="#000000" stroke-opacity="1" stroke-width="2.688"/>
<circle clip-path="url(#clip992)" cx="210.677" cy="539.074" r="14.4" fill="#009af9" fill-rule="evenodd" fill-opacity="1" stroke="#000000" stroke-opacity="1" stroke-width="2.688"/>
<circle clip-path="url(#clip992)" cx="210.823" cy="558.319" r="14.4" fill="#009af9" fill-rule="evenodd" fill-opacity="1" stroke="#000000" stroke-opacity="1" stroke-width="2.688"/>
<circle clip-path="url(#clip992)" cx="210.968" cy="576.725" r="14.4" fill="#009af9" fill-rule="evenodd" fill-opacity="1" stroke="#000000" stroke-opacity="1" stroke-width="2.688"/>
<circle clip-path="url(#clip992)" cx="211.113" cy="594.336" r="14.4" fill="#009af9" fill-rule="evenodd" fill-opacity="1" stroke="#000000" stroke-opacity="1" stroke-width="2.688"/>
<circle clip-path="url(#clip992)" cx="211.259" cy="611.194" r="14.4" fill="#009af9" fill-rule="evenodd" fill-opacity="1" stroke="#000000" stroke-opacity="1" stroke-width="2.688"/>
<circle clip-path="url(#clip992)" cx="211.404" cy="627.339" r="14.4" fill="#009af9" fill-rule="evenodd" fill-opacity="1" stroke="#000000" stroke-opacity="1" stroke-width="2.688"/>
<circle clip-path="url(#clip992)" cx="211.695" cy="657.641" r="14.4" fill="#009af9" fill-rule="evenodd" fill-opacity="1" stroke="#000000" stroke-opacity="1" stroke-width="2.688"/>
<circle clip-path="url(#clip992)" cx="211.986" cy="685.524" r="14.4" fill="#009af9" fill-rule="evenodd" fill-opacity="1" stroke="#000000" stroke-opacity="1" stroke-width="2.688"/>
<circle clip-path="url(#clip992)" cx="212.277" cy="711.237" r="14.4" fill="#009af9" fill-rule="evenodd" fill-opacity="1" stroke="#000000" stroke-opacity="1" stroke-width="2.688"/>
<circle clip-path="url(#clip992)" cx="212.568" cy="735.003" r="14.4" fill="#009af9" fill-rule="evenodd" fill-opacity="1" stroke="#000000" stroke-opacity="1" stroke-width="2.688"/>
<circle clip-path="url(#clip992)" cx="212.859" cy="757.014" r="14.4" fill="#009af9" fill-rule="evenodd" fill-opacity="1" stroke="#000000" stroke-opacity="1" stroke-width="2.688"/>
<circle clip-path="url(#clip992)" cx="213.15" cy="777.443" r="14.4" fill="#009af9" fill-rule="evenodd" fill-opacity="1" stroke="#000000" stroke-opacity="1" stroke-width="2.688"/>
<circle clip-path="url(#clip992)" cx="213.441" cy="796.442" r="14.4" fill="#009af9" fill-rule="evenodd" fill-opacity="1" stroke="#000000" stroke-opacity="1" stroke-width="2.688"/>
<circle clip-path="url(#clip992)" cx="213.731" cy="814.143" r="14.4" fill="#009af9" fill-rule="evenodd" fill-opacity="1" stroke="#000000" stroke-opacity="1" stroke-width="2.688"/>
<circle clip-path="url(#clip992)" cx="214.022" cy="830.667" r="14.4" fill="#009af9" fill-rule="evenodd" fill-opacity="1" stroke="#000000" stroke-opacity="1" stroke-width="2.688"/>
<circle clip-path="url(#clip992)" cx="214.313" cy="846.117" r="14.4" fill="#009af9" fill-rule="evenodd" fill-opacity="1" stroke="#000000" stroke-opacity="1" stroke-width="2.688"/>
<circle clip-path="url(#clip992)" cx="214.604" cy="860.588" r="14.4" fill="#009af9" fill-rule="evenodd" fill-opacity="1" stroke="#000000" stroke-opacity="1" stroke-width="2.688"/>
<circle clip-path="url(#clip992)" cx="214.895" cy="874.163" r="14.4" fill="#009af9" fill-rule="evenodd" fill-opacity="1" stroke="#000000" stroke-opacity="1" stroke-width="2.688"/>
<circle clip-path="url(#clip992)" cx="215.186" cy="886.918" r="14.4" fill="#009af9" fill-rule="evenodd" fill-opacity="1" stroke="#000000" stroke-opacity="1" stroke-width="2.688"/>
<circle clip-path="url(#clip992)" cx="215.477" cy="898.918" r="14.4" fill="#009af9" fill-rule="evenodd" fill-opacity="1" stroke="#000000" stroke-opacity="1" stroke-width="2.688"/>
<circle clip-path="url(#clip992)" cx="216.059" cy="920.891" r="14.4" fill="#009af9" fill-rule="evenodd" fill-opacity="1" stroke="#000000" stroke-opacity="1" stroke-width="2.688"/>
<circle clip-path="url(#clip992)" cx="216.64" cy="940.495" r="14.4" fill="#009af9" fill-rule="evenodd" fill-opacity="1" stroke="#000000" stroke-opacity="1" stroke-width="2.688"/>
<circle clip-path="url(#clip992)" cx="217.222" cy="958.068" r="14.4" fill="#009af9" fill-rule="evenodd" fill-opacity="1" stroke="#000000" stroke-opacity="1" stroke-width="2.688"/>
<circle clip-path="url(#clip992)" cx="217.804" cy="973.89" r="14.4" fill="#009af9" fill-rule="evenodd" fill-opacity="1" stroke="#000000" stroke-opacity="1" stroke-width="2.688"/>
<circle clip-path="url(#clip992)" cx="218.386" cy="988.191" r="14.4" fill="#009af9" fill-rule="evenodd" fill-opacity="1" stroke="#000000" stroke-opacity="1" stroke-width="2.688"/>
<circle clip-path="url(#clip992)" cx="218.967" cy="1001.16" r="14.4" fill="#009af9" fill-rule="evenodd" fill-opacity="1" stroke="#000000" stroke-opacity="1" stroke-width="2.688"/>
<circle clip-path="url(#clip992)" cx="219.549" cy="1012.97" r="14.4" fill="#009af9" fill-rule="evenodd" fill-opacity="1" stroke="#000000" stroke-opacity="1" stroke-width="2.688"/>
<circle clip-path="url(#clip992)" cx="220.131" cy="1023.76" r="14.4" fill="#009af9" fill-rule="evenodd" fill-opacity="1" stroke="#000000" stroke-opacity="1" stroke-width="2.688"/>
<circle clip-path="url(#clip992)" cx="220.713" cy="1033.64" r="14.4" fill="#009af9" fill-rule="evenodd" fill-opacity="1" stroke="#000000" stroke-opacity="1" stroke-width="2.688"/>
<circle clip-path="url(#clip992)" cx="221.295" cy="1042.71" r="14.4" fill="#009af9" fill-rule="evenodd" fill-opacity="1" stroke="#000000" stroke-opacity="1" stroke-width="2.688"/>
<circle clip-path="url(#clip992)" cx="222.458" cy="1058.77" r="14.4" fill="#009af9" fill-rule="evenodd" fill-opacity="1" stroke="#000000" stroke-opacity="1" stroke-width="2.688"/>
<circle clip-path="url(#clip992)" cx="223.622" cy="1072.5" r="14.4" fill="#009af9" fill-rule="evenodd" fill-opacity="1" stroke="#000000" stroke-opacity="1" stroke-width="2.688"/>
<circle clip-path="url(#clip992)" cx="224.204" cy="1078.64" r="14.4" fill="#009af9" fill-rule="evenodd" fill-opacity="1" stroke="#000000" stroke-opacity="1" stroke-width="2.688"/>
<circle clip-path="url(#clip992)" cx="224.785" cy="1084.35" r="14.4" fill="#009af9" fill-rule="evenodd" fill-opacity="1" stroke="#000000" stroke-opacity="1" stroke-width="2.688"/>
<circle clip-path="url(#clip992)" cx="225.367" cy="1089.68" r="14.4" fill="#009af9" fill-rule="evenodd" fill-opacity="1" stroke="#000000" stroke-opacity="1" stroke-width="2.688"/>
<circle clip-path="url(#clip992)" cx="225.949" cy="1094.65" r="14.4" fill="#009af9" fill-rule="evenodd" fill-opacity="1" stroke="#000000" stroke-opacity="1" stroke-width="2.688"/>
<circle clip-path="url(#clip992)" cx="227.653" cy="1107.46" r="14.4" fill="#009af9" fill-rule="evenodd" fill-opacity="1" stroke="#000000" stroke-opacity="1" stroke-width="2.688"/>
<circle clip-path="url(#clip992)" cx="229.356" cy="1118.13" r="14.4" fill="#009af9" fill-rule="evenodd" fill-opacity="1" stroke="#000000" stroke-opacity="1" stroke-width="2.688"/>
<circle clip-path="url(#clip992)" cx="231.06" cy="1127.1" r="14.4" fill="#009af9" fill-rule="evenodd" fill-opacity="1" stroke="#000000" stroke-opacity="1" stroke-width="2.688"/>
<circle clip-path="url(#clip992)" cx="232.764" cy="1134.72" r="14.4" fill="#009af9" fill-rule="evenodd" fill-opacity="1" stroke="#000000" stroke-opacity="1" stroke-width="2.688"/>
<circle clip-path="url(#clip992)" cx="234.467" cy="1141.25" r="14.4" fill="#009af9" fill-rule="evenodd" fill-opacity="1" stroke="#000000" stroke-opacity="1" stroke-width="2.688"/>
<circle clip-path="url(#clip992)" cx="236.171" cy="1146.88" r="14.4" fill="#009af9" fill-rule="evenodd" fill-opacity="1" stroke="#000000" stroke-opacity="1" stroke-width="2.688"/>
<circle clip-path="url(#clip992)" cx="237.875" cy="1151.78" r="14.4" fill="#009af9" fill-rule="evenodd" fill-opacity="1" stroke="#000000" stroke-opacity="1" stroke-width="2.688"/>
<circle clip-path="url(#clip992)" cx="239.579" cy="1156.07" r="14.4" fill="#009af9" fill-rule="evenodd" fill-opacity="1" stroke="#000000" stroke-opacity="1" stroke-width="2.688"/>
<circle clip-path="url(#clip992)" cx="242.986" cy="1163.17" r="14.4" fill="#009af9" fill-rule="evenodd" fill-opacity="1" stroke="#000000" stroke-opacity="1" stroke-width="2.688"/>
<circle clip-path="url(#clip992)" cx="246.393" cy="1168.76" r="14.4" fill="#009af9" fill-rule="evenodd" fill-opacity="1" stroke="#000000" stroke-opacity="1" stroke-width="2.688"/>
<circle clip-path="url(#clip992)" cx="249.801" cy="1173.25" r="14.4" fill="#009af9" fill-rule="evenodd" fill-opacity="1" stroke="#000000" stroke-opacity="1" stroke-width="2.688"/>
<circle clip-path="url(#clip992)" cx="253.208" cy="1176.91" r="14.4" fill="#009af9" fill-rule="evenodd" fill-opacity="1" stroke="#000000" stroke-opacity="1" stroke-width="2.688"/>
<circle clip-path="url(#clip992)" cx="260.023" cy="1182.42" r="14.4" fill="#009af9" fill-rule="evenodd" fill-opacity="1" stroke="#000000" stroke-opacity="1" stroke-width="2.688"/>
<circle clip-path="url(#clip992)" cx="266.838" cy="1186.31" r="14.4" fill="#009af9" fill-rule="evenodd" fill-opacity="1" stroke="#000000" stroke-opacity="1" stroke-width="2.688"/>
<circle clip-path="url(#clip992)" cx="273.653" cy="1189.15" r="14.4" fill="#009af9" fill-rule="evenodd" fill-opacity="1" stroke="#000000" stroke-opacity="1" stroke-width="2.688"/>
<circle clip-path="url(#clip992)" cx="280.468" cy="1191.29" r="14.4" fill="#009af9" fill-rule="evenodd" fill-opacity="1" stroke="#000000" stroke-opacity="1" stroke-width="2.688"/>
<circle clip-path="url(#clip992)" cx="294.098" cy="1194.2" r="14.4" fill="#009af9" fill-rule="evenodd" fill-opacity="1" stroke="#000000" stroke-opacity="1" stroke-width="2.688"/>
<circle clip-path="url(#clip992)" cx="307.727" cy="1196.03" r="14.4" fill="#009af9" fill-rule="evenodd" fill-opacity="1" stroke="#000000" stroke-opacity="1" stroke-width="2.688"/>
<circle clip-path="url(#clip992)" cx="321.357" cy="1197.25" r="14.4" fill="#009af9" fill-rule="evenodd" fill-opacity="1" stroke="#000000" stroke-opacity="1" stroke-width="2.688"/>
<circle clip-path="url(#clip992)" cx="334.987" cy="1198.1" r="14.4" fill="#009af9" fill-rule="evenodd" fill-opacity="1" stroke="#000000" stroke-opacity="1" stroke-width="2.688"/>
<circle clip-path="url(#clip992)" cx="347.668" cy="1198.66" r="14.4" fill="#009af9" fill-rule="evenodd" fill-opacity="1" stroke="#000000" stroke-opacity="1" stroke-width="2.688"/>
<circle clip-path="url(#clip992)" cx="360.349" cy="1199.09" r="14.4" fill="#009af9" fill-rule="evenodd" fill-opacity="1" stroke="#000000" stroke-opacity="1" stroke-width="2.688"/>
<circle clip-path="url(#clip992)" cx="373.03" cy="1199.42" r="14.4" fill="#009af9" fill-rule="evenodd" fill-opacity="1" stroke="#000000" stroke-opacity="1" stroke-width="2.688"/>
<circle clip-path="url(#clip992)" cx="385.711" cy="1199.68" r="14.4" fill="#009af9" fill-rule="evenodd" fill-opacity="1" stroke="#000000" stroke-opacity="1" stroke-width="2.688"/>
<circle clip-path="url(#clip992)" cx="419.706" cy="1200.13" r="14.4" fill="#009af9" fill-rule="evenodd" fill-opacity="1" stroke="#000000" stroke-opacity="1" stroke-width="2.688"/>
<circle clip-path="url(#clip992)" cx="453.701" cy="1200.4" r="14.4" fill="#009af9" fill-rule="evenodd" fill-opacity="1" stroke="#000000" stroke-opacity="1" stroke-width="2.688"/>
<circle clip-path="url(#clip992)" cx="509.881" cy="1200.64" r="14.4" fill="#009af9" fill-rule="evenodd" fill-opacity="1" stroke="#000000" stroke-opacity="1" stroke-width="2.688"/>
<circle clip-path="url(#clip992)" cx="562.124" cy="1200.76" r="14.4" fill="#009af9" fill-rule="evenodd" fill-opacity="1" stroke="#000000" stroke-opacity="1" stroke-width="2.688"/>
<circle clip-path="url(#clip992)" cx="627.706" cy="1200.84" r="14.4" fill="#009af9" fill-rule="evenodd" fill-opacity="1" stroke="#000000" stroke-opacity="1" stroke-width="2.688"/>
<circle clip-path="url(#clip992)" cx="686.533" cy="1200.88" r="14.4" fill="#009af9" fill-rule="evenodd" fill-opacity="1" stroke="#000000" stroke-opacity="1" stroke-width="2.688"/>
<circle clip-path="url(#clip992)" cx="753.869" cy="1200.91" r="14.4" fill="#009af9" fill-rule="evenodd" fill-opacity="1" stroke="#000000" stroke-opacity="1" stroke-width="2.688"/>
<circle clip-path="url(#clip992)" cx="804.203" cy="1200.93" r="14.4" fill="#009af9" fill-rule="evenodd" fill-opacity="1" stroke="#000000" stroke-opacity="1" stroke-width="2.688"/>
<circle clip-path="url(#clip992)" cx="868.58" cy="1200.94" r="14.4" fill="#009af9" fill-rule="evenodd" fill-opacity="1" stroke="#000000" stroke-opacity="1" stroke-width="2.688"/>
<circle clip-path="url(#clip992)" cx="927.338" cy="1200.95" r="14.4" fill="#009af9" fill-rule="evenodd" fill-opacity="1" stroke="#000000" stroke-opacity="1" stroke-width="2.688"/>
<circle clip-path="url(#clip992)" cx="994.211" cy="1200.95" r="14.4" fill="#009af9" fill-rule="evenodd" fill-opacity="1" stroke="#000000" stroke-opacity="1" stroke-width="2.688"/>
<circle clip-path="url(#clip992)" cx="1047.22" cy="1200.96" r="14.4" fill="#009af9" fill-rule="evenodd" fill-opacity="1" stroke="#000000" stroke-opacity="1" stroke-width="2.688"/>
<circle clip-path="url(#clip992)" cx="1113.08" cy="1200.96" r="14.4" fill="#009af9" fill-rule="evenodd" fill-opacity="1" stroke="#000000" stroke-opacity="1" stroke-width="2.688"/>
<circle clip-path="url(#clip992)" cx="1163.52" cy="1200.96" r="14.4" fill="#009af9" fill-rule="evenodd" fill-opacity="1" stroke="#000000" stroke-opacity="1" stroke-width="2.688"/>
<circle clip-path="url(#clip992)" cx="1234.63" cy="1200.97" r="14.4" fill="#009af9" fill-rule="evenodd" fill-opacity="1" stroke="#000000" stroke-opacity="1" stroke-width="2.688"/>
<circle clip-path="url(#clip992)" cx="1287.77" cy="1200.97" r="14.4" fill="#009af9" fill-rule="evenodd" fill-opacity="1" stroke="#000000" stroke-opacity="1" stroke-width="2.688"/>
<circle clip-path="url(#clip992)" cx="1348.21" cy="1200.97" r="14.4" fill="#009af9" fill-rule="evenodd" fill-opacity="1" stroke="#000000" stroke-opacity="1" stroke-width="2.688"/>
<circle clip-path="url(#clip992)" cx="1408.06" cy="1200.97" r="14.4" fill="#009af9" fill-rule="evenodd" fill-opacity="1" stroke="#000000" stroke-opacity="1" stroke-width="2.688"/>
<circle clip-path="url(#clip992)" cx="1473.9" cy="1200.97" r="14.4" fill="#009af9" fill-rule="evenodd" fill-opacity="1" stroke="#000000" stroke-opacity="1" stroke-width="2.688"/>
<circle clip-path="url(#clip992)" cx="1524.19" cy="1200.97" r="14.4" fill="#009af9" fill-rule="evenodd" fill-opacity="1" stroke="#000000" stroke-opacity="1" stroke-width="2.688"/>
<circle clip-path="url(#clip992)" cx="1587.66" cy="1200.97" r="14.4" fill="#009af9" fill-rule="evenodd" fill-opacity="1" stroke="#000000" stroke-opacity="1" stroke-width="2.688"/>
<circle clip-path="url(#clip992)" cx="1646.36" cy="1200.97" r="14.4" fill="#009af9" fill-rule="evenodd" fill-opacity="1" stroke="#000000" stroke-opacity="1" stroke-width="2.688"/>
<circle clip-path="url(#clip992)" cx="1706.9" cy="1200.97" r="14.4" fill="#009af9" fill-rule="evenodd" fill-opacity="1" stroke="#000000" stroke-opacity="1" stroke-width="2.688"/>
<circle clip-path="url(#clip992)" cx="1768.26" cy="1200.97" r="14.4" fill="#009af9" fill-rule="evenodd" fill-opacity="1" stroke="#000000" stroke-opacity="1" stroke-width="2.688"/>
<circle clip-path="url(#clip992)" cx="1832.34" cy="1200.97" r="14.4" fill="#009af9" fill-rule="evenodd" fill-opacity="1" stroke="#000000" stroke-opacity="1" stroke-width="2.688"/>
<circle clip-path="url(#clip992)" cx="1882.81" cy="1200.97" r="14.4" fill="#009af9" fill-rule="evenodd" fill-opacity="1" stroke="#000000" stroke-opacity="1" stroke-width="2.688"/>
<circle clip-path="url(#clip992)" cx="1997.76" cy="1200.97" r="14.4" fill="#009af9" fill-rule="evenodd" fill-opacity="1" stroke="#000000" stroke-opacity="1" stroke-width="2.688"/>
<circle clip-path="url(#clip992)" cx="2010.66" cy="1200.97" r="14.4" fill="#009af9" fill-rule="evenodd" fill-opacity="1" stroke="#000000" stroke-opacity="1" stroke-width="2.688"/>
<path clip-path="url(#clip990)" d="M1757.46 190.502 L2001.04 190.502 L2001.04 86.8219 L1757.46 86.8219  Z" fill="#ffffff" fill-rule="evenodd" fill-opacity="1"/>
<polyline clip-path="url(#clip990)" style="stroke:#000000; stroke-linecap:round; stroke-linejoin:round; stroke-width:4; stroke-opacity:1; fill:none" points="1757.46,190.502 2001.04,190.502 2001.04,86.8219 1757.46,86.8219 1757.46,190.502 "/>
<circle clip-path="url(#clip990)" cx="1842.41" cy="138.662" r="20.48" fill="#009af9" fill-rule="evenodd" fill-opacity="1" stroke="#000000" stroke-opacity="1" stroke-width="3.82293"/>
<path clip-path="url(#clip990)" d="M1941.21 158.349 Q1939.41 162.979 1937.69 164.391 Q1935.98 165.803 1933.11 165.803 L1929.71 165.803 L1929.71 162.238 L1932.21 162.238 Q1933.97 162.238 1934.94 161.405 Q1935.91 160.572 1937.09 157.47 L1937.86 155.525 L1927.37 130.016 L1931.88 130.016 L1939.98 150.294 L1948.09 130.016 L1952.6 130.016 L1941.21 158.349 Z" fill="#000000" fill-rule="nonzero" fill-opacity="1" /><path clip-path="url(#clip990)" d="M1959.89 152.007 L1967.53 152.007 L1967.53 125.641 L1959.22 127.308 L1959.22 123.049 L1967.48 121.382 L1972.16 121.382 L1972.16 152.007 L1979.8 152.007 L1979.8 155.942 L1959.89 155.942 L1959.89 152.007 Z" fill="#000000" fill-rule="nonzero" fill-opacity="1" /></svg>
