<?xml version="1.0" encoding="utf-8"?>
<svg xmlns="http://www.w3.org/2000/svg" xmlns:xlink="http://www.w3.org/1999/xlink" width="960" height="672" viewBox="0 0 3840 2688">
<defs>
  <clipPath id="clip530">
    <rect x="0" y="0" width="3840" height="2688"/>
  </clipPath>
</defs>
<path clip-path="url(#clip530)" d="M0 2688 L3840 2688 L3840 -1.47793e-13 L0 -1.47793e-13  Z" fill="#ffffff" fill-rule="evenodd" fill-opacity="1"/>
<defs>
  <clipPath id="clip531">
    <rect x="768" y="0" width="2689" height="2688"/>
  </clipPath>
</defs>
<path clip-path="url(#clip530)" d="M155.096 2561.84 L3792.76 2561.84 L3792.76 47.2441 L155.096 47.2441  Z" fill="#ffffff" fill-rule="evenodd" fill-opacity="1"/>
<defs>
  <clipPath id="clip532">
    <rect x="155" y="47" width="3639" height="2516"/>
  </clipPath>
</defs>
<polyline clip-path="url(#clip532)" style="stroke:#000000; stroke-linecap:round; stroke-linejoin:round; stroke-width:2; stroke-opacity:0.1; fill:none" points="258.048,2561.84 258.048,47.2441 "/>
<polyline clip-path="url(#clip532)" style="stroke:#000000; stroke-linecap:round; stroke-linejoin:round; stroke-width:2; stroke-opacity:0.1; fill:none" points="1115.99,2561.84 1115.99,47.2441 "/>
<polyline clip-path="url(#clip532)" style="stroke:#000000; stroke-linecap:round; stroke-linejoin:round; stroke-width:2; stroke-opacity:0.1; fill:none" points="1973.93,2561.84 1973.93,47.2441 "/>
<polyline clip-path="url(#clip532)" style="stroke:#000000; stroke-linecap:round; stroke-linejoin:round; stroke-width:2; stroke-opacity:0.1; fill:none" points="2831.86,2561.84 2831.86,47.2441 "/>
<polyline clip-path="url(#clip532)" style="stroke:#000000; stroke-linecap:round; stroke-linejoin:round; stroke-width:2; stroke-opacity:0.1; fill:none" points="3689.8,2561.84 3689.8,47.2441 "/>
<polyline clip-path="url(#clip532)" style="stroke:#000000; stroke-linecap:round; stroke-linejoin:round; stroke-width:2; stroke-opacity:0.1; fill:none" points="155.096,2490.67 3792.76,2490.67 "/>
<polyline clip-path="url(#clip532)" style="stroke:#000000; stroke-linecap:round; stroke-linejoin:round; stroke-width:2; stroke-opacity:0.1; fill:none" points="155.096,1996.45 3792.76,1996.45 "/>
<polyline clip-path="url(#clip532)" style="stroke:#000000; stroke-linecap:round; stroke-linejoin:round; stroke-width:2; stroke-opacity:0.1; fill:none" points="155.096,1502.23 3792.76,1502.23 "/>
<polyline clip-path="url(#clip532)" style="stroke:#000000; stroke-linecap:round; stroke-linejoin:round; stroke-width:2; stroke-opacity:0.1; fill:none" points="155.096,1008.01 3792.76,1008.01 "/>
<polyline clip-path="url(#clip532)" style="stroke:#000000; stroke-linecap:round; stroke-linejoin:round; stroke-width:2; stroke-opacity:0.1; fill:none" points="155.096,513.789 3792.76,513.789 "/>
<polyline clip-path="url(#clip530)" style="stroke:#000000; stroke-linecap:round; stroke-linejoin:round; stroke-width:4; stroke-opacity:1; fill:none" points="155.096,2561.84 3792.76,2561.84 "/>
<polyline clip-path="url(#clip530)" style="stroke:#000000; stroke-linecap:round; stroke-linejoin:round; stroke-width:4; stroke-opacity:1; fill:none" points="258.048,2561.84 258.048,2542.94 "/>
<polyline clip-path="url(#clip530)" style="stroke:#000000; stroke-linecap:round; stroke-linejoin:round; stroke-width:4; stroke-opacity:1; fill:none" points="1115.99,2561.84 1115.99,2542.94 "/>
<polyline clip-path="url(#clip530)" style="stroke:#000000; stroke-linecap:round; stroke-linejoin:round; stroke-width:4; stroke-opacity:1; fill:none" points="1973.93,2561.84 1973.93,2542.94 "/>
<polyline clip-path="url(#clip530)" style="stroke:#000000; stroke-linecap:round; stroke-linejoin:round; stroke-width:4; stroke-opacity:1; fill:none" points="2831.86,2561.84 2831.86,2542.94 "/>
<polyline clip-path="url(#clip530)" style="stroke:#000000; stroke-linecap:round; stroke-linejoin:round; stroke-width:4; stroke-opacity:1; fill:none" points="3689.8,2561.84 3689.8,2542.94 "/>
<path clip-path="url(#clip530)" d="M225.201 2631.82 L232.84 2631.82 L232.84 2605.46 L224.53 2607.13 L224.53 2602.87 L232.794 2601.2 L237.47 2601.2 L237.47 2631.82 L245.108 2631.82 L245.108 2635.76 L225.201 2635.76 L225.201 2631.82 Z" fill="#000000" fill-rule="nonzero" fill-opacity="1" /><path clip-path="url(#clip530)" d="M254.553 2629.88 L259.437 2629.88 L259.437 2635.76 L254.553 2635.76 L254.553 2629.88 Z" fill="#000000" fill-rule="nonzero" fill-opacity="1" /><path clip-path="url(#clip530)" d="M279.622 2604.28 Q276.011 2604.28 274.182 2607.84 Q272.377 2611.39 272.377 2618.51 Q272.377 2625.62 274.182 2629.19 Q276.011 2632.73 279.622 2632.73 Q283.256 2632.73 285.062 2629.19 Q286.891 2625.62 286.891 2618.51 Q286.891 2611.39 285.062 2607.84 Q283.256 2604.28 279.622 2604.28 M279.622 2600.57 Q285.432 2600.57 288.488 2605.18 Q291.567 2609.76 291.567 2618.51 Q291.567 2627.24 288.488 2631.85 Q285.432 2636.43 279.622 2636.43 Q273.812 2636.43 270.733 2631.85 Q267.678 2627.24 267.678 2618.51 Q267.678 2609.76 270.733 2605.18 Q273.812 2600.57 279.622 2600.57 Z" fill="#000000" fill-rule="nonzero" fill-opacity="1" /><path clip-path="url(#clip530)" d="M1083.64 2631.82 L1091.28 2631.82 L1091.28 2605.46 L1082.97 2607.13 L1082.97 2602.87 L1091.23 2601.2 L1095.91 2601.2 L1095.91 2631.82 L1103.54 2631.82 L1103.54 2635.76 L1083.64 2635.76 L1083.64 2631.82 Z" fill="#000000" fill-rule="nonzero" fill-opacity="1" /><path clip-path="url(#clip530)" d="M1112.99 2629.88 L1117.87 2629.88 L1117.87 2635.76 L1112.99 2635.76 L1112.99 2629.88 Z" fill="#000000" fill-rule="nonzero" fill-opacity="1" /><path clip-path="url(#clip530)" d="M1128.1 2601.2 L1146.46 2601.2 L1146.46 2605.14 L1132.39 2605.14 L1132.39 2613.61 Q1133.41 2613.26 1134.42 2613.1 Q1135.44 2612.91 1136.46 2612.91 Q1142.25 2612.91 1145.63 2616.08 Q1149.01 2619.26 1149.01 2624.67 Q1149.01 2630.25 1145.54 2633.35 Q1142.06 2636.43 1135.74 2636.43 Q1133.57 2636.43 1131.3 2636.06 Q1129.05 2635.69 1126.65 2634.95 L1126.65 2630.25 Q1128.73 2631.38 1130.95 2631.94 Q1133.17 2632.5 1135.65 2632.5 Q1139.66 2632.5 1141.99 2630.39 Q1144.33 2628.28 1144.33 2624.67 Q1144.33 2621.06 1141.99 2618.95 Q1139.66 2616.85 1135.65 2616.85 Q1133.78 2616.85 1131.9 2617.26 Q1130.05 2617.68 1128.1 2618.56 L1128.1 2601.2 Z" fill="#000000" fill-rule="nonzero" fill-opacity="1" /><path clip-path="url(#clip530)" d="M1945.16 2631.82 L1961.48 2631.82 L1961.48 2635.76 L1939.54 2635.76 L1939.54 2631.82 Q1942.2 2629.07 1946.78 2624.44 Q1951.39 2619.79 1952.57 2618.45 Q1954.82 2615.92 1955.7 2614.19 Q1956.6 2612.43 1956.6 2610.74 Q1956.6 2607.98 1954.65 2606.25 Q1952.73 2604.51 1949.63 2604.51 Q1947.43 2604.51 1944.98 2605.27 Q1942.55 2606.04 1939.77 2607.59 L1939.77 2602.87 Q1942.59 2601.73 1945.05 2601.15 Q1947.5 2600.57 1949.54 2600.57 Q1954.91 2600.57 1958.1 2603.26 Q1961.3 2605.95 1961.3 2610.44 Q1961.3 2612.57 1960.49 2614.49 Q1959.7 2616.38 1957.59 2618.98 Q1957.02 2619.65 1953.91 2622.87 Q1950.81 2626.06 1945.16 2631.82 Z" fill="#000000" fill-rule="nonzero" fill-opacity="1" /><path clip-path="url(#clip530)" d="M1971.3 2629.88 L1976.18 2629.88 L1976.18 2635.76 L1971.3 2635.76 L1971.3 2629.88 Z" fill="#000000" fill-rule="nonzero" fill-opacity="1" /><path clip-path="url(#clip530)" d="M1996.37 2604.28 Q1992.76 2604.28 1990.93 2607.84 Q1989.12 2611.39 1989.12 2618.51 Q1989.12 2625.62 1990.93 2629.19 Q1992.76 2632.73 1996.37 2632.73 Q2000 2632.73 2001.81 2629.19 Q2003.64 2625.62 2003.64 2618.51 Q2003.64 2611.39 2001.81 2607.84 Q2000 2604.28 1996.37 2604.28 M1996.37 2600.57 Q2002.18 2600.57 2005.23 2605.18 Q2008.31 2609.76 2008.31 2618.51 Q2008.31 2627.24 2005.23 2631.85 Q2002.18 2636.43 1996.37 2636.43 Q1990.56 2636.43 1987.48 2631.85 Q1984.42 2627.24 1984.42 2618.51 Q1984.42 2609.76 1987.48 2605.18 Q1990.56 2600.57 1996.37 2600.57 Z" fill="#000000" fill-rule="nonzero" fill-opacity="1" /><path clip-path="url(#clip530)" d="M2803.6 2631.82 L2819.92 2631.82 L2819.92 2635.76 L2797.98 2635.76 L2797.98 2631.82 Q2800.64 2629.07 2805.22 2624.44 Q2809.83 2619.79 2811.01 2618.45 Q2813.25 2615.92 2814.13 2614.19 Q2815.04 2612.43 2815.04 2610.74 Q2815.04 2607.98 2813.09 2606.25 Q2811.17 2604.51 2808.07 2604.51 Q2805.87 2604.51 2803.42 2605.27 Q2800.99 2606.04 2798.21 2607.59 L2798.21 2602.87 Q2801.03 2601.73 2803.49 2601.15 Q2805.94 2600.57 2807.98 2600.57 Q2813.35 2600.57 2816.54 2603.26 Q2819.73 2605.95 2819.73 2610.44 Q2819.73 2612.57 2818.92 2614.49 Q2818.14 2616.38 2816.03 2618.98 Q2815.45 2619.65 2812.35 2622.87 Q2809.25 2626.06 2803.6 2631.82 Z" fill="#000000" fill-rule="nonzero" fill-opacity="1" /><path clip-path="url(#clip530)" d="M2829.73 2629.88 L2834.62 2629.88 L2834.62 2635.76 L2829.73 2635.76 L2829.73 2629.88 Z" fill="#000000" fill-rule="nonzero" fill-opacity="1" /><path clip-path="url(#clip530)" d="M2844.85 2601.2 L2863.21 2601.2 L2863.21 2605.14 L2849.13 2605.14 L2849.13 2613.61 Q2850.15 2613.26 2851.17 2613.1 Q2852.19 2612.91 2853.21 2612.91 Q2858.99 2612.91 2862.37 2616.08 Q2865.75 2619.26 2865.75 2624.67 Q2865.75 2630.25 2862.28 2633.35 Q2858.81 2636.43 2852.49 2636.43 Q2850.31 2636.43 2848.04 2636.06 Q2845.8 2635.69 2843.39 2634.95 L2843.39 2630.25 Q2845.48 2631.38 2847.7 2631.94 Q2849.92 2632.5 2852.4 2632.5 Q2856.4 2632.5 2858.74 2630.39 Q2861.08 2628.28 2861.08 2624.67 Q2861.08 2621.06 2858.74 2618.95 Q2856.4 2616.85 2852.4 2616.85 Q2850.52 2616.85 2848.65 2617.26 Q2846.79 2617.68 2844.85 2618.56 L2844.85 2601.2 Z" fill="#000000" fill-rule="nonzero" fill-opacity="1" /><path clip-path="url(#clip530)" d="M3671.11 2617.13 Q3674.47 2617.84 3676.34 2620.11 Q3678.24 2622.38 3678.24 2625.71 Q3678.24 2630.83 3674.72 2633.63 Q3671.2 2636.43 3664.72 2636.43 Q3662.55 2636.43 3660.23 2635.99 Q3657.94 2635.57 3655.49 2634.72 L3655.49 2630.2 Q3657.43 2631.34 3659.75 2631.92 Q3662.06 2632.5 3664.58 2632.5 Q3668.98 2632.5 3671.27 2630.76 Q3673.59 2629.02 3673.59 2625.71 Q3673.59 2622.66 3671.44 2620.95 Q3669.31 2619.21 3665.49 2619.21 L3661.46 2619.21 L3661.46 2615.37 L3665.67 2615.37 Q3669.12 2615.37 3670.95 2614 Q3672.78 2612.61 3672.78 2610.02 Q3672.78 2607.36 3670.88 2605.95 Q3669 2604.51 3665.49 2604.51 Q3663.56 2604.51 3661.37 2604.93 Q3659.17 2605.34 3656.53 2606.22 L3656.53 2602.06 Q3659.19 2601.32 3661.5 2600.95 Q3663.84 2600.57 3665.9 2600.57 Q3671.23 2600.57 3674.33 2603.01 Q3677.43 2605.41 3677.43 2609.53 Q3677.43 2612.4 3675.79 2614.39 Q3674.14 2616.36 3671.11 2617.13 Z" fill="#000000" fill-rule="nonzero" fill-opacity="1" /><path clip-path="url(#clip530)" d="M3687.11 2629.88 L3691.99 2629.88 L3691.99 2635.76 L3687.11 2635.76 L3687.11 2629.88 Z" fill="#000000" fill-rule="nonzero" fill-opacity="1" /><path clip-path="url(#clip530)" d="M3712.18 2604.28 Q3708.56 2604.28 3706.74 2607.84 Q3704.93 2611.39 3704.93 2618.51 Q3704.93 2625.62 3706.74 2629.19 Q3708.56 2632.73 3712.18 2632.73 Q3715.81 2632.73 3717.62 2629.19 Q3719.44 2625.62 3719.44 2618.51 Q3719.44 2611.39 3717.62 2607.84 Q3715.81 2604.28 3712.18 2604.28 M3712.18 2600.57 Q3717.99 2600.57 3721.04 2605.18 Q3724.12 2609.76 3724.12 2618.51 Q3724.12 2627.24 3721.04 2631.85 Q3717.99 2636.43 3712.18 2636.43 Q3706.37 2636.43 3703.29 2631.85 Q3700.23 2627.24 3700.23 2618.51 Q3700.23 2609.76 3703.29 2605.18 Q3706.37 2600.57 3712.18 2600.57 Z" fill="#000000" fill-rule="nonzero" fill-opacity="1" /><polyline clip-path="url(#clip530)" style="stroke:#000000; stroke-linecap:round; stroke-linejoin:round; stroke-width:4; stroke-opacity:1; fill:none" points="155.096,2561.84 155.096,47.2441 "/>
<polyline clip-path="url(#clip530)" style="stroke:#000000; stroke-linecap:round; stroke-linejoin:round; stroke-width:4; stroke-opacity:1; fill:none" points="155.096,2490.67 173.993,2490.67 "/>
<polyline clip-path="url(#clip530)" style="stroke:#000000; stroke-linecap:round; stroke-linejoin:round; stroke-width:4; stroke-opacity:1; fill:none" points="155.096,1996.45 173.993,1996.45 "/>
<polyline clip-path="url(#clip530)" style="stroke:#000000; stroke-linecap:round; stroke-linejoin:round; stroke-width:4; stroke-opacity:1; fill:none" points="155.096,1502.23 173.993,1502.23 "/>
<polyline clip-path="url(#clip530)" style="stroke:#000000; stroke-linecap:round; stroke-linejoin:round; stroke-width:4; stroke-opacity:1; fill:none" points="155.096,1008.01 173.993,1008.01 "/>
<polyline clip-path="url(#clip530)" style="stroke:#000000; stroke-linecap:round; stroke-linejoin:round; stroke-width:4; stroke-opacity:1; fill:none" points="155.096,513.789 173.993,513.789 "/>
<path clip-path="url(#clip530)" d="M85.5512 2476.47 Q81.9401 2476.47 80.1114 2480.04 Q78.3058 2483.58 78.3058 2490.71 Q78.3058 2497.81 80.1114 2501.38 Q81.9401 2504.92 85.5512 2504.92 Q89.1854 2504.92 90.9909 2501.38 Q92.8196 2497.81 92.8196 2490.71 Q92.8196 2483.58 90.9909 2480.04 Q89.1854 2476.47 85.5512 2476.47 M85.5512 2472.77 Q91.3613 2472.77 94.4169 2477.37 Q97.4955 2481.96 97.4955 2490.71 Q97.4955 2499.43 94.4169 2504.04 Q91.3613 2508.62 85.5512 2508.62 Q79.741 2508.62 76.6623 2504.04 Q73.6068 2499.43 73.6068 2490.71 Q73.6068 2481.96 76.6623 2477.37 Q79.741 2472.77 85.5512 2472.77 Z" fill="#000000" fill-rule="nonzero" fill-opacity="1" /><path clip-path="url(#clip530)" d="M76.5929 1979.17 L94.9493 1979.17 L94.9493 1983.11 L80.8753 1983.11 L80.8753 1991.58 Q81.8938 1991.23 82.9123 1991.07 Q83.9308 1990.88 84.9493 1990.88 Q90.7363 1990.88 94.1159 1994.06 Q97.4955 1997.23 97.4955 2002.64 Q97.4955 2008.22 94.0233 2011.32 Q90.5511 2014.4 84.2317 2014.4 Q82.0558 2014.4 79.7873 2014.03 Q77.5419 2013.66 75.1346 2012.92 L75.1346 2008.22 Q77.2179 2009.36 79.4401 2009.91 Q81.6623 2010.47 84.1391 2010.47 Q88.1437 2010.47 90.4817 2008.36 Q92.8196 2006.25 92.8196 2002.64 Q92.8196 1999.03 90.4817 1996.93 Q88.1437 1994.82 84.1391 1994.82 Q82.2641 1994.82 80.3892 1995.24 Q78.5373 1995.65 76.5929 1996.53 L76.5929 1979.17 Z" fill="#000000" fill-rule="nonzero" fill-opacity="1" /><path clip-path="url(#clip530)" d="M46.1995 1515.58 L53.8384 1515.58 L53.8384 1489.21 L45.5282 1490.88 L45.5282 1486.62 L53.7921 1484.95 L58.468 1484.95 L58.468 1515.58 L66.1068 1515.58 L66.1068 1519.51 L46.1995 1519.51 L46.1995 1515.58 Z" fill="#000000" fill-rule="nonzero" fill-opacity="1" /><path clip-path="url(#clip530)" d="M85.5512 1488.03 Q81.9401 1488.03 80.1114 1491.59 Q78.3058 1495.14 78.3058 1502.27 Q78.3058 1509.37 80.1114 1512.94 Q81.9401 1516.48 85.5512 1516.48 Q89.1854 1516.48 90.9909 1512.94 Q92.8196 1509.37 92.8196 1502.27 Q92.8196 1495.14 90.9909 1491.59 Q89.1854 1488.03 85.5512 1488.03 M85.5512 1484.33 Q91.3613 1484.33 94.4169 1488.93 Q97.4955 1493.52 97.4955 1502.27 Q97.4955 1510.99 94.4169 1515.6 Q91.3613 1520.18 85.5512 1520.18 Q79.741 1520.18 76.6623 1515.6 Q73.6068 1510.99 73.6068 1502.27 Q73.6068 1493.52 76.6623 1488.93 Q79.741 1484.33 85.5512 1484.33 Z" fill="#000000" fill-rule="nonzero" fill-opacity="1" /><path clip-path="url(#clip530)" d="M47.1949 1021.35 L54.8337 1021.35 L54.8337 994.989 L46.5236 996.655 L46.5236 992.396 L54.7874 990.729 L59.4633 990.729 L59.4633 1021.35 L67.1022 1021.35 L67.1022 1025.29 L47.1949 1025.29 L47.1949 1021.35 Z" fill="#000000" fill-rule="nonzero" fill-opacity="1" /><path clip-path="url(#clip530)" d="M76.5929 990.729 L94.9493 990.729 L94.9493 994.665 L80.8753 994.665 L80.8753 1003.14 Q81.8938 1002.79 82.9123 1002.63 Q83.9308 1002.44 84.9493 1002.44 Q90.7363 1002.44 94.1159 1005.61 Q97.4955 1008.78 97.4955 1014.2 Q97.4955 1019.78 94.0233 1022.88 Q90.5511 1025.96 84.2317 1025.96 Q82.0558 1025.96 79.7873 1025.59 Q77.5419 1025.22 75.1346 1024.48 L75.1346 1019.78 Q77.2179 1020.91 79.4401 1021.47 Q81.6623 1022.03 84.1391 1022.03 Q88.1437 1022.03 90.4817 1019.92 Q92.8196 1017.81 92.8196 1014.2 Q92.8196 1010.59 90.4817 1008.48 Q88.1437 1006.38 84.1391 1006.38 Q82.2641 1006.38 80.3892 1006.79 Q78.5373 1007.21 76.5929 1008.09 L76.5929 990.729 Z" fill="#000000" fill-rule="nonzero" fill-opacity="1" /><path clip-path="url(#clip530)" d="M49.4171 527.133 L65.7365 527.133 L65.7365 531.069 L43.7921 531.069 L43.7921 527.133 Q46.4541 524.379 51.0375 519.749 Q55.6439 515.096 56.8245 513.754 Q59.0698 511.231 59.9494 509.495 Q60.8522 507.735 60.8522 506.046 Q60.8522 503.291 58.9078 501.555 Q56.9865 499.819 53.8847 499.819 Q51.6856 499.819 49.2319 500.583 Q46.8014 501.347 44.0236 502.897 L44.0236 498.175 Q46.8477 497.041 49.3014 496.462 Q51.755 495.884 53.7921 495.884 Q59.1624 495.884 62.3568 498.569 Q65.5513 501.254 65.5513 505.745 Q65.5513 507.874 64.7411 509.796 Q63.9541 511.694 61.8476 514.286 Q61.2689 514.958 58.167 518.175 Q55.0652 521.37 49.4171 527.133 Z" fill="#000000" fill-rule="nonzero" fill-opacity="1" /><path clip-path="url(#clip530)" d="M85.5512 499.587 Q81.9401 499.587 80.1114 503.152 Q78.3058 506.694 78.3058 513.823 Q78.3058 520.93 80.1114 524.495 Q81.9401 528.036 85.5512 528.036 Q89.1854 528.036 90.9909 524.495 Q92.8196 520.93 92.8196 513.823 Q92.8196 506.694 90.9909 503.152 Q89.1854 499.587 85.5512 499.587 M85.5512 495.884 Q91.3613 495.884 94.4169 500.49 Q97.4955 505.073 97.4955 513.823 Q97.4955 522.55 94.4169 527.157 Q91.3613 531.74 85.5512 531.74 Q79.741 531.74 76.6623 527.157 Q73.6068 522.55 73.6068 513.823 Q73.6068 505.073 76.6623 500.49 Q79.741 495.884 85.5512 495.884 Z" fill="#000000" fill-rule="nonzero" fill-opacity="1" /><path clip-path="url(#clip532)" d="M258.048 2391.83 L1973.93 1798.76 L3689.8 2095.3 L3689.8 2490.67 L1973.93 2490.67 L258.048 2490.67  Z" fill="#ff0000" fill-rule="evenodd" fill-opacity="0.2"/>
<polyline clip-path="url(#clip532)" style="stroke:#ff0000; stroke-linecap:round; stroke-linejoin:round; stroke-width:4; stroke-opacity:1; fill:none" points="258.048,2391.83 1973.93,1798.76 3689.8,2095.3 "/>
<path clip-path="url(#clip532)" d="M258.048 2194.14 L1973.93 1008.01 L3689.8 1601.07 L3689.8 2095.3 L1973.93 1798.76 L258.048 2391.83  Z" fill="#008000" fill-rule="evenodd" fill-opacity="0.3"/>
<polyline clip-path="url(#clip532)" style="stroke:#008000; stroke-linecap:round; stroke-linejoin:round; stroke-width:4; stroke-opacity:1; fill:none" points="258.048,2194.14 1973.93,1008.01 3689.8,1601.07 "/>
<path clip-path="url(#clip532)" d="M258.048 1897.61 L1973.93 118.412 L3689.8 1008.01 L3689.8 1601.07 L1973.93 1008.01 L258.048 2194.14  Z" fill="#0000ff" fill-rule="evenodd" fill-opacity="0.4"/>
<polyline clip-path="url(#clip532)" style="stroke:#0000ff; stroke-linecap:round; stroke-linejoin:round; stroke-width:4; stroke-opacity:1; fill:none" points="258.048,1897.61 1973.93,118.412 3689.8,1008.01 "/>
<path clip-path="url(#clip530)" d="M3254.73 338.424 L3671.5 338.424 L3671.5 131.064 L3254.73 131.064  Z" fill="#ffffff" fill-rule="evenodd" fill-opacity="1"/>
<polyline clip-path="url(#clip530)" style="stroke:#000000; stroke-linecap:round; stroke-linejoin:round; stroke-width:4; stroke-opacity:1; fill:none" points="3254.73,338.424 3671.5,338.424 3671.5,131.064 3254.73,131.064 3254.73,338.424 "/>
<path clip-path="url(#clip530)" d="M3295.14 203.64 L3537.65 203.64 L3537.65 162.168 L3295.14 162.168 L3295.14 203.64  Z" fill="#ff0000" fill-rule="evenodd" fill-opacity="0.2"/>
<polyline clip-path="url(#clip530)" style="stroke:#ff0000; stroke-linecap:round; stroke-linejoin:round; stroke-width:4; stroke-opacity:1; fill:none" points="3295.14,162.168 3537.65,162.168 "/>
<path clip-path="url(#clip530)" d="M3591.92 202.591 Q3590.11 207.221 3588.4 208.633 Q3586.68 210.045 3583.81 210.045 L3580.41 210.045 L3580.41 206.48 L3582.91 206.48 Q3584.67 206.48 3585.64 205.647 Q3586.61 204.814 3587.8 201.712 L3588.56 199.767 L3578.07 174.258 L3582.59 174.258 L3590.69 194.536 L3598.79 174.258 L3603.3 174.258 L3591.92 202.591 Z" fill="#000000" fill-rule="nonzero" fill-opacity="1" /><path clip-path="url(#clip530)" d="M3610.6 196.249 L3618.23 196.249 L3618.23 169.883 L3609.92 171.55 L3609.92 167.291 L3618.19 165.624 L3622.86 165.624 L3622.86 196.249 L3630.5 196.249 L3630.5 200.184 L3610.6 200.184 L3610.6 196.249 Z" fill="#000000" fill-rule="nonzero" fill-opacity="1" /><path clip-path="url(#clip530)" d="M3295.14 255.48 L3537.65 255.48 L3537.65 214.008 L3295.14 214.008 L3295.14 255.48  Z" fill="#008000" fill-rule="evenodd" fill-opacity="0.3"/>
<polyline clip-path="url(#clip530)" style="stroke:#008000; stroke-linecap:round; stroke-linejoin:round; stroke-width:4; stroke-opacity:1; fill:none" points="3295.14,214.008 3537.65,214.008 "/>
<path clip-path="url(#clip530)" d="M3591.92 254.431 Q3590.11 259.061 3588.4 260.473 Q3586.68 261.885 3583.81 261.885 L3580.41 261.885 L3580.41 258.32 L3582.91 258.32 Q3584.67 258.32 3585.64 257.487 Q3586.61 256.654 3587.8 253.552 L3588.56 251.607 L3578.07 226.098 L3582.59 226.098 L3590.69 246.376 L3598.79 226.098 L3603.3 226.098 L3591.92 254.431 Z" fill="#000000" fill-rule="nonzero" fill-opacity="1" /><path clip-path="url(#clip530)" d="M3613.81 248.089 L3630.13 248.089 L3630.13 252.024 L3608.19 252.024 L3608.19 248.089 Q3610.85 245.334 3615.43 240.705 Q3620.04 236.052 3621.22 234.709 Q3623.47 232.186 3624.35 230.45 Q3625.25 228.691 3625.25 227.001 Q3625.25 224.246 3623.3 222.51 Q3621.38 220.774 3618.28 220.774 Q3616.08 220.774 3613.63 221.538 Q3611.2 222.302 3608.42 223.853 L3608.42 219.131 Q3611.24 217.996 3613.7 217.418 Q3616.15 216.839 3618.19 216.839 Q3623.56 216.839 3626.75 219.524 Q3629.95 222.209 3629.95 226.7 Q3629.95 228.83 3629.14 230.751 Q3628.35 232.649 3626.24 235.242 Q3625.67 235.913 3622.56 239.131 Q3619.46 242.325 3613.81 248.089 Z" fill="#000000" fill-rule="nonzero" fill-opacity="1" /><path clip-path="url(#clip530)" d="M3295.14 307.32 L3537.65 307.32 L3537.65 265.848 L3295.14 265.848 L3295.14 307.32  Z" fill="#0000ff" fill-rule="evenodd" fill-opacity="0.4"/>
<polyline clip-path="url(#clip530)" style="stroke:#0000ff; stroke-linecap:round; stroke-linejoin:round; stroke-width:4; stroke-opacity:1; fill:none" points="3295.14,265.848 3537.65,265.848 "/>
<path clip-path="url(#clip530)" d="M3591.92 306.271 Q3590.11 310.901 3588.4 312.313 Q3586.68 313.725 3583.81 313.725 L3580.41 313.725 L3580.41 310.16 L3582.91 310.16 Q3584.67 310.16 3585.64 309.327 Q3586.61 308.494 3587.8 305.392 L3588.56 303.447 L3578.07 277.938 L3582.59 277.938 L3590.69 298.216 L3598.79 277.938 L3603.3 277.938 L3591.92 306.271 Z" fill="#000000" fill-rule="nonzero" fill-opacity="1" /><path clip-path="url(#clip530)" d="M3623.95 285.23 Q3627.31 285.947 3629.18 288.216 Q3631.08 290.484 3631.08 293.818 Q3631.08 298.933 3627.56 301.734 Q3624.05 304.535 3617.56 304.535 Q3615.39 304.535 3613.07 304.095 Q3610.78 303.679 3608.33 302.822 L3608.33 298.308 Q3610.27 299.443 3612.59 300.021 Q3614.9 300.6 3617.42 300.6 Q3621.82 300.6 3624.11 298.864 Q3626.43 297.128 3626.43 293.818 Q3626.43 290.762 3624.28 289.049 Q3622.15 287.313 3618.33 287.313 L3614.3 287.313 L3614.3 283.471 L3618.51 283.471 Q3621.96 283.471 3623.79 282.105 Q3625.62 280.716 3625.62 278.123 Q3625.62 275.461 3623.72 274.049 Q3621.85 272.614 3618.33 272.614 Q3616.41 272.614 3614.21 273.031 Q3612.01 273.447 3609.37 274.327 L3609.37 270.16 Q3612.03 269.42 3614.35 269.049 Q3616.68 268.679 3618.74 268.679 Q3624.07 268.679 3627.17 271.109 Q3630.27 273.517 3630.27 277.637 Q3630.27 280.508 3628.63 282.498 Q3626.98 284.466 3623.95 285.23 Z" fill="#000000" fill-rule="nonzero" fill-opacity="1" /></svg>
