<?xml version="1.0" encoding="utf-8"?>
<svg xmlns="http://www.w3.org/2000/svg" xmlns:xlink="http://www.w3.org/1999/xlink" width="960" height="672" viewBox="0 0 3840 2688">
<defs>
  <clipPath id="clip890">
    <rect x="0" y="0" width="3840" height="2688"/>
  </clipPath>
</defs>
<path clip-path="url(#clip890)" d="M0 2688 L3840 2688 L3840 -1.47793e-13 L0 -1.47793e-13  Z" fill="#ffffff" fill-rule="evenodd" fill-opacity="1"/>
<defs>
  <clipPath id="clip891">
    <rect x="768" y="0" width="2689" height="2688"/>
  </clipPath>
</defs>
<path clip-path="url(#clip890)" d="M152.364 2561.84 L3792.76 2561.84 L3792.76 47.2441 L152.364 47.2441  Z" fill="#ffffff" fill-rule="evenodd" fill-opacity="1"/>
<defs>
  <clipPath id="clip892">
    <rect x="152" y="47" width="3641" height="2516"/>
  </clipPath>
</defs>
<polyline clip-path="url(#clip892)" style="stroke:#000000; stroke-linecap:round; stroke-linejoin:round; stroke-width:2; stroke-opacity:0.1; fill:none" points="255.394,2561.84 255.394,47.2441 "/>
<polyline clip-path="url(#clip892)" style="stroke:#000000; stroke-linecap:round; stroke-linejoin:round; stroke-width:2; stroke-opacity:0.1; fill:none" points="1400.17,2561.84 1400.17,47.2441 "/>
<polyline clip-path="url(#clip892)" style="stroke:#000000; stroke-linecap:round; stroke-linejoin:round; stroke-width:2; stroke-opacity:0.1; fill:none" points="2544.95,2561.84 2544.95,47.2441 "/>
<polyline clip-path="url(#clip892)" style="stroke:#000000; stroke-linecap:round; stroke-linejoin:round; stroke-width:2; stroke-opacity:0.1; fill:none" points="3689.73,2561.84 3689.73,47.2441 "/>
<polyline clip-path="url(#clip892)" style="stroke:#000000; stroke-linecap:round; stroke-linejoin:round; stroke-width:2; stroke-opacity:0.1; fill:none" points="152.364,2174.37 3792.76,2174.37 "/>
<polyline clip-path="url(#clip892)" style="stroke:#000000; stroke-linecap:round; stroke-linejoin:round; stroke-width:2; stroke-opacity:0.1; fill:none" points="152.364,1699.92 3792.76,1699.92 "/>
<polyline clip-path="url(#clip892)" style="stroke:#000000; stroke-linecap:round; stroke-linejoin:round; stroke-width:2; stroke-opacity:0.1; fill:none" points="152.364,1225.47 3792.76,1225.47 "/>
<polyline clip-path="url(#clip892)" style="stroke:#000000; stroke-linecap:round; stroke-linejoin:round; stroke-width:2; stroke-opacity:0.1; fill:none" points="152.364,751.015 3792.76,751.015 "/>
<polyline clip-path="url(#clip892)" style="stroke:#000000; stroke-linecap:round; stroke-linejoin:round; stroke-width:2; stroke-opacity:0.1; fill:none" points="152.364,276.563 3792.76,276.563 "/>
<polyline clip-path="url(#clip890)" style="stroke:#000000; stroke-linecap:round; stroke-linejoin:round; stroke-width:4; stroke-opacity:1; fill:none" points="152.364,2561.84 3792.76,2561.84 "/>
<polyline clip-path="url(#clip890)" style="stroke:#000000; stroke-linecap:round; stroke-linejoin:round; stroke-width:4; stroke-opacity:1; fill:none" points="255.394,2561.84 255.394,2542.94 "/>
<polyline clip-path="url(#clip890)" style="stroke:#000000; stroke-linecap:round; stroke-linejoin:round; stroke-width:4; stroke-opacity:1; fill:none" points="1400.17,2561.84 1400.17,2542.94 "/>
<polyline clip-path="url(#clip890)" style="stroke:#000000; stroke-linecap:round; stroke-linejoin:round; stroke-width:4; stroke-opacity:1; fill:none" points="2544.95,2561.84 2544.95,2542.94 "/>
<polyline clip-path="url(#clip890)" style="stroke:#000000; stroke-linecap:round; stroke-linejoin:round; stroke-width:4; stroke-opacity:1; fill:none" points="3689.73,2561.84 3689.73,2542.94 "/>
<path clip-path="url(#clip890)" d="M245.776 2631.82 L253.415 2631.82 L253.415 2605.46 L245.105 2607.13 L245.105 2602.87 L253.369 2601.2 L258.044 2601.2 L258.044 2631.82 L265.683 2631.82 L265.683 2635.76 L245.776 2635.76 L245.776 2631.82 Z" fill="#000000" fill-rule="nonzero" fill-opacity="1" /><path clip-path="url(#clip890)" d="M1394.82 2631.82 L1411.14 2631.82 L1411.14 2635.76 L1389.2 2635.76 L1389.2 2631.82 Q1391.86 2629.07 1396.44 2624.44 Q1401.05 2619.79 1402.23 2618.45 Q1404.48 2615.92 1405.36 2614.19 Q1406.26 2612.43 1406.26 2610.74 Q1406.26 2607.98 1404.31 2606.25 Q1402.39 2604.51 1399.29 2604.51 Q1397.09 2604.51 1394.64 2605.27 Q1392.21 2606.04 1389.43 2607.59 L1389.43 2602.87 Q1392.25 2601.73 1394.71 2601.15 Q1397.16 2600.57 1399.2 2600.57 Q1404.57 2600.57 1407.76 2603.26 Q1410.96 2605.95 1410.96 2610.44 Q1410.96 2612.57 1410.15 2614.49 Q1409.36 2616.38 1407.25 2618.98 Q1406.68 2619.65 1403.57 2622.87 Q1400.47 2626.06 1394.82 2631.82 Z" fill="#000000" fill-rule="nonzero" fill-opacity="1" /><path clip-path="url(#clip890)" d="M2549.2 2617.13 Q2552.55 2617.84 2554.43 2620.11 Q2556.33 2622.38 2556.33 2625.71 Q2556.33 2630.83 2552.81 2633.63 Q2549.29 2636.43 2542.81 2636.43 Q2540.63 2636.43 2538.32 2635.99 Q2536.03 2635.57 2533.57 2634.72 L2533.57 2630.2 Q2535.52 2631.34 2537.83 2631.92 Q2540.15 2632.5 2542.67 2632.5 Q2547.07 2632.5 2549.36 2630.76 Q2551.67 2629.02 2551.67 2625.71 Q2551.67 2622.66 2549.52 2620.95 Q2547.39 2619.21 2543.57 2619.21 L2539.54 2619.21 L2539.54 2615.37 L2543.76 2615.37 Q2547.21 2615.37 2549.03 2614 Q2550.86 2612.61 2550.86 2610.02 Q2550.86 2607.36 2548.96 2605.95 Q2547.09 2604.51 2543.57 2604.51 Q2541.65 2604.51 2539.45 2604.93 Q2537.25 2605.34 2534.61 2606.22 L2534.61 2602.06 Q2537.28 2601.32 2539.59 2600.95 Q2541.93 2600.57 2543.99 2600.57 Q2549.31 2600.57 2552.41 2603.01 Q2555.52 2605.41 2555.52 2609.53 Q2555.52 2612.4 2553.87 2614.39 Q2552.23 2616.36 2549.2 2617.13 Z" fill="#000000" fill-rule="nonzero" fill-opacity="1" /><path clip-path="url(#clip890)" d="M3692.74 2605.27 L3680.93 2623.72 L3692.74 2623.72 L3692.74 2605.27 M3691.51 2601.2 L3697.39 2601.2 L3697.39 2623.72 L3702.32 2623.72 L3702.32 2627.61 L3697.39 2627.61 L3697.39 2635.76 L3692.74 2635.76 L3692.74 2627.61 L3677.13 2627.61 L3677.13 2623.1 L3691.51 2601.2 Z" fill="#000000" fill-rule="nonzero" fill-opacity="1" /><polyline clip-path="url(#clip890)" style="stroke:#000000; stroke-linecap:round; stroke-linejoin:round; stroke-width:4; stroke-opacity:1; fill:none" points="152.364,2561.84 152.364,47.2441 "/>
<polyline clip-path="url(#clip890)" style="stroke:#000000; stroke-linecap:round; stroke-linejoin:round; stroke-width:4; stroke-opacity:1; fill:none" points="152.364,2174.37 171.262,2174.37 "/>
<polyline clip-path="url(#clip890)" style="stroke:#000000; stroke-linecap:round; stroke-linejoin:round; stroke-width:4; stroke-opacity:1; fill:none" points="152.364,1699.92 171.262,1699.92 "/>
<polyline clip-path="url(#clip890)" style="stroke:#000000; stroke-linecap:round; stroke-linejoin:round; stroke-width:4; stroke-opacity:1; fill:none" points="152.364,1225.47 171.262,1225.47 "/>
<polyline clip-path="url(#clip890)" style="stroke:#000000; stroke-linecap:round; stroke-linejoin:round; stroke-width:4; stroke-opacity:1; fill:none" points="152.364,751.015 171.262,751.015 "/>
<polyline clip-path="url(#clip890)" style="stroke:#000000; stroke-linecap:round; stroke-linejoin:round; stroke-width:4; stroke-opacity:1; fill:none" points="152.364,276.563 171.262,276.563 "/>
<path clip-path="url(#clip890)" d="M87.6345 2173.02 Q90.9909 2173.73 92.8659 2176 Q94.7641 2178.27 94.7641 2181.6 Q94.7641 2186.72 91.2456 2189.52 Q87.7271 2192.32 81.2456 2192.32 Q79.0697 2192.32 76.7549 2191.88 Q74.4633 2191.47 72.0096 2190.61 L72.0096 2186.1 Q73.954 2187.23 76.2688 2187.81 Q78.5836 2188.39 81.1067 2188.39 Q85.5049 2188.39 87.7965 2186.65 Q90.1113 2184.91 90.1113 2181.6 Q90.1113 2178.55 87.9586 2176.84 Q85.8289 2175.1 82.0095 2175.1 L77.9818 2175.1 L77.9818 2171.26 L82.1947 2171.26 Q85.6438 2171.26 87.4724 2169.89 Q89.3011 2168.5 89.3011 2165.91 Q89.3011 2163.25 87.403 2161.84 Q85.528 2160.4 82.0095 2160.4 Q80.0882 2160.4 77.8892 2160.82 Q75.6901 2161.23 73.0512 2162.11 L73.0512 2157.95 Q75.7133 2157.21 78.0281 2156.84 Q80.366 2156.47 82.4262 2156.47 Q87.7502 2156.47 90.8521 2158.9 Q93.9539 2161.3 93.9539 2165.42 Q93.9539 2168.29 92.3104 2170.29 Q90.6669 2172.25 87.6345 2173.02 Z" fill="#000000" fill-rule="nonzero" fill-opacity="1" /><path clip-path="url(#clip890)" d="M83.2364 1698.06 Q80.0882 1698.06 78.2364 1700.21 Q76.4077 1702.36 76.4077 1706.11 Q76.4077 1709.84 78.2364 1712.01 Q80.0882 1714.17 83.2364 1714.17 Q86.3845 1714.17 88.2132 1712.01 Q90.065 1709.84 90.065 1706.11 Q90.065 1702.36 88.2132 1700.21 Q86.3845 1698.06 83.2364 1698.06 M92.5187 1683.4 L92.5187 1687.66 Q90.7595 1686.83 88.9539 1686.39 Q87.1715 1685.95 85.4123 1685.95 Q80.7827 1685.95 78.329 1689.07 Q75.8984 1692.2 75.5512 1698.52 Q76.9169 1696.5 78.9771 1695.44 Q81.0373 1694.35 83.5141 1694.35 Q88.7224 1694.35 91.7317 1697.52 Q94.7641 1700.67 94.7641 1706.11 Q94.7641 1711.43 91.6159 1714.65 Q88.4678 1717.87 83.2364 1717.87 Q77.241 1717.87 74.0697 1713.29 Q70.8985 1708.68 70.8985 1699.95 Q70.8985 1691.76 74.7873 1686.9 Q78.6762 1682.01 85.2271 1682.01 Q86.9863 1682.01 88.7687 1682.36 Q90.5743 1682.71 92.5187 1683.4 Z" fill="#000000" fill-rule="nonzero" fill-opacity="1" /><path clip-path="url(#clip890)" d="M73.1438 1242.03 L73.1438 1237.77 Q74.9031 1238.6 76.7086 1239.04 Q78.5142 1239.48 80.2503 1239.48 Q84.8799 1239.48 87.3104 1236.38 Q89.7641 1233.26 90.1113 1226.91 Q88.7687 1228.9 86.7086 1229.97 Q84.6484 1231.03 82.1484 1231.03 Q76.9632 1231.03 73.9309 1227.91 Q70.9216 1224.76 70.9216 1219.32 Q70.9216 1214 74.0697 1210.78 Q77.2179 1207.56 82.4493 1207.56 Q88.4447 1207.56 91.5928 1212.17 Q94.7641 1216.75 94.7641 1225.5 Q94.7641 1233.67 90.8752 1238.56 Q87.0095 1243.42 80.4586 1243.42 Q78.6993 1243.42 76.8938 1243.07 Q75.0883 1242.72 73.1438 1242.03 M82.4493 1227.38 Q85.5975 1227.38 87.4262 1225.22 Q89.278 1223.07 89.278 1219.32 Q89.278 1215.59 87.4262 1213.44 Q85.5975 1211.27 82.4493 1211.27 Q79.3012 1211.27 77.4494 1213.44 Q75.6207 1215.59 75.6207 1219.32 Q75.6207 1223.07 77.4494 1225.22 Q79.3012 1227.38 82.4493 1227.38 Z" fill="#000000" fill-rule="nonzero" fill-opacity="1" /><path clip-path="url(#clip890)" d="M45.0653 764.359 L52.7041 764.359 L52.7041 737.994 L44.394 739.661 L44.394 735.401 L52.6578 733.735 L57.3337 733.735 L57.3337 764.359 L64.9726 764.359 L64.9726 768.295 L45.0653 768.295 L45.0653 764.359 Z" fill="#000000" fill-rule="nonzero" fill-opacity="1" /><path clip-path="url(#clip890)" d="M78.4447 764.359 L94.7641 764.359 L94.7641 768.295 L72.8197 768.295 L72.8197 764.359 Q75.4818 761.605 80.0651 756.975 Q84.6715 752.322 85.8521 750.98 Q88.0974 748.457 88.9771 746.721 Q89.8798 744.961 89.8798 743.272 Q89.8798 740.517 87.9354 738.781 Q86.0141 737.045 82.9123 737.045 Q80.7132 737.045 78.2595 737.809 Q75.829 738.573 73.0512 740.123 L73.0512 735.401 Q75.8753 734.267 78.329 733.688 Q80.7827 733.11 82.8197 733.11 Q88.19 733.11 91.3845 735.795 Q94.5789 738.48 94.5789 742.971 Q94.5789 745.1 93.7687 747.022 Q92.9817 748.92 90.8752 751.512 Q90.2965 752.184 87.1947 755.401 Q84.0928 758.596 78.4447 764.359 Z" fill="#000000" fill-rule="nonzero" fill-opacity="1" /><path clip-path="url(#clip890)" d="M44.4634 289.907 L52.1023 289.907 L52.1023 263.542 L43.7921 265.208 L43.7921 260.949 L52.056 259.283 L56.7319 259.283 L56.7319 289.907 L64.3707 289.907 L64.3707 293.843 L44.4634 293.843 L44.4634 289.907 Z" fill="#000000" fill-rule="nonzero" fill-opacity="1" /><path clip-path="url(#clip890)" d="M73.8614 259.283 L92.2178 259.283 L92.2178 263.218 L78.1438 263.218 L78.1438 271.69 Q79.1623 271.343 80.1808 271.181 Q81.1993 270.995 82.2178 270.995 Q88.0049 270.995 91.3845 274.167 Q94.7641 277.338 94.7641 282.755 Q94.7641 288.333 91.2919 291.435 Q87.8197 294.514 81.5003 294.514 Q79.3243 294.514 77.0558 294.144 Q74.8105 293.773 72.4031 293.032 L72.4031 288.333 Q74.4864 289.468 76.7086 290.023 Q78.9308 290.579 81.4077 290.579 Q85.4123 290.579 87.7502 288.472 Q90.0882 286.366 90.0882 282.755 Q90.0882 279.144 87.7502 277.037 Q85.4123 274.931 81.4077 274.931 Q79.5327 274.931 77.6577 275.347 Q75.8058 275.764 73.8614 276.644 L73.8614 259.283 Z" fill="#000000" fill-rule="nonzero" fill-opacity="1" /><polyline clip-path="url(#clip892)" style="stroke:#009af9; stroke-linecap:round; stroke-linejoin:round; stroke-width:4; stroke-opacity:1; fill:none" points="255.394,2490.67 1400.17,2016.22 2544.95,1225.47 3689.73,118.412 "/>
<path clip-path="url(#clip890)" d="M273.71 234.744 L690.18 234.744 L690.18 131.064 L273.71 131.064  Z" fill="#ffffff" fill-rule="evenodd" fill-opacity="1"/>
<polyline clip-path="url(#clip890)" style="stroke:#000000; stroke-linecap:round; stroke-linejoin:round; stroke-width:4; stroke-opacity:1; fill:none" points="273.71,234.744 690.18,234.744 690.18,131.064 273.71,131.064 273.71,234.744 "/>
<polyline clip-path="url(#clip890)" style="stroke:#009af9; stroke-linecap:round; stroke-linejoin:round; stroke-width:4; stroke-opacity:1; fill:none" points="314.159,182.904 556.852,182.904 "/>
<path clip-path="url(#clip890)" d="M611.143 202.591 Q609.338 207.221 607.625 208.633 Q605.912 210.045 603.042 210.045 L599.639 210.045 L599.639 206.48 L602.139 206.48 Q603.898 206.48 604.87 205.647 Q605.842 204.814 607.023 201.712 L607.787 199.767 L597.301 174.258 L601.815 174.258 L609.917 194.536 L618.018 174.258 L622.532 174.258 L611.143 202.591 Z" fill="#000000" fill-rule="nonzero" fill-opacity="1" /><path clip-path="url(#clip890)" d="M629.824 196.249 L637.463 196.249 L637.463 169.883 L629.153 171.55 L629.153 167.291 L637.416 165.624 L642.092 165.624 L642.092 196.249 L649.731 196.249 L649.731 200.184 L629.824 200.184 L629.824 196.249 Z" fill="#000000" fill-rule="nonzero" fill-opacity="1" /></svg>
