<?xml version="1.0" encoding="utf-8"?>
<svg xmlns="http://www.w3.org/2000/svg" xmlns:xlink="http://www.w3.org/1999/xlink" width="960" height="672" viewBox="0 0 3840 2688">
<defs>
  <clipPath id="clip710">
    <rect x="0" y="0" width="3840" height="2688"/>
  </clipPath>
</defs>
<path clip-path="url(#clip710)" d="M0 2688 L3840 2688 L3840 -1.47793e-13 L0 -1.47793e-13  Z" fill="#ffffff" fill-rule="evenodd" fill-opacity="1"/>
<defs>
  <clipPath id="clip711">
    <rect x="768" y="0" width="2689" height="2688"/>
  </clipPath>
</defs>
<path clip-path="url(#clip710)" d="M201.16 2561.84 L3792.76 2561.84 L3792.76 47.2441 L201.16 47.2441  Z" fill="#ffffff" fill-rule="evenodd" fill-opacity="1"/>
<defs>
  <clipPath id="clip712">
    <rect x="201" y="47" width="3593" height="2516"/>
  </clipPath>
</defs>
<polyline clip-path="url(#clip712)" style="stroke:#000000; stroke-linecap:round; stroke-linejoin:round; stroke-width:2; stroke-opacity:0.1; fill:none" points="903.67,2561.84 903.67,47.2441 "/>
<polyline clip-path="url(#clip712)" style="stroke:#000000; stroke-linecap:round; stroke-linejoin:round; stroke-width:2; stroke-opacity:0.1; fill:none" points="1814.74,2561.84 1814.74,47.2441 "/>
<polyline clip-path="url(#clip712)" style="stroke:#000000; stroke-linecap:round; stroke-linejoin:round; stroke-width:2; stroke-opacity:0.1; fill:none" points="2725.82,2561.84 2725.82,47.2441 "/>
<polyline clip-path="url(#clip712)" style="stroke:#000000; stroke-linecap:round; stroke-linejoin:round; stroke-width:2; stroke-opacity:0.1; fill:none" points="3636.89,2561.84 3636.89,47.2441 "/>
<polyline clip-path="url(#clip712)" style="stroke:#000000; stroke-linecap:round; stroke-linejoin:round; stroke-width:2; stroke-opacity:0.1; fill:none" points="201.16,2493.03 3792.76,2493.03 "/>
<polyline clip-path="url(#clip712)" style="stroke:#000000; stroke-linecap:round; stroke-linejoin:round; stroke-width:2; stroke-opacity:0.1; fill:none" points="201.16,1897.72 3792.76,1897.72 "/>
<polyline clip-path="url(#clip712)" style="stroke:#000000; stroke-linecap:round; stroke-linejoin:round; stroke-width:2; stroke-opacity:0.1; fill:none" points="201.16,1302.4 3792.76,1302.4 "/>
<polyline clip-path="url(#clip712)" style="stroke:#000000; stroke-linecap:round; stroke-linejoin:round; stroke-width:2; stroke-opacity:0.1; fill:none" points="201.16,707.09 3792.76,707.09 "/>
<polyline clip-path="url(#clip712)" style="stroke:#000000; stroke-linecap:round; stroke-linejoin:round; stroke-width:2; stroke-opacity:0.1; fill:none" points="201.16,111.777 3792.76,111.777 "/>
<polyline clip-path="url(#clip710)" style="stroke:#000000; stroke-linecap:round; stroke-linejoin:round; stroke-width:4; stroke-opacity:1; fill:none" points="201.16,2561.84 3792.76,2561.84 "/>
<polyline clip-path="url(#clip710)" style="stroke:#000000; stroke-linecap:round; stroke-linejoin:round; stroke-width:4; stroke-opacity:1; fill:none" points="903.67,2561.84 903.67,2542.94 "/>
<polyline clip-path="url(#clip710)" style="stroke:#000000; stroke-linecap:round; stroke-linejoin:round; stroke-width:4; stroke-opacity:1; fill:none" points="1814.74,2561.84 1814.74,2542.94 "/>
<polyline clip-path="url(#clip710)" style="stroke:#000000; stroke-linecap:round; stroke-linejoin:round; stroke-width:4; stroke-opacity:1; fill:none" points="2725.82,2561.84 2725.82,2542.94 "/>
<polyline clip-path="url(#clip710)" style="stroke:#000000; stroke-linecap:round; stroke-linejoin:round; stroke-width:4; stroke-opacity:1; fill:none" points="3636.89,2561.84 3636.89,2542.94 "/>
<path clip-path="url(#clip710)" d="M857.732 2618.93 L887.408 2618.93 L887.408 2622.87 L857.732 2622.87 L857.732 2618.93 Z" fill="#000000" fill-rule="nonzero" fill-opacity="1" /><path clip-path="url(#clip710)" d="M898.311 2631.82 L905.95 2631.82 L905.95 2605.46 L897.64 2607.13 L897.64 2602.87 L905.903 2601.2 L910.579 2601.2 L910.579 2631.82 L918.218 2631.82 L918.218 2635.76 L898.311 2635.76 L898.311 2631.82 Z" fill="#000000" fill-rule="nonzero" fill-opacity="1" /><path clip-path="url(#clip710)" d="M937.663 2604.28 Q934.051 2604.28 932.223 2607.84 Q930.417 2611.39 930.417 2618.51 Q930.417 2625.62 932.223 2629.19 Q934.051 2632.73 937.663 2632.73 Q941.297 2632.73 943.102 2629.19 Q944.931 2625.62 944.931 2618.51 Q944.931 2611.39 943.102 2607.84 Q941.297 2604.28 937.663 2604.28 M937.663 2600.57 Q943.473 2600.57 946.528 2605.18 Q949.607 2609.76 949.607 2618.51 Q949.607 2627.24 946.528 2631.85 Q943.473 2636.43 937.663 2636.43 Q931.852 2636.43 928.774 2631.85 Q925.718 2627.24 925.718 2618.51 Q925.718 2609.76 928.774 2605.18 Q931.852 2600.57 937.663 2600.57 Z" fill="#000000" fill-rule="nonzero" fill-opacity="1" /><path clip-path="url(#clip710)" d="M1814.74 2604.28 Q1811.13 2604.28 1809.3 2607.84 Q1807.5 2611.39 1807.5 2618.51 Q1807.5 2625.62 1809.3 2629.19 Q1811.13 2632.73 1814.74 2632.73 Q1818.38 2632.73 1820.18 2629.19 Q1822.01 2625.62 1822.01 2618.51 Q1822.01 2611.39 1820.18 2607.84 Q1818.38 2604.28 1814.74 2604.28 M1814.74 2600.57 Q1820.55 2600.57 1823.61 2605.18 Q1826.69 2609.76 1826.69 2618.51 Q1826.69 2627.24 1823.61 2631.85 Q1820.55 2636.43 1814.74 2636.43 Q1808.93 2636.43 1805.85 2631.85 Q1802.8 2627.24 1802.8 2618.51 Q1802.8 2609.76 1805.85 2605.18 Q1808.93 2600.57 1814.74 2600.57 Z" fill="#000000" fill-rule="nonzero" fill-opacity="1" /><path clip-path="url(#clip710)" d="M2700.5 2631.82 L2708.14 2631.82 L2708.14 2605.46 L2699.83 2607.13 L2699.83 2602.87 L2708.1 2601.2 L2712.77 2601.2 L2712.77 2631.82 L2720.41 2631.82 L2720.41 2635.76 L2700.5 2635.76 L2700.5 2631.82 Z" fill="#000000" fill-rule="nonzero" fill-opacity="1" /><path clip-path="url(#clip710)" d="M2739.86 2604.28 Q2736.25 2604.28 2734.42 2607.84 Q2732.61 2611.39 2732.61 2618.51 Q2732.61 2625.62 2734.42 2629.19 Q2736.25 2632.73 2739.86 2632.73 Q2743.49 2632.73 2745.3 2629.19 Q2747.12 2625.62 2747.12 2618.51 Q2747.12 2611.39 2745.3 2607.84 Q2743.49 2604.28 2739.86 2604.28 M2739.86 2600.57 Q2745.67 2600.57 2748.72 2605.18 Q2751.8 2609.76 2751.8 2618.51 Q2751.8 2627.24 2748.72 2631.85 Q2745.67 2636.43 2739.86 2636.43 Q2734.05 2636.43 2730.97 2631.85 Q2727.91 2627.24 2727.91 2618.51 Q2727.91 2609.76 2730.97 2605.18 Q2734.05 2600.57 2739.86 2600.57 Z" fill="#000000" fill-rule="nonzero" fill-opacity="1" /><path clip-path="url(#clip710)" d="M3615.66 2631.82 L3631.98 2631.82 L3631.98 2635.76 L3610.04 2635.76 L3610.04 2631.82 Q3612.7 2629.07 3617.28 2624.44 Q3621.89 2619.79 3623.07 2618.45 Q3625.32 2615.92 3626.2 2614.19 Q3627.1 2612.43 3627.1 2610.74 Q3627.1 2607.98 3625.15 2606.25 Q3623.23 2604.51 3620.13 2604.51 Q3617.93 2604.51 3615.48 2605.27 Q3613.05 2606.04 3610.27 2607.59 L3610.27 2602.87 Q3613.09 2601.73 3615.55 2601.15 Q3618 2600.57 3620.04 2600.57 Q3625.41 2600.57 3628.6 2603.26 Q3631.8 2605.95 3631.8 2610.44 Q3631.8 2612.57 3630.99 2614.49 Q3630.2 2616.38 3628.09 2618.98 Q3627.52 2619.65 3624.41 2622.87 Q3621.31 2626.06 3615.66 2631.82 Z" fill="#000000" fill-rule="nonzero" fill-opacity="1" /><path clip-path="url(#clip710)" d="M3651.8 2604.28 Q3648.19 2604.28 3646.36 2607.84 Q3644.55 2611.39 3644.55 2618.51 Q3644.55 2625.62 3646.36 2629.19 Q3648.19 2632.73 3651.8 2632.73 Q3655.43 2632.73 3657.24 2629.19 Q3659.07 2625.62 3659.07 2618.51 Q3659.07 2611.39 3657.24 2607.84 Q3655.43 2604.28 3651.8 2604.28 M3651.8 2600.57 Q3657.61 2600.57 3660.66 2605.18 Q3663.74 2609.76 3663.74 2618.51 Q3663.74 2627.24 3660.66 2631.85 Q3657.61 2636.43 3651.8 2636.43 Q3645.99 2636.43 3642.91 2631.85 Q3639.85 2627.24 3639.85 2618.51 Q3639.85 2609.76 3642.91 2605.18 Q3645.99 2600.57 3651.8 2600.57 Z" fill="#000000" fill-rule="nonzero" fill-opacity="1" /><polyline clip-path="url(#clip710)" style="stroke:#000000; stroke-linecap:round; stroke-linejoin:round; stroke-width:4; stroke-opacity:1; fill:none" points="201.16,2561.84 201.16,47.2441 "/>
<polyline clip-path="url(#clip710)" style="stroke:#000000; stroke-linecap:round; stroke-linejoin:round; stroke-width:4; stroke-opacity:1; fill:none" points="201.16,2493.03 220.058,2493.03 "/>
<polyline clip-path="url(#clip710)" style="stroke:#000000; stroke-linecap:round; stroke-linejoin:round; stroke-width:4; stroke-opacity:1; fill:none" points="201.16,1897.72 220.058,1897.72 "/>
<polyline clip-path="url(#clip710)" style="stroke:#000000; stroke-linecap:round; stroke-linejoin:round; stroke-width:4; stroke-opacity:1; fill:none" points="201.16,1302.4 220.058,1302.4 "/>
<polyline clip-path="url(#clip710)" style="stroke:#000000; stroke-linecap:round; stroke-linejoin:round; stroke-width:4; stroke-opacity:1; fill:none" points="201.16,707.09 220.058,707.09 "/>
<polyline clip-path="url(#clip710)" style="stroke:#000000; stroke-linecap:round; stroke-linejoin:round; stroke-width:4; stroke-opacity:1; fill:none" points="201.16,111.777 220.058,111.777 "/>
<path clip-path="url(#clip710)" d="M56.2226 2478.83 Q52.6115 2478.83 50.7828 2482.39 Q48.9773 2485.93 48.9773 2493.06 Q48.9773 2500.17 50.7828 2503.73 Q52.6115 2507.28 56.2226 2507.28 Q59.8569 2507.28 61.6624 2503.73 Q63.4911 2500.17 63.4911 2493.06 Q63.4911 2485.93 61.6624 2482.39 Q59.8569 2478.83 56.2226 2478.83 M56.2226 2475.12 Q62.0328 2475.12 65.0883 2479.73 Q68.167 2484.31 68.167 2493.06 Q68.167 2501.79 65.0883 2506.4 Q62.0328 2510.98 56.2226 2510.98 Q50.4125 2510.98 47.3338 2506.4 Q44.2782 2501.79 44.2782 2493.06 Q44.2782 2484.31 47.3338 2479.73 Q50.4125 2475.12 56.2226 2475.12 Z" fill="#000000" fill-rule="nonzero" fill-opacity="1" /><path clip-path="url(#clip710)" d="M76.3845 2504.43 L81.2688 2504.43 L81.2688 2510.31 L76.3845 2510.31 L76.3845 2504.43 Z" fill="#000000" fill-rule="nonzero" fill-opacity="1" /><path clip-path="url(#clip710)" d="M101.454 2478.83 Q97.8428 2478.83 96.0141 2482.39 Q94.2085 2485.93 94.2085 2493.06 Q94.2085 2500.17 96.0141 2503.73 Q97.8428 2507.28 101.454 2507.28 Q105.088 2507.28 106.894 2503.73 Q108.722 2500.17 108.722 2493.06 Q108.722 2485.93 106.894 2482.39 Q105.088 2478.83 101.454 2478.83 M101.454 2475.12 Q107.264 2475.12 110.32 2479.73 Q113.398 2484.31 113.398 2493.06 Q113.398 2501.79 110.32 2506.4 Q107.264 2510.98 101.454 2510.98 Q95.6437 2510.98 92.565 2506.4 Q89.5095 2501.79 89.5095 2493.06 Q89.5095 2484.31 92.565 2479.73 Q95.6437 2475.12 101.454 2475.12 Z" fill="#000000" fill-rule="nonzero" fill-opacity="1" /><path clip-path="url(#clip710)" d="M131.616 2478.83 Q128.005 2478.83 126.176 2482.39 Q124.37 2485.93 124.37 2493.06 Q124.37 2500.17 126.176 2503.73 Q128.005 2507.28 131.616 2507.28 Q135.25 2507.28 137.056 2503.73 Q138.884 2500.17 138.884 2493.06 Q138.884 2485.93 137.056 2482.39 Q135.25 2478.83 131.616 2478.83 M131.616 2475.12 Q137.426 2475.12 140.481 2479.73 Q143.56 2484.31 143.56 2493.06 Q143.56 2501.79 140.481 2506.4 Q137.426 2510.98 131.616 2510.98 Q125.806 2510.98 122.727 2506.4 Q119.671 2501.79 119.671 2493.06 Q119.671 2484.31 122.727 2479.73 Q125.806 2475.12 131.616 2475.12 Z" fill="#000000" fill-rule="nonzero" fill-opacity="1" /><path clip-path="url(#clip710)" d="M57.8198 1883.51 Q54.2087 1883.51 52.38 1887.08 Q50.5745 1890.62 50.5745 1897.75 Q50.5745 1904.86 52.38 1908.42 Q54.2087 1911.96 57.8198 1911.96 Q61.4541 1911.96 63.2596 1908.42 Q65.0883 1904.86 65.0883 1897.75 Q65.0883 1890.62 63.2596 1887.08 Q61.4541 1883.51 57.8198 1883.51 M57.8198 1879.81 Q63.63 1879.81 66.6855 1884.42 Q69.7642 1889 69.7642 1897.75 Q69.7642 1906.48 66.6855 1911.08 Q63.63 1915.67 57.8198 1915.67 Q52.0097 1915.67 48.931 1911.08 Q45.8754 1906.48 45.8754 1897.75 Q45.8754 1889 48.931 1884.42 Q52.0097 1879.81 57.8198 1879.81 Z" fill="#000000" fill-rule="nonzero" fill-opacity="1" /><path clip-path="url(#clip710)" d="M77.9818 1909.12 L82.866 1909.12 L82.866 1915 L77.9818 1915 L77.9818 1909.12 Z" fill="#000000" fill-rule="nonzero" fill-opacity="1" /><path clip-path="url(#clip710)" d="M103.051 1883.51 Q99.44 1883.51 97.6113 1887.08 Q95.8057 1890.62 95.8057 1897.75 Q95.8057 1904.86 97.6113 1908.42 Q99.44 1911.96 103.051 1911.96 Q106.685 1911.96 108.491 1908.42 Q110.32 1904.86 110.32 1897.75 Q110.32 1890.62 108.491 1887.08 Q106.685 1883.51 103.051 1883.51 M103.051 1879.81 Q108.861 1879.81 111.917 1884.42 Q114.995 1889 114.995 1897.75 Q114.995 1906.48 111.917 1911.08 Q108.861 1915.67 103.051 1915.67 Q97.2409 1915.67 94.1622 1911.08 Q91.1067 1906.48 91.1067 1897.75 Q91.1067 1889 94.1622 1884.42 Q97.2409 1879.81 103.051 1879.81 Z" fill="#000000" fill-rule="nonzero" fill-opacity="1" /><path clip-path="url(#clip710)" d="M127.241 1911.06 L143.56 1911.06 L143.56 1915 L121.616 1915 L121.616 1911.06 Q124.278 1908.31 128.861 1903.68 Q133.468 1899.02 134.648 1897.68 Q136.893 1895.16 137.773 1893.42 Q138.676 1891.66 138.676 1889.97 Q138.676 1887.22 136.731 1885.48 Q134.81 1883.75 131.708 1883.75 Q129.509 1883.75 127.056 1884.51 Q124.625 1885.27 121.847 1886.82 L121.847 1882.1 Q124.671 1880.97 127.125 1880.39 Q129.579 1879.81 131.616 1879.81 Q136.986 1879.81 140.18 1882.5 Q143.375 1885.18 143.375 1889.67 Q143.375 1891.8 142.565 1893.72 Q141.778 1895.62 139.671 1898.21 Q139.093 1898.88 135.991 1902.1 Q132.889 1905.3 127.241 1911.06 Z" fill="#000000" fill-rule="nonzero" fill-opacity="1" /><path clip-path="url(#clip710)" d="M55.7365 1288.2 Q52.1254 1288.2 50.2967 1291.77 Q48.4912 1295.31 48.4912 1302.44 Q48.4912 1309.54 50.2967 1313.11 Q52.1254 1316.65 55.7365 1316.65 Q59.3707 1316.65 61.1763 1313.11 Q63.005 1309.54 63.005 1302.44 Q63.005 1295.31 61.1763 1291.77 Q59.3707 1288.2 55.7365 1288.2 M55.7365 1284.5 Q61.5467 1284.5 64.6022 1289.1 Q67.6809 1293.69 67.6809 1302.44 Q67.6809 1311.16 64.6022 1315.77 Q61.5467 1320.35 55.7365 1320.35 Q49.9264 1320.35 46.8477 1315.77 Q43.7921 1311.16 43.7921 1302.44 Q43.7921 1293.69 46.8477 1289.1 Q49.9264 1284.5 55.7365 1284.5 Z" fill="#000000" fill-rule="nonzero" fill-opacity="1" /><path clip-path="url(#clip710)" d="M75.8984 1313.8 L80.7827 1313.8 L80.7827 1319.68 L75.8984 1319.68 L75.8984 1313.8 Z" fill="#000000" fill-rule="nonzero" fill-opacity="1" /><path clip-path="url(#clip710)" d="M100.968 1288.2 Q97.3567 1288.2 95.528 1291.77 Q93.7224 1295.31 93.7224 1302.44 Q93.7224 1309.54 95.528 1313.11 Q97.3567 1316.65 100.968 1316.65 Q104.602 1316.65 106.408 1313.11 Q108.236 1309.54 108.236 1302.44 Q108.236 1295.31 106.408 1291.77 Q104.602 1288.2 100.968 1288.2 M100.968 1284.5 Q106.778 1284.5 109.833 1289.1 Q112.912 1293.69 112.912 1302.44 Q112.912 1311.16 109.833 1315.77 Q106.778 1320.35 100.968 1320.35 Q95.1576 1320.35 92.0789 1315.77 Q89.0234 1311.16 89.0234 1302.44 Q89.0234 1293.69 92.0789 1289.1 Q95.1576 1284.5 100.968 1284.5 Z" fill="#000000" fill-rule="nonzero" fill-opacity="1" /><path clip-path="url(#clip710)" d="M133.977 1289.2 L122.171 1307.65 L133.977 1307.65 L133.977 1289.2 M132.75 1285.12 L138.63 1285.12 L138.63 1307.65 L143.56 1307.65 L143.56 1311.53 L138.63 1311.53 L138.63 1319.68 L133.977 1319.68 L133.977 1311.53 L118.375 1311.53 L118.375 1307.02 L132.75 1285.12 Z" fill="#000000" fill-rule="nonzero" fill-opacity="1" /><path clip-path="url(#clip710)" d="M56.0606 692.889 Q52.4495 692.889 50.6208 696.454 Q48.8152 699.995 48.8152 707.125 Q48.8152 714.231 50.6208 717.796 Q52.4495 721.338 56.0606 721.338 Q59.6948 721.338 61.5004 717.796 Q63.3291 714.231 63.3291 707.125 Q63.3291 699.995 61.5004 696.454 Q59.6948 692.889 56.0606 692.889 M56.0606 689.185 Q61.8707 689.185 64.9263 693.791 Q68.005 698.375 68.005 707.125 Q68.005 715.852 64.9263 720.458 Q61.8707 725.041 56.0606 725.041 Q50.2504 725.041 47.1717 720.458 Q44.1162 715.852 44.1162 707.125 Q44.1162 698.375 47.1717 693.791 Q50.2504 689.185 56.0606 689.185 Z" fill="#000000" fill-rule="nonzero" fill-opacity="1" /><path clip-path="url(#clip710)" d="M76.2225 718.49 L81.1067 718.49 L81.1067 724.37 L76.2225 724.37 L76.2225 718.49 Z" fill="#000000" fill-rule="nonzero" fill-opacity="1" /><path clip-path="url(#clip710)" d="M101.292 692.889 Q97.6807 692.889 95.852 696.454 Q94.0465 699.995 94.0465 707.125 Q94.0465 714.231 95.852 717.796 Q97.6807 721.338 101.292 721.338 Q104.926 721.338 106.732 717.796 Q108.56 714.231 108.56 707.125 Q108.56 699.995 106.732 696.454 Q104.926 692.889 101.292 692.889 M101.292 689.185 Q107.102 689.185 110.158 693.791 Q113.236 698.375 113.236 707.125 Q113.236 715.852 110.158 720.458 Q107.102 725.041 101.292 725.041 Q95.4817 725.041 92.403 720.458 Q89.3474 715.852 89.3474 707.125 Q89.3474 698.375 92.403 693.791 Q95.4817 689.185 101.292 689.185 Z" fill="#000000" fill-rule="nonzero" fill-opacity="1" /><path clip-path="url(#clip710)" d="M132.032 705.227 Q128.884 705.227 127.032 707.379 Q125.204 709.532 125.204 713.282 Q125.204 717.009 127.032 719.185 Q128.884 721.338 132.032 721.338 Q135.181 721.338 137.009 719.185 Q138.861 717.009 138.861 713.282 Q138.861 709.532 137.009 707.379 Q135.181 705.227 132.032 705.227 M141.315 690.574 L141.315 694.833 Q139.556 694 137.75 693.56 Q135.968 693.12 134.208 693.12 Q129.579 693.12 127.125 696.245 Q124.694 699.37 124.347 705.69 Q125.713 703.676 127.773 702.611 Q129.833 701.523 132.31 701.523 Q137.518 701.523 140.528 704.694 Q143.56 707.842 143.56 713.282 Q143.56 718.606 140.412 721.824 Q137.264 725.041 132.032 725.041 Q126.037 725.041 122.866 720.458 Q119.694 715.852 119.694 707.125 Q119.694 698.93 123.583 694.069 Q127.472 689.185 134.023 689.185 Q135.782 689.185 137.565 689.532 Q139.37 689.879 141.315 690.574 Z" fill="#000000" fill-rule="nonzero" fill-opacity="1" /><path clip-path="url(#clip710)" d="M56.3152 97.5759 Q52.7041 97.5759 50.8754 101.141 Q49.0699 104.682 49.0699 111.812 Q49.0699 118.918 50.8754 122.483 Q52.7041 126.025 56.3152 126.025 Q59.9494 126.025 61.755 122.483 Q63.5837 118.918 63.5837 111.812 Q63.5837 104.682 61.755 101.141 Q59.9494 97.5759 56.3152 97.5759 M56.3152 93.8722 Q62.1254 93.8722 65.1809 98.4786 Q68.2596 103.062 68.2596 111.812 Q68.2596 120.539 65.1809 125.145 Q62.1254 129.728 56.3152 129.728 Q50.5051 129.728 47.4264 125.145 Q44.3708 120.539 44.3708 111.812 Q44.3708 103.062 47.4264 98.4786 Q50.5051 93.8722 56.3152 93.8722 Z" fill="#000000" fill-rule="nonzero" fill-opacity="1" /><path clip-path="url(#clip710)" d="M76.4771 123.178 L81.3614 123.178 L81.3614 129.057 L76.4771 129.057 L76.4771 123.178 Z" fill="#000000" fill-rule="nonzero" fill-opacity="1" /><path clip-path="url(#clip710)" d="M101.546 97.5759 Q97.9354 97.5759 96.1067 101.141 Q94.3011 104.682 94.3011 111.812 Q94.3011 118.918 96.1067 122.483 Q97.9354 126.025 101.546 126.025 Q105.181 126.025 106.986 122.483 Q108.815 118.918 108.815 111.812 Q108.815 104.682 106.986 101.141 Q105.181 97.5759 101.546 97.5759 M101.546 93.8722 Q107.357 93.8722 110.412 98.4786 Q113.491 103.062 113.491 111.812 Q113.491 120.539 110.412 125.145 Q107.357 129.728 101.546 129.728 Q95.7363 129.728 92.6576 125.145 Q89.6021 120.539 89.6021 111.812 Q89.6021 103.062 92.6576 98.4786 Q95.7363 93.8722 101.546 93.8722 Z" fill="#000000" fill-rule="nonzero" fill-opacity="1" /><path clip-path="url(#clip710)" d="M131.708 112.645 Q128.375 112.645 126.454 114.428 Q124.556 116.21 124.556 119.335 Q124.556 122.46 126.454 124.242 Q128.375 126.025 131.708 126.025 Q135.042 126.025 136.963 124.242 Q138.884 122.437 138.884 119.335 Q138.884 116.21 136.963 114.428 Q135.065 112.645 131.708 112.645 M127.032 110.655 Q124.023 109.914 122.333 107.854 Q120.667 105.793 120.667 102.83 Q120.667 98.687 123.607 96.2796 Q126.569 93.8722 131.708 93.8722 Q136.87 93.8722 139.81 96.2796 Q142.75 98.687 142.75 102.83 Q142.75 105.793 141.06 107.854 Q139.393 109.914 136.407 110.655 Q139.787 111.442 141.662 113.733 Q143.56 116.025 143.56 119.335 Q143.56 124.358 140.481 127.043 Q137.426 129.728 131.708 129.728 Q125.991 129.728 122.912 127.043 Q119.857 124.358 119.857 119.335 Q119.857 116.025 121.755 113.733 Q123.653 111.442 127.032 110.655 M125.319 103.27 Q125.319 105.955 126.986 107.46 Q128.676 108.965 131.708 108.965 Q134.718 108.965 136.407 107.46 Q138.12 105.955 138.12 103.27 Q138.12 100.585 136.407 99.0805 Q134.718 97.5759 131.708 97.5759 Q128.676 97.5759 126.986 99.0805 Q125.319 100.585 125.319 103.27 Z" fill="#000000" fill-rule="nonzero" fill-opacity="1" /><polyline clip-path="url(#clip712)" style="stroke:#009af9; stroke-linecap:round; stroke-linejoin:round; stroke-width:4; stroke-opacity:1; fill:none" points="302.809,2490.67 320.299,2490.31 337.789,2489.9 440.226,2486.11 542.662,2478.49 590.316,2472.84 637.969,2465.29 701.843,2451.3 765.716,2431.46 792.106,2421.15 818.496,2409.39 844.885,2396.03 871.275,2380.91 895.815,2365.13 920.354,2347.56 944.894,2328.05 969.434,2306.46 1000.24,2276.21 1031.05,2242.21 1061.85,2204.2 1092.66,2161.95 1120.29,2120.27 1147.92,2074.88 1175.56,2025.69 1203.19,1972.63 1234.82,1907.12 1266.45,1836.52 1298.08,1760.97 1329.71,1680.64 1353.35,1617.65 1376.99,1552.32 1400.64,1484.82 1424.28,1415.4 1484.76,1230.82 1545.24,1040.47 1600.44,866.992 1655.64,699.328 1671.35,653.481 1687.05,608.702 1702.76,565.128 1718.47,522.889 1734.17,482.116 1749.88,442.938 1765.58,405.48 1781.29,369.863 1806.19,317.452 1831.09,270.398 1856,229.102 1880.9,193.919 1896.36,175.279 1911.83,159.18 1927.3,145.677 1942.77,134.818 1958.24,126.638 1973.71,121.166 1989.18,118.421 2004.64,118.412 2028.34,123.701 2052.03,135.365 2075.72,153.31 2099.41,177.39 2116.12,197.949 2132.82,221.382 2149.52,247.595 2166.22,276.488 2182.92,307.948 2199.62,341.855 2216.32,378.081 2233.03,416.489 2257.99,477.654 2282.95,542.881 2307.91,611.655 2332.87,683.445 2389.65,855.108 2446.42,1033.34 2502.65,1210.51 2558.87,1383.21 2589.8,1474.72 2620.73,1562.99 2651.66,1647.51 2682.59,1727.88 2706.21,1786.29 2729.84,1841.98 2753.46,1894.91 2777.09,1945 2806.9,2004.15 2836.71,2058.78 2866.52,2108.96 2896.33,2154.79 2923.91,2193.44 2951.48,2228.64 2979.05,2260.56 3006.63,2289.37 3035.06,2316.03 3063.5,2339.8 3091.94,2360.89 3120.37,2379.53 3149.2,2396.12 3178.02,2410.62 3206.85,2423.23 3235.67,2434.14 3295.87,2452.27 3356.06,2465.31 3403.48,2472.82 3450.9,2478.45 3558.89,2486.38 3666.88,2490.16 3678.99,2490.43 3691.11,2490.67 "/>
<path clip-path="url(#clip710)" d="M3261.45 234.744 L3673.04 234.744 L3673.04 131.064 L3261.45 131.064  Z" fill="#ffffff" fill-rule="evenodd" fill-opacity="1"/>
<polyline clip-path="url(#clip710)" style="stroke:#000000; stroke-linecap:round; stroke-linejoin:round; stroke-width:4; stroke-opacity:1; fill:none" points="3261.45,234.744 3673.04,234.744 3673.04,131.064 3261.45,131.064 3261.45,234.744 "/>
<polyline clip-path="url(#clip710)" style="stroke:#009af9; stroke-linecap:round; stroke-linejoin:round; stroke-width:4; stroke-opacity:1; fill:none" points="3301.35,182.904 3540.79,182.904 "/>
<path clip-path="url(#clip710)" d="M3594.54 202.591 Q3592.74 207.221 3591.02 208.633 Q3589.31 210.045 3586.44 210.045 L3583.04 210.045 L3583.04 206.48 L3585.54 206.48 Q3587.3 206.48 3588.27 205.647 Q3589.24 204.814 3590.42 201.712 L3591.19 199.767 L3580.7 174.258 L3585.21 174.258 L3593.31 194.536 L3601.42 174.258 L3605.93 174.258 L3594.54 202.591 Z" fill="#000000" fill-rule="nonzero" fill-opacity="1" /><path clip-path="url(#clip710)" d="M3613.22 196.249 L3620.86 196.249 L3620.86 169.883 L3612.55 171.55 L3612.55 167.291 L3620.81 165.624 L3625.49 165.624 L3625.49 196.249 L3633.13 196.249 L3633.13 200.184 L3613.22 200.184 L3613.22 196.249 Z" fill="#000000" fill-rule="nonzero" fill-opacity="1" /></svg>
