<?xml version="1.0" encoding="utf-8"?>
<svg xmlns="http://www.w3.org/2000/svg" xmlns:xlink="http://www.w3.org/1999/xlink" width="960" height="672" viewBox="0 0 3840 2688">
<defs>
  <clipPath id="clip410">
    <rect x="0" y="0" width="3840" height="2688"/>
  </clipPath>
</defs>
<path clip-path="url(#clip410)" d="M0 2688 L3840 2688 L3840 -1.47793e-13 L0 -1.47793e-13  Z" fill="#ffffff" fill-rule="evenodd" fill-opacity="1"/>
<defs>
  <clipPath id="clip411">
    <rect x="768" y="0" width="2689" height="2688"/>
  </clipPath>
</defs>
<path clip-path="url(#clip410)" d="M198.591 2561.84 L3792.76 2561.84 L3792.76 47.2441 L198.591 47.2441  Z" fill="#ffffff" fill-rule="evenodd" fill-opacity="1"/>
<defs>
  <clipPath id="clip412">
    <rect x="198" y="47" width="3595" height="2516"/>
  </clipPath>
</defs>
<polyline clip-path="url(#clip412)" style="stroke:#000000; stroke-linecap:round; stroke-linejoin:round; stroke-width:2; stroke-opacity:0.1; fill:none" points="300.312,2561.84 300.312,47.2441 "/>
<polyline clip-path="url(#clip412)" style="stroke:#000000; stroke-linecap:round; stroke-linejoin:round; stroke-width:2; stroke-opacity:0.1; fill:none" points="1147.99,2561.84 1147.99,47.2441 "/>
<polyline clip-path="url(#clip412)" style="stroke:#000000; stroke-linecap:round; stroke-linejoin:round; stroke-width:2; stroke-opacity:0.1; fill:none" points="1995.67,2561.84 1995.67,47.2441 "/>
<polyline clip-path="url(#clip412)" style="stroke:#000000; stroke-linecap:round; stroke-linejoin:round; stroke-width:2; stroke-opacity:0.1; fill:none" points="2843.35,2561.84 2843.35,47.2441 "/>
<polyline clip-path="url(#clip412)" style="stroke:#000000; stroke-linecap:round; stroke-linejoin:round; stroke-width:2; stroke-opacity:0.1; fill:none" points="3691.03,2561.84 3691.03,47.2441 "/>
<polyline clip-path="url(#clip412)" style="stroke:#000000; stroke-linecap:round; stroke-linejoin:round; stroke-width:2; stroke-opacity:0.1; fill:none" points="198.591,2205.17 3792.76,2205.17 "/>
<polyline clip-path="url(#clip412)" style="stroke:#000000; stroke-linecap:round; stroke-linejoin:round; stroke-width:2; stroke-opacity:0.1; fill:none" points="198.591,1729.34 3792.76,1729.34 "/>
<polyline clip-path="url(#clip412)" style="stroke:#000000; stroke-linecap:round; stroke-linejoin:round; stroke-width:2; stroke-opacity:0.1; fill:none" points="198.591,1253.51 3792.76,1253.51 "/>
<polyline clip-path="url(#clip412)" style="stroke:#000000; stroke-linecap:round; stroke-linejoin:round; stroke-width:2; stroke-opacity:0.1; fill:none" points="198.591,777.675 3792.76,777.675 "/>
<polyline clip-path="url(#clip412)" style="stroke:#000000; stroke-linecap:round; stroke-linejoin:round; stroke-width:2; stroke-opacity:0.1; fill:none" points="198.591,301.843 3792.76,301.843 "/>
<polyline clip-path="url(#clip410)" style="stroke:#000000; stroke-linecap:round; stroke-linejoin:round; stroke-width:4; stroke-opacity:1; fill:none" points="198.591,2561.84 3792.76,2561.84 "/>
<polyline clip-path="url(#clip410)" style="stroke:#000000; stroke-linecap:round; stroke-linejoin:round; stroke-width:4; stroke-opacity:1; fill:none" points="300.312,2561.84 300.312,2542.94 "/>
<polyline clip-path="url(#clip410)" style="stroke:#000000; stroke-linecap:round; stroke-linejoin:round; stroke-width:4; stroke-opacity:1; fill:none" points="1147.99,2561.84 1147.99,2542.94 "/>
<polyline clip-path="url(#clip410)" style="stroke:#000000; stroke-linecap:round; stroke-linejoin:round; stroke-width:4; stroke-opacity:1; fill:none" points="1995.67,2561.84 1995.67,2542.94 "/>
<polyline clip-path="url(#clip410)" style="stroke:#000000; stroke-linecap:round; stroke-linejoin:round; stroke-width:4; stroke-opacity:1; fill:none" points="2843.35,2561.84 2843.35,2542.94 "/>
<polyline clip-path="url(#clip410)" style="stroke:#000000; stroke-linecap:round; stroke-linejoin:round; stroke-width:4; stroke-opacity:1; fill:none" points="3691.03,2561.84 3691.03,2542.94 "/>
<path clip-path="url(#clip410)" d="M277.697 2604.28 Q274.086 2604.28 272.257 2607.84 Q270.451 2611.39 270.451 2618.51 Q270.451 2625.62 272.257 2629.19 Q274.086 2632.73 277.697 2632.73 Q281.331 2632.73 283.137 2629.19 Q284.965 2625.62 284.965 2618.51 Q284.965 2611.39 283.137 2607.84 Q281.331 2604.28 277.697 2604.28 M277.697 2600.57 Q283.507 2600.57 286.562 2605.18 Q289.641 2609.76 289.641 2618.51 Q289.641 2627.24 286.562 2631.85 Q283.507 2636.43 277.697 2636.43 Q271.887 2636.43 268.808 2631.85 Q265.752 2627.24 265.752 2618.51 Q265.752 2609.76 268.808 2605.18 Q271.887 2600.57 277.697 2600.57 Z" fill="#000000" fill-rule="nonzero" fill-opacity="1" /><path clip-path="url(#clip410)" d="M297.859 2629.88 L302.743 2629.88 L302.743 2635.76 L297.859 2635.76 L297.859 2629.88 Z" fill="#000000" fill-rule="nonzero" fill-opacity="1" /><path clip-path="url(#clip410)" d="M322.928 2604.28 Q319.317 2604.28 317.488 2607.84 Q315.683 2611.39 315.683 2618.51 Q315.683 2625.62 317.488 2629.19 Q319.317 2632.73 322.928 2632.73 Q326.562 2632.73 328.368 2629.19 Q330.196 2625.62 330.196 2618.51 Q330.196 2611.39 328.368 2607.84 Q326.562 2604.28 322.928 2604.28 M322.928 2600.57 Q328.738 2600.57 331.794 2605.18 Q334.872 2609.76 334.872 2618.51 Q334.872 2627.24 331.794 2631.85 Q328.738 2636.43 322.928 2636.43 Q317.118 2636.43 314.039 2631.85 Q310.984 2627.24 310.984 2618.51 Q310.984 2609.76 314.039 2605.18 Q317.118 2600.57 322.928 2600.57 Z" fill="#000000" fill-rule="nonzero" fill-opacity="1" /><path clip-path="url(#clip410)" d="M1125.87 2604.28 Q1122.26 2604.28 1120.44 2607.84 Q1118.63 2611.39 1118.63 2618.51 Q1118.63 2625.62 1120.44 2629.19 Q1122.26 2632.73 1125.87 2632.73 Q1129.51 2632.73 1131.31 2629.19 Q1133.14 2625.62 1133.14 2618.51 Q1133.14 2611.39 1131.31 2607.84 Q1129.51 2604.28 1125.87 2604.28 M1125.87 2600.57 Q1131.69 2600.57 1134.74 2605.18 Q1137.82 2609.76 1137.82 2618.51 Q1137.82 2627.24 1134.74 2631.85 Q1131.69 2636.43 1125.87 2636.43 Q1120.06 2636.43 1116.99 2631.85 Q1113.93 2627.24 1113.93 2618.51 Q1113.93 2609.76 1116.99 2605.18 Q1120.06 2600.57 1125.87 2600.57 Z" fill="#000000" fill-rule="nonzero" fill-opacity="1" /><path clip-path="url(#clip410)" d="M1146.04 2629.88 L1150.92 2629.88 L1150.92 2635.76 L1146.04 2635.76 L1146.04 2629.88 Z" fill="#000000" fill-rule="nonzero" fill-opacity="1" /><path clip-path="url(#clip410)" d="M1161.15 2601.2 L1179.51 2601.2 L1179.51 2605.14 L1165.43 2605.14 L1165.43 2613.61 Q1166.45 2613.26 1167.47 2613.1 Q1168.49 2612.91 1169.51 2612.91 Q1175.3 2612.91 1178.68 2616.08 Q1182.06 2619.26 1182.06 2624.67 Q1182.06 2630.25 1178.58 2633.35 Q1175.11 2636.43 1168.79 2636.43 Q1166.62 2636.43 1164.35 2636.06 Q1162.1 2635.69 1159.69 2634.95 L1159.69 2630.25 Q1161.78 2631.38 1164 2631.94 Q1166.22 2632.5 1168.7 2632.5 Q1172.7 2632.5 1175.04 2630.39 Q1177.38 2628.28 1177.38 2624.67 Q1177.38 2621.06 1175.04 2618.95 Q1172.7 2616.85 1168.7 2616.85 Q1166.82 2616.85 1164.95 2617.26 Q1163.1 2617.68 1161.15 2618.56 L1161.15 2601.2 Z" fill="#000000" fill-rule="nonzero" fill-opacity="1" /><path clip-path="url(#clip410)" d="M1962.83 2631.82 L1970.47 2631.82 L1970.47 2605.46 L1962.15 2607.13 L1962.15 2602.87 L1970.42 2601.2 L1975.09 2601.2 L1975.09 2631.82 L1982.73 2631.82 L1982.73 2635.76 L1962.83 2635.76 L1962.83 2631.82 Z" fill="#000000" fill-rule="nonzero" fill-opacity="1" /><path clip-path="url(#clip410)" d="M1992.18 2629.88 L1997.06 2629.88 L1997.06 2635.76 L1992.18 2635.76 L1992.18 2629.88 Z" fill="#000000" fill-rule="nonzero" fill-opacity="1" /><path clip-path="url(#clip410)" d="M2017.25 2604.28 Q2013.64 2604.28 2011.81 2607.84 Q2010 2611.39 2010 2618.51 Q2010 2625.62 2011.81 2629.19 Q2013.64 2632.73 2017.25 2632.73 Q2020.88 2632.73 2022.69 2629.19 Q2024.52 2625.62 2024.52 2618.51 Q2024.52 2611.39 2022.69 2607.84 Q2020.88 2604.28 2017.25 2604.28 M2017.25 2600.57 Q2023.06 2600.57 2026.11 2605.18 Q2029.19 2609.76 2029.19 2618.51 Q2029.19 2627.24 2026.11 2631.85 Q2023.06 2636.43 2017.25 2636.43 Q2011.44 2636.43 2008.36 2631.85 Q2005.3 2627.24 2005.3 2618.51 Q2005.3 2609.76 2008.36 2605.18 Q2011.44 2600.57 2017.25 2600.57 Z" fill="#000000" fill-rule="nonzero" fill-opacity="1" /><path clip-path="url(#clip410)" d="M2811 2631.82 L2818.64 2631.82 L2818.64 2605.46 L2810.33 2607.13 L2810.33 2602.87 L2818.6 2601.2 L2823.27 2601.2 L2823.27 2631.82 L2830.91 2631.82 L2830.91 2635.76 L2811 2635.76 L2811 2631.82 Z" fill="#000000" fill-rule="nonzero" fill-opacity="1" /><path clip-path="url(#clip410)" d="M2840.36 2629.88 L2845.24 2629.88 L2845.24 2635.76 L2840.36 2635.76 L2840.36 2629.88 Z" fill="#000000" fill-rule="nonzero" fill-opacity="1" /><path clip-path="url(#clip410)" d="M2855.47 2601.2 L2873.83 2601.2 L2873.83 2605.14 L2859.75 2605.14 L2859.75 2613.61 Q2860.77 2613.26 2861.79 2613.1 Q2862.81 2612.91 2863.83 2612.91 Q2869.62 2612.91 2872.99 2616.08 Q2876.37 2619.26 2876.37 2624.67 Q2876.37 2630.25 2872.9 2633.35 Q2869.43 2636.43 2863.11 2636.43 Q2860.93 2636.43 2858.67 2636.06 Q2856.42 2635.69 2854.01 2634.95 L2854.01 2630.25 Q2856.1 2631.38 2858.32 2631.94 Q2860.54 2632.5 2863.02 2632.5 Q2867.02 2632.5 2869.36 2630.39 Q2871.7 2628.28 2871.7 2624.67 Q2871.7 2621.06 2869.36 2618.95 Q2867.02 2616.85 2863.02 2616.85 Q2861.14 2616.85 2859.27 2617.26 Q2857.42 2617.68 2855.47 2618.56 L2855.47 2601.2 Z" fill="#000000" fill-rule="nonzero" fill-opacity="1" /><path clip-path="url(#clip410)" d="M3662.27 2631.82 L3678.59 2631.82 L3678.59 2635.76 L3656.65 2635.76 L3656.65 2631.82 Q3659.31 2629.07 3663.89 2624.44 Q3668.5 2619.79 3669.68 2618.45 Q3671.93 2615.92 3672.81 2614.19 Q3673.71 2612.43 3673.71 2610.74 Q3673.71 2607.98 3671.76 2606.25 Q3669.84 2604.51 3666.74 2604.51 Q3664.54 2604.51 3662.09 2605.27 Q3659.66 2606.04 3656.88 2607.59 L3656.88 2602.87 Q3659.7 2601.73 3662.16 2601.15 Q3664.61 2600.57 3666.65 2600.57 Q3672.02 2600.57 3675.21 2603.26 Q3678.41 2605.95 3678.41 2610.44 Q3678.41 2612.57 3677.6 2614.49 Q3676.81 2616.38 3674.7 2618.98 Q3674.12 2619.65 3671.02 2622.87 Q3667.92 2626.06 3662.27 2631.82 Z" fill="#000000" fill-rule="nonzero" fill-opacity="1" /><path clip-path="url(#clip410)" d="M3688.41 2629.88 L3693.29 2629.88 L3693.29 2635.76 L3688.41 2635.76 L3688.41 2629.88 Z" fill="#000000" fill-rule="nonzero" fill-opacity="1" /><path clip-path="url(#clip410)" d="M3713.48 2604.28 Q3709.87 2604.28 3708.04 2607.84 Q3706.23 2611.39 3706.23 2618.51 Q3706.23 2625.62 3708.04 2629.19 Q3709.87 2632.73 3713.48 2632.73 Q3717.11 2632.73 3718.92 2629.19 Q3720.74 2625.62 3720.74 2618.51 Q3720.74 2611.39 3718.92 2607.84 Q3717.11 2604.28 3713.48 2604.28 M3713.48 2600.57 Q3719.29 2600.57 3722.34 2605.18 Q3725.42 2609.76 3725.42 2618.51 Q3725.42 2627.24 3722.34 2631.85 Q3719.29 2636.43 3713.48 2636.43 Q3707.67 2636.43 3704.59 2631.85 Q3701.53 2627.24 3701.53 2618.51 Q3701.53 2609.76 3704.59 2605.18 Q3707.67 2600.57 3713.48 2600.57 Z" fill="#000000" fill-rule="nonzero" fill-opacity="1" /><polyline clip-path="url(#clip410)" style="stroke:#000000; stroke-linecap:round; stroke-linejoin:round; stroke-width:4; stroke-opacity:1; fill:none" points="198.591,2561.84 198.591,47.2441 "/>
<polyline clip-path="url(#clip410)" style="stroke:#000000; stroke-linecap:round; stroke-linejoin:round; stroke-width:4; stroke-opacity:1; fill:none" points="198.591,2205.17 217.488,2205.17 "/>
<polyline clip-path="url(#clip410)" style="stroke:#000000; stroke-linecap:round; stroke-linejoin:round; stroke-width:4; stroke-opacity:1; fill:none" points="198.591,1729.34 217.488,1729.34 "/>
<polyline clip-path="url(#clip410)" style="stroke:#000000; stroke-linecap:round; stroke-linejoin:round; stroke-width:4; stroke-opacity:1; fill:none" points="198.591,1253.51 217.488,1253.51 "/>
<polyline clip-path="url(#clip410)" style="stroke:#000000; stroke-linecap:round; stroke-linejoin:round; stroke-width:4; stroke-opacity:1; fill:none" points="198.591,777.675 217.488,777.675 "/>
<polyline clip-path="url(#clip410)" style="stroke:#000000; stroke-linecap:round; stroke-linejoin:round; stroke-width:4; stroke-opacity:1; fill:none" points="198.591,301.843 217.488,301.843 "/>
<path clip-path="url(#clip410)" d="M78.8382 2218.52 L95.1576 2218.52 L95.1576 2222.45 L73.2133 2222.45 L73.2133 2218.52 Q75.8753 2215.76 80.4586 2211.13 Q85.0651 2206.48 86.2456 2205.14 Q88.491 2202.61 89.3706 2200.88 Q90.2734 2199.12 90.2734 2197.43 Q90.2734 2194.67 88.3289 2192.94 Q86.4076 2191.2 83.3058 2191.2 Q81.1067 2191.2 78.6531 2191.97 Q76.2225 2192.73 73.4447 2194.28 L73.4447 2189.56 Q76.2688 2188.43 78.7225 2187.85 Q81.1762 2187.27 83.2132 2187.27 Q88.5836 2187.27 91.778 2189.95 Q94.9724 2192.64 94.9724 2197.13 Q94.9724 2199.26 94.1622 2201.18 Q93.3752 2203.08 91.2687 2205.67 Q90.69 2206.34 87.5882 2209.56 Q84.4864 2212.75 78.8382 2218.52 Z" fill="#000000" fill-rule="nonzero" fill-opacity="1" /><path clip-path="url(#clip410)" d="M104.972 2216.57 L109.857 2216.57 L109.857 2222.45 L104.972 2222.45 L104.972 2216.57 Z" fill="#000000" fill-rule="nonzero" fill-opacity="1" /><path clip-path="url(#clip410)" d="M120.088 2187.89 L138.444 2187.89 L138.444 2191.83 L124.37 2191.83 L124.37 2200.3 Q125.389 2199.95 126.407 2199.79 Q127.426 2199.61 128.444 2199.61 Q134.231 2199.61 137.611 2202.78 Q140.991 2205.95 140.991 2211.36 Q140.991 2216.94 137.518 2220.05 Q134.046 2223.12 127.727 2223.12 Q125.551 2223.12 123.282 2222.75 Q121.037 2222.38 118.63 2221.64 L118.63 2216.94 Q120.713 2218.08 122.935 2218.63 Q125.157 2219.19 127.634 2219.19 Q131.639 2219.19 133.977 2217.08 Q136.315 2214.98 136.315 2211.36 Q136.315 2207.75 133.977 2205.65 Q131.639 2203.54 127.634 2203.54 Q125.759 2203.54 123.884 2203.96 Q122.032 2204.37 120.088 2205.25 L120.088 2187.89 Z" fill="#000000" fill-rule="nonzero" fill-opacity="1" /><path clip-path="url(#clip410)" d="M73.8614 1712.06 L92.2178 1712.06 L92.2178 1716 L78.1438 1716 L78.1438 1724.47 Q79.1623 1724.12 80.1808 1723.96 Q81.1993 1723.77 82.2178 1723.77 Q88.0049 1723.77 91.3845 1726.94 Q94.7641 1730.12 94.7641 1735.53 Q94.7641 1741.11 91.2919 1744.21 Q87.8197 1747.29 81.5003 1747.29 Q79.3243 1747.29 77.0558 1746.92 Q74.8105 1746.55 72.4031 1745.81 L72.4031 1741.11 Q74.4864 1742.25 76.7086 1742.8 Q78.9308 1743.36 81.4077 1743.36 Q85.4123 1743.36 87.7502 1741.25 Q90.0882 1739.14 90.0882 1735.53 Q90.0882 1731.92 87.7502 1729.81 Q85.4123 1727.71 81.4077 1727.71 Q79.5327 1727.71 77.6577 1728.12 Q75.8058 1728.54 73.8614 1729.42 L73.8614 1712.06 Z" fill="#000000" fill-rule="nonzero" fill-opacity="1" /><path clip-path="url(#clip410)" d="M103.977 1740.74 L108.861 1740.74 L108.861 1746.62 L103.977 1746.62 L103.977 1740.74 Z" fill="#000000" fill-rule="nonzero" fill-opacity="1" /><path clip-path="url(#clip410)" d="M129.046 1715.14 Q125.435 1715.14 123.607 1718.7 Q121.801 1722.25 121.801 1729.37 Q121.801 1736.48 123.607 1740.05 Q125.435 1743.59 129.046 1743.59 Q132.681 1743.59 134.486 1740.05 Q136.315 1736.48 136.315 1729.37 Q136.315 1722.25 134.486 1718.7 Q132.681 1715.14 129.046 1715.14 M129.046 1711.44 Q134.856 1711.44 137.912 1716.04 Q140.991 1720.62 140.991 1729.37 Q140.991 1738.1 137.912 1742.71 Q134.856 1747.29 129.046 1747.29 Q123.236 1747.29 120.157 1742.71 Q117.102 1738.1 117.102 1729.37 Q117.102 1720.62 120.157 1716.04 Q123.236 1711.44 129.046 1711.44 Z" fill="#000000" fill-rule="nonzero" fill-opacity="1" /><path clip-path="url(#clip410)" d="M73.6299 1236.23 L95.852 1236.23 L95.852 1238.22 L83.3058 1270.79 L78.4216 1270.79 L90.2271 1240.16 L73.6299 1240.16 L73.6299 1236.23 Z" fill="#000000" fill-rule="nonzero" fill-opacity="1" /><path clip-path="url(#clip410)" d="M104.972 1264.91 L109.857 1264.91 L109.857 1270.79 L104.972 1270.79 L104.972 1264.91 Z" fill="#000000" fill-rule="nonzero" fill-opacity="1" /><path clip-path="url(#clip410)" d="M120.088 1236.23 L138.444 1236.23 L138.444 1240.16 L124.37 1240.16 L124.37 1248.64 Q125.389 1248.29 126.407 1248.13 Q127.426 1247.94 128.444 1247.94 Q134.231 1247.94 137.611 1251.11 Q140.991 1254.28 140.991 1259.7 Q140.991 1265.28 137.518 1268.38 Q134.046 1271.46 127.727 1271.46 Q125.551 1271.46 123.282 1271.09 Q121.037 1270.72 118.63 1269.98 L118.63 1265.28 Q120.713 1266.41 122.935 1266.97 Q125.157 1267.52 127.634 1267.52 Q131.639 1267.52 133.977 1265.42 Q136.315 1263.31 136.315 1259.7 Q136.315 1256.09 133.977 1253.98 Q131.639 1251.88 127.634 1251.88 Q125.759 1251.88 123.884 1252.29 Q122.032 1252.71 120.088 1253.59 L120.088 1236.23 Z" fill="#000000" fill-rule="nonzero" fill-opacity="1" /><path clip-path="url(#clip410)" d="M44.4634 791.02 L52.1023 791.02 L52.1023 764.655 L43.7921 766.321 L43.7921 762.062 L52.056 760.395 L56.7319 760.395 L56.7319 791.02 L64.3707 791.02 L64.3707 794.955 L44.4634 794.955 L44.4634 791.02 Z" fill="#000000" fill-rule="nonzero" fill-opacity="1" /><path clip-path="url(#clip410)" d="M83.8151 763.474 Q80.204 763.474 78.3753 767.039 Q76.5697 770.581 76.5697 777.71 Q76.5697 784.817 78.3753 788.381 Q80.204 791.923 83.8151 791.923 Q87.4493 791.923 89.2548 788.381 Q91.0835 784.817 91.0835 777.71 Q91.0835 770.581 89.2548 767.039 Q87.4493 763.474 83.8151 763.474 M83.8151 759.77 Q89.6252 759.77 92.6808 764.377 Q95.7594 768.96 95.7594 777.71 Q95.7594 786.437 92.6808 791.043 Q89.6252 795.627 83.8151 795.627 Q78.0049 795.627 74.9262 791.043 Q71.8707 786.437 71.8707 777.71 Q71.8707 768.96 74.9262 764.377 Q78.0049 759.77 83.8151 759.77 Z" fill="#000000" fill-rule="nonzero" fill-opacity="1" /><path clip-path="url(#clip410)" d="M103.977 789.076 L108.861 789.076 L108.861 794.955 L103.977 794.955 L103.977 789.076 Z" fill="#000000" fill-rule="nonzero" fill-opacity="1" /><path clip-path="url(#clip410)" d="M129.046 763.474 Q125.435 763.474 123.607 767.039 Q121.801 770.581 121.801 777.71 Q121.801 784.817 123.607 788.381 Q125.435 791.923 129.046 791.923 Q132.681 791.923 134.486 788.381 Q136.315 784.817 136.315 777.71 Q136.315 770.581 134.486 767.039 Q132.681 763.474 129.046 763.474 M129.046 759.77 Q134.856 759.77 137.912 764.377 Q140.991 768.96 140.991 777.71 Q140.991 786.437 137.912 791.043 Q134.856 795.627 129.046 795.627 Q123.236 795.627 120.157 791.043 Q117.102 786.437 117.102 777.71 Q117.102 768.96 120.157 764.377 Q123.236 759.77 129.046 759.77 Z" fill="#000000" fill-rule="nonzero" fill-opacity="1" /><path clip-path="url(#clip410)" d="M45.4588 315.188 L53.0976 315.188 L53.0976 288.822 L44.7875 290.489 L44.7875 286.23 L53.0513 284.563 L57.7272 284.563 L57.7272 315.188 L65.3661 315.188 L65.3661 319.123 L45.4588 319.123 L45.4588 315.188 Z" fill="#000000" fill-rule="nonzero" fill-opacity="1" /><path clip-path="url(#clip410)" d="M78.8382 315.188 L95.1576 315.188 L95.1576 319.123 L73.2133 319.123 L73.2133 315.188 Q75.8753 312.433 80.4586 307.804 Q85.0651 303.151 86.2456 301.808 Q88.491 299.285 89.3706 297.549 Q90.2734 295.79 90.2734 294.1 Q90.2734 291.345 88.3289 289.609 Q86.4076 287.873 83.3058 287.873 Q81.1067 287.873 78.6531 288.637 Q76.2225 289.401 73.4447 290.952 L73.4447 286.23 Q76.2688 285.095 78.7225 284.517 Q81.1762 283.938 83.2132 283.938 Q88.5836 283.938 91.778 286.623 Q94.9724 289.308 94.9724 293.799 Q94.9724 295.929 94.1622 297.85 Q93.3752 299.748 91.2687 302.341 Q90.69 303.012 87.5882 306.23 Q84.4864 309.424 78.8382 315.188 Z" fill="#000000" fill-rule="nonzero" fill-opacity="1" /><path clip-path="url(#clip410)" d="M104.972 313.243 L109.857 313.243 L109.857 319.123 L104.972 319.123 L104.972 313.243 Z" fill="#000000" fill-rule="nonzero" fill-opacity="1" /><path clip-path="url(#clip410)" d="M120.088 284.563 L138.444 284.563 L138.444 288.498 L124.37 288.498 L124.37 296.97 Q125.389 296.623 126.407 296.461 Q127.426 296.276 128.444 296.276 Q134.231 296.276 137.611 299.447 Q140.991 302.618 140.991 308.035 Q140.991 313.614 137.518 316.716 Q134.046 319.794 127.727 319.794 Q125.551 319.794 123.282 319.424 Q121.037 319.054 118.63 318.313 L118.63 313.614 Q120.713 314.748 122.935 315.304 Q125.157 315.859 127.634 315.859 Q131.639 315.859 133.977 313.753 Q136.315 311.646 136.315 308.035 Q136.315 304.424 133.977 302.318 Q131.639 300.211 127.634 300.211 Q125.759 300.211 123.884 300.628 Q122.032 301.044 120.088 301.924 L120.088 284.563 Z" fill="#000000" fill-rule="nonzero" fill-opacity="1" /><path clip-path="url(#clip412)" d="M300.312 2490.67 L334.562 2486.79 L368.812 2482.82 L403.061 2478.78 L437.311 2474.65 L471.561 2470.44 L505.811 2466.14 L540.06 2461.76 L574.31 2457.29 L608.56 2452.72 L642.809 2448.06 L677.059 2443.31 L711.309 2438.46 L745.559 2433.51 L779.808 2428.46 L814.058 2423.3 L848.308 2418.04 L882.558 2412.68 L916.807 2407.2 L951.057 2401.61 L985.307 2395.91 L1019.56 2390.09 L1053.81 2384.16 L1088.06 2378.1 L1122.31 2371.92 L1156.56 2365.61 L1190.8 2359.17 L1225.05 2352.61 L1259.3 2345.9 L1293.55 2339.07 L1327.8 2332.09 L1362.05 2324.97 L1396.3 2317.7 L1430.55 2310.29 L1464.8 2302.72 L1499.05 2295 L1533.3 2287.12 L1567.55 2279.09 L1601.8 2270.88 L1636.05 2262.51 L1670.3 2253.97 L1704.55 2245.26 L1738.8 2236.37 L1773.05 2227.29 L1807.3 2218.03 L1841.55 2208.59 L1875.8 2198.95 L1910.05 2189.11 L1944.3 2179.07 L1978.55 2168.83 L2012.8 2158.37 L2047.05 2147.71 L2081.3 2136.83 L2115.55 2125.72 L2149.8 2114.39 L2184.05 2102.82 L2218.3 2091.03 L2252.55 2078.99 L2286.8 2066.7 L2321.05 2054.16 L2355.3 2041.37 L2389.55 2028.32 L2423.79 2015 L2458.04 2001.41 L2492.29 1987.54 L2526.54 1973.39 L2560.79 1958.94 L2595.04 1944.21 L2629.29 1929.17 L2663.54 1913.83 L2697.79 1898.17 L2732.04 1882.2 L2766.29 1865.9 L2800.54 1849.26 L2834.79 1832.29 L2869.04 1814.97 L2903.29 1797.3 L2937.54 1779.26 L2971.79 1760.86 L3006.04 1742.08 L3040.29 1722.92 L3074.54 1703.37 L3108.79 1683.42 L3143.04 1663.06 L3177.29 1642.28 L3211.54 1621.09 L3245.79 1599.46 L3280.04 1577.39 L3314.29 1554.86 L3348.54 1531.88 L3382.79 1508.43 L3417.04 1484.5 L3451.29 1460.08 L3485.54 1435.17 L3519.79 1409.74 L3554.04 1383.8 L3588.29 1357.33 L3622.53 1330.31 L3656.78 1302.75 L3691.03 1274.62 L3691.03 118.412 L3656.78 184.836 L3622.53 249.539 L3588.29 312.564 L3554.04 373.956 L3519.79 433.757 L3485.54 492.007 L3451.29 548.747 L3417.04 604.017 L3382.79 657.854 L3348.54 710.296 L3314.29 761.378 L3280.04 811.136 L3245.79 859.605 L3211.54 906.817 L3177.29 952.805 L3143.04 997.601 L3108.79 1041.24 L3074.54 1083.74 L3040.29 1125.14 L3006.04 1165.47 L2971.79 1204.76 L2937.54 1243.02 L2903.29 1280.29 L2869.04 1316.6 L2834.79 1351.97 L2800.54 1386.42 L2766.29 1419.98 L2732.04 1452.66 L2697.79 1484.5 L2663.54 1515.52 L2629.29 1545.73 L2595.04 1575.15 L2560.79 1603.82 L2526.54 1631.74 L2492.29 1658.94 L2458.04 1685.43 L2423.79 1711.24 L2389.55 1736.37 L2355.3 1760.86 L2321.05 1784.71 L2286.8 1807.94 L2252.55 1830.57 L2218.3 1852.62 L2184.05 1874.09 L2149.8 1895.01 L2115.55 1915.38 L2081.3 1935.22 L2047.05 1954.56 L2012.8 1973.39 L1978.55 1991.73 L1944.3 2009.59 L1910.05 2027 L1875.8 2043.95 L1841.55 2060.46 L1807.3 2076.55 L1773.05 2092.22 L1738.8 2107.48 L1704.55 2122.34 L1670.3 2136.83 L1636.05 2150.93 L1601.8 2164.67 L1567.55 2178.05 L1533.3 2191.09 L1499.05 2203.79 L1464.8 2216.16 L1430.55 2228.21 L1396.3 2239.95 L1362.05 2251.38 L1327.8 2262.51 L1293.55 2273.36 L1259.3 2283.93 L1225.05 2294.22 L1190.8 2304.25 L1156.56 2314.01 L1122.31 2323.53 L1088.06 2332.79 L1053.81 2341.82 L1019.56 2350.61 L985.307 2359.17 L951.057 2367.52 L916.807 2375.64 L882.558 2383.56 L848.308 2391.27 L814.058 2398.78 L779.808 2406.09 L745.559 2413.22 L711.309 2420.16 L677.059 2426.92 L642.809 2433.51 L608.56 2439.92 L574.31 2446.17 L540.06 2452.26 L505.811 2458.19 L471.561 2463.96 L437.311 2469.59 L403.061 2475.07 L368.812 2480.41 L334.562 2485.61 L300.312 2490.67  Z" fill="#009af9" fill-rule="evenodd" fill-opacity="0.35"/>
<polyline clip-path="url(#clip412)" style="stroke:#009af9; stroke-linecap:round; stroke-linejoin:round; stroke-width:4; stroke-opacity:1; fill:none" points="300.312,2490.67 334.562,2486.79 368.812,2482.82 403.061,2478.78 437.311,2474.65 471.561,2470.44 505.811,2466.14 540.06,2461.76 574.31,2457.29 608.56,2452.72 642.809,2448.06 677.059,2443.31 711.309,2438.46 745.559,2433.51 779.808,2428.46 814.058,2423.3 848.308,2418.04 882.558,2412.68 916.807,2407.2 951.057,2401.61 985.307,2395.91 1019.56,2390.09 1053.81,2384.16 1088.06,2378.1 1122.31,2371.92 1156.56,2365.61 1190.8,2359.17 1225.05,2352.61 1259.3,2345.9 1293.55,2339.07 1327.8,2332.09 1362.05,2324.97 1396.3,2317.7 1430.55,2310.29 1464.8,2302.72 1499.05,2295 1533.3,2287.12 1567.55,2279.09 1601.8,2270.88 1636.05,2262.51 1670.3,2253.97 1704.55,2245.26 1738.8,2236.37 1773.05,2227.29 1807.3,2218.03 1841.55,2208.59 1875.8,2198.95 1910.05,2189.11 1944.3,2179.07 1978.55,2168.83 2012.8,2158.37 2047.05,2147.71 2081.3,2136.83 2115.55,2125.72 2149.8,2114.39 2184.05,2102.82 2218.3,2091.03 2252.55,2078.99 2286.8,2066.7 2321.05,2054.16 2355.3,2041.37 2389.55,2028.32 2423.79,2015 2458.04,2001.41 2492.29,1987.54 2526.54,1973.39 2560.79,1958.94 2595.04,1944.21 2629.29,1929.17 2663.54,1913.83 2697.79,1898.17 2732.04,1882.2 2766.29,1865.9 2800.54,1849.26 2834.79,1832.29 2869.04,1814.97 2903.29,1797.3 2937.54,1779.26 2971.79,1760.86 3006.04,1742.08 3040.29,1722.92 3074.54,1703.37 3108.79,1683.42 3143.04,1663.06 3177.29,1642.28 3211.54,1621.09 3245.79,1599.46 3280.04,1577.39 3314.29,1554.86 3348.54,1531.88 3382.79,1508.43 3417.04,1484.5 3451.29,1460.08 3485.54,1435.17 3519.79,1409.74 3554.04,1383.8 3588.29,1357.33 3622.53,1330.31 3656.78,1302.75 3691.03,1274.62 "/>
<path clip-path="url(#clip410)" d="M318.396 234.744 L1071.75 234.744 L1071.75 131.064 L318.396 131.064  Z" fill="#ffffff" fill-rule="evenodd" fill-opacity="1"/>
<polyline clip-path="url(#clip410)" style="stroke:#000000; stroke-linecap:round; stroke-linejoin:round; stroke-width:4; stroke-opacity:1; fill:none" points="318.396,234.744 1071.75,234.744 1071.75,131.064 318.396,131.064 318.396,234.744 "/>
<path clip-path="url(#clip410)" d="M358.331 203.64 L597.942 203.64 L597.942 162.168 L358.331 162.168 L358.331 203.64  Z" fill="#009af9" fill-rule="evenodd" fill-opacity="0.35"/>
<polyline clip-path="url(#clip410)" style="stroke:#009af9; stroke-linecap:round; stroke-linejoin:round; stroke-width:4; stroke-opacity:1; fill:none" points="358.331,162.168 597.942,162.168 "/>
<path clip-path="url(#clip410)" d="M665.748 168.286 L665.748 173.217 Q663.387 171.017 660.701 169.929 Q658.039 168.842 655.03 168.842 Q649.104 168.842 645.956 172.476 Q642.808 176.087 642.808 182.939 Q642.808 189.767 645.956 193.402 Q649.104 197.013 655.03 197.013 Q658.039 197.013 660.701 195.925 Q663.387 194.837 665.748 192.638 L665.748 197.522 Q663.294 199.189 660.539 200.022 Q657.808 200.855 654.752 200.855 Q646.905 200.855 642.391 196.064 Q637.878 191.249 637.878 182.939 Q637.878 174.605 642.391 169.814 Q646.905 164.999 654.752 164.999 Q657.854 164.999 660.586 165.832 Q663.34 166.642 665.748 168.286 Z" fill="#000000" fill-rule="nonzero" fill-opacity="1" /><path clip-path="url(#clip410)" d="M682.831 177.244 Q679.405 177.244 677.414 179.929 Q675.424 182.591 675.424 187.244 Q675.424 191.897 677.391 194.582 Q679.382 197.244 682.831 197.244 Q686.234 197.244 688.224 194.559 Q690.215 191.874 690.215 187.244 Q690.215 182.638 688.224 179.953 Q686.234 177.244 682.831 177.244 M682.831 173.633 Q688.387 173.633 691.558 177.244 Q694.729 180.855 694.729 187.244 Q694.729 193.61 691.558 197.244 Q688.387 200.855 682.831 200.855 Q677.252 200.855 674.081 197.244 Q670.933 193.61 670.933 187.244 Q670.933 180.855 674.081 177.244 Q677.252 173.633 682.831 173.633 Z" fill="#000000" fill-rule="nonzero" fill-opacity="1" /><path clip-path="url(#clip410)" d="M723.34 184.536 L723.34 200.184 L719.081 200.184 L719.081 184.675 Q719.081 180.994 717.646 179.166 Q716.21 177.337 713.34 177.337 Q709.891 177.337 707.9 179.536 Q705.91 181.735 705.91 185.531 L705.91 200.184 L701.627 200.184 L701.627 174.258 L705.91 174.258 L705.91 178.286 Q707.437 175.948 709.498 174.791 Q711.581 173.633 714.289 173.633 Q718.757 173.633 721.048 176.411 Q723.34 179.166 723.34 184.536 Z" fill="#000000" fill-rule="nonzero" fill-opacity="1" /><path clip-path="url(#clip410)" d="M744.96 164.166 L744.96 167.707 L740.886 167.707 Q738.595 167.707 737.692 168.633 Q736.812 169.559 736.812 171.967 L736.812 174.258 L743.826 174.258 L743.826 177.568 L736.812 177.568 L736.812 200.184 L732.53 200.184 L732.53 177.568 L728.456 177.568 L728.456 174.258 L732.53 174.258 L732.53 172.453 Q732.53 168.124 734.544 166.156 Q736.558 164.166 740.933 164.166 L744.96 164.166 Z" fill="#000000" fill-rule="nonzero" fill-opacity="1" /><path clip-path="url(#clip410)" d="M748.525 174.258 L752.784 174.258 L752.784 200.184 L748.525 200.184 L748.525 174.258 M748.525 164.166 L752.784 164.166 L752.784 169.559 L748.525 169.559 L748.525 164.166 Z" fill="#000000" fill-rule="nonzero" fill-opacity="1" /><path clip-path="url(#clip410)" d="M778.756 178.193 L778.756 164.166 L783.016 164.166 L783.016 200.184 L778.756 200.184 L778.756 196.295 Q777.414 198.61 775.354 199.744 Q773.317 200.855 770.446 200.855 Q765.747 200.855 762.784 197.105 Q759.844 193.355 759.844 187.244 Q759.844 181.133 762.784 177.383 Q765.747 173.633 770.446 173.633 Q773.317 173.633 775.354 174.767 Q777.414 175.879 778.756 178.193 M764.243 187.244 Q764.243 191.943 766.164 194.628 Q768.108 197.29 771.488 197.29 Q774.868 197.29 776.812 194.628 Q778.756 191.943 778.756 187.244 Q778.756 182.545 776.812 179.883 Q774.868 177.198 771.488 177.198 Q768.108 177.198 766.164 179.883 Q764.243 182.545 764.243 187.244 Z" fill="#000000" fill-rule="nonzero" fill-opacity="1" /><path clip-path="url(#clip410)" d="M813.965 186.156 L813.965 188.24 L794.381 188.24 Q794.659 192.638 797.02 194.953 Q799.404 197.244 803.641 197.244 Q806.094 197.244 808.386 196.642 Q810.701 196.04 812.969 194.837 L812.969 198.865 Q810.678 199.837 808.27 200.346 Q805.863 200.855 803.386 200.855 Q797.182 200.855 793.548 197.244 Q789.937 193.633 789.937 187.476 Q789.937 181.11 793.363 177.383 Q796.812 173.633 802.645 173.633 Q807.877 173.633 810.909 177.013 Q813.965 180.369 813.965 186.156 M809.705 184.906 Q809.659 181.411 807.738 179.328 Q805.84 177.244 802.691 177.244 Q799.127 177.244 796.974 179.258 Q794.844 181.272 794.52 184.929 L809.705 184.906 Z" fill="#000000" fill-rule="nonzero" fill-opacity="1" /><path clip-path="url(#clip410)" d="M842.506 184.536 L842.506 200.184 L838.247 200.184 L838.247 184.675 Q838.247 180.994 836.812 179.166 Q835.376 177.337 832.506 177.337 Q829.057 177.337 827.066 179.536 Q825.076 181.735 825.076 185.531 L825.076 200.184 L820.793 200.184 L820.793 174.258 L825.076 174.258 L825.076 178.286 Q826.603 175.948 828.664 174.791 Q830.747 173.633 833.455 173.633 Q837.923 173.633 840.214 176.411 Q842.506 179.166 842.506 184.536 Z" fill="#000000" fill-rule="nonzero" fill-opacity="1" /><path clip-path="url(#clip410)" d="M869.659 175.254 L869.659 179.235 Q867.853 178.24 866.024 177.754 Q864.219 177.244 862.367 177.244 Q858.224 177.244 855.932 179.883 Q853.64 182.499 853.64 187.244 Q853.64 191.99 855.932 194.628 Q858.224 197.244 862.367 197.244 Q864.219 197.244 866.024 196.758 Q867.853 196.249 869.659 195.253 L869.659 199.189 Q867.876 200.022 865.955 200.439 Q864.057 200.855 861.904 200.855 Q856.048 200.855 852.599 197.175 Q849.15 193.494 849.15 187.244 Q849.15 180.902 852.622 177.267 Q856.117 173.633 862.182 173.633 Q864.149 173.633 866.024 174.05 Q867.899 174.443 869.659 175.254 Z" fill="#000000" fill-rule="nonzero" fill-opacity="1" /><path clip-path="url(#clip410)" d="M899.242 186.156 L899.242 188.24 L879.659 188.24 Q879.936 192.638 882.298 194.953 Q884.682 197.244 888.918 197.244 Q891.372 197.244 893.663 196.642 Q895.978 196.04 898.247 194.837 L898.247 198.865 Q895.955 199.837 893.547 200.346 Q891.14 200.855 888.663 200.855 Q882.46 200.855 878.825 197.244 Q875.214 193.633 875.214 187.476 Q875.214 181.11 878.64 177.383 Q882.089 173.633 887.922 173.633 Q893.154 173.633 896.186 177.013 Q899.242 180.369 899.242 186.156 M894.983 184.906 Q894.936 181.411 893.015 179.328 Q891.117 177.244 887.969 177.244 Q884.404 177.244 882.251 179.258 Q880.122 181.272 879.798 184.929 L894.983 184.906 Z" fill="#000000" fill-rule="nonzero" fill-opacity="1" /><path clip-path="url(#clip410)" d="M939.913 187.244 Q939.913 182.545 937.969 179.883 Q936.047 177.198 932.668 177.198 Q929.288 177.198 927.344 179.883 Q925.422 182.545 925.422 187.244 Q925.422 191.943 927.344 194.628 Q929.288 197.29 932.668 197.29 Q936.047 197.29 937.969 194.628 Q939.913 191.943 939.913 187.244 M925.422 178.193 Q926.765 175.879 928.802 174.767 Q930.862 173.633 933.709 173.633 Q938.431 173.633 941.371 177.383 Q944.334 181.133 944.334 187.244 Q944.334 193.355 941.371 197.105 Q938.431 200.855 933.709 200.855 Q930.862 200.855 928.802 199.744 Q926.765 198.61 925.422 196.295 L925.422 200.184 L921.14 200.184 L921.14 164.166 L925.422 164.166 L925.422 178.193 Z" fill="#000000" fill-rule="nonzero" fill-opacity="1" /><path clip-path="url(#clip410)" d="M963.177 187.152 Q958.015 187.152 956.024 188.332 Q954.033 189.513 954.033 192.36 Q954.033 194.628 955.515 195.971 Q957.019 197.29 959.589 197.29 Q963.13 197.29 965.26 194.79 Q967.413 192.267 967.413 188.101 L967.413 187.152 L963.177 187.152 M971.672 185.392 L971.672 200.184 L967.413 200.184 L967.413 196.249 Q965.954 198.61 963.779 199.744 Q961.603 200.855 958.455 200.855 Q954.473 200.855 952.112 198.633 Q949.774 196.388 949.774 192.638 Q949.774 188.263 952.691 186.041 Q955.63 183.818 961.441 183.818 L967.413 183.818 L967.413 183.402 Q967.413 180.462 965.468 178.865 Q963.547 177.244 960.052 177.244 Q957.83 177.244 955.723 177.777 Q953.617 178.309 951.672 179.374 L951.672 175.439 Q954.01 174.536 956.209 174.096 Q958.408 173.633 960.492 173.633 Q966.117 173.633 968.894 176.55 Q971.672 179.466 971.672 185.392 Z" fill="#000000" fill-rule="nonzero" fill-opacity="1" /><path clip-path="url(#clip410)" d="M1002 184.536 L1002 200.184 L997.737 200.184 L997.737 184.675 Q997.737 180.994 996.302 179.166 Q994.866 177.337 991.996 177.337 Q988.547 177.337 986.556 179.536 Q984.565 181.735 984.565 185.531 L984.565 200.184 L980.283 200.184 L980.283 174.258 L984.565 174.258 L984.565 178.286 Q986.093 175.948 988.153 174.791 Q990.237 173.633 992.945 173.633 Q997.413 173.633 999.704 176.411 Q1002 179.166 1002 184.536 Z" fill="#000000" fill-rule="nonzero" fill-opacity="1" /><path clip-path="url(#clip410)" d="M1027.55 178.193 L1027.55 164.166 L1031.81 164.166 L1031.81 200.184 L1027.55 200.184 L1027.55 196.295 Q1026.21 198.61 1024.15 199.744 Q1022.11 200.855 1019.24 200.855 Q1014.54 200.855 1011.58 197.105 Q1008.64 193.355 1008.64 187.244 Q1008.64 181.133 1011.58 177.383 Q1014.54 173.633 1019.24 173.633 Q1022.11 173.633 1024.15 174.767 Q1026.21 175.879 1027.55 178.193 M1013.04 187.244 Q1013.04 191.943 1014.96 194.628 Q1016.9 197.29 1020.28 197.29 Q1023.66 197.29 1025.61 194.628 Q1027.55 191.943 1027.55 187.244 Q1027.55 182.545 1025.61 179.883 Q1023.66 177.198 1020.28 177.198 Q1016.9 177.198 1014.96 179.883 Q1013.04 182.545 1013.04 187.244 Z" fill="#000000" fill-rule="nonzero" fill-opacity="1" /></svg>
