<?xml version="1.0" encoding="utf-8"?>
<svg xmlns="http://www.w3.org/2000/svg" xmlns:xlink="http://www.w3.org/1999/xlink" width="960" height="672" viewBox="0 0 3840 2688">
<defs>
  <clipPath id="clip830">
    <rect x="0" y="0" width="3840" height="2688"/>
  </clipPath>
</defs>
<path clip-path="url(#clip830)" d="M0 2688 L3840 2688 L3840 -1.47793e-13 L0 -1.47793e-13  Z" fill="#ffffff" fill-rule="evenodd" fill-opacity="1"/>
<defs>
  <clipPath id="clip831">
    <rect x="768" y="0" width="2689" height="2688"/>
  </clipPath>
</defs>
<path clip-path="url(#clip830)" d="M170.674 2561.84 L3792.76 2561.84 L3792.76 47.2441 L170.674 47.2441  Z" fill="#ffffff" fill-rule="evenodd" fill-opacity="1"/>
<defs>
  <clipPath id="clip832">
    <rect x="170" y="47" width="3623" height="2516"/>
  </clipPath>
</defs>
<polyline clip-path="url(#clip832)" style="stroke:#000000; stroke-linecap:round; stroke-linejoin:round; stroke-width:2; stroke-opacity:0.1; fill:none" points="393.122,2561.84 393.122,47.2441 "/>
<polyline clip-path="url(#clip832)" style="stroke:#000000; stroke-linecap:round; stroke-linejoin:round; stroke-width:2; stroke-opacity:0.1; fill:none" points="1164.46,2561.84 1164.46,47.2441 "/>
<polyline clip-path="url(#clip832)" style="stroke:#000000; stroke-linecap:round; stroke-linejoin:round; stroke-width:2; stroke-opacity:0.1; fill:none" points="1935.79,2561.84 1935.79,47.2441 "/>
<polyline clip-path="url(#clip832)" style="stroke:#000000; stroke-linecap:round; stroke-linejoin:round; stroke-width:2; stroke-opacity:0.1; fill:none" points="2707.12,2561.84 2707.12,47.2441 "/>
<polyline clip-path="url(#clip832)" style="stroke:#000000; stroke-linecap:round; stroke-linejoin:round; stroke-width:2; stroke-opacity:0.1; fill:none" points="3478.46,2561.84 3478.46,47.2441 "/>
<polyline clip-path="url(#clip832)" style="stroke:#000000; stroke-linecap:round; stroke-linejoin:round; stroke-width:2; stroke-opacity:0.1; fill:none" points="170.674,2490.7 3792.76,2490.7 "/>
<polyline clip-path="url(#clip832)" style="stroke:#000000; stroke-linecap:round; stroke-linejoin:round; stroke-width:2; stroke-opacity:0.1; fill:none" points="170.674,1999.54 3792.76,1999.54 "/>
<polyline clip-path="url(#clip832)" style="stroke:#000000; stroke-linecap:round; stroke-linejoin:round; stroke-width:2; stroke-opacity:0.1; fill:none" points="170.674,1508.38 3792.76,1508.38 "/>
<polyline clip-path="url(#clip832)" style="stroke:#000000; stroke-linecap:round; stroke-linejoin:round; stroke-width:2; stroke-opacity:0.1; fill:none" points="170.674,1017.21 3792.76,1017.21 "/>
<polyline clip-path="url(#clip832)" style="stroke:#000000; stroke-linecap:round; stroke-linejoin:round; stroke-width:2; stroke-opacity:0.1; fill:none" points="170.674,526.046 3792.76,526.046 "/>
<polyline clip-path="url(#clip830)" style="stroke:#000000; stroke-linecap:round; stroke-linejoin:round; stroke-width:4; stroke-opacity:1; fill:none" points="170.674,2561.84 3792.76,2561.84 "/>
<polyline clip-path="url(#clip830)" style="stroke:#000000; stroke-linecap:round; stroke-linejoin:round; stroke-width:4; stroke-opacity:1; fill:none" points="393.122,2561.84 393.122,2542.94 "/>
<polyline clip-path="url(#clip830)" style="stroke:#000000; stroke-linecap:round; stroke-linejoin:round; stroke-width:4; stroke-opacity:1; fill:none" points="1164.46,2561.84 1164.46,2542.94 "/>
<polyline clip-path="url(#clip830)" style="stroke:#000000; stroke-linecap:round; stroke-linejoin:round; stroke-width:4; stroke-opacity:1; fill:none" points="1935.79,2561.84 1935.79,2542.94 "/>
<polyline clip-path="url(#clip830)" style="stroke:#000000; stroke-linecap:round; stroke-linejoin:round; stroke-width:4; stroke-opacity:1; fill:none" points="2707.12,2561.84 2707.12,2542.94 "/>
<polyline clip-path="url(#clip830)" style="stroke:#000000; stroke-linecap:round; stroke-linejoin:round; stroke-width:4; stroke-opacity:1; fill:none" points="3478.46,2561.84 3478.46,2542.94 "/>
<path clip-path="url(#clip830)" d="M362.763 2618.93 L392.439 2618.93 L392.439 2622.87 L362.763 2622.87 L362.763 2618.93 Z" fill="#000000" fill-rule="nonzero" fill-opacity="1" /><path clip-path="url(#clip830)" d="M402.578 2601.2 L420.934 2601.2 L420.934 2605.14 L406.86 2605.14 L406.86 2613.61 Q407.879 2613.26 408.897 2613.1 Q409.916 2612.91 410.934 2612.91 Q416.721 2612.91 420.101 2616.08 Q423.48 2619.26 423.48 2624.67 Q423.48 2630.25 420.008 2633.35 Q416.536 2636.43 410.217 2636.43 Q408.041 2636.43 405.772 2636.06 Q403.527 2635.69 401.119 2634.95 L401.119 2630.25 Q403.203 2631.38 405.425 2631.94 Q407.647 2632.5 410.124 2632.5 Q414.129 2632.5 416.467 2630.39 Q418.805 2628.28 418.805 2624.67 Q418.805 2621.06 416.467 2618.95 Q414.129 2616.85 410.124 2616.85 Q408.249 2616.85 406.374 2617.26 Q404.522 2617.68 402.578 2618.56 L402.578 2601.2 Z" fill="#000000" fill-rule="nonzero" fill-opacity="1" /><path clip-path="url(#clip830)" d="M1164.46 2604.28 Q1160.84 2604.28 1159.02 2607.84 Q1157.21 2611.39 1157.21 2618.51 Q1157.21 2625.62 1159.02 2629.19 Q1160.84 2632.73 1164.46 2632.73 Q1168.09 2632.73 1169.9 2629.19 Q1171.72 2625.62 1171.72 2618.51 Q1171.72 2611.39 1169.9 2607.84 Q1168.09 2604.28 1164.46 2604.28 M1164.46 2600.57 Q1170.27 2600.57 1173.32 2605.18 Q1176.4 2609.76 1176.4 2618.51 Q1176.4 2627.24 1173.32 2631.85 Q1170.27 2636.43 1164.46 2636.43 Q1158.65 2636.43 1155.57 2631.85 Q1152.51 2627.24 1152.51 2618.51 Q1152.51 2609.76 1155.57 2605.18 Q1158.65 2600.57 1164.46 2600.57 Z" fill="#000000" fill-rule="nonzero" fill-opacity="1" /><path clip-path="url(#clip830)" d="M1926.07 2601.2 L1944.42 2601.2 L1944.42 2605.14 L1930.35 2605.14 L1930.35 2613.61 Q1931.37 2613.26 1932.39 2613.1 Q1933.41 2612.91 1934.42 2612.91 Q1940.21 2612.91 1943.59 2616.08 Q1946.97 2619.26 1946.97 2624.67 Q1946.97 2630.25 1943.5 2633.35 Q1940.03 2636.43 1933.71 2636.43 Q1931.53 2636.43 1929.26 2636.06 Q1927.02 2635.69 1924.61 2634.95 L1924.61 2630.25 Q1926.69 2631.38 1928.92 2631.94 Q1931.14 2632.5 1933.61 2632.5 Q1937.62 2632.5 1939.96 2630.39 Q1942.29 2628.28 1942.29 2624.67 Q1942.29 2621.06 1939.96 2618.95 Q1937.62 2616.85 1933.61 2616.85 Q1931.74 2616.85 1929.86 2617.26 Q1928.01 2617.68 1926.07 2618.56 L1926.07 2601.2 Z" fill="#000000" fill-rule="nonzero" fill-opacity="1" /><path clip-path="url(#clip830)" d="M2681.81 2631.82 L2689.45 2631.82 L2689.45 2605.46 L2681.14 2607.13 L2681.14 2602.87 L2689.4 2601.2 L2694.08 2601.2 L2694.08 2631.82 L2701.72 2631.82 L2701.72 2635.76 L2681.81 2635.76 L2681.81 2631.82 Z" fill="#000000" fill-rule="nonzero" fill-opacity="1" /><path clip-path="url(#clip830)" d="M2721.16 2604.28 Q2717.55 2604.28 2715.72 2607.84 Q2713.92 2611.39 2713.92 2618.51 Q2713.92 2625.62 2715.72 2629.19 Q2717.55 2632.73 2721.16 2632.73 Q2724.8 2632.73 2726.6 2629.19 Q2728.43 2625.62 2728.43 2618.51 Q2728.43 2611.39 2726.6 2607.84 Q2724.8 2604.28 2721.16 2604.28 M2721.16 2600.57 Q2726.97 2600.57 2730.03 2605.18 Q2733.11 2609.76 2733.11 2618.51 Q2733.11 2627.24 2730.03 2631.85 Q2726.97 2636.43 2721.16 2636.43 Q2715.35 2636.43 2712.27 2631.85 Q2709.22 2627.24 2709.22 2618.51 Q2709.22 2609.76 2712.27 2605.18 Q2715.35 2600.57 2721.16 2600.57 Z" fill="#000000" fill-rule="nonzero" fill-opacity="1" /><path clip-path="url(#clip830)" d="M3453.64 2631.82 L3461.28 2631.82 L3461.28 2605.46 L3452.97 2607.13 L3452.97 2602.87 L3461.24 2601.2 L3465.91 2601.2 L3465.91 2631.82 L3473.55 2631.82 L3473.55 2635.76 L3453.64 2635.76 L3453.64 2631.82 Z" fill="#000000" fill-rule="nonzero" fill-opacity="1" /><path clip-path="url(#clip830)" d="M3483.04 2601.2 L3501.4 2601.2 L3501.4 2605.14 L3487.32 2605.14 L3487.32 2613.61 Q3488.34 2613.26 3489.36 2613.1 Q3490.38 2612.91 3491.4 2612.91 Q3497.18 2612.91 3500.56 2616.08 Q3503.94 2619.26 3503.94 2624.67 Q3503.94 2630.25 3500.47 2633.35 Q3497 2636.43 3490.68 2636.43 Q3488.5 2636.43 3486.24 2636.06 Q3483.99 2635.69 3481.58 2634.95 L3481.58 2630.25 Q3483.67 2631.38 3485.89 2631.94 Q3488.11 2632.5 3490.59 2632.5 Q3494.59 2632.5 3496.93 2630.39 Q3499.27 2628.28 3499.27 2624.67 Q3499.27 2621.06 3496.93 2618.95 Q3494.59 2616.85 3490.59 2616.85 Q3488.71 2616.85 3486.84 2617.26 Q3484.99 2617.68 3483.04 2618.56 L3483.04 2601.2 Z" fill="#000000" fill-rule="nonzero" fill-opacity="1" /><polyline clip-path="url(#clip830)" style="stroke:#000000; stroke-linecap:round; stroke-linejoin:round; stroke-width:4; stroke-opacity:1; fill:none" points="170.674,2561.84 170.674,47.2441 "/>
<polyline clip-path="url(#clip830)" style="stroke:#000000; stroke-linecap:round; stroke-linejoin:round; stroke-width:4; stroke-opacity:1; fill:none" points="170.674,2490.7 189.572,2490.7 "/>
<polyline clip-path="url(#clip830)" style="stroke:#000000; stroke-linecap:round; stroke-linejoin:round; stroke-width:4; stroke-opacity:1; fill:none" points="170.674,1999.54 189.572,1999.54 "/>
<polyline clip-path="url(#clip830)" style="stroke:#000000; stroke-linecap:round; stroke-linejoin:round; stroke-width:4; stroke-opacity:1; fill:none" points="170.674,1508.38 189.572,1508.38 "/>
<polyline clip-path="url(#clip830)" style="stroke:#000000; stroke-linecap:round; stroke-linejoin:round; stroke-width:4; stroke-opacity:1; fill:none" points="170.674,1017.21 189.572,1017.21 "/>
<polyline clip-path="url(#clip830)" style="stroke:#000000; stroke-linecap:round; stroke-linejoin:round; stroke-width:4; stroke-opacity:1; fill:none" points="170.674,526.046 189.572,526.046 "/>
<path clip-path="url(#clip830)" d="M55.8985 2476.5 Q52.2875 2476.5 50.4588 2480.07 Q48.6532 2483.61 48.6532 2490.74 Q48.6532 2497.85 50.4588 2501.41 Q52.2875 2504.95 55.8985 2504.95 Q59.5328 2504.95 61.3383 2501.41 Q63.167 2497.85 63.167 2490.74 Q63.167 2483.61 61.3383 2480.07 Q59.5328 2476.5 55.8985 2476.5 M55.8985 2472.8 Q61.7087 2472.8 64.7642 2477.41 Q67.8429 2481.99 67.8429 2490.74 Q67.8429 2499.47 64.7642 2504.07 Q61.7087 2508.66 55.8985 2508.66 Q50.0884 2508.66 47.0097 2504.07 Q43.9542 2499.47 43.9542 2490.74 Q43.9542 2481.99 47.0097 2477.41 Q50.0884 2472.8 55.8985 2472.8 Z" fill="#000000" fill-rule="nonzero" fill-opacity="1" /><path clip-path="url(#clip830)" d="M76.0605 2502.1 L80.9447 2502.1 L80.9447 2507.98 L76.0605 2507.98 L76.0605 2502.1 Z" fill="#000000" fill-rule="nonzero" fill-opacity="1" /><path clip-path="url(#clip830)" d="M101.13 2476.5 Q97.5187 2476.5 95.69 2480.07 Q93.8845 2483.61 93.8845 2490.74 Q93.8845 2497.85 95.69 2501.41 Q97.5187 2504.95 101.13 2504.95 Q104.764 2504.95 106.57 2501.41 Q108.398 2497.85 108.398 2490.74 Q108.398 2483.61 106.57 2480.07 Q104.764 2476.5 101.13 2476.5 M101.13 2472.8 Q106.94 2472.8 109.995 2477.41 Q113.074 2481.99 113.074 2490.74 Q113.074 2499.47 109.995 2504.07 Q106.94 2508.66 101.13 2508.66 Q95.3196 2508.66 92.2409 2504.07 Q89.1854 2499.47 89.1854 2490.74 Q89.1854 2481.99 92.2409 2477.41 Q95.3196 2472.8 101.13 2472.8 Z" fill="#000000" fill-rule="nonzero" fill-opacity="1" /><path clip-path="url(#clip830)" d="M56.5467 1985.34 Q52.9356 1985.34 51.1069 1988.9 Q49.3014 1992.44 49.3014 1999.57 Q49.3014 2006.68 51.1069 2010.25 Q52.9356 2013.79 56.5467 2013.79 Q60.1809 2013.79 61.9865 2010.25 Q63.8152 2006.68 63.8152 1999.57 Q63.8152 1992.44 61.9865 1988.9 Q60.1809 1985.34 56.5467 1985.34 M56.5467 1981.63 Q62.3568 1981.63 65.4124 1986.24 Q68.4911 1990.82 68.4911 1999.57 Q68.4911 2008.3 65.4124 2012.91 Q62.3568 2017.49 56.5467 2017.49 Q50.7365 2017.49 47.6578 2012.91 Q44.6023 2008.3 44.6023 1999.57 Q44.6023 1990.82 47.6578 1986.24 Q50.7365 1981.63 56.5467 1981.63 Z" fill="#000000" fill-rule="nonzero" fill-opacity="1" /><path clip-path="url(#clip830)" d="M76.7086 2010.94 L81.5928 2010.94 L81.5928 2016.82 L76.7086 2016.82 L76.7086 2010.94 Z" fill="#000000" fill-rule="nonzero" fill-opacity="1" /><path clip-path="url(#clip830)" d="M105.945 1998.19 Q109.301 1998.9 111.176 2001.17 Q113.074 2003.44 113.074 2006.77 Q113.074 2011.89 109.556 2014.69 Q106.037 2017.49 99.5557 2017.49 Q97.3798 2017.49 95.065 2017.05 Q92.7733 2016.63 90.3197 2015.78 L90.3197 2011.26 Q92.2641 2012.4 94.5789 2012.98 Q96.8937 2013.56 99.4168 2013.56 Q103.815 2013.56 106.107 2011.82 Q108.421 2010.08 108.421 2006.77 Q108.421 2003.72 106.269 2002 Q104.139 2000.27 100.32 2000.27 L96.2918 2000.27 L96.2918 1996.43 L100.505 1996.43 Q103.954 1996.43 105.783 1995.06 Q107.611 1993.67 107.611 1991.08 Q107.611 1988.42 105.713 1987.01 Q103.838 1985.57 100.32 1985.57 Q98.3983 1985.57 96.1993 1985.99 Q94.0002 1986.4 91.3613 1987.28 L91.3613 1983.12 Q94.0233 1982.38 96.3381 1982.01 Q98.6761 1981.63 100.736 1981.63 Q106.06 1981.63 109.162 1984.07 Q112.264 1986.47 112.264 1990.59 Q112.264 1993.46 110.62 1995.45 Q108.977 1997.42 105.945 1998.19 Z" fill="#000000" fill-rule="nonzero" fill-opacity="1" /><path clip-path="url(#clip830)" d="M55.7365 1494.17 Q52.1254 1494.17 50.2967 1497.74 Q48.4912 1501.28 48.4912 1508.41 Q48.4912 1515.52 50.2967 1519.08 Q52.1254 1522.62 55.7365 1522.62 Q59.3707 1522.62 61.1763 1519.08 Q63.005 1515.52 63.005 1508.41 Q63.005 1501.28 61.1763 1497.74 Q59.3707 1494.17 55.7365 1494.17 M55.7365 1490.47 Q61.5467 1490.47 64.6022 1495.08 Q67.6809 1499.66 67.6809 1508.41 Q67.6809 1517.14 64.6022 1521.74 Q61.5467 1526.33 55.7365 1526.33 Q49.9264 1526.33 46.8477 1521.74 Q43.7921 1517.14 43.7921 1508.41 Q43.7921 1499.66 46.8477 1495.08 Q49.9264 1490.47 55.7365 1490.47 Z" fill="#000000" fill-rule="nonzero" fill-opacity="1" /><path clip-path="url(#clip830)" d="M75.8984 1519.78 L80.7827 1519.78 L80.7827 1525.66 L75.8984 1525.66 L75.8984 1519.78 Z" fill="#000000" fill-rule="nonzero" fill-opacity="1" /><path clip-path="url(#clip830)" d="M101.546 1506.51 Q98.3983 1506.51 96.5465 1508.66 Q94.7178 1510.82 94.7178 1514.57 Q94.7178 1518.29 96.5465 1520.47 Q98.3983 1522.62 101.546 1522.62 Q104.695 1522.62 106.523 1520.47 Q108.375 1518.29 108.375 1514.57 Q108.375 1510.82 106.523 1508.66 Q104.695 1506.51 101.546 1506.51 M110.829 1491.86 L110.829 1496.12 Q109.07 1495.28 107.264 1494.85 Q105.482 1494.41 103.722 1494.41 Q99.0928 1494.41 96.6391 1497.53 Q94.2085 1500.66 93.8613 1506.97 Q95.227 1504.96 97.2872 1503.9 Q99.3474 1502.81 101.824 1502.81 Q107.033 1502.81 110.042 1505.98 Q113.074 1509.13 113.074 1514.57 Q113.074 1519.89 109.926 1523.11 Q106.778 1526.33 101.546 1526.33 Q95.5511 1526.33 92.3798 1521.74 Q89.2085 1517.14 89.2085 1508.41 Q89.2085 1500.22 93.0974 1495.35 Q96.9863 1490.47 103.537 1490.47 Q105.296 1490.47 107.079 1490.82 Q108.884 1491.16 110.829 1491.86 Z" fill="#000000" fill-rule="nonzero" fill-opacity="1" /><path clip-path="url(#clip830)" d="M56.0837 1003.01 Q52.4726 1003.01 50.6439 1006.57 Q48.8384 1010.12 48.8384 1017.25 Q48.8384 1024.35 50.6439 1027.92 Q52.4726 1031.46 56.0837 1031.46 Q59.718 1031.46 61.5235 1027.92 Q63.3522 1024.35 63.3522 1017.25 Q63.3522 1010.12 61.5235 1006.57 Q59.718 1003.01 56.0837 1003.01 M56.0837 999.305 Q61.8939 999.305 64.9494 1003.91 Q68.0281 1008.5 68.0281 1017.25 Q68.0281 1025.97 64.9494 1030.58 Q61.8939 1035.16 56.0837 1035.16 Q50.2736 1035.16 47.1949 1030.58 Q44.1393 1025.97 44.1393 1017.25 Q44.1393 1008.5 47.1949 1003.91 Q50.2736 999.305 56.0837 999.305 Z" fill="#000000" fill-rule="nonzero" fill-opacity="1" /><path clip-path="url(#clip830)" d="M76.2457 1028.61 L81.1299 1028.61 L81.1299 1034.49 L76.2457 1034.49 L76.2457 1028.61 Z" fill="#000000" fill-rule="nonzero" fill-opacity="1" /><path clip-path="url(#clip830)" d="M91.4539 1033.77 L91.4539 1029.51 Q93.2132 1030.35 95.0187 1030.79 Q96.8242 1031.23 98.5604 1031.23 Q103.19 1031.23 105.62 1028.12 Q108.074 1025 108.421 1018.66 Q107.079 1020.65 105.019 1021.71 Q102.958 1022.78 100.458 1022.78 Q95.2733 1022.78 92.2409 1019.65 Q89.2317 1016.5 89.2317 1011.06 Q89.2317 1005.74 92.3798 1002.52 Q95.528 999.305 100.759 999.305 Q106.755 999.305 109.903 1003.91 Q113.074 1008.5 113.074 1017.25 Q113.074 1025.42 109.185 1030.3 Q105.32 1035.16 98.7687 1035.16 Q97.0094 1035.16 95.2039 1034.81 Q93.3983 1034.47 91.4539 1033.77 M100.759 1019.12 Q103.908 1019.12 105.736 1016.97 Q107.588 1014.81 107.588 1011.06 Q107.588 1007.34 105.736 1005.19 Q103.908 1003.01 100.759 1003.01 Q97.6113 1003.01 95.7594 1005.19 Q93.9307 1007.34 93.9307 1011.06 Q93.9307 1014.81 95.7594 1016.97 Q97.6113 1019.12 100.759 1019.12 Z" fill="#000000" fill-rule="nonzero" fill-opacity="1" /><path clip-path="url(#clip830)" d="M48.306 539.391 L55.9448 539.391 L55.9448 513.025 L47.6347 514.692 L47.6347 510.432 L55.8985 508.766 L60.5744 508.766 L60.5744 539.391 L68.2133 539.391 L68.2133 543.326 L48.306 543.326 L48.306 539.391 Z" fill="#000000" fill-rule="nonzero" fill-opacity="1" /><path clip-path="url(#clip830)" d="M77.6577 537.446 L82.5419 537.446 L82.5419 543.326 L77.6577 543.326 L77.6577 537.446 Z" fill="#000000" fill-rule="nonzero" fill-opacity="1" /><path clip-path="url(#clip830)" d="M96.7548 539.391 L113.074 539.391 L113.074 543.326 L91.1298 543.326 L91.1298 539.391 Q93.7919 536.636 98.3752 532.006 Q102.982 527.354 104.162 526.011 Q106.408 523.488 107.287 521.752 Q108.19 519.993 108.19 518.303 Q108.19 515.548 106.245 513.812 Q104.324 512.076 101.222 512.076 Q99.0233 512.076 96.5696 512.84 Q94.1391 513.604 91.3613 515.155 L91.3613 510.432 Q94.1854 509.298 96.6391 508.719 Q99.0928 508.141 101.13 508.141 Q106.5 508.141 109.695 510.826 Q112.889 513.511 112.889 518.002 Q112.889 520.131 112.079 522.053 Q111.292 523.951 109.185 526.543 Q108.607 527.215 105.505 530.432 Q102.403 533.627 96.7548 539.391 Z" fill="#000000" fill-rule="nonzero" fill-opacity="1" /><polyline clip-path="url(#clip832)" style="stroke:#000000; stroke-linecap:round; stroke-linejoin:round; stroke-width:4; stroke-opacity:1; fill:none" points="2636.41,2490.31 2637.77,2490.31 2639.13,2490.28 2640.49,2490.22 2641.85,2490.12 2643.21,2489.99 2644.57,2489.81 2645.93,2489.58 2647.29,2489.28 2648.65,2488.91 2650.02,2488.44 2651.38,2487.87 2652.74,2487.16 2654.1,2486.29 2655.46,2485.23 2656.82,2483.95 2658.18,2482.41 2659.54,2480.56 2660.9,2478.35 2662.27,2475.73 2663.63,2472.65 2664.99,2469.02 2666.35,2464.78 2667.71,2459.85 2669.07,2454.16 2670.43,2447.6 2671.79,2440.09 2673.15,2431.54 2674.51,2421.86 2675.88,2410.94 2677.24,2398.7 2678.6,2385.05 2679.96,2369.9 2681.32,2353.18 2682.68,2334.83 2684.04,2314.79 2685.4,2293.02 2686.76,2269.52 2688.13,2244.28 2689.49,2217.31 2690.85,2188.68 2692.21,2158.44 2693.57,2126.7 2694.93,2093.58 2696.29,2059.21 2697.65,2023.78 2699.01,1987.48 2700.37,1950.53 2701.74,1913.16 2703.1,1875.61 2704.46,1838.15 2705.82,1801.05 2707.18,1764.57 2708.54,1728.97 2709.9,1694.5 2711.26,1661.39 2712.62,1629.87 2713.99,1600.11 2715.35,1572.27 2716.71,1546.45 2718.07,1522.74 2719.43,1501.15 2720.79,1481.66 2722.15,1464.21 2723.51,1448.66 2724.87,1434.84 2726.23,1422.54 2727.6,1411.48 2728.96,1401.37 2730.32,1391.85 2731.68,1382.57 2733.04,1373.14 2734.4,1363.15 2735.76,1352.19 2737.12,1339.87 2738.48,1325.81 2739.85,1309.64 2741.21,1291.04 2742.57,1269.72 2743.93,1245.46 2745.29,1218.06 2746.65,1187.41 2748.01,1153.48 2749.37,1116.27 2750.73,1075.87 2752.09,1032.46 2753.46,986.248 2754.82,937.542 2756.18,886.692 2757.54,834.105 2758.9,780.234 2760.26,725.567 2761.62,670.619 2762.98,615.923 2764.34,562.016 2765.71,509.428 2767.07,458.677 2768.43,410.249 2769.79,364.6 2771.15,322.134 2772.51,283.207 2773.87,248.113 2775.23,217.083 2776.59,190.277 2777.95,167.786 2779.32,149.63 2780.68,135.761 2782.04,126.063 2783.4,120.357 2784.76,118.412 2786.12,119.944 2787.48,124.633 2788.84,132.126 2790.2,142.051 2791.57,154.027 2792.93,167.673 2794.29,182.624 2795.65,198.533 2797.01,215.09 2798.37,232.024 2799.73,249.115 2801.09,266.196 2802.45,283.161 2803.81,299.968 2805.18,316.637 2806.54,333.249 2807.9,349.947 2809.26,366.927 2810.62,384.43 2811.98,402.739 2813.34,422.167 2814.7,443.042 2816.06,465.704 2817.43,490.487 2818.79,517.71 2820.15,547.665 2821.51,580.607 2822.87,616.746 2824.23,656.237 2825.59,699.174 2826.95,745.59 2828.31,795.446 2829.67,848.638 2831.04,904.996 2832.4,964.287 2833.76,1026.22 2835.12,1090.45 2836.48,1156.6 2837.84,1224.24 2839.2,1292.92 2840.56,1362.2 2841.92,1431.6 2843.29,1500.65 2844.65,1568.93 2846.01,1635.98 2847.37,1701.43 2848.73,1764.9 2850.09,1826.08 2851.45,1884.69 2852.81,1940.5 2854.17,1993.33 2855.53,2043.04 2856.9,2089.54 2858.26,2132.79 2859.62,2172.79 2860.98,2209.57 2862.34,2243.2 2863.7,2273.79 2865.06,2301.44 2866.42,2326.32 2867.78,2348.57 2869.15,2368.36 2870.51,2385.88 2871.87,2401.29 2873.23,2414.79 2874.59,2426.54 2875.95,2436.72 2877.31,2445.49 2878.67,2453.02 2880.03,2459.43 2881.39,2464.87 2882.76,2469.46 2884.12,2473.32 2885.48,2476.54 2886.84,2479.22 2888.2,2481.44 2889.56,2483.26 2890.92,2484.75 2892.28,2485.96 2893.64,2486.94 2895.01,2487.73 2896.37,2488.37 2897.73,2488.87 2899.09,2489.27 2900.45,2489.58 2901.81,2489.82 2903.17,2490 2904.53,2490.14 2905.89,2490.23 2907.25,2490.29 "/>
<polyline clip-path="url(#clip832)" style="stroke:#ff0000; stroke-linecap:round; stroke-linejoin:round; stroke-width:4; stroke-opacity:1; fill:none" points="273.186,2490.67 290.357,2490.67 307.528,2490.66 324.699,2490.65 341.87,2490.64 359.042,2490.62 376.213,2490.6 393.384,2490.57 410.555,2490.54 427.726,2490.5 444.897,2490.45 462.069,2490.39 479.24,2490.31 496.411,2490.22 513.582,2490.11 530.753,2489.98 547.924,2489.82 565.095,2489.63 582.267,2489.4 599.438,2489.14 616.609,2488.82 633.78,2488.46 650.951,2488.03 668.122,2487.53 685.293,2486.95 702.465,2486.28 719.636,2485.52 736.807,2484.64 753.978,2483.65 771.149,2482.52 788.32,2481.25 805.491,2479.83 822.663,2478.24 839.834,2476.47 857.005,2474.51 874.176,2472.35 891.347,2469.98 908.518,2467.39 925.689,2464.57 942.861,2461.52 960.032,2458.24 977.203,2454.71 994.374,2450.95 1011.55,2446.96 1028.72,2442.73 1045.89,2438.29 1063.06,2433.63 1080.23,2428.78 1097.4,2423.75 1114.57,2418.56 1131.74,2413.24 1148.91,2407.8 1166.09,2402.27 1183.26,2396.68 1200.43,2391.07 1217.6,2385.45 1234.77,2379.88 1251.94,2374.37 1269.11,2368.96 1286.28,2363.68 1303.45,2358.56 1320.63,2353.63 1337.8,2348.93 1354.97,2344.46 1372.14,2340.27 1389.31,2336.37 1406.48,2332.77 1423.65,2329.49 1440.82,2326.55 1458,2323.96 1475.17,2321.71 1492.34,2319.82 1509.51,2318.28 1526.68,2317.09 1543.85,2316.25 1561.02,2315.74 1578.19,2315.56 1595.36,2315.7 1612.54,2316.14 1629.71,2316.86 1646.88,2317.86 1664.05,2319.1 1681.22,2320.57 1698.39,2322.24 1715.56,2324.1 1732.73,2326.12 1749.9,2328.27 1767.08,2330.53 1784.25,2332.86 1801.42,2335.26 1818.59,2337.67 1835.76,2340.09 1852.93,2342.47 1870.1,2344.8 1887.27,2347.04 1904.44,2349.18 1921.62,2351.17 1938.79,2353.02 1955.96,2354.68 1973.13,2356.15 1990.3,2357.41 2007.47,2358.44 2024.64,2359.24 2041.81,2359.81 2058.99,2360.14 2076.16,2360.23 2093.33,2360.09 2110.5,2359.74 2127.67,2359.18 2144.84,2358.44 2162.01,2357.55 2179.18,2356.52 2196.35,2355.39 2213.53,2354.19 2230.7,2352.95 2247.87,2351.71 2265.04,2350.5 2282.21,2349.37 2299.38,2348.35 2316.55,2347.47 2333.72,2346.77 2350.89,2346.28 2368.07,2346.03 2385.24,2346.05 2402.41,2346.35 2419.58,2346.96 2436.75,2347.89 2453.92,2349.15 2471.09,2350.75 2488.26,2352.68 2505.44,2354.95 2522.61,2357.54 2539.78,2360.45 2556.95,2363.66 2574.12,2367.14 2591.29,2370.89 2608.46,2374.86 2625.63,2379.05 2642.8,2383.41 2659.98,2387.92 2677.15,2392.54 2694.32,2397.25 2711.49,2402.02 2728.66,2406.81 2745.83,2411.6 2763,2416.35 2780.17,2421.05 2797.34,2425.66 2814.52,2430.16 2831.69,2434.54 2848.86,2438.77 2866.03,2442.85 2883.2,2446.75 2900.37,2450.47 2917.54,2454 2934.71,2457.33 2951.88,2460.47 2969.06,2463.4 2986.23,2466.13 3003.4,2468.67 3020.57,2471.01 3037.74,2473.16 3054.91,2475.14 3072.08,2476.94 3089.25,2478.57 3106.43,2480.05 3123.6,2481.38 3140.77,2482.57 3157.94,2483.64 3175.11,2484.59 3192.28,2485.43 3209.45,2486.17 3226.62,2486.82 3243.79,2487.39 3260.97,2487.89 3278.14,2488.32 3295.31,2488.69 3312.48,2489.01 3329.65,2489.29 3346.82,2489.52 3363.99,2489.72 3381.16,2489.89 3398.33,2490.03 3415.51,2490.15 3432.68,2490.25 3449.85,2490.33 3467.02,2490.4 3484.19,2490.46 3501.36,2490.51 3518.53,2490.55 3535.7,2490.58 3552.87,2490.6 3570.05,2490.62 3587.22,2490.64 3604.39,2490.65 3621.56,2490.66 3638.73,2490.67 3655.9,2490.67 3673.07,2490.67 3690.24,2490.67 "/>
<path clip-path="url(#clip830)" d="M3286.62 286.584 L3672.02 286.584 L3672.02 131.064 L3286.62 131.064  Z" fill="#ffffff" fill-rule="evenodd" fill-opacity="1"/>
<polyline clip-path="url(#clip830)" style="stroke:#000000; stroke-linecap:round; stroke-linejoin:round; stroke-width:4; stroke-opacity:1; fill:none" points="3286.62,286.584 3672.02,286.584 3672.02,131.064 3286.62,131.064 3286.62,286.584 "/>
<polyline clip-path="url(#clip830)" style="stroke:#000000; stroke-linecap:round; stroke-linejoin:round; stroke-width:4; stroke-opacity:1; fill:none" points="3326.86,182.904 3568.33,182.904 "/>
<path clip-path="url(#clip830)" d="M3627.35 187.244 Q3627.35 182.545 3625.41 179.883 Q3623.49 177.198 3620.11 177.198 Q3616.73 177.198 3614.78 179.883 Q3612.86 182.545 3612.86 187.244 Q3612.86 191.943 3614.78 194.628 Q3616.73 197.29 3620.11 197.29 Q3623.49 197.29 3625.41 194.628 Q3627.35 191.943 3627.35 187.244 M3612.86 178.193 Q3614.21 175.879 3616.24 174.767 Q3618.3 173.633 3621.15 173.633 Q3625.87 173.633 3628.81 177.383 Q3631.77 181.133 3631.77 187.244 Q3631.77 193.355 3628.81 197.105 Q3625.87 200.855 3621.15 200.855 Q3618.3 200.855 3616.24 199.744 Q3614.21 198.61 3612.86 196.295 L3612.86 200.184 L3608.58 200.184 L3608.58 164.166 L3612.86 164.166 L3612.86 178.193 Z" fill="#000000" fill-rule="nonzero" fill-opacity="1" /><polyline clip-path="url(#clip830)" style="stroke:#ff0000; stroke-linecap:round; stroke-linejoin:round; stroke-width:4; stroke-opacity:1; fill:none" points="3326.86,234.744 3568.33,234.744 "/>
<path clip-path="url(#clip830)" d="M3629.09 227.094 L3629.09 231.075 Q3627.28 230.08 3625.46 229.594 Q3623.65 229.084 3621.8 229.084 Q3617.65 229.084 3615.36 231.723 Q3613.07 234.339 3613.07 239.084 Q3613.07 243.83 3615.36 246.468 Q3617.65 249.084 3621.8 249.084 Q3623.65 249.084 3625.46 248.598 Q3627.28 248.089 3629.09 247.093 L3629.09 251.029 Q3627.31 251.862 3625.39 252.279 Q3623.49 252.695 3621.33 252.695 Q3615.48 252.695 3612.03 249.015 Q3608.58 245.334 3608.58 239.084 Q3608.58 232.742 3612.05 229.107 Q3615.55 225.473 3621.61 225.473 Q3623.58 225.473 3625.46 225.89 Q3627.33 226.283 3629.09 227.094 Z" fill="#000000" fill-rule="nonzero" fill-opacity="1" /></svg>
