<?xml version="1.0" encoding="utf-8"?>
<svg xmlns="http://www.w3.org/2000/svg" xmlns:xlink="http://www.w3.org/1999/xlink" width="960" height="672" viewBox="0 0 3840 2688">
<defs>
  <clipPath id="clip070">
    <rect x="0" y="0" width="3840" height="2688"/>
  </clipPath>
</defs>
<path clip-path="url(#clip070)" d="M0 2688 L3840 2688 L3840 -1.47793e-13 L0 -1.47793e-13  Z" fill="#ffffff" fill-rule="evenodd" fill-opacity="1"/>
<defs>
  <clipPath id="clip071">
    <rect x="768" y="0" width="2689" height="2688"/>
  </clipPath>
</defs>
<path clip-path="url(#clip070)" d="M202.504 2561.84 L3792.76 2561.84 L3792.76 47.2441 L202.504 47.2441  Z" fill="#ffffff" fill-rule="evenodd" fill-opacity="1"/>
<defs>
  <clipPath id="clip072">
    <rect x="202" y="47" width="3591" height="2516"/>
  </clipPath>
</defs>
<polyline clip-path="url(#clip072)" style="stroke:#000000; stroke-linecap:round; stroke-linejoin:round; stroke-width:2; stroke-opacity:0.1; fill:none" points="269.903,2561.84 269.903,47.2441 "/>
<polyline clip-path="url(#clip072)" style="stroke:#000000; stroke-linecap:round; stroke-linejoin:round; stroke-width:2; stroke-opacity:0.1; fill:none" points="1125.21,2561.84 1125.21,47.2441 "/>
<polyline clip-path="url(#clip072)" style="stroke:#000000; stroke-linecap:round; stroke-linejoin:round; stroke-width:2; stroke-opacity:0.1; fill:none" points="1980.52,2561.84 1980.52,47.2441 "/>
<polyline clip-path="url(#clip072)" style="stroke:#000000; stroke-linecap:round; stroke-linejoin:round; stroke-width:2; stroke-opacity:0.1; fill:none" points="2835.83,2561.84 2835.83,47.2441 "/>
<polyline clip-path="url(#clip072)" style="stroke:#000000; stroke-linecap:round; stroke-linejoin:round; stroke-width:2; stroke-opacity:0.1; fill:none" points="3691.15,2561.84 3691.15,47.2441 "/>
<polyline clip-path="url(#clip072)" style="stroke:#000000; stroke-linecap:round; stroke-linejoin:round; stroke-width:2; stroke-opacity:0.1; fill:none" points="202.504,2364.85 3792.76,2364.85 "/>
<polyline clip-path="url(#clip072)" style="stroke:#000000; stroke-linecap:round; stroke-linejoin:round; stroke-width:2; stroke-opacity:0.1; fill:none" points="202.504,1304.54 3792.76,1304.54 "/>
<polyline clip-path="url(#clip072)" style="stroke:#000000; stroke-linecap:round; stroke-linejoin:round; stroke-width:2; stroke-opacity:0.1; fill:none" points="202.504,244.237 3792.76,244.237 "/>
<polyline clip-path="url(#clip070)" style="stroke:#000000; stroke-linecap:round; stroke-linejoin:round; stroke-width:4; stroke-opacity:1; fill:none" points="202.504,2561.84 3792.76,2561.84 "/>
<polyline clip-path="url(#clip070)" style="stroke:#000000; stroke-linecap:round; stroke-linejoin:round; stroke-width:4; stroke-opacity:1; fill:none" points="269.903,2561.84 269.903,2542.94 "/>
<polyline clip-path="url(#clip070)" style="stroke:#000000; stroke-linecap:round; stroke-linejoin:round; stroke-width:4; stroke-opacity:1; fill:none" points="1125.21,2561.84 1125.21,2542.94 "/>
<polyline clip-path="url(#clip070)" style="stroke:#000000; stroke-linecap:round; stroke-linejoin:round; stroke-width:4; stroke-opacity:1; fill:none" points="1980.52,2561.84 1980.52,2542.94 "/>
<polyline clip-path="url(#clip070)" style="stroke:#000000; stroke-linecap:round; stroke-linejoin:round; stroke-width:4; stroke-opacity:1; fill:none" points="2835.83,2561.84 2835.83,2542.94 "/>
<polyline clip-path="url(#clip070)" style="stroke:#000000; stroke-linecap:round; stroke-linejoin:round; stroke-width:4; stroke-opacity:1; fill:none" points="3691.15,2561.84 3691.15,2542.94 "/>
<path clip-path="url(#clip070)" d="M269.903 2604.28 Q266.292 2604.28 264.463 2607.84 Q262.657 2611.39 262.657 2618.51 Q262.657 2625.62 264.463 2629.19 Q266.292 2632.73 269.903 2632.73 Q273.537 2632.73 275.342 2629.19 Q277.171 2625.62 277.171 2618.51 Q277.171 2611.39 275.342 2607.84 Q273.537 2604.28 269.903 2604.28 M269.903 2600.57 Q275.713 2600.57 278.768 2605.18 Q281.847 2609.76 281.847 2618.51 Q281.847 2627.24 278.768 2631.85 Q275.713 2636.43 269.903 2636.43 Q264.092 2636.43 261.014 2631.85 Q257.958 2627.24 257.958 2618.51 Q257.958 2609.76 261.014 2605.18 Q264.092 2600.57 269.903 2600.57 Z" fill="#000000" fill-rule="nonzero" fill-opacity="1" /><path clip-path="url(#clip070)" d="M1104.48 2631.82 L1120.8 2631.82 L1120.8 2635.76 L1098.86 2635.76 L1098.86 2631.82 Q1101.52 2629.07 1106.1 2624.44 Q1110.71 2619.79 1111.89 2618.45 Q1114.14 2615.92 1115.02 2614.19 Q1115.92 2612.43 1115.92 2610.74 Q1115.92 2607.98 1113.97 2606.25 Q1112.05 2604.51 1108.95 2604.51 Q1106.75 2604.51 1104.3 2605.27 Q1101.87 2606.04 1099.09 2607.59 L1099.09 2602.87 Q1101.91 2601.73 1104.37 2601.15 Q1106.82 2600.57 1108.86 2600.57 Q1114.23 2600.57 1117.42 2603.26 Q1120.62 2605.95 1120.62 2610.44 Q1120.62 2612.57 1119.81 2614.49 Q1119.02 2616.38 1116.91 2618.98 Q1116.34 2619.65 1113.23 2622.87 Q1110.13 2626.06 1104.48 2631.82 Z" fill="#000000" fill-rule="nonzero" fill-opacity="1" /><path clip-path="url(#clip070)" d="M1130.66 2601.2 L1149.02 2601.2 L1149.02 2605.14 L1134.95 2605.14 L1134.95 2613.61 Q1135.97 2613.26 1136.98 2613.1 Q1138 2612.91 1139.02 2612.91 Q1144.81 2612.91 1148.19 2616.08 Q1151.57 2619.26 1151.57 2624.67 Q1151.57 2630.25 1148.1 2633.35 Q1144.62 2636.43 1138.3 2636.43 Q1136.13 2636.43 1133.86 2636.06 Q1131.61 2635.69 1129.21 2634.95 L1129.21 2630.25 Q1131.29 2631.38 1133.51 2631.94 Q1135.73 2632.5 1138.21 2632.5 Q1142.22 2632.5 1144.55 2630.39 Q1146.89 2628.28 1146.89 2624.67 Q1146.89 2621.06 1144.55 2618.95 Q1142.22 2616.85 1138.21 2616.85 Q1136.34 2616.85 1134.46 2617.26 Q1132.61 2617.68 1130.66 2618.56 L1130.66 2601.2 Z" fill="#000000" fill-rule="nonzero" fill-opacity="1" /><path clip-path="url(#clip070)" d="M1955.22 2601.2 L1973.58 2601.2 L1973.58 2605.14 L1959.51 2605.14 L1959.51 2613.61 Q1960.52 2613.26 1961.54 2613.1 Q1962.56 2612.91 1963.58 2612.91 Q1969.37 2612.91 1972.75 2616.08 Q1976.13 2619.26 1976.13 2624.67 Q1976.13 2630.25 1972.65 2633.35 Q1969.18 2636.43 1962.86 2636.43 Q1960.69 2636.43 1958.42 2636.06 Q1956.17 2635.69 1953.76 2634.95 L1953.76 2630.25 Q1955.85 2631.38 1958.07 2631.94 Q1960.29 2632.5 1962.77 2632.5 Q1966.77 2632.5 1969.11 2630.39 Q1971.45 2628.28 1971.45 2624.67 Q1971.45 2621.06 1969.11 2618.95 Q1966.77 2616.85 1962.77 2616.85 Q1960.89 2616.85 1959.02 2617.26 Q1957.17 2617.68 1955.22 2618.56 L1955.22 2601.2 Z" fill="#000000" fill-rule="nonzero" fill-opacity="1" /><path clip-path="url(#clip070)" d="M1995.34 2604.28 Q1991.73 2604.28 1989.9 2607.84 Q1988.09 2611.39 1988.09 2618.51 Q1988.09 2625.62 1989.9 2629.19 Q1991.73 2632.73 1995.34 2632.73 Q1998.97 2632.73 2000.78 2629.19 Q2002.61 2625.62 2002.61 2618.51 Q2002.61 2611.39 2000.78 2607.84 Q1998.97 2604.28 1995.34 2604.28 M1995.34 2600.57 Q2001.15 2600.57 2004.2 2605.18 Q2007.28 2609.76 2007.28 2618.51 Q2007.28 2627.24 2004.2 2631.85 Q2001.15 2636.43 1995.34 2636.43 Q1989.53 2636.43 1986.45 2631.85 Q1983.39 2627.24 1983.39 2618.51 Q1983.39 2609.76 1986.45 2605.18 Q1989.53 2600.57 1995.34 2600.57 Z" fill="#000000" fill-rule="nonzero" fill-opacity="1" /><path clip-path="url(#clip070)" d="M2809.69 2601.2 L2831.91 2601.2 L2831.91 2603.19 L2819.36 2635.76 L2814.48 2635.76 L2826.29 2605.14 L2809.69 2605.14 L2809.69 2601.2 Z" fill="#000000" fill-rule="nonzero" fill-opacity="1" /><path clip-path="url(#clip070)" d="M2841.08 2601.2 L2859.43 2601.2 L2859.43 2605.14 L2845.36 2605.14 L2845.36 2613.61 Q2846.38 2613.26 2847.4 2613.1 Q2848.42 2612.91 2849.43 2612.91 Q2855.22 2612.91 2858.6 2616.08 Q2861.98 2619.26 2861.98 2624.67 Q2861.98 2630.25 2858.51 2633.35 Q2855.04 2636.43 2848.72 2636.43 Q2846.54 2636.43 2844.27 2636.06 Q2842.03 2635.69 2839.62 2634.95 L2839.62 2630.25 Q2841.7 2631.38 2843.92 2631.94 Q2846.15 2632.5 2848.62 2632.5 Q2852.63 2632.5 2854.97 2630.39 Q2857.3 2628.28 2857.3 2624.67 Q2857.3 2621.06 2854.97 2618.95 Q2852.63 2616.85 2848.62 2616.85 Q2846.75 2616.85 2844.87 2617.26 Q2843.02 2617.68 2841.08 2618.56 L2841.08 2601.2 Z" fill="#000000" fill-rule="nonzero" fill-opacity="1" /><path clip-path="url(#clip070)" d="M3650.75 2631.82 L3658.39 2631.82 L3658.39 2605.46 L3650.08 2607.13 L3650.08 2602.87 L3658.34 2601.2 L3663.02 2601.2 L3663.02 2631.82 L3670.66 2631.82 L3670.66 2635.76 L3650.75 2635.76 L3650.75 2631.82 Z" fill="#000000" fill-rule="nonzero" fill-opacity="1" /><path clip-path="url(#clip070)" d="M3690.1 2604.28 Q3686.49 2604.28 3684.66 2607.84 Q3682.86 2611.39 3682.86 2618.51 Q3682.86 2625.62 3684.66 2629.19 Q3686.49 2632.73 3690.1 2632.73 Q3693.74 2632.73 3695.54 2629.19 Q3697.37 2625.62 3697.37 2618.51 Q3697.37 2611.39 3695.54 2607.84 Q3693.74 2604.28 3690.1 2604.28 M3690.1 2600.57 Q3695.91 2600.57 3698.97 2605.18 Q3702.05 2609.76 3702.05 2618.51 Q3702.05 2627.24 3698.97 2631.85 Q3695.91 2636.43 3690.1 2636.43 Q3684.29 2636.43 3681.21 2631.85 Q3678.16 2627.24 3678.16 2618.51 Q3678.16 2609.76 3681.21 2605.18 Q3684.29 2600.57 3690.1 2600.57 Z" fill="#000000" fill-rule="nonzero" fill-opacity="1" /><path clip-path="url(#clip070)" d="M3720.27 2604.28 Q3716.65 2604.28 3714.83 2607.84 Q3713.02 2611.39 3713.02 2618.51 Q3713.02 2625.62 3714.83 2629.19 Q3716.65 2632.73 3720.27 2632.73 Q3723.9 2632.73 3725.71 2629.19 Q3727.53 2625.62 3727.53 2618.51 Q3727.53 2611.39 3725.71 2607.84 Q3723.9 2604.28 3720.27 2604.28 M3720.27 2600.57 Q3726.08 2600.57 3729.13 2605.18 Q3732.21 2609.76 3732.21 2618.51 Q3732.21 2627.24 3729.13 2631.85 Q3726.08 2636.43 3720.27 2636.43 Q3714.46 2636.43 3711.38 2631.85 Q3708.32 2627.24 3708.32 2618.51 Q3708.32 2609.76 3711.38 2605.18 Q3714.46 2600.57 3720.27 2600.57 Z" fill="#000000" fill-rule="nonzero" fill-opacity="1" /><polyline clip-path="url(#clip070)" style="stroke:#000000; stroke-linecap:round; stroke-linejoin:round; stroke-width:4; stroke-opacity:1; fill:none" points="202.504,2561.84 202.504,47.2441 "/>
<polyline clip-path="url(#clip070)" style="stroke:#000000; stroke-linecap:round; stroke-linejoin:round; stroke-width:4; stroke-opacity:1; fill:none" points="202.504,2364.85 221.402,2364.85 "/>
<polyline clip-path="url(#clip070)" style="stroke:#000000; stroke-linecap:round; stroke-linejoin:round; stroke-width:4; stroke-opacity:1; fill:none" points="202.504,1304.54 221.402,1304.54 "/>
<polyline clip-path="url(#clip070)" style="stroke:#000000; stroke-linecap:round; stroke-linejoin:round; stroke-width:4; stroke-opacity:1; fill:none" points="202.504,244.237 221.402,244.237 "/>
<path clip-path="url(#clip070)" d="M44.4634 2384.64 L52.1023 2384.64 L52.1023 2358.27 L43.7921 2359.94 L43.7921 2355.68 L52.056 2354.01 L56.7319 2354.01 L56.7319 2384.64 L64.3707 2384.64 L64.3707 2388.57 L44.4634 2388.57 L44.4634 2384.64 Z" fill="#000000" fill-rule="nonzero" fill-opacity="1" /><path clip-path="url(#clip070)" d="M83.8151 2357.09 Q80.204 2357.09 78.3753 2360.66 Q76.5697 2364.2 76.5697 2371.33 Q76.5697 2378.44 78.3753 2382 Q80.204 2385.54 83.8151 2385.54 Q87.4493 2385.54 89.2548 2382 Q91.0835 2378.44 91.0835 2371.33 Q91.0835 2364.2 89.2548 2360.66 Q87.4493 2357.09 83.8151 2357.09 M83.8151 2353.39 Q89.6252 2353.39 92.6808 2358 Q95.7594 2362.58 95.7594 2371.33 Q95.7594 2380.06 92.6808 2384.66 Q89.6252 2389.25 83.8151 2389.25 Q78.0049 2389.25 74.9262 2384.66 Q71.8707 2380.06 71.8707 2371.33 Q71.8707 2362.58 74.9262 2358 Q78.0049 2353.39 83.8151 2353.39 Z" fill="#000000" fill-rule="nonzero" fill-opacity="1" /><path clip-path="url(#clip070)" d="M95.7594 2347.49 L119.871 2347.49 L119.871 2350.69 L95.7594 2350.69 L95.7594 2347.49 Z" fill="#000000" fill-rule="nonzero" fill-opacity="1" /><path clip-path="url(#clip070)" d="M128.729 2357.97 L134.936 2357.97 L134.936 2336.55 L128.184 2337.9 L128.184 2334.44 L134.898 2333.08 L138.698 2333.08 L138.698 2357.97 L144.904 2357.97 L144.904 2361.16 L128.729 2361.16 L128.729 2357.97 Z" fill="#000000" fill-rule="nonzero" fill-opacity="1" /><path clip-path="url(#clip070)" d="M74.1985 1324.33 L81.8374 1324.33 L81.8374 1297.97 L73.5272 1299.64 L73.5272 1295.38 L81.7911 1293.71 L86.467 1293.71 L86.467 1324.33 L94.1058 1324.33 L94.1058 1328.27 L74.1985 1328.27 L74.1985 1324.33 Z" fill="#000000" fill-rule="nonzero" fill-opacity="1" /><path clip-path="url(#clip070)" d="M113.55 1296.79 Q109.939 1296.79 108.11 1300.35 Q106.305 1303.89 106.305 1311.02 Q106.305 1318.13 108.11 1321.7 Q109.939 1325.24 113.55 1325.24 Q117.184 1325.24 118.99 1321.7 Q120.819 1318.13 120.819 1311.02 Q120.819 1303.89 118.99 1300.35 Q117.184 1296.79 113.55 1296.79 M113.55 1293.08 Q119.36 1293.08 122.416 1297.69 Q125.495 1302.27 125.495 1311.02 Q125.495 1319.75 122.416 1324.36 Q119.36 1328.94 113.55 1328.94 Q107.74 1328.94 104.661 1324.36 Q101.606 1319.75 101.606 1311.02 Q101.606 1302.27 104.661 1297.69 Q107.74 1293.08 113.55 1293.08 Z" fill="#000000" fill-rule="nonzero" fill-opacity="1" /><path clip-path="url(#clip070)" d="M135.199 1275.28 Q132.265 1275.28 130.78 1278.18 Q129.313 1281.05 129.313 1286.85 Q129.313 1292.62 130.78 1295.52 Q132.265 1298.4 135.199 1298.4 Q138.152 1298.4 139.619 1295.52 Q141.105 1292.62 141.105 1286.85 Q141.105 1281.05 139.619 1278.18 Q138.152 1275.28 135.199 1275.28 M135.199 1272.27 Q139.92 1272.27 142.403 1276.01 Q144.904 1279.74 144.904 1286.85 Q144.904 1293.94 142.403 1297.68 Q139.92 1301.4 135.199 1301.4 Q130.479 1301.4 127.977 1297.68 Q125.495 1293.94 125.495 1286.85 Q125.495 1279.74 127.977 1276.01 Q130.479 1272.27 135.199 1272.27 Z" fill="#000000" fill-rule="nonzero" fill-opacity="1" /><path clip-path="url(#clip070)" d="M76.888 264.029 L84.5269 264.029 L84.5269 237.664 L76.2167 239.33 L76.2167 235.071 L84.4806 233.404 L89.1565 233.404 L89.1565 264.029 L96.7953 264.029 L96.7953 267.964 L76.888 267.964 L76.888 264.029 Z" fill="#000000" fill-rule="nonzero" fill-opacity="1" /><path clip-path="url(#clip070)" d="M116.24 236.483 Q112.629 236.483 110.8 240.048 Q108.994 243.589 108.994 250.719 Q108.994 257.825 110.8 261.39 Q112.629 264.932 116.24 264.932 Q119.874 264.932 121.679 261.39 Q123.508 257.825 123.508 250.719 Q123.508 243.589 121.679 240.048 Q119.874 236.483 116.24 236.483 M116.24 232.779 Q122.05 232.779 125.105 237.386 Q128.184 241.969 128.184 250.719 Q128.184 259.446 125.105 264.052 Q122.05 268.636 116.24 268.636 Q110.43 268.636 107.351 264.052 Q104.295 259.446 104.295 250.719 Q104.295 241.969 107.351 237.386 Q110.43 232.779 116.24 232.779 Z" fill="#000000" fill-rule="nonzero" fill-opacity="1" /><path clip-path="url(#clip070)" d="M128.729 237.357 L134.936 237.357 L134.936 215.935 L128.184 217.289 L128.184 213.828 L134.898 212.474 L138.698 212.474 L138.698 237.357 L144.904 237.357 L144.904 240.554 L128.729 240.554 L128.729 237.357 Z" fill="#000000" fill-rule="nonzero" fill-opacity="1" /><polyline clip-path="url(#clip072)" style="stroke:#009af9; stroke-linecap:round; stroke-linejoin:round; stroke-width:4; stroke-opacity:1; fill:none" points="304.115,2490.67 338.327,2303.84 372.54,2207.08 406.752,2138.9 440.965,2085.25 475.177,2040.49 509.39,2001.76 543.602,1967.42 577.814,1936.42 612.027,1908.04 646.239,1881.79 680.452,1857.29 714.664,1834.26 748.877,1812.49 783.089,1791.79 817.301,1772.04 851.514,1753.11 885.726,1734.91 919.939,1717.35 954.151,1700.38 988.364,1683.93 1022.58,1667.95 1056.79,1652.4 1091,1637.23 1125.21,1622.42 1159.43,1607.93 1193.64,1593.73 1227.85,1579.8 1262.06,1566.12 1296.28,1552.67 1330.49,1539.42 1364.7,1526.37 1398.91,1513.49 1433.13,1500.78 1467.34,1488.21 1501.55,1475.78 1535.76,1463.47 1569.97,1451.27 1604.19,1439.18 1638.4,1427.17 1672.61,1415.25 1706.82,1403.41 1741.04,1391.63 1775.25,1379.9 1809.46,1368.23 1843.67,1356.59 1877.89,1344.99 1912.1,1333.42 1946.31,1321.86 1980.52,1310.31 2014.74,1298.77 2048.95,1287.22 2083.16,1275.67 2117.37,1264.09 2151.59,1252.49 2185.8,1240.86 2220.01,1229.18 2254.22,1217.46 2288.44,1205.68 2322.65,1193.83 2356.86,1181.91 2391.07,1169.91 2425.29,1157.81 2459.5,1145.62 2493.71,1133.31 2527.92,1120.88 2562.14,1108.31 2596.35,1095.59 2630.56,1082.71 2664.77,1069.66 2698.98,1056.42 2733.2,1042.96 2767.41,1029.28 2801.62,1015.35 2835.83,1001.16 2870.05,986.665 2904.26,971.851 2938.47,956.685 2972.68,941.131 3006.9,925.152 3041.11,908.701 3075.32,891.73 3109.53,874.178 3143.75,855.977 3177.96,837.048 3212.17,817.293 3246.38,796.599 3280.6,774.824 3314.81,751.795 3349.02,727.294 3383.23,701.04 3417.45,672.663 3451.66,641.66 3485.87,607.321 3520.08,568.598 3554.3,523.837 3588.51,470.185 3622.72,402.008 3656.93,305.248 3691.15,118.412 "/>
<path clip-path="url(#clip070)" d="M322.179 234.744 L733.635 234.744 L733.635 131.064 L322.179 131.064  Z" fill="#ffffff" fill-rule="evenodd" fill-opacity="1"/>
<polyline clip-path="url(#clip070)" style="stroke:#000000; stroke-linecap:round; stroke-linejoin:round; stroke-width:4; stroke-opacity:1; fill:none" points="322.179,234.744 733.635,234.744 733.635,131.064 322.179,131.064 322.179,234.744 "/>
<polyline clip-path="url(#clip070)" style="stroke:#009af9; stroke-linecap:round; stroke-linejoin:round; stroke-width:4; stroke-opacity:1; fill:none" points="362.071,182.904 601.421,182.904 "/>
<path clip-path="url(#clip070)" d="M655.155 202.591 Q653.35 207.221 651.637 208.633 Q649.924 210.045 647.053 210.045 L643.651 210.045 L643.651 206.48 L646.151 206.48 Q647.91 206.48 648.882 205.647 Q649.854 204.814 651.035 201.712 L651.799 199.767 L641.313 174.258 L645.827 174.258 L653.928 194.536 L662.03 174.258 L666.544 174.258 L655.155 202.591 Z" fill="#000000" fill-rule="nonzero" fill-opacity="1" /><path clip-path="url(#clip070)" d="M673.836 196.249 L681.475 196.249 L681.475 169.883 L673.164 171.55 L673.164 167.291 L681.428 165.624 L686.104 165.624 L686.104 196.249 L693.743 196.249 L693.743 200.184 L673.836 200.184 L673.836 196.249 Z" fill="#000000" fill-rule="nonzero" fill-opacity="1" /></svg>
