<?xml version="1.0" encoding="utf-8"?>
<svg xmlns="http://www.w3.org/2000/svg" xmlns:xlink="http://www.w3.org/1999/xlink" width="960" height="672" viewBox="0 0 3840 2688">
<defs>
  <clipPath id="clip350">
    <rect x="0" y="0" width="3840" height="2688"/>
  </clipPath>
</defs>
<path clip-path="url(#clip350)" d="M0 2688 L3840 2688 L3840 -1.47793e-13 L0 -1.47793e-13  Z" fill="#ffffff" fill-rule="evenodd" fill-opacity="1"/>
<defs>
  <clipPath id="clip351">
    <rect x="768" y="0" width="2689" height="2688"/>
  </clipPath>
</defs>
<path clip-path="url(#clip350)" d="M170.998 2561.84 L3792.76 2561.84 L3792.76 47.2441 L170.998 47.2441  Z" fill="#ffffff" fill-rule="evenodd" fill-opacity="1"/>
<defs>
  <clipPath id="clip352">
    <rect x="170" y="47" width="3623" height="2516"/>
  </clipPath>
</defs>
<polyline clip-path="url(#clip352)" style="stroke:#000000; stroke-linecap:round; stroke-linejoin:round; stroke-width:2; stroke-opacity:0.1; fill:none" points="653.14,2561.84 653.14,47.2441 "/>
<polyline clip-path="url(#clip352)" style="stroke:#000000; stroke-linecap:round; stroke-linejoin:round; stroke-width:2; stroke-opacity:0.1; fill:none" points="1412.42,2561.84 1412.42,47.2441 "/>
<polyline clip-path="url(#clip352)" style="stroke:#000000; stroke-linecap:round; stroke-linejoin:round; stroke-width:2; stroke-opacity:0.1; fill:none" points="2171.7,2561.84 2171.7,47.2441 "/>
<polyline clip-path="url(#clip352)" style="stroke:#000000; stroke-linecap:round; stroke-linejoin:round; stroke-width:2; stroke-opacity:0.1; fill:none" points="2930.97,2561.84 2930.97,47.2441 "/>
<polyline clip-path="url(#clip352)" style="stroke:#000000; stroke-linecap:round; stroke-linejoin:round; stroke-width:2; stroke-opacity:0.1; fill:none" points="3690.25,2561.84 3690.25,47.2441 "/>
<polyline clip-path="url(#clip352)" style="stroke:#000000; stroke-linecap:round; stroke-linejoin:round; stroke-width:2; stroke-opacity:0.1; fill:none" points="170.998,2310.83 3792.76,2310.83 "/>
<polyline clip-path="url(#clip352)" style="stroke:#000000; stroke-linecap:round; stroke-linejoin:round; stroke-width:2; stroke-opacity:0.1; fill:none" points="170.998,1920.26 3792.76,1920.26 "/>
<polyline clip-path="url(#clip352)" style="stroke:#000000; stroke-linecap:round; stroke-linejoin:round; stroke-width:2; stroke-opacity:0.1; fill:none" points="170.998,1529.7 3792.76,1529.7 "/>
<polyline clip-path="url(#clip352)" style="stroke:#000000; stroke-linecap:round; stroke-linejoin:round; stroke-width:2; stroke-opacity:0.1; fill:none" points="170.998,1139.13 3792.76,1139.13 "/>
<polyline clip-path="url(#clip352)" style="stroke:#000000; stroke-linecap:round; stroke-linejoin:round; stroke-width:2; stroke-opacity:0.1; fill:none" points="170.998,748.566 3792.76,748.566 "/>
<polyline clip-path="url(#clip352)" style="stroke:#000000; stroke-linecap:round; stroke-linejoin:round; stroke-width:2; stroke-opacity:0.1; fill:none" points="170.998,358.001 3792.76,358.001 "/>
<polyline clip-path="url(#clip350)" style="stroke:#000000; stroke-linecap:round; stroke-linejoin:round; stroke-width:4; stroke-opacity:1; fill:none" points="170.998,2561.84 3792.76,2561.84 "/>
<polyline clip-path="url(#clip350)" style="stroke:#000000; stroke-linecap:round; stroke-linejoin:round; stroke-width:4; stroke-opacity:1; fill:none" points="653.14,2561.84 653.14,2542.94 "/>
<polyline clip-path="url(#clip350)" style="stroke:#000000; stroke-linecap:round; stroke-linejoin:round; stroke-width:4; stroke-opacity:1; fill:none" points="1412.42,2561.84 1412.42,2542.94 "/>
<polyline clip-path="url(#clip350)" style="stroke:#000000; stroke-linecap:round; stroke-linejoin:round; stroke-width:4; stroke-opacity:1; fill:none" points="2171.7,2561.84 2171.7,2542.94 "/>
<polyline clip-path="url(#clip350)" style="stroke:#000000; stroke-linecap:round; stroke-linejoin:round; stroke-width:4; stroke-opacity:1; fill:none" points="2930.97,2561.84 2930.97,2542.94 "/>
<polyline clip-path="url(#clip350)" style="stroke:#000000; stroke-linecap:round; stroke-linejoin:round; stroke-width:4; stroke-opacity:1; fill:none" points="3690.25,2561.84 3690.25,2542.94 "/>
<path clip-path="url(#clip350)" d="M647.793 2631.82 L664.112 2631.82 L664.112 2635.76 L642.168 2635.76 L642.168 2631.82 Q644.83 2629.07 649.413 2624.44 Q654.02 2619.79 655.2 2618.45 Q657.446 2615.92 658.325 2614.19 Q659.228 2612.43 659.228 2610.74 Q659.228 2607.98 657.283 2606.25 Q655.362 2604.51 652.26 2604.51 Q650.061 2604.51 647.608 2605.27 Q645.177 2606.04 642.399 2607.59 L642.399 2602.87 Q645.223 2601.73 647.677 2601.15 Q650.131 2600.57 652.168 2600.57 Q657.538 2600.57 660.733 2603.26 Q663.927 2605.95 663.927 2610.44 Q663.927 2612.57 663.117 2614.49 Q662.33 2616.38 660.223 2618.98 Q659.645 2619.65 656.543 2622.87 Q653.441 2626.06 647.793 2631.82 Z" fill="#000000" fill-rule="nonzero" fill-opacity="1" /><path clip-path="url(#clip350)" d="M1415.43 2605.27 L1403.62 2623.72 L1415.43 2623.72 L1415.43 2605.27 M1414.2 2601.2 L1420.08 2601.2 L1420.08 2623.72 L1425.01 2623.72 L1425.01 2627.61 L1420.08 2627.61 L1420.08 2635.76 L1415.43 2635.76 L1415.43 2627.61 L1399.83 2627.61 L1399.83 2623.1 L1414.2 2601.2 Z" fill="#000000" fill-rule="nonzero" fill-opacity="1" /><path clip-path="url(#clip350)" d="M2172.1 2616.62 Q2168.95 2616.62 2167.1 2618.77 Q2165.27 2620.92 2165.27 2624.67 Q2165.27 2628.4 2167.1 2630.57 Q2168.95 2632.73 2172.1 2632.73 Q2175.25 2632.73 2177.08 2630.57 Q2178.93 2628.4 2178.93 2624.67 Q2178.93 2620.92 2177.08 2618.77 Q2175.25 2616.62 2172.1 2616.62 M2181.38 2601.96 L2181.38 2606.22 Q2179.62 2605.39 2177.82 2604.95 Q2176.04 2604.51 2174.28 2604.51 Q2169.65 2604.51 2167.19 2607.64 Q2164.76 2610.76 2164.42 2617.08 Q2165.78 2615.07 2167.84 2614 Q2169.9 2612.91 2172.38 2612.91 Q2177.59 2612.91 2180.6 2616.08 Q2183.63 2619.23 2183.63 2624.67 Q2183.63 2630 2180.48 2633.21 Q2177.33 2636.43 2172.1 2636.43 Q2166.11 2636.43 2162.94 2631.85 Q2159.76 2627.24 2159.76 2618.51 Q2159.76 2610.32 2163.65 2605.46 Q2167.54 2600.57 2174.09 2600.57 Q2175.85 2600.57 2177.63 2600.92 Q2179.44 2601.27 2181.38 2601.96 Z" fill="#000000" fill-rule="nonzero" fill-opacity="1" /><path clip-path="url(#clip350)" d="M2930.97 2619.35 Q2927.64 2619.35 2925.72 2621.13 Q2923.82 2622.91 2923.82 2626.04 Q2923.82 2629.16 2925.72 2630.95 Q2927.64 2632.73 2930.97 2632.73 Q2934.31 2632.73 2936.23 2630.95 Q2938.15 2629.14 2938.15 2626.04 Q2938.15 2622.91 2936.23 2621.13 Q2934.33 2619.35 2930.97 2619.35 M2926.3 2617.36 Q2923.29 2616.62 2921.6 2614.56 Q2919.93 2612.5 2919.93 2609.53 Q2919.93 2605.39 2922.87 2602.98 Q2925.84 2600.57 2930.97 2600.57 Q2936.14 2600.57 2939.08 2602.98 Q2942.02 2605.39 2942.02 2609.53 Q2942.02 2612.5 2940.33 2614.56 Q2938.66 2616.62 2935.67 2617.36 Q2939.05 2618.14 2940.93 2620.44 Q2942.83 2622.73 2942.83 2626.04 Q2942.83 2631.06 2939.75 2633.75 Q2936.69 2636.43 2930.97 2636.43 Q2925.26 2636.43 2922.18 2633.75 Q2919.12 2631.06 2919.12 2626.04 Q2919.12 2622.73 2921.02 2620.44 Q2922.92 2618.14 2926.3 2617.36 M2924.59 2609.97 Q2924.59 2612.66 2926.25 2614.16 Q2927.94 2615.67 2930.97 2615.67 Q2933.98 2615.67 2935.67 2614.16 Q2937.39 2612.66 2937.39 2609.97 Q2937.39 2607.29 2935.67 2605.78 Q2933.98 2604.28 2930.97 2604.28 Q2927.94 2604.28 2926.25 2605.78 Q2924.59 2607.29 2924.59 2609.97 Z" fill="#000000" fill-rule="nonzero" fill-opacity="1" /><path clip-path="url(#clip350)" d="M3664.94 2631.82 L3672.58 2631.82 L3672.58 2605.46 L3664.27 2607.13 L3664.27 2602.87 L3672.53 2601.2 L3677.21 2601.2 L3677.21 2631.82 L3684.85 2631.82 L3684.85 2635.76 L3664.94 2635.76 L3664.94 2631.82 Z" fill="#000000" fill-rule="nonzero" fill-opacity="1" /><path clip-path="url(#clip350)" d="M3704.29 2604.28 Q3700.68 2604.28 3698.85 2607.84 Q3697.05 2611.39 3697.05 2618.51 Q3697.05 2625.62 3698.85 2629.19 Q3700.68 2632.73 3704.29 2632.73 Q3707.93 2632.73 3709.73 2629.19 Q3711.56 2625.62 3711.56 2618.51 Q3711.56 2611.39 3709.73 2607.84 Q3707.93 2604.28 3704.29 2604.28 M3704.29 2600.57 Q3710.1 2600.57 3713.16 2605.18 Q3716.24 2609.76 3716.24 2618.51 Q3716.24 2627.24 3713.16 2631.85 Q3710.1 2636.43 3704.29 2636.43 Q3698.48 2636.43 3695.4 2631.85 Q3692.35 2627.24 3692.35 2618.51 Q3692.35 2609.76 3695.4 2605.18 Q3698.48 2600.57 3704.29 2600.57 Z" fill="#000000" fill-rule="nonzero" fill-opacity="1" /><polyline clip-path="url(#clip350)" style="stroke:#000000; stroke-linecap:round; stroke-linejoin:round; stroke-width:4; stroke-opacity:1; fill:none" points="170.998,2561.84 170.998,47.2441 "/>
<polyline clip-path="url(#clip350)" style="stroke:#000000; stroke-linecap:round; stroke-linejoin:round; stroke-width:4; stroke-opacity:1; fill:none" points="170.998,2310.83 189.896,2310.83 "/>
<polyline clip-path="url(#clip350)" style="stroke:#000000; stroke-linecap:round; stroke-linejoin:round; stroke-width:4; stroke-opacity:1; fill:none" points="170.998,1920.26 189.896,1920.26 "/>
<polyline clip-path="url(#clip350)" style="stroke:#000000; stroke-linecap:round; stroke-linejoin:round; stroke-width:4; stroke-opacity:1; fill:none" points="170.998,1529.7 189.896,1529.7 "/>
<polyline clip-path="url(#clip350)" style="stroke:#000000; stroke-linecap:round; stroke-linejoin:round; stroke-width:4; stroke-opacity:1; fill:none" points="170.998,1139.13 189.896,1139.13 "/>
<polyline clip-path="url(#clip350)" style="stroke:#000000; stroke-linecap:round; stroke-linejoin:round; stroke-width:4; stroke-opacity:1; fill:none" points="170.998,748.566 189.896,748.566 "/>
<polyline clip-path="url(#clip350)" style="stroke:#000000; stroke-linecap:round; stroke-linejoin:round; stroke-width:4; stroke-opacity:1; fill:none" points="170.998,358.001 189.896,358.001 "/>
<path clip-path="url(#clip350)" d="M57.8198 2296.62 Q54.2087 2296.62 52.38 2300.19 Q50.5745 2303.73 50.5745 2310.86 Q50.5745 2317.97 52.38 2321.53 Q54.2087 2325.07 57.8198 2325.07 Q61.4541 2325.07 63.2596 2321.53 Q65.0883 2317.97 65.0883 2310.86 Q65.0883 2303.73 63.2596 2300.19 Q61.4541 2296.62 57.8198 2296.62 M57.8198 2292.92 Q63.63 2292.92 66.6855 2297.53 Q69.7642 2302.11 69.7642 2310.86 Q69.7642 2319.59 66.6855 2324.19 Q63.63 2328.78 57.8198 2328.78 Q52.0097 2328.78 48.931 2324.19 Q45.8754 2319.59 45.8754 2310.86 Q45.8754 2302.11 48.931 2297.53 Q52.0097 2292.92 57.8198 2292.92 Z" fill="#000000" fill-rule="nonzero" fill-opacity="1" /><path clip-path="url(#clip350)" d="M77.9818 2322.23 L82.866 2322.23 L82.866 2328.11 L77.9818 2328.11 L77.9818 2322.23 Z" fill="#000000" fill-rule="nonzero" fill-opacity="1" /><path clip-path="url(#clip350)" d="M97.0789 2324.17 L113.398 2324.17 L113.398 2328.11 L91.4539 2328.11 L91.4539 2324.17 Q94.1159 2321.42 98.6992 2316.79 Q103.306 2312.13 104.486 2310.79 Q106.732 2308.27 107.611 2306.53 Q108.514 2304.77 108.514 2303.08 Q108.514 2300.33 106.57 2298.59 Q104.648 2296.86 101.546 2296.86 Q99.3474 2296.86 96.8937 2297.62 Q94.4632 2298.38 91.6854 2299.93 L91.6854 2295.21 Q94.5094 2294.08 96.9631 2293.5 Q99.4168 2292.92 101.454 2292.92 Q106.824 2292.92 110.019 2295.61 Q113.213 2298.29 113.213 2302.78 Q113.213 2304.91 112.403 2306.83 Q111.616 2308.73 109.509 2311.32 Q108.931 2311.99 105.829 2315.21 Q102.727 2318.41 97.0789 2324.17 Z" fill="#000000" fill-rule="nonzero" fill-opacity="1" /><path clip-path="url(#clip350)" d="M56.8708 1906.06 Q53.2597 1906.06 51.431 1909.62 Q49.6254 1913.17 49.6254 1920.3 Q49.6254 1927.4 51.431 1930.97 Q53.2597 1934.51 56.8708 1934.51 Q60.505 1934.51 62.3105 1930.97 Q64.1392 1927.4 64.1392 1920.3 Q64.1392 1913.17 62.3105 1909.62 Q60.505 1906.06 56.8708 1906.06 M56.8708 1902.36 Q62.6809 1902.36 65.7365 1906.96 Q68.8151 1911.55 68.8151 1920.3 Q68.8151 1929.02 65.7365 1933.63 Q62.6809 1938.21 56.8708 1938.21 Q51.0606 1938.21 47.9819 1933.63 Q44.9264 1929.02 44.9264 1920.3 Q44.9264 1911.55 47.9819 1906.96 Q51.0606 1902.36 56.8708 1902.36 Z" fill="#000000" fill-rule="nonzero" fill-opacity="1" /><path clip-path="url(#clip350)" d="M77.0327 1931.66 L81.9169 1931.66 L81.9169 1937.54 L77.0327 1937.54 L77.0327 1931.66 Z" fill="#000000" fill-rule="nonzero" fill-opacity="1" /><path clip-path="url(#clip350)" d="M106.269 1918.91 Q109.625 1919.62 111.5 1921.89 Q113.398 1924.16 113.398 1927.49 Q113.398 1932.61 109.88 1935.41 Q106.361 1938.21 99.8798 1938.21 Q97.7039 1938.21 95.3891 1937.77 Q93.0974 1937.36 90.6437 1936.5 L90.6437 1931.98 Q92.5882 1933.12 94.903 1933.7 Q97.2178 1934.28 99.7409 1934.28 Q104.139 1934.28 106.431 1932.54 Q108.745 1930.8 108.745 1927.49 Q108.745 1924.44 106.593 1922.73 Q104.463 1920.99 100.644 1920.99 L96.6159 1920.99 L96.6159 1917.15 L100.829 1917.15 Q104.278 1917.15 106.107 1915.78 Q107.935 1914.39 107.935 1911.8 Q107.935 1909.14 106.037 1907.73 Q104.162 1906.29 100.644 1906.29 Q98.7224 1906.29 96.5233 1906.71 Q94.3243 1907.12 91.6854 1908 L91.6854 1903.84 Q94.3474 1903.1 96.6622 1902.73 Q99.0002 1902.36 101.06 1902.36 Q106.384 1902.36 109.486 1904.79 Q112.588 1907.19 112.588 1911.31 Q112.588 1914.18 110.945 1916.17 Q109.301 1918.14 106.269 1918.91 Z" fill="#000000" fill-rule="nonzero" fill-opacity="1" /><path clip-path="url(#clip350)" d="M55.7365 1515.49 Q52.1254 1515.49 50.2967 1519.06 Q48.4912 1522.6 48.4912 1529.73 Q48.4912 1536.84 50.2967 1540.4 Q52.1254 1543.94 55.7365 1543.94 Q59.3707 1543.94 61.1763 1540.4 Q63.005 1536.84 63.005 1529.73 Q63.005 1522.6 61.1763 1519.06 Q59.3707 1515.49 55.7365 1515.49 M55.7365 1511.79 Q61.5467 1511.79 64.6022 1516.4 Q67.6809 1520.98 67.6809 1529.73 Q67.6809 1538.46 64.6022 1543.06 Q61.5467 1547.65 55.7365 1547.65 Q49.9264 1547.65 46.8477 1543.06 Q43.7921 1538.46 43.7921 1529.73 Q43.7921 1520.98 46.8477 1516.4 Q49.9264 1511.79 55.7365 1511.79 Z" fill="#000000" fill-rule="nonzero" fill-opacity="1" /><path clip-path="url(#clip350)" d="M75.8984 1541.1 L80.7827 1541.1 L80.7827 1546.98 L75.8984 1546.98 L75.8984 1541.1 Z" fill="#000000" fill-rule="nonzero" fill-opacity="1" /><path clip-path="url(#clip350)" d="M103.815 1516.49 L92.0095 1534.94 L103.815 1534.94 L103.815 1516.49 M102.588 1512.42 L108.468 1512.42 L108.468 1534.94 L113.398 1534.94 L113.398 1538.83 L108.468 1538.83 L108.468 1546.98 L103.815 1546.98 L103.815 1538.83 L88.2132 1538.83 L88.2132 1534.31 L102.588 1512.42 Z" fill="#000000" fill-rule="nonzero" fill-opacity="1" /><path clip-path="url(#clip350)" d="M57.218 1124.93 Q53.6069 1124.93 51.7782 1128.49 Q49.9726 1132.04 49.9726 1139.17 Q49.9726 1146.27 51.7782 1149.84 Q53.6069 1153.38 57.218 1153.38 Q60.8522 1153.38 62.6578 1149.84 Q64.4865 1146.27 64.4865 1139.17 Q64.4865 1132.04 62.6578 1128.49 Q60.8522 1124.93 57.218 1124.93 M57.218 1121.23 Q63.0281 1121.23 66.0837 1125.83 Q69.1624 1130.42 69.1624 1139.17 Q69.1624 1147.89 66.0837 1152.5 Q63.0281 1157.08 57.218 1157.08 Q51.4078 1157.08 48.3291 1152.5 Q45.2736 1147.89 45.2736 1139.17 Q45.2736 1130.42 48.3291 1125.83 Q51.4078 1121.23 57.218 1121.23 Z" fill="#000000" fill-rule="nonzero" fill-opacity="1" /><path clip-path="url(#clip350)" d="M77.3799 1150.53 L82.2641 1150.53 L82.2641 1156.41 L77.3799 1156.41 L77.3799 1150.53 Z" fill="#000000" fill-rule="nonzero" fill-opacity="1" /><path clip-path="url(#clip350)" d="M92.4956 1121.85 L110.852 1121.85 L110.852 1125.79 L96.778 1125.79 L96.778 1134.26 Q97.7965 1133.91 98.815 1133.75 Q99.8335 1133.56 100.852 1133.56 Q106.639 1133.56 110.019 1136.73 Q113.398 1139.91 113.398 1145.32 Q113.398 1150.9 109.926 1154 Q106.454 1157.08 100.134 1157.08 Q97.9585 1157.08 95.69 1156.71 Q93.4446 1156.34 91.0372 1155.6 L91.0372 1150.9 Q93.1206 1152.04 95.3428 1152.59 Q97.565 1153.15 100.042 1153.15 Q104.046 1153.15 106.384 1151.04 Q108.722 1148.93 108.722 1145.32 Q108.722 1141.71 106.384 1139.61 Q104.046 1137.5 100.042 1137.5 Q98.1668 1137.5 96.2918 1137.92 Q94.44 1138.33 92.4956 1139.21 L92.4956 1121.85 Z" fill="#000000" fill-rule="nonzero" fill-opacity="1" /><path clip-path="url(#clip350)" d="M56.0606 734.365 Q52.4495 734.365 50.6208 737.929 Q48.8152 741.471 48.8152 748.601 Q48.8152 755.707 50.6208 759.272 Q52.4495 762.813 56.0606 762.813 Q59.6948 762.813 61.5004 759.272 Q63.3291 755.707 63.3291 748.601 Q63.3291 741.471 61.5004 737.929 Q59.6948 734.365 56.0606 734.365 M56.0606 730.661 Q61.8707 730.661 64.9263 735.267 Q68.005 739.851 68.005 748.601 Q68.005 757.327 64.9263 761.934 Q61.8707 766.517 56.0606 766.517 Q50.2504 766.517 47.1717 761.934 Q44.1162 757.327 44.1162 748.601 Q44.1162 739.851 47.1717 735.267 Q50.2504 730.661 56.0606 730.661 Z" fill="#000000" fill-rule="nonzero" fill-opacity="1" /><path clip-path="url(#clip350)" d="M76.2225 759.966 L81.1067 759.966 L81.1067 765.846 L76.2225 765.846 L76.2225 759.966 Z" fill="#000000" fill-rule="nonzero" fill-opacity="1" /><path clip-path="url(#clip350)" d="M101.871 746.702 Q98.7224 746.702 96.8705 748.855 Q95.0419 751.008 95.0419 754.758 Q95.0419 758.485 96.8705 760.661 Q98.7224 762.813 101.871 762.813 Q105.019 762.813 106.847 760.661 Q108.699 758.485 108.699 754.758 Q108.699 751.008 106.847 748.855 Q105.019 746.702 101.871 746.702 M111.153 732.05 L111.153 736.309 Q109.394 735.476 107.588 735.036 Q105.806 734.596 104.046 734.596 Q99.4168 734.596 96.9631 737.721 Q94.5326 740.846 94.1854 747.165 Q95.5511 745.151 97.6113 744.087 Q99.6715 742.999 102.148 742.999 Q107.357 742.999 110.366 746.17 Q113.398 749.318 113.398 754.758 Q113.398 760.082 110.25 763.3 Q107.102 766.517 101.871 766.517 Q95.8752 766.517 92.7039 761.934 Q89.5326 757.327 89.5326 748.601 Q89.5326 740.406 93.4215 735.545 Q97.3104 730.661 103.861 730.661 Q105.62 730.661 107.403 731.008 Q109.208 731.355 111.153 732.05 Z" fill="#000000" fill-rule="nonzero" fill-opacity="1" /><path clip-path="url(#clip350)" d="M57.1254 343.8 Q53.5143 343.8 51.6856 347.364 Q49.8801 350.906 49.8801 358.036 Q49.8801 365.142 51.6856 368.707 Q53.5143 372.249 57.1254 372.249 Q60.7596 372.249 62.5652 368.707 Q64.3939 365.142 64.3939 358.036 Q64.3939 350.906 62.5652 347.364 Q60.7596 343.8 57.1254 343.8 M57.1254 340.096 Q62.9355 340.096 65.9911 344.702 Q69.0698 349.286 69.0698 358.036 Q69.0698 366.762 65.9911 371.369 Q62.9355 375.952 57.1254 375.952 Q51.3152 375.952 48.2365 371.369 Q45.181 366.762 45.181 358.036 Q45.181 349.286 48.2365 344.702 Q51.3152 340.096 57.1254 340.096 Z" fill="#000000" fill-rule="nonzero" fill-opacity="1" /><path clip-path="url(#clip350)" d="M77.2873 369.401 L82.1715 369.401 L82.1715 375.281 L77.2873 375.281 L77.2873 369.401 Z" fill="#000000" fill-rule="nonzero" fill-opacity="1" /><path clip-path="url(#clip350)" d="M91.1761 340.721 L113.398 340.721 L113.398 342.712 L100.852 375.281 L95.9678 375.281 L107.773 344.656 L91.1761 344.656 L91.1761 340.721 Z" fill="#000000" fill-rule="nonzero" fill-opacity="1" /><path clip-path="url(#clip352)" d="M273.501 118.412 L653.14 650.032 L1032.78 124.838 L1412.42 2490.67 L1792.06 631.028 L2171.7 2381.17 L2551.34 1022.66 L2930.97 1279.72 L3310.61 2129.61 L3690.25 1429.6 L3690.25 1139.13 L3310.61 1139.13 L2930.97 1139.13 L2551.34 1139.13 L2171.7 1139.13 L1792.06 1139.13 L1412.42 1139.13 L1032.78 1139.13 L653.14 1139.13 L273.501 1139.13  Z" fill="#009af9" fill-rule="evenodd" fill-opacity="1"/>
<polyline clip-path="url(#clip352)" style="stroke:#009af9; stroke-linecap:round; stroke-linejoin:round; stroke-width:4; stroke-opacity:1; fill:none" points="273.501,118.412 653.14,650.032 1032.78,124.838 1412.42,2490.67 1792.06,631.028 2171.7,2381.17 2551.34,1022.66 2930.97,1279.72 3310.61,2129.61 3690.25,1429.6 "/>
<path clip-path="url(#clip350)" d="M1608.13 234.744 L2355.63 234.744 L2355.63 131.064 L1608.13 131.064  Z" fill="#ffffff" fill-rule="evenodd" fill-opacity="1"/>
<polyline clip-path="url(#clip350)" style="stroke:#000000; stroke-linecap:round; stroke-linejoin:round; stroke-width:4; stroke-opacity:1; fill:none" points="1608.13,234.744 2355.63,234.744 2355.63,131.064 1608.13,131.064 1608.13,234.744 "/>
<path clip-path="url(#clip350)" d="M1648.37 203.64 L1889.82 203.64 L1889.82 162.168 L1648.37 162.168 L1648.37 203.64  Z" fill="#009af9" fill-rule="evenodd" fill-opacity="1"/>
<polyline clip-path="url(#clip350)" style="stroke:#009af9; stroke-linecap:round; stroke-linejoin:round; stroke-width:4; stroke-opacity:1; fill:none" points="1648.37,162.168 1889.82,162.168 "/>
<path clip-path="url(#clip350)" d="M1943.46 187.152 Q1938.3 187.152 1936.31 188.332 Q1934.32 189.513 1934.32 192.36 Q1934.32 194.628 1935.8 195.971 Q1937.31 197.29 1939.88 197.29 Q1943.42 197.29 1945.55 194.79 Q1947.7 192.267 1947.7 188.101 L1947.7 187.152 L1943.46 187.152 M1951.96 185.392 L1951.96 200.184 L1947.7 200.184 L1947.7 196.249 Q1946.24 198.61 1944.07 199.744 Q1941.89 200.855 1938.74 200.855 Q1934.76 200.855 1932.4 198.633 Q1930.06 196.388 1930.06 192.638 Q1930.06 188.263 1932.98 186.041 Q1935.92 183.818 1941.73 183.818 L1947.7 183.818 L1947.7 183.402 Q1947.7 180.462 1945.76 178.865 Q1943.84 177.244 1940.34 177.244 Q1938.12 177.244 1936.01 177.777 Q1933.9 178.309 1931.96 179.374 L1931.96 175.439 Q1934.3 174.536 1936.5 174.096 Q1938.7 173.633 1940.78 173.633 Q1946.4 173.633 1949.18 176.55 Q1951.96 179.466 1951.96 185.392 Z" fill="#000000" fill-rule="nonzero" fill-opacity="1" /><path clip-path="url(#clip350)" d="M1979.34 187.244 Q1979.34 182.545 1977.4 179.883 Q1975.48 177.198 1972.1 177.198 Q1968.72 177.198 1966.77 179.883 Q1964.85 182.545 1964.85 187.244 Q1964.85 191.943 1966.77 194.628 Q1968.72 197.29 1972.1 197.29 Q1975.48 197.29 1977.4 194.628 Q1979.34 191.943 1979.34 187.244 M1964.85 178.193 Q1966.2 175.879 1968.23 174.767 Q1970.29 173.633 1973.14 173.633 Q1977.86 173.633 1980.8 177.383 Q1983.77 181.133 1983.77 187.244 Q1983.77 193.355 1980.8 197.105 Q1977.86 200.855 1973.14 200.855 Q1970.29 200.855 1968.23 199.744 Q1966.2 198.61 1964.85 196.295 L1964.85 200.184 L1960.57 200.184 L1960.57 164.166 L1964.85 164.166 L1964.85 178.193 Z" fill="#000000" fill-rule="nonzero" fill-opacity="1" /><path clip-path="url(#clip350)" d="M2000.87 177.244 Q1997.45 177.244 1995.46 179.929 Q1993.46 182.591 1993.46 187.244 Q1993.46 191.897 1995.43 194.582 Q1997.42 197.244 2000.87 197.244 Q2004.27 197.244 2006.27 194.559 Q2008.26 191.874 2008.26 187.244 Q2008.26 182.638 2006.27 179.953 Q2004.27 177.244 2000.87 177.244 M2000.87 173.633 Q2006.43 173.633 2009.6 177.244 Q2012.77 180.855 2012.77 187.244 Q2012.77 193.61 2009.6 197.244 Q2006.43 200.855 2000.87 200.855 Q1995.29 200.855 1992.12 197.244 Q1988.97 193.61 1988.97 187.244 Q1988.97 180.855 1992.12 177.244 Q1995.29 173.633 2000.87 173.633 Z" fill="#000000" fill-rule="nonzero" fill-opacity="1" /><path clip-path="url(#clip350)" d="M2016.77 174.258 L2021.29 174.258 L2029.39 196.017 L2037.49 174.258 L2042.01 174.258 L2032.28 200.184 L2026.5 200.184 L2016.77 174.258 Z" fill="#000000" fill-rule="nonzero" fill-opacity="1" /><path clip-path="url(#clip350)" d="M2070.06 186.156 L2070.06 188.24 L2050.48 188.24 Q2050.76 192.638 2053.12 194.953 Q2055.5 197.244 2059.74 197.244 Q2062.19 197.244 2064.48 196.642 Q2066.8 196.04 2069.07 194.837 L2069.07 198.865 Q2066.77 199.837 2064.37 200.346 Q2061.96 200.855 2059.48 200.855 Q2053.28 200.855 2049.64 197.244 Q2046.03 193.633 2046.03 187.476 Q2046.03 181.11 2049.46 177.383 Q2052.91 173.633 2058.74 173.633 Q2063.97 173.633 2067.01 177.013 Q2070.06 180.369 2070.06 186.156 M2065.8 184.906 Q2065.76 181.411 2063.83 179.328 Q2061.94 177.244 2058.79 177.244 Q2055.22 177.244 2053.07 179.258 Q2050.94 181.272 2050.62 184.929 L2065.8 184.906 Z" fill="#000000" fill-rule="nonzero" fill-opacity="1" /><path clip-path="url(#clip350)" d="M2084.62 165.624 L2088.56 165.624 L2076.52 204.582 L2072.58 204.582 L2084.62 165.624 Z" fill="#000000" fill-rule="nonzero" fill-opacity="1" /><path clip-path="url(#clip350)" d="M2111.64 187.244 Q2111.64 182.545 2109.69 179.883 Q2107.77 177.198 2104.39 177.198 Q2101.01 177.198 2099.07 179.883 Q2097.14 182.545 2097.14 187.244 Q2097.14 191.943 2099.07 194.628 Q2101.01 197.29 2104.39 197.29 Q2107.77 197.29 2109.69 194.628 Q2111.64 191.943 2111.64 187.244 M2097.14 178.193 Q2098.49 175.879 2100.52 174.767 Q2102.58 173.633 2105.43 173.633 Q2110.15 173.633 2113.09 177.383 Q2116.06 181.133 2116.06 187.244 Q2116.06 193.355 2113.09 197.105 Q2110.15 200.855 2105.43 200.855 Q2102.58 200.855 2100.52 199.744 Q2098.49 198.61 2097.14 196.295 L2097.14 200.184 L2092.86 200.184 L2092.86 164.166 L2097.14 164.166 L2097.14 178.193 Z" fill="#000000" fill-rule="nonzero" fill-opacity="1" /><path clip-path="url(#clip350)" d="M2145.29 186.156 L2145.29 188.24 L2125.71 188.24 Q2125.99 192.638 2128.35 194.953 Q2130.73 197.244 2134.97 197.244 Q2137.42 197.244 2139.71 196.642 Q2142.03 196.04 2144.3 194.837 L2144.3 198.865 Q2142.01 199.837 2139.6 200.346 Q2137.19 200.855 2134.71 200.855 Q2128.51 200.855 2124.88 197.244 Q2121.26 193.633 2121.26 187.476 Q2121.26 181.11 2124.69 177.383 Q2128.14 173.633 2133.97 173.633 Q2139.2 173.633 2142.24 177.013 Q2145.29 180.369 2145.29 186.156 M2141.03 184.906 Q2140.99 181.411 2139.07 179.328 Q2137.17 177.244 2134.02 177.244 Q2130.45 177.244 2128.3 179.258 Q2126.17 181.272 2125.85 184.929 L2141.03 184.906 Z" fill="#000000" fill-rule="nonzero" fill-opacity="1" /><path clip-path="url(#clip350)" d="M2152.28 164.166 L2156.54 164.166 L2156.54 200.184 L2152.28 200.184 L2152.28 164.166 Z" fill="#000000" fill-rule="nonzero" fill-opacity="1" /><path clip-path="url(#clip350)" d="M2175.5 177.244 Q2172.07 177.244 2170.08 179.929 Q2168.09 182.591 2168.09 187.244 Q2168.09 191.897 2170.06 194.582 Q2172.05 197.244 2175.5 197.244 Q2178.9 197.244 2180.89 194.559 Q2182.88 191.874 2182.88 187.244 Q2182.88 182.638 2180.89 179.953 Q2178.9 177.244 2175.5 177.244 M2175.5 173.633 Q2181.06 173.633 2184.23 177.244 Q2187.4 180.855 2187.4 187.244 Q2187.4 193.61 2184.23 197.244 Q2181.06 200.855 2175.5 200.855 Q2169.92 200.855 2166.75 197.244 Q2163.6 193.61 2163.6 187.244 Q2163.6 180.855 2166.75 177.244 Q2169.92 173.633 2175.5 173.633 Z" fill="#000000" fill-rule="nonzero" fill-opacity="1" /><path clip-path="url(#clip350)" d="M2191.98 174.258 L2196.24 174.258 L2201.57 194.49 L2206.87 174.258 L2211.89 174.258 L2217.21 194.49 L2222.51 174.258 L2226.77 174.258 L2219.99 200.184 L2214.97 200.184 L2209.39 178.934 L2203.79 200.184 L2198.76 200.184 L2191.98 174.258 Z" fill="#000000" fill-rule="nonzero" fill-opacity="1" /><path clip-path="url(#clip350)" d="M2249.71 196.249 L2257.35 196.249 L2257.35 169.883 L2249.04 171.55 L2249.04 167.291 L2257.31 165.624 L2261.98 165.624 L2261.98 196.249 L2269.62 196.249 L2269.62 200.184 L2249.71 200.184 L2249.71 196.249 Z" fill="#000000" fill-rule="nonzero" fill-opacity="1" /><path clip-path="url(#clip350)" d="M2286.03 165.624 L2289.97 165.624 L2277.93 204.582 L2274 204.582 L2286.03 165.624 Z" fill="#000000" fill-rule="nonzero" fill-opacity="1" /><path clip-path="url(#clip350)" d="M2299.06 196.249 L2315.38 196.249 L2315.38 200.184 L2293.44 200.184 L2293.44 196.249 Q2296.1 193.494 2300.69 188.865 Q2305.29 184.212 2306.47 182.869 Q2308.72 180.346 2309.6 178.61 Q2310.5 176.851 2310.5 175.161 Q2310.5 172.406 2308.56 170.67 Q2306.63 168.934 2303.53 168.934 Q2301.33 168.934 2298.88 169.698 Q2296.45 170.462 2293.67 172.013 L2293.67 167.291 Q2296.5 166.156 2298.95 165.578 Q2301.4 164.999 2303.44 164.999 Q2308.81 164.999 2312 167.684 Q2315.2 170.369 2315.2 174.86 Q2315.2 176.99 2314.39 178.911 Q2313.6 180.809 2311.5 183.402 Q2310.92 184.073 2307.81 187.291 Q2304.71 190.485 2299.06 196.249 Z" fill="#000000" fill-rule="nonzero" fill-opacity="1" /></svg>
