<?xml version="1.0" encoding="utf-8"?>
<svg xmlns="http://www.w3.org/2000/svg" xmlns:xlink="http://www.w3.org/1999/xlink" width="960" height="672" viewBox="0 0 3840 2688">
<defs>
  <clipPath id="clip650">
    <rect x="0" y="0" width="3840" height="2688"/>
  </clipPath>
</defs>
<path clip-path="url(#clip650)" d="M0 2688 L3840 2688 L3840 -1.47793e-13 L0 -1.47793e-13  Z" fill="#ffffff" fill-rule="evenodd" fill-opacity="1"/>
<defs>
  <clipPath id="clip651">
    <rect x="768" y="0" width="2689" height="2688"/>
  </clipPath>
</defs>
<path clip-path="url(#clip650)" d="M163.591 2561.84 L3792.76 2561.84 L3792.76 47.2441 L163.591 47.2441  Z" fill="#ffffff" fill-rule="evenodd" fill-opacity="1"/>
<defs>
  <clipPath id="clip652">
    <rect x="163" y="47" width="3630" height="2516"/>
  </clipPath>
</defs>
<polyline clip-path="url(#clip652)" style="stroke:#000000; stroke-linecap:round; stroke-linejoin:round; stroke-width:2; stroke-opacity:0.1; fill:none" points="554.798,2561.84 554.798,47.2441 "/>
<polyline clip-path="url(#clip652)" style="stroke:#000000; stroke-linecap:round; stroke-linejoin:round; stroke-width:2; stroke-opacity:0.1; fill:none" points="1029.25,2561.84 1029.25,47.2441 "/>
<polyline clip-path="url(#clip652)" style="stroke:#000000; stroke-linecap:round; stroke-linejoin:round; stroke-width:2; stroke-opacity:0.1; fill:none" points="1503.71,2561.84 1503.71,47.2441 "/>
<polyline clip-path="url(#clip652)" style="stroke:#000000; stroke-linecap:round; stroke-linejoin:round; stroke-width:2; stroke-opacity:0.1; fill:none" points="1978.16,2561.84 1978.16,47.2441 "/>
<polyline clip-path="url(#clip652)" style="stroke:#000000; stroke-linecap:round; stroke-linejoin:round; stroke-width:2; stroke-opacity:0.1; fill:none" points="2452.62,2561.84 2452.62,47.2441 "/>
<polyline clip-path="url(#clip652)" style="stroke:#000000; stroke-linecap:round; stroke-linejoin:round; stroke-width:2; stroke-opacity:0.1; fill:none" points="2927.07,2561.84 2927.07,47.2441 "/>
<polyline clip-path="url(#clip652)" style="stroke:#000000; stroke-linecap:round; stroke-linejoin:round; stroke-width:2; stroke-opacity:0.1; fill:none" points="3401.52,2561.84 3401.52,47.2441 "/>
<polyline clip-path="url(#clip652)" style="stroke:#000000; stroke-linecap:round; stroke-linejoin:round; stroke-width:2; stroke-opacity:0.1; fill:none" points="163.591,2253.45 3792.76,2253.45 "/>
<polyline clip-path="url(#clip652)" style="stroke:#000000; stroke-linecap:round; stroke-linejoin:round; stroke-width:2; stroke-opacity:0.1; fill:none" points="163.591,1779 3792.76,1779 "/>
<polyline clip-path="url(#clip652)" style="stroke:#000000; stroke-linecap:round; stroke-linejoin:round; stroke-width:2; stroke-opacity:0.1; fill:none" points="163.591,1304.54 3792.76,1304.54 "/>
<polyline clip-path="url(#clip652)" style="stroke:#000000; stroke-linecap:round; stroke-linejoin:round; stroke-width:2; stroke-opacity:0.1; fill:none" points="163.591,830.088 3792.76,830.088 "/>
<polyline clip-path="url(#clip652)" style="stroke:#000000; stroke-linecap:round; stroke-linejoin:round; stroke-width:2; stroke-opacity:0.1; fill:none" points="163.591,355.633 3792.76,355.633 "/>
<polyline clip-path="url(#clip650)" style="stroke:#000000; stroke-linecap:round; stroke-linejoin:round; stroke-width:4; stroke-opacity:1; fill:none" points="163.591,2561.84 3792.76,2561.84 "/>
<polyline clip-path="url(#clip650)" style="stroke:#000000; stroke-linecap:round; stroke-linejoin:round; stroke-width:4; stroke-opacity:1; fill:none" points="554.798,2561.84 554.798,2542.94 "/>
<polyline clip-path="url(#clip650)" style="stroke:#000000; stroke-linecap:round; stroke-linejoin:round; stroke-width:4; stroke-opacity:1; fill:none" points="1029.25,2561.84 1029.25,2542.94 "/>
<polyline clip-path="url(#clip650)" style="stroke:#000000; stroke-linecap:round; stroke-linejoin:round; stroke-width:4; stroke-opacity:1; fill:none" points="1503.71,2561.84 1503.71,2542.94 "/>
<polyline clip-path="url(#clip650)" style="stroke:#000000; stroke-linecap:round; stroke-linejoin:round; stroke-width:4; stroke-opacity:1; fill:none" points="1978.16,2561.84 1978.16,2542.94 "/>
<polyline clip-path="url(#clip650)" style="stroke:#000000; stroke-linecap:round; stroke-linejoin:round; stroke-width:4; stroke-opacity:1; fill:none" points="2452.62,2561.84 2452.62,2542.94 "/>
<polyline clip-path="url(#clip650)" style="stroke:#000000; stroke-linecap:round; stroke-linejoin:round; stroke-width:4; stroke-opacity:1; fill:none" points="2927.07,2561.84 2927.07,2542.94 "/>
<polyline clip-path="url(#clip650)" style="stroke:#000000; stroke-linecap:round; stroke-linejoin:round; stroke-width:4; stroke-opacity:1; fill:none" points="3401.52,2561.84 3401.52,2542.94 "/>
<path clip-path="url(#clip650)" d="M523.861 2618.93 L553.537 2618.93 L553.537 2622.87 L523.861 2622.87 L523.861 2618.93 Z" fill="#000000" fill-rule="nonzero" fill-opacity="1" /><path clip-path="url(#clip650)" d="M574.208 2616.62 Q571.06 2616.62 569.208 2618.77 Q567.379 2620.92 567.379 2624.67 Q567.379 2628.4 569.208 2630.57 Q571.06 2632.73 574.208 2632.73 Q577.356 2632.73 579.185 2630.57 Q581.037 2628.4 581.037 2624.67 Q581.037 2620.92 579.185 2618.77 Q577.356 2616.62 574.208 2616.62 M583.49 2601.96 L583.49 2606.22 Q581.731 2605.39 579.926 2604.95 Q578.143 2604.51 576.384 2604.51 Q571.754 2604.51 569.301 2607.64 Q566.87 2610.76 566.523 2617.08 Q567.889 2615.07 569.949 2614 Q572.009 2612.91 574.486 2612.91 Q579.694 2612.91 582.703 2616.08 Q585.736 2619.23 585.736 2624.67 Q585.736 2630 582.588 2633.21 Q579.44 2636.43 574.208 2636.43 Q568.213 2636.43 565.041 2631.85 Q561.87 2627.24 561.87 2618.51 Q561.87 2610.32 565.759 2605.46 Q569.648 2600.57 576.199 2600.57 Q577.958 2600.57 579.74 2600.92 Q581.546 2601.27 583.49 2601.96 Z" fill="#000000" fill-rule="nonzero" fill-opacity="1" /><path clip-path="url(#clip650)" d="M998.153 2618.93 L1027.83 2618.93 L1027.83 2622.87 L998.153 2622.87 L998.153 2618.93 Z" fill="#000000" fill-rule="nonzero" fill-opacity="1" /><path clip-path="url(#clip650)" d="M1050.77 2605.27 L1038.96 2623.72 L1050.77 2623.72 L1050.77 2605.27 M1049.54 2601.2 L1055.42 2601.2 L1055.42 2623.72 L1060.35 2623.72 L1060.35 2627.61 L1055.42 2627.61 L1055.42 2635.76 L1050.77 2635.76 L1050.77 2627.61 L1035.17 2627.61 L1035.17 2623.1 L1049.54 2601.2 Z" fill="#000000" fill-rule="nonzero" fill-opacity="1" /><path clip-path="url(#clip650)" d="M1473.65 2618.93 L1503.33 2618.93 L1503.33 2622.87 L1473.65 2622.87 L1473.65 2618.93 Z" fill="#000000" fill-rule="nonzero" fill-opacity="1" /><path clip-path="url(#clip650)" d="M1517.45 2631.82 L1533.76 2631.82 L1533.76 2635.76 L1511.82 2635.76 L1511.82 2631.82 Q1514.48 2629.07 1519.07 2624.44 Q1523.67 2619.79 1524.85 2618.45 Q1527.1 2615.92 1527.98 2614.19 Q1528.88 2612.43 1528.88 2610.74 Q1528.88 2607.98 1526.94 2606.25 Q1525.02 2604.51 1521.91 2604.51 Q1519.71 2604.51 1517.26 2605.27 Q1514.83 2606.04 1512.05 2607.59 L1512.05 2602.87 Q1514.88 2601.73 1517.33 2601.15 Q1519.78 2600.57 1521.82 2600.57 Q1527.19 2600.57 1530.39 2603.26 Q1533.58 2605.95 1533.58 2610.44 Q1533.58 2612.57 1532.77 2614.49 Q1531.98 2616.38 1529.88 2618.98 Q1529.3 2619.65 1526.2 2622.87 Q1523.09 2626.06 1517.45 2631.82 Z" fill="#000000" fill-rule="nonzero" fill-opacity="1" /><path clip-path="url(#clip650)" d="M1978.16 2604.28 Q1974.55 2604.28 1972.72 2607.84 Q1970.92 2611.39 1970.92 2618.51 Q1970.92 2625.62 1972.72 2629.19 Q1974.55 2632.73 1978.16 2632.73 Q1981.8 2632.73 1983.6 2629.19 Q1985.43 2625.62 1985.43 2618.51 Q1985.43 2611.39 1983.6 2607.84 Q1981.8 2604.28 1978.16 2604.28 M1978.16 2600.57 Q1983.97 2600.57 1987.03 2605.18 Q1990.11 2609.76 1990.11 2618.51 Q1990.11 2627.24 1987.03 2631.85 Q1983.97 2636.43 1978.16 2636.43 Q1972.35 2636.43 1969.27 2631.85 Q1966.22 2627.24 1966.22 2618.51 Q1966.22 2609.76 1969.27 2605.18 Q1972.35 2600.57 1978.16 2600.57 Z" fill="#000000" fill-rule="nonzero" fill-opacity="1" /><path clip-path="url(#clip650)" d="M2447.27 2631.82 L2463.59 2631.82 L2463.59 2635.76 L2441.64 2635.76 L2441.64 2631.82 Q2444.31 2629.07 2448.89 2624.44 Q2453.5 2619.79 2454.68 2618.45 Q2456.92 2615.92 2457.8 2614.19 Q2458.7 2612.43 2458.7 2610.74 Q2458.7 2607.98 2456.76 2606.25 Q2454.84 2604.51 2451.74 2604.51 Q2449.54 2604.51 2447.08 2605.27 Q2444.65 2606.04 2441.88 2607.59 L2441.88 2602.87 Q2444.7 2601.73 2447.15 2601.15 Q2449.61 2600.57 2451.64 2600.57 Q2457.01 2600.57 2460.21 2603.26 Q2463.4 2605.95 2463.4 2610.44 Q2463.4 2612.57 2462.59 2614.49 Q2461.81 2616.38 2459.7 2618.98 Q2459.12 2619.65 2456.02 2622.87 Q2452.92 2626.06 2447.27 2631.82 Z" fill="#000000" fill-rule="nonzero" fill-opacity="1" /><path clip-path="url(#clip650)" d="M2930.08 2605.27 L2918.27 2623.72 L2930.08 2623.72 L2930.08 2605.27 M2928.85 2601.2 L2934.73 2601.2 L2934.73 2623.72 L2939.66 2623.72 L2939.66 2627.61 L2934.73 2627.61 L2934.73 2635.76 L2930.08 2635.76 L2930.08 2627.61 L2914.48 2627.61 L2914.48 2623.1 L2928.85 2601.2 Z" fill="#000000" fill-rule="nonzero" fill-opacity="1" /><path clip-path="url(#clip650)" d="M3401.93 2616.62 Q3398.78 2616.62 3396.93 2618.77 Q3395.1 2620.92 3395.1 2624.67 Q3395.1 2628.4 3396.93 2630.57 Q3398.78 2632.73 3401.93 2632.73 Q3405.08 2632.73 3406.91 2630.57 Q3408.76 2628.4 3408.76 2624.67 Q3408.76 2620.92 3406.91 2618.77 Q3405.08 2616.62 3401.93 2616.62 M3411.21 2601.96 L3411.21 2606.22 Q3409.45 2605.39 3407.65 2604.95 Q3405.87 2604.51 3404.11 2604.51 Q3399.48 2604.51 3397.02 2607.64 Q3394.59 2610.76 3394.24 2617.08 Q3395.61 2615.07 3397.67 2614 Q3399.73 2612.91 3402.21 2612.91 Q3407.42 2612.91 3410.43 2616.08 Q3413.46 2619.23 3413.46 2624.67 Q3413.46 2630 3410.31 2633.21 Q3407.16 2636.43 3401.93 2636.43 Q3395.93 2636.43 3392.76 2631.85 Q3389.59 2627.24 3389.59 2618.51 Q3389.59 2610.32 3393.48 2605.46 Q3397.37 2600.57 3403.92 2600.57 Q3405.68 2600.57 3407.46 2600.92 Q3409.27 2601.27 3411.21 2601.96 Z" fill="#000000" fill-rule="nonzero" fill-opacity="1" /><polyline clip-path="url(#clip650)" style="stroke:#000000; stroke-linecap:round; stroke-linejoin:round; stroke-width:4; stroke-opacity:1; fill:none" points="163.591,2561.84 163.591,47.2441 "/>
<polyline clip-path="url(#clip650)" style="stroke:#000000; stroke-linecap:round; stroke-linejoin:round; stroke-width:4; stroke-opacity:1; fill:none" points="163.591,2253.45 182.489,2253.45 "/>
<polyline clip-path="url(#clip650)" style="stroke:#000000; stroke-linecap:round; stroke-linejoin:round; stroke-width:4; stroke-opacity:1; fill:none" points="163.591,1779 182.489,1779 "/>
<polyline clip-path="url(#clip650)" style="stroke:#000000; stroke-linecap:round; stroke-linejoin:round; stroke-width:4; stroke-opacity:1; fill:none" points="163.591,1304.54 182.489,1304.54 "/>
<polyline clip-path="url(#clip650)" style="stroke:#000000; stroke-linecap:round; stroke-linejoin:round; stroke-width:4; stroke-opacity:1; fill:none" points="163.591,830.088 182.489,830.088 "/>
<polyline clip-path="url(#clip650)" style="stroke:#000000; stroke-linecap:round; stroke-linejoin:round; stroke-width:4; stroke-opacity:1; fill:none" points="163.591,355.633 182.489,355.633 "/>
<path clip-path="url(#clip650)" d="M43.7921 2253.9 L73.4679 2253.9 L73.4679 2257.84 L43.7921 2257.84 L43.7921 2253.9 Z" fill="#000000" fill-rule="nonzero" fill-opacity="1" /><path clip-path="url(#clip650)" d="M96.4076 2240.24 L84.6021 2258.69 L96.4076 2258.69 L96.4076 2240.24 M95.1807 2236.17 L101.06 2236.17 L101.06 2258.69 L105.991 2258.69 L105.991 2262.58 L101.06 2262.58 L101.06 2270.73 L96.4076 2270.73 L96.4076 2262.58 L80.8058 2262.58 L80.8058 2258.07 L95.1807 2236.17 Z" fill="#000000" fill-rule="nonzero" fill-opacity="1" /><path clip-path="url(#clip650)" d="M45.8754 1779.45 L75.5512 1779.45 L75.5512 1783.38 L45.8754 1783.38 L45.8754 1779.45 Z" fill="#000000" fill-rule="nonzero" fill-opacity="1" /><path clip-path="url(#clip650)" d="M89.6715 1792.34 L105.991 1792.34 L105.991 1796.28 L84.0465 1796.28 L84.0465 1792.34 Q86.7086 1789.59 91.2919 1784.96 Q95.8983 1780.3 97.0789 1778.96 Q99.3242 1776.44 100.204 1774.7 Q101.107 1772.94 101.107 1771.25 Q101.107 1768.5 99.1622 1766.76 Q97.2409 1765.03 94.1391 1765.03 Q91.94 1765.03 89.4863 1765.79 Q87.0558 1766.55 84.278 1768.11 L84.278 1763.38 Q87.1021 1762.25 89.5558 1761.67 Q92.0095 1761.09 94.0465 1761.09 Q99.4168 1761.09 102.611 1763.78 Q105.806 1766.46 105.806 1770.95 Q105.806 1773.08 104.996 1775 Q104.208 1776.9 102.102 1779.49 Q101.523 1780.17 98.4215 1783.38 Q95.3196 1786.58 89.6715 1792.34 Z" fill="#000000" fill-rule="nonzero" fill-opacity="1" /><path clip-path="url(#clip650)" d="M94.0465 1290.34 Q90.4354 1290.34 88.6067 1293.91 Q86.8012 1297.45 86.8012 1304.58 Q86.8012 1311.68 88.6067 1315.25 Q90.4354 1318.79 94.0465 1318.79 Q97.6807 1318.79 99.4863 1315.25 Q101.315 1311.68 101.315 1304.58 Q101.315 1297.45 99.4863 1293.91 Q97.6807 1290.34 94.0465 1290.34 M94.0465 1286.64 Q99.8566 1286.64 102.912 1291.24 Q105.991 1295.83 105.991 1304.58 Q105.991 1313.3 102.912 1317.91 Q99.8566 1322.49 94.0465 1322.49 Q88.2363 1322.49 85.1576 1317.91 Q82.1021 1313.3 82.1021 1304.58 Q82.1021 1295.83 85.1576 1291.24 Q88.2363 1286.64 94.0465 1286.64 Z" fill="#000000" fill-rule="nonzero" fill-opacity="1" /><path clip-path="url(#clip650)" d="M89.6715 843.432 L105.991 843.432 L105.991 847.368 L84.0465 847.368 L84.0465 843.432 Q86.7086 840.678 91.2919 836.048 Q95.8983 831.395 97.0789 830.053 Q99.3242 827.53 100.204 825.794 Q101.107 824.034 101.107 822.345 Q101.107 819.59 99.1622 817.854 Q97.2409 816.118 94.1391 816.118 Q91.94 816.118 89.4863 816.882 Q87.0558 817.646 84.278 819.196 L84.278 814.474 Q87.1021 813.34 89.5558 812.761 Q92.0095 812.183 94.0465 812.183 Q99.4168 812.183 102.611 814.868 Q105.806 817.553 105.806 822.044 Q105.806 824.173 104.996 826.095 Q104.208 827.993 102.102 830.585 Q101.523 831.257 98.4215 834.474 Q95.3196 837.669 89.6715 843.432 Z" fill="#000000" fill-rule="nonzero" fill-opacity="1" /><path clip-path="url(#clip650)" d="M96.4076 342.427 L84.6021 360.876 L96.4076 360.876 L96.4076 342.427 M95.1807 338.353 L101.06 338.353 L101.06 360.876 L105.991 360.876 L105.991 364.765 L101.06 364.765 L101.06 372.913 L96.4076 372.913 L96.4076 364.765 L80.8058 364.765 L80.8058 360.251 L95.1807 338.353 Z" fill="#000000" fill-rule="nonzero" fill-opacity="1" /><path clip-path="url(#clip652)" d="M3164.3 1304.54 L3164.2 1289.61 L3163.92 1274.67 L3163.45 1259.75 L3162.79 1244.83 L3161.95 1229.91 L3160.91 1215.02 L3159.69 1200.13 L3158.28 1185.26 L3156.69 1170.41 L3154.91 1155.58 L3152.94 1140.78 L3150.78 1126 L3148.44 1111.25 L3145.92 1096.53 L3143.2 1081.84 L3140.31 1067.19 L3137.23 1052.58 L3133.96 1038 L3130.51 1023.47 L3126.88 1008.98 L3123.07 994.543 L3119.08 980.152 L3114.9 965.812 L3110.55 951.526 L3106.01 937.296 L3101.3 923.124 L3096.41 909.012 L3091.34 894.964 L3086.09 880.98 L3080.67 867.063 L3075.08 853.216 L3069.31 839.44 L3063.36 825.738 L3057.25 812.112 L3050.96 798.564 L3044.51 785.096 L3037.88 771.711 L3031.09 758.41 L3024.13 745.196 L3017 732.07 L3009.71 719.035 L3002.26 706.093 L2994.64 693.246 L2986.87 680.495 L2978.93 667.844 L2970.83 655.294 L2962.58 642.846 L2954.17 630.504 L2945.6 618.268 L2936.89 606.141 L2928.02 594.125 L2919 582.221 L2909.83 570.432 L2900.51 558.76 L2891.05 547.205 L2881.44 535.771 L2871.69 524.459 L2861.79 513.27 L2851.76 502.207 L2841.59 491.27 L2831.28 480.463 L2820.84 469.787 L2810.26 459.243 L2799.55 448.833 L2788.71 438.558 L2777.74 428.421 L2766.65 418.423 L2755.43 408.565 L2744.09 398.849 L2732.62 389.277 L2721.04 379.85 L2709.33 370.57 L2697.52 361.437 L2685.59 352.455 L2673.54 343.623 L2661.39 334.943 L2649.12 326.417 L2636.76 318.047 L2624.28 309.832 L2611.71 301.776 L2599.03 293.878 L2586.26 286.141 L2573.38 278.565 L2560.42 271.152 L2547.36 263.902 L2534.21 256.818 L2520.98 249.9 L2507.65 243.149 L2494.25 236.566 L2480.76 230.152 L2467.19 223.909 L2453.55 217.837 L2439.83 211.938 L2426.03 206.211 L2412.17 200.659 L2398.23 195.282 L2384.23 190.081 L2370.17 185.056 L2356.04 180.209 L2341.86 175.54 L2327.61 171.05 L2313.31 166.74 L2298.96 162.61 L2284.56 158.662 L2270.1 154.895 L2255.6 151.31 L2241.06 147.908 L2226.48 144.689 L2211.85 141.655 L2197.19 138.805 L2182.5 136.139 L2167.77 133.659 L2153.01 131.364 L2138.23 129.256 L2123.42 127.333 L2108.58 125.598 L2093.73 124.049 L2078.85 122.688 L2063.96 121.514 L2049.06 120.527 L2034.15 119.728 L2019.23 119.117 L2004.3 118.694 L1989.36 118.459 L1974.43 118.412 L1959.49 118.553 L1944.56 118.882 L1929.64 119.399 L1914.72 120.104 L1899.81 120.997 L1884.91 122.077 L1870.03 123.345 L1855.17 124.8 L1840.32 126.442 L1825.5 128.271 L1810.7 130.287 L1795.93 132.488 L1781.19 134.876 L1766.47 137.449 L1751.8 140.207 L1737.15 143.149 L1722.55 146.276 L1707.99 149.586 L1693.46 153.079 L1678.99 156.755 L1664.56 160.613 L1650.18 164.653 L1635.85 168.873 L1621.58 173.273 L1607.37 177.852 L1593.21 182.61 L1579.11 187.546 L1565.08 192.659 L1551.11 197.949 L1537.21 203.413 L1523.38 209.053 L1509.63 214.866 L1495.94 220.852 L1482.34 227.009 L1468.81 233.338 L1455.36 239.836 L1442 246.503 L1428.72 253.338 L1415.53 260.339 L1402.42 267.506 L1389.41 274.838 L1376.49 282.333 L1363.67 289.989 L1350.94 297.807 L1338.32 305.784 L1325.79 313.92 L1313.37 322.213 L1301.05 330.661 L1288.85 339.264 L1276.75 348.02 L1264.76 356.927 L1252.88 365.985 L1241.12 375.191 L1229.48 384.545 L1217.96 394.045 L1206.55 403.689 L1195.27 413.476 L1184.11 423.404 L1173.08 433.472 L1162.18 443.678 L1151.4 454.021 L1140.76 464.498 L1130.25 475.109 L1119.87 485.851 L1109.63 496.723 L1099.53 507.722 L1089.56 518.849 L1079.74 530.099 L1070.06 541.473 L1060.53 552.968 L1051.14 564.581 L1041.89 576.312 L1032.8 588.159 L1023.85 600.119 L1015.06 612.191 L1006.42 624.372 L997.93 636.662 L989.598 649.057 L981.423 661.556 L973.406 674.157 L965.548 686.858 L957.851 699.657 L950.316 712.552 L942.944 725.541 L935.735 738.622 L928.692 751.792 L921.816 765.05 L915.107 778.393 L908.566 791.82 L902.195 805.328 L895.995 818.915 L889.966 832.58 L884.109 846.319 L878.427 860.131 L872.918 874.013 L867.585 887.963 L862.428 901.98 L857.447 916.06 L852.645 930.202 L848.021 944.404 L843.576 958.662 L839.31 972.975 L835.226 987.341 L831.323 1001.76 L827.601 1016.22 L824.062 1030.73 L820.706 1045.28 L817.533 1059.88 L814.545 1074.51 L811.74 1089.18 L809.121 1103.89 L806.687 1118.62 L804.439 1133.39 L802.377 1148.18 L800.502 1162.99 L798.813 1177.83 L797.311 1192.69 L795.996 1207.57 L794.869 1222.46 L793.929 1237.37 L793.177 1252.29 L792.613 1267.21 L792.237 1282.14 L792.049 1297.07 L792.049 1312.01 L792.237 1326.94 L792.613 1341.87 L793.177 1356.8 L793.929 1371.71 L794.869 1386.62 L795.996 1401.51 L797.311 1416.39 L798.813 1431.25 L800.502 1446.09 L802.377 1460.91 L804.439 1475.7 L806.687 1490.46 L809.121 1505.2 L811.74 1519.9 L814.545 1534.57 L817.533 1549.21 L820.706 1563.8 L824.062 1578.35 L827.601 1592.86 L831.323 1607.33 L835.226 1621.74 L839.31 1636.11 L843.576 1650.42 L848.021 1664.68 L852.645 1678.88 L857.447 1693.02 L862.428 1707.1 L867.585 1721.12 L872.918 1735.07 L878.427 1748.95 L884.109 1762.77 L889.966 1776.5 L895.995 1790.17 L902.195 1803.76 L908.566 1817.26 L915.107 1830.69 L921.816 1844.03 L928.692 1857.29 L935.735 1870.46 L942.944 1883.54 L950.316 1896.53 L957.851 1909.43 L965.548 1922.23 L973.406 1934.93 L981.423 1947.53 L989.598 1960.03 L997.93 1972.42 L1006.42 1984.71 L1015.06 1996.89 L1023.85 2008.96 L1032.8 2020.93 L1041.89 2032.77 L1051.14 2044.5 L1060.53 2056.12 L1070.06 2067.61 L1079.74 2078.98 L1089.56 2090.24 L1099.53 2101.36 L1109.63 2112.36 L1119.87 2123.23 L1130.25 2133.98 L1140.76 2144.59 L1151.4 2155.06 L1162.18 2165.41 L1173.08 2175.61 L1184.11 2185.68 L1195.27 2195.61 L1206.55 2205.39 L1217.96 2215.04 L1229.48 2224.54 L1241.12 2233.89 L1252.88 2243.1 L1264.76 2252.16 L1276.75 2261.06 L1288.85 2269.82 L1301.05 2278.42 L1313.37 2286.87 L1325.79 2295.16 L1338.32 2303.3 L1350.94 2311.28 L1363.67 2319.09 L1376.49 2326.75 L1389.41 2334.25 L1402.42 2341.58 L1415.53 2348.74 L1428.72 2355.75 L1442 2362.58 L1455.36 2369.25 L1468.81 2375.75 L1482.34 2382.07 L1495.94 2388.23 L1509.63 2394.22 L1523.38 2400.03 L1537.21 2405.67 L1551.11 2411.14 L1565.08 2416.42 L1579.11 2421.54 L1593.21 2426.47 L1607.37 2431.23 L1621.58 2435.81 L1635.85 2440.21 L1650.18 2444.43 L1664.56 2448.47 L1678.99 2452.33 L1693.46 2456 L1707.99 2459.5 L1722.55 2462.81 L1737.15 2465.93 L1751.8 2468.88 L1766.47 2471.64 L1781.19 2474.21 L1795.93 2476.6 L1810.7 2478.8 L1825.5 2480.81 L1840.32 2482.64 L1855.17 2484.28 L1870.03 2485.74 L1884.91 2487.01 L1899.81 2488.09 L1914.72 2488.98 L1929.64 2489.68 L1944.56 2490.2 L1959.49 2490.53 L1974.43 2490.67 L1989.36 2490.63 L2004.3 2490.39 L2019.23 2489.97 L2034.15 2489.36 L2049.06 2488.56 L2063.96 2487.57 L2078.85 2486.4 L2093.73 2485.03 L2108.58 2483.49 L2123.42 2481.75 L2138.23 2479.83 L2153.01 2477.72 L2167.77 2475.43 L2182.5 2472.94 L2197.19 2470.28 L2211.85 2467.43 L2226.48 2464.39 L2241.06 2461.18 L2255.6 2457.77 L2270.1 2454.19 L2284.56 2450.42 L2298.96 2446.47 L2313.31 2442.34 L2327.61 2438.03 L2341.86 2433.54 L2356.04 2428.87 L2370.17 2424.03 L2384.23 2419 L2398.23 2413.8 L2412.17 2408.42 L2426.03 2402.87 L2439.83 2397.15 L2453.55 2391.25 L2467.19 2385.17 L2480.76 2378.93 L2494.25 2372.52 L2507.65 2365.94 L2520.98 2359.18 L2534.21 2352.27 L2547.36 2345.18 L2560.42 2337.93 L2573.38 2330.52 L2586.26 2322.94 L2599.03 2315.21 L2611.71 2307.31 L2624.28 2299.25 L2636.76 2291.04 L2649.12 2282.67 L2661.39 2274.14 L2673.54 2265.46 L2685.59 2256.63 L2697.52 2247.65 L2709.33 2238.51 L2721.04 2229.23 L2732.62 2219.81 L2744.09 2210.23 L2755.43 2200.52 L2766.65 2190.66 L2777.74 2180.66 L2788.71 2170.53 L2799.55 2160.25 L2810.26 2149.84 L2820.84 2139.3 L2831.28 2128.62 L2841.59 2117.81 L2851.76 2106.88 L2861.79 2095.81 L2871.69 2084.63 L2881.44 2073.31 L2891.05 2061.88 L2900.51 2050.32 L2909.83 2038.65 L2919 2026.86 L2928.02 2014.96 L2936.89 2002.94 L2945.6 1990.82 L2954.17 1978.58 L2962.58 1966.24 L2970.83 1953.79 L2978.93 1941.24 L2986.87 1928.59 L2994.64 1915.84 L3002.26 1902.99 L3009.71 1890.05 L3017 1877.01 L3024.13 1863.89 L3031.09 1850.67 L3037.88 1837.37 L3044.51 1823.99 L3050.96 1810.52 L3057.25 1796.97 L3063.36 1783.35 L3069.31 1769.64 L3075.08 1755.87 L3080.67 1742.02 L3086.09 1728.1 L3091.34 1714.12 L3096.41 1700.07 L3101.3 1685.96 L3106.01 1671.79 L3110.55 1657.56 L3114.9 1643.27 L3119.08 1628.93 L3123.07 1614.54 L3126.88 1600.1 L3130.51 1585.61 L3133.96 1571.08 L3137.23 1556.51 L3140.31 1541.89 L3143.2 1527.24 L3145.92 1512.55 L3148.44 1497.83 L3150.78 1483.08 L3152.94 1468.31 L3154.91 1453.5 L3156.69 1438.67 L3158.28 1423.82 L3159.69 1408.95 L3160.91 1394.07 L3161.95 1379.17 L3162.79 1364.26 L3163.45 1349.34 L3163.92 1334.41 L3164.2 1319.48 L3164.3 1304.54 L3164.3 1304.54 L3164.2 1304.54 L3163.92 1304.54 L3163.45 1304.54 L3162.79 1304.54 L3161.95 1304.54 L3160.91 1304.54 L3159.69 1304.54 L3158.28 1304.54 L3156.69 1304.54 L3154.91 1304.54 L3152.94 1304.54 L3150.78 1304.54 L3148.44 1304.54 L3145.92 1304.54 L3143.2 1304.54 L3140.31 1304.54 L3137.23 1304.54 L3133.96 1304.54 L3130.51 1304.54 L3126.88 1304.54 L3123.07 1304.54 L3119.08 1304.54 L3114.9 1304.54 L3110.55 1304.54 L3106.01 1304.54 L3101.3 1304.54 L3096.41 1304.54 L3091.34 1304.54 L3086.09 1304.54 L3080.67 1304.54 L3075.08 1304.54 L3069.31 1304.54 L3063.36 1304.54 L3057.25 1304.54 L3050.96 1304.54 L3044.51 1304.54 L3037.88 1304.54 L3031.09 1304.54 L3024.13 1304.54 L3017 1304.54 L3009.71 1304.54 L3002.26 1304.54 L2994.64 1304.54 L2986.87 1304.54 L2978.93 1304.54 L2970.83 1304.54 L2962.58 1304.54 L2954.17 1304.54 L2945.6 1304.54 L2936.89 1304.54 L2928.02 1304.54 L2919 1304.54 L2909.83 1304.54 L2900.51 1304.54 L2891.05 1304.54 L2881.44 1304.54 L2871.69 1304.54 L2861.79 1304.54 L2851.76 1304.54 L2841.59 1304.54 L2831.28 1304.54 L2820.84 1304.54 L2810.26 1304.54 L2799.55 1304.54 L2788.71 1304.54 L2777.74 1304.54 L2766.65 1304.54 L2755.43 1304.54 L2744.09 1304.54 L2732.62 1304.54 L2721.04 1304.54 L2709.33 1304.54 L2697.52 1304.54 L2685.59 1304.54 L2673.54 1304.54 L2661.39 1304.54 L2649.12 1304.54 L2636.76 1304.54 L2624.28 1304.54 L2611.71 1304.54 L2599.03 1304.54 L2586.26 1304.54 L2573.38 1304.54 L2560.42 1304.54 L2547.36 1304.54 L2534.21 1304.54 L2520.98 1304.54 L2507.65 1304.54 L2494.25 1304.54 L2480.76 1304.54 L2467.19 1304.54 L2453.55 1304.54 L2439.83 1304.54 L2426.03 1304.54 L2412.17 1304.54 L2398.23 1304.54 L2384.23 1304.54 L2370.17 1304.54 L2356.04 1304.54 L2341.86 1304.54 L2327.61 1304.54 L2313.31 1304.54 L2298.96 1304.54 L2284.56 1304.54 L2270.1 1304.54 L2255.6 1304.54 L2241.06 1304.54 L2226.48 1304.54 L2211.85 1304.54 L2197.19 1304.54 L2182.5 1304.54 L2167.77 1304.54 L2153.01 1304.54 L2138.23 1304.54 L2123.42 1304.54 L2108.58 1304.54 L2093.73 1304.54 L2078.85 1304.54 L2063.96 1304.54 L2049.06 1304.54 L2034.15 1304.54 L2019.23 1304.54 L2004.3 1304.54 L1989.36 1304.54 L1974.43 1304.54 L1959.49 1304.54 L1944.56 1304.54 L1929.64 1304.54 L1914.72 1304.54 L1899.81 1304.54 L1884.91 1304.54 L1870.03 1304.54 L1855.17 1304.54 L1840.32 1304.54 L1825.5 1304.54 L1810.7 1304.54 L1795.93 1304.54 L1781.19 1304.54 L1766.47 1304.54 L1751.8 1304.54 L1737.15 1304.54 L1722.55 1304.54 L1707.99 1304.54 L1693.46 1304.54 L1678.99 1304.54 L1664.56 1304.54 L1650.18 1304.54 L1635.85 1304.54 L1621.58 1304.54 L1607.37 1304.54 L1593.21 1304.54 L1579.11 1304.54 L1565.08 1304.54 L1551.11 1304.54 L1537.21 1304.54 L1523.38 1304.54 L1509.63 1304.54 L1495.94 1304.54 L1482.34 1304.54 L1468.81 1304.54 L1455.36 1304.54 L1442 1304.54 L1428.72 1304.54 L1415.53 1304.54 L1402.42 1304.54 L1389.41 1304.54 L1376.49 1304.54 L1363.67 1304.54 L1350.94 1304.54 L1338.32 1304.54 L1325.79 1304.54 L1313.37 1304.54 L1301.05 1304.54 L1288.85 1304.54 L1276.75 1304.54 L1264.76 1304.54 L1252.88 1304.54 L1241.12 1304.54 L1229.48 1304.54 L1217.96 1304.54 L1206.55 1304.54 L1195.27 1304.54 L1184.11 1304.54 L1173.08 1304.54 L1162.18 1304.54 L1151.4 1304.54 L1140.76 1304.54 L1130.25 1304.54 L1119.87 1304.54 L1109.63 1304.54 L1099.53 1304.54 L1089.56 1304.54 L1079.74 1304.54 L1070.06 1304.54 L1060.53 1304.54 L1051.14 1304.54 L1041.89 1304.54 L1032.8 1304.54 L1023.85 1304.54 L1015.06 1304.54 L1006.42 1304.54 L997.93 1304.54 L989.598 1304.54 L981.423 1304.54 L973.406 1304.54 L965.548 1304.54 L957.851 1304.54 L950.316 1304.54 L942.944 1304.54 L935.735 1304.54 L928.692 1304.54 L921.816 1304.54 L915.107 1304.54 L908.566 1304.54 L902.195 1304.54 L895.995 1304.54 L889.966 1304.54 L884.109 1304.54 L878.427 1304.54 L872.918 1304.54 L867.585 1304.54 L862.428 1304.54 L857.447 1304.54 L852.645 1304.54 L848.021 1304.54 L843.576 1304.54 L839.31 1304.54 L835.226 1304.54 L831.323 1304.54 L827.601 1304.54 L824.062 1304.54 L820.706 1304.54 L817.533 1304.54 L814.545 1304.54 L811.74 1304.54 L809.121 1304.54 L806.687 1304.54 L804.439 1304.54 L802.377 1304.54 L800.502 1304.54 L798.813 1304.54 L797.311 1304.54 L795.996 1304.54 L794.869 1304.54 L793.929 1304.54 L793.177 1304.54 L792.613 1304.54 L792.237 1304.54 L792.049 1304.54 L792.049 1304.54 L792.237 1304.54 L792.613 1304.54 L793.177 1304.54 L793.929 1304.54 L794.869 1304.54 L795.996 1304.54 L797.311 1304.54 L798.813 1304.54 L800.502 1304.54 L802.377 1304.54 L804.439 1304.54 L806.687 1304.54 L809.121 1304.54 L811.74 1304.54 L814.545 1304.54 L817.533 1304.54 L820.706 1304.54 L824.062 1304.54 L827.601 1304.54 L831.323 1304.54 L835.226 1304.54 L839.31 1304.54 L843.576 1304.54 L848.021 1304.54 L852.645 1304.54 L857.447 1304.54 L862.428 1304.54 L867.585 1304.54 L872.918 1304.54 L878.427 1304.54 L884.109 1304.54 L889.966 1304.54 L895.995 1304.54 L902.195 1304.54 L908.566 1304.54 L915.107 1304.54 L921.816 1304.54 L928.692 1304.54 L935.735 1304.54 L942.944 1304.54 L950.316 1304.54 L957.851 1304.54 L965.548 1304.54 L973.406 1304.54 L981.423 1304.54 L989.598 1304.54 L997.93 1304.54 L1006.42 1304.54 L1015.06 1304.54 L1023.85 1304.54 L1032.8 1304.54 L1041.89 1304.54 L1051.14 1304.54 L1060.53 1304.54 L1070.06 1304.54 L1079.74 1304.54 L1089.56 1304.54 L1099.53 1304.54 L1109.63 1304.54 L1119.87 1304.54 L1130.25 1304.54 L1140.76 1304.54 L1151.4 1304.54 L1162.18 1304.54 L1173.08 1304.54 L1184.11 1304.54 L1195.27 1304.54 L1206.55 1304.54 L1217.96 1304.54 L1229.48 1304.54 L1241.12 1304.54 L1252.88 1304.54 L1264.76 1304.54 L1276.75 1304.54 L1288.85 1304.54 L1301.05 1304.54 L1313.37 1304.54 L1325.79 1304.54 L1338.32 1304.54 L1350.94 1304.54 L1363.67 1304.54 L1376.49 1304.54 L1389.41 1304.54 L1402.42 1304.54 L1415.53 1304.54 L1428.72 1304.54 L1442 1304.54 L1455.36 1304.54 L1468.81 1304.54 L1482.34 1304.54 L1495.94 1304.54 L1509.63 1304.54 L1523.38 1304.54 L1537.21 1304.54 L1551.11 1304.54 L1565.08 1304.54 L1579.11 1304.54 L1593.21 1304.54 L1607.37 1304.54 L1621.58 1304.54 L1635.85 1304.54 L1650.18 1304.54 L1664.56 1304.54 L1678.99 1304.54 L1693.46 1304.54 L1707.99 1304.54 L1722.55 1304.54 L1737.15 1304.54 L1751.8 1304.54 L1766.47 1304.54 L1781.19 1304.54 L1795.93 1304.54 L1810.7 1304.54 L1825.5 1304.54 L1840.32 1304.54 L1855.17 1304.54 L1870.03 1304.54 L1884.91 1304.54 L1899.81 1304.54 L1914.72 1304.54 L1929.64 1304.54 L1944.56 1304.54 L1959.49 1304.54 L1974.43 1304.54 L1989.36 1304.54 L2004.3 1304.54 L2019.23 1304.54 L2034.15 1304.54 L2049.06 1304.54 L2063.96 1304.54 L2078.85 1304.54 L2093.73 1304.54 L2108.58 1304.54 L2123.42 1304.54 L2138.23 1304.54 L2153.01 1304.54 L2167.77 1304.54 L2182.5 1304.54 L2197.19 1304.54 L2211.85 1304.54 L2226.48 1304.54 L2241.06 1304.54 L2255.6 1304.54 L2270.1 1304.54 L2284.56 1304.54 L2298.96 1304.54 L2313.31 1304.54 L2327.61 1304.54 L2341.86 1304.54 L2356.04 1304.54 L2370.17 1304.54 L2384.23 1304.54 L2398.23 1304.54 L2412.17 1304.54 L2426.03 1304.54 L2439.83 1304.54 L2453.55 1304.54 L2467.19 1304.54 L2480.76 1304.54 L2494.25 1304.54 L2507.65 1304.54 L2520.98 1304.54 L2534.21 1304.54 L2547.36 1304.54 L2560.42 1304.54 L2573.38 1304.54 L2586.26 1304.54 L2599.03 1304.54 L2611.71 1304.54 L2624.28 1304.54 L2636.76 1304.54 L2649.12 1304.54 L2661.39 1304.54 L2673.54 1304.54 L2685.59 1304.54 L2697.52 1304.54 L2709.33 1304.54 L2721.04 1304.54 L2732.62 1304.54 L2744.09 1304.54 L2755.43 1304.54 L2766.65 1304.54 L2777.74 1304.54 L2788.71 1304.54 L2799.55 1304.54 L2810.26 1304.54 L2820.84 1304.54 L2831.28 1304.54 L2841.59 1304.54 L2851.76 1304.54 L2861.79 1304.54 L2871.69 1304.54 L2881.44 1304.54 L2891.05 1304.54 L2900.51 1304.54 L2909.83 1304.54 L2919 1304.54 L2928.02 1304.54 L2936.89 1304.54 L2945.6 1304.54 L2954.17 1304.54 L2962.58 1304.54 L2970.83 1304.54 L2978.93 1304.54 L2986.87 1304.54 L2994.64 1304.54 L3002.26 1304.54 L3009.71 1304.54 L3017 1304.54 L3024.13 1304.54 L3031.09 1304.54 L3037.88 1304.54 L3044.51 1304.54 L3050.96 1304.54 L3057.25 1304.54 L3063.36 1304.54 L3069.31 1304.54 L3075.08 1304.54 L3080.67 1304.54 L3086.09 1304.54 L3091.34 1304.54 L3096.41 1304.54 L3101.3 1304.54 L3106.01 1304.54 L3110.55 1304.54 L3114.9 1304.54 L3119.08 1304.54 L3123.07 1304.54 L3126.88 1304.54 L3130.51 1304.54 L3133.96 1304.54 L3137.23 1304.54 L3140.31 1304.54 L3143.2 1304.54 L3145.92 1304.54 L3148.44 1304.54 L3150.78 1304.54 L3152.94 1304.54 L3154.91 1304.54 L3156.69 1304.54 L3158.28 1304.54 L3159.69 1304.54 L3160.91 1304.54 L3161.95 1304.54 L3162.79 1304.54 L3163.45 1304.54 L3163.92 1304.54 L3164.2 1304.54 L3164.3 1304.54  Z" fill="#ff0000" fill-rule="evenodd" fill-opacity="1"/>
<polyline clip-path="url(#clip652)" style="stroke:#ff0000; stroke-linecap:round; stroke-linejoin:round; stroke-width:4; stroke-opacity:1; fill:none" points="3164.3,1304.54 3164.2,1289.61 3163.92,1274.67 3163.45,1259.75 3162.79,1244.83 3161.95,1229.91 3160.91,1215.02 3159.69,1200.13 3158.28,1185.26 3156.69,1170.41 3154.91,1155.58 3152.94,1140.78 3150.78,1126 3148.44,1111.25 3145.92,1096.53 3143.2,1081.84 3140.31,1067.19 3137.23,1052.58 3133.96,1038 3130.51,1023.47 3126.88,1008.98 3123.07,994.543 3119.08,980.152 3114.9,965.812 3110.55,951.526 3106.01,937.296 3101.3,923.124 3096.41,909.012 3091.34,894.964 3086.09,880.98 3080.67,867.063 3075.08,853.216 3069.31,839.44 3063.36,825.738 3057.25,812.112 3050.96,798.564 3044.51,785.096 3037.88,771.711 3031.09,758.41 3024.13,745.196 3017,732.07 3009.71,719.035 3002.26,706.093 2994.64,693.246 2986.87,680.495 2978.93,667.844 2970.83,655.294 2962.58,642.846 2954.17,630.504 2945.6,618.268 2936.89,606.141 2928.02,594.125 2919,582.221 2909.83,570.432 2900.51,558.76 2891.05,547.205 2881.44,535.771 2871.69,524.459 2861.79,513.27 2851.76,502.207 2841.59,491.27 2831.28,480.463 2820.84,469.787 2810.26,459.243 2799.55,448.833 2788.71,438.558 2777.74,428.421 2766.65,418.423 2755.43,408.565 2744.09,398.849 2732.62,389.277 2721.04,379.85 2709.33,370.57 2697.52,361.437 2685.59,352.455 2673.54,343.623 2661.39,334.943 2649.12,326.417 2636.76,318.047 2624.28,309.832 2611.71,301.776 2599.03,293.878 2586.26,286.141 2573.38,278.565 2560.42,271.152 2547.36,263.902 2534.21,256.818 2520.98,249.9 2507.65,243.149 2494.25,236.566 2480.76,230.152 2467.19,223.909 2453.55,217.837 2439.83,211.938 2426.03,206.211 2412.17,200.659 2398.23,195.282 2384.23,190.081 2370.17,185.056 2356.04,180.209 2341.86,175.54 2327.61,171.05 2313.31,166.74 2298.96,162.61 2284.56,158.662 2270.1,154.895 2255.6,151.31 2241.06,147.908 2226.48,144.689 2211.85,141.655 2197.19,138.805 2182.5,136.139 2167.77,133.659 2153.01,131.364 2138.23,129.256 2123.42,127.333 2108.58,125.598 2093.73,124.049 2078.85,122.688 2063.96,121.514 2049.06,120.527 2034.15,119.728 2019.23,119.117 2004.3,118.694 1989.36,118.459 1974.43,118.412 1959.49,118.553 1944.56,118.882 1929.64,119.399 1914.72,120.104 1899.81,120.997 1884.91,122.077 1870.03,123.345 1855.17,124.8 1840.32,126.442 1825.5,128.271 1810.7,130.287 1795.93,132.488 1781.19,134.876 1766.47,137.449 1751.8,140.207 1737.15,143.149 1722.55,146.276 1707.99,149.586 1693.46,153.079 1678.99,156.755 1664.56,160.613 1650.18,164.653 1635.85,168.873 1621.58,173.273 1607.37,177.852 1593.21,182.61 1579.11,187.546 1565.08,192.659 1551.11,197.949 1537.21,203.413 1523.38,209.053 1509.63,214.866 1495.94,220.852 1482.34,227.009 1468.81,233.338 1455.36,239.836 1442,246.503 1428.72,253.338 1415.53,260.339 1402.42,267.506 1389.41,274.838 1376.49,282.333 1363.67,289.989 1350.94,297.807 1338.32,305.784 1325.79,313.92 1313.37,322.213 1301.05,330.661 1288.85,339.264 1276.75,348.02 1264.76,356.927 1252.88,365.985 1241.12,375.191 1229.48,384.545 1217.96,394.045 1206.55,403.689 1195.27,413.476 1184.11,423.404 1173.08,433.472 1162.18,443.678 1151.4,454.021 1140.76,464.498 1130.25,475.109 1119.87,485.851 1109.63,496.723 1099.53,507.722 1089.56,518.849 1079.74,530.099 1070.06,541.473 1060.53,552.968 1051.14,564.581 1041.89,576.312 1032.8,588.159 1023.85,600.119 1015.06,612.191 1006.42,624.372 997.93,636.662 989.598,649.057 981.423,661.556 973.406,674.157 965.548,686.858 957.851,699.657 950.316,712.552 942.944,725.541 935.735,738.622 928.692,751.792 921.816,765.05 915.107,778.393 908.566,791.82 902.195,805.328 895.995,818.915 889.966,832.58 884.109,846.319 878.427,860.131 872.918,874.013 867.585,887.963 862.428,901.98 857.447,916.06 852.645,930.202 848.021,944.404 843.576,958.662 839.31,972.975 835.226,987.341 831.323,1001.76 827.601,1016.22 824.062,1030.73 820.706,1045.28 817.533,1059.88 814.545,1074.51 811.74,1089.18 809.121,1103.89 806.687,1118.62 804.439,1133.39 802.377,1148.18 800.502,1162.99 798.813,1177.83 797.311,1192.69 795.996,1207.57 794.869,1222.46 793.929,1237.37 793.177,1252.29 792.613,1267.21 792.237,1282.14 792.049,1297.07 792.049,1312.01 792.237,1326.94 792.613,1341.87 793.177,1356.8 793.929,1371.71 794.869,1386.62 795.996,1401.51 797.311,1416.39 798.813,1431.25 800.502,1446.09 802.377,1460.91 804.439,1475.7 806.687,1490.46 809.121,1505.2 811.74,1519.9 814.545,1534.57 817.533,1549.21 820.706,1563.8 824.062,1578.35 827.601,1592.86 831.323,1607.33 835.226,1621.74 839.31,1636.11 843.576,1650.42 848.021,1664.68 852.645,1678.88 857.447,1693.02 862.428,1707.1 867.585,1721.12 872.918,1735.07 878.427,1748.95 884.109,1762.77 889.966,1776.5 895.995,1790.17 902.195,1803.76 908.566,1817.26 915.107,1830.69 921.816,1844.03 928.692,1857.29 935.735,1870.46 942.944,1883.54 950.316,1896.53 957.851,1909.43 965.548,1922.23 973.406,1934.93 981.423,1947.53 989.598,1960.03 997.93,1972.42 1006.42,1984.71 1015.06,1996.89 1023.85,2008.96 1032.8,2020.93 1041.89,2032.77 1051.14,2044.5 1060.53,2056.12 1070.06,2067.61 1079.74,2078.98 1089.56,2090.24 1099.53,2101.36 1109.63,2112.36 1119.87,2123.23 1130.25,2133.98 1140.76,2144.59 1151.4,2155.06 1162.18,2165.41 1173.08,2175.61 1184.11,2185.68 1195.27,2195.61 1206.55,2205.39 1217.96,2215.04 1229.48,2224.54 1241.12,2233.89 1252.88,2243.1 1264.76,2252.16 1276.75,2261.06 1288.85,2269.82 1301.05,2278.42 1313.37,2286.87 1325.79,2295.16 1338.32,2303.3 1350.94,2311.28 1363.67,2319.09 1376.49,2326.75 1389.41,2334.25 1402.42,2341.58 1415.53,2348.74 1428.72,2355.75 1442,2362.58 1455.36,2369.25 1468.81,2375.75 1482.34,2382.07 1495.94,2388.23 1509.63,2394.22 1523.38,2400.03 1537.21,2405.67 1551.11,2411.14 1565.08,2416.42 1579.11,2421.54 1593.21,2426.47 1607.37,2431.23 1621.58,2435.81 1635.85,2440.21 1650.18,2444.43 1664.56,2448.47 1678.99,2452.33 1693.46,2456 1707.99,2459.5 1722.55,2462.81 1737.15,2465.93 1751.8,2468.88 1766.47,2471.64 1781.19,2474.21 1795.93,2476.6 1810.7,2478.8 1825.5,2480.81 1840.32,2482.64 1855.17,2484.28 1870.03,2485.74 1884.91,2487.01 1899.81,2488.09 1914.72,2488.98 1929.64,2489.68 1944.56,2490.2 1959.49,2490.53 1974.43,2490.67 1989.36,2490.63 2004.3,2490.39 2019.23,2489.97 2034.15,2489.36 2049.06,2488.56 2063.96,2487.57 2078.85,2486.4 2093.73,2485.03 2108.58,2483.49 2123.42,2481.75 2138.23,2479.83 2153.01,2477.72 2167.77,2475.43 2182.5,2472.94 2197.19,2470.28 2211.85,2467.43 2226.48,2464.39 2241.06,2461.18 2255.6,2457.77 2270.1,2454.19 2284.56,2450.42 2298.96,2446.47 2313.31,2442.34 2327.61,2438.03 2341.86,2433.54 2356.04,2428.87 2370.17,2424.03 2384.23,2419 2398.23,2413.8 2412.17,2408.42 2426.03,2402.87 2439.83,2397.15 2453.55,2391.25 2467.19,2385.17 2480.76,2378.93 2494.25,2372.52 2507.65,2365.94 2520.98,2359.18 2534.21,2352.27 2547.36,2345.18 2560.42,2337.93 2573.38,2330.52 2586.26,2322.94 2599.03,2315.21 2611.71,2307.31 2624.28,2299.25 2636.76,2291.04 2649.12,2282.67 2661.39,2274.14 2673.54,2265.46 2685.59,2256.63 2697.52,2247.65 2709.33,2238.51 2721.04,2229.23 2732.62,2219.81 2744.09,2210.23 2755.43,2200.52 2766.65,2190.66 2777.74,2180.66 2788.71,2170.53 2799.55,2160.25 2810.26,2149.84 2820.84,2139.3 2831.28,2128.62 2841.59,2117.81 2851.76,2106.88 2861.79,2095.81 2871.69,2084.63 2881.44,2073.31 2891.05,2061.88 2900.51,2050.32 2909.83,2038.65 2919,2026.86 2928.02,2014.96 2936.89,2002.94 2945.6,1990.82 2954.17,1978.58 2962.58,1966.24 2970.83,1953.79 2978.93,1941.24 2986.87,1928.59 2994.64,1915.84 3002.26,1902.99 3009.71,1890.05 3017,1877.01 3024.13,1863.89 3031.09,1850.67 3037.88,1837.37 3044.51,1823.99 3050.96,1810.52 3057.25,1796.97 3063.36,1783.35 3069.31,1769.64 3075.08,1755.87 3080.67,1742.02 3086.09,1728.1 3091.34,1714.12 3096.41,1700.07 3101.3,1685.96 3106.01,1671.79 3110.55,1657.56 3114.9,1643.27 3119.08,1628.93 3123.07,1614.54 3126.88,1600.1 3130.51,1585.61 3133.96,1571.08 3137.23,1556.51 3140.31,1541.89 3143.2,1527.24 3145.92,1512.55 3148.44,1497.83 3150.78,1483.08 3152.94,1468.31 3154.91,1453.5 3156.69,1438.67 3158.28,1423.82 3159.69,1408.95 3160.91,1394.07 3161.95,1379.17 3162.79,1364.26 3163.45,1349.34 3163.92,1334.41 3164.2,1319.48 3164.3,1304.54 "/>
<path clip-path="url(#clip652)" d="M1139.44 2143.27 L2816.89 2143.27 L2816.89 465.817 L1139.44 465.817 L1139.44 2143.27  Z" fill="#ffffff" fill-rule="evenodd" fill-opacity="1"/>
<polyline clip-path="url(#clip652)" style="stroke:#000000; stroke-linecap:round; stroke-linejoin:round; stroke-width:4; stroke-opacity:1; fill:none" points="1139.44,2143.27 2816.89,2143.27 2816.89,465.817 1139.44,465.817 1139.44,2143.27 "/>
</svg>
